<?xml version="1.0" standalone="no"?>
<!DOCTYPE svg PUBLIC "-//W3C//DTD SVG 1.1//EN" "http://www.w3.org/Graphics/SVG/1.1/DTD/svg11.dtd" >
<svg xmlns="http://www.w3.org/2000/svg">
<metadata>
Created by FontPrep 20130207 at Sun Oct  4 19:55:10 2015
 By Bez Hermoso
Copyright 2004 Imprimerie Paul Daxhelet s.a. All Rights Reserved
</metadata>
<defs>
<font id="faec4cf322758162b805249d7d802d9f" horiz-adv-x='1024' >
  <font-face 
    font-family="EcuyerDAX"
    font-weight="5"
    font-stretch="normal"
    units-per-em="2048"
    panose-1="0 0 0 0 0 0 0 0 0 0"
    ascent="1638"
    descent="-410"
    x-height="1092"
    cap-height="1378"
    bbox="40 -856 3838 1874"
    underline-thickness="143"
    underline-position="-236"
    unicode-range="U+0020-F002"
  />
<missing-glyph horiz-adv-x="1630" 
d="M1481 109v1548h-1331v-1548h1331zM41 0v1765h1548v-1765h-1548z" />
    <glyph glyph-name=".notdef" horiz-adv-x="1630" 
d="M1481 109v1548h-1331v-1548h1331zM41 0v1765h1548v-1765h-1548z" />
    <glyph glyph-name=".null" unicode="&#xd7;" horiz-adv-x="81" 
 />
    <glyph glyph-name="nonmarkingreturn" horiz-adv-x="81" 
 />
    <glyph glyph-name="space" unicode=" " horiz-adv-x="1021" 
 />
    <glyph glyph-name="exclam" unicode="!" horiz-adv-x="550" 
d="M145 84q23 -35 45 -50t82 -28q37 33 58 78h-185zM131 207l-6 -43l6 -45h207l4 45l-4 43h-207zM272 317q-51 -6 -71 -16t-58 -59h187q-15 44 -58 75zM162 858l61 -149l41 84l29 65h-131zM117 983l12 -45l18 -45h158l29 90h-217zM94 1106l4 -53l11 -35h235l14 88h-264z
M360 1141v51l-8 39h-241l-17 -45l-2 -45h268zM303 1335l-37 4q-76 0 -137 -73h215q-16 40 -41 69zM483 166q0 -88 -59 -147q-60 -60 -148 -60t-148 60q-60 61 -60 147t60 148t146 62t148 -60q62 -62 61 -150zM41 1139q0 117 63 187q64 70 170 69q106 0 171 -69t65 -185
q0 -66 -11 -110t-16 -66q-16 -39 -18 -50l-90 -217l-27 -71l-29 -97l-16 -106h-55l-6 57q-7 81 -101 303l-55 134l-27 94q-18 68 -18 127z" />
    <glyph glyph-name="quotedbl" unicode="&#x22;" horiz-adv-x="491" 
d="M330 1106l16 -88l16 88h-32zM399 1309l7 30h-119l6 -30h106zM371 1151l20 113h-90l21 -113h49zM342 952l-74 404h183l-74 -404h-35zM102 1106l17 -88l16 88h-33zM172 1309l6 30h-119l7 -30h106zM143 1151l21 113h-90l20 -113h49zM115 952l-74 404h182l-73 -404h-35z" />
    <glyph glyph-name="numbersign" unicode="#" horiz-adv-x="1998" 
d="M788 193l-65 -101h199l65 101h-199zM1016 236l67 104h-198l-68 -104h199zM1186 793l-72 -109h197l71 109h-196zM1737 1329h-197l-31 -45h197zM1606 1133l71 108h-196l-72 -108h197zM1159 1329h-196l-31 -45h196zM1028 1133l72 108h-197l-72 -108h197zM324 1071v-88h1499
v88h-258l12 19h-197l-12 -19h-381l12 19h-196l-12 -19h-467zM1823 924v18h-1499v-18h372l-59 -90h197l59 90h381l-60 -90h197l59 90h353zM735 684l70 109h-197l-71 -109h198zM68 555v-23h1499v23h-342l57 86h-197l-57 -86h-379l58 86h-199l-57 -86h-383zM1567 410v84h-1499
v-84h286l-16 -25h199l16 25h377l-17 -25h199l16 25h439zM508 340h-199l-69 -104h198zM145 92h199l66 101h-199zM799 580h192l213 321h-192zM297 901v195h459l182 272h383l-182 -272h192l182 272h383l-180 -272h242v-195h-369l-213 -321h326v-195h-453l-221 -332h-385
l221 332h-192l-219 -332h-385l219 332h-246v195h373l213 321h-330z" />
    <glyph glyph-name="dollar" unicode="$" horiz-adv-x="1734" 
d="M125 197h168l-39 30l-84 88l-45 58v-176zM125 162v-127l164 127h-164zM1425 1169h-102l59 -59l43 -47v106zM1425 1204v82l-102 -82h102zM1487 238l4 -37q0 -49 -35 -115l66 57q20 33 43 95h-78zM1581 362h-192l41 -30q6 -4 18 -22t27 -38h98l8 70v20zM874 485l103 -14
q201 -28 334 -74h266l-10 45l-19 43h-674zM305 610l33 -14l55 -18q6 -2 28 -10q92 -31 195 -46l21 -2h891q-41 53 -88 90h-1135zM1380 645q-91 50 -286 88h-944l43 -49l51 -39h1136zM94 858l12 -45l21 -45h739l-370 57l-111 33h-291zM88 983l-2 -45l4 -45h217l-49 39l-33 51
h-137zM123 1108l-29 -90h117l-10 65l2 25h-80zM225 1202l15 27l20 31q-46 -27 -68 -50t-51 -69h66zM1069 4q178 0 277 49q98 49 98 135t-92 142l-117 47l-176 39l-19 2v-414h29zM993 6v420l-252 37v-406l127 -39q41 -12 125 -12zM741 1372v-428l252 -39v412l-102 31
q-79 24 -150 24zM670 1376q-162 0 -262 -59t-100 -153t95 -138q79 -36 291 -74v424h-24zM741 1421q110 0 252 -53v231h47v-249q109 -45 230 -136l243 189h31v-520h-43q-121 199 -317 334q-20 13 -144 77v-397l39 -4l82 -16l86 -21q92 -20 166 -51q135 -49 208 -151t73 -238
q0 -207 -167 -334t-452 -127l-35 2v-180h-47v182q-104 0 -155 16l-97 31v-229h-47v246q-80 29 -133 59l-143 96l-19 12l-268 -200h-47v567h47q82 -141 235 -270t328 -209v391l-76 10q-578 78 -577 459q0 211 180 348q176 139 453 137h20v176h47v-178z" />
    <glyph glyph-name="percent" unicode="%" horiz-adv-x="2732" 
d="M1888 1386h-221l-63 -98h221zM748 -6h223l73 117h-221zM918 252l-68 -100h223l68 100h-223zM1012 397l-68 -104h223l68 104h-223zM1106 539l-68 -105h224l65 105h-221zM1200 682l-67 -104h223l67 104h-223zM1296 823l-67 -100h221l68 100h-222zM1323 862h221l68 103h-223
zM1415 1006h221l70 104h-221zM1509 1151h222l69 102h-221zM1898 86l52 -33l65 -37l-37 70h-80zM1786 211l31 -45l16 -21l25 -22h106l-27 88h-151zM1739 336l12 -47l16 -43h162l-8 45l-2 45h-180zM1917 459h-182l-2 -41l2 -47h182l-2 45l2 22v21zM1919 494v43l8 47h-164
l-16 -41l-10 -49h182zM1845 709l-37 -45l-28 -46h153l13 44l16 47h-117zM2007 793l39 34q-63 -12 -86 -28l-31 -19l-47 -39h94zM2306 4q45 12 64 29q25 10 63 53h-80q-14 -43 -47 -82zM2372 211l-2 -12l-9 -76h101l53 88h-143zM2376 336v-14l-2 -76h155l13 43l12 47h-178z
M2376 459v-88h184l2 47l-2 41h-184zM2376 494h180l-8 47l-15 43h-159l2 -27v-63zM2519 618q-24 53 -53 91h-105l6 -39l5 -52h147zM2406 770l-32 27l-68 39l23 -37l22 -58h86zM2187 844q-92 0 -129 -105l-10 -69l-4 -119v-209q0 -190 31 -269t112 -79q45 0 82 31t49 98l11 86
l4 133v217q-1 285 -146 285zM250 637l55 -39l64 -35l-21 33l-18 41h-80zM137 762q16 -32 29 -45l41 -45h108l-26 90h-152zM92 885q8 -54 27 -88h162l-9 34l-2 54h-178zM268 920v90h-182l-2 -43l2 -47h182zM115 1135l-25 -91h180l4 54l7 37h-166zM201 1257l-39 -40l-29 -50
h154l12 50l16 40h-114zM399 1374q-55 -8 -84 -28q-27 -8 -77 -54h92q26 49 69 82zM659 553q42 8 66 29q16 8 63 55h-81q-13 -43 -48 -84zM723 762l-8 -90h102l27 43l24 47h-145zM727 885v-74l-2 -14h158l12 41l12 47h-180zM729 1010v-90h182l2 45l-2 45h-182zM727 1135
l2 -91h178l-10 46l-12 45h-158zM713 1257l12 -90h145l-24 47l-29 43h-104zM727 1346q-18 18 -68 36l27 -49l19 -41h83zM539 1393q-43 0 -76 -26t-49 -69l-15 -81l-4 -119v-207q0 -197 33 -270q31 -78 113 -78q45 1 82 31t49 96l10 88l4 133v219q0 283 -147 283zM2186 883
q210 0 358 -134q147 -134 147 -333t-141 -332q-140 -133 -356 -133t-361 131t-145 331t144 335t354 135zM549 500q-217 0 -363 133q-145 133 -145 331t142 332t358 136h1527l-976 -1481h-433l947 1435h-844q129 -54 206 -168t76 -253q0 -201 -139 -333t-356 -132z" />
    <glyph glyph-name="ampersand" unicode="&#x26;" horiz-adv-x="1832" 
d="M1421 594v-12l66 110h-86q20 -49 20 -98zM1329 782q23 -15 53 -55h125l33 55h-211zM1030 113l43 -64h258l-43 64h-258zM942 238l64 -91h258l-64 91h-258zM856 362l64 -90h256l-62 90h-258zM770 485l61 -88h259l-64 88h-256zM682 610l63 -90h259l-64 90h-258zM596 733
l63 -88h256l-61 88h-258zM510 858l61 -90h258l-63 90h-256zM440 983q12 -43 45 -90h256l-53 80l-8 10h-240zM424 1106l-2 -23q0 -29 10 -65h225l-24 47l-17 41h-192zM463 1231l-23 -43l-12 -47h180l-6 55l2 35h-141zM625 1313q2 6 13 23t17 28q-104 -31 -166 -98h121z
M211 113q139 -109 295 -109l78 6l-66 45l-55 58h-252zM113 238l28 -50l33 -41h260l-24 31l-35 60h-262zM88 362q0 -37 12 -90h258l-22 45l-14 45h-234zM115 485l-17 -45l-8 -43h221l-10 35l-6 53h-180zM295 580l16 73q-101 -41 -136 -80q-9 -10 -40 -53h158zM438 582
q0 -104 79 -246t140 -200q61 -56 115 -56t90 13q37 13 86 48l-397 570q-113 -25 -113 -129zM1151 1135q0 98 -75 169t-191 70q-125 0 -125 -139q0 -80 96 -217l109 -154q186 101 186 271zM1792 47v-47h-739l-70 96q-240 -141 -452 -141t-351 113t-139 284q0 204 198 314
q87 49 253 86l24 8l-49 69q-92 129 -92 267t119 232t306 95q187 -1 296 -79t108 -218q0 -84 -58 -182q-27 -46 -149 -125l287 -409q74 80 82 133l4 53q0 156 -184 186v47h606v-47l-72 -24l-57 -37l-51 -39l-164 -172l-131 -145l174 -244q55 -74 227 -74h74z" />
    <glyph glyph-name="quotesingle" unicode="'" horiz-adv-x="266" 
d="M104 1106l17 -88l16 88h-33zM174 1309l6 30h-121l9 -30h106zM145 1151l19 113h-90l22 -113h49zM117 952l-76 404h184l-73 -404h-35z" />
    <glyph glyph-name="parenleft" unicode="(" horiz-adv-x="813" 
d="M299 113l45 -45q47 -47 84 -70l72 -43l-60 76l-41 82h-100zM209 238l61 -91h117l-29 91h-149zM152 362l12 -36l26 -54h160l-18 90h-180zM117 485l12 -53l10 -35h189l-4 21l-9 67h-198zM98 610l11 -90h204l-6 90h-209zM307 645v88h-211l-2 -43l2 -45h211zM109 858l-11 -90
h209l6 90h-204zM139 983l-22 -90h198l13 90h-189zM190 1106l-38 -88h182l2 18l14 70h-160zM270 1231l-61 -90h151l27 90h-117zM432 1335l68 88l-84 -53l-72 -59l-43 -45h100zM41 689q0 345 201 579t530 278v-43q-92 -23 -137 -69q-112 -119 -152 -494q-12 -123 -12 -252
q0 -358 82 -598q31 -94 78 -140t141 -75v-43q-332 41 -532 276q-199 236 -199 581z" />
    <glyph glyph-name="parenright" unicode=")" horiz-adv-x="813" 
d="M264 -37q53 27 86 58t82 92h-102q-19 -63 -66 -150zM362 238q-2 -31 -10 -50l-12 -41h115l24 39l27 52h-144zM383 362l-12 -90h151l33 90h-172zM395 485l-8 -88h178l19 88h-189zM399 610v-20l-2 -49l-2 -21h195l8 90h-199zM399 733v-88h201v88h-201zM395 858l2 -24v-46
l2 -20h199l-8 90h-195zM387 983l2 -22l4 -68h191l-19 90h-178zM371 1106l14 -88h170l-33 88h-151zM342 1231l23 -90h141l-25 47l-26 43h-113zM264 1417q58 -109 66 -151h102q-23 34 -38 54t-38 34q-14 18 -92 63zM772 687q0 -347 -199 -581t-532 -274v43q57 12 82 27t55 45
q93 93 136 376q28 180 28 365q0 348 -82 598q-35 100 -70 136q-36 36 -68 53q-32 16 -81 28v43q327 -36 529 -274t202 -585z" />
    <glyph glyph-name="asterisk" unicode="*" horiz-adv-x="735" 
d="M299 1440h131v-232l227 76l37 -113l-229 -79l137 -195l-104 -74l-127 181l-129 -187l-117 84l139 193l-223 73l33 103l225 -72v242zM154 903l55 -39l65 94h-81zM430 958l66 -94l55 39l-39 55h-82zM387 1321v96h-70v-96h70zM387 1274h-70v-105l-231 76l-20 -65l63 -21h446
l64 21l-21 65l-231 -76v105zM307 1001l45 64l45 -64h84l-73 105l30 8h-172l31 -8l-74 -105h84z" />
    <glyph glyph-name="plus" unicode="+" 
d="M377 250h153v104h-153v-104zM377 399h153v113h-153v-113zM530 1098h-153v-66h153v66zM530 989h-153v-115h153v115zM788 764h-258v65h-153v-65h-303v-49h714v49zM74 670v-88h303v-25h153v25h258v88h-714zM342 1128h279v-333h323v-242h-323v-336h-279v336h-301v242h301v333
z" />
    <glyph glyph-name="comma" unicode="," horiz-adv-x="497" 
d="M119 84q35 -41 49 -50t55 -26l58 -22l22 49l12 49h-196zM98 207l-4 -41q0 -20 10 -47h213l-2 43l-8 45h-209zM276 293l-32 37q-61 -10 -83 -25.5t-50 -62.5h188zM236 -88q0 35 -39 53q-156 74 -156 203q0 88 59.5 148.5t149.5 60.5t148.5 -64.5t58.5 -156.5
q0 -183 -113 -291q-39 -47 -88 -69t-160 -46l-10 41q68 12 107 51q43 35 43 70z" />
    <glyph glyph-name="hyphen" unicode="-" 
d="M74 582h714v86h-714v-86zM788 713v51h-714v-51h714zM944 795v-242h-903v242h903z" />
    <glyph glyph-name="hyphen" unicode="&#xad;" 
d="M74 582h714v86h-714v-86zM788 713v51h-714v-51h714zM944 795v-242h-903v242h903z" />
    <glyph glyph-name="period" unicode="." horiz-adv-x="497" 
d="M119 84q23 -35 45 -50t82 -28q25 25 51 78h-178zM102 207l-4 -43l6 -45h205l6 51l-2 37h-211zM246 330q-47 -10 -74 -21.5t-57 -66.5h190q-16 53 -59 88zM246 -41q-90 0 -147.5 61.5t-57.5 148.5t59.5 147.5t147.5 60.5t148 -60.5t60 -146.5t-59 -150q-61 -61 -151 -61z
" />
    <glyph glyph-name="slash" unicode="/" horiz-adv-x="1648" 
d="M1407 1462h-246l-69 -106h245zM139 -84h248l84 127h-248zM330 203l-76 -115h248l76 115h-248zM434 362l-76 -114h248l76 114h-248zM539 518l-76 -112h248l73 112h-245zM643 680l-76 -117h248l76 117h-248zM750 838l-76 -113h246l75 113h-245zM778 881h246l76 114h-248z
M883 1040h245l76 115h-246zM987 1200h246l76 113h-246zM522 -133h-481l1087 1644h480z" />
    <glyph glyph-name="zero" unicode="0" horiz-adv-x="1634" 
d="M1010 57l-62 -53q121 25 221 109h-122q-14 -33 -37 -56zM1083 238l-10 -52l-12 -39h145l39 43l35 48h-197zM1102 362l-12 -90h210l46 90h-244zM1108 485v-20l-4 -68h256l26 88h-278zM1110 610v-90h285l8 47l4 43h-297zM1110 733v-88h299l2 37l-2 51h-299zM1110 858v-90
h297l-16 90h-281zM1104 983l4 -90h274l-12 45l-16 45h-250zM1090 1106l8 -51l4 -37h235l-22 43q-8 23 -27 45h-198zM1055 1231l28 -90h183l-35 47l-41 43h-135zM1151 1266q-62 43 -82 53l-45 18l-59 19q49 -43 73 -90h113zM406 113l81 -47l101 -35l-43 37l-33 45h-106z
M268 238l43 -48l49 -43h134l-41 91h-185zM182 362q10 -19 58 -90h202l-10 37l-10 53h-240zM129 485l14 -45l21 -43h252l-2 21l-8 67h-277zM102 610q0 -35 17 -90h282l-2 21l-2 57l-2 12h-293zM98 733v-88h297l-2 51l2 37h-297zM119 858l-10 -47l-7 -43h293l6 90h-282z
M166 983l-21 -47l-16 -43h277l14 90h-254zM244 1106l-31 -43l-29 -45h244l23 88h-207zM373 1231q-59 -43 -99 -90h189q18 51 45 90h-135zM571 1307l47 36q-68 -14 -104 -28t-92 -49h110zM823 1362q-70 0 -123 -39q-52 -39 -78 -107q-44 -118 -47 -423v-312l9 -127v-46
q0 -22 6 -42q0 -18 7 -40t9 -40q43 -182 205 -182q80 0 135 47t73 122q26 116 28 179l8 236v217q0 305 -49 432q-51 125 -183 125zM814 1411q325 0 552 -211t227 -518t-221 -520q-221 -207 -551 -207t-555 209t-225 516t224 519t549 212z" />
    <glyph glyph-name="one" unicode="1" horiz-adv-x="1171" 
d="M383 113q-6 -18 -21 -33l-30 -33h385q-23 29 -35 66h-299zM403 238v-54l-8 -37h281v91h-273zM403 362v-90h273v90h-273zM403 485v-88h273v88h-273zM403 610v-90h273v90h-273zM403 733v-88h273v88h-273zM403 858v-90h273v90h-273zM403 983v-90h273v90h-273zM676 1018v88
h-291l12 -41l4 -47h275zM676 1141v90h-150q-155 -51 -200 -60l39 -30h311zM676 1266v39l-70 -39h70zM831 276q1 -84 11 -124q20 -76 102 -97l121 -8h65v-47h-1079v47h66q84 0 112 6q17 0 27 4t12 4l31 23q29 23 41 61q10 47 10 131v713q0 96 -33 132t-127 36h-149v47h90
q92 0 133 6l64 13l82 22q256 78 374 209h47v-1178z" />
    <glyph glyph-name="two" unicode="2" horiz-adv-x="1454" 
d="M377 1024l-29 33l-31 2q-41 0 -92 -35h152zM416 899l-4 45l-17 45h-205l-26 -43l-10 -47h262zM387 776l14 35l15 53h-262q4 -31 14 -48t33 -40h186zM295 723h45l20 16h-110zM735 610l-78 -49l76 19l76 14l63 16h-137zM852 733q-25 -43 -74 -88h187q57 25 77 39l58 49
h-248zM893 858l-25 -90h262q17 20 54 90h-291zM905 983v-45l-8 -45h301l19 90h-312zM1219 1018q0 41 -13 90h-305l4 -90h314zM874 1231l13 -39l10 -51h297l-25 45l-32 45h-263zM1098 1266q-71 49 -145 74q-73 24 -191 24l35 -27l24 -22q23 -20 37 -49h240zM1241 47v66h-1135
l-16 -66h1151zM1241 147v91h-1067l-33 -52l-20 -39h1120zM1241 356h-952l-51 -45l-37 -39h1040v84zM1260 406q34 0 70 30t36 125v33h47v-594h-1372q0 127 39 174q27 69 100 144q74 75 144 120l73 43l234 117l63 39q77 50 116 131q39 80 39 256q1 176 -61 256t-200 80
q-201 0 -334 -102t-133 -248l2 -45q68 143 225 143q100 0 160 -56t61 -150q-1 -94 -69 -160q-68 -64 -180 -64t-186 83q-75 83 -75 216q0 92 39 170q129 264 623 264q328 1 509 -107t181 -287t-143 -301t-400 -165l-219 -41q-86 -18 -138 -38t-126 -66h875z" />
    <glyph glyph-name="three" unicode="3" horiz-adv-x="1523" 
d="M967 92q-4 -18 -21 -37l-33 -39q184 16 258 97h-194zM1006 238l-19 -91h223l29 39l25 52h-258zM1014 362l-4 -90h264l8 35l8 55h-276zM1014 397h276l-2 43l-14 45h-266l6 -53v-35zM979 610q18 -47 25 -90h258q-23 49 -62 90h-221zM1157 645q-106 60 -244 62l50 -62h194z
M954 815q-8 -18 -41 -53q91 0 143 22t105 74h-192zM987 983v-27l-4 -28l-6 -35h213l24 41l21 49h-248zM989 1106v-88h254l4 41l-4 47h-254zM975 1231l12 -90h248l-21 51l-24 39h-215zM1159 1266q-86 82 -246 84l29 -39l23 -45h194zM240 526q-78 0 -136 -88h244
q-30 88 -108 88zM354 313l6 52l-2 38h-266l-6 -51l2 -39h266zM283 190q43 43 61 89h-248l19 -48l32 -41h136zM246 106q2 18 7 30t7 20h-78zM260 901q57 0 90 82h-217q49 -82 127 -82zM115 1106l-4 -39q0 -25 8 -49h239l4 43l-4 45h-243zM287 1206q-43 0 -56 60
q-76 -41 -108 -125h227q-24 63 -49 65h-14zM725 -45q-239 0 -380 50q-44 15 -103 46q-201 111 -201 299q0 98 69 166q70 68 166 68t161 -65t65 -160q0 -185 -166 -220q-25 0 -25 -16q0 -23 45 -49q116 -70 294 -70t233 55q73 78 73 287t-44 286t-152 77l-72 -4l-88 -13
l-47 -2q-63 0 -64 47q0 47 86 47h25l92 -14l68 -2q57 0 96 16t55 64l19 90l4 147q0 161 -54 219t-244 58t-306 -57q-31 -16 -35 -33l14 -8h17q82 0 131 -54q47 -57 47 -145t-62 -153q-62 -64 -161 -64q-98 0 -157 59q-58 59 -58 158q0 164 163 255q165 91 493 91t518 -94
t192 -273q0 -109 -66 -180q-45 -50 -92 -74t-174 -59q188 -35 285 -126t98 -232q0 -188 -207 -303t-551 -115z" />
    <glyph glyph-name="four" unicode="4" horiz-adv-x="1601" 
d="M793 113l-23 -37l-29 -29h383q-18 27 -32 66h-299zM1085 147v17l-2 49v25h-270l-2 -43l-8 -48h282zM813 362v-90h270v90h-270zM813 485v-88h270v88h-270zM813 610v-90h270v90h-270zM813 733v-88h270v88h-270zM813 858v-90h270v90h-270zM813 983v-90h270v90h-270z
M813 1018h270v88h-190l-80 -70v-18zM1083 1141v133l-151 -133h151zM760 428v565l-635 -565h635zM1561 342h-318v-63q0 -86 10 -127q18 -74 103 -95l121 -10h84v-47h-1098v47h65q84 0 113 6q17 0 27 4t12 4l29 23q33 23 42 66t9 126v66h-719v86l1167 1016h35v-1016h318v-86z
" />
    <glyph glyph-name="five" unicode="5" horiz-adv-x="1478" 
d="M844 8q160 0 280 105h-192q-25 -60 -88 -105zM967 238q-6 -55 -21 -91h211q33 39 55 91h-245zM977 362l-6 -90h254l10 41l8 49h-266zM979 397h268v21l-6 67h-264l2 -65v-23zM963 610l8 -51l4 -39h260l-14 47l-21 43h-237zM920 733l16 -35l18 -53h226l-39 45l-49 43h-172z
M1028 768q-55 22 -78 25l-96 16q27 -18 43 -41h131zM328 397q-29 102 -90 103q-94 0 -144 -103h234zM332 362h-246v-20q0 -33 12 -70h228l4 29l2 29v32zM158 176l65 -49q41 23 58 44q16 22 38 67h-204zM180 1106l-2 -62l144 -16l143 -4q158 0 258 17t199 65h-742zM184 1231
v-90h803q68 39 123 90h-926zM1169 1298l29 43l-43 -4l-197 -6l-198 -4l-398 10l-71 9l-101 16l-2 -96h955zM168 715q275 149 580 149q306 0 498 -125t192 -327t-197 -330q-197 -127 -506 -127t-502 106t-192 279q0 94 59 149q58 55 158 55t160 -61q63 -55 63 -152t-59 -158
q-59 -62 -164 -62q102 -62 315 -99q53 -8 107 -8q129 0 185 95q57 95 57 315t-52 310q-52 91 -183 91q-132 0 -290 -49t-252 -113h-28l28 758l156 -22l137 -7l187 -4l135 -4l215 4q113 0 229 13l193 20v-49q-31 -68 -68 -113t-100 -93q-124 -95 -289 -139q-164 -44 -410 -44
l-186 2q-43 0 -166 18z" />
    <glyph glyph-name="six" unicode="6" horiz-adv-x="1574" 
d="M995 6q76 14 117 36t102 71h-143q-19 -56 -76 -107zM1094 238l-15 -91h170l37 46l27 45h-219zM1102 362l-6 -90h233l12 41l11 49h-250zM1102 485v-88h254l2 33l-4 55h-252zM1094 610l6 -90h248l-13 45l-20 45h-221zM1069 733q14 -46 21 -88h204q-33 49 -82 88h-143z
M1161 768q-46 23 -69 27l-82 18l41 -45h110zM1151 940q41 0 55 8l33 35h-182q53 -43 94 -43zM993 1106q3 -47 33 -88h234l14 43l4 45h-285zM993 1141h283l-6 51l-15 39h-231l-25 -45q-6 -16 -6 -45zM1194 1313l-31 14l-30 12l2 -8l-5 -24l-10 -15l-37 -16l-20 -10h174
q-16 29 -43 47zM414 113q56 -36 86 -45l102 -35q-49 37 -80 80h-108zM264 238l41 -43l57 -48h140l-23 41l-18 50h-197zM176 362l60 -90h215l-23 90h-252zM123 485l12 -39l23 -49h262l-12 88h-285zM96 610l4 -43l13 -47h290l-4 90h-303zM92 733v-88h305v88h-305zM399 768v20
l7 70h-291l-11 -41l-8 -49h303zM160 983l-21 -45l-16 -45h285l12 90h-260zM240 1106l-33 -43l-29 -45h250l10 45l13 43h-211zM371 1231l-54 -43l-47 -47h193l20 47l25 43h-137zM569 1307l33 28l-96 -28l-82 -41h108zM584 434q0 -151 34 -270q47 -160 220 -160q141 0 178 109
q20 83 20 123l8 200q0 129 -12 226q-18 158 -174 157l-47 -4l-66 -12l-49 -15l-112 -61v-293zM928 870q258 0 432 -125t174 -309q0 -211 -194 -346t-517 -135t-553 206q-229 206 -229 521q0 257 162 453q232 276 686 276q252 0 385 -75t133 -220q0 -94 -65 -159
q-64 -65 -164 -65t-166 66t-66 172t94 170l19 13l12 10q0 20 -45 29l-131 10q-86 0 -131 -15t-89 -55q-45 -40 -59 -97q-32 -130 -32 -339v-72l73 35q104 51 271 51z" />
    <glyph glyph-name="seven" unicode="7" horiz-adv-x="1517" 
d="M393 113l-37 -66h334l8 66h-305zM479 238l-65 -91h291l22 91h-248zM584 362l-15 -14l-61 -76h229l27 72l6 18h-186zM700 485l-86 -88h172l45 88h-131zM829 610l-94 -90h115l51 90h-72zM977 733l-62 -45l-49 -43h56zM135 1079l-14 -131l26 23q41 27 132 26h788l53 82h-985
zM150 1204l-11 -90h1002l57 90h-1048zM1272 1319h-1110l-8 -82h1067zM242 952q-49 0 -89 -32t-53 -115l-12 -92h-47l72 649h1364v-47q-86 -114 -222 -314q-94 -147 -160 -272t-118 -285l-27 -92l-26 -102l-35 -250h-608q45 109 77 155t70 94q39 48 59 73l123 137
q69 76 140 143l186 172l215 178h-909z" />
    <glyph glyph-name="eight" unicode="8" horiz-adv-x="1546" 
d="M1202 76l64 39h-35zM1239 238l8 -58l-2 -33h60q37 43 55 91h-121zM1376 362h-252q63 -43 99 -90h147l4 31l2 33v26zM827 485l228 -88h317q-12 53 -33 88h-512zM504 610l233 -90h576q-23 25 -49 45l-62 45h-698zM272 733l45 -33l103 -55h719q-60 29 -125 55l-86 33h-656z
M160 858l30 -45l17 -22l24 -23h609l-232 90h-448zM127 983l2 -45q6 -31 14 -45h377l-24 8q-81 26 -148 82h-221zM150 1106l-13 -43l-10 -45h190l-30 43l-11 45h-126zM238 1231q-27 -24 -72 -90h106l2 45l15 45h-51zM313 1282l-30 -16h20zM150 352q0 -350 616 -350
q424 0 424 180q0 43 -32 80t-73 55q-31 23 -127 60l-618 241q-190 -55 -190 -266zM1309 1051q0 311 -572 311q-182 0 -266 -37t-84 -117q0 -50 66 -98q68 -53 184 -94l487 -180q185 47 185 215zM733 1411q682 0 682 -356q0 -91 -46 -149t-167 -105l78 -43q225 -125 225 -348
q0 -115 -57 -208q-58 -94 -152 -146q-183 -102 -514 -101q-145 0 -280 20q-205 31 -333 142t-128 260q0 94 62 166t180 110q-117 84 -170 162q-45 76 -45 174t61 193q68 94 161 140q180 89 443 89z" />
    <glyph glyph-name="nine" unicode="9" horiz-adv-x="1562" 
d="M936 57l-53 -47q46 5 63 13q61 11 146 90h-119zM1014 238q-2 -25 -10 -39q-2 -20 -17 -52h141l74 91h-188zM1028 362v-20l-8 -70h205l47 90h-244zM1036 485v-20l-4 -68h254l29 88h-279zM1038 610v-67l-2 -23h287l8 45l4 45h-297zM1038 733v-88h299l2 37l-2 51h-299z
M1036 858v-20l2 -33v-37h295q0 27 -6 43l-8 47h-283zM1036 893h275l-29 90h-250l2 -16l2 -54v-20zM1020 1106l10 -88h238l-23 43q-8 23 -26 45h-199zM985 1231l14 -39l15 -51h182l-37 45l-43 45h-131zM1028 1303l-39 20q-14 8 -82 25q41 -41 62 -82h108zM446 397
q-35 33 -84 33l-45 -6l-47 -27h176zM487 272l-8 45q0 16 -12 45h-229q-23 -35 -29 -90h278zM473 147l10 48l4 43h-278l10 -48l25 -43h229zM276 113q35 -30 56 -39l71 -29q37 35 56 68h-183zM315 610l60 -26l82 -23l-29 49h-113zM162 733l41 -51q8 -8 53 -37h154l-19 41
l-14 47h-215zM104 858l13 -45l22 -45h232l-11 90h-256zM100 983l-4 -51l2 -39h260l-2 45l2 45h-258zM145 1106l-22 -41l-17 -47h254l9 88h-224zM256 1231l-49 -43l-39 -47h209l10 47l16 43h-147zM457 1331q-63 -11 -91 -27t-65 -38h117zM983 905q0 229 -53 340
q-53 117 -182 117t-183 -98l-12 -39l-16 -92l-9 -240v-86l4 -72l5 -41l14 -49q35 -96 147 -96l45 2l54 6q100 23 186 72v276zM635 494q-248 0 -421 127t-173 321t187 331q187 138 479 138q466 0 689 -319q126 -180 126 -406q0 -174 -72 -320t-203 -249q-195 -162 -540 -162
q-262 0 -405 79q-142 79 -142 222q0 92 62 154t166 63q104 0 165 -61q66 -59 65 -166q0 -143 -149 -219l98 -19l119 -4q82 0 127 18q89 35 121 132q43 92 43 221l6 166v24q-153 -58 -230 -64q-77 -7 -118 -7z" />
    <glyph glyph-name="colon" unicode=":" horiz-adv-x="497" 
d="M115 702q37 -72 131 -84q37 27 55 84h-186zM104 827l-6 -43l4 -47h209l4 51l-4 39h-207zM301 862q-11 39 -55 76q-47 0 -74 -17.5t-53 -58.5h182zM119 84q23 -35 45 -50t82 -28q25 25 51 78h-178zM102 207l-4 -43l6 -45h205l6 51l-2 37h-211zM246 330q-47 -10 -74 -21.5
t-57 -66.5h190q-16 53 -59 88zM41 781q0 87 57.5 147.5t147.5 60.5t150 -62.5t60 -147.5t-61 -148t-149 -63t-146.5 63t-58.5 150zM246 -41q-90 0 -147.5 61.5t-57.5 148.5t59.5 147.5t147.5 60.5t148 -60.5t60 -146.5t-59 -150q-61 -61 -151 -61z" />
    <glyph glyph-name="semicolon" unicode=";" horiz-adv-x="497" 
d="M115 702q26 -70 129 -84q31 27 57 84h-186zM104 827l-8 -43l6 -47h207l6 51l-4 39h-207zM279 905l-35 33q-47 0 -74 -19t-51 -57h182q-8 33 -22 43zM119 84q35 -41 57 -55q25 -10 47 -21l58 -22l22 49l12 49h-196zM98 207l-4 -41q0 -20 10 -47h213l-2 43l-8 45h-209z
M276 293l-32 37q-61 -10 -83 -25.5t-50 -62.5h188zM41 780q0 84 59 150q60 59 150 59t147 -59.5t57 -149.5t-60 -151t-146 -61.5t-146.5 64t-60.5 148.5zM236 -87q0 36 -39 52q-156 74 -156 203q0 84 60.5 146.5t149.5 62.5t147.5 -64.5t58.5 -156.5q0 -183 -113 -291
q-39 -47 -88 -69t-160 -46l-10 41q68 12 107 51q43 35 43 71z" />
    <glyph glyph-name="less" unicode="&#x3c;" horiz-adv-x="1081" 
d="M547 164l100 -101h193l-101 101h-192zM578 322h-193l115 -113h192zM416 481h-193l117 -112h192zM842 1102h-199l-102 -101h196zM692 958h-196l-115 -114h197zM530 799h-196l-115 -115h195zM311 586l56 53h-193l-55 -53l61 -62h193zM483 586l557 -553h-428l-571 553
l571 549h428z" />
    <glyph glyph-name="equal" unicode="=" 
d="M74 451h714v86h-714v-86zM788 584v49h-714v-49h714zM944 664v-242h-903v242h903zM74 772h714v88h-714v-88zM788 905v49h-714v-49h714zM944 987v-244h-903v244h903z" />
    <glyph glyph-name="greater" unicode="&#x3e;" horiz-adv-x="1081" 
d="M147 63h193l100 101h-192zM487 209l115 113h-192l-115 -113h192zM647 369l117 112h-193l-116 -112h192zM446 1001l-102 101h-199l105 -101h196zM606 844l-114 114h-197l115 -114h196zM768 684l-115 115h-196l116 -115h195zM807 524l61 62l-55 53h-192l55 -53l-62 -62h193
zM469 1135l571 -549l-571 -553h-428l557 553l-557 549h428z" />
    <glyph glyph-name="question" unicode="?" horiz-adv-x="1091" 
d="M348 84q20 -37 51 -53l31 -13l45 -12q25 25 51 78h-178zM332 207l-4 -43l6 -45h205l6 51l-2 37h-211zM475 330q-47 -10 -74 -22t-57 -66h191q-17 53 -60 88zM813 1251l-31 23l-49 24q41 -53 55 -102h72q-29 43 -47 55zM907 1071l-10 47l-18 43h-80l4 -55l-2 -35h106z
M911 1038h-116q-18 -47 -60 -92h170l4 27l2 39v26zM504 872v-49h348l25 39l20 51h-209q-64 -28 -82 -32l-88 -9h-14zM504 692q208 0 317 99h-317v-99zM254 1128q-16 0 -55 -22l-29 -23l-31 -12h168q-20 57 -53 57zM96 1038q0 -45 27 -92h194l7 45l-7 47h-221zM147 913
q47 -45 105 -45q30 0 53 45h-158zM478 -41q-88 0 -147 60q-61 61 -61 149t60 148t146 60t148 -60q62 -62 62 -148t-59 -148q-61 -61 -149 -61zM457 924h59q106 0 171 52t65 146t-78 164q-80 68 -201 68t-219 -58q-41 -26 -68 -58q-26 -32 -26 -55t16 -24l76 27h24
q68 0 115 -53t47 -135t-52 -133q-52 -52 -134 -52t-147 70t-64 157q0 154 132 258t347 104t373 -122q158 -124 158 -318t-183 -321q-66 -45 -112 -59q-21 -11 -164 -31l-43 -6q-13 0 -29 -11t-16 -51v-26h-47v467z" />
    <glyph glyph-name="at" unicode="@" horiz-adv-x="1183" 
d="M627 922h53l-27 51zM590 860h125l-25 45h-76zM573 834l21 -35h156l-25 45h-145zM627 735h157l-24 47h-158zM662 676h157l-24 43h-158zM696 612h158l-27 45h-155zM729 549l160 2l-25 45h-159zM764 487h158l-25 45h-158zM778 463l13 -37h167l-24 45h-160zM788 410
q0 -15 -18 -33h215l-18 33h-179zM365 426v14l4 31l-37 -45h33zM268 377h117l-16 33h-54zM1143 608q0 -238 -163 -394t-388 -157q-225 0 -388 163t-163 393q0 229 161 393t389 164t390 -162t162 -400zM561 811l-131 -244h262zM647 352v25h51q66 0 66 49l-12 37l-45 82h-285
l-6 -35q0 -51 16 -78q35 -55 131 -55v-25h-373v25q55 6 102 44q46 38 97 132l285 510h24l297 -535l58 -98q35 92 34 184q0 212 -143 356t-351 144t-352 -146q-145 -146 -145 -354t146 -355q146 -146 350 -146q128 0 240 62t184 177h-369z" />
    <glyph glyph-name="A" unicode="A" horiz-adv-x="2070" 
d="M909 1141h111l-55 98zM838 1018h249l-49 88h-149zM807 961l39 -68h311l-49 90h-291zM913 768h314l-49 90h-314zM981 645h315l-51 88h-313zM1051 520h315l-51 90h-314zM1118 397h316l-50 88h-315zM1186 272h317l-49 88h-317zM1206 238q26 -56 33 -91h334l-49 91h-318z
M1198 47h430l-37 66h-356q-6 -35 -37 -66zM387 178l6 60l-37 -52l-34 -39h67zM236 74l-41 -27h233l-31 66h-110zM780 911l-260 -481h522zM492 288q0 -54 34 -115q34 -62 103 -95l43 -21q16 -8 55 -8l59 -2v-47h-745v47q115 0 205 86t194 270l568 1014h49l641 -1153l61 -100
q27 -36 64 -66q63 -51 178 -51h29v-47h-1078v47h105q53 0 92 26q39 25 39 61t-25 83l-90 166h-567q-14 -41 -14 -95z" />
    <glyph glyph-name="B" unicode="B" horiz-adv-x="1853" 
d="M1204 1298q16 -6 37 -32h223q-57 37 -114 51l-68 8l-90 4h-33zM1311 1141h258l-29 47q-12 20 -35 43h-237q29 -49 43 -90zM1323 1063l2 -45h277l-3 45l-16 43h-266zM1321 938l-12 -45h268q18 47 25 90h-279zM1276 809l-31 -41h228l38 27q23 23 50 63h-263
q-16 -43 -22 -49zM1178 715l-54 -27l47 -22l39 -21h199l-94 29l-94 14q89 9 178 45h-193zM1307 520h278q-31 47 -102 90h-234q31 -33 58 -90zM1327 453l8 -56h295l-8 45l-18 43h-285zM1337 362v-53l-8 -37h295l8 39l2 39l-2 12h-295zM1305 193l-23 -46h264q35 31 66 91h-291
zM1212 47q106 0 166 14t123 52h-244l-32 -33l-41 -33h28zM666 47v66h-291l-23 -37l-28 -29h342zM393 238v-60l-8 -31h281v91h-273zM393 362v-90h273v90h-273zM393 485v-88h273v88h-273zM393 610v-90h273v90h-273zM393 733v-88h273v88h-273zM393 858v-90h273v90h-273z
M393 983v-90h273v90h-273zM393 1106v-88h273v88h-273zM666 1141v90h-281l6 -45l2 -45h273zM666 1329h-342q31 -25 51 -63h291v63zM961 47q79 0 118 7t88 40q113 68 113 257t-113 270q-45 29 -80 34l-73 9l-109 2h-84v-619h140zM905 1329h-84v-614h111l78 2l73 8q41 10 86 43
q103 72 103 253t-103 255q-70 53 -264 53zM1812 346q0 -166 -145 -262q-68 -44 -166 -64t-278 -20h-1182v47h65q84 0 113 6q17 0 27 4t12 4l31 23q29 23 41 61q10 47 10 131v826q0 86 -9 127q-17 76 -106 94l-119 6h-65v49h1155l166 -4l70 -10l67 -21q133 -41 205 -128
t72 -201t-60 -191q-60 -76 -196 -133q292 -92 292 -344z" />
    <glyph glyph-name="C" unicode="C" horiz-adv-x="1662" 
d="M1368 1196l78 -106l-6 106h-72zM1436 1282q-20 -9 -58 -22l-73 -5l28 -24h105zM426 113q100 -63 219 -88l-47 45l-33 43h-139zM272 238l47 -48l56 -43h166l-25 39l-27 52h-217zM182 362l33 -55l29 -35h231l-35 90h-258zM127 485l16 -47l21 -41h266l-10 41l-10 47h-283z
M100 610l9 -61l8 -29h286l-8 90h-295zM96 733l-2 -41l2 -47h299l-2 31l2 57h-299zM113 858l-15 -90h299l13 90h-297zM154 983l-17 -45l-14 -45h293l20 90h-282zM225 1106l-55 -88h279l14 45l20 43h-258zM346 1231l-51 -45l-41 -45h246l55 90h-209zM633 1319l59 53l-80 -10
l-43 -10l-63 -25l-49 -24l-62 -37h189zM944 16q196 0 365 121q170 121 274 338l39 -20q-10 -23 -22 -51t-31 -54l-74 -100q-64 -87 -158 -154q-197 -141 -477 -141q-348 0 -584 211t-236 529q0 317 222 523q221 206 569 205q91 0 171 -21t186 -69l74 -33l59 -8q106 0 203 99
h37l26 -576l-33 -8q-6 12 -31 65q-88 179 -186 287q-80 92 -190 150q-113 53 -219 53q-158 0 -249 -180t-90 -478t80 -493t275 -195z" />
    <glyph glyph-name="D" unicode="D" horiz-adv-x="2013" 
d="M1313 84q-16 -16 -58 -37q116 0 222 66h-136zM1417 238l-18 -43l-29 -48h156l49 41l43 50h-201zM1458 362l-26 -90h213l57 90h-244zM1481 485l-17 -88h254l19 41l16 47h-272zM1491 610l-2 -20l-4 -70h276l15 90h-285zM1493 733v-37l-2 -51h287l2 33l-4 55h-283zM1487 858
l4 -90h283l-19 90h-268zM1473 983l10 -90h262l-33 90h-239zM1442 1106l12 -43l10 -45h230l-27 45l-29 43h-196zM1378 1231l52 -90h182l-41 47l-49 43h-144zM1255 1329q47 -18 93 -63h125q-104 63 -218 63zM666 47v66h-291l-23 -37l-28 -29h342zM393 238v-60l-8 -31h281v91
h-273zM395 362v-90h271v90h-271zM395 485v-88h271v88h-271zM395 610v-90h271v90h-271zM395 733v-88h271v88h-271zM395 858v-90h271v90h-271zM395 983v-90h271v90h-271zM395 1106v-88h271v88h-271zM666 1141v90h-281l6 -45l2 -45h273zM666 1329h-342q31 -25 51 -63h291v63z
M983 1329h-162v-1282h178l113 6q54 0 108 25t85 61q131 150 131 553l-2 74l-9 135q0 184 -88 305q-63 92 -123 104q-100 20 -231 19zM41 47h65q84 0 113 6q17 0 27 4t12 4l31 23q29 20 40 64t11 128v826q0 86 -9 127q-17 76 -106 94l-119 6h-65v49h1149l80 -4l47 -2l86 -16
q168 -33 272 -103q135 -89 216 -245t81 -318q0 -244 -148 -434q-124 -159 -331 -217l-100 -16l-113 -13l-90 -8l-125 -2h-1024v47z" />
    <glyph glyph-name="E" unicode="E" horiz-adv-x="1802" 
d="M666 47v66h-291l-23 -37l-28 -29h342zM393 238v-60l-8 -31h281v91h-273zM393 362v-90h273v90h-273zM393 485v-88h273v88h-273zM393 610v-90h273v90h-273zM393 733v-88h273v88h-273zM393 858v-90h273v90h-273zM393 983v-90h273v90h-273zM393 1106v-88h273v88h-273z
M666 1141v92h-281l6 -47l2 -45h273zM666 1329h-342q31 -25 51 -63h291v63zM1190 739v105q-45 -48 -82 -72l-53 -33h135zM1190 707h-146l64 -39l49 -37l33 -31v107zM1620 162v166q-47 -51 -137 -129l-45 -37h182zM1620 47v80h-229l-58 -37l-92 -43h379zM1602 1217h-162
l55 -48q27 -23 59 -57t48 -53v158zM1602 1329h-328l61 -35l60 -43h207v78zM1743 877h-43q-133 181 -324 330q-90 71 -158 97t-182 25h-215v-581h53q119 0 208 54t169 187h49v-532h-49l-28 47l-33 41l-57 53q-26 26 -62 45q-92 55 -197 55h-53v-651h211l55 8q161 19 328 145
q166 126 301 304l45 2v-506h-1720v47h65q84 0 113 6q17 0 27 4t12 4l31 23q29 23 41 61q10 47 10 131v826q0 86 -9 127q-17 76 -106 94l-119 6h-65v49h1702v-501z" />
    <glyph glyph-name="F" unicode="F" horiz-adv-x="1783" 
d="M707 47q-22 32 -35 66h-297l-23 -37l-28 -29h383zM393 238v-60l-8 -31h283l-2 17v74h-273zM395 362v-90h271v90h-271zM395 485v-88h271v88h-271zM395 610v-90h271v90h-271zM395 733v-88h271v88h-271zM395 858v-90h271v90h-271zM395 983v-90h271v90h-271zM395 1106v-88
h271v88h-271zM666 1141v92h-281l6 -47l2 -45h273zM666 1329h-342q31 -25 51 -63h291v63zM1190 739v105q-45 -48 -82 -72l-53 -33h135zM1190 707h-146l64 -39l49 -37l33 -31v107zM1602 1217h-162l55 -48q27 -23 59 -57t48 -53v158zM1602 1329h-328l61 -35l60 -43h207v78z
M1743 877h-43q-133 181 -324 330q-90 71 -158 97t-182 25h-215v-581h53q119 0 208 54t169 187h49v-532h-49l-28 47l-33 41l-57 53q-26 26 -62 45q-92 55 -197 55h-53v-422q0 -84 9 -124q16 -73 104 -97l121 -8h65v-47h-1079v47h65q84 0 113 6q17 0 27 4t12 4l31 23
q29 23 41 61q10 47 10 131v826q0 86 -9 127q-17 76 -106 94l-119 6h-65v49h1702v-501z" />
    <glyph glyph-name="G" unicode="G" horiz-adv-x="2066" 
d="M1567 150h-305q-6 -31 -52 -93l39 11q115 31 215 30l52 -2l51 -8v62zM1567 182v90h-283l-12 -90h295zM1288 397v-24l-2 -68h281v92h-279zM1276 520l8 -47l4 -43h281l6 90h-299zM1591 580l8 22l9 16h-387l43 -65h319zM1407 1196l45 -51l35 -51l-4 102h-76zM1479 1274
q-53 -31 -115 -31l12 -12h105zM432 115q61 -31 199 -80l-70 80h-129zM274 238q53 -55 103 -88l162 -3l-27 41l-25 50h-213zM186 360l21 -34l39 -54h227l-33 88h-254zM131 485l14 -45l23 -43h262l-10 43l-8 45h-281zM102 610l9 -53l10 -37h285l-9 90h-295zM397 645v88h-301
l-2 -35l4 -53h299zM115 858l-9 -41l-8 -49h303l5 51l6 39h-297zM158 983l-21 -49l-14 -41h295l10 51l10 39h-280zM229 1106l-55 -88h275l14 39l22 49h-256zM348 1231l-39 -33l-53 -57h246l55 90h-209zM623 1311l61 55q-90 -12 -147 -30t-140 -70h187zM590 686
q0 -346 112 -539q78 -133 246 -133t242 97q55 74 55 245q0 170 -39 216t-176 46h-78v48h1073v-48h-127q-50 0 -76 -8t-50 -36t-31 -46q-27 -59 -27 -221v-96l4 -86q0 -53 17 -119l-27 -18q-102 72 -240 71q-86 0 -243 -45l-107 -30l-59 -11l-64 -10l-137 -8q-350 0 -584 214
q-233 214 -233 531t233 531q213 193 566 192q117 0 200 -18l90 -29q16 -4 56 -22t51 -23l74 -31l53 -8q100 0 203 97h41l20 -508l-53 -9l-19 39l-28 50l-74 104q-213 295 -512 295q-158 0 -237 -133q-115 -195 -115 -541z" />
    <glyph glyph-name="H" unicode="H" horiz-adv-x="2254" 
d="M1800 47q-19 28 -35 66h-297l-22 -37l-29 -29h383zM1487 238v-60l-8 -31h282l-2 17v74h-272zM1489 362v-90h270v90h-270zM1489 485v-88h270v88h-270zM1489 610v-90h270v90h-270zM1489 733v-88h270v88h-270zM1489 858v-90h270v90h-270zM1489 983v-90h270v90h-270z
M1489 1106v-88h270v88h-270zM1759 1141v76l2 14h-282l6 -45l2 -45h272zM1778 1298q10 20 22 31h-383q31 -25 51 -63h297zM707 47q-22 32 -35 66h-297l-23 -37l-28 -29h383zM393 238v-60l-8 -31h283l-2 17v74h-273zM395 362v-90h271v90h-271zM395 485v-88h271v88h-271z
M395 610v-90h271v90h-271zM395 733v-88h271v88h-271zM395 858v-90h271v90h-271zM395 983v-90h271v90h-271zM395 1106v-88h271v88h-271zM666 1141v76l2 14h-283l6 -45l2 -45h273zM684 1298q10 20 23 31h-383q31 -25 51 -63h297zM1434 1102q0 86 -10 127q-17 75 -105 94
l-119 6h-10v49h1024v-49h-66q-82 0 -116 -6q-33 0 -66 -29q-34 -19 -46 -89q-3 -17 -3 -27l-2 -76v-826q0 -84 9 -124q16 -73 104 -97l120 -8h66v-47h-1024v47h10q84 0 113 6q16 0 26 4t13 4l30 23q29 23 41 61q10 47 11 131v426h-613v-426q0 -88 9 -126q17 -71 104 -95
l121 -8h12v-47h-1026v47h65q84 0 113 6q17 0 27 4t12 4l31 23q29 23 41 61q10 47 10 131v826q0 86 -9 127q-17 76 -106 94l-119 6h-65v49h1026v-49h-12q-82 0 -117 -6q-33 0 -66 -29q-34 -19 -46 -89q-3 -17 -3 -27l-2 -76v-352l613 2v350z" />
    <glyph glyph-name="I" unicode="I" horiz-adv-x="1161" 
d="M707 47q-22 32 -35 66h-297l-23 -37l-28 -29h383zM393 238v-60l-8 -31h283l-2 17v74h-273zM395 362v-90h271v90h-271zM395 485v-88h271v88h-271zM395 610v-90h271v90h-271zM395 733v-88h271v88h-271zM395 858v-90h271v90h-271zM395 983v-90h271v90h-271zM395 1106v-88
h271v88h-271zM666 1141v76l2 14h-283l6 -45l2 -45h273zM684 1298q10 20 23 31h-383q31 -25 51 -63h297zM1120 0h-1079v47h65q84 0 113 6q17 0 27 4t12 4l31 23q29 23 41 61q10 47 10 131v826q0 86 -9 127q-17 76 -106 94l-119 6h-65v49h1079v-49h-65q-82 0 -117 -6
q-33 0 -66 -29q-34 -19 -46 -89q-3 -17 -3 -27l-2 -76v-826q0 -84 9 -124q16 -73 104 -97l121 -8h65v-47z" />
    <glyph glyph-name="J" unicode="J" horiz-adv-x="1497" 
d="M223 473q-53 0 -96 -55h186q-37 55 -90 55zM326 295l6 45l-6 43h-215l-15 -76l2 -12h228zM240 170l34 43q20 14 37 45h-209l13 -47l28 -41h97zM199 111l37 -23l-7 45h-55zM1008 1266l12 30l20 33h-383q31 -25 52 -63h299zM1001 1141v90h-280l6 -45l2 -45h272zM1001 1018
v88h-272v-88h272zM1001 893v90h-272v-90h272zM1001 768v90h-272v-90h272zM1001 645v88h-272v-88h272zM1001 520v90h-272v-90h272zM1001 485h-272v-88h270l2 21v67zM999 362h-270v-90h266l4 70v20zM729 238v-91h227q22 49 33 91h-260zM727 113q0 -37 -8 -59t-31 -46
q170 18 246 105h-207zM375 1378h1081v-49h-65l-113 -4l-41 -10l-33 -23q-45 -30 -45 -131l-2 -61v-627q0 -168 -33 -252q-47 -120 -215 -202q-131 -64 -353 -64t-369 101q-146 101 -146 255q0 94 65 159q66 65 162 65q96 1 160 -57t64 -150q0 -129 -148 -201
q-20 -10 -22 -33q0 -39 61 -67l59 -17q45 -10 113 -10q67 0 93 32t26 150v920q0 94 -10 129q-12 74 -105 92l-119 6h-65v49z" />
    <glyph glyph-name="K" unicode="K" horiz-adv-x="2394" 
d="M707 47q-22 32 -35 66h-297l-23 -37l-28 -29h383zM393 238v-60l-8 -31h283l-2 17v74h-273zM395 362v-90h271v90h-271zM395 485v-88h271v88h-271zM395 610v-90h271v90h-271zM395 733v-88h271v88h-271zM395 858v-90h271v90h-271zM395 983v-90h271v90h-271zM395 1106v-88
h271v88h-271zM666 1141v76l2 14h-283l6 -45l2 -45h273zM684 1298q10 20 23 31h-383q31 -25 51 -63h297zM1413 113q0 -39 -20 -66h434l-53 66h-361zM1346 238l26 -31l33 -60h340l-76 91h-323zM1245 362l72 -90h323l-73 90h-322zM1143 485l74 -88h321l-76 88h-319zM1042 610
l74 -90h318l-74 90h-318zM1098 733l-99 -69l15 -19h317l-76 88h-157zM1196 807l-51 -39h82zM1518 1231l8 -57l-8 -56l114 113h-114zM1735 1329h-283q37 -33 51 -63h164zM1475 1180q0 150 -183 149h-51v49h977v-49h-27q-171 0 -333 -82t-353 -221l-174 -127l436 -522
q143 -168 238 -244q56 -41 121 -70q66 -16 168 -16h59v-47h-1159v47h63q57 0 79 13q22 12 22 44t-19 62l-39 53l-339 412l-140 -101v-254q0 -84 9 -124q16 -73 104 -97l121 -8h16v-47h-1030v47h65q84 0 113 6q17 0 27 4t12 4l31 23q29 23 41 61q10 47 10 131v826
q0 86 -9 127q-17 76 -106 94l-119 6h-65v49h1079v-49h-65q-82 0 -117 -6q-33 0 -66 -29q-25 -14 -41 -65l-8 -51l-2 -76v-504l527 381q127 90 127 201z" />
    <glyph glyph-name="L" unicode="L" horiz-adv-x="1802" 
d="M1620 176v152q-74 -78 -164 -152h164zM1620 47v92h-211l-80 -51l-88 -41h379zM666 47v66h-291l-23 -37l-28 -29h342zM393 238v-60l-8 -31h281v91h-273zM395 362v-90h271v90h-271zM395 485v-88h271v88h-271zM395 610v-90h271v90h-271zM395 733v-88h271v88h-271zM395 858
v-90h271v90h-271zM395 983v-90h271v90h-271zM395 1106v-88h271v88h-271zM666 1141v63l2 27h-283l6 -45l2 -45h273zM684 1298q10 20 23 31h-383q31 -25 51 -63h297zM41 47h65q141 0 188 40q46 40 46 189v873q0 96 -33 129q-51 51 -201 51h-65v49h1079v-49h-65
q-135 0 -168 -20q-66 -43 -66 -207v-1055h162q184 0 346 90q188 111 387 367l45 2v-506h-1720v47z" />
    <glyph glyph-name="M" unicode="M" horiz-adv-x="2611" 
d="M1823 113q-6 -18 -21 -33l-30 -33h382q-18 27 -32 66h-299zM2116 147v17l-2 49v25h-271l-2 -43l-8 -48h283zM1843 362v-90h271v90h-271zM1843 485v-88h271v88h-271zM1843 610v-90h271v90h-271zM1843 733v-88h271v88h-271zM1843 858v-90h271v90h-271zM1843 983v-90h271v90
h-271zM1843 1106v-88h271v88h-271zM1843 1231v-90h271v22l2 54v14h-273zM1843 1329v-63h279q5 30 32 63h-311zM395 129l-10 43l-6 37l-19 -41l-28 -41zM299 92l-57 -45h204l-34 45h-113zM1094 113l28 -45l27 45h-55zM1020 238l53 -91h92l47 91h-192zM944 362l55 -90h232
l31 62l-17 28h-301zM870 485l54 -88h301l-54 88h-301zM797 610l53 -90h301l-55 90h-299zM721 733l55 -88h299l-53 88h-301zM647 858l53 -90h301l-53 90h-301zM573 983l54 -90h299l-54 90h-299zM498 1106l53 -88h301l-53 88h-301zM422 1231l55 -90h301l-55 90h-301zM664 1329
h-355q22 -9 43 -29l41 -34h309zM432 420q0 -373 303 -373v-47h-694v47q330 0 330 373v790q-82 119 -267 119h-57v49h795l514 -860l440 860h774v-49h-65q-84 0 -116 -4t-65 -29q-34 -26 -40 -56t-8 -41t-3 -38l-2 -59v-826q0 -92 9 -129t40 -61q23 -14 62 -31l123 -8h65v-47
h-1081v47h65q84 0 113 6q17 0 27 4t12 4l31 23q29 23 41 61q10 47 10 131v969l-645 -1245h-39l-672 1112v-692z" />
    <glyph glyph-name="N" unicode="N" horiz-adv-x="2078" 
d="M1657 1178l6 30l14 43h-61zM1694 1286q17 29 35 43h-205l59 -43h111zM395 129l-10 43l-6 37l-19 -41l-28 -41zM299 92l-57 -45h204l-34 45h-113zM1659 113h-100l100 -95v95zM1659 147v91h-232l97 -91h135zM1659 272v90h-363l95 -90h268zM1163 485l97 -88h389l-97 88h-389
zM1032 610l94 -90h390l-95 90h-389zM899 733l96 -88h389l-96 88h-389zM768 858l96 -90h389l-96 90h-389zM637 983l94 -90h389l-94 90h-389zM504 1106l96 -88h389l-96 88h-389zM369 1231l45 -39l53 -51h391l-96 90h-393zM655 1329h-428l43 -24l56 -39h399zM1647 956
q0 373 -304 373v49h695v-49l-88 -4q-15 -3 -64 -22q-178 -78 -178 -347v-1001h-45l-1231 1161v-696q0 -373 303 -373v-47h-694v47q330 0 330 373v747l-47 45l-29 23l-88 61l-43 23l-45 6l-56 4h-8v49h785l807 -757v335z" />
    <glyph glyph-name="O" unicode="O" horiz-adv-x="1935" 
d="M1167 6q113 0 256 107h-157q-44 -64 -99 -107zM1327 238l-41 -91h180l54 54l32 37h-225zM1364 362l-10 -47l-15 -43h240l31 45l24 45h-270zM1386 485l-14 -88h279l18 45l14 43h-297zM1395 610l-4 -90h303l14 90h-313zM1395 733v-88h317v37l-2 51h-315zM1386 858l7 -90
h313l-18 90h-302zM1366 983l16 -90h295l-35 90h-276zM1333 1106l25 -88h266l-27 47l-26 41h-238zM1276 1231l43 -90h225l-45 47l-47 43h-176zM1352 1303l-49 20l-132 43l50 -51l34 -49h150zM455 113q117 -66 252 -88l-54 49l-37 39h-161zM291 238l53 -50l55 -41h191l-58 91
h-241zM193 362l28 -47l39 -43h254l-39 90h-282zM133 485l17 -47l24 -41h291l-12 35l-13 53h-307zM102 610l9 -45l12 -45h311l-8 45l-4 45h-320zM98 733v-41l2 -47h318v88h-320zM119 858l-10 -47l-7 -43h318l12 90h-313zM168 983l-23 -49l-16 -41h309l25 90h-295zM250 1106
l-37 -47l-27 -41h289l39 88h-264zM383 1231l-102 -90h254l20 37l39 53h-211zM670 1319l47 45l-152 -33q-51 -18 -129 -65h185zM983 1376h-45l-47 -10q-35 -8 -60 -27q-180 -122 -223 -535q-4 -48 -4 -112l4 -119q0 -37 17 -116l28 -121q14 -61 39 -119q78 -213 287 -213
q172 0 268 172t96 488v26q0 314 -96 502q-98 184 -264 184zM1894 674q0 -172 -74 -322q-198 -399 -821 -397q-223 0 -386 46t-298 155q-274 214 -274 546t295 551q231 170 598 170q434 1 697 -205t263 -544z" />
    <glyph glyph-name="P" unicode="P" horiz-adv-x="1933" 
d="M707 47q-22 32 -35 66h-297l-23 -37l-28 -29h383zM393 238v-60l-8 -31h283l-2 17v74h-273zM395 362v-90h271v90h-271zM395 485v-88h271v88h-271zM395 610v-90h271v90h-271zM395 733v-88h271v88h-271zM395 858v-90h271v90h-271zM395 983v-90h271v90h-271zM395 1106v-88
h271v88h-271zM666 1141v76l2 14h-283l6 -45l2 -45h273zM684 1298q10 20 23 31h-383q31 -25 51 -63h297zM1319 625q176 0 295 108h-213q-41 -70 -105 -108h23zM1444 858q-8 -49 -25 -90h226q33 41 49 90h-250zM1452 983v-22l-4 -68h256l6 45l2 45h-260zM1442 1106l10 -88h260
l-8 43l-12 45h-250zM1399 1231l22 -43l15 -47h239l-30 47l-15 20l-26 23h-205zM1559 1266q-80 50 -168 61l-72 4l-23 -2l37 -18l41 -45h185zM1120 625q139 0 209 86t70 276q0 342 -279 342h-71q-133 0 -179 -46t-49 -185v-473h299zM1251 1378q258 0 367 -43q28 -8 101 -48
t123 -127t50 -179t-51 -181q-92 -161 -311 -200q-96 -20 -279 -20h-430v-301q0 -86 9 -127q16 -73 104 -97l121 -8h65v-47h-1079v47h65q84 0 113 6q17 0 27 4t12 4l31 23q29 23 41 61q10 47 10 131v826q0 86 -9 127q-17 76 -106 94l-119 6h-65v49h1210z" />
    <glyph glyph-name="Q" unicode="Q" horiz-adv-x="1961" 
d="M1233 397q-39 29 -69 44t-83 15t-112 -59h264zM1323 272l-27 47l-30 43h-226q43 -29 56 -47l39 -43h188zM1567 -98q78 0 135 57l-45 14l-39 17h-260q94 -88 209 -88zM1315 45l12 -20h227l-20 12q-37 24 -59 51l-13 10l-12 15h-217l14 -27l-51 -57l-22 -19l75 10z
M1159 238l55 -91h256l48 48l36 43h-395zM1368 362l-27 -90h240l27 39l26 51h-266zM1389 485l-13 -88h275l35 88h-297zM1397 610l-4 -90h303l16 90h-315zM1397 733v-88h317v35l-2 53h-315zM1386 858l9 -90h313l-8 43l-12 47h-302zM1370 983l12 -90h295l-14 41l-21 49h-272z
M1335 1106l27 -88h266l-24 41l-31 47h-238zM1280 1231l43 -90h223l-37 39l-55 51h-174zM1305 1323l-131 41l49 -49l34 -49h150q-67 43 -102 57zM457 113q117 -66 252 -88l-54 49l-37 39h-161zM293 238l53 -50l55 -41h191l-57 91h-242zM195 362l28 -47l39 -43h254l-39 90
h-282zM135 485l17 -47l24 -41h291l-12 35l-13 53h-307zM104 610l9 -45l12 -45h311l-8 45l-4 45h-320zM100 733v-41l2 -47h318v88h-320zM121 858l-10 -47l-7 -43h318l12 90h-313zM170 983l-23 -49l-16 -41h309l25 90h-295zM252 1106l-37 -47l-27 -41h289l39 88h-264z
M385 1231l-102 -90h254l20 37l39 53h-211zM672 1319l47 45l-152 -33q-51 -18 -129 -65h185zM1146 520q102 0 181 -94q18 133 19 254q0 266 -84 481t-278 215t-286 -213t-92 -469q0 -119 28 -259q60 -298 182 -385q67 -46 153 -46t133 19t90 69l-37 74l-31 49
q-80 127 -168 127q-29 0 -40 -10t-22 -30t-24 -42l-47 23q51 111 136 174t187 63zM1921 252q0 -186 -91 -299t-253 -113t-289 140q-127 -25 -297 -25q-518 0 -777 294q-173 196 -173 445q0 172 84 323t235 253q225 156 578 155q436 -1 697 -205t261 -542t-262 -551
q51 -39 109 -39t98 49q37 49 37 152h43v-37z" />
    <glyph glyph-name="R" unicode="R" horiz-adv-x="1978" 
d="M707 47q-22 32 -35 66h-297l-23 -37l-28 -29h383zM393 238v-60l-8 -31h283l-2 17v74h-273zM395 362v-90h271v90h-271zM395 485v-88h271v88h-271zM395 610v-90h271v90h-271zM395 733v-88h271v88h-271zM395 858v-90h271v90h-271zM395 983v-90h271v90h-271zM395 1106v-88
h271v88h-271zM666 1141v90h-281l6 -45l2 -45h273zM666 1329h-342q31 -25 51 -63h291v63zM1284 113l35 -66h254l-35 66h-254zM1217 238l47 -91h256l-47 91h-256zM1149 362l49 -90h256l-47 90h-258zM1081 485l49 -88h259l-48 88h-260zM1014 610l49 -90h260l-47 90h-262z
M1227 733l-41 -31l-47 -20l-62 -18l-86 -13l4 -6h262l148 64l41 24h-219zM1305 858l-19 -43l-29 -47h240q53 43 84 90h-276zM1329 983l-4 -45l-10 -45h284l11 39l10 51h-291zM1319 1106l6 -39l4 -49h293l-2 53l-12 35h-289zM1266 1231l28 -53l17 -37h282l-24 45l-37 45h-266
zM1452 1288l-51 21l-49 14l-54 4l-61 2h-78l43 -29l37 -34h252zM950 698q324 0 324 314q0 172 -107 258q-74 59 -235 59h-111v-631h129zM1800 1020q0 -301 -370 -365l235 -446q49 -90 109 -126t163 -36v-47h-649l-356 651h-111v-375q0 -84 9 -124q16 -73 104 -97l121 -8h12
v-47h-1026v47h65q84 0 113 6q17 0 27 4t12 4l31 23q29 23 41 61q10 47 10 131v826q0 86 -9 127q-17 76 -106 94l-119 6h-65v49h1137l182 -2q109 0 229 -43q95 -37 153 -123t58 -190z" />
    <glyph glyph-name="S" unicode="S" horiz-adv-x="1734" 
d="M125 197h168l-39 30l-84 88l-45 58v-176zM125 162v-127l164 127h-164zM1425 1169h-102l49 -47l53 -59v106zM1425 1204v82l-100 -82h100zM1489 238l2 -37l-6 -49l-27 -66q43 33 64 57l20 43l21 52h-74zM1581 362h-192l41 -30q6 -4 18 -22t27 -38h98l6 41l2 39v10zM874 485
l103 -14q201 -28 334 -74h268l-8 45l-17 43h-680zM305 610l33 -14q160 -59 280 -74l21 -2h899l-35 47l-45 43h-1153zM1407 645q-106 58 -244 88h-1013l45 -51l49 -37h1163zM96 858l13 -49l20 -41h832l-326 49q-137 22 -207 41h-332zM90 983l-4 -45l4 -45h244l-58 35
q-18 16 -43 55h-143zM203 1087v21h-80l-29 -90h123q-14 54 -14 69zM227 1202l9 21q2 8 26 37q-45 -26 -65 -46t-56 -73h68zM1546 883h-43q-78 123 -164 209q-129 128 -307 206t-351 78t-272 -56t-99 -152t98 -142q71 -32 120 -41l203 -39l350 -53q144 -20 336 -89
q129 -47 203 -150t74 -238q0 -211 -166 -336t-457 -125l-92 4l-127 14l-74 21q-148 38 -238 101q-32 22 -120 83l-19 12l-268 -200h-49v567h49q37 -68 74 -113l100 -106q109 -113 266 -203q221 -131 494 -131q176 0 273 49q98 49 98 141t-84 138l-54 22l-63 23l-225 47
l-394 55q-578 80 -577 459q0 207 182 346t476 139t571 -209l243 189h33v-520z" />
    <glyph glyph-name="T" unicode="T" horiz-adv-x="1806" 
d="M985 1266v63h-272v-63h272zM985 1141v92h-272v-92h272zM985 1018v88h-272v-88h272zM985 893v90h-272v-90h272zM985 768v90h-272v-90h272zM985 645v88h-272v-88h272zM985 520v90h-272v-90h272zM985 397v88h-272v-88h272zM985 272v90h-272v-90h272zM985 238h-272v-54
l-8 -37h282l-2 17v74zM672 76l-29 -29h383l-22 31l-13 35h-297zM88 1217v-148q55 88 100 148h-100zM88 1329v-78h129l84 78h-213zM1620 1217h-135q76 -80 135 -162v162zM1620 1329h-274l102 -78h172v78zM1765 770h-47q-17 65 -67 150l-45 79l-60 80q-102 127 -205 201
q-68 49 -163 49h-37v-1053q0 -86 10 -126q18 -74 102 -95l121 -8h66v-47h-1080v47h66q84 0 113 6q16 0 26 4t13 4l30 23q29 23 41 61q10 47 10 131v1053h-32l-60 -2q-18 -4 -24 -5q-45 -7 -128 -79q-171 -147 -251 -305l-37 -70l-39 -98h-47v608h1724v-608z" />
    <glyph glyph-name="U" unicode="U" horiz-adv-x="2007" 
d="M1577 1257l33 -43l18 -45l2 33q0 16 21 55h-74zM1698 1329h-205l51 -37h123zM674 1266q6 31 33 63h-383q31 -25 51 -63h299zM666 1141v22l2 54v14h-283l8 -43l2 -47h271zM666 1018v88h-271v-88h271zM666 893v90h-271v-90h271zM666 768v90h-271v-90h271zM666 645v88h-271
v-88h271zM666 520v90h-271v-90h271zM666 397v88h-271l2 -49l4 -39h265zM674 272l-4 41l-2 49h-262l10 -51l14 -39h244zM715 147l-21 43l-14 48h-234l31 -48l37 -43h201zM618 66l74 -31l80 -23q15 -6 88 -6q-49 27 -72 47l-51 60h-184zM1966 1378v-49q-289 -29 -289 -373
v-385q0 -143 -19 -226t-75 -165q-150 -225 -625 -225q-319 0 -487 164q-67 75 -92 149l-25 76l-10 90l-4 125v541q0 94 -8 129q-16 72 -107 92l-119 8h-65v49h1081v-49h-65l-113 -4l-41 -8l-33 -25q-42 -30 -45 -131l-2 -59v-737q0 -152 68 -234q90 -113 268 -113
q95 0 211 56t165 136q50 79 65 161q16 82 16 221v364q0 373 -305 373v49h655z" />
    <glyph glyph-name="V" unicode="V" horiz-adv-x="2074" 
d="M977 113l67 -123l70 123h-137zM909 238l49 -91h175l49 91h-273zM842 362l49 -90h309l4 7l-45 83h-317zM774 485l49 -88h318l-49 88h-318zM707 610l49 -90h317l-49 90h-317zM639 733l49 -88h318l-50 88h-317zM571 858l50 -90h317l-49 90h-318zM504 983l49 -90h317l-49 90
h-317zM436 1106l49 -88h318l-49 88h-318zM735 1141q-26 53 -33 90h-342l58 -90h317zM715 1294l18 35h-483l41 -24l41 -39h373zM1602 1231l38 -78q10 -31 11 -74l84 152h-133zM1798 1329h-289q43 -31 70 -63h176zM1599 1082q0 89 -70 168q-71 79 -177 79h-47v49h729v-49
q-55 -6 -81 -17t-81 -57l-51 -43l-47 -51l-82 -108l-93 -154l-536 -967h-37l-659 1209q-102 188 -297 188h-29v49h1094v-49h-134q-104 0 -104 -82q0 -20 12 -57l17 -53l372 -684l246 440q55 100 55 189z" />
    <glyph glyph-name="W" unicode="W" horiz-adv-x="2988" 
d="M948 113l45 -88l41 88h-86zM885 238l45 -91h121l39 91h-205zM821 362l45 -90h240l29 62l-15 28h-299zM758 485l45 -88h299l-45 88h-299zM694 610l45 -90h301l-47 90h-299zM631 733l45 -88h301l-45 88h-301zM567 858l45 -90h301l-45 90h-301zM504 983l45 -90h303l-45 90
h-303zM440 1106l47 -88h301l-45 88h-303zM371 1231l20 -31l23 -43l10 -16h303l-16 30q-12 20 -19 60h-321zM692 1266q0 28 23 63h-451l49 -35l31 -28h348zM1995 113l45 -88l41 88h-86zM1931 238l45 -91h119l41 91h-205zM1868 362l45 -90h239l27 62l-14 28h-297zM1804 485
l45 -88h299l-45 88h-299zM1741 610l45 -90h299l-45 90h-299zM1677 733l45 -88h301l-45 88h-301zM1614 858l45 -90h301l-45 90h-301zM1550 983l45 -90h303l-45 90h-303zM1487 1106l45 -88h303l-45 88h-303zM1417 1231q29 -33 43 -74l8 -16h306l-17 30q-12 20 -18 60h-322z
M1761 1329h-452q35 -18 51 -35l31 -28h348q-1 28 22 63zM2468 1231q29 -39 37 -68l10 -37l6 -39q39 82 80 144h-133zM2626 1266l28 39l21 24h-308l72 -63h187zM2472 1073q0 90 -68 167t-176 89v49h719v-49q-59 0 -90 -10l-31 -12q-29 -14 -47 -29q-119 -74 -207 -231
l-65 -127l-443 -971h-36l-533 1042l-477 -1042h-35l-614 1200q-51 98 -116 139t-171 41h-41v49h1001v-49h-47q-131 0 -131 -63l4 -33l353 -703l241 527q-47 102 -69 131q-17 30 -55 66t-69 50t-114 25v49h932v-49h-45q-76 0 -104 -13q-54 -25 -3 -128l330 -658l164 357
q43 96 43 186z" />
    <glyph glyph-name="X" unicode="X" horiz-adv-x="2148" 
d="M530 133q0 41 29 88l-137 -88h108zM303 70l-57 -23h313q-18 31 -24 51h-175zM1286 113l-4 -37l-22 -29h495l-35 25l-45 41h-389zM1214 238l29 -33l35 -58h364l-36 39l-41 52h-351zM1112 362l74 -90h350l-76 90h-348zM1008 485l75 -88h349l-74 88h-350zM905 610l74 -90
h350l-74 90h-350zM803 733l74 -88h350l-74 88h-350zM698 858l76 -90h350l-75 90h-351zM596 983l74 -90h350l-74 90h-350zM494 1106l73 -88h351l-74 88h-350zM389 1231l62 -76l14 -14h350l-14 14l-27 37l-18 39h-367zM748 1266v14q0 27 14 49h-483q59 -44 77 -63h392z
M1528 1251l4 -34l-4 -41l88 75h-88zM1718 1329h-243q18 -10 38 -43h146zM1481 1209q0 50 -49 85t-119 35h-37v49h784v-49l-45 -2q-88 0 -144 -16q-100 -29 -274 -158l-75 -59l-252 -236l495 -604l62 -68q37 -39 80 -67l39 -27l47 -20l47 -13l67 -12v-47h-1030v47h47
q109 0 109 64q0 33 -45 86l-275 323l-125 -114q-131 -122 -131 -195q1 -72 61 -118t161 -46h49v-47h-887v47l61 6q110 12 306 128t387 302l84 82l-504 609q-39 49 -76 77q-51 47 -98 66q-49 12 -142 12v49h1094v-49h-92q-102 0 -103 -61q0 -42 39 -86l236 -279l119 109
q80 74 104 110t25 87z" />
    <glyph glyph-name="Y" unicode="Y" horiz-adv-x="2074" 
d="M702 1266l9 34l28 29h-475l41 -26l37 -37h360zM754 1141l-21 26q-13 16 -28 64h-336l63 -90h322zM840 1018l-64 88h-319l63 -88h320zM928 893l-64 90h-319l63 -90h320zM1014 768l-62 90h-319l63 -90h318zM1102 645l-64 88h-317l61 -88h320zM844 113q-6 -18 -21 -33
l-30 -33h383q-18 27 -33 66h-299zM1137 147v17l-2 49v25h-271l-2 -43l-8 -48h283zM864 362v-90h271v90h-271zM864 485v-88h271v88h-271zM864 520h271v78l-9 12h-319l57 -80v-10zM1577 1128v-8l39 60l41 51h-98q18 -55 18 -103zM1757 1329h-270l29 -29l26 -34h146zM1528 1135
q0 92 -58 143t-155 51h-41v49h760v-49q-135 0 -254 -92t-285 -328l-203 -288v-345q0 -92 10 -129t39 -61q23 -14 62 -31l123 -8h65v-47h-1081v47h65q84 0 113 6q16 0 26 4t13 4l31 23q29 23 41 61q10 47 10 131v242l-469 668q-100 143 -252 143h-47v49h1087v-49h-73
q-158 0 -158 -78q0 -35 37 -88l340 -477l176 248q78 109 78 201z" />
    <glyph glyph-name="Z" unicode="Z" horiz-adv-x="1607" 
d="M1407 170v188l-117 -122l-76 -66h193zM1407 47v86h-238l-139 -86h377zM152 113l-48 -66h336l47 66h-335zM240 238l-64 -91h336l63 91h-335zM328 362l-64 -90h336l64 90h-336zM418 485l-66 -88h336l66 88h-336zM506 610l-64 -90h336l64 90h-336zM594 733l-64 -88h336
l64 88h-336zM684 858l-66 -90h336l66 90h-336zM772 983l-63 -90h335l64 90h-336zM860 1106l-63 -88h336l63 88h-336zM950 1231l-65 -90h336l63 90h-334zM1356 1329h-334l-47 -63h336zM154 1231v-135l45 73l55 62h-100zM154 1329v-63h137q33 26 94 63h-231zM741 47
q233 0 414 143q98 76 174 160l92 105l76 108h39v-563h-1495v39l924 1290h-152q-238 0 -389 -117q-100 -81 -145 -143l-66 -86l-59 -106l-48 2v499h1461v-41l-926 -1290h100z" />
    <glyph glyph-name="bracketleft" unicode="[" horiz-adv-x="819" 
d="M41 -168v1714h737v-86h-307v-1550h307v-78h-737zM307 1460h-213v-119h213v119zM94 -90h213v119h-213v-119zM307 188h-213v-114h213v114zM307 348h-213v-115h213v115zM307 506h-213v-115h213v115zM307 664h-213v-113h213v113zM307 823h-213v-114h213v114zM307 981h-213
v-115h213v115zM307 1139h-213v-113h213v113zM307 1298h-213v-114h213v114z" />
    <glyph glyph-name="backslash" unicode="\" horiz-adv-x="1648" 
d="M449 1356l-70 106h-246l70 -106h246zM1069 43l84 -127h248l-84 127h-248zM1038 88h248l-76 115h-247zM934 248h248l-76 114h-248zM829 406h248l-76 112h-245zM725 563h248l-76 117h-248zM621 725h245l-75 113h-246zM440 995l76 -114h246l-74 114h-248zM336 1155l76 -115
h245l-75 115h-246zM231 1313l76 -113h246l-76 113h-246zM520 1511l1088 -1644h-482l-1085 1644h479z" />
    <glyph glyph-name="bracketright" unicode="]" horiz-adv-x="819" 
d="M614 1460h-211v-119h211v119zM403 -90h211v119h-211v-119zM614 188h-211v-114h211v114zM614 348h-211v-115h211v115zM614 506h-211v-115h211v115zM614 664h-211v-113h211v113zM614 823h-211v-114h211v114zM614 981h-211v-115h211v115zM614 1139h-211v-113h211v113z
M614 1298h-211v-114h211v114zM41 -90h307v1550h-307v86h737v-1714h-737v78z" />
    <glyph glyph-name="asciicircum" unicode="^" horiz-adv-x="960" 
d="M123 1311h135l55 102h-135zM608 1585h-336l-69 -127h135l45 80h115l45 -80h135zM567 1413l56 -102h135l-56 102h-135zM715 1634l205 -372h-328l-113 202l-110 -202h-328l205 372h469z" />
    <glyph glyph-name="underscore" unicode="_" horiz-adv-x="1206" 
d="M1165 -147v-68h-1124v68h1124z" />
    <glyph glyph-name="grave" unicode="`" horiz-adv-x="526" 
d="M166 1585l184 -166l-28 166h-156zM485 1262h-34l-410 372h377z" />
    <glyph glyph-name="a" unicode="a" horiz-adv-x="1673" 
d="M780 991l-43 -78h88zM721 885l-41 -70h199l-39 70h-119zM664 786l-9 -18l31 -53h248l-39 71h-231zM700 686l39 -72h252l-41 72h-250zM754 588l41 -72h252l-41 72h-252zM811 489l39 -73h252l-41 73h-250zM864 389l39 -72h252l-39 72h-252zM918 289l40 -70h254l-41 70h-253
zM975 190q22 -43 24 -71h269l-39 71h-254zM997 90q-6 -27 -30 -51h344l-29 51h-285zM319 119v24l5 47l-29 -40l-29 -31h53zM238 90l-41 -31l-33 -20h188q-18 31 -24 51h-90zM844 344l-211 385l-207 -385h418zM639 39v-39h-598v39q92 0 166 70t153 215l455 811h39l514 -924
q25 -48 49 -80q14 -25 49 -51q49 -41 144 -41h22v-39h-862v39h84q41 0 73 20q54 34 13 115l-72 133h-454q-31 -91 18 -170q27 -51 80 -74l35 -16q8 -4 43 -8h49z" />
    <glyph glyph-name="b" unicode="b" horiz-adv-x="1499" 
d="M936 1063l37 -25q14 -8 28 -26h179q-55 30 -90 41l-56 6l-71 4h-27zM1024 983q20 -35 33 -72h207l-23 37q-8 16 -29 35h-188zM1063 883l4 -33l2 -37h221l-2 37l-12 33h-213zM1067 784l-2 -34l-8 -37h213q14 35 20 71h-223zM1049 686l-19 -41l-24 -33h182l31 23
q24 24 38 51h-208zM975 586l-25 -17l-41 -20l68 -35h160l-76 23l-76 12q63 6 143 37h-153zM1008 487q22 -27 30 -43t17 -30h223q-23 35 -82 73h-188zM1065 387l6 -27l6 -45h236l-6 37l-15 35h-227zM1079 289v-43l-6 -29h236l6 31l2 31l-2 10h-236zM1065 188l-12 -36l-19 -35
h211q29 25 53 71h-233zM979 37q121 0 182 28q27 11 49 23h-194l-27 -27l-33 -24h23zM541 88h-232l-18 -29l-23 -22h273v51zM541 188h-217v-47l-7 -24h224v71zM541 289h-217v-72h217v72zM541 387h-217v-72h217v72zM541 487h-217v-73h217v73zM541 586h-217v-72h217v72z
M541 686h-217v-74h217v74zM541 784h-217v-71h217v71zM541 883h-217v-70h217v70zM541 983h-224l5 -35l2 -37h217v72zM541 1012v51h-273q23 -18 41 -51h232zM666 37h112q63 0 94 6t70 31q90 54 90 206t-90 216q-37 25 -63 26l-60 6l-86 2h-67v-493zM666 573h151l60 9
q27 6 67 32q82 58 82 202t-82 206q-58 43 -211 43h-67v-492zM1458 276q0 -131 -115 -208q-53 -36 -130 -52t-226 -16h-946v39h53l90 4q8 0 31 6l25 19q25 20 32 50q8 30 9 103v662q0 122 -34 147q-34 26 -59 29l-94 6h-53v39h926l131 -4l57 -8l53 -17q220 -73 222 -264
q0 -93 -48 -153t-157 -105q233 -74 233 -277z" />
    <glyph glyph-name="c" unicode="c" horiz-adv-x="1347" 
d="M1161 993h-57l61 -86zM1159 1020l-2 41l-45 -19l-59 -2l22 -20h84zM461 125h-111q78 -51 174 -70l-37 35zM399 225h-172l37 -37l45 -34h131zM360 326h-206l26 -45l23 -27h186zM336 424h-225l12 -39l16 -33h213l-8 33zM326 524h-238l8 -49l6 -24h230zM326 623h-240l-2 -33
l2 -39h240l-2 24zM336 723h-238l-10 -74h238zM358 821h-227l-25 -71h236zM395 920h-207l-43 -70h222l12 37zM453 1020h-168l-41 -35l-33 -37h197zM475 1049l39 43l49 41l-65 -9l-33 -8l-51 -18l-88 -49h149zM752 1124q-127 0 -199 -140t-72 -381t62 -398q63 -156 219 -156
t292 96t222 271l31 -17q-23 -55 -43 -84l-60 -79q-50 -69 -125 -123q-158 -113 -383 -113q-279 0 -467 169t-188 423t177 418t456 164q120 0 284 -72l60 -27l47 -6q88 0 162 80h30l21 -461l-27 -6l-69 137q-43 71 -103 144q-71 78 -153 120l-84 31q-39 10 -90 10z" />
    <glyph glyph-name="d" unicode="d" horiz-adv-x="1626" 
d="M1081 90l-22 -22q-12 -12 -47 -29q93 0 178 51h-109zM1303 190h-162l-15 -34l-22 -37h125l39 33zM1370 291h-196l-21 -72h170zM1411 389h-219l-12 -72h202l15 33zM1427 489h-227l-2 -16l-2 -57h221zM1202 588v-31l-2 -41h230l2 27l-5 45h-225zM1411 688h-213l2 -74h227z
M1378 786h-192l8 -71h209zM1319 885h-158l10 -33l9 -37h182l-21 37zM1225 985h-115l20 -33l21 -39h145l-32 37zM1186 1014q-74 43 -174 51q39 -16 73 -51h101zM541 90h-234q-14 -27 -18 -29l-23 -22h275v51zM541 190h-219v-47l-7 -24h226v71zM541 291h-217v-72h217v72z
M541 389h-217v-72h217v72zM541 489h-217v-73h217v73zM541 588h-217v-72h217v72zM541 688h-217v-74h217v74zM541 786h-217v-71h217v71zM541 885h-217v-70h217v70zM541 985h-226l7 -35v-37h219v72zM541 1014v51h-275q27 -25 41 -51h234zM666 39h141l90 4q98 0 154 70
q106 119 106 442l-2 59l-6 107q0 125 -40 192q-68 123 -132 136q-82 16 -182 16h-129v-1026zM41 0v39h51l90 4q14 0 33 6l25 19q20 16 32 49q9 61 9 104v662q0 124 -39 149q-20 20 -54 27l-96 6h-51v39h920l63 -4l37 -2l69 -13q131 -25 229 -89q99 -64 163 -190t64 -254
q-1 -195 -113 -336t-271 -185l-80 -13l-90 -10l-71 -6l-101 -2h-819z" />
    <glyph glyph-name="e" unicode="e" horiz-adv-x="1458" 
d="M541 90h-234q-14 -27 -18 -29l-23 -22h275v51zM541 190h-219v-47l-7 -24h226v71zM541 291h-219v-72h219v72zM541 389h-219v-72h219v72zM541 489h-219v-73h219v73zM541 588h-219v-72h219v72zM541 688h-219v-74h219v74zM541 786h-219v-71h219v71zM541 885h-219v-70h219v70z
M541 987h-226l7 -37v-37h219v74zM541 1014v51h-275q27 -25 41 -51h234zM961 592v84q-41 -41 -66 -58l-43 -26h109zM961 565h-117l51 -30l39 -29l27 -25v84zM1305 129v133q-53 -57 -111 -102l-37 -31h148zM1305 39v63h-185l-45 -30l-74 -33h304zM1288 975h-129l45 -39
q29 -25 46 -45t38 -43v127zM1288 1001v64h-262l49 -29l49 -35h164zM1403 1104v-402h-35q-113 147 -256 265q-78 57 -134 77t-140 21h-172v-467h41q95 0 167 45t136 150h39v-426h-39l-49 69l-48 43q-31 27 -49 35q-72 45 -157 45h-41v-520h168l45 6q114 13 206 78
q165 110 295 280l37 3v-406h-1376v39h51l90 4q14 0 33 6l25 19q20 16 32 49q9 61 9 104v662q0 124 -39 149q-20 20 -54 27l-96 6h-51v39h1362z" />
    <glyph glyph-name="f" unicode="f" horiz-adv-x="1443" 
d="M545 90h-238l-16 -29l-25 -22h307q-18 26 -28 51zM541 190h-217v-47l-9 -24h228l-2 12v59zM541 291h-217v-72h217v72zM541 389h-217v-72h217v72zM541 489h-217v-73h217v73zM541 588h-217v-72h217v72zM541 688h-217v-74h217v74zM541 786h-217v-71h217v71zM541 885h-217
v-70h217v70zM541 987h-226l7 -37l2 -37h217v74zM541 1014v51h-275q27 -25 41 -51h234zM961 592v84q-41 -41 -66 -58l-43 -26h109zM961 565h-117l51 -30l39 -29l27 -25v84zM1290 975h-131l45 -39q27 -23 42 -40t44 -48v127zM1290 1001v64h-262l49 -29l47 -35h166zM1403 1104
v-402h-35q-113 147 -256 265q-78 57 -133 77t-141 21h-172v-467h43q93 0 165 45t136 150h39v-426h-39l-23 36l-26 33l-48 43q-23 23 -49 35q-72 45 -155 45h-43v-338q0 -75 6 -101t32 -48t52 -27l96 -6h53v-39h-864v39h53l90 4q12 0 31 6l25 19q41 33 41 153v662
q0 124 -39 149q-20 20 -54 27l-94 6h-53v39h1362z" />
    <glyph glyph-name="g" unicode="g" horiz-adv-x="1669" 
d="M1262 135h-244q-6 -29 -41 -74l31 9q102 25 172 24l41 -2l41 -6v49zM1262 233h-226l-10 -73h236v73zM1262 332h-224v-19l-2 -55h226v74zM1268 430h-240l8 -37l2 -35h226zM1274 457l14 39l6 14h-309l35 -53h254zM1194 971h-59l34 -41l29 -41zM1192 999v35q-43 -25 -92 -24
l10 -11h82zM457 106h-103q39 -20 158 -63zM397 205h-170q41 -45 82 -70l129 -2l-20 33zM360 303h-202l16 -29l31 -41h182zM338 403h-225l12 -36l18 -35h209l-8 35zM326 504h-236l6 -43l8 -31h228zM326 602h-240l-2 -29l2 -43h240v72zM338 700h-238l-14 -71h244l2 41z
M358 801h-223l-29 -72h236l8 41zM397 899h-204l-25 -35l-21 -35h220l12 31zM455 999h-168l-31 -26l-43 -45h197zM475 1028l31 35l49 45q-108 -12 -154 -37q-45 -26 -75 -43h149zM768 1102q-133 0 -197 -107q-92 -154 -92 -430t90 -432q61 -106 197 -106t195 75q43 62 43 200
t-31 173t-142 35h-61v37h858v-37h-78q-59 0 -83 -7t-54 -44t-33 -130v-145l2 -69q0 -37 15 -95l-23 -16q-78 57 -169 57t-218 -34l-84 -25l-98 -16l-111 -6q-279 0 -466 171t-187 422t186 426q168 154 453 154q100 0 160 -14l73 -23l84 -37l60 -24l43 -6q80 0 162 77h32
l17 -407l-43 -6l-15 30l-22 39l-60 84q-47 66 -127 138q-75 63 -194 93q-25 5 -82 5z" />
    <glyph glyph-name="h" unicode="h" horiz-adv-x="1820" 
d="M1421 90h-237l-19 -29l-22 -22h305zM1415 190h-217v-47l-6 -24h225l-2 12v59zM1415 291h-215v-72h215v72zM1415 389h-215v-72h215v72zM1415 489h-215v-73h215v73zM1415 588h-215v-72h215v72zM1415 688h-215v-74h215v74zM1415 786h-215v-71h215v71zM1415 885h-215v-70h215
v70zM1415 913v62l2 10h-225l4 -35l2 -37h217zM1421 1014l9 26l18 25h-305q23 -18 41 -51h237zM545 90h-238l-16 -29l-25 -22h307q-18 26 -28 51zM541 190h-217v-47l-9 -24h228l-2 12v59zM541 291h-217v-72h217v72zM541 389h-217v-72h217v72zM541 489h-217v-73h217v73z
M541 588h-217v-72h217v72zM541 688h-217v-74h217v74zM541 786h-217v-71h217v71zM541 885h-217v-70h217v70zM541 913v62l2 10h-228l7 -35l2 -37h217zM545 1014l10 26l18 25h-307q27 -25 41 -51h238zM1155 883q0 122 -37 149q-25 20 -55 27l-94 6h-8v39h819v-39h-54
q-68 0 -92 -6q-31 -2 -53 -23q-20 -12 -33 -53l-6 -41l-2 -59v-662q0 -75 6 -101t35 -48t49 -27l96 -6h54v-39h-819v39h8l90 4q8 0 31 6l24 19q41 33 41 153v342h-489v-342q0 -72 6 -99t32 -49t52 -28l96 -6h10v-39h-821v39h53l90 4q12 0 31 6l25 19q41 33 41 153v662
q0 124 -39 149q-20 20 -54 27l-94 6h-53v39h821v-39h-10q-66 0 -94 -5t-51 -24q-25 -14 -33 -53l-6 -41l-2 -59v-283l489 2v281z" />
    <glyph glyph-name="i" unicode="i" horiz-adv-x="944" 
d="M545 90h-238q-14 -27 -18 -29l-23 -22h307q-18 26 -28 51zM541 190h-219v-47l-7 -24h226v71zM541 291h-217v-72h217v72zM541 389h-217v-72h217v72zM541 489h-217v-73h217v73zM541 588h-217v-72h217v72zM541 688h-217v-74h217v74zM541 786h-217v-71h217v71zM541 885h-217
v-70h217v70zM541 985h-226l4 -35l3 -37h219v72zM545 1014l10 26l18 25h-307q23 -18 41 -51h238zM903 39v-39h-862v39h51l90 4q8 0 31 6l25 19q23 18 31 49q9 31 10 104v662q0 122 -33 147t-58 29l-96 6h-51v39h862v-39h-51q-66 0 -94 -4q-67 -10 -86 -78l-6 -41l-2 -59v-662
q0 -61 8 -102q8 -25 33 -47t49 -27l98 -6h51z" />
    <glyph glyph-name="j" unicode="j" horiz-adv-x="1214" 
d="M188 395q-44 0 -77 -45h147q-26 45 -70 45zM86 252h182l6 37l-6 35h-172l-10 -62v-10zM123 152h78l26 34q16 10 31 37h-168l10 -39zM147 123l21 -19l29 -18l-4 37h-46zM575 1030h240l10 25l17 24h-307q20 -16 40 -49zM809 930v71h-223l4 -36l2 -35h217zM592 831h217v70
h-217v-70zM592 731h217v72h-217v-72zM592 631h217v71h-217v-71zM592 532h217v72h-217v-72zM592 432h217v72h-217v-72zM592 334h217v72h-217v-72zM592 233h213l4 58v16h-217v-74zM592 135h182q19 37 27 72h-209v-72zM590 106q0 -35 -4 -45l-27 -38q133 14 197 83h-166z
M307 1079v41h867v-41h-54l-90 -2l-33 -8l-24 -18q-23 -15 -26 -33t-7 -32t-4 -40l-2 -49v-502q0 -135 -25 -199t-104 -124q-79 -48 -158 -71q-78 -22 -192 -21q-180 0 -297 80t-117 206q0 74 52 126t130 52t128 -46t50 -119q0 -104 -118 -160q-16 -12 -17 -27q0 -31 49 -55
l47 -12q46 -9 96 -9t69 26t20 120v737q0 80 -8 102q-4 29 -28 49t-56 25l-95 4h-53z" />
    <glyph glyph-name="k" unicode="k" horiz-adv-x="1931" 
d="M545 90h-238q-14 -27 -18 -29l-23 -22h307q-18 26 -28 51zM541 190h-219v-47l-7 -24h228l-2 12v59zM541 291h-217v-72h217v72zM541 389h-217v-72h217v72zM541 489h-217v-73h217v73zM541 588h-217v-72h217v72zM541 688h-217v-74h217v74zM541 786h-217v-71h217v71zM541 885
h-217v-70h217v70zM322 913h219v62l2 10h-228l7 -35v-37zM545 1014l10 26l18 25h-307q27 -25 41 -51h238zM1139 90q0 -33 -17 -51h348l-43 51h-288zM1343 190h-258l21 -24l27 -47h272zM1262 291h-258l57 -72h260zM1178 389h-256l59 -72h258zM1096 489h-254l59 -73h254z
M1012 588h-125l-80 -58l12 -14h254zM989 614l-24 33l-41 -33h65zM1315 985h-92l6 -45l-6 -45zM1341 1014l56 51h-228q29 -25 41 -51h131zM1042 1065h-41v39h781v-39h-21q-135 -1 -263 -65t-286 -179l-139 -100l348 -420q114 -131 176 -181q62 -51 111 -69q49 -12 135 -12h47
v-39h-927v39h51q47 0 63 10q17 9 17 35t-15 49l-30 43l-273 330l-110 -82v-203q0 -75 6 -101t32 -48t52 -27l96 -6h12v-39h-823v39h51l90 4q14 0 33 6l25 19q20 16 32 49q9 61 9 104v662q0 124 -39 149q-20 20 -54 27l-96 6h-51v39h862v-39h-51q-66 0 -94 -5t-51 -24
q-23 -12 -33 -53l-8 -41v-463l419 305q102 72 103 160q0 121 -146 121z" />
    <glyph glyph-name="l" unicode="l" horiz-adv-x="1458" 
d="M1305 141v121q-55 -58 -131 -121h131zM1305 39v74h-170l-64 -41l-70 -33h304zM541 90h-234l-16 -29l-25 -22h275v51zM541 190h-217v-47l-9 -24h226v71zM541 291h-217v-72h217v72zM541 389h-217v-72h217v72zM541 489h-217v-73h217v73zM541 588h-217v-72h217v72zM541 688
h-217v-74h217v74zM541 786h-217v-71h217v71zM541 885h-217v-70h217v70zM541 913v52l2 20h-228l7 -35l2 -37h217zM545 1014l10 26l18 25h-307q27 -25 41 -51h238zM41 0v39h53q115 0 151 32t36 150v699q0 78 -27 104q-45 41 -160 41h-53v39h864v-39h-53q-106 0 -135 -16
q-51 -39 -51 -166v-844h129q154 0 276 72q146 83 309 292l37 3v-406h-1376z" />
    <glyph glyph-name="m" unicode="m" horiz-adv-x="2105" 
d="M1706 90h-240q-2 -8 -16 -27l-25 -24h308q-17 22 -27 51zM1700 190h-217v-34l-8 -37h227v12l-2 39v20zM1700 291h-217v-72h217v72zM1700 389h-217v-72h217v72zM1700 489h-217v-73h217v73zM1700 588h-217v-72h217v72zM1700 688h-217v-74h217v74zM1700 786h-217v-71h217v71
zM1700 885h-217v-70h217v70zM1702 985h-219v-72h217v19l2 43v10zM1483 1065v-51h223q6 25 27 51h-250zM274 102l52 2l-9 33l-6 31l-14 -33zM248 74l-23 -19l-22 -16h164l-29 35h-90zM928 90h-43l22 -35zM979 190h-154l43 -71h74zM1006 291h-242l45 -72h184l25 49zM946 389
h-241l43 -72h241zM885 489h-238l41 -73h242zM827 588h-241l45 -72h237zM768 688h-242l43 -74h242zM707 786h-240l43 -71h240zM647 885h-239l43 -70h239zM588 985h-242l12 -16l33 -56h240zM571 1014l-30 51h-285l68 -51h247zM354 336q0 -297 244 -297v-39h-557v39
q264 0 264 297v633q-68 96 -213 96h-45v39h635l412 -688l352 688h618v-39h-51q-69 0 -95 -4q-26 -5 -50 -23t-33 -47l-8 -61v-709q0 -81 7 -107q8 -26 28 -41t53 -28l98 -6h51v-39h-864v39h53l90 4q12 0 31 6l25 19q41 33 41 153v776l-516 -997h-31l-539 891v-555z" />
    <glyph glyph-name="n" unicode="n" horiz-adv-x="1679" 
d="M1300 1001l33 -59l6 25l11 34h-50zM1276 1030h88q16 25 27 33h-164zM274 102h52q-8 20 -9 35l-6 31l-14 -33zM248 74l-45 -37h164l-29 37h-90zM1335 90h-80l80 -76v76zM1335 190h-184l76 -71h108v71zM1335 291h-288l73 -74h215v74zM1251 389h-311l76 -72h311zM1145 487
h-311l75 -71h312zM1038 586h-311l78 -70h311zM934 686h-311l77 -72h312zM829 786h-311l76 -71h311zM723 885h-311l77 -70h312zM618 985h-315l37 -31l43 -41h311zM588 1014l-56 49h-342l35 -19l43 -30h320zM1325 766q0 297 -242 297v41h555v-41l-69 -2l-51 -19
q-143 -61 -144 -276v-801h-35l-985 928v-557q0 -299 242 -299v-37h-555v37q264 0 264 299v598l-37 37l-94 67l-35 17l-35 6l-51 2v41h627l645 -608v270z" />
    <glyph glyph-name="o" unicode="o" horiz-adv-x="1564" 
d="M1022 98q-35 -49 -80 -84q84 0 205 84h-125zM1251 199h-180l-33 -72h144l43 43zM1317 299h-217l-8 -39l-13 -33h193l24 35zM1356 397h-238l-12 -71h223zM1374 498h-250l-4 -74h244zM1124 596v-72h254v31l-2 41h-252zM1358 696h-240l4 -73h252zM1323 795h-221l12 -72h236z
M1266 893h-191l21 -70h213zM1169 993h-139l19 -39l14 -32h180l-35 36zM1133 1022l-43 29l-39 16l-105 35l39 -41l29 -39h119zM502 98h-129q100 -55 200 -69l-43 39zM434 199h-192l43 -39l43 -33h153zM389 299h-227l24 -39l31 -33h203zM360 397h-245l14 -39l18 -32h234
l-10 28zM346 498h-256l6 -37l10 -37h250l-6 37zM342 596h-254v-72h254v72zM354 696h-250q-8 -25 -8 -39l-6 -34h254zM379 795h-236l-18 -39l-12 -33h245zM420 893h-211l-31 -37l-20 -33h231zM483 993h-168l-82 -71h203l17 28zM506 1022l39 43l37 35q-8 -2 -58 -12t-76 -20
q-27 -9 -90 -46h148zM1083 561q0 254 -77 402q-78 147 -211 147h-35l-39 -8l-47 -21q-78 -53 -130 -197t-52 -321l4 -96l12 -92l22 -99l33 -94q35 -90 89 -130t141 -40q139 0 215 135t75 392v22zM756 1147q348 0 558 -163t210 -447t-232 -445q-174 -119 -483 -119
q-182 0 -309 37t-240 123q-219 172 -219 438t235 441q185 135 480 135z" />
    <glyph glyph-name="p" unicode="p" horiz-adv-x="1562" 
d="M547 90h-238l-18 -29l-23 -22h305zM541 190h-217v-47l-7 -24h226l-2 12v59zM541 291h-215v-72h215v72zM541 389h-215v-72h215v72zM541 489h-215v-73h215v73zM541 588h-215v-72h215v72zM541 688h-215v-74h215v74zM541 786h-215v-71h215v71zM541 885h-215v-70h215v70z
M541 913v62l2 10h-226l5 -35l2 -37h217zM547 1014l8 26l18 25h-305q23 -18 41 -51h238zM1063 500q145 0 237 88h-172q-25 -49 -81 -88h16zM1364 688h-201q-6 -39 -18 -74h180q25 35 39 74zM1169 786v-16l-2 -55h205l4 37l2 34h-209zM1362 885h-201l8 -70h209l-6 35z
M1292 985h-164l17 -35l12 -37h193l-37 54zM1255 1014q-37 25 -88 41l-47 8l-57 2h-16l28 -16l33 -35h147zM905 500q223 0 223 282t-223 283h-57q-109 0 -146 -41q-36 -32 -36 -145v-379h239zM41 1104h969q126 0 217 -14l76 -21l71 -33q98 -54 136 -173q24 -74 3 -154
q-8 -35 -30 -70q-41 -72 -103 -107t-142 -51q-79 -16 -228 -16h-344v-242q0 -61 6 -95t35 -56t49 -27l96 -6h53v-39h-864v39h53l90 4q8 0 31 6l25 19q41 33 41 153v662q0 121 -38 151q-24 18 -55 25l-94 6h-53v39z" />
    <glyph glyph-name="q" unicode="q" horiz-adv-x="1585" 
d="M874 364q-44 0 -92 -47h211l-55 37q-20 10 -64 10zM915 217h152l-23 39l-24 33h-180q35 -23 45 -37zM1262 -78q57 0 108 47l-37 11l-30 14h-209q78 -72 168 -72zM1251 18q-49 33 -84 72h-174l13 -22l-41 -45l-19 -15l62 8l51 19l10 -17h182zM1251 190h-315l43 -73h205
l39 39zM1315 289h-213l-21 -72h191l22 31zM1356 387h-238l-10 -70h221zM1378 487h-254l-2 -71h242zM1378 586h-254v-70h254v70zM1358 686h-242l8 -72h250l-6 35zM1321 786h-217l10 -71h236zM1266 885h-191l23 -72h213zM1171 985h-139l35 -74h178zM1133 1012q-53 37 -82 47
l-43 14q-29 6 -62 19l39 -41l29 -39h119zM502 90h-129q90 -53 202 -72zM436 190h-194l43 -40l45 -33h151zM389 289h-225l22 -37l31 -35h203zM362 387h-245l12 -37l21 -33h231l-10 29zM346 487h-254l6 -34l11 -37h247l-6 37zM344 586h-256v-33l2 -37h254v70zM354 686h-250
l-8 -37l-4 -35h254zM379 786h-236l-18 -38l-12 -33h247zM420 885h-211l-29 -39l-22 -33h231zM485 985h-170l-82 -74h203l17 31zM506 1012l39 43l39 37l-123 -27q-33 -10 -103 -53h148zM924 416q82 0 145 -76q14 100 14 203q0 213 -66 385q-67 172 -223 172t-228 -170
t-72 -378t77 -391q69 -159 228 -159q51 0 88 14t74 58l-29 59l-25 39q-63 100 -135 100q-24 0 -34 -9t-33 -56l-39 18q41 86 108 139q68 52 150 52zM1544 231v-30q0 -150 -73 -239t-201 -89t-232 113q-96 -20 -236 -20t-267 30q-217 47 -356 204q-138 157 -138 355
q0 284 256 461q184 125 461 125q346 0 557 -165t211 -433t-211 -443q43 -31 80 -30q116 0 114 161h35z" />
    <glyph glyph-name="r" unicode="r" horiz-adv-x="1597" 
d="M545 90h-238q-14 -27 -18 -29l-23 -22h307q-18 26 -28 51zM541 190h-219v-47l-7 -24h226v71zM541 291h-217v-72h217v72zM541 389h-217v-72h217v72zM541 489h-217v-73h217v73zM541 588h-217v-72h217v72zM541 688h-217v-74h217v74zM541 786h-217v-71h217v71zM541 885h-217
v-70h217v70zM541 985h-226l4 -35l3 -37h219v72zM541 1014v51h-275q23 -18 41 -51h234zM1237 90h-203l29 -51h203zM1186 190h-205l37 -71h205zM1133 291h-207l41 -72h204zM1081 389h-209l39 -72h207zM1028 489h-209l39 -73h207zM1163 588h-174l-33 -25l-38 -16l-50 -17
l-67 -8l2 -6h211l86 39l30 12zM1204 614q44 36 68 74h-221l-15 -35l-22 -39h190zM1303 786h-232l-4 -34l-8 -37h227l8 30zM1294 885h-231l4 -31l4 -39h234l-2 43zM1233 985h-213l37 -72h225l-20 37zM1200 1014l-31 18l-41 17l-38 10l-43 4l-50 2h-63l35 -25l30 -26h201z
M768 559q258 0 258 253t-272 253h-90v-506h104zM41 1104h909l146 -2q89 0 176 -32q86 -32 129 -99q47 -68 47 -154q0 -242 -297 -293l188 -356q37 -72 84 -100t133 -29v-39h-518l-284 522h-90v-301q0 -61 8 -102q8 -25 33 -47t49 -27l98 -6h8v-39h-819v39h51l90 4q8 0 31 6
l25 19q23 18 31 49q9 31 10 104v662q0 122 -33 147t-58 29l-96 6h-51v39z" />
    <glyph glyph-name="s" unicode="s" horiz-adv-x="1404" 
d="M109 166h135l-31 24l-68 70l-36 47v-141zM109 137v-100l131 100h-131zM1149 944h-82l39 -37l43 -47v84zM1149 973v65l-80 -65h80zM1260 199h-60l2 -29l-6 -41l-20 -51l51 45zM1274 299h-154l33 -25q10 -8 35 -47h80l4 33l2 31v8zM1253 397h-544l82 -12q164 -20 266 -59
h215l-6 36zM1176 498h-922l25 -13q112 -45 241 -61h719l-27 39zM1135 524q-73 42 -195 72h-811l35 -41l41 -31h930zM352 696h-266l10 -41l17 -32h665l-262 41q-115 16 -164 32zM197 795h-115l-4 -35l4 -37h194l-47 29q-16 18 -32 43zM172 879v16h-66l-22 -72h98
q-10 30 -10 56zM176 922l14 49l7 16l22 29q-56 -25 -96 -94h53zM1245 1130v-415h-33q-59 92 -131 168q-106 103 -246 165q-141 62 -281 62t-219 -46t-79 -122t80 -113q45 -23 96 -32l162 -31l280 -43q38 -9 130 -29l135 -41q109 -39 167 -119t58 -192q0 -168 -133 -268
t-365 -101l-73 2l-103 13l-59 16q-86 22 -137 49q-51 28 -164 109l-215 -162h-39v455h39q35 -59 59 -90l80 -86q91 -91 198 -153q197 -114 410 -114q143 0 220 40t77 113t-67 109l-43 19l-50 16l-90 21l-90 18l-315 43q-463 68 -463 369q0 166 146 276t381 111
q235 0 456 -166l197 149h24z" />
    <glyph glyph-name="t" unicode="t" horiz-adv-x="1462" 
d="M578 1014h219v51h-219v-51zM578 913h219v74h-219v-74zM578 815h219v70h-219v-70zM578 715h219v71h-219v-71zM578 614h219v74h-219v-74zM578 516h219v72h-219v-72zM578 416h219v73h-219v-73zM578 317h219v72h-219v-72zM578 219h219v72h-219v-72zM797 190h-219v-43l-7 -28
h228l-2 12v59zM563 90q-14 -27 -18 -29l-23 -22h307l-18 24l-10 27h-238zM78 975v-119l82 119h-82zM78 1065v-64h104l68 64h-172zM1305 975h-109q66 -68 109 -131v131zM1305 1001v64h-220l82 -64h138zM1421 1104v-488h-39q-12 47 -34 85t-32 61q-11 23 -24 39l-47 63
q-81 102 -151 152t-144 49h-28v-844q0 -120 32 -146t58 -30l96 -6h51v-39h-862v39h51l90 4q14 0 33 6l25 19q20 16 32 49q9 61 9 104v844h-27l-47 -2l-45 -14q-36 -15 -90 -63q-124 -110 -189 -234l-28 -56l-33 -80h-37v488h1380z" />
    <glyph glyph-name="u" unicode="u" horiz-adv-x="1622" 
d="M1329 1012h-59l26 -33l15 -37l2 27q0 16 16 43zM1341 1040l25 29h-164l41 -29h98zM307 1020h240q6 27 26 49h-307q27 -20 41 -49zM324 920h217v18l2 41v12h-228l9 -35v-36zM324 821h217v70h-217v-70zM324 721h217v72h-217v-72zM324 621h217v71h-217v-71zM324 522h217v72
h-217v-72zM324 422h217v72h-217v-72zM541 324v71h-217l2 -41l4 -30h211zM352 223h195l-2 33l-2 41h-211l8 -41zM420 125h160l-17 33l-10 39h-188l24 -39zM451 96l53 -37l57 -24l66 -19q23 -6 69 -6l-57 39l-41 47h-147zM1057 1110h524v-41q-231 -23 -231 -297v-309
q0 -119 -14 -182t-62 -131q-120 -179 -510 -179q-190 0 -318 80l-61 49q-9 10 -23 26t-28 42l-23 53q-12 30 -20 60l-8 73l-2 99v434q1 67 -7 99q-15 64 -86 77l-94 6h-53v41h864v-41h-51l-90 -2l-33 -6l-26 -21q-20 -16 -29 -43l-8 -61v-639q0 -121 45 -175
q85 -102 211 -102q88 0 180 46t137 116q35 51 47 116t12 181v293q0 297 -243 297v41z" />
    <glyph glyph-name="v" unicode="v" horiz-adv-x="1677" 
d="M899 94h-108l53 -96zM954 195h-219l41 -72h139zM936 295h-254l39 -74h248l4 6zM883 393h-254l39 -71h254zM827 492h-254l39 -72h254zM774 590h-254l39 -70h254zM719 690h-254l41 -72h254zM666 791h-254l39 -72h254zM612 889h-254l39 -70h254zM571 989h-274l18 -26l27 -45
h254q-25 50 -25 71zM571 1016l9 24q10 20 16 27h-387l33 -18l32 -33h297zM1397 989h-107l31 -63q8 -18 8 -58zM1413 1016l35 51h-231q35 -27 55 -51h141zM1288 872q0 72 -55 134t-143 61h-37v39h583v-39q-67 0 -129 -59l-41 -33l-39 -41l-65 -88l-74 -123l-430 -770h-29
l-528 965q-80 150 -238 149h-22v39h877v-39h-109q-82 0 -82 -66l8 -45l15 -43l299 -546l196 352q43 81 43 153z" />
    <glyph glyph-name="w" unicode="w" horiz-adv-x="2406" 
d="M836 80h-70l37 -72zM879 180h-164l37 -74h96zM903 279h-237l34 -72h193l22 49zM854 377h-240l35 -70h240zM803 477h-240l37 -71h240zM754 575h-242l37 -69h239zM702 676h-241l37 -72h241zM653 776h-241l34 -71h244zM602 874h-242l37 -71h242zM561 975h-256l17 -25l16 -35
l8 -14h244l-15 25zM561 1001q0 23 19 52h-361l39 -29l25 -23h278zM1673 80h-69l36 -72zM1716 180h-164l37 -74h94zM1741 279h-238l35 -72h193l20 49zM1692 377h-240l35 -70h239zM1640 477h-239l37 -71h237zM1591 575h-241l36 -69h240zM1540 676h-242l37 -72h242zM1491 776
h-244l37 -71h244zM1440 874h-242l35 -71h244zM1141 975q19 -22 41 -74h245l-14 25l-14 49h-258zM1399 1001q0 23 18 52h-362l41 -29l24 -23h279zM2025 860q19 40 64 115h-107q23 -37 29 -55l8 -29zM2109 1001l9 15l14 16l16 21h-245l57 -52h149zM1987 847q1 69 -55 133
t-142 73v39h575v-39q-42 0 -71 -9l-25 -10q-16 -8 -37 -22q-93 -56 -166 -185l-53 -102l-354 -776h-29l-426 833l-383 -833h-26l-492 960q-51 87 -92 109q-53 35 -137 35h-33v39h801v-39h-37q-106 0 -107 -52l4 -26l283 -561l193 422q-37 80 -56 104q-16 30 -45 58t-57 36
q-25 12 -88 19v39h745v-39h-35q-58 1 -82 -11t-24 -38t20 -64l265 -526l131 284q35 80 35 149z" />
    <glyph glyph-name="x" unicode="x" horiz-adv-x="1734" 
d="M432 106q0 33 23 72l-109 -72h86zM297 80l-47 -25l-45 -16h250q-16 25 -19 41h-139zM1348 90h-312l-2 -29q-4 -10 -18 -22h397l-29 18zM1260 190h-281l25 -26l26 -45h293l-31 31zM1176 291h-279l59 -72h281zM1094 389h-281l61 -72h279zM1012 489h-281l60 -73h280z
M930 588h-281l60 -72h280zM846 688h-279l60 -74h280zM764 786h-279l58 -71h280zM682 885h-279l58 -70h280zM612 985h-293l50 -59l10 -13h280l-32 41zM606 1014v10q0 23 10 41h-385l62 -51h313zM1300 1001h-69l2 -26l-2 -33l24 23zM1335 1030l47 35h-194q20 -14 31 -35h116z
M1059 1065h-31v39h629v-39l-37 -2q-117 0 -215 -59q-58 -35 -119 -80l-61 -47l-201 -189l397 -485l49 -53q27 -31 64 -54l31 -22l37 -17l38 -10l54 -8v-39h-824v39h37q88 0 88 49q0 27 -37 70l-219 258l-100 -90q-106 -102 -105 -158q1 -57 49 -93t128 -36h39v-39h-709v39
l49 4q88 8 244 101t309 243l68 66l-363 440l-41 47l-59 61q-41 39 -80 54q-45 10 -113 10v39h875v-39h-74q-82 0 -82 -49q0 -31 31 -70l190 -223l95 88q61 55 81 86q21 31 21 71t-39 68t-94 29z" />
    <glyph glyph-name="y" unicode="y" horiz-adv-x="1677" 
d="M283 1014h288l7 26l22 25h-381l33 -23zM354 913h258l-16 21q-15 17 -25 51h-268l12 -14zM424 815h256l-51 70h-254zM496 715h256l-52 71h-256zM565 614h254l-49 74h-256zM635 516h256l-51 72h-254zM924 90h-240l-16 -27l-25 -24h307q-16 22 -26 51zM918 190h-218l-2 -34
l-6 -37h226v71zM918 291h-218v-72h218v72zM918 389h-218v-72h218v72zM915 416v63l-6 10h-256l47 -65v-8h215zM1335 985h-80q14 -41 15 -88l33 47zM1360 1014l55 51h-217l45 -51h117zM1061 1065h-33v39h608v-39q-110 0 -202 -72t-230 -264l-162 -231v-277q0 -69 8 -101
t31 -50l49 -25l99 -6h53v-39h-866v39h53l90 4q8 0 31 6l24 19q23 18 32 49t9 104v195l-374 534q-80 115 -201 115h-39v39h870v-39h-59q-125 0 -125 -64q0 -33 29 -69l272 -383l141 199q61 86 61 160t-45 115q-46 42 -124 42z" />
    <glyph glyph-name="z" unicode="z" horiz-adv-x="1302" 
d="M1133 131v150l-93 -99l-61 -51h154zM1133 33v67h-191l-65 -41l-46 -26h302zM397 84h-268l-39 -51h270zM467 184h-268l-52 -71h271zM539 285h-269l-51 -72h268zM610 383h-268l-53 -72h268zM680 483h-268l-52 -73h271zM752 582h-269l-51 -72h268zM823 682h-268l-53 -74h268
zM893 780h-268l-52 -71h271zM965 879h-269l-51 -70h268zM1034 979h-266l-53 -72h268zM1057 1008l35 51h-267l-39 -51h271zM131 979v-109l35 60l45 49h-80zM131 1059v-51h109l75 51h-184zM1262 1098v-33l-742 -1032h80q186 0 332 114q74 55 139 127l74 84l59 86h33v-450
h-1196v31l737 1034h-121q-229 0 -373 -149q-28 -28 -55 -60l-51 -70l-47 -84l-39 2v400h1170z" />
    <glyph glyph-name="braceleft" unicode="{" horiz-adv-x="614" 
d="M434 -242q-88 20 -119 86h-79q40 -86 198 -86zM211 -8v-51q0 -23 8 -54h84l-8 97v8h-84zM211 143v-108h84v108h-84zM295 295h-84v-109h84v109zM295 336v106h-86l2 -106h84zM131 596q59 -43 74 -111h86q-8 72 -55 111h-105zM418 1483q-145 0 -189 -94h76q21 82 113 94z
M211 1239h84l4 107h-82l-6 -58v-49zM211 1198v-108h84v108h-84zM211 1047v-109h84v109h-84zM295 895h-84v-53l-2 -54h88l-2 56v51zM201 748q-18 -70 -88 -109h110q27 17 34 23q27 25 38 86h-94zM573 1520v-35q-92 0 -142 -47t-50 -166v-428q0 -88 -12 -131q-25 -78 -101 -90
q63 -11 88 -65t25 -165v-405q0 -117 43 -171t149 -55v-34h-174q-141 0 -189 68t-48 245v360q0 91 -26 135t-95 70v33q65 21 93 67t28 136v405q0 154 59 213t168 60h184z" />
    <glyph glyph-name="bar" unicode="|" horiz-adv-x="665" 
d="M147 -37v-94h271v94h-271zM147 90v-92h271v92h-271zM147 219v-92h271v92h-271zM147 1382v-94h271v94h-271zM147 1253v-94h271v94h-271zM147 350v-94h271v94h-271zM147 477v-90h271v90h-271zM147 608v-94h271v94h-271zM147 735v-92h271v92h-271zM147 864v-92h271v92h-271z
M147 995v-94h271v94h-271zM147 1122v-90h271v90h-271zM625 -131v-49h-584v49h51v1513h-51v50h584v-50h-52v-1513h52z" />
    <glyph glyph-name="braceright" unicode="}" horiz-adv-x="614" 
d="M260 -156q-27 -61 -119 -86q156 0 199 86h-80zM281 -16q0 -66 -9 -97h84l9 105h-84v-8zM281 35h84v108h-84v-108zM365 186v109h-84v-109h84zM281 442v-106h84l2 106h-86zM285 485h86q12 66 73 111h-104q-43 -37 -55 -111zM346 1389q-39 94 -188 94q46 -5 72 -25t40 -69
h76zM365 1239q0 70 -7 107h-82l5 -107h84zM281 1090h84v108h-84v-108zM281 938h84v109h-84v-109zM281 895v-107h86l-2 54v53h-84zM303 688q12 -29 51 -49h109q-66 37 -88 109h-90q4 -33 18 -60zM453 842q0 -94 26 -135q25 -45 94 -70v-29q-65 -26 -93 -66t-27 -141v-360
q0 -176 -47 -245t-191 -68h-174v34q104 0 148 52t44 174v405q1 119 13 166t78 64q-66 23 -84 120l-7 101v428q0 113 -47 166q-51 47 -145 47v35h184q109 -1 168 -60t60 -213v-405z" />
    <glyph glyph-name="asciitilde" unicode="~" horiz-adv-x="1708" 
d="M1389 1264q-106 0 -244 59h-168q86 -39 148.5 -60.5t119.5 -21.5l68 2zM885 1452h-178l219 -104h166zM538 1575q-100 0 -133.5 -10.5t-64.5 -40.5l80 -2h54q53 0 171 -45h193q-200 98 -300 98zM1581 1649h86q0 -236 -65 -338q-76 -119 -263 -119q-96 0 -174 15.5
t-170 58.5l-307 143q-156 72 -278 72q-300 0 -299 -240h-70q0 248 83 355.5t251 107.5q230 0 375 -74l299 -147q148 -72 280 -72q252 0 252 238z" />
    <glyph glyph-name="nonbreakingspace" unicode="&#xa0;" horiz-adv-x="81" 
 />
    <glyph glyph-name="exclamdown" unicode="&#xa1;" horiz-adv-x="550" 
d="M256 1343q-57 -6 -78 -20l-22 -18l-27 -37h184q-16 42 -57 75zM326 1188l-4 45h-207l-6 -45l6 -43h207zM127 1110q27 -43 49 -57t80 -21q39 33 57 78h-186zM260 553l-41 80l-53 -129l-8 -21h131zM301 449h-158l-16 -43l-14 -48h217zM340 324h-236l-10 -45l-4 -43h264z
M356 201h-268l2 -45l16 -43h242l8 73v15zM125 78q57 -76 137 -76l37 4q25 35 41 72h-215zM68 1192q0 84 60 145t147 61t147 -60t61 -147q0 -87 -59 -149q-58 -62 -148 -61q-90 0 -149 63q-59 64 -59 148zM278 -39q-106 0 -172 71t-65 183l4 72l12 57l27 96l92 215l27 74
l26 94l19 111h55l6 -60q6 -71 101 -301l55 -135l29 -98l12 -61l4 -62q0 -117 -64 -187q-62 -70 -168 -69z" />
    <glyph glyph-name="cent" unicode="&#xa2;" horiz-adv-x="1347" 
d="M1108 1006l-53 -5q63 -41 106 -118l-8 141zM309 123l60 -37q39 -25 67 -35l33 -8l47 -14q-39 43 -78 94h-129zM190 244l37 -47l41 -39h152q-25 37 -41 86h-189zM127 360q16 -47 43 -84h197l-25 84h-215zM94 479l8 -51l13 -35h221l-8 35l-2 51h-232zM324 512v33l2 53h-236
l-2 -41l2 -45h234zM109 715l-9 -35l-6 -49h234l12 84h-231zM160 834l-23 -43l-16 -43h227l10 47l15 39h-213zM250 950q-45 -45 -70 -84h205l16 39l27 45h-178zM494 1034l63 60q-152 -18 -268 -111h162zM696 -260h-45v231q-264 0 -437 172t-173 418t169 412t441 166v213h45
v-213q97 0 262 -70l56 -25l49 -6q82 0 162 76h30l23 -463l-31 -4l-69 135q-28 59 -101 146q-63 70 -151 114t-174 45q-129 0 -199 -140q-70 -141 -70 -379q-1 -238 63 -394t219 -156t289 96t218 271l35 -16q-72 -176 -228 -287q-71 -54 -174 -84q-104 -29 -209 -29v-229z
" />
    <glyph glyph-name="sterling" unicode="&#xa3;" horiz-adv-x="1781" 
d="M1544 47v80h-215l-96 -53l-45 -27h356zM1544 162v149l-61 -61l-105 -88h166zM1470 899q72 0 113 84h-231q46 -84 118 -84zM1606 1106h-263l-8 -47l4 -41h256l11 72v16zM1464 1231l-39 -25q-36 -21 -65 -65h242l-13 47l-22 43h-103zM1499 1300v-12l-2 -22h43zM659 47v66
h-280q-8 -23 -23 -37l-26 -29h329zM659 147v91h-262l-2 -39l-8 -52h272zM397 362v-90h262v90h-262zM397 485v-88h262v88h-262zM397 610v-90h262v90h-262zM397 733v-88h262v88h-262zM397 858v-90h262v90h-262zM659 893v90h-258l-4 -90h262zM659 1018v88h-235l-12 -45l-9 -43
h256zM508 1231q-39 -39 -68 -90h222l4 45l14 45h-172zM729 1311l49 43l-51 -11l-45 -12q-33 -4 -72 -28l-59 -37h145zM1389 635h-560v-588h86q207 0 363 100q201 129 379 365h47v-512h-1663v47h65q84 0 113 6q17 0 27 4t12 4l31 23q29 23 41 61q10 47 10 131v359h-231v47
h231v186q0 137 10 177l14 56q3 15 15 38l43 67q150 217 670 217q169 0 294 -22q232 -52 313 -187q42 -70 42 -150t-66 -149q-66 -67 -161 -67t-158 58t-64 147q0 117 115 184q51 31 51 52t-16 38q-33 21 -101 33t-104 12l-90 4q-203 0 -270 -96q-47 -66 -48 -266v-332h560
v-47z" />
    <glyph glyph-name="currency" unicode="&#xa4;" horiz-adv-x="1112" 
d="M195 714.5q0 -151.5 104.5 -260t252.5 -108.5t255.5 106.5t107.5 258.5t-105.5 260t-253.5 108t-254.5 -106.5t-106.5 -258zM104 710q0 163 115 302l-178 180l33 33l178 -181q137 119 306 119t300 -119l180 181l33 -33l-180 -180q113 -137 113 -302t-115 -298l182 -185
l-33 -30l-182 184q-127 -119 -296 -119t-302 115l-178 -182l-31 34l176 179q-121 139 -121 302z" />
    <glyph glyph-name="yen" unicode="&#xa5;" horiz-adv-x="2074" 
d="M702 1278q6 20 37 51h-475l33 -22l33 -29h372zM762 1126l-39 60q-16 27 -21 51h-335l75 -111h320zM868 977l-75 106h-320l76 -106h319zM897 936h-317l75 -109h318zM1004 784h-318l78 -110h317zM1135 541h346v86h-367l-319 4l-234 -4v-86h301v-19h273v19zM1135 481h-273
l2 -106h271v106zM1135 244h346v88h-920v-88h303v-21h271v21zM1137 180h-277q-6 -53 -14 -65q-16 -39 -53 -68h383q-39 52 -39 133zM1563 1219q14 -45 14 -99l35 51l37 48h-86zM1686 1260l71 69h-270q37 -31 57 -69h142zM508 215v150h301v147h-301v147h203l-371 527
q-102 143 -252 143h-47v49h1087v-49h-73q-158 0 -158 -78q0 -35 37 -88l340 -477l176 248q78 109 78 201t-58 143t-155 51h-41v49h760v-49q-135 0 -254 -92t-285 -328l-176 -250h276v-147h-303v-147h303v-150h-301q0 -90 47 -129t185 -39h65v-47h-1081v47h65q129 0 181 30
q51 30 51 138h-299z" />
    <glyph glyph-name="section" unicode="&#xa7;" horiz-adv-x="1132" 
d="M846 1251l76 -80v148zM963 651l2 -24l-4 -33l-19 -41q61 41 74 98h-53zM1020 692v31q0 47 -14 76h-363q244 -35 299 -107h78zM227 877q59 -23 140 -41h618q-41 68 -160 108h-696q35 -32 98 -67zM70 1092q0 -61 28 -107h531l-209 33l-105 14q-75 10 -129 60h-116z
M156 1135q-12 25 -13 59l7 45q6 20 32 59q-47 -25 -73 -69l-17 -35l-18 -59h82zM94 129h80l-33 35l-47 57v-92zM94 86v-78l99 78h-99zM182 786q-30 -18 -32 -21t-19 -22l-37 -51h49q6 51 39 94zM1020 207h-107q52 -39 52 -90l-7 -43q-8 -27 -16 -35l25 18q25 25 39 53t14 97
zM328 336q23 -7 102 -21l207 -28q117 -16 184 -39h195q-6 55 -55 108h-703zM172 395h735q-86 51 -227 72l-234 35h-364q20 -60 90 -107zM246 543q-82 33 -101 108h-67l-8 -69l2 -39h174zM211 734q0 -60 55 -89q63 -31 213 -57l283 -45l86 -19q82 32 82 92t-63 95t-208 57
l-251 35l-64 10q-45 6 -59 14q-74 -33 -74 -93zM696 -43q-121 0 -212 31t-214 118l-172 -126h-30v362h30q84 -145 246 -249t350 -103q236 0 236 121q0 55 -59 88t-212 57l-251 37q-367 53 -367 289q0 82 47 152t141 114q-188 74 -188 246q0 137 113 224t303 87t364 -135
l156 119h22v-330h-26q-196 313 -538 311q-97 0 -161 -34t-63 -90q0 -56 55 -93q45 -23 213 -51l223 -37q205 -35 281 -88q109 -74 109 -213q0 -189 -187 -260q185 -69 187 -254q0 -133 -106 -213t-290 -80z" />
    <glyph glyph-name="dieresis" unicode="&#xa8;" horiz-adv-x="872" 
d="M551 1427q18 -92 113 -104q41 39 53 104h-166zM719 1460q0 70 -55 111q-47 -6 -74 -29.5t-39 -81.5h168zM90 1427q16 -88 111 -104q41 39 53 104h-164zM256 1460q0 36 -7 56t-48 55q-47 -6 -74 -29.5t-39 -81.5h168zM667.5 1282q-69.5 0 -116.5 47t-47 118t47 119t115 48
t116.5 -49t48.5 -119t-47 -117t-116.5 -47zM204.5 1282q-69.5 0 -116.5 47t-47 118t47 119t116.5 48t117 -48t47.5 -119t-47.5 -118t-117 -47z" />
    <glyph glyph-name="copyright" unicode="&#xa9;" horiz-adv-x="1294" 
d="M41 614q0 252 177 432t430 179q253 0 429 -177q176 -178 176 -440t-176 -434t-431 -172t-430 180t-175 432zM102 616q0 -226 160 -389q160 -164 383 -164t385 156t162 387t-160 394q-160 164 -382 164t-386 -160q-162 -162 -162 -388zM872 827l35 -47l-4 47h-31zM903 844
v22q-25 -12 -59 -12l12 -10h47zM449 342l47 -27l51 -16l-37 43h-61zM379 397l45 -43h76l-23 43h-98zM338 451l29 -39h102l-14 39h-117zM313 506l17 -37h121l-11 37h-127zM301 563l8 -41h129l-4 41h-133zM299 618v-38h135l-2 14l2 24h-135zM307 674l-6 -39h135l4 39h-133z
M326 729l-15 -39h131l11 39h-127zM358 788l-26 -43h127l14 43h-115zM412 844l-21 -19l-20 -22h110l25 41h-94zM567 907q-43 0 -67 -10l-37 -23l-29 -16h84zM674 903q-74 0 -113 -81t-39 -212t37 -225q37 -88 124 -88t162 54t124 153l16 -10l-22 -48l-33 -45l-37 -43l-35 -24
q-90 -66 -230 -66t-247 98t-107 237q0 141 98 235t259 94q76 0 111 -18l60 -30q70 -37 140 31h16l13 -260l-15 -2l-41 76l-20 33l-37 49q-68 92 -184 92z" />
    <glyph glyph-name="ordfeminine" unicode="&#xaa;" horiz-adv-x="976" 
d="M432 1339h49l-24 45zM399 1284h113l-23 41h-67zM385 1260l18 -31h140l-23 39h-131zM434 1171h139l-20 41h-141zM463 1118h143l-24 37h-140zM496 1061h141l-23 41h-141zM526 1006h142l-23 38h-141zM555 948h143l-22 43h-141zM569 928l11 -33h151l-22 39h-144zM561 848h195
l-17 31h-161q-1 -15 -17 -31zM197 895v14l2 25l-33 -39h31zM111 848h104l-14 31h-49zM373 1237l-117 -215h236zM244 960q0 -60 57 -98q16 -8 76 -14v-21h-336v21q87 0 180 162l254 454h23l288 -518q29 -51 58 -75t80 -23h12v-21h-485v21h47q25 0 42 12t17 33l-12 31l-39 75
h-256q-6 -11 -6 -39z" />
    <glyph glyph-name="guillemotleft" unicode="&#xab;" horiz-adv-x="843" 
d="M358 276l-317 308l317 307h78l-309 -307l309 -308h-78zM725 276l-317 308l317 307h78l-309 -307l309 -308h-78z" />
    <glyph glyph-name="logicalnot" unicode="&#xac;" horiz-adv-x="1144" 
d="M844 428v-178h137v178h-137zM74 582h770v-117h137v199h-907v-82zM981 700v60h-907v-60h907zM41 553v242h1063v-578h-295v336h-768z" />
    <glyph glyph-name="registered" unicode="&#xae;" horiz-adv-x="1294" 
d="M379 356l-23 -28h172l-14 28h-135zM510 414h-123l-2 -41h127l-2 8v33zM389 467v-39h121v39h-121zM389 524v-41h121v41h-121zM389 580v-39h121v39h-121zM389 635v-39h121v39h-121zM389 690v-39h121v39h-121zM389 745v-38h121v38h-121zM389 805v-43h121v43h-121zM510 819
v41h-125l2 -41h123zM510 905h-154q12 -8 23 -31h131v31zM788 356l17 -28h115l-17 28h-115zM758 414l22 -41h115l-23 41h-114zM727 467l23 -39h114l-20 39h-117zM698 524l21 -41h117l-21 41h-117zM668 580l22 -39h117l-23 39h-116zM764 635l-45 -25q-31 -10 -62 -10l119 -4
l86 39h-98zM799 690l-23 -39h109l37 39h-123zM809 745l-6 -38h127l10 38h-131zM805 805l4 -43h131l-6 43h-129zM780 860l21 -41h127q-8 18 -27 41h-121zM864 887l-47 14l-84 4q27 -16 35 -31h115zM639 621q145 0 145 141q0 74 -42 109t-111 34h-51v-284h59zM1022 766
q0 -133 -168 -164l107 -203q37 -72 122 -71v-21h-292l-160 293h-51v-170q0 -59 24 -88l29 -10l53 -4l4 -21h-461v21h29l53 2q26 9 39 27q13 19 15 73v373q0 61 -19 84q-23 18 -88 18h-29v23h594l51 -2l21 -6l31 -15q96 -37 96 -139zM41 614q0 252 177 432t430 179
q253 0 429 -177q176 -178 176 -440t-176 -434t-431 -172t-430 180t-175 432zM102 616q0 -226 160 -389q160 -164 383 -164t385 156t162 387t-160 394q-160 164 -382 164t-386 -160q-162 -162 -162 -388z" />
    <glyph glyph-name="macron" unicode="&#xaf;" 
d="M74 1350h714v88h-714v-88zM788 1483v49h-714v-49h714zM944 1563v-242h-903v242h903z" />
    <glyph glyph-name="degree" unicode="&#xb0;" horiz-adv-x="618" 
d="M306 915q90 -1 158 65t68 154t-65.5 157t-158.5 69t-157.5 -64t-64.5 -158t66 -158q64 -64 154 -65zM41 1138q0 108 79 185q78 78 188 78t190 -78t80 -186.5t-78 -185.5t-190.5 -77t-190.5 78t-78 186z" />
    <glyph glyph-name="plusminus" unicode="&#xb1;" 
d="M377 344h153v105h-153v-105zM377 494h153v114h-153v-114zM530 1194h-153v-68h153v68zM530 1083h-153v-114h153v114zM788 858h-258v66h-153v-66h-303v-47h714v47zM74 766v-88h303v-27h153v27h258v88h-714zM342 1225h279v-334h323v-244l-323 -2v-334h-279v336h-301v244h301
v334zM74 47h714v88h-714v-88zM788 180v49h-714v-49h714zM944 262v-244h-903v244h903z" />
    <glyph glyph-name="twosuperior" unicode="&#xb2;" horiz-adv-x="700" 
d="M166 1243q-20 0 -41 -14h68l-13 14h-14zM209 1171q0 23 -8 41h-92l-17 -41h117zM92 1155q0 -18 21 -39h84q8 14 12 39h-117zM176 1092l8 10h-49zM354 1040l-35 -20l33 8l35 6l29 6h-62zM406 1096l-33 -39h84l35 18l26 21h-112zM424 1151l-10 -39h118l23 39h-131z
M430 1208l-4 -41h135l8 41h-139zM428 1266l2 -41h141l-6 41h-137zM416 1321l10 -41h133q-6 20 -24 41h-119zM516 1335q-56 45 -149 45q29 -20 43 -45h106zM582 788v31h-510l-9 -31h519zM582 834v40h-482l-22 -40h504zM582 928h-428l-41 -37h469v37zM559 950q37 0 59 13
q18 16 19 57v14h22v-266h-618l2 43q0 10 17 43t49 64l57 45q6 6 31 18t53 27l86 45l31 26q39 41 39 152q0 147 -119 147q-89 0 -149 -45t-60 -110v-21q33 63 102 64q41 0 72 -25q27 -27 27 -69t-29 -71q-29 -30 -80 -30t-86 39t-35 87t19 85q55 121 280 121q141 0 225 -50
t84 -129q0 -123 -132 -173q-42 -16 -111 -33l-99 -21q-37 -6 -61 -18l-25 -8l-32 -21h362z" />
    <glyph glyph-name="threesuperior" unicode="&#xb3;" horiz-adv-x="731" 
d="M459 809l-25 -33q64 6 117 41l-88 2zM475 874l-8 -40h100l25 40h-117zM479 930l-2 -39h119l8 39h-125zM477 985l2 -39h125l-8 39h-119zM463 1040l12 -39h115q-10 27 -27 39h-100zM434 1085l4 -6l19 -22h86q-48 28 -109 28zM434 1110q70 0 111 41h-86q-2 -12 -25 -41z
M467 1208l-4 -41h96l19 41h-111zM467 1266v-41h115l2 18l-2 23h-115zM461 1321l6 -41h111l-19 41h-98zM506 1362l-33 10l-39 2l23 -39h88q-25 21 -39 27zM128 1006q-36 0 -58 -43h110q-16 43 -52 43zM184 946h-121l-2 -18v-21h121l2 25v14zM150 852q18 16 28 39h-112
q6 -16 24 -39h60zM133 815l6 23h-35zM134 1171q28 0 46 37h-98q24 -37 52 -37zM76 1266l-4 -19l4 -22h108l2 20l-2 21h-108zM180 1280q-12 24 -22 29q-25 0 -31 26q-33 -12 -49 -55h102zM690 936q0 -84 -95 -137t-237 -53t-230 46q-87 48 -87 132q0 42 31 74q30 32 72 32
t75 -29q29 -33 29 -73t-18 -66q-18 -24 -38 -26q-22 -2 -28 -13l4 -8l16 -14q48 -33 130 -33t110 33t29 128q-1 95 -19 126t-69 30l-33 -2l-60 -6q-29 0 -28 25q0 18 39 18h10l41 -6l31 -2q23 -2 41 8q16 4 28 31l6 39l2 65q0 76 -22 100q-23 24 -118 23t-142 -32l-4 -7
l6 -4h8q33 0 57 -24q23 -29 23 -68t-27 -65t-71 -27q-44 0 -71 26q-28 26 -28 70q0 74 75 115t204 41q336 0 336 -166q0 -80 -76 -119l-74 -22q172 -31 172 -160z" />
    <glyph glyph-name="acute" unicode="&#xb4;" horiz-adv-x="526" 
d="M121 1419l184 166h-153zM485 1634l-409 -372h-35l68 372h376z" />
    <glyph glyph-name="mu" unicode="&#xb5;" horiz-adv-x="1710" 
d="M1270 1118q85 -49 114 -133q0 76 58 133h-172zM334 -446q-12 -49 -53 -84h323l-24 36q-6 12 -7 48h-239zM578 1077l26 41h-323q45 -33 57 -96h233q1 39 7 55zM571 864v115h-229v-115h229zM571 705v114h-229v-114h229zM571 659h-229v-112h229v112zM571 389v115h-229v-115
h229zM571 344h-229v-115h229v115zM571 70v114h-229v-114h229zM571 27h-229v-113h229v113zM571 -246v115h-229v-115h229zM571 -291h-229l-2 -110h231v110zM702 -338q0 -113 27 -145q41 -47 168 -47h55v-41h-911v41h55q119 0 159 34t40 158v1266q0 118 -31 154t-166 36h-55v43
h913v-43h-55q-111 0 -143 -16q-53 -35 -53 -174v-656q0 -141 96 -209q72 -51 175 -51t194 44t141 126l24 47l25 68q14 43 14 133v375q0 313 -258 313v43h553v-43q-242 -20 -242 -313v-774q0 -41 50 -41v-33h-160v33q20 0 37 10q18 6 20 31v168q-118 -242 -557 -242l-115 6
v-301z" />
    <glyph glyph-name="paragraph" unicode="&#xb6;" horiz-adv-x="946" 
d="M395 1325q-57 0 -118.5 -25.5t-98.5 -68.5h217v94zM395 788h-221q96 -100 221 -100v100zM395 825v95h-293l15 -48l28 -47h250zM395 956v107h-299l-4 -57l4 -50h299zM395 1100v94h-248l-24 -45l-19 -49h291zM459 639h-33q-172 0 -278.5 100.5t-106.5 266.5q0 73 32 148
t85 126q111 98 315 98h432v-43h-98v-1550h-47v1550h-252v-1550h-49v854z" />
    <glyph glyph-name="periodcentered" unicode="&#xb7;" horiz-adv-x="1734" 
d="M1018 1825h-135l-68 -123h135zM797 1667l-64 -117h135l64 117h-135zM696 1501l-229 373h55l174 -279l156 279h328l-205 -373h-279zM125 197h168l-39 30l-45 43l-39 43l-45 58v-174zM125 162v-127l164 127h-164zM1425 1167h-102l49 -47l53 -57v104zM1425 1204v82l-100 -82
h100zM1489 238l2 -37l-6 -49l-27 -66q43 33 58 51q16 18 26 49l21 52h-74zM1581 362h-192l41 -30q14 -10 45 -60h98l6 41l2 41v8zM874 485l103 -14q203 -28 334 -74h268q-4 39 -8 45l-17 43h-680zM305 610l33 -14q66 -25 153 -47t127 -27l21 -2h899l-35 49l-45 41h-1153z
M1407 645q-93 53 -244 88h-1013l45 -51l49 -37h1163zM96 858l13 -49l20 -39h832l-326 47q-131 18 -207 41h-332zM90 983l-4 -43l4 -47h244l-58 35q-18 16 -43 55h-143zM203 1087v19h-80l-12 -33l-17 -55h123q-14 54 -14 69zM227 1202l9 21l26 37q-45 -26 -65 -46t-56 -73h68
zM1546 883h-43q-78 123 -164 209q-129 128 -307 206t-350 78t-272 -58t-100 -152t98 -140q71 -31 120 -41l203 -39l350 -55q73 -11 133 -27t103 -27t96 -32q135 -45 208 -147t73 -242q0 -211 -163 -336t-460 -125l-92 4l-127 14l-74 21q-118 32 -165 57q-46 23 -103 65
t-90 62l-19 12l-268 -200h-49v569h49q43 -74 74 -115l100 -106q99 -103 266 -201q231 -133 494 -133q178 0 274 49q97 49 97 145t-84 134l-54 24l-63 21l-225 47l-394 55q-578 80 -577 459q0 207 182 346t476 139t571 -209l243 189h33v-520z" />
    <glyph glyph-name="cedilla" unicode="&#xb8;" horiz-adv-x="409" 
d="M197 -408q0 20 -37 31q-119 27 -119 129q0 59 45 105q47 39 116.5 39t118 -50t48.5 -130t-66.5 -142.5t-236.5 -85.5v41q131 18 131 63zM180 -156q-35 0 -65 -24q-27 -27 -27 -64l182 -4q-12 92 -90 92zM96 -283q13 -35 69 -52t79 -58q31 53 30 110h-178z" />
    <glyph glyph-name="onesuperior" unicode="&#xb9;" horiz-adv-x="571" 
d="M346 766q-9 9 -16 33h-135q-10 -20 -23 -33h174zM328 813v41h-123l-4 -41h127zM205 907v-39h123v39h-123zM205 963v-39h123v39h-123zM205 1020v-41h123v41h-123zM205 1075v-39h123v39h-123zM205 1130v-38h123v38h-123zM205 1188v-41h123v41h-123zM328 1204v41h-131l6 -41
h125zM328 1260v40h-68l-90 -26l16 -14h142zM328 1317v16l-33 -16h33zM397 870q0 -63 21 -82q18 -23 84 -22h28v-21h-485v21h31q59 0 74 14q30 17 30 90v322q0 43 -12 59q-16 16 -59 17h-68v20h27l73 2q12 0 67 18q115 36 167 93h22v-531z" />
    <glyph glyph-name="ordmasculine" unicode="&#xba;" horiz-adv-x="915" 
d="M549 809q59 6 115 49h-72q-12 -24 -43 -49zM621 913l-19 -41h80l39 41h-100zM637 967l-10 -39h106l25 39h-121zM647 1024l-6 -39h125l14 39h-133zM651 1079l-2 -39h135l7 39h-140zM651 1135v-39h142v39h-142zM647 1192l2 -41h142l-9 41h-135zM637 1247l8 -39h133l-16 39
h-125zM623 1305l10 -41h121l-25 41h-106zM596 1360l20 -41h101l-41 41h-80zM610 1403l-59 18l37 -47h67zM227 858l52 -20q12 -4 30 -12t31 -9l-39 41h-74zM154 913l49 -41h86l-27 41h-108zM111 967l28 -39h115l-18 39h-125zM82 1024l18 -39h131l-10 39h-139zM70 1079l8 -39
h139l-4 39h-143zM68 1135v-39h143v39h-143zM76 1192l-6 -41h141l6 41h-141zM221 1208q0 14 10 39h-133l-18 -39h141zM135 1305l-29 -41h130l18 41h-119zM195 1360l-45 -41h114l27 41h-96zM346 1421q-53 -6 -70 -14l-57 -33h84zM465 1425q-47 0 -68 -16q-45 -31 -71 -111
q-31 -80 -31 -186t37 -205q37 -98 121 -98t129 77t45 220v10q0 141 -43 225t-119 84zM41 1126q0 148 133 244q109 78 286 78t296 -94q118 -94 118 -252t-129 -248q-92 -66 -279 -67q-186 -1 -306 95t-119 244z" />
    <glyph glyph-name="guillemotright" unicode="&#xbb;" horiz-adv-x="843" 
d="M485 891l318 -307l-318 -308h-77l309 308l-309 307h77zM119 891l317 -307l-317 -308h-78l309 308l-309 307h78z" />
    <glyph glyph-name="onequarter" unicode="&#xbc;" horiz-adv-x="1316" 
d="M870 1505h-131l-63 -116h129zM657 1356l-61 -109h131l59 109h-129zM561 1200l-219 352h53l166 -262l150 262h313l-197 -352h-266zM1149 135v154l-84 -86l-74 -68h158zM1149 37v72h-195l-112 -72h307zM129 92l-37 -55h273l36 55h-272zM203 190l-51 -71h270l51 71h-270z
M272 291l-51 -74h273l51 74h-273zM346 391l-53 -74h272l53 74h-272zM416 492l-51 -74h272l51 74h-272zM489 588l-51 -70h271l51 70h-271zM561 688l-53 -72h272l51 72h-270zM635 788l-53 -71h272l51 71h-270zM705 887l-54 -70h273l53 70h-272zM776 987l-51 -72h270l54 72
h-273zM1106 1065h-270l-39 -51h272zM131 987v-108l35 57l47 51h-82zM131 1065v-51h113l32 26l43 25h-188zM608 37q184 0 336 117l70 59l71 72q49 49 74 82l62 86h30v-453h-1210v31l747 1034h-122q-193 0 -316 -92q-61 -47 -117 -113l-55 -72l-47 -83h-37v401h1182v-33
l-748 -1036h80z" />
    <glyph glyph-name="onehalf" unicode="&#xbd;" horiz-adv-x="782" 
d="M418 1294h37l104 176h-110zM573 1497l74 125l-160 66l-32 -191h118zM467 1753l274 -98l-225 -385h-131zM70 1294h39l104 176h-113zM227 1497l74 125l-162 66l-33 -191h121zM123 1753l270 -98l-225 -385h-127z" />
    <glyph glyph-name="threequarters" unicode="&#xbe;" horiz-adv-x="1239" 
d="M852 51q-8 -20 -23 -31h172q-12 12 -14 31h-135zM983 68v38h-121l-6 -38h127zM862 164v-43h121v43h-121zM862 217v-39h121v39h-121zM862 272v-39h121v39h-121zM862 330v-41h121v41h-121zM862 385v-39h121v39h-121zM862 440v-39h121v39h-121zM862 457h121v43h-86l-35 -33
v-10zM983 512v61l-70 -61h70zM838 193v253l-287 -253h287zM1198 154h-143v-29q0 -63 22 -86l29 -12l53 -7h39v-20h-496v20h31l53 3q12 0 32 16q19 16 20 86v29h-324v39l524 456h17v-456h143v-39zM197 14h-47l909 1370h49zM346 766q-9 9 -16 33h-135q-10 -20 -23 -33h174z
M328 813v41h-123l-4 -41h127zM205 907v-39h123v39h-123zM205 963v-39h123v39h-123zM205 1020v-41h123v41h-123zM205 1075v-39h123v39h-123zM205 1130v-38h123v38h-123zM205 1188v-41h123v41h-123zM328 1204v41h-131l6 -41h125zM328 1260v40h-68l-90 -26l16 -14h142z
M328 1317v16l-33 -16h33zM397 870q0 -63 21 -82q18 -23 84 -22h28v-21h-485v21h31q59 0 74 14q30 17 30 90v322q0 43 -12 59q-16 16 -59 17h-68v20h27l73 2q15 0 70 18q111 35 164 93h22v-531z" />
    <glyph glyph-name="questiondown" unicode="&#xbf;" horiz-adv-x="1091" 
d="M870 487l-24 27q-47 0 -80 -16q-20 -6 -47 -49h178q-13 24 -27 38zM915 360l-6 54h-204l-7 -45l4 -43h211zM715 291q18 -39 45 -60q12 -6 82 -22l41 39q6 6 22 43h-190zM649 1278q-20 49 -51 76q-53 -6 -75 -18t-52 -58h178zM668 1192l-6 51h-205l-6 -45l4 -45h211z
M467 1118q27 -72 131 -86q41 33 59 86h-190zM260 82l-24 37l-29 88h-72q25 -39 52 -68q28 -28 73 -57zM88 332l10 -47l19 -45h80l-4 59l2 33h-107zM84 365h117q16 47 59 90h-170l-4 -27l-2 -37v-26zM492 528v52h-349l-24 -43l-21 -50h209q14 5 40 17t42 16l88 8h15zM492 768
q-100 0 -191 -53q-39 -25 -127 -103h318v156zM406 1196q0 84 60 145t147 61t147 -60t61 -147q0 -87 -59 -148q-58 -61 -148 -61t-149 62q-59 64 -59 148zM635 436h-60q-109 0 -172 -51t-63 -146t79 -164t201 -69q188 0 281 114q31 36 31 58t-17 23l-43 -15l-32 -10h-25
q-74 0 -118 51t-44 132q-1 81 53 135t136 55q82 0 145 -70t64 -160q0 -152 -132 -256t-347 -104t-373 122q-158 121 -158 317t182 323q78 57 155 70q77 14 122 20l35 6l34 8q18 12 19 52v26h47v-467z" />
    <glyph glyph-name="Agrave" unicode="&#xc0;" horiz-adv-x="2070" 
d="M793 1788l184 -166l-29 166h-155zM1112 1464h-35l-409 373h376zM909 1141h111l-55 98zM838 1018h249l-49 88h-149zM807 961l39 -68h311l-49 90h-291zM913 770h314l-49 88h-314zM981 645h315l-51 88h-313zM1051 520h315l-51 90h-314zM1118 397h316l-50 88h-315zM1186 272
h317l-49 90h-317zM1206 238q26 -56 33 -91h334l-49 91h-318zM1198 47h430l-37 68h-356q-6 -37 -37 -68zM387 178l6 60l-51 -68l-20 -23h67zM236 72l-41 -25h233l-31 68h-110zM780 911l-260 -481h522zM492 288q0 -54 38 -120t99 -92l43 -19q23 -8 55 -8l59 -2v-47h-745v47
q115 0 206 87t193 269l568 1014h49l641 -1153q44 -86 74 -117q30 -32 51 -49q59 -51 178 -51h29v-47h-1078v47h105q55 0 93 26q38 25 38 61t-25 83l-90 166h-567q-14 -41 -14 -95z" />
    <glyph glyph-name="Aacute" unicode="&#xc1;" horiz-adv-x="2070" 
d="M1036 1620l185 166h-154zM1401 1835l-410 -373h-35l68 373h377zM909 1141h111l-55 98zM838 1018h249l-49 88h-149zM807 961l39 -68h311l-49 90h-291zM913 770h314l-49 88h-314zM981 645h315l-51 88h-313zM1051 520h315l-51 90h-314zM1118 397h316l-50 88h-315zM1186 272
h317l-49 90h-317zM1206 238q26 -56 33 -91h334l-49 91h-318zM1198 47h430l-37 68h-356q-6 -37 -37 -68zM387 178l6 60l-51 -68l-20 -23h67zM236 72l-41 -25h233l-31 68h-110zM780 911l-260 -481h522zM492 288q0 -54 38 -120t99 -92l43 -19q23 -8 55 -8l59 -2v-47h-745v47
q115 0 206 87t193 269l568 1014h49l641 -1153q44 -86 74 -117q30 -32 51 -49q59 -51 178 -51h29v-47h-1078v47h105q55 0 93 26q38 25 38 61t-25 83l-90 166h-567q-14 -41 -14 -95z" />
    <glyph glyph-name="Acircumflex" unicode="&#xc2;" horiz-adv-x="2070" 
d="M1020 1636l67 -123h136l-68 123h-135zM1073 1788h-135l63 -117h136zM1384 1464h-327l-156 277l-174 -277h-55l229 373h279zM909 1141h111l-55 98zM838 1018h249l-49 88h-149zM807 961l39 -68h311l-49 90h-291zM913 770h314l-49 88h-314zM981 645h315l-51 88h-313z
M1051 520h315l-51 90h-314zM1118 397h316l-50 88h-315zM1186 272h317l-49 90h-317zM1206 238q26 -56 33 -91h334l-49 91h-318zM1198 47h430l-37 68h-356q-6 -37 -37 -68zM387 178l6 60l-51 -68l-20 -23h67zM236 72l-41 -25h233l-31 68h-110zM780 911l-260 -481h522zM492 288
q0 -54 38 -120t99 -92l43 -19q23 -8 55 -8l59 -2v-47h-745v47q115 0 206 87t193 269l568 1014h49l641 -1153q44 -86 74 -117q30 -32 51 -49q59 -51 178 -51h29v-47h-1078v47h105q55 0 93 26q38 25 38 61t-25 83l-90 166h-567q-14 -41 -14 -95z" />
    <glyph glyph-name="Atilde" unicode="&#xc3;" horiz-adv-x="2070" 
d="M1020 1622l113 -61q72 -37 174 -37l51 4l47 20l-23 -2q-33 0 -92 17l-59 18q-25 12 -40 19t-36 22h-135zM1096 1655q-137 80 -258 82l-60 -6l-65 -27h18l33 2q94 0 194 -51h138zM1305 1477q-121 0 -248 69l-146 82q-74 33 -146 33q-73 0 -113 -28t-99 -130l-35 23
q86 156 169 226t189 69q106 0 244 -75q140 -74 202 -98t103 -24q96 0 166 137l19 35l39 -16q-131 -303 -344 -303zM909 1141h111l-55 98zM838 1018h249l-49 88h-149zM807 961l39 -68h311l-49 90h-291zM913 770h314l-49 88h-314zM981 645h315l-51 88h-313zM1051 520h315
l-51 90h-314zM1118 397h316l-50 88h-315zM1186 272h317l-49 90h-317zM1206 238q26 -56 33 -91h334l-49 91h-318zM1198 47h430l-37 68h-356q-6 -37 -37 -68zM387 178l6 60l-51 -68l-20 -23h67zM236 72l-41 -25h233l-31 68h-110zM780 911l-260 -481h522zM492 288
q0 -54 38 -120t99 -92l43 -19q23 -8 55 -8l59 -2v-47h-745v47q115 0 206 87t193 269l568 1014h49l641 -1153q44 -86 74 -117q30 -32 51 -49q59 -51 178 -51h29v-47h-1078v47h105q55 0 93 26q38 25 38 61t-25 83l-90 166h-567q-14 -41 -14 -95z" />
    <glyph glyph-name="Adieresis" unicode="&#xc4;" horiz-adv-x="2070" 
d="M1143 1610q18 -92 112 -105q41 39 54 105h-166zM1255 1753q-47 -6 -73 -30t-39 -81h168q-1 70 -56 111zM682 1610q16 -88 111 -105q41 39 53 105h-164zM848 1642q0 36 -7 56t-48 55q-47 -6 -74 -30t-39 -81h168zM1259 1794q69 0 117 -47t47 -118q0 -71 -45 -118
q-44 -47 -116 -47t-107 36q-59 61 -59 130q0 70 47 117t116 47zM797 1794q71 0 117 -47t46 -118t-45 -118t-117 -47t-106 36q-59 61 -59 130q0 70 47 117t117 47zM909 1141h111l-55 98zM838 1018h249l-49 88h-149zM807 961l39 -68h311l-49 90h-291zM913 770h314l-49 88h-314
zM981 645h315l-51 88h-313zM1051 520h315l-51 90h-314zM1118 397h316l-50 88h-315zM1186 272h317l-49 90h-317zM1206 238q26 -56 33 -91h334l-49 91h-318zM1198 47h430l-37 68h-356q-6 -37 -37 -68zM387 178l6 60l-51 -68l-20 -23h67zM236 72l-41 -25h233l-31 68h-110z
M780 911l-260 -481h522zM492 288q0 -54 38 -120t99 -92l43 -19q23 -8 55 -8l59 -2v-47h-745v47q115 0 206 87t193 269l568 1014h49l641 -1153q44 -86 74 -117q30 -32 51 -49q59 -51 178 -51h29v-47h-1078v47h105q55 0 93 26q38 25 38 61t-25 83l-90 166h-567
q-14 -41 -14 -95z" />
    <glyph glyph-name="Aring" unicode="&#xc5;" horiz-adv-x="2070" 
d="M897 1674q0 -56 41 -97t97 -41t95 39q40 39 40 99t-37 99t-95 39t-99 -40q-42 -42 -42 -98zM1231 1672q0 -86 -56 -141q-57 -56 -139 -56t-141 55t-59 138t57 143q57 61 140 61t141 -57t57 -143zM909 1141h111l-55 98zM838 1018h249l-49 88h-149zM807 961l39 -68h311
l-49 90h-291zM913 770h314l-49 88h-314zM981 645h315l-51 88h-313zM1051 520h315l-51 90h-314zM1118 397h316l-50 88h-315zM1186 272h317l-49 90h-317zM1206 238q26 -56 33 -91h334l-49 91h-318zM1198 47h430l-37 68h-356q-6 -37 -37 -68zM387 178l6 60l-51 -68l-20 -23h67z
M236 72l-41 -25h233l-31 68h-110zM780 911l-260 -481h522zM492 288q0 -54 38 -120t99 -92l43 -19q23 -8 55 -8l59 -2v-47h-745v47q115 0 206 87t193 269l568 1014h49l641 -1153q44 -86 74 -117q30 -32 51 -49q59 -51 178 -51h29v-47h-1078v47h105q55 0 93 26q38 25 38 61
t-25 83l-90 166h-567q-14 -41 -14 -95z" />
    <glyph glyph-name="AE" unicode="&#xc6;" horiz-adv-x="2766" 
d="M1630 47v66h-299l-22 -37l-29 -29h350zM1350 238v-60l-9 -31h289v91h-280zM1352 362v-90h278v90h-278zM1352 485v-88h278v88h-278zM1352 610v-90h278v90h-278zM1352 733v-88h278v88h-278zM1352 858v-90h278v90h-278zM1352 983v-90h278v90h-278zM1352 1106v-88h278v88
h-278zM1630 1141v92h-289l7 -47l2 -45h280zM1630 1329h-350q31 -25 51 -63h299v63zM2152 739v105l-38 -39l-41 -33l-56 -33h135zM2152 707h-145l66 -39q41 -25 79 -68v107zM2583 162v166l-68 -72l-115 -94h183zM2583 47v80h-230l-55 -37l-92 -43h377zM2564 1217h-162l56 -48
l106 -110v158zM2564 1329h-326l62 -35l57 -43h207v78zM385 133v29l6 76l-100 -105h94zM180 47h226l-17 51h-137zM1303 1102q0 127 -29 172l-692 -828h721v656zM500 244q0 -197 235 -197h56v-47h-750v47q37 0 57 7t56 32l59 43l66 59q143 143 309 340l649 777q-49 25 -168 24
h-65v49h1703v-501h-45q-148 200 -319 331q-80 66 -155 94t-189 27h-213v-581h53q119 0 208 57t167 184h51v-532h-51l-31 47l-33 43l-36 37q-18 18 -78 59q-92 55 -197 55h-53v-651h223l41 8q109 20 167 45t157 99q178 135 307 305l45 2v-506h-1722v47h65q84 0 121 6
q78 13 102 92q10 47 11 131v121h-756q-47 -85 -47 -153z" />
    <glyph glyph-name="Ccedilla" unicode="&#xc7;" horiz-adv-x="1662" 
d="M844 -408q0 20 -37 31q-119 25 -119 129q0 64 46 104t117 40t118 -48t47 -130q0 -80 -68 -145t-235 -83v39q131 18 131 63zM827 -156q-35 0 -65 -24q-27 -27 -27 -64l183 -4q-13 92 -91 92zM922 -285h-179q14 -32 100 -60q28 -9 48 -48q31 49 31 108zM1368 1196l78 -106
l-6 106h-72zM1436 1282q-20 -9 -58 -22l-73 -5l28 -24h105zM426 115q98 -61 219 -90l-47 47l-33 43h-139zM272 238l47 -48l56 -43h166l-25 41l-27 50h-217zM182 362l33 -55l29 -35h231l-35 90h-258zM127 485l16 -45l21 -43h266l-20 88h-283zM100 610l9 -59l8 -31h286l-8 90
h-295zM96 733l-2 -41l2 -47h299l-2 29l2 59h-299zM113 858l-15 -88h299l13 88h-297zM154 983l-17 -43l-14 -47h293l20 90h-282zM225 1106l-55 -88h279l14 45l20 43h-258zM346 1231l-51 -45l-41 -45h246l55 90h-209zM633 1317l59 55l-80 -10l-43 -12l-63 -25l-111 -59h189z
M928 1362q-158 0 -249 -180t-90 -478t80 -493t275 -195t365 123q169 119 274 336l39 -20q-27 -63 -53 -103l-74 -102q-64 -88 -158 -154q-197 -141 -477 -141q-348 0 -584 211t-236 529q0 317 222 523q221 206 569 205q91 0 171 -21t186 -69l74 -33l59 -8q106 0 203 97h37
l26 -574l-33 -8q-63 128 -104 200t-114 156t-189 144q-117 55 -219 55z" />
    <glyph glyph-name="Egrave" unicode="&#xc8;" horiz-adv-x="1802" 
d="M662 1788l184 -166l-29 166h-155zM981 1464h-35l-409 373h376zM666 47v68h-291l-23 -39l-28 -29h342zM393 238v-60l-8 -31h281v91h-273zM393 362v-90h273v90h-273zM393 485v-88h273v88h-273zM393 610v-90h273v90h-273zM393 733v-88h273v88h-273zM393 858v-88h273v88h-273
zM393 983v-90h273v90h-273zM393 1106v-88h273v88h-273zM666 1141v90h-281l6 -45l2 -45h273zM666 1329h-342q31 -25 51 -63h291v63zM1190 739v105q-37 -39 -82 -70l-53 -35h135zM1190 707h-146l64 -39l49 -37l33 -31v107zM1620 162v166q-47 -51 -137 -129l-45 -37h182z
M1620 47v82h-229l-58 -39l-92 -43h379zM1602 1217h-162l55 -50q32 -25 107 -108v158zM1602 1329h-328l61 -35l60 -43h207v78zM1743 879h-43q-143 193 -320 329q-84 66 -158 94t-186 27h-215v-581h53q119 0 208 54t169 187h49v-532h-49l-28 47l-33 41l-57 53q-26 26 -62 45
q-92 55 -197 55h-53v-651h211l55 8q66 8 162 43q72 31 162 101q172 131 305 307h45v-506h-1720v47h65q84 0 113 6q17 0 27 4t12 4l31 21q29 22 40 66t11 128v824q0 88 -9 129t-38 61q-25 23 -68 31l-119 8h-65v49h1702v-499z" />
    <glyph glyph-name="Eacute" unicode="&#xc9;" horiz-adv-x="1802" 
d="M893 1622l184 166h-153zM1257 1837l-409 -373h-35l68 373h376zM666 47v68h-291l-23 -39l-28 -29h342zM393 238v-60l-8 -31h281v91h-273zM393 362v-90h273v90h-273zM393 485v-88h273v88h-273zM393 610v-90h273v90h-273zM393 733v-88h273v88h-273zM393 858v-88h273v88h-273
zM393 983v-90h273v90h-273zM393 1106v-88h273v88h-273zM666 1141v90h-281l6 -45l2 -45h273zM666 1329h-342q31 -25 51 -63h291v63zM1190 739v105q-37 -39 -82 -70l-53 -35h135zM1190 707h-146l64 -39l49 -37l33 -31v107zM1620 162v166q-47 -51 -137 -129l-45 -37h182z
M1620 47v82h-229l-58 -39l-92 -43h379zM1602 1217h-162l55 -50q32 -25 107 -108v158zM1602 1329h-328l61 -35l60 -43h207v78zM1743 879h-43q-143 193 -320 329q-84 66 -158 94t-186 27h-215v-581h53q119 0 208 54t169 187h49v-532h-49l-28 47l-33 41l-57 53q-26 26 -62 45
q-92 55 -197 55h-53v-651h211l55 8q66 8 162 43q72 31 162 101q172 131 305 307h45v-506h-1720v47h65q84 0 113 6q17 0 27 4t12 4l31 21q29 22 40 66t11 128v824q0 88 -9 129t-38 61q-25 23 -68 31l-119 8h-65v49h1702v-499z" />
    <glyph glyph-name="Ecircumflex" unicode="&#xca;" horiz-adv-x="1802" 
d="M924 1634l67 -123h135l-67 123h-135zM977 1786h-135l63 -117h135zM1288 1462h-327l-156 277l-174 -277h-56l230 373h278zM666 47v68h-291l-23 -39l-28 -29h342zM393 238v-60l-8 -31h281v91h-273zM393 362v-90h273v90h-273zM393 485v-88h273v88h-273zM393 610v-90h273v90
h-273zM393 733v-88h273v88h-273zM393 858v-88h273v88h-273zM393 983v-90h273v90h-273zM393 1106v-88h273v88h-273zM666 1141v90h-281l6 -45l2 -45h273zM666 1329h-342q31 -25 51 -63h291v63zM1190 739v105q-37 -39 -82 -70l-53 -35h135zM1190 707h-146l64 -39l49 -37l33 -31
v107zM1620 162v166q-47 -51 -137 -129l-45 -37h182zM1620 47v82h-229l-58 -39l-92 -43h379zM1602 1217h-162l55 -50q32 -25 107 -108v158zM1602 1329h-328l61 -35l60 -43h207v78zM1743 879h-43q-143 193 -320 329q-84 66 -158 94t-186 27h-215v-581h53q119 0 208 54t169 187
h49v-532h-49l-28 47l-33 41l-57 53q-26 26 -62 45q-92 55 -197 55h-53v-651h211l55 8q66 8 162 43q72 31 162 101q172 131 305 307h45v-506h-1720v47h65q84 0 113 6q17 0 27 4t12 4l31 21q29 22 40 66t11 128v824q0 88 -9 129t-38 61q-25 23 -68 31l-119 8h-65v49h1702v-499
z" />
    <glyph glyph-name="Edieresis" unicode="&#xcb;" horiz-adv-x="1802" 
d="M1073 1610q18 -92 113 -105q41 39 53 105h-166zM1241 1642q0 70 -55 111q-47 -6 -74 -30t-39 -81h168zM612 1610q16 -88 111 -105q41 39 53 105h-164zM778 1642q0 36 -7 56t-48 55q-47 -6 -74 -30t-39 -81h168zM1190 1464q-70 0 -105 36q-59 61 -59 130q0 70 47 117
t113 47t118 -48q50 -48 50 -116t-47 -117t-117 -49zM727 1464q-70 0 -105 36q-59 61 -59 130q0 70 47 117t117 47t117 -47t47 -116t-47 -118t-117 -49zM666 47v68h-291l-23 -39l-28 -29h342zM393 238v-60l-8 -31h281v91h-273zM393 362v-90h273v90h-273zM393 485v-88h273v88
h-273zM393 610v-90h273v90h-273zM393 733v-88h273v88h-273zM393 858v-88h273v88h-273zM393 983v-90h273v90h-273zM393 1106v-88h273v88h-273zM666 1141v90h-281l6 -45l2 -45h273zM666 1329h-342q31 -25 51 -63h291v63zM1190 739v105q-37 -39 -82 -70l-53 -35h135zM1190 707
h-146l64 -39l49 -37l33 -31v107zM1620 162v166q-47 -51 -137 -129l-45 -37h182zM1620 47v82h-229l-58 -39l-92 -43h379zM1602 1217h-162l55 -50q32 -25 107 -108v158zM1602 1329h-328l61 -35l60 -43h207v78zM1743 879h-43q-143 193 -320 329q-84 66 -158 94t-186 27h-215
v-581h53q119 0 208 54t169 187h49v-532h-49l-28 47l-33 41l-57 53q-26 26 -62 45q-92 55 -197 55h-53v-651h211l55 8q66 8 162 43q72 31 162 101q172 131 305 307h45v-506h-1720v47h65q84 0 113 6q17 0 27 4t12 4l31 21q29 22 40 66t11 128v824q0 88 -9 129t-38 61
q-25 23 -68 31l-119 8h-65v49h1702v-499z" />
    <glyph glyph-name="Igrave" unicode="&#xcc;" horiz-adv-x="1161" 
d="M338 1788l184 -166l-28 166h-156zM657 1464h-34l-410 373h377zM375 115l-23 -39l-28 -29h383q-20 31 -35 68h-297zM393 238v-60l-8 -31h283l-2 17v74h-273zM395 362v-90h271v90h-271zM395 485v-88h271v88h-271zM395 610v-90h271v90h-271zM395 733v-88h271v88h-271z
M395 858v-88h271v88h-271zM395 983v-90h271v90h-271zM395 1106v-88h271v88h-271zM666 1141v76l2 14h-283l6 -45l2 -45h273zM684 1298l23 31h-383q31 -25 51 -63h297zM1120 0h-1079v47h65q84 0 113 6q17 0 27 4t12 4l31 21q29 22 40 66t11 128v824q0 88 -9 129t-38 61
q-25 23 -68 31l-119 8h-65v49h1079v-49h-65q-82 0 -118 -6t-65 -29q-25 -14 -41 -65l-8 -51l-2 -78v-824q0 -84 9 -122q18 -75 104 -99l121 -8h65v-47z" />
    <glyph glyph-name="Iacute" unicode="&#xcd;" horiz-adv-x="1161" 
d="M584 1622l184 166h-154zM948 1837l-409 -373h-35l67 373h377zM375 115l-23 -39l-28 -29h383q-20 31 -35 68h-297zM393 238v-60l-8 -31h283l-2 17v74h-273zM395 362v-90h271v90h-271zM395 485v-88h271v88h-271zM395 610v-90h271v90h-271zM395 733v-88h271v88h-271z
M395 858v-88h271v88h-271zM395 983v-90h271v90h-271zM395 1106v-88h271v88h-271zM666 1141v76l2 14h-283l6 -45l2 -45h273zM684 1298l23 31h-383q31 -25 51 -63h297zM1120 0h-1079v47h65q84 0 113 6q17 0 27 4t12 4l31 21q29 22 40 66t11 128v824q0 88 -9 129t-38 61
q-25 23 -68 31l-119 8h-65v49h1079v-49h-65q-82 0 -118 -6t-65 -29q-25 -14 -41 -65l-8 -51l-2 -78v-824q0 -84 9 -122q18 -75 104 -99l121 -8h65v-47z" />
    <glyph glyph-name="Icircumflex" unicode="&#xce;" horiz-adv-x="1161" 
d="M557 1636l68 -123h135l-68 123h-135zM610 1788h-135l64 -117h135zM922 1464h-328l-156 277l-174 -277h-55l229 373h279zM375 115l-23 -39l-28 -29h383q-20 31 -35 68h-297zM393 238v-60l-8 -31h283l-2 17v74h-273zM395 362v-90h271v90h-271zM395 485v-88h271v88h-271z
M395 610v-90h271v90h-271zM395 733v-88h271v88h-271zM395 858v-88h271v88h-271zM395 983v-90h271v90h-271zM395 1106v-88h271v88h-271zM666 1141v76l2 14h-283l6 -45l2 -45h273zM684 1298l23 31h-383q31 -25 51 -63h297zM1120 0h-1079v47h65q84 0 113 6q17 0 27 4t12 4
l31 21q29 22 40 66t11 128v824q0 88 -9 129t-38 61q-25 23 -68 31l-119 8h-65v49h1079v-49h-65q-82 0 -118 -6t-65 -29q-34 -19 -46 -89q-3 -17 -3 -27l-2 -78v-824q0 -84 9 -122q18 -75 104 -99l121 -8h65v-47z" />
    <glyph glyph-name="Idieresis" unicode="&#xcf;" horiz-adv-x="1161" 
d="M688 1610q18 -92 113 -105q41 39 53 105h-166zM856 1642q0 70 -55 111q-47 -6 -74 -30t-39 -81h168zM227 1610q16 -88 111 -105q41 39 53 105h-164zM393 1642q0 36 -7 56t-48 55q-47 -6 -74 -30t-39 -81h168zM805 1464q-70 0 -105 36q-59 61 -59 130q0 70 47 117
q48 47 114 47t116 -48t51 -116q0 -68 -47 -117t-117 -49zM342 1464q-70 0 -105 36q-59 61 -59 130q0 70 47 117t117 47t117 -47t47 -116t-47 -118t-117 -49zM375 115l-23 -39l-28 -29h383q-20 31 -35 68h-297zM393 238v-60l-8 -31h283l-2 17v74h-273zM395 362v-90h271v90
h-271zM395 485v-88h271v88h-271zM395 610v-90h271v90h-271zM395 733v-88h271v88h-271zM395 858v-88h271v88h-271zM395 983v-90h271v90h-271zM395 1106v-88h271v88h-271zM666 1141v76l2 14h-283l6 -45l2 -45h273zM684 1298l23 31h-383q31 -25 51 -63h297zM1120 0h-1079v47h65
q84 0 113 6q17 0 27 4t12 4l31 21q29 22 40 66t11 128v824q0 88 -9 129t-38 61q-25 23 -68 31l-119 8h-65v49h1079v-49h-65q-82 0 -118 -6t-65 -29q-34 -19 -46 -89q-3 -17 -3 -27l-2 -78v-824q0 -84 9 -122q18 -75 104 -99l121 -8h65v-47z" />
    <glyph glyph-name="Eth" unicode="&#xd0;" horiz-adv-x="2013" 
d="M666 1329h-342q27 -20 47 -53h295v53zM666 1231h-279l8 -115h271v115zM666 1071h-271v-115h271v115zM666 913h-271v-112h271v112zM909 748h-243l-271 8l-278 -8v-103h278l271 -4l243 4v103zM666 596h-271v-115h271v115zM666 438h-271v-114h271v114zM666 279h-271
q0 -76 -6 -113h277v113zM666 121h-289q-10 -33 -53 -76l342 2v74zM1456 1276l-35 18l-59 19q-47 10 -107 16q47 -23 82 -53h119zM1354 121q-33 -39 -99 -76q117 20 218 76h-119zM1444 279l-17 -46q-5 -16 -36 -67h149q68 51 113 113h-209zM1479 438l-9 -49q0 -23 -14 -65
h227q25 41 54 114h-258zM1491 596l-8 -115h268l12 49q2 8 5 28t6 38h-283zM1493 756v-115h285l2 47l-4 68h-283zM1483 913l8 -112h278l-10 45q-2 20 -20 67h-256zM1452 1071q14 -51 25 -115h245q-2 4 -20 44t-39 71h-211zM1376 1231q37 -47 62 -115h192l-106 115h-148z
M1063 791v-187h-242v-559h178l113 8q174 0 254 185q68 151 69 424q1 274 -36 413q-55 211 -209 242q-50 12 -207 12h-162v-538h242zM340 1149q0 96 -33 129q-51 51 -201 51h-65v49h1149l80 -4l47 -2l86 -16q262 -46 416 -238q153 -192 153 -420t-127 -409
q-133 -197 -352 -250l-100 -16l-113 -13l-90 -8l-125 -2h-1024v47h65q141 0 188 40q46 40 46 189v328h-260v187h260v358z" />
    <glyph glyph-name="Ntilde" unicode="&#xd1;" horiz-adv-x="2078" 
d="M981 1620l113 -61q72 -37 174 -37l51 4l47 20l-23 -2q-33 0 -92 17l-59 18q-25 12 -40 19t-36 22h-135zM1057 1653q-137 80 -258 82l-60 -6l-65 -27h18l33 2q94 0 195 -51h137zM1266 1475q-125 0 -248 69l-146 82q-74 33 -146 33t-112 -28t-100 -130l-35 23
q88 160 169 228q82 68 188 67q106 0 246 -75q140 -74 201 -98q62 -24 103 -24q92 0 166 137l19 35l39 -16q-131 -303 -344 -303zM1657 1178l6 30l14 43h-61zM1694 1286q17 29 35 43h-205l59 -43h111zM395 129l-10 43l-6 37l-19 -41l-28 -39h63zM299 92l-57 -45h204l-34 45
h-113zM1659 115h-100l100 -97v97zM1659 147v91h-232l97 -91h135zM1659 272v90h-363l95 -90h268zM1163 485l97 -88h389l-97 88h-389zM1032 610l94 -90h390l-95 90h-389zM899 733l96 -88h389l-96 88h-389zM768 858l96 -88h389l-96 88h-389zM637 983l94 -90h389l-94 90h-389z
M504 1106l96 -88h389l-96 88h-389zM369 1231l45 -39l53 -51h391l-96 90h-393zM655 1329h-428l43 -24l56 -39h399zM1647 956q0 373 -304 373v49h695v-49l-88 -4q-15 -3 -64 -22q-178 -78 -178 -347v-1001h-45l-1231 1161v-696q0 -373 303 -373v-47h-694v47q330 0 330 373v747
l-47 45l-74 54l-43 28l-43 23l-45 8l-56 4h-8v49h785l807 -757v335z" />
    <glyph glyph-name="Ograve" unicode="&#xd2;" horiz-adv-x="1933" 
d="M725 1786l184 -166l-28 166h-156zM1044 1462h-34l-410 373h377zM1167 6q60 0 120 28t136 81h-157q-42 -64 -99 -109zM1327 238l-41 -91h180l54 54l32 37h-225zM1364 362l-10 -47l-15 -43h240l31 45l24 45h-270zM1386 485l-14 -88h279l18 47l14 41h-297zM1395 610l-4 -90
h303l14 90h-313zM1395 733v-88h317v35l-2 53h-315zM1386 858l7 -88h313l-18 88h-302zM1366 983l16 -90h295l-35 90h-276zM1333 1106l25 -88h266l-27 47l-26 41h-238zM1276 1231l43 -90h225l-45 47l-47 43h-176zM1352 1300l-49 21l-132 45l50 -53l34 -47h150zM455 115
q123 -70 252 -90l-54 49l-37 41h-161zM291 238l53 -50l55 -41h191l-58 91h-241zM193 362l28 -47l39 -43h254l-39 90h-282zM133 485l17 -45l24 -43h291l-12 37l-13 51h-307zM102 610l9 -43l12 -47h311l-8 47l-4 43h-320zM98 733v-41l2 -47h318v88h-320zM119 858l-10 -47
l-7 -41h318l12 88h-313zM168 983l-23 -47l-16 -43h309l25 90h-295zM250 1106l-37 -47l-27 -41h289l39 88h-264zM383 1231l-102 -90h254l20 37l39 53h-211zM621 1266l96 98q-86 -15 -142 -33q-57 -18 -139 -65h185zM983 1376h-45l-47 -10q-142 -46 -223 -274
q-64 -172 -64 -400l4 -119q0 -37 17 -116l28 -121q7 -30 44 -130q76 -202 282 -202q174 0 269 171t95 489v26q0 318 -96 502t-264 184zM1892 672q0 -168 -76 -321q-196 -398 -817 -396q-223 0 -383 45t-301 156q-274 214 -274 546t295 551q231 170 598 170q434 1 696 -205
t262 -546z" />
    <glyph glyph-name="Oacute" unicode="&#xd3;" horiz-adv-x="1933" 
d="M969 1620l184 166h-154zM1333 1835l-409 -373h-35l67 373h377zM1167 6q60 0 120 28t136 81h-157q-42 -64 -99 -109zM1327 238l-41 -91h180l54 54l32 37h-225zM1364 362l-10 -47l-15 -43h240l31 45l24 45h-270zM1386 485l-14 -88h279l18 47l14 41h-297zM1395 610l-4 -90
h303l14 90h-313zM1395 733v-88h317v35l-2 53h-315zM1386 858l7 -88h313l-18 88h-302zM1366 983l16 -90h295l-35 90h-276zM1333 1106l25 -88h266l-27 47l-26 41h-238zM1276 1231l43 -90h225l-45 47l-47 43h-176zM1352 1300l-49 21l-132 45l50 -53l34 -47h150zM455 115
q123 -70 252 -90l-54 49l-37 41h-161zM291 238l53 -50l55 -41h191l-58 91h-241zM193 362l28 -47l39 -43h254l-39 90h-282zM133 485l17 -45l24 -43h291l-12 37l-13 51h-307zM102 610l9 -43l12 -47h311l-8 47l-4 43h-320zM98 733v-41l2 -47h318v88h-320zM119 858l-10 -47
l-7 -41h318l12 88h-313zM168 983l-23 -47l-16 -43h309l25 90h-295zM250 1106l-37 -47l-27 -41h289l39 88h-264zM383 1231l-102 -90h254l20 37l39 53h-211zM621 1266l96 98q-86 -15 -142 -33q-57 -18 -139 -65h185zM983 1376h-45l-47 -10q-137 -44 -223 -274
q-64 -182 -64 -400l4 -119q0 -37 17 -116l28 -121q7 -30 44 -130q76 -202 282 -202q174 0 269 171t95 489v26q0 318 -96 502t-264 184zM1892 672q0 -174 -74 -322q-198 -397 -819 -395q-331 0 -539 107q-73 38 -145 94q-274 214 -274 546t295 551q231 170 598 170
q434 1 696 -205t262 -546z" />
    <glyph glyph-name="Ocircumflex" unicode="&#xd4;" horiz-adv-x="1933" 
d="M948 1636l68 -123h135l-68 123h-135zM1001 1788h-135l64 -117h135zM1313 1464h-328l-156 277l-174 -277h-55l229 373h279zM1167 6q60 0 120 28t136 81h-157q-42 -64 -99 -109zM1327 238l-41 -91h180l54 54l32 37h-225zM1364 362l-10 -47l-15 -43h240l31 45l24 45h-270z
M1386 485l-14 -88h279l18 47l14 41h-297zM1395 610l-4 -90h303l14 90h-313zM1395 733v-88h317v35l-2 53h-315zM1386 858l7 -88h313l-18 88h-302zM1366 983l16 -90h295l-35 90h-276zM1333 1106l25 -88h266l-27 47l-26 41h-238zM1276 1231l43 -90h225l-45 47l-47 43h-176z
M1352 1300l-49 21l-132 45l50 -53l34 -47h150zM455 115q123 -70 252 -90l-54 49l-37 41h-161zM291 238l53 -50l55 -41h191l-58 91h-241zM193 362l28 -47l39 -43h254l-39 90h-282zM133 485l17 -45l24 -43h291l-12 37l-13 51h-307zM102 610l9 -43l12 -47h311l-8 47l-4 43h-320
zM98 733v-41l2 -47h318v88h-320zM119 858l-10 -47l-7 -41h318l12 88h-313zM168 983l-23 -47l-16 -43h309l25 90h-295zM250 1106l-37 -47l-27 -41h289l39 88h-264zM383 1231l-102 -90h254l20 37l39 53h-211zM621 1266l96 98q-86 -15 -142 -33q-57 -18 -139 -65h185zM983 1376
h-45l-47 -10q-137 -44 -223 -274q-64 -182 -64 -400l4 -119q0 -37 17 -116l28 -121q7 -30 44 -130q76 -202 282 -202q174 0 269 171t95 489v26q0 318 -96 502t-264 184zM1892 672q0 -174 -74 -322q-198 -397 -819 -395q-331 0 -539 107q-73 38 -145 94q-274 214 -274 546
t295 551q231 170 598 170q434 1 696 -205t262 -546z" />
    <glyph glyph-name="Otilde" unicode="&#xd5;" horiz-adv-x="1933" 
d="M948 1620l113 -61q72 -37 174 -37l51 4l47 20l-22 -2q-33 0 -92 17l-60 18q-25 12 -40 19t-36 22h-135zM1024 1653q-137 80 -258 82l-59 -6l-66 -27h18l33 2q94 0 195 -51h137zM1233 1475q-121 0 -248 69l-145 82q-74 33 -146 33t-113 -28q-40 -28 -100 -130l-35 23
q88 160 169 228t188 67q107 0 246 -75q139 -74 201 -98t104 -24q96 0 166 137l18 35l39 -16q-131 -303 -344 -303zM1167 6q60 0 120 28t136 81h-157q-42 -64 -99 -109zM1327 238l-41 -91h180l54 54l32 37h-225zM1364 362l-10 -47l-15 -43h240l31 45l24 45h-270zM1386 485
l-14 -88h279l18 47l14 41h-297zM1395 610l-4 -90h303l14 90h-313zM1395 733v-88h317v35l-2 53h-315zM1386 858l7 -88h313l-18 88h-302zM1366 983l16 -90h295l-35 90h-276zM1333 1106l25 -88h266l-27 47l-26 41h-238zM1276 1231l43 -90h225l-45 47l-47 43h-176zM1352 1300
l-49 21l-132 45l50 -53l34 -47h150zM455 115q123 -70 252 -90l-54 49l-37 41h-161zM291 238l53 -50l55 -41h191l-58 91h-241zM193 362l28 -47l39 -43h254l-39 90h-282zM133 485l17 -45l24 -43h291l-12 37l-13 51h-307zM102 610l9 -43l12 -47h311l-8 47l-4 43h-320zM98 733
v-41l2 -47h318v88h-320zM119 858l-10 -47l-7 -41h318l12 88h-313zM168 983l-23 -47l-16 -43h309l25 90h-295zM250 1106l-37 -47l-27 -41h289l39 88h-264zM383 1231l-102 -90h254l20 37l39 53h-211zM621 1266l96 98q-86 -15 -142 -33q-57 -18 -139 -65h185zM983 1376h-45
l-47 -10q-137 -44 -223 -274q-64 -182 -64 -400l4 -119q0 -37 17 -116l28 -121q7 -30 44 -130q76 -202 282 -202q174 0 269 171t95 489v26q0 318 -96 502t-264 184zM1892 672q0 -174 -74 -322q-198 -397 -819 -395q-331 0 -539 107q-73 38 -145 94q-274 214 -274 546
t295 551q231 170 598 170q434 1 696 -205t262 -546z" />
    <glyph glyph-name="Odieresis" unicode="&#xd6;" horiz-adv-x="1933" 
d="M1090 1612q18 -92 112 -105q41 39 53 105h-165zM1257 1645q0 69 -55 110q-47 -6 -74 -30t-38 -80h167zM629 1612q16 -88 110 -105q41 39 54 105h-164zM795 1645q-1 35 -8 55t-48 55q-47 -6 -73 -30t-39 -80h168zM1206 1466q-109 0 -151 101q-13 29 -13 82t48 100t113 47
q67 0 117 -48t50 -116t-47 -117t-117 -49zM743 1466q-109 0 -151 101q-12 29 -12 65q0 70 47 117t117 47t116 -47q47 -47 47 -116t-47 -118t-117 -49zM1167 6q60 0 120 28t136 81h-157q-42 -64 -99 -109zM1327 238l-41 -91h180l54 54l32 37h-225zM1364 362l-10 -47l-15 -43
h240l31 45l24 45h-270zM1386 485l-14 -88h279l18 47l14 41h-297zM1395 610l-4 -90h303l14 90h-313zM1395 733v-88h317v35l-2 53h-315zM1386 858l7 -88h313l-18 88h-302zM1366 983l16 -90h295l-35 90h-276zM1333 1106l25 -88h266l-27 47l-26 41h-238zM1276 1231l43 -90h225
l-45 47l-47 43h-176zM1352 1300l-49 21l-132 45l50 -53l34 -47h150zM455 115q123 -70 252 -90l-54 49l-37 41h-161zM291 238l53 -50l55 -41h191l-58 91h-241zM193 362l28 -47l39 -43h254l-39 90h-282zM133 485l17 -45l24 -43h291l-12 37l-13 51h-307zM102 610l9 -43l12 -47
h311l-8 47l-4 43h-320zM98 733v-41l2 -47h318v88h-320zM119 858l-10 -47l-7 -41h318l12 88h-313zM168 983l-23 -47l-16 -43h309l25 90h-295zM250 1106l-37 -47l-27 -41h289l39 88h-264zM383 1231l-102 -90h254l20 37l39 53h-211zM621 1266l96 98q-86 -15 -142 -33
q-57 -18 -139 -65h185zM983 1376h-45l-47 -10q-142 -46 -223 -274q-64 -172 -64 -400l4 -119q0 -37 17 -116l28 -121q7 -30 44 -130q76 -202 282 -202q174 0 269 171t95 489v26q0 318 -96 502t-264 184zM1892 672q0 -168 -76 -321q-196 -398 -817 -396q-223 0 -383 45
t-301 156q-274 214 -274 546t295 551q231 170 598 170q434 1 696 -205t262 -546z" />
    <glyph glyph-name="Oslash" unicode="&#xd8;" horiz-adv-x="1935" 
d="M1167 6q113 0 256 107h-157q-44 -64 -99 -107zM1327 238l-41 -91h180l54 54l32 37h-225zM1364 362l-10 -47l-15 -43h240l31 45l24 45h-270zM1386 485l-14 -88h279l18 45l14 43h-297zM1395 610l-4 -90h303l14 90h-313zM1395 733v-88h317v37l-2 51h-315zM1386 858l7 -90
h313l-18 90h-302zM1366 983l16 -90h295l-35 90h-276zM1333 1106l25 -88h266l-27 47l-26 41h-238zM1276 1231l43 -90h225l-45 47l-47 43h-176zM1352 1303l-49 20l-132 43l50 -51l34 -49h150zM455 113q117 -66 252 -88l-54 49l-37 39h-161zM291 238l53 -50l55 -41h191l-58 91
h-241zM193 362l28 -47l39 -43h254l-39 90h-282zM133 485l17 -47l24 -41h291l-12 35l-13 53h-307zM102 610l9 -45l12 -45h311l-8 45l-4 45h-320zM98 733v-41l2 -47h318v88h-320zM119 858l-10 -47l-7 -43h318l12 90h-313zM168 983l-23 -49l-16 -41h309l25 90h-295zM250 1106
l-37 -47l-27 -41h289l39 88h-264zM383 1231l-102 -90h254l20 37l39 53h-211zM670 1319l47 45l-152 -33q-51 -18 -129 -65h185zM981 4q174 0 268 172t94 486v79l-8 86l-4 74l-18 82l-666 -629q51 -192 126 -271t208 -79zM983 1376h-45l-47 -10q-35 -8 -60 -27
q-180 -122 -223 -535q-4 -48 -4 -148t31 -246l665 626q-92 340 -317 340zM1894 674q0 -172 -74 -322q-198 -399 -821 -397h-24q-184 0 -323 35q-138 35 -269 116l-180 -167l-33 34l172 160q-301 225 -301 565t295 555q236 170 604 170t610 -151l181 170l34 -35l-174 -162
q303 -217 303 -571z" />
    <glyph glyph-name="Ugrave" unicode="&#xd9;" horiz-adv-x="2007" 
d="M825 1786l185 -166l-29 166h-156zM1145 1462h-35l-410 373h377zM1577 1257l33 -43l18 -45l2 33q0 16 21 55h-74zM1698 1329h-205l51 -37h123zM674 1266q11 38 33 63h-383q31 -25 51 -63h299zM666 1141v22l2 54v14h-283l8 -43l2 -47h271zM666 1018v88h-271v-88h271z
M666 893v90h-271v-90h271zM666 770v88h-271v-88h271zM666 645v88h-271v-88h271zM666 520v90h-271v-90h271zM666 397v88h-271l2 -47l4 -41h265zM674 272l-4 41l-2 49h-262l10 -51l14 -39h244zM715 147l-21 43l-14 48h-234l31 -48l37 -43h201zM618 68l74 -33l80 -23
q15 -6 88 -6q-49 27 -72 47l-51 62h-184zM1966 1378v-49q-289 -29 -289 -373v-383q0 -143 -18 -227q-66 -246 -311 -334q-160 -57 -411 -57t-425 127q-94 76 -129 172t-37 132q-2 37 -2 50l-4 125v539q0 96 -10 131q-11 69 -105 90l-119 8h-65v49h1081v-49h-65l-113 -4
l-41 -10l-33 -23q-42 -30 -45 -131l-2 -61v-738q0 -233 178 -315q63 -29 160 -29t211 56t163 136q50 79 65 159q16 80 16 223v364q0 373 -305 373v49h655z" />
    <glyph glyph-name="Uacute" unicode="&#xda;" horiz-adv-x="2007" 
d="M1053 1622l184 166h-154zM1417 1837l-409 -373h-35l67 373h377zM1577 1257l33 -43l18 -45l2 33q0 16 21 55h-74zM1698 1329h-205l51 -37h123zM674 1266q11 38 33 63h-383q31 -25 51 -63h299zM666 1141v22l2 54v14h-283l8 -43l2 -47h271zM666 1018v88h-271v-88h271z
M666 893v90h-271v-90h271zM666 770v88h-271v-88h271zM666 645v88h-271v-88h271zM666 520v90h-271v-90h271zM666 397v88h-271l2 -47l4 -41h265zM674 272l-4 41l-2 49h-262l10 -51l14 -39h244zM715 147l-21 43l-14 48h-234l31 -48l37 -43h201zM618 68l74 -33l80 -23
q15 -6 88 -6q-49 27 -72 47l-51 62h-184zM1966 1378v-49q-289 -29 -289 -373v-383q0 -143 -18 -227q-66 -246 -311 -334q-160 -57 -411 -57t-425 127q-94 76 -129 172t-37 132q-2 37 -2 50l-4 125v539q0 96 -10 131q-11 69 -105 90l-119 8h-65v49h1081v-49h-65l-113 -4
l-41 -10l-33 -23q-42 -30 -45 -131l-2 -61v-738q0 -233 178 -315q63 -29 160 -29t211 56t163 136q50 79 65 159q16 80 16 223v364q0 373 -305 373v49h655z" />
    <glyph glyph-name="Ucircumflex" unicode="&#xdb;" horiz-adv-x="2007" 
d="M1057 1636l67 -123h136l-68 123h-135zM1110 1788h-135l63 -117h136zM1421 1464h-327l-156 277l-174 -277h-55l229 373h279zM1577 1257l33 -43l18 -45l2 33q0 16 21 55h-74zM1698 1329h-205l51 -37h123zM674 1266q11 38 33 63h-383q31 -25 51 -63h299zM666 1141v22l2 54
v14h-283l8 -43l2 -47h271zM666 1018v88h-271v-88h271zM666 893v90h-271v-90h271zM666 770v88h-271v-88h271zM666 645v88h-271v-88h271zM666 520v90h-271v-90h271zM666 397v88h-271l2 -47l4 -41h265zM674 272l-4 41l-2 49h-262l10 -51l14 -39h244zM715 147l-21 43l-14 48
h-234l31 -48l37 -43h201zM618 68l74 -33l80 -23q15 -6 88 -6q-49 27 -72 47l-51 62h-184zM1966 1378v-49q-289 -29 -289 -373v-383q0 -143 -18 -227q-66 -246 -311 -334q-160 -57 -411 -57t-425 127q-94 76 -129 172t-37 132q-2 37 -2 50l-4 125v539q0 96 -10 131
q-11 69 -105 90l-119 8h-65v49h1081v-49h-65l-113 -4l-41 -10l-33 -23q-42 -30 -45 -131l-2 -61v-738q0 -233 178 -315q63 -29 160 -29t211 56t163 136q50 79 65 159q16 80 16 223v364q0 373 -305 373v49h655z" />
    <glyph glyph-name="Udieresis" unicode="&#xdc;" horiz-adv-x="2007" 
d="M1149 1612q18 -92 113 -105q41 39 53 105h-166zM1317 1645q0 69 -55 110q-47 -6 -74 -30t-39 -80h168zM688 1612q16 -88 111 -105q41 39 53 105h-164zM854 1645q0 35 -7 55t-48 55q-47 -6 -74 -30t-39 -80h168zM1429 1632q0 -68 -47 -117q-46 -49 -116 -49t-105 36
q-59 61 -59 130q0 70 47 117t113 47t117 -48q50 -48 50 -116zM803 1466q-70 0 -105 36q-59 61 -59 130q0 70 47 117t117 47t117 -47t47 -116t-47 -118t-117 -49zM1577 1257l33 -43l18 -45l2 33q0 16 21 55h-74zM1698 1329h-205l51 -37h123zM674 1266q11 38 33 63h-383
q31 -25 51 -63h299zM666 1141v22l2 54v14h-283l8 -43l2 -47h271zM666 1018v88h-271v-88h271zM666 893v90h-271v-90h271zM666 770v88h-271v-88h271zM666 645v88h-271v-88h271zM666 520v90h-271v-90h271zM666 397v88h-271l2 -47l4 -41h265zM674 272l-4 41l-2 49h-262l10 -51
l14 -39h244zM715 147l-21 43l-14 48h-234l31 -48l37 -43h201zM618 68l74 -33l80 -23q15 -6 88 -6q-49 27 -72 47l-51 62h-184zM1966 1378v-49q-289 -29 -289 -373v-383q0 -143 -18 -227q-66 -246 -311 -334q-160 -57 -411 -57t-425 127q-94 76 -129 172t-37 132q-2 37 -2 50
l-4 125v539q0 96 -10 131q-11 69 -105 90l-119 8h-65v49h1081v-49h-65l-113 -4l-41 -10l-33 -23q-42 -30 -45 -131l-2 -61v-738q0 -233 178 -315q63 -29 160 -29t211 56t163 136q50 79 65 159q16 80 16 223v364q0 373 -305 373v49h655z" />
    <glyph glyph-name="Yacute" unicode="&#xdd;" horiz-adv-x="2074" 
d="M977 1622l184 166h-153zM1341 1837l-409 -373h-35l68 373h376zM702 1266l9 32l28 31h-475l41 -26l37 -37h360zM754 1141l-21 26q-13 16 -28 64h-336l63 -90h322zM840 1018l-64 88h-319l63 -88h320zM928 893l-64 90h-319l63 -90h320zM1014 770l-62 88h-319l63 -88h318z
M1102 645l-64 88h-317l61 -88h320zM844 115q-4 -14 -21 -35l-30 -33h383q-20 29 -33 68h-299zM1137 147v17l-2 49v25h-271l-2 -43l-8 -48h283zM864 362v-90h271v90h-271zM864 485v-88h271v88h-271zM864 520h271v78l-9 12h-319l57 -80v-10zM1577 1128v-8l39 60l41 51h-98
q18 -55 18 -103zM1757 1329h-270l29 -29l26 -34h146zM1528 1137q0 90 -58 141t-155 51h-41v49h760v-49q-139 0 -258 -92t-281 -328l-203 -288v-345q0 -94 10 -130t39 -62l62 -29l123 -8h65v-47h-1081v47h65q84 0 113 6q16 0 26 4t13 4l31 21q29 22 40 66t11 128v242
l-469 670q-102 141 -252 141h-47v49h1087v-49h-73q-158 0 -158 -78q0 -39 37 -88l340 -477l176 248q78 113 78 203z" />
    <glyph glyph-name="Thorn" unicode="&#xde;" horiz-adv-x="1933" 
d="M668 1528q6 55 39 88h-383q43 -39 59 -88h285zM346 23l-22 -21h383q-25 31 -33 57h-303q-7 -18 -25 -36zM666 260v115h-271v-115h271zM395 215v-76l-8 -35h281l-2 111h-271zM666 420v112h-271v-112h271zM666 690h-271v-115l271 3v112zM666 735v115h-271v-115h271z
M666 895v115h-271v-115h271zM666 1053v114h-271v-114h271zM666 1212v113h-271v-113h271zM666 1370v115h-275l2 -45l2 -70h271zM1296 1284q47 -15 86 -72h187q-109 72 -273 72zM1403 690q-41 -72 -107 -112q148 0 238 53q37 20 80 59h-211zM1653 735l28 53l23 62h-256
q-6 -59 -25 -115h230zM1452 895h258l2 39v39l-8 37h-256l4 -88v-27zM1692 1053q-18 63 -70 114h-213l18 -49l15 -65h250zM1251 1333q330 0 486 -100t155 -299q0 -164 -98 -254q-158 -147 -543 -148h-430v-303q0 -135 33 -174q43 -53 201 -53h65v-47h-1079v47h65
q141 0 188 40q46 40 46 189v1203q0 96 -33 129q-53 53 -201 53h-65v49h1008v-49q-139 0 -182 -61t-46 -222h430zM821 578h299q139 0 209 86t70 276q0 344 -279 344h-299v-706z" />
    <glyph glyph-name="germandbls" unicode="&#xdf;" horiz-adv-x="2349" 
d="M1253 913q0 -61 64 -98q83 -43 256 -67l268 -41q209 -30 338 -124q129 -95 129 -269t-142 -324q-142 -148 -388 -148q-122 0 -252 39q-125 43 -258 142l-203 -154l-39 2v430h39q98 -168 281 -289q207 -133 428 -133q154 0 256 105q76 82 76 154t-56 120q-88 69 -262 92
l-299 45q-438 68 -438 344q0 264 262 314q-60 -38 -60 -140zM1501 999q-1 97 -107 157t-378 61h-273v-969q0 -117 34 -162t177 -45h60v-41h-973v41h59q127 0 169 38t42 169v1030q0 104 -51 137q-53 29 -160 29h-59v43h1178q207 0 337 -88q129 -90 130 -273q0 -121 -98 -216
t-234 -95q40 10 92 66q55 66 55 118zM342 98q-12 -31 -45 -57h344l-18 25l-13 32h-268zM360 221q0 -63 -8 -88h254l-2 88h-244zM604 346h-244v-90h244v90zM604 471h-244v-90h244v90zM604 594h-244v-88h244v88zM604 717h-244v-88h244v88zM604 842h-244v-90h244v90zM604 965
h-244v-88h244v88zM604 1090h-244v-91h244v91zM604 1214h-244v-90h244v90zM1200 1444h-903q37 -33 51 -72h1102q-45 31 -111 49q-68 23 -139 23zM1534 1051l2 -33q0 -53 -8 -78t-45 -61q44 28 90 77q33 51 33 127l-86 7zM1337 1214q98 -24 158 -90h109l-9 43l-14 47h-244z
M1495 1337h-1139l4 -88h1203q-21 41 -68 88zM1057 0v-90l119 90h-119zM1057 35h123l-45 41l-78 88v-129zM2087 2q-33 -37 -80 -70q74 29 112 67t66 99h-55q-12 -57 -43 -96zM2134 199l4 -39l-2 -27h62l12 41l6 47h-88zM2220 256v27l-4 32l-2 31h-258q104 -33 149 -90h115z
M2150 471h-839q104 -34 229 -51l266 -39h400q-17 41 -56 90zM1862 594h-736q33 -51 105 -88h878q-85 55 -247 88zM1171 842h-71l-13 -41l-4 -49h127q-31 41 -39 90zM1501 649l-104 13q-70 7 -148 55h-166l4 -43q2 -20 19 -45h532zM1174 877q0 33 18 63l25 43
q-41 -23 -66 -49l-35 -57h58z" />
    <glyph glyph-name="agrave" unicode="&#xe0;" horiz-adv-x="1761" 
d="M696 1585l185 -166l-29 166h-156zM1016 1262h-35l-410 372h377zM774 963h94l-47 84zM715 860h211l-41 76h-127zM688 813l33 -57h264l-43 75h-246zM778 649h264l-41 76h-264zM836 547h266l-43 74h-264zM893 440h268l-45 76h-264zM952 336h265l-41 76h-267zM1008 229h268
l-41 76h-268zM1032 186q18 -33 21 -59h282l-41 74h-268zM1020 39h362l-30 57h-301q-6 -22 -31 -57zM334 152l4 49l-31 -41l-28 -33h57zM205 61l-35 -22h199l-17 29l-10 28h-94zM666 772l-220 -410h441zM422 244q0 -50 33 -101q27 -53 82 -80l67 -20l68 -4v-39h-631v39
q170 0 338 303l479 856h41l541 -975q12 -20 28 -48t27 -38l51 -55q49 -43 152 -43h22v-39h-909v39h88q49 1 80 23t31 53t-21 69l-76 138h-479q-12 -28 -12 -78z" />
    <glyph glyph-name="aacute" unicode="&#xe1;" horiz-adv-x="1761" 
d="M815 1419l184 166h-153zM1180 1634l-410 -372h-35l68 372h377zM774 963h94l-47 84zM715 860h211l-41 76h-127zM688 813l33 -57h264l-43 75h-246zM778 649h264l-41 76h-264zM836 547h266l-43 74h-264zM893 440h268l-45 76h-264zM952 336h265l-41 76h-267zM1008 229h268
l-41 76h-268zM1032 186q18 -33 21 -59h282l-41 74h-268zM1020 39h362l-30 57h-301q-6 -22 -31 -57zM334 152l4 49l-31 -41l-28 -33h57zM205 61l-35 -22h199l-17 29l-10 28h-94zM666 772l-220 -410h441zM422 244q0 -50 33 -101q27 -53 82 -80l67 -20l68 -4v-39h-631v39
q170 0 338 303l479 856h41l541 -975q12 -20 28 -48t27 -38l51 -55q49 -43 152 -43h22v-39h-909v39h88q49 1 80 23t31 53t-21 69l-76 138h-479q-12 -28 -12 -78z" />
    <glyph glyph-name="acircumflex" unicode="&#xe2;" horiz-adv-x="1761" 
d="M870 1434l68 -123h135l-67 123h-136zM924 1585h-136l64 -117h135zM1235 1262h-328l-155 276l-174 -276h-56l230 372h278zM774 963h94l-47 84zM715 860h211l-41 76h-127zM688 813l33 -57h264l-43 75h-246zM778 649h264l-41 76h-264zM836 547h266l-43 74h-264zM893 440h268
l-45 76h-264zM952 336h265l-41 76h-267zM1008 229h268l-41 76h-268zM1032 186q18 -33 21 -59h282l-41 74h-268zM1020 39h362l-30 57h-301q-6 -22 -31 -57zM334 152l4 49l-31 -41l-28 -33h57zM205 61l-35 -22h199l-17 29l-10 28h-94zM666 772l-220 -410h441zM422 244
q0 -50 33 -101q27 -53 82 -80l67 -20l68 -4v-39h-631v39q170 0 338 303l479 856h41l541 -975q12 -20 28 -48t27 -38l51 -55q49 -43 152 -43h22v-39h-909v39h88q49 1 80 23t31 53t-21 69l-76 138h-479q-12 -28 -12 -78z" />
    <glyph glyph-name="atilde" unicode="&#xe3;" horiz-adv-x="1748" 
d="M831 1411l113 -61q72 -37 172 -37l51 4l47 20l-22 -2q-33 0 -92 17l-60 18q-48 23 -73 41h-136zM907 1444q-141 78 -256 80l-59 -6l-66 -27h19l33 2q94 0 192 -49h137zM1114 1266q-119 0 -246 69l-143 82q-75 33 -147 33t-111 -28t-98 -130l-35 23q88 161 168 227t186 66
t243 -74q139 -74 201 -98t103 -23q90 0 164 135l18 35l39 -16q-131 -301 -342 -301zM768 954h94l-47 84zM711 854h209l-41 76h-127zM684 807l33 -57h262l-43 75h-244zM772 645h262l-39 74h-262zM829 543h265l-43 73h-263zM887 436h266l-45 76h-262zM946 334h262l-41 74h-264
zM1001 227h267l-41 76h-266zM1024 184q18 -33 20 -57h281l-39 72h-268zM1014 39h358l-31 57h-299q-5 -22 -28 -57zM332 150l4 49l-31 -41l-29 -31h58zM203 61l-33 -22h197l-17 29l-10 28h-94zM662 766l-218 -406h437zM420 241q0 -49 33 -100q25 -51 79 -78l68 -20l68 -4v-39
h-627v39q168 0 336 301l475 850h41l537 -969q12 -20 28 -48t27 -38l51 -53q47 -43 150 -43h22v-39h-903v39h88q49 1 80 23t31 52t-21 68l-76 137h-475q-12 -29 -12 -78z" />
    <glyph glyph-name="adieresis" unicode="&#xe4;" horiz-adv-x="1761" 
d="M993 1427q18 -92 113 -104q41 39 53 104h-166zM1161 1460q0 70 -55 111q-47 -6 -74 -30t-39 -81h168zM532 1427q16 -88 111 -104q41 39 53 104h-164zM698 1460q0 36 -7 56t-48 55q-47 -6 -74 -30t-39 -81h168zM1110 1282q-70 0 -105 36t-47 64t-12 82t47 101t113 47
t118 -48q50 -48 50 -116t-47 -117t-117 -49zM647 1282q-70 0 -105 36q-34 36 -46 64t-12 82t46 101q47 47 117 47t117 -47t47 -116t-47 -118t-117 -49zM774 963h94l-47 84zM715 860h211l-41 76h-127zM688 813l33 -57h264l-43 75h-246zM778 649h264l-41 76h-264zM836 547h266
l-43 74h-264zM893 440h268l-45 76h-264zM952 336h265l-41 76h-267zM1008 229h268l-41 76h-268zM1032 186q18 -33 21 -59h282l-41 74h-268zM1020 39h362l-30 57h-301q-6 -22 -31 -57zM334 152l4 49l-31 -41l-28 -33h57zM205 61l-35 -22h199l-17 29l-10 28h-94zM666 772
l-220 -410h441zM422 244q0 -50 33 -101q27 -53 82 -80l67 -20l68 -4v-39h-631v39q170 0 338 303l479 856h41l541 -975q12 -20 28 -48t27 -38l51 -55q49 -43 152 -43h22v-39h-909v39h88q49 1 80 23t31 53t-21 69l-76 138h-479q-12 -28 -12 -78z" />
    <glyph glyph-name="aring" unicode="&#xe5;" horiz-adv-x="1728" 
d="M995 1451q0 58 -37 98t-93 40t-97 -40t-41 -96t41 -96t95 -40t93 38t39 96zM1054 1451q0 -83 -55 -138t-135 -55t-138 54t-58 135t56 140t137 59t137 -56t56 -139zM760 944h92l-45 82zM702 844h207l-41 74h-125zM676 797l33 -56h258l-43 74h-240zM764 637h258l-39 74
h-260zM819 537h262l-43 71h-258zM877 432h262l-43 74h-260zM934 330h260l-41 73h-260zM989 225h262l-39 74h-264zM1008 197q23 -57 24 -72h279l-41 72h-262zM1001 39h355l-29 55h-297q-6 -22 -29 -55zM328 150l4 47l-31 -41l-27 -31h56zM201 59l-33 -20h194l-16 27l-10 28
h-92zM653 758l-215 -402h432zM414 238q0 -48 32 -97q27 -53 80 -80l68 -18l65 -4v-39h-618v39q166 0 332 297l469 840h41l530 -957q11 -20 27 -47t26 -37l52 -55q47 -41 147 -41h23v-39h-891v39h86q47 -1 78 21q55 38 10 120l-74 135h-471q-12 -29 -12 -77z" />
    <glyph glyph-name="ae" unicode="&#xe6;" horiz-adv-x="2228" 
d="M1311 37v53h-240q-16 -31 -41 -53h281zM1311 119v71h-224l-6 -71h230zM1090 289v-72h221v72h-221zM1090 389v-74l221 2v72h-221zM1090 489v-73h221v73h-221zM1090 586v-70h221v70h-221zM1090 688v-74h221v74h-221zM1090 786v-71h221v71h-221zM1090 883v-70h221v70h-221z
M1311 909v74h-230l4 -41l2 -33h224zM1311 1061h-281q27 -16 41 -49h240v49zM1729 590v86l-31 -31l-33 -27l-45 -28h109zM1729 565h-117l84 -53l33 -33v86zM2073 127v135l-50 -53l-98 -82h148zM2073 37v63h-185l-55 -34l-61 -29h301zM2058 973h-131l45 -39q43 -37 86 -86v125
zM2058 1061h-260l94 -62h166v62zM315 106v21l7 63l-70 -71l-12 -13h75zM152 37h180l-13 45h-110zM1051 881q0 96 -25 137l-553 -662h578v525zM596 37h43v-37h-598v37q31 0 49 6l41 25q47 29 100 84l117 122l129 148l520 622l-51 13l-84 4h-51v41h1360v-400h-35l-70 91
q-130 135 -191 183t-120 66t-149 19h-170v-461h43q93 0 163 41t136 150h41v-424h-41l-23 36l-24 31l-35 31q-29 33 -62 51q-72 43 -155 43h-43v-522h178l33 8q130 14 265 120q134 106 238 238h37v-403h-1376v37h51l94 4q71 13 86 78q8 31 9 102v94h-605l-30 -63l-8 -57
q0 -158 188 -158z" />
    <glyph glyph-name="ccedilla" unicode="&#xe7;" horiz-adv-x="1384" 
d="M1135 973l63 -90l-4 90h-59zM1190 1042l-49 -16l-60 -4l25 -21h86zM356 82l88 -51l95 -25l-39 39l-27 37h-117zM231 182l39 -39l45 -34h138l-25 38l-18 35h-179zM158 285l20 -37l29 -37h192l-28 74h-213zM111 389l30 -76h219l-16 76h-233zM88 492l14 -76h236l-6 76h-244z
M86 592l-4 -33l4 -39h246l-2 25l2 47h-246zM98 696l-12 -75h248l10 75h-246zM133 799l-27 -76h242l19 76h-234zM193 897l-25 -33l-21 -39h230l12 37l17 35h-213zM291 1001l-39 -34l-37 -41h203l22 39l25 36h-174zM575 1118q-66 -6 -100 -18q-20 -2 -37 -13l-106 -57h157
q21 27 86 88zM782 2q160 0 301 99t228 278l32 -17l-43 -83q-22 -35 -70 -97t-120 -112q-166 -119 -395 -119q-291 0 -483 172t-192 433t184 432q183 171 468 171l80 -2l80 -18q53 -13 130 -51t114 -37q84 0 166 82h32l19 -476l-25 -6l-71 144l-78 116l-29 33
q-157 166 -338 166q-127 0 -204 -148q-76 -148 -76 -393t66 -406q64 -161 224 -161zM707 -410q0 20 -37 31q-115 27 -115 125q0 59 43 102q47 39 116 39q68 0 114 -47q46 -46 46 -126t-65 -142q-66 -61 -231 -84v41q129 18 129 61zM690 -164q-35 0 -63 -24q-27 -25 -27 -62
l178 -4q-12 90 -88 90zM608 -287q11 -31 90 -59q33 -6 54 -49q31 51 30 108h-174z" />
    <glyph glyph-name="egrave" unicode="&#xe8;" horiz-adv-x="1460" 
d="M575 1505l175 -157l-27 157h-148zM879 1198h-33l-389 354h358zM543 37v55h-234q-10 -23 -41 -55h275zM543 121v69h-219l-7 -69h226zM324 291v-74h219v74h-219zM324 391v-72h219v72h-219zM324 489v-71h219v71h-219zM324 590v-70h219v70h-219zM324 688v-72h219v72h-219z
M324 791v-72h219v72h-219zM324 889v-72h219v72h-219zM543 913v76h-226l5 -41l2 -35h219zM543 1067h-275q20 -12 23 -23l18 -28h234v51zM963 594v86q-27 -35 -66 -59l-43 -27h109zM963 567h-117l57 -35l27 -18l33 -31v84zM1307 131v131l-52 -51l-57 -51l-37 -29h146zM1307 37
v63h-183l-55 -32l-65 -31h303zM1290 977h-127l45 -39l82 -88v127zM1290 1067h-262l98 -63h164v63zM1405 705h-35l-55 75l-66 66q-149 161 -262 201q-59 20 -149 20h-170v-465h41q99 0 166 40t137 153h39v-426h-39l-25 37l-24 30l-35 31q-25 29 -62 51q-74 45 -157 45h-41
v-526h178l33 8l73 12l62 21q49 20 125 82q147 115 245 246h35v-406h-1378v37h53q66 0 92 6q69 16 82 72q13 50 13 106v725l-11 51q-6 70 -176 70h-53v39h1364v-401z" />
    <glyph glyph-name="eacute" unicode="&#xe9;" horiz-adv-x="1456" 
d="M723 1343l174 156h-145zM1069 1546l-389 -352h-33l64 352h358zM541 37v53h-232q-10 -20 -41 -53h273zM541 121v69h-219l-7 -69h226zM322 289v-72h219v72h-219zM322 389v-72h219v72h-219zM322 487v-71h219v71h-219zM322 588v-70h219v70h-219zM322 686v-72h219v72h-219z
M322 786v-71h219v71h-219zM322 885v-72h219v72h-219zM541 911v74h-226l7 -74h219zM541 1061h-273q18 -10 23 -21l18 -28h232v49zM961 592v84q-29 -33 -68 -58l-41 -26h109zM961 565h-117l84 -53l33 -31v84zM1303 129v133l-50 -53l-96 -80h146zM1303 37v63h-183l-53 -32
l-68 -31h304zM1288 973h-129l45 -39l84 -88v127zM1288 1061h-262l96 -62h166v62zM1401 700h-35l-55 76l-64 68q-158 163 -263 197q-58 19 -148 20h-170v-463h41q95 0 164 41t137 152h39v-424h-39l-23 36l-24 31l-35 31q-28 29 -82 61t-137 33h-41v-522h178l33 8l73 12l60 21
q51 20 127 82q145 113 243 243h35v-403h-1374v37h53q66 0 92 6q69 16 82 72q11 43 11 106v721l-9 51q-2 23 -30 41q-27 27 -146 27h-53v41h1360v-402z" />
    <glyph glyph-name="ecircumflex" unicode="&#xea;" horiz-adv-x="1460" 
d="M750 1362l65 -117h127l-63 117h-129zM801 1505h-129l61 -110h129zM1096 1198h-310l-149 262l-164 -262h-53l217 354h266zM543 37v55h-234q-10 -23 -41 -55h275zM543 121v69h-219l-7 -69h226zM324 291v-74h219v74h-219zM324 391v-72h219v72h-219zM324 489v-71h219v71h-219
zM324 590v-70h219v70h-219zM324 688v-72h219v72h-219zM324 791v-72h219v72h-219zM324 889v-72h219v72h-219zM543 913v76h-226l5 -41l2 -35h219zM543 1067h-275q20 -12 23 -23l18 -28h234v51zM963 594v86q-27 -35 -66 -59l-43 -27h109zM963 567h-117l57 -35l27 -18l33 -31v84
zM1307 131v131l-52 -51l-57 -51l-37 -29h146zM1307 37v63h-183l-55 -32l-65 -31h303zM1290 977h-127l45 -39l82 -88v127zM1290 1067h-262l98 -63h164v63zM1405 705h-35l-55 75l-66 66q-149 161 -262 201q-59 20 -149 20h-170v-465h41q99 0 166 40t137 153h39v-426h-39
l-25 37l-24 30l-35 31q-25 29 -62 51q-74 45 -157 45h-41v-526h178l33 8l73 12l62 21q49 20 125 82q147 115 245 246h35v-406h-1378v37h53q66 0 92 6q69 16 82 72q13 50 13 106v725l-11 51q-6 70 -176 70h-53v39h1364v-401z" />
    <glyph glyph-name="edieresis" unicode="&#xeb;" horiz-adv-x="1462" 
d="M883 1356q16 -86 106 -99q39 37 51 99h-157zM1042 1389q0 65 -53 104q-45 -6 -71 -29t-35 -75h159zM444 1356q14 -82 105 -99q39 37 51 99h-156zM602 1389q0 33 -7 52t-46 52q-45 -6 -70 -29t-37 -75h160zM992 1532q64 0 110 -45t47 -111q0 -66 -43 -112
q-43 -45 -111 -45q-69 0 -113 45q-44 46 -44 112t45 111t109 45zM709 1376q0 -66 -43 -112q-43 -45 -111 -45t-112 44t-45 111q-1 68 44 113t111 45t111 -45t45 -111zM543 37v55h-234q-10 -23 -41 -55h275zM543 121v69h-219l-7 -69h226zM324 291v-74h219v74h-219zM324 391
v-72h219v72h-219zM324 492v-74h219v74h-219zM324 590v-70h219v70h-219zM324 688v-72h219v72h-219zM324 791v-72h219v72h-219zM324 889v-72h219v72h-219zM543 915v74h-226l5 -41l2 -33h219zM543 1067h-275q20 -12 25 -23l16 -28h234v51zM965 594v86q-29 -33 -68 -59l-43 -27
h111zM965 569h-117l82 -55l35 -31v86zM1309 131v131l-52 -51l-57 -51l-37 -29h146zM1309 37v63h-183l-55 -32l-65 -31h303zM1292 977h-127l43 -39l84 -88v127zM1292 1067h-262l96 -63h166v63zM1407 705h-35l-55 75l-66 66q-142 157 -264 201q-59 20 -147 20h-172v-465h41
q103 0 165 41q70 41 138 152h39v-426h-39l-23 37l-24 30l-37 31q-26 29 -80 63t-139 33h-41v-526h180l33 8l73 14l60 19q51 20 127 82q145 115 245 246h35v-406h-1380v37h53q66 0 94 6q68 15 80 72q13 50 13 106v725l-11 53q-4 38 -73 59q-33 9 -103 9h-53v41h1366v-403z
" />
    <glyph glyph-name="igrave" unicode="&#xec;" horiz-adv-x="946" 
d="M256 1501l176 -155l-29 155h-147zM559 1196h-33l-389 352h359zM309 92q-10 -23 -41 -55h305l-26 55h-238zM543 121v69h-219l-7 -69h226zM324 289v-72h219v72h-219zM324 387v-70h219v70h-219zM324 487v-69h219v69h-219zM324 588v-70h219v70h-219zM324 686v-72h219v72h-219
zM324 786v-69h219v69h-219zM324 887v-72h219v72h-219zM543 911v74h-226l5 -41l2 -33h219zM573 1063h-305q18 -12 23 -21l18 -28h238q3 22 26 49zM905 0h-864v37h53q66 0 92 6q69 16 82 72q13 50 13 106v721l-11 53q-7 68 -176 68h-53v41h864v-41h-53q-113 -1 -137 -21
t-35 -49l-12 -49l-2 -61v-715q0 -101 90 -124q31 -7 96 -7h53v-37z" />
    <glyph glyph-name="iacute" unicode="&#xed;" horiz-adv-x="950" 
d="M473 1352l174 157h-145zM819 1556l-389 -354h-35l66 354h358zM309 92q-8 -23 -41 -55h307l-26 55h-240zM545 121v69h-221l-7 -69h228zM326 291v-72h219v72h-219zM326 389v-70h219v70h-219zM326 489v-69h219v69h-219zM326 592v-72h219v72h-219zM326 690v-72h219v72h-219z
M326 791v-72h219v72h-219zM326 891v-72h219v72h-219zM545 918v73h-228l5 -41l2 -32h221zM575 1069h-307q20 -12 25 -22l16 -29h240q6 24 26 51zM909 0h-868v37h53q66 0 94 6q71 15 81 72q12 53 12 108v725l-11 53q-4 38 -73 59q-33 9 -103 9h-53v41h868v-41h-53
q-113 0 -145 -27q-18 -14 -29 -43l-10 -49l-2 -63v-717q0 -27 8 -51q4 -29 33 -51q31 -31 145 -31h53v-37z" />
    <glyph glyph-name="icircumflex" unicode="&#xee;" horiz-adv-x="946" 
d="M469 1360l63 -117h130l-66 117h-127zM518 1503h-127l60 -110h129zM813 1196h-309l-148 262l-166 -262h-53l219 354h265zM309 92q-10 -23 -41 -55h305l-26 55h-238zM543 121v69h-219l-7 -69h226zM324 289v-72h219v72h-219zM324 389v-70h219v70h-219zM324 487v-69h219v69
h-219zM324 588v-70h219v70h-219zM324 688v-72h219v72h-219zM324 786v-69h219v69h-219zM324 889v-74h219v74h-219zM543 913v74h-226l5 -41l2 -33h219zM573 1065h-305q18 -12 23 -23l18 -28h238q3 24 26 51zM905 0h-864v37h53q66 0 92 6q69 16 82 72q13 50 13 106v723l-11 53
q-4 38 -73 59q-33 9 -103 9h-53v41h864v-41h-53q-113 -1 -137 -21t-35 -49l-12 -49l-2 -61v-715q0 -28 7 -54q15 -54 83 -72q31 -7 96 -7h53v-37z" />
    <glyph glyph-name="idieresis" unicode="&#xef;" horiz-adv-x="946" 
d="M590 1354q18 -88 108 -101q37 37 50 101h-158zM698 1489q-44 -6 -70 -29t-38 -76h160q-1 66 -52 105zM154 1354q16 -84 104 -101q39 37 51 101h-155zM311 1384q0 34 -7 53t-46 52q-45 -6 -70 -29t-36 -76h159zM547 1388q0 50 44 95t107 45q62 0 110 -46t48 -110t-44 -110
q-44 -48 -111 -48t-111 46q-20 26 -32 52t-11 76zM262 1528q66 0 111 -45t45 -109t-45 -112t-111 -48t-110 46q-20 26 -32 52t-14 76q0 50 46 95q44 45 110 45zM309 92q-10 -23 -41 -55h305l-26 55h-238zM543 121v69h-219l-7 -69h226zM324 289v-72h219v72h-219zM324 389v-72
h219v72h-219zM324 487v-69h219v69h-219zM324 588v-70h219v70h-219zM324 688v-74h219v74h-219zM324 786v-69h219v69h-219zM324 887v-72h219v72h-219zM543 913v74h-226l5 -41l2 -33h219zM573 1063h-305q18 -10 23 -21l18 -28h238q3 22 26 49zM905 0h-864v37h53q66 0 92 6
q69 16 82 72q13 50 13 106v723l-11 51q-6 68 -176 68h-53v41h864v-41h-53q-113 0 -145 -27q-16 -12 -27 -43l-12 -47l-2 -63v-715q0 -101 90 -124q31 -7 96 -7h53v-37z" />
    <glyph glyph-name="eth" unicode="&#xf0;" horiz-adv-x="1642" 
d="M547 1075h-277q23 -18 37 -41h240v41zM547 997h-225q6 -37 6 -94h219v94zM547 866h-219v-92h219v92zM547 739h-219v-92h219v92zM743 608h-196l-219 4l-226 -6v-82h226l219 -4l196 4v84zM547 483h-219v-94h219v94zM547 354h-219v-92h219v92zM547 225h-219q0 -59 -6 -92
h225v92zM547 37v59h-236q-4 -18 -16 -30l-25 -29h277zM1186 1034l-25 13l-45 16l-92 12q35 -12 63 -41h99zM1102 96q-29 -33 -78 -59q86 12 174 59h-96zM1176 225l-19 -49l-24 -43h120q51 41 93 92h-170zM1204 354l-18 -92h182l29 57l16 35h-209zM1212 483l-4 -94h215l15 53
l4 41h-230zM1214 612v-92h230l2 37l-2 55h-230zM1208 739l4 -92h228l-27 92h-205zM1182 866l20 -92h197l-19 43l-28 49h-170zM1120 997q29 -37 49 -94h156l-33 41l-51 53h-121zM907 43q260 0 260 500q0 217 -28 325q-47 174 -168 197q-45 10 -170 10h-129v-436h194v-150
h-194v-452h143zM283 930q0 92 -46 119t-143 26h-53v41h932q43 0 63 -4q43 0 107 -16q203 -31 338 -195q121 -156 121 -337t-106 -335t-282 -198l-186 -23l-102 -6l-58 -2h-827v37h53q111 0 150 33t39 153v266h-211v150h211v291z" />
    <glyph glyph-name="ntilde" unicode="&#xf1;" horiz-adv-x="1691" 
d="M791 1354l108 -58q62 -34 166 -34l49 4l45 18l-22 -2q-31 0 -88 16l-56 17q-50 24 -73 39h-129zM864 1386q-133 78 -248 78l-55 -6l-63 -24h18l31 2q90 0 186 -50h131zM548 1393q-68 0 -108 -27t-94 -125l-33 23q84 152 161 216t178 64q100 0 234 -72t193 -94t99 -22
q92 0 157 131l19 35l37 -17q-125 -289 -328 -288q-115 0 -238 65l-137 78q-72 33 -140 33zM1343 950q0 16 17 58h-49zM1237 1069q24 -12 47 -33h90l27 33h-164zM326 100l-13 66l-14 -31l-25 -35h52zM203 35h164l-27 37h-92zM1346 90h-82l82 -78v78zM1346 119v71h-187l78 -71
h109zM1346 217v72h-293l75 -72h218zM946 391l76 -72h313l-78 72h-311zM840 492l73 -74h316l-76 74h-313zM733 590l76 -70h313l-78 70h-311zM627 690l75 -72h316l-78 72h-313zM522 793l74 -74h313l-75 74h-312zM414 891l75 -72h316l-78 72h-313zM305 991l37 -30l43 -43h313
l-77 73h-316zM535 1069h-347l37 -20l45 -31h322zM41 35q268 0 266 303v602l-37 35l-61 43q-78 49 -113 49l-37 2l-6 41h631l649 -614v274q0 299 -243 299v41h561v-41l-72 -2l-51 -18q-143 -59 -144 -279v-809h-36l-992 938v-561q0 -145 62 -224t182 -79v-35h-559v35z" />
    <glyph glyph-name="ograve" unicode="&#xf2;" horiz-adv-x="1568" 
d="M567 1505l174 -157l-26 157h-148zM870 1198h-32l-389 354h356zM946 2q104 12 205 88h-127q-39 -57 -78 -88zM1073 188l-18 -41l-17 -28h148l33 28l34 41h-180zM1102 289l-10 -39l-11 -33h193l24 35l21 37h-217zM1120 389l-10 -72h223l25 72h-238zM1126 489l-2 -71h244
l12 71h-254zM1126 588v-70h256v27l-2 43h-254zM1120 688l4 -72h254l-16 72h-242zM1104 788l12 -71h238l-27 71h-223zM1077 889l21 -72h215l-21 37l-22 35h-193zM1032 987l19 -37l16 -37h180l-33 39l-40 35h-142zM1096 1038l-45 21l-103 37l39 -41l29 -39h119zM373 90
q92 -51 200 -72q-43 37 -71 72h-129zM242 188q41 -41 88 -69h151l-45 69h-194zM162 289l26 -39l29 -33h203l-31 72h-227zM113 389l32 -72h234l-17 72h-249zM90 489l8 -43l6 -28h252l-8 41l-2 30h-256zM86 588v-33l2 -37h254v70h-256zM102 688l-12 -72h254l10 72h-252z
M141 788l-30 -71h249l19 71h-238zM209 889l-31 -37l-20 -35h231l31 72h-211zM315 987l-45 -35l-37 -39h203l23 39l26 35h-170zM582 1096l-68 -15l-49 -14l-47 -20l-60 -31h148zM492 544q0 -190 70 -366t233 -176q139 0 215 137t75 393v21q1 260 -75 405q-80 143 -213 144
h-27l-45 -4q-35 -8 -49 -25q-82 -51 -133 -195t-51 -334zM1528 539q0 -141 -62 -261t-172 -196q-176 -121 -504 -121q-168 0 -290 37q-123 37 -240 127q-219 168 -219 438t235 443q182 135 504 135t535 -164t213 -438z" />
    <glyph glyph-name="oacute" unicode="&#xf3;" horiz-adv-x="1576" 
d="M782 1356l176 157h-147zM1130 1561l-391 -357h-32l63 357h360zM950 2q106 12 207 88h-127q-41 -57 -80 -88zM1077 190l-16 -40l-17 -31h148l33 31l35 40h-183zM1108 291l-10 -41l-11 -33h195l23 35l22 39h-219zM1126 391l-10 -72h223l27 72h-240zM1133 492l-3 -72h246
l10 72h-253zM1133 592v-72h256v29l-3 43h-253zM1126 692l4 -74h254l-14 74h-244zM1110 793l12 -72h240l-27 72h-225zM1083 893l21 -72h215l-21 37l-22 35h-193zM1036 993l21 -37l16 -38h180l-32 40l-41 35h-144zM1102 1044l-45 21l-105 37l39 -43l31 -39h119zM373 90
q94 -51 205 -72q-43 37 -74 72h-131zM242 190q41 -41 88 -71h153l-45 71h-196zM162 291l28 -41l27 -33h205l-31 74h-229zM113 391l34 -72h234l-16 72h-252zM90 492l8 -43l8 -29h252l-8 43l-2 29h-258zM86 592v-33l2 -39h256v72h-258zM104 692l-14 -74h256l10 74h-252z
M143 793l-32 -72h251l19 72h-238zM209 893l-29 -37l-22 -35h233l31 72h-213zM317 993l-45 -35l-36 -40h202l23 40l26 35h-170zM586 1100l-70 -13l-49 -14l-107 -53h148zM801 1108h-27l-45 -4q-35 -10 -51 -25q-82 -51 -132 -196t-50 -336t70 -368t233 -177q141 0 217 138
t76 395v22q0 261 -76 406q-80 145 -215 145zM1536 543q0 -143 -61 -263t-158 -186q-198 -134 -504 -133q-186 0 -310 37t-241 127q-221 170 -221 442t238 443q181 137 505 137t539 -164q213 -166 213 -440z" />
    <glyph glyph-name="ocircumflex" unicode="&#xf4;" horiz-adv-x="1576" 
d="M784 1368l66 -117h129l-66 117h-129zM836 1513h-129l59 -110h131zM1133 1204h-314l-147 264l-168 -264h-51l219 357h266zM950 2q106 12 207 88h-127q-41 -57 -80 -88zM1077 190l-16 -40l-17 -31h148l33 31l35 40h-183zM1108 291l-10 -41l-11 -33h195l23 35l22 39h-219z
M1126 391l-10 -72h223l27 72h-240zM1133 492l-3 -72h246l10 72h-253zM1133 592v-72h256v29l-3 43h-253zM1126 692l4 -74h254l-14 74h-244zM1110 793l12 -72h240l-27 72h-225zM1083 893l21 -72h215l-21 37l-22 35h-193zM1036 993l21 -37l16 -38h180l-32 40l-41 35h-144z
M1102 1044l-45 21l-105 37l39 -43l31 -39h119zM373 90q94 -51 205 -72q-43 37 -74 72h-131zM242 190q41 -41 88 -71h153l-45 71h-196zM162 291l28 -41l27 -33h205l-31 74h-229zM113 391l34 -72h234l-16 72h-252zM90 492l8 -43l8 -29h252l-8 43l-2 29h-258zM86 592v-33l2 -39
h256v72h-258zM104 692l-14 -74h256l10 74h-252zM143 793l-32 -72h251l19 72h-238zM209 893l-29 -37l-22 -35h233l31 72h-213zM317 993l-45 -35l-36 -40h202l23 40l26 35h-170zM586 1100l-70 -13l-49 -14l-107 -53h148zM801 1108h-27l-45 -4q-35 -10 -51 -25
q-82 -51 -132 -196t-50 -336t70 -368t233 -177q141 0 217 138t76 395v22q0 261 -76 406q-80 145 -215 145zM1536 543q0 -143 -61 -263t-158 -186q-198 -134 -504 -133q-186 0 -310 37t-241 127q-221 170 -221 442t238 443q181 137 505 137t539 -164q213 -166 213 -440z" />
    <glyph glyph-name="otilde" unicode="&#xf5;" horiz-adv-x="1574" 
d="M764 1356l108 -58q66 -36 166 -36l47 4l45 20l-20 -2q-31 0 -88 16l-57 17q-46 22 -72 39h-129zM520 1436q90 0 185 -47h131q-130 77 -246 77l-58 -6l-61 -24h49zM520 1393q-69 0 -107 -26t-96 -124l-32 21q83 154 161 218t178 64t244 -76q115 -66 185 -88q59 -25 98 -24
q88 0 158 131l18 35l37 -17q-125 -291 -328 -290q-121 0 -237 67l-140 78q-70 31 -139 31zM950 2q104 12 205 88h-127q-39 -57 -78 -88zM1077 190l-18 -40l-17 -31h148l33 31l34 40h-180zM1106 291l-10 -41l-11 -33h195l23 35l22 39h-219zM1126 391l-12 -72h225l25 72h-238z
M1130 492l-2 -72h246l10 72h-254zM1130 592v-72h256v29l-2 43h-254zM1126 690l2 -72h256l-16 72h-242zM1108 793l14 -72h238l-27 72h-225zM1083 893l19 -74h215l-19 39l-24 35h-191zM1036 993l35 -75h182l-34 38l-41 37h-142zM1139 1020l-84 45l-103 37l39 -43l29 -39h119z
M373 90q94 -51 202 -72q-43 37 -71 72h-131zM242 190q41 -41 88 -71h153l-45 71h-196zM162 291l28 -41l27 -33h205l-31 74h-229zM113 391l34 -72h234l-19 72h-249zM90 492l8 -43l6 -29h254l-8 43l-2 29h-258zM86 592v-35l2 -37h256v72h-258zM104 690l-14 -72h256l10 72h-252
zM143 793l-32 -72h249l21 72h-238zM209 893l-29 -37l-22 -37h233l31 74h-213zM317 993l-45 -37l-39 -38h205l23 38l26 37h-170zM584 1100l-68 -15l-49 -12l-107 -53h148zM799 1108h-25l-45 -4q-35 -10 -51 -25q-82 -51 -133 -197t-51 -336t70 -367t233 -177q141 0 217 138
t76 395v20q0 263 -76 408q-80 145 -215 145zM1534 543q0 -143 -61 -263q-162 -319 -680 -319q-168 0 -291 37t-240 127q-221 168 -221 440t235 445q184 137 507 137t538 -164q213 -166 213 -440z" />
    <glyph glyph-name="odieresis" unicode="&#xf6;" horiz-adv-x="1574" 
d="M895 1360q18 -88 106 -100q41 39 52 100h-158zM1001 1497q-43 -6 -69 -29t-37 -77h160q-1 67 -54 106zM455 1360q16 -84 106 -100q39 39 51 100h-157zM614 1391q0 35 -7 54t-46 52q-45 -6 -71 -29t-37 -77h161zM1163 1380q0 -64 -45 -112q-46 -47 -114 -47t-109 45
q-45 44 -45 112t45 113t109 45t111 -46q48 -46 48 -110zM721 1380q0 -66 -45 -112q-45 -47 -114 -47t-109 45q-45 44 -45 112t45 113t111 45t112 -45q45 -45 45 -111zM950 2q104 12 205 88h-127q-39 -57 -78 -88zM1077 190l-18 -40l-17 -31h148l33 31l34 40h-180zM1106 289
l-10 -39l-11 -33h195l45 72h-219zM1126 391l-12 -72h225l25 72h-238zM1130 492l-2 -74h246l10 74h-254zM1130 590v-70h256v27l-2 43h-254zM1126 690l2 -72h256l-16 72h-242zM1108 791l14 -72h238l-27 72h-225zM1083 891l19 -72h215l-19 37l-24 35h-191zM1036 991l19 -37
l16 -36h182l-34 38l-41 35h-142zM1100 1042l-45 21l-103 37l39 -43l29 -39h119zM373 90q94 -51 202 -72q-43 37 -71 72h-131zM242 190q41 -41 88 -71h153l-45 71h-196zM162 289l28 -39l27 -33h205l-31 72h-229zM113 391l34 -72h234l-19 72h-249zM90 492l14 -74h254l-8 43
l-2 31h-258zM86 590v-33l2 -37h256v70h-258zM104 690l-14 -72h256l10 72h-252zM143 791l-32 -72h249l21 72h-238zM209 891l-29 -37l-22 -35h233l31 72h-213zM317 991l-45 -35l-39 -38h205l23 38l26 35h-170zM584 1098l-68 -13l-49 -14l-107 -53h148zM799 1106h-25l-45 -4
q-35 -10 -51 -25q-82 -51 -133 -196t-51 -335t70 -367t233 -177q141 0 217 138t76 395v20q0 261 -76 406q-80 145 -215 145zM1534 541q0 -141 -61 -262q-160 -318 -680 -318q-168 0 -291 37t-240 127q-221 168 -221 439t235 444q184 137 507 137t538 -164q213 -166 213 -440
z" />
    <glyph glyph-name="divide" unicode="&#xf7;" 
d="M387 227l37 -41l18 -6l41 -10q18 18 39 57h-135zM535 319h-160l-2 -30l4 -35h153l5 41v24zM483 412q-41 -6 -59 -19q-20 -8 -39 -47h143q-12 39 -45 66zM330 293q0 67 45 111t109 44t111 -44q46 -44 46 -112t-46 -113q-47 -46 -109 -46t-109 47t-47 113zM387 991
q16 -25 37 -43l18 -6l41 -8q14 12 39 57h-135zM535 1083h-160l-2 -32l4 -33h153l5 39v26zM483 1174q-45 -6 -61 -16t-37 -46h143q-12 37 -45 62zM486 897q-64 0 -110 46t-46 112q0 65 46 111t110 46t110 -45q45 -45 45 -113t-45 -112q-46 -45 -110 -45zM74 582h714v86h-714
v-86zM788 713v51h-714v-51h714zM944 795v-242h-903v242h903z" />
    <glyph glyph-name="oslash" unicode="&#xf8;" horiz-adv-x="1576" 
d="M1010 63q-12 -18 -54 -55q127 18 234 113h-143zM1098 240l-33 -86h160q39 39 69 86h-196zM1124 360l-18 -86h207l24 48l17 38h-230zM1135 479l-7 -86h236l18 86h-247zM1137 510h249v37l-2 53h-249l2 -22v-68zM1133 631h247l-22 86h-234l9 -74v-12zM1100 838l10 -39
l10 -47h228l-43 86h-205zM1059 958l35 -86h192l-29 43l-43 43h-155zM1130 1028l-43 23l-36 16l-90 27q45 -45 81 -105h138zM334 121q113 -76 239 -96q-59 49 -92 96h-147zM205 240l39 -45l45 -41h170l-27 45l-18 41h-209zM133 360l21 -41l26 -45h217l-26 86h-238zM98 479
l8 -45l13 -41h243l-14 86h-250zM92 600l-2 -41l4 -49h252l-2 49l2 41h-254zM117 717l-11 -37l-10 -49h252l14 86h-245zM172 838l-22 -41l-21 -45h242l26 86h-225zM279 958l-48 -40l-34 -46h217l20 46l27 40h-182zM526 1038l56 56l-72 -13l-74 -18q-48 -22 -114 -74h161z
M799 4q139 0 215 140t76 388q0 132 -23 256l-535 -501q40 -147 103 -215t164 -68zM803 1108q-76 0 -121 -29q-80 -51 -132 -198t-52 -295t26 -252l531 502q-70 272 -252 272zM1536 541q0 -135 -61 -257t-170 -202q-177 -119 -489 -119t-497 119l-147 -135l-27 33l138 129
q-242 178 -242 450t238 453q186 137 486 137t492 -121l148 137l27 -32l-136 -129q240 -172 240 -463z" />
    <glyph glyph-name="ugrave" unicode="&#xf9;" horiz-adv-x="1617" 
d="M627 1495l174 -156l-27 156h-147zM930 1190h-33l-387 352h354zM1268 1001l24 -34l17 -35q0 31 16 69h-57zM1362 1059h-162l41 -29h98zM547 1008q4 27 24 51h-305q29 -20 39 -51h242zM539 907v21l2 41v12h-226l9 -74h215zM539 811v72h-215v-72h215zM539 713v71h-215v-71
h215zM539 610v72h-215v-72h215zM539 514v70h-215v-70h215zM539 414v71h-215v-71h215zM539 315v72h-215v-37l6 -35h209zM547 215l-6 72h-209l6 -45l12 -27h197zM580 119l-15 26l-14 43h-186l24 -36l29 -33h162zM502 51l57 -26l66 -19l69 -4l-57 39l-41 47h-147zM1577 1100
v-41q-229 -23 -229 -297v-307q0 -119 -16 -179t-60 -133q-125 -182 -500 -182q-199 0 -330 84q-70 45 -104 107t-47 116q-12 53 -12 176v494l-11 51q0 14 -21 36q-23 22 -55 28t-98 6h-53v41h862v-41h-51q-114 0 -150 -29t-36 -151v-590q0 -125 53 -185q72 -92 203 -92
q94 0 180 44q153 78 185 240q9 46 9 175v291q0 297 -241 297v41h522z" />
    <glyph glyph-name="uacute" unicode="&#xfa;" horiz-adv-x="1626" 
d="M842 1346l176 157h-148zM1188 1550l-389 -354h-33l65 354h357zM1274 1008l24 -35l17 -35q0 29 18 70h-59zM1370 1065h-164l41 -31h99zM549 1014q6 27 24 51h-307q29 -20 41 -51h242zM541 911v23l2 41v12h-226l9 -76h215zM541 815v72h-215v-72h215zM541 717v71h-215v-71
h215zM541 614v72h-215v-72h215zM541 518v70h-215v-70h215zM541 416v71h-215v-71h215zM541 317v72h-215v-37l4 -35h211zM549 215l-6 74h-211l8 -45l12 -29h197zM582 119l-15 26l-12 43h-188l24 -36l29 -33h162zM504 53l57 -28l68 -19l69 -4l-59 39l-39 49h-149zM1585 1104
v-39q-231 -23 -231 -299v-309q0 -119 -14 -181t-62 -133q-125 -182 -502 -182q-201 0 -330 84q-74 47 -108 109t-46 116q-11 55 -11 176v498l-11 49q-2 16 -23 38q-23 22 -55 28t-98 6h-53v39h868v-39h-53q-115 0 -147 -29q-39 -26 -39 -153v-592q0 -125 51 -187
q74 -92 205 -92q96 0 182 44q116 59 158 157q18 39 27 85t10 177v291q0 299 -242 299v39h524z" />
    <glyph glyph-name="ucircumflex" unicode="&#xfb;" horiz-adv-x="1622" 
d="M840 1356l63 -117h129l-63 117h-129zM891 1499h-129l61 -110h127zM1186 1194h-312l-147 260l-164 -260h-53l217 352h264zM1270 1006l26 -35l15 -35q0 29 18 70h-59zM1366 1061h-164l41 -29h100zM547 1012q6 27 26 49h-307q29 -18 41 -49h240zM539 909v23l2 41v10h-226
l9 -74h215zM539 813v72h-215v-72h215zM539 715v71h-215v-71h215zM539 612v72h-215v-72h215zM539 516v70h-215v-70h215zM539 416v71h-215v-71h215zM539 315v72h-215v-37l6 -35h209zM547 215l-6 72h-209l8 -45l12 -27h195zM580 119l-13 26l-14 43h-188l24 -36l31 -33h160z
M502 53l59 -28l66 -19l69 -4l-57 39l-41 49h-147zM1581 1102v-41q-231 -20 -231 -297v-307q0 -119 -14 -181t-62 -133q-123 -182 -500 -182q-201 0 -330 84q-72 45 -106 107t-47 117q-12 54 -12 177v494l-9 51q-2 16 -23 37q-23 20 -55 26t-98 7h-53v41h864v-41h-51
q-114 0 -150 -29t-36 -151v-592q0 -123 51 -185q74 -92 205 -92q94 0 190 48t150 153q16 37 26 84t10 176v291q0 297 -243 297v41h524z" />
    <glyph glyph-name="udieresis" unicode="&#xfc;" horiz-adv-x="1617" 
d="M956 1346q16 -86 107 -99q39 37 49 99h-156zM1114 1376q0 66 -51 105q-45 -6 -71 -28t-36 -77h158zM520 1346q16 -84 105 -99q39 37 51 99h-156zM678 1376q0 33 -6 56q-8 16 -47 49q-43 -6 -69 -28t-38 -77h160zM1064 1520q62 0 110 -45t47 -110q0 -65 -44 -111t-112 -46
t-109 45q-45 43 -45 111t45 112q46 44 108 44zM629 1520q67 0 111 -44t44 -110t-45 -112t-113 -46t-109 44q-42 44 -42 112t44 112t110 44zM1268 1001l24 -34l17 -35q0 29 16 69h-57zM1362 1057h-162l41 -29h98zM547 1008q4 27 24 49h-305q29 -18 39 -49h242zM539 907v21
l2 41v12h-226l9 -74h215zM539 809v72h-215v-72h215zM539 711v71h-215v-71h215zM539 610v72h-215v-72h215zM539 514v70h-215v-70h215zM539 414v71h-215v-71h215zM539 315v72h-215v-37l6 -35h209zM547 215l-6 72h-209l6 -45l12 -27h197zM580 117l-15 28l-14 41h-186l24 -34
l29 -35h162zM502 51l57 -26l66 -19l69 -4l-57 39l-41 47h-147zM1577 1098v-41q-229 -20 -229 -295v-307q0 -119 -16 -179t-60 -133q-125 -182 -500 -182q-199 0 -330 84q-70 45 -104 107t-47 116q-12 53 -12 176v494l-11 49q0 16 -21 38q-23 22 -55 27t-98 5h-53v41h862v-41
h-51q-115 0 -147 -27q-39 -26 -39 -151v-590q0 -125 53 -185q72 -92 203 -92q94 0 180 44q153 78 185 240q9 46 9 175v291q0 295 -241 295v41h522z" />
    <glyph glyph-name="yacute" unicode="&#xfd;" horiz-adv-x="1671" 
d="M817 1343l174 156h-145zM1161 1546l-387 -352h-33l64 352h356zM569 1010l6 26l23 23h-379l33 -19l29 -30h288zM610 909l-18 23q-11 14 -21 49h-270l12 -14l39 -58h258zM680 811l-53 70h-254l51 -70h256zM750 713l-54 71h-254l52 -71h256zM817 612l-49 74h-256l51 -74h254
zM887 516l-51 70h-254l51 -70h254zM680 90l-14 -29l-25 -24h305l-24 53h-242zM696 188v-34l-8 -35h227v10l-2 41v18h-217zM696 289v-72h217v72h-217zM696 389v-74h217v74h-217zM696 416h217v61l-6 12h-256l45 -65v-8zM1251 981l13 -39l4 -43l30 45l33 37h-80zM1409 1059
h-213l41 -49h117zM1229 907q0 72 -46 112t-124 40h-33v41h604v-41q-106 0 -204 -77t-226 -257l-162 -231v-326q0 -67 34 -97q17 -15 56 -30l99 -4h49v-37h-862v37h53q65 0 91 6q66 16 87 78q8 50 8 100v193l-374 530q-82 115 -201 115h-37v41h866v-41h-57q-127 0 -127 -62
q0 -27 29 -67l274 -381l137 194q66 92 66 164z" />
    <glyph glyph-name="ydieresis" unicode="&#xff;" horiz-adv-x="1693" 
d="M575 1024l9 29l22 22h-385l33 -20l31 -31h290zM616 922l-16 24q-15 20 -22 51h-273l51 -75h260zM688 823l-53 72h-256l51 -72h258zM758 725l-51 72h-258l51 -72h258zM827 623l-49 73h-258l51 -73h256zM899 524l-51 70h-258l51 -70h258zM690 92l-16 -29l-25 -26h309
l-24 55h-244zM707 193v-37l-9 -37h230v12l-2 41v21h-219zM707 293v-74h219v74h-219zM707 395v-76h219v76h-219zM707 422h219v63l-6 11h-258l45 -66v-8zM1268 997l12 -41l4 -43l31 45l35 39h-82zM1430 1075h-218l43 -51h117zM1073 1075h-35v41h615v-41q-109 0 -208 -79
t-228 -261l-164 -235v-330q0 -28 7 -54q12 -47 85 -75l98 -4h51v-37h-874v37h53q67 0 93 6q68 15 87 80q11 46 11 100v197l-381 541q-80 115 -205 114h-37v41h879v-41h-60q-127 0 -127 -63q0 -27 29 -68l276 -387l142 199q66 88 66 163t-47 115q-46 40 -126 41zM975 1368
q16 -88 106 -100q41 37 52 100h-158zM1081 1505q-45 -7 -71 -29t-35 -77h160q-1 67 -54 106zM532 1368q16 -84 107 -100q39 37 51 100h-158zM692 1399q0 33 -7 53t-46 53q-45 -7 -71 -29t-38 -77h162zM1086 1229q-68 0 -112 45q-44 44 -44 112t45 114t109 46t112 -47
t47 -113q0 -66 -45 -112q-45 -45 -112 -45zM801 1386q0 -68 -46 -112q-46 -45 -113 -45t-112 45q-45 44 -45 112t45 114t112 46t113 -46t46 -114z" />
    <glyph glyph-name="dotlessi" unicode="&#x131;" horiz-adv-x="946" 
d="M309 92q-12 -27 -41 -55h305l-26 55h-238zM543 119v69h-219l-7 -69h226zM324 287v-72h219v72h-219zM324 385v-70h219v70h-219zM324 483v-69h219v69h-219zM324 584v-72h219v72h-219zM324 682v-72h219v72h-219zM324 778v-69h219v69h-219zM324 879v-70h219v70h-219zM543 905
v72h-226l5 -41l2 -31h219zM573 1055h-305q18 -12 23 -21l18 -30h238q3 24 26 51zM905 0h-864v37h53q66 0 92 6t54 23q41 41 41 153v715l-11 53q-7 68 -176 68h-53v41h864v-41h-53q-113 -1 -137 -21t-35 -49l-12 -49l-2 -62v-706q0 -67 38 -99t148 -32h53v-37z" />
    <glyph glyph-name="Lslash" unicode="&#x141;" horiz-adv-x="1423" 
d="M825 1526h-129l-65 -119h131zM612 1374l-59 -110h129l61 110h-131zM516 1214l-219 359h53l166 -266l150 266h315l-197 -359h-268zM109 158h137q-72 47 -137 139v-139zM109 129v-102l133 102h-133zM1163 948h-82l82 -88v88zM1163 977v67l-80 -67h80zM1214 190l3 -28
q2 -25 -5 -43l-22 -49q29 16 51 47l16 28l19 45h-62zM1135 291q27 -16 36 -31l33 -41h80l6 68zM715 393l86 -10q170 -25 270 -64h217l-6 39l-14 35h-553zM256 496l25 -13q61 -35 243 -61h731q-23 37 -65 74h-934zM127 594l39 -41l41 -29h942l-90 41q-39 16 -107 29h-825z
M84 696l8 -32l21 -41h673l-264 41q-127 21 -168 32h-270zM80 797l-4 -35l4 -37h199q-53 18 -82 72h-117zM172 881v16h-63l-15 -37l-10 -35h98q-10 29 -10 56zM190 977l29 45l-53 -41l-45 -57h55q6 41 14 53zM1174 158q0 70 -68 108q-42 26 -96 37l-183 37l-317 49
q-240 35 -354 124t-115 253q0 164 146 276t385 111q239 0 466 -168l197 154h27v-422h-35l-66 96q-2 4 -11 14t-13 15l-43 45q-221 229 -539 229q-131 0 -213 -48t-82 -124t78 -113q73 -28 98 -32l164 -31l285 -47q170 -29 270 -68q227 -84 227 -317q0 -170 -136 -272
t-356 -103q-220 0 -390 92q-141 83 -168 101l-217 -164h-41v461h41l61 -93l82 -84q284 -272 600 -272t316 156z" />
    <glyph glyph-name="lslash" unicode="&#x142;" horiz-adv-x="1607" 
d="M1024 1808h-135l-68 -120h135zM803 1653l-64 -115h135l64 115h-135zM702 1489l-229 369h55l174 -275l156 275h328l-205 -369h-279zM1407 168v188l-117 -123l-76 -65h193zM1407 47v86h-238l-82 -53l-57 -33h377zM152 113l-48 -66h336l47 66h-335zM240 236l-64 -89h336
l63 89h-335zM328 358l-64 -88h336l64 88h-336zM418 481l-66 -88h336l66 88h-336zM506 604l-64 -88h336l64 88h-336zM594 727l-64 -88h336l64 88h-336zM684 850l-66 -88h336l66 88h-336zM772 973l-63 -88h335l64 88h-336zM860 1096l-63 -88h336l63 88h-336zM950 1219l-65 -89
h336l63 89h-334zM1356 1317h-334l-47 -64h336zM154 1219v-134l45 74l55 60h-100zM154 1317v-64h137q33 27 94 64h-231zM741 47q233 0 414 141q98 76 174 160l92 103l76 108h39v-559h-1495v39l924 1278h-152q-238 0 -389 -115q-96 -77 -145 -141l-66 -86l-59 -105h-48v496
h1461v-41l-926 -1278h100z" />
    <glyph glyph-name="OE" unicode="&#x152;" horiz-adv-x="2820" 
d="M451 113q125 -70 256 -88l-54 49l-37 39h-165zM590 147q-35 44 -58 91h-245q45 -43 108 -91h195zM186 362l29 -47l39 -43h260l-22 47l-17 43h-289zM127 485l39 -88h297l-10 33l-13 55h-313zM96 610l19 -90h317l-12 90h-324zM92 733l-2 -41l2 -47h326l-2 45l2 43h-326z
M113 858l-19 -90h326l10 90h-317zM160 983l-37 -90h315l11 47l14 43h-303zM244 1106l-37 -47l-27 -41h295l19 47l20 41h-270zM379 1233l-55 -43l-50 -49h258l60 92h-213zM659 1309l56 53q-144 -22 -191 -45q-47 -22 -92 -51h189zM1683 47v66h-299q-14 -31 -49 -66h348z
M1405 238v-54l-8 -37h286v91h-278zM1405 362v-90h278v90h-278zM1405 485v-88h278v88h-278zM1405 610v-90h278v90h-278zM1405 733v-88h278v88h-278zM1405 858v-90h278v90h-278zM1405 983v-90h278v90h-278zM1405 1106v-88h278v88h-278zM1683 1141v92h-286l6 -47l2 -45h278z
M1683 1329h-348l23 -20l26 -43h299v63zM2208 739v105l-43 -41l-39 -31l-53 -33h135zM2208 707h-148l66 -39l49 -37l33 -31v107zM2638 162v166l-72 -74l-26 -25l-84 -67h182zM2638 47v80h-230l-57 -37l-92 -43h379zM2619 1217h-163l24 -19l139 -139v158zM2619 1329h-327
l61 -35l60 -43h206v78zM1012 1376q-126 0 -194 -47t-122 -155q-92 -190 -92 -465l6 -127q11 -188 95 -372q49 -108 125 -159t196 -51q190 0 281 86q33 33 42 68t9 122v826l-2 78q-6 47 -14 82q-8 34 -106 74t-224 40zM1014 1423q76 0 239 -45h1508v-501h-43q-70 96 -150 174
l-80 82l-90 73q-88 70 -160 97t-184 26h-215v-581h53q119 0 208 54t169 187h49v-532h-49l-28 45q-12 27 -33 43l-58 53q-18 18 -61 45q-90 55 -197 55h-53v-651h211l55 8q97 16 161 43t163 101q164 121 305 305l45 2v-506h-1517l-164 -37l-150 -8q-385 0 -646 212t-261 530
q0 319 247 523t638 203h88z" />
    <glyph glyph-name="oe" unicode="&#x153;" horiz-adv-x="2301" 
d="M373 90q94 -48 207 -72q-43 37 -72 72h-135zM240 190q37 -37 88 -71h157l-45 71h-200zM160 291l22 -35l31 -37h211l-31 72h-233zM111 393l8 -26l22 -50h242l-8 27l-10 49h-254zM84 496l16 -76h258l-10 76h-264zM82 594l-2 -35l2 -37h264l-2 35l2 37h-264zM98 696l-14 -75
h264l8 75h-258zM137 795l-14 -31l-14 -41h253l9 33l12 39h-246zM205 893l-29 -33l-22 -37h239l31 70h-219zM313 995l-41 -30l-43 -43h211l47 73h-174zM510 1024l78 78l-56 -8l-67 -19l-47 -18l-60 -33h152zM1374 35v55h-244q-10 -29 -38 -55h282zM1374 119v71h-227l-6 -71
h233zM1147 291v-72h227v72h-227zM1147 393v-76h227v76h-227zM1147 496v-76h227v76h-227zM1147 594v-72h227v72h-227zM1147 696v-75h227v75h-227zM1147 795v-72h227v72h-227zM1147 893v-70h227v70h-227zM1374 922v73h-233l4 -41l2 -32h227zM1374 1075h-282q23 -16 38 -51h244
v51zM1798 598v86l-31 -33l-34 -26l-43 -27h108zM1798 571h-119l27 -14l31 -20l28 -21l33 -31v86zM2146 127v137l-51 -53l-96 -84h147zM2146 35v65h-184l-55 -34l-66 -31h305zM2134 985h-135l43 -37l92 -90v127zM2134 1075h-268l98 -63h170v63zM828 1114q-104 0 -156 -36
q-53 -36 -101 -128q-34 -93 -55 -176l-12 -96l-6 -105q0 -223 82 -405q39 -88 101 -128t159 -40q154 0 227 70q18 14 35 53l6 100v668q0 76 -10 113q-10 46 -88 78t-182 32zM758 1151q138 0 266 -35h1223v-405h-35l-60 73l-63 70q-35 45 -201 172q-62 38 -116 43
q-54 6 -99 6h-174v-469h45q96 0 167 42t136 151h43v-430h-43l-20 39q-4 10 -29 30l-35 31q-29 35 -61 51q-72 45 -158 45h-45v-530h182l35 8l72 12l59 25q108 46 264 199q61 59 115 129h35v-408h-1231l-135 -31l-119 -8q-313 0 -524 173t-211 431t202 422t515 164z" />
    <glyph glyph-name="Ydieresis" unicode="&#x178;" horiz-adv-x="2074" 
d="M1135 1610q18 -92 112 -105q41 39 53 105h-165zM1247 1753q-47 -6 -73 -30t-39 -81h168q-1 70 -56 111zM674 1610q16 -88 110 -105q41 39 54 105h-164zM840 1642q0 36 -7 56t-49 55q-48 -6 -74 -30t-38 -81h168zM1415 1630q0 -68 -47 -117t-119 -49t-114 47
q-47 47 -47 118t46 118q48 47 114 47t116 -48t51 -116zM952 1631q0 -69 -47 -118t-119 -49t-114 47q-47 47 -47 118t47 118q46 47 116 47t117 -47t47 -116zM702 1266l9 32l28 31h-475l41 -26l37 -37h360zM754 1141l-21 26q-13 16 -28 64h-336l63 -90h322zM840 1018l-64 88
h-319l63 -88h320zM928 893l-64 90h-319l63 -90h320zM1014 770l-62 88h-319l63 -88h318zM1102 645l-64 88h-317l61 -88h320zM844 115q-4 -14 -21 -35l-30 -33h383q-20 29 -33 68h-299zM1137 147v17l-2 49v25h-271l-2 -43l-8 -48h283zM864 362v-90h271v90h-271zM864 485v-88
h271v88h-271zM864 520h271v78l-9 12h-319l57 -80v-10zM1577 1128v-8l39 60l41 51h-98q18 -55 18 -103zM1757 1329h-270l29 -29l26 -34h146zM1528 1137q0 90 -58 141t-155 51h-41v49h760v-49q-139 0 -258 -92t-281 -328l-203 -288v-345q0 -94 10 -130t39 -62l62 -29l123 -8
h65v-47h-1081v47h65q84 0 113 6q16 0 26 4t13 4l31 21q29 22 40 66t11 128v242l-469 670q-102 141 -252 141h-47v49h1087v-49h-73q-158 0 -158 -78q0 -39 37 -88l340 -477l176 248q78 113 78 203z" />
    <glyph glyph-name="florin" unicode="&#x192;" horiz-adv-x="2418" 
d="M84 -475v-76h162l63 45l51 31h-276zM84 -596v-109l16 25l25 31l61 53h-102zM659 526h89l-21 13l-33 24q-27 27 -35 41v-78zM659 483v-86l48 41q46 31 71 45h-119zM971 -342v14l4 19h-230l-43 -123h349l-37 20q-43 25 -43 70zM989 -262l39 112h-225l-41 -114zM1044 -104
l41 112h-225l-41 -112h225zM1102 51l39 115h-226l-41 -115h228zM1157 211l41 115h-225l-41 -115h225zM1214 371l41 112h-227l-39 -112h225zM1044 526h226l41 115h-226zM1368 801h-227l-39 -115h225zM1425 961h-227l-41 -115h227zM1137 1122q71 -36 69 -118h234l43 118h-346z
M1696 526v78q-16 -27 -41 -45l-51 -33h92zM1696 483h-117l55 -34l33 -23l29 -29v86zM2257 1020h-121l72 -64q33 -27 49 -59v123zM2257 1065v57h-277l29 -12l64 -45h184zM1118 -315q0 -59 50 -88t163 -29h55v-41h-733q-209 0 -441 -229q-71 -70 -134 -154h-37v424h614
l320 911q-164 0 -266 -134q-27 -34 -50 -69h-43v449h58q59 -101 133 -153t186 -52l146 412l14 69q0 53 -48 87t-165 34h-55v43h1493v-424h-37q-72 90 -133 156t-133 117q-145 109 -295 108h-166l-215 -600h31q88 0 137 23q98 47 180 180h41v-449h-41q-117 203 -317 203h-46
l-249 -712q-17 -51 -17 -82z" />
    <glyph glyph-name="circumflex" unicode="&#x2c6;" horiz-adv-x="794" 
d="M389 1434l68 -123h135l-68 123h-135zM442 1585h-135l64 -117h135zM754 1262h-328l-156 276l-174 -276h-55l229 372h279z" />
    <glyph glyph-name="caron" unicode="&#x2c7;" horiz-adv-x="794" 
d="M592 1569h-135l-68 -121h135zM371 1413l-64 -115h135l64 115h-135zM270 1249l-229 369h55l174 -275l156 275h328l-205 -369h-279z" />
    <glyph glyph-name="breve" unicode="&#x2d8;" horiz-adv-x="940" 
d="M195 1378q113 -88 213 -88q-80 31 -121 88h-92zM98 1513q0 -51 60 -104h108l-24 51l-6 53h-138zM502 1249q-217 -1 -339 95t-122 208h324q0 -92 36.5 -175t96.5 -83q109 0 225.5 73t116.5 185h59q0 -123 -125 -213t-272 -90z" />
    <glyph glyph-name="dotaccent" unicode="&#x2d9;" horiz-adv-x="436" 
d="M109 1368q18 -31 38.5 -44t67.5 -19l25 26l20 37h-151zM94 1473l-4 -37l6 -37h174l4 43l-2 31h-178zM215 1575q-82 -8 -111 -72h162q-12 43 -51 72zM218 1264q-75 0 -126 51t-51 124.5t51 125t126 51.5t126 -51.5t51 -125t-51 -124.5t-126 -51z" />
    <glyph glyph-name="ring" unicode="&#x2da;" horiz-adv-x="477" 
d="M241 1604q-56 0 -97.5 -40t-41.5 -96t41 -96.5t97 -40.5t95.5 39.5t39.5 95.5t-37 97q-41 41 -97 41zM436 1465q0 -83 -56 -139t-138 -56t-141.5 55t-59.5 138t57.5 141.5t140.5 58.5t140 -57.5t57 -140.5z" />
    <glyph glyph-name="ogonek" unicode="&#x2db;" horiz-adv-x="409" 
d="M240 -236q0 37 -11 54l-30 35q-49 0 -73 -21.5t-36 -67.5h150zM86 -291q0 -31 9 -47t30 -37q98 18 113 105h-152v-21zM213 -403q0 -49 131 -64v-39q-162 14 -232 78t-71 148q0 82 47 129t117 47t117 -41t47 -101q0 -100 -119 -127q-37 -10 -37 -30z" />
    <glyph glyph-name="tilde" unicode="&#x2dc;" horiz-adv-x="1212" 
d="M543 1421l112 -61q72 -37 174 -37l52 4l47 21l-23 -2q-43 0 -92 16q-37 8 -60.5 19.5t-38.5 18.5t-36 21h-135zM618 1454q-138 82 -258 82l-59 -4l-65 -29h18l33 2q94 0 194 -51h137zM827 1276q-125 0 -247 70l-146 81q-74 33 -146 33t-113.5 -29.5t-98.5 -127.5l-35 22
q88 160 169.5 227.5t187.5 67.5t245 -75t201.5 -98.5t103.5 -23.5q88 0 166 138l19 32l38 -14q-131 -303 -344 -303z" />
    <glyph glyph-name="summation" unicode="&#x3a3;" horiz-adv-x="1802" 
d="M1620 164v160l-86 -84l-92 -76h178zM1620 47v76h-236l-67 -39l-76 -37h379zM666 1192q0 78 41 125h-383q55 -45 67 -125h275zM395 1151v-100h271v100h-271zM395 1010v-103h271v103h-271zM395 868v-100h508l-33 86l-204 -74v88h-271zM395 727v-45l-151 -55h422v43l157 57
h-428zM395 483h271v103l-539 -2l35 -97l233 84v-88zM666 446h-271v-102h271v102zM666 203v100h-271l-2 -100h273zM666 47v115h-277q-10 -70 -65 -115h342zM821 47h162q150 0 281 66q197 100 452 387h45v-500h-1720v47h65q141 0 188 40q46 40 46 187v234l-199 -72l-63 172
l262 97v432q0 96 -33 129q-51 51 -201 51h-65v49h1079v-49h-65q-135 0 -168 -21q-66 -43 -66 -206v-211l180 65l64 -172l-244 -88v-637z" />
    <glyph glyph-name="Omega" unicode="&#x3a9;" horiz-adv-x="579" 
d="M150 549q44 -50 135 -66q33 33 53 66h-188zM98 672l6 -45l21 -43h229l17 43l6 45h-279zM379 707v26l-4 31l-15 33h-235q-20 -37 -27 -90h281zM313 870l-28 25q-59 -6 -80 -23q-27 -8 -55 -41h194q-17 31 -31 39zM539 690q0 -106 -72 -179t-176 -73t-177 72t-73 176
t71.5 179t176 75t177.5 -72t73 -178z" />
    <glyph glyph-name="endash" unicode="&#x2013;" horiz-adv-x="1708" 
d="M74 582h1407v86h-1407v-86zM1481 713v51h-1407v-51h1407zM1667 795v-242h-1626v242h1626z" />
    <glyph glyph-name="emdash" unicode="&#x2014;" 
d="M74 582h714v86h-714v-86zM788 713v51h-714v-51h714zM944 795v-242h-903v242h903z" />
    <glyph glyph-name="quoteleft" unicode="&#x2018;" horiz-adv-x="434" 
d="M276 1038h-178q14 -59 43 -94q31 -25 86 -33q49 49 49 127zM272 1071q-18 63 -47 92t-102 45q-31 -47 -31 -112l2 -25h178zM209 1249q0 -35 43 -47l31 -8q110 -49 110 -164q0 -70 -51 -118t-126 -48t-125 60.5t-50 162.5q0 143 78 224.5t217 81.5l8 -39
q-135 -25 -135 -105z" />
    <glyph glyph-name="quoteright" unicode="&#x2019;" horiz-adv-x="434" 
d="M264 1204h-172q31 -113 162 -112l10 84v28zM246 1294q-2 14 -13.5 30.5t-15.5 23.5q-109 0 -127 -111h170q-6 45 -14 57zM225 1012q0 29 -43 47l-28 8q-47 16 -80 59q-33 49 -33 110t51 110q51 47 124 47t125 -60.5t52 -183.5t-73.5 -204t-221.5 -81l-8 41
q135 29 135 107z" />
    <glyph glyph-name="quotesinglbase" unicode="&#x201a;" horiz-adv-x="434" 
d="M264 145h-172q31 -111 162 -110l10 86v24zM248 238l-10 22l-21 31q-109 0 -127 -111h170zM225 -47q0 31 -43 47l-28 10q-45 12 -79 61t-34 109t38 97t66.5 49t65.5 12q80 0 131 -62t51 -182t-74.5 -203.5t-220.5 -83.5l-8 39q135 25 135 107z" />
    <glyph glyph-name="quotedblleft" unicode="&#x201c;" horiz-adv-x="882" 
d="M725 1038h-178q14 -59 43 -94q31 -25 86 -33q49 49 49 127zM721 1071q-18 63 -47 92t-103 45q-36 -61 -30 -112l2 -25h178zM98 1038q14 -63 43 -94q31 -25 86 -33q29 29 41 54q10 31 11 73h-181zM94 1096v-25h180q-18 65 -50 93t-101 44q-29 -45 -29 -112zM842 1022
q0 -62 -52 -110t-128 -48t-124.5 59t-48.5 183t78 205.5t217 81.5l9 -39q-135 -25 -136 -105q0 -36 43 -47l31 -8q43 -16 77 -63t34 -109zM209 1249q0 -37 43 -47l31 -8q43 -16 76.5 -63t33.5 -109t-51 -110t-123 -48t-125 64.5t-53 158.5q0 143 78 224.5t219 81.5l6 -39
q-135 -25 -135 -105z" />
    <glyph glyph-name="quotedblright" unicode="&#x201d;" horiz-adv-x="882" 
d="M713 1204h-172q31 -113 161 -112l11 84v28zM694 1294q-6 20 -28 54q-109 0 -127 -111h170zM264 1204h-172q31 -113 162 -112l10 84v28zM246 1294q-6 20 -29 54q-109 0 -127 -111h170zM674 1012q0 29 -43 47l-29 8q-45 12 -79 59.5t-34 109.5t52 109q52 48 124 48
t124.5 -60.5t52.5 -181.5t-75 -204t-220 -83l-8 41q135 29 135 107zM225 1012q0 29 -43 47l-28 8q-51 16 -82 60t-31 107t51 112q51 47 124 47t125 -60.5t52 -181.5t-74.5 -204t-220.5 -83l-8 41q135 29 135 107z" />
    <glyph glyph-name="quotedblbase" unicode="&#x201e;" horiz-adv-x="882" 
d="M713 145h-172q31 -111 161 -110l9 45l2 41v24zM696 238l-10 22l-20 31q-109 0 -127 -111h170zM264 145h-172q31 -111 162 -110l10 86v24zM248 238l-10 22l-21 31q-109 0 -127 -111h170zM674 -47q0 31 -43 47l-29 10q-49 16 -81 63t-32 107t52 109t125 49t124.5 -62
t51.5 -182t-75 -203.5t-220 -83.5l-8 39q135 25 135 107zM225 -47q0 31 -43 47l-28 10q-49 12 -80 62q-33 44 -33 106t51 113q51 47 125 47t125 -62t51 -182t-74.5 -203.5t-220.5 -83.5l-8 39q135 25 135 107z" />
    <glyph glyph-name="dagger" unicode="&#x2020;" 
d="M377 29h153v92h-153v-92zM530 164v106h-153v-106h153zM530 422h-153v-109h153v109zM530 463v108h-153v-108h153zM530 723h-153v-109h153v109zM530 766v57h258v51h-714v-51h303v-57h153zM788 915v89h-258v20h-153v-20h-303v-89h714zM530 1274h-153v-57h153v57zM530 1174
h-153v-107h153v107zM342 1305h279v-269h323v-243h-323v-797h-279v797h-301v243h301v269z" />
    <glyph glyph-name="daggerdbl" unicode="&#x2021;" 
d="M530 131v109h-153v-109h153zM530 692h-153v-108h153v108zM530 735v47h258v62h-714v-62h303v-47h153zM788 885v78h-258v30h-153v-30h-303v-78h714zM530 1233h-153v-45h153v45zM530 1145h-153v-109h153v109zM530 356h258v35h-714v-35h303v-73h153v73zM530 88h-153v-100h153
v100zM74 541v-109h714v109h-714zM621 -45h-279v373h-301v243h301v181h-301v243h301v269h279v-269h323v-243h-323v-181h323v-243h-323v-373z" />
    <glyph glyph-name="bullet" unicode="&#x2022;" horiz-adv-x="663" 
d="M328 453q43 43 71 104h-247q45 -81 176 -104zM121 668q0 -49 18 -86h271l10 43l6 43h-305zM426 692q0 41 -12 88h-275l-12 -39l-6 -49h305zM328 903q-120 -12 -176 -98h251q-20 55 -75 98zM332 387q-123 0 -207 84t-84 208t85 208t207 84t206 -82t84 -208t-84 -210
t-207 -84z" />
    <glyph glyph-name="ellipsis" unicode="&#x2026;" horiz-adv-x="1316" 
d="M995 143q18 -90 113 -102q41 35 53 102h-166zM1163 178q0 70 -55 113q-91 -12 -113 -113h168zM1112 0q-70 0 -117 47t-47 117t47 119t117 49t117 -48t47 -119t-47 -118t-117 -47zM543 143q18 -90 112 -102q41 35 54 102h-166zM655 291q-90 -12 -112 -113h168
q-1 70 -56 113zM90 143q16 -88 111 -102q41 35 53 102h-164zM256 178q0 35 -6 58q-8 23 -49 55q-91 -12 -113 -113h168zM659 0q-71 0 -117 47t-46 117t47 119t117 49t116 -48q47 -48 47 -119t-47 -118t-117 -47zM205 0q-70 0 -117 47t-47 117t47 119t119 49t117 -47t45 -119
t-47 -119t-117 -47z" />
    <glyph glyph-name="perthousand" unicode="&#x2030;" horiz-adv-x="3878" 
d="M3045 86l52 -33l65 -37l-37 70h-80zM2933 211l30 -45l17 -21l24 -22h107l-27 88h-151zM2886 336l12 -47l16 -43h162l-8 45l-2 45h-180zM3064 459h-182l-3 -41l3 -47h182l-2 45l2 22v21zM3066 494v43l8 47h-164l-16 -41l-10 -49h182zM2992 709l-37 -45l-28 -46h153l12 44
l17 47h-117zM3154 793l39 34q-63 -12 -86 -28l-31 -19l-47 -39h94zM3453 4q45 12 63 29q25 10 64 53h-80q-14 -43 -47 -82zM3518 211l-2 -12l-8 -76h101l53 88h-144zM3523 336v-14l-2 -76h155l25 90h-178zM3523 459v-88h184l2 47l-2 41h-184zM3523 494h180l-8 47l-15 43
h-159l2 -27v-63zM3666 618q-24 53 -53 91h-105l6 -39l4 -52h148zM3553 770l-32 27l-68 39l22 -37l23 -58h86zM3334 844q-94 0 -129 -105q-10 -25 -10 -69l-4 -119v-209q0 -190 31 -269t112 -79q45 0 82 31t49 98l10 86l5 133v217q-1 285 -146 285zM3340 -49q-216 0 -360 131
q-146 131 -146 331t144 335t352 135t360 -135q148 -135 148 -333t-141 -331t-357 -133zM1888 1386h-221l-63 -98h221zM748 -6h223l73 117h-221zM918 252l-68 -100h223l68 100h-223zM1012 397l-68 -104h223l68 104h-223zM1106 539l-68 -105h224l65 105h-221zM1200 682
l-67 -104h223l67 104h-223zM1296 823l-67 -100h221l68 100h-222zM1323 862h221l68 103h-223zM1415 1006h221l70 104h-221zM1509 1151h222l69 102h-221zM1898 86l52 -33l65 -37l-37 70h-80zM1786 211l31 -45l16 -21l25 -22h106l-27 88h-151zM1739 336l12 -47l16 -43h162
l-8 45l-2 45h-180zM1917 459h-182l-2 -41l2 -47h182l-2 45l2 22v21zM1919 494v43l8 47h-164l-16 -41l-10 -49h182zM1845 709l-37 -45l-28 -46h153l13 44l16 47h-117zM2007 793l39 34q-63 -12 -86 -28l-31 -19l-47 -39h94zM2306 4q45 12 64 29q25 10 63 53h-80
q-14 -43 -47 -82zM2372 211l-2 -12l-9 -76h101l53 88h-143zM2376 336v-14l-2 -76h155l13 43l12 47h-178zM2376 459v-88h184l2 47l-2 41h-184zM2376 494h180l-8 47l-15 43h-159l2 -27v-63zM2519 618q-24 53 -53 91h-105l6 -39l5 -52h147zM2406 770l-32 27l-68 39l23 -37
l22 -58h86zM2187 844q-94 0 -129 -105q-10 -25 -10 -69l-4 -119v-209q0 -190 31 -269t112 -79q45 0 82 31t49 98l11 86l4 133v217q-1 285 -146 285zM250 637l55 -39l64 -35l-21 33l-18 41h-80zM137 762q16 -32 29 -45l41 -45h108l-26 90h-152zM92 885q8 -54 27 -88h162
l-9 34l-2 54h-178zM268 920v90h-182l-2 -43l2 -47h182zM115 1135l-25 -91h180l4 54l7 37h-166zM201 1257l-39 -40l-29 -50h154l12 50l16 40h-114zM399 1374q-59 -10 -84 -28q-27 -8 -77 -54h92q26 49 69 82zM659 553q42 8 66 29q16 8 63 55h-81q-13 -43 -48 -84zM723 762
l-8 -90h102l27 43l24 47h-145zM727 885v-74l-2 -14h158l12 41l12 47h-180zM729 1010v-90h182l2 45l-2 45h-182zM727 1135l2 -91h178l-10 46l-12 45h-158zM713 1257l12 -90h145l-24 47l-29 43h-104zM727 1346q-25 20 -68 36l27 -49l19 -41h83zM539 1393q-43 0 -76 -26
t-49 -69l-15 -81l-4 -119v-207q0 -197 33 -270q31 -78 113 -78q45 1 82 31t49 96l10 88l4 133v219q0 283 -147 283zM2691 415q0 -198 -141 -331q-140 -133 -356 -133t-361 131t-145 331t144 335t352 135t360 -135q147 -135 147 -333zM549 500q-217 0 -363 133
q-145 133 -145 331t142 332t358 136h1527l-976 -1481h-433l947 1435h-844q129 -54 206 -168t76 -253q0 -201 -139 -333t-356 -132z" />
    <glyph glyph-name="guilsinglleft" unicode="&#x2039;" horiz-adv-x="477" 
d="M358 276l-317 308l317 307h78l-309 -307l309 -308h-78z" />
    <glyph glyph-name="guilsinglright" unicode="&#x203a;" horiz-adv-x="477" 
d="M350 584l-309 307h78l317 -307l-317 -308h-78z" />
    <glyph glyph-name="euro" unicode="&#x20ac;" horiz-adv-x="1884" 
d="M1298 510v70q-53 -30 -108 -48l-72 -22h180zM1298 489h-192l84 -26l108 -43v69zM831 516h48q159 0 277 36t224 124h66v-350h-66l-37 30l-45 27l-75 35q-39 17 -82 28q-123 37 -262 37h-45q16 -144 67 -270q80 -197 276 -197q195 0 365 121t275 338l38 -20
q-10 -23 -22 -51t-31 -54l-73 -100q-64 -87 -158 -154q-197 -141 -477 -141q-348 0 -584 211q-149 134 -204 311l-265 -76v197l252 -72q-36 161 -5 318l-245 -70v197l257 -74q49 185 196 322q221 205 569 204q90 0 170 -21t186 -69l74 -33l59 -8q106 0 203 99h37l27 -576
l-33 -8q-6 12 -32 65q-89 182 -185 287q-80 92 -191 150q-113 53 -219 53q-158 0 -248 -176q-59 -118 -79 -295h47q159 0 277 36t224 124h66v-351h-66l-36 31l-46 27l-75 35q-34 17 -82 30q-123 37 -262 37h-50q-16 -183 0 -350v6zM1307 887v67q-62 -30 -111 -47l-70 -20
h181zM1307 864h-195l84 -24l66 -25l45 -20v69zM1602 1196l77 -106l-6 106h-71zM1669 1282q-13 -6 -27 -11t-30 -11l-74 -5l29 -24h104zM659 113q100 -63 220 -88l-48 45l-32 43h-140zM506 238l47 -48l55 -43h166l-24 39l-27 52h-217zM416 362l33 -55l28 -35h232l-35 90h-258
zM360 485l17 -47l20 -41h267l-11 41l-10 47h-283zM334 610l8 -61l8 -29h287l-8 90h-295zM330 733l-2 -41l2 -47h299l-2 31l2 57h-299zM346 858l-14 -90h299l12 90h-297zM387 983l-31 -90h293l21 90h-283zM459 1106l-56 -88h279l14 45l21 43h-258zM580 1231l-52 -45l-41 -45
h246l55 90h-208zM866 1319l60 53l-80 -10l-43 -10l-64 -25l-49 -24l-61 -37h188z" />
    <glyph glyph-name="trademark" unicode="&#x2122;" horiz-adv-x="2027" 
d="M1651 866q-8 -18 -25 -30h172l-14 30h-133zM1782 881v10l-2 18v13h-121l-4 -41h127zM1659 977v-41l121 2v39h-121zM1659 1032v-39h121v39h-121zM1659 1087v-38h121v38h-121zM1659 1143v-39l121 2v37h-121zM1659 1200v-41h121v41h-121zM1659 1255v-38h121v38h-121z
M1659 1313v-41h121v41h-121zM1659 1327h121v10l2 27l-123 4v-41zM1659 1413v-31h125l14 31h-139zM1008 872l-9 35l-20 -35h29zM938 836h92l-14 20h-51zM1321 866l14 -20l11 20h-25zM1288 922l25 -41h41l20 41h-86zM1253 977l27 -41h104l13 29l-6 12h-138zM1221 1032l24 -39
h135l-24 39h-135zM1188 1087l24 -38h136l-25 38h-135zM1153 1143l27 -39l133 2l-23 37h-137zM1120 1200l25 -41h135l-25 41h-135zM1087 1255l25 -38h133l-22 38h-136zM1053 1313l24 -41h135l-22 41h-137zM1020 1368l20 -33l4 -8h136l-25 41h-135zM1128 1413h-159
q23 -8 37 -31h139zM1024 1004q0 -168 137 -168v-21h-313v21q150 0 149 168v356q-37 53 -120 53h-27v23h358l232 -387l198 387h349v-23h-31q-59 0 -82 -17t-23 -85v-373q-1 -66 19 -84t86 -18h31v-21h-488v21h29l53 2q9 0 31 14t22 86v436l-291 -559h-16l-303 502v-313z
M467 1384v31h-123v-31h123zM467 1329v41h-123v-41h123zM467 1274v43h-123v-43h123zM467 1219v38h-123v-38h123zM467 1161v41h-123v-41h123zM467 1106v39h-123v-39h123zM467 1051v39h-123v-39h123zM467 995v39h-123v-39h123zM467 938v41h-123v-41h123zM467 883v41h-123
l-4 -41h127zM311 838h174l-16 30h-133q-9 -18 -25 -30zM61 1364v-66l23 35l25 31h-48zM61 1415v-37h60l37 37h-97zM752 1364h-62q37 -33 62 -74v74zM752 1415h-123l22 -14l23 -23h78v37zM817 1163h-20q-6 27 -33 70l-43 67l-35 39l-59 54q-35 23 -74 22h-16v-475
q0 -62 19 -82t85 -20h29v-21h-486v21h31l53 2q27 0 43 43q8 20 8 57v475h-14q-53 0 -87 -30q-34 -31 -66 -63t-56 -83l-35 -76h-20v275h776v-275z" />
    <glyph glyph-name="partialdiff" unicode="&#x2202;" horiz-adv-x="1533" 
d="M1374 139v135l-74 -71l-75 -64h149zM1374 39v65h-198l-56 -32l-65 -33h319zM569 1008q0 72 33 104h-321q40 -29 55 -104h233zM340 973v-84h229v84h-229zM340 854v-88h229v88h-229zM340 733v-84h428l-27 72l-172 -62v74h-229zM340 614v-39l-127 -45h356v35l131 49h-360z
M340 408h229v88l-456 -2l30 -82l197 71v-75zM569 377h-229v-86h229v86zM569 172v84h-229l-2 -84h231zM569 39v98h-235q-6 -57 -53 -98h288zM700 39h136q127 0 237 55q168 86 383 328h37v-422h-1452v39h55q117 0 157 34t40 158v199l-168 -61l-53 145l221 82v365q0 95 -48 123
t-149 28h-55v43h911v-43h-55q-113 0 -143 -18q-53 -31 -54 -172v-179l152 54l53 -144l-205 -75v-539z" />
    <glyph glyph-name="Delta" unicode="&#x2206;" horiz-adv-x="1294" 
d="M760 475q-20 0 -41 -14h67l-12 14h-14zM803 406q0 20 -8 38h-93l-16 -38h117zM686 389q0 -20 21 -41h84l12 41h-117zM770 326l8 8h-49zM948 272l-35 -20l33 8l35 6l29 6h-62zM999 330l-32 -39h84l34 18l27 21h-113zM1018 385l-10 -39h118l23 39h-131zM1024 440l-4 -39
h135l8 39h-139zM1022 500l2 -43h141l-6 43h-137zM1010 553l10 -39h133q-8 18 -25 39h-118zM1110 567q-35 27 -63 33q-22 14 -86 14q31 -20 43 -47h106zM1176 20v31h-510l-9 -31h519zM1176 68v38h-482l-22 -38h504zM1176 160h-428l-41 -39h469v39zM1153 182q39 0 58 14t20 56
v14h22v-266h-618l2 41q14 63 65 106l58 48q8 6 37 20t47 25l86 47l31 24q39 41 38 152q0 150 -118 149q-89 0 -149 -46t-60 -111v-21q35 66 102 66q45 0 72 -26q26 -26 26 -68t-28 -73q-28 -30 -80 -30q-51 0 -86 39t-35 80t3 51t16 41q59 121 280 121q150 0 227 -47
q82 -45 82 -127q-1 -82 -65 -138t-178 -75l-27 -4l-72 -15q-37 -6 -61 -18l-25 -8l-32 -21h362zM197 14h-47l909 1370h49zM195 799q-10 -20 -23 -33h174l-16 33h-135zM328 813v41h-123l-4 -41h127zM205 907v-39h123v39h-123zM205 963v-39h123v39h-123zM205 1020v-41h123v41
h-123zM205 1075v-39h123v39h-123zM205 1130v-38h123v38h-123zM205 1188v-41h123v41h-123zM328 1204v41h-131l6 -41h125zM328 1260v40h-68l-90 -26l16 -14h142zM328 1317v16l-33 -16h33zM397 870q0 -63 21 -82q18 -23 84 -22h28v-21h-485v21h31q59 0 74 14q30 17 30 90v322
q0 43 -12 59q-16 16 -59 17h-68v20h27l73 2q12 0 67 18q115 36 167 93h22v-531z" />
    <glyph glyph-name="fraction" unicode="&#x2215;" horiz-adv-x="1644" 
d="M569 1290q6 49 33 76h-321l32 -35q8 -12 17 -41h239zM281 2h321q-18 20 -27 47h-256q-7 -20 -38 -47zM569 219v96h-229v-96h229zM569 182h-229l-6 -94h235v94zM569 354v97h-229v-97h229zM569 487v97h-229v-97h229zM569 621v98h-229v-98h229zM569 758v94h-229v-94h229z
M569 889v98h-229v-98h229zM569 1024v96h-229v-96h229zM569 1157v98h-233l2 -43l2 -55h229zM1102 1085q36 -12 72 -61h157q-90 61 -229 61zM1192 584q-31 -53 -90 -97q166 0 268 97h-178zM1403 621q31 41 43 98h-217l-6 -49l-15 -49h195zM1233 758h217l2 30l-6 64h-217l4 -72
v-22zM1436 889q-14 47 -60 98h-180l16 -47l13 -51h211zM1063 1126q279 0 410 -84t131 -254q0 -136 -72 -206q-137 -134 -469 -131h-363v-254q0 -117 33 -156t164 -39h55v-41h-911v41h55q117 0 157 34t40 159v1015q0 84 -34 120t-163 36h-55v41h850v-41q-119 0 -155 -51
t-36 -189h363zM700 487h252q125 0 181 76q55 76 55 234q0 289 -236 288h-252v-598z" />
    <glyph glyph-name="radical" unicode="&#x221a;" horiz-adv-x="890" 
d="M94 444l-6 -6l88 -90l94 96h-176zM547 444l92 -94l86 88l-6 6h-172zM674 489l-119 121h-297l-119 -121h176l93 95l92 -95h174zM725 903l-88 92l-168 -172h176zM346 823l-168 170l-90 -90l80 -80h178zM408 762l-15 14h-176l102 -102l-14 -17h203l-14 17l102 102h-174z
M211 264l-168 172l233 238l-235 235l170 170l233 -235l238 237l168 -172l-236 -235l236 -240l-170 -170l-236 238z" />
    <glyph glyph-name="integral" unicode="&#x222b;" 
d="M74 582h714v86h-714v-86zM788 713v51h-714v-51h714zM944 795v-242h-903v242h903z" />
    <glyph glyph-name="approxequal" unicode="&#x2248;" horiz-adv-x="1316" 
d="M930 51q-8 -20 -23 -31h172q-12 12 -14 31h-135zM1061 68v38h-121l-8 -38h129zM938 164v-43h123v43h-123zM938 217v-39h123v39h-123zM938 272v-39h123v39h-123zM938 330v-41h123v41h-123zM938 385v-39h123v39h-123zM938 440v-39h123v39h-123zM938 457h123v43h-86l-37 -33
v-10zM1061 512v61l-72 -61h72zM913 193v253l-284 -253h284zM1276 154h-143v-29q0 -63 22 -86l29 -12l53 -7h39v-20h-496v20h31l53 3q14 0 32 16q17 16 17 86v29h-321v39l524 456h17v-456h143v-39zM274 14h-47l910 1370h49zM459 809l-25 -33q64 6 117 41l-88 2zM475 874
l-8 -40h100l25 40h-117zM479 930l-2 -39h119l8 39h-125zM477 985l2 -39h125l-8 39h-119zM463 1040l12 -39h115q-10 27 -27 39h-100zM434 1085l4 -6l19 -22h86q-48 28 -109 28zM434 1110q70 0 111 41h-86q-2 -12 -25 -41zM467 1208l-4 -41h96l19 41h-111zM467 1266v-41h115
l2 18l-2 23h-115zM461 1321l6 -41h111l-19 41h-98zM506 1362l-33 10l-39 2l23 -39h88q-25 21 -39 27zM128 1006q-36 0 -58 -43h110q-16 43 -52 43zM184 946h-121l-2 -18v-21h121l2 25v14zM150 852q18 16 28 39h-112q6 -16 24 -39h60zM133 815l6 23h-35zM134 1171q28 0 46 37
h-98q24 -37 52 -37zM76 1266l-4 -19l4 -22h108l2 20l-2 21h-108zM180 1280q-12 24 -22 29q-25 0 -31 26q-33 -12 -49 -55h102zM690 936q0 -84 -95 -137t-237 -53t-230 46q-87 48 -87 132q0 42 31 74q30 32 72 32t75 -29q29 -33 29 -71t-20 -67t-38 -29q-20 0 -26 -11l4 -8
l16 -14q48 -33 130 -33t110 33t29 128t-19 126t-69 30l-33 -2l-60 -6q-29 0 -28 25q0 18 39 18h10l41 -6l31 -2q23 -2 41 8q16 4 28 31l6 39l2 65q0 72 -23 98q-24 26 -118 25t-141 -32l-4 -7l6 -4h8q33 0 57 -24q23 -29 23 -68t-27 -65t-71 -27q-44 0 -71 26q-28 26 -28 70
q0 74 75 115t204 41q336 0 336 -166q0 -80 -76 -119l-74 -22q172 -31 172 -160z" />
    <glyph glyph-name="lozenge" unicode="&#x25ca;" horiz-adv-x="610" 
d="M176 805h143v100h-143v-100zM319 1268v112h-143v-112h143zM319 1223h-143v-115h143v115zM319 948v115h-143v-115h143zM319 473v84h-143v-84h143zM176 113v-109h143v109h-143zM319 158v112h-143v-112h143zM319 315v115h-143v-115h143zM479 4h90v-49h-528v49h92v602h346
v-602zM133 756v624h-92v50h528v-50h-90v-624h-346z" />
    <glyph glyph-name="fi" unicode="&#xf001;" horiz-adv-x="2201" 
d="M1559 90q-12 -29 -41 -53h309l-19 29l-8 24h-241zM1575 190v-22l-8 -49h229l-2 71h-219zM1577 289v-70h217v70h-217zM1577 389v-72h217v72h-217zM1577 487v-71h217v71h-217zM1577 586v-70h217v70h-217zM1577 686v-72h217v72h-217zM1577 784v-71h217v71h-217zM1577 883
v-70h217v70h-217zM1794 911v50l2 22h-229l6 -29l2 -43h219zM1827 1061h-309q29 -23 41 -51h241q4 24 27 51zM309 90q-6 -18 -16 -27l-25 -26h307l-16 29l-10 24h-240zM324 190v-22l-7 -49h228l-2 71h-219zM326 289v-70h217v70h-217zM326 389v-72h217v72h-217zM326 487v-71
h217v71h-217zM326 586v-70h217v70h-217zM326 686v-72h217v72h-217zM326 784v-71h217v71h-217zM326 883v-70h217v70h-217zM543 911v72h-226l5 -41l2 -31h219zM543 1061h-275q29 -20 41 -51h234v51zM967 592v82l-43 -39l-66 -43h109zM967 565h-117q72 -41 117 -86v86z
M1298 971h-131l52 -43l79 -82v125zM1298 1061h-264l47 -27l49 -37h168v64zM2161 1102v-41h-54q-106 0 -137 -19q-51 -33 -51 -163v-658q0 -109 32 -147t156 -37h54v-37h-871v37h51q119 0 155 34t36 150v658q0 96 -20 132t-99 48v-359h-37q-133 180 -263 270t-271 91h-172
v-463h43q84 0 131 20q94 43 172 170h39v-423h-39q-39 70 -96 118q-92 76 -207 76h-43v-338q0 -111 32 -147t156 -37h51v-37h-868v37h53q111 0 149 33t38 151v694q-1 92 -47 119t-140 27h-53v41h2120z" />
    <glyph glyph-name="fl" unicode="&#xf002;" horiz-adv-x="2701" 
d="M2546 141v119q-39 -41 -131 -119h131zM2546 39v74h-170l-64 -41l-71 -33h305zM1778 39v51h-236l-18 -29l-23 -22h277zM1556 190v-49l-6 -22h228v71h-222zM1559 289v-72h219v72h-219zM1559 389v-72h219v72h-219zM1559 487v-71h219v71h-219zM1559 586v-70h219v70h-219z
M1559 686v-72h219v72h-219zM1559 784v-71h219v71h-219zM1559 885v-72h219v72h-219zM1778 911v72h-228l4 -37l2 -35h222zM1792 1038l18 25h-309q25 -20 41 -51h240zM578 39q-19 26 -29 51h-240l-16 -29l-25 -22h310zM326 190v-49l-9 -22h230l-2 71h-219zM328 289v-72h217v72
h-217zM328 389v-72h217v72h-217zM328 487v-71h217v71h-217zM328 586v-70h217v70h-217zM328 686v-72h217v72h-217zM328 784v-71h217v71h-217zM328 885v-72h217v72h-217zM545 911v72h-228l7 -37l2 -35h219zM545 1063h-277q25 -20 41 -51h236v51zM967 592v82l-41 -37
q-17 -15 -68 -45h109zM967 565h-117q14 -7 32 -17t29 -22q20 -10 56 -47v86zM1300 971h-131l80 -70l51 -55v125zM1300 1063h-266l51 -29l48 -35h167v64zM844 1063h-174v-465h43q113 0 183 53t122 140h39v-426h-39q-58 100 -138 147t-167 47h-43v-338q0 -129 51 -164
q31 -18 137 -18h53v-39h-870v39h53q131 0 170 51q18 29 19 131v658q0 117 -35 151t-154 33h-53v39h2103v-39h-53q-109 0 -135 -16q-53 -35 -53 -168v-840h131q148 0 290 80t299 284h37v-403h-1386v39h51q115 0 152 32t36 150v688q0 63 -12 95q-20 37 -88 51v-353h-35
q-164 207 -299 293q-113 68 -235 68z" />
    </font>
</defs>
</svg>
