<?xml version="1.0" standalone="no"?>
<!DOCTYPE svg PUBLIC "-//W3C//DTD SVG 1.1//EN" "http://www.w3.org/Graphics/SVG/1.1/DTD/svg11.dtd" >
<svg xmlns="http://www.w3.org/2000/svg">
<metadata>
Created by FontPrep 20130207 at Sun Aug 23 15:10:59 2015
 By Bez Hermoso
Copyright (URW)++, copyright 1999 by (URW)++ Design &#38; Development; Cyrillic glyphs added by Valek Filippov, copyright 2001-2002; Vietnamese characters were added by Han The Thanh; copyright 2006, 2008 for TeX Gyre extensions by B. Jackowski and J.M. Nowacki (on behalf of TeX users groups). This work is released under the GUST Font License --  see http://tug.org/fonts/licenses/GUST-FONT-LICENSE.txt for details.
</metadata>
<defs>
<font id="389c4a1924b7968e99a77baa94f730d0" horiz-adv-x='1024' >
  <font-face 
    font-family="TeXGyreHeros-Regular"
    font-weight="400"
    font-stretch="normal"
    units-per-em="2048"
    panose-1="0 0 5 0 0 0 0 0 0 0"
    ascent="1606"
    descent="-442"
    x-height="1073"
    cap-height="1493"
    bbox="-1083 -582 2771 2351"
    underline-thickness="102"
    underline-position="-157"
    unicode-range="U+0020-FB04"
  />
<missing-glyph horiz-adv-x="573" 
 />
    <glyph glyph-name="I_J" unicode="IJ" horiz-adv-x="1480" 
d="M1341 383q1 -195 -113 -307t-308 -113q-194 1 -304 107q-109 106 -108 288v121h190v-86q0 -131 58 -201t169 -69q112 0 169 76t57 254v1040h190v-1110zM330 0h-191v1493h191v-1493z" />
    <glyph glyph-name="i_j" unicode="ij" horiz-adv-x="903" 
d="M786 1235h-213v213h213v-213zM764 -223q0 -223 -293 -223q-27 0 -57 6v145l41 -2q75 -4 107 30t32 111v1229h170v-1296zM332 1235h-213v213h213v-213zM309 0h-170v1073h170v-1073z" />
    <glyph glyph-name="f_k" unicode="fk" horiz-adv-x="1613" 
d="M879 0h-170v1493h170v-875l454 455h219l-372 -371l438 -702h-211l-363 582l-165 -164v-418zM528 934h-178v-934h-170v934h-143v139h143v182q0 115 67 180t185 64q47 0 96 -10v-141q-39 2 -59 2q-119 0 -119 -109v-168h178v-139z" />
    <glyph glyph-name="f_f" unicode="ff" horiz-adv-x="1093" 
d="M1057 934h-178v-934h-170v934h-359v-934h-170v934h-143v139h143v182q0 115 67 180t185 64q47 0 96 -10v-141q-39 2 -59 2q-119 0 -119 -109v-168h359v182q0 115 66 180q67 65 186 64q47 0 96 -10v-141q-39 2 -60 2q-119 0 -118 -109v-168h178v-139z" />
    <glyph glyph-name="f_i" unicode="fi" horiz-adv-x="1024" 
d="M901 1235h-213v213h213v-213zM879 0h-170v1073h170v-1073zM528 934h-178v-934h-170v934h-143v139h143v182q0 115 67 180t185 64q47 0 96 -10v-141q-39 2 -59 2q-119 0 -119 -109v-168h178v-139z" />
    <glyph glyph-name="f_l" unicode="fl" horiz-adv-x="1024" 
d="M879 0h-170v1493h170v-1493zM528 934h-178v-934h-170v934h-143v139h143v182q0 115 67 180t185 64q47 0 96 -10v-141q-39 2 -59 2q-119 0 -119 -109v-168h178v-139z" />
    <glyph glyph-name="f_f_i" unicode="ffi" horiz-adv-x="1552" 
d="M1430 1235h-213v213h213v-213zM1407 0h-170v1073h170v-1073zM1057 934h-178v-934h-170v934h-359v-934h-170v934h-143v139h143v182q0 115 67 180t185 64q47 0 96 -10v-141q-39 2 -59 2q-119 0 -119 -109v-168h359v182q0 115 66 180q67 65 186 64q47 0 96 -10v-141
q-39 2 -60 2q-119 0 -118 -109v-168h178v-139z" />
    <glyph glyph-name="f_f_l" unicode="ffl" horiz-adv-x="1552" 
d="M1407 0h-170v1493h170v-1493zM1057 934h-178v-934h-170v934h-359v-934h-170v934h-143v139h143v182q0 115 67 180t185 64q47 0 96 -10v-141q-39 2 -59 2q-119 0 -119 -109v-168h359v182q0 115 66 180q67 65 186 64q47 0 96 -10v-141q-39 2 -60 2q-119 0 -118 -109v-168
h178v-139z" />
    <glyph glyph-name=".notdef" horiz-adv-x="573" 
 />
    <glyph glyph-name=".null" horiz-adv-x="0" 
 />
    <glyph glyph-name="nonmarkingreturn" horiz-adv-x="681" 
 />
    <glyph glyph-name="space" unicode=" " horiz-adv-x="569" 
 />
    <glyph glyph-name="exclam" unicode="!" horiz-adv-x="569" 
d="M371 0h-172v213h172v-213zM201 1493h170v-692l-45 -457h-80l-45 457v692z" />
    <glyph glyph-name="quotedbl" unicode="&#x22;" horiz-adv-x="727" 
d="M434 1452h191v-227l-56 -275h-80l-55 275v227zM106 1452h191v-227l-55 -275h-80l-56 275v227z" />
    <glyph glyph-name="numbersign" unicode="#" 
d="M737 887h-254l-65 -357h256zM1110 887h-217l-64 -357h215v-139h-239l-80 -432h-156l78 432h-254l-80 -432h-155l78 432h-207v139h233l64 357h-222v139h248l74 401h156l-74 -401h256l72 401h157l-73 -401h190v-139z" />
    <glyph glyph-name="dollar" unicode="$" 
d="M893 368q0 106 -58 162q-58 55 -217 103v-539q133 14 204 91t71 183zM498 829v492q-115 -15 -176 -79t-62 -165q0 -185 238 -248zM498 1577h120v-111q186 -14 292 -121q105 -108 106 -282h-162q-2 113 -68 185t-168 75v-510q207 -63 269 -98q174 -99 174 -306t-114 -325
t-329 -131v-211h-120v211q-207 12 -320 126t-112 312l2 35h161q13 -110 21 -146t31 -69q68 -96 217 -117v557q-190 57 -258 107q-146 104 -146 288t104 290q104 105 300 130v111z" />
    <glyph glyph-name="percent" unicode="%" horiz-adv-x="1820" 
d="M1618 310q0 86 -60 146t-146 60t-148 -60t-62 -146t62 -145q62 -61 146 -61t146 60t62 146zM1759 310q0 -144 -103 -246q-102 -102 -246 -103t-246 103t-103 247q0 143 102 245q101 102 247 103q146 0 248 -102q101 -103 101 -247zM1382 1452l-809 -1493h-135l809 1493
h135zM201 1054q0 -84 61 -146q60 -62 146 -62t147 60t61 147q0 86 -60 146q-60 61 -146 61t-148 -60t-61 -146zM758 1054q0 -146 -102 -248t-246 -104q-142 0 -246 104t-104 246q0 144 102 247t248 103t246 -101q102 -101 102 -247z" />
    <glyph glyph-name="ampersand" unicode="&#x26;" horiz-adv-x="1366" 
d="M279 363q1 -97 79 -174t189 -76q149 0 309 168l-328 409q-139 -88 -194 -159t-55 -168zM795 1138q-1 73 -51 122t-129 49t-127 -48q-48 -47 -48 -115t26 -112t118 -151q121 76 166 129t45 126zM526 -47q-188 0 -304 112t-116 295q0 138 71 232t261 205q-96 121 -131 191
t-35 142q0 134 102 228t248 94t240 -90t94 -216t-61 -204t-221 -168l272 -334q63 115 64 244h164q0 -193 -119 -375l250 -309h-224l-127 160q-129 -125 -214 -166t-214 -41z" />
    <glyph glyph-name="quotesingle" unicode="'" horiz-adv-x="391" 
d="M98 1452h193v-227l-55 -275h-82l-56 275v227z" />
    <glyph glyph-name="parenleft" unicode="(" horiz-adv-x="681" 
d="M150 530q0 242 90 502t243 461h113q-281 -453 -281 -961t281 -966h-113q-154 201 -243 462q-90 260 -90 502z" />
    <glyph glyph-name="parenright" unicode=")" horiz-adv-x="681" 
d="M524 528q0 -242 -90 -502t-244 -460h-112q280 454 280 962t-280 965h112q154 -201 244 -462t90 -503z" />
    <glyph glyph-name="asterisk" unicode="*" horiz-adv-x="796" 
d="M328 1493h118v-229l218 77l38 -120l-221 -62l144 -182l-105 -74l-127 191l-129 -191l-102 74l141 182l-221 62l39 120l207 -77v229z" />
    <glyph glyph-name="plus" unicode="+" horiz-adv-x="1196" 
d="M1057 442h-389v-389h-140v389h-389v140h389v389h140v-389h389v-140z" />
    <glyph glyph-name="comma" unicode="," horiz-adv-x="569" 
d="M393 -33q0 -268 -215 -268v78q72 2 98 41t25 145v37h-123v213h215v-246z" />
    <glyph glyph-name="hyphen" unicode="-" horiz-adv-x="681" 
d="M582 492h-488v147h488v-147z" />
    <glyph glyph-name="period" unicode="." horiz-adv-x="569" 
d="M391 0h-213v213h213v-213z" />
    <glyph glyph-name="slash" unicode="/" horiz-adv-x="569" 
d="M582 1493l-486 -1534h-112l485 1534h113z" />
    <glyph glyph-name="zero" unicode="0" 
d="M854 715q0 578 -291 577q-291 0 -291 -586t287 -587q151 1 223 145t72 451zM1038 698q0 -356 -122 -542t-354 -186t-353 186q-121 188 -121 555t120 554t355 187q475 0 475 -754z" />
    <glyph glyph-name="one" unicode="1" 
d="M711 0h-181v1034h-321v129q209 27 272 74t111 215h119v-1452z" />
    <glyph glyph-name="two" unicode="2" 
d="M1047 1026q0 -274 -308 -438l-204 -111q-133 -78 -191 -143q-57 -66 -72 -156h764v-178h-966q12 240 96 370t311 259l189 106q197 113 196 287q0 117 -82 195q-82 77 -212 77q-266 -1 -285 -346h-181q14 504 480 504q205 0 335 -121t130 -305z" />
    <glyph glyph-name="three" unicode="3" 
d="M1036 422q0 -207 -134 -330t-358 -123t-343 115t-135 354h180q10 -158 84 -234t218 -75q144 0 224 77t80 207q0 131 -77 197t-224 66h-98v151q209 -1 283 49t73 168q0 118 -69 184q-70 66 -198 66q-263 -1 -266 -311h-180q10 469 455 469q207 0 325 -106t117 -293
q0 -213 -202 -293q129 -45 187 -125t58 -213z" />
    <glyph glyph-name="four" unicode="4" 
d="M670 510v635l-455 -635h455zM1065 348h-215v-348h-180v348h-613v191l660 913h133v-942h215v-162z" />
    <glyph glyph-name="five" unicode="5" 
d="M1051 474q-1 -222 -139 -363t-348 -141t-330 96t-162 307h180q63 -244 297 -244q149 0 233 86t84 244t-85 248t-232 90q-84 0 -143 -30t-123 -105h-166l108 759h750v-178h-604l-58 -375q121 88 269 88q209 0 339 -130t130 -352z" />
    <glyph glyph-name="six" unicode="6" 
d="M577 129q125 0 207 86t82 226t-75 222q-76 81 -209 81t-216 -82q-83 -80 -83 -218t84 -226q84 -89 210 -89zM597 903q206 -1 330 -125t124 -332t-133 -342t-343 -135q-487 0 -487 693q0 382 134 586t386 204q166 0 276 -100t136 -279h-180q-23 103 -86 161t-158 58
q-156 0 -239 -142t-85 -409q119 162 325 162z" />
    <glyph glyph-name="seven" unicode="7" 
d="M94 1243v178h971v-151q-469 -557 -590 -1270h-192q154 686 596 1243h-785z" />
    <glyph glyph-name="eight" unicode="8" 
d="M866 407q0 129 -83 203t-220 74t-220 -75t-83 -201t83 -203q83 -76 219 -76t220 75t84 203zM815 1063q0 105 -69 167q-70 62 -184 62t-182 -62t-69 -166q0 -104 69 -166q68 -62 182 -62t184 62t69 165zM1051 410q-1 -197 -137 -319t-352 -122t-351 122t-135 321
q0 233 248 352q-111 70 -154 136t-43 165q0 171 122 279q123 108 315 108t314 -109t121 -278q0 -102 -43 -168t-155 -133q250 -118 250 -354z" />
    <glyph glyph-name="nine" unicode="9" 
d="M846 978q0 136 -84 226t-210 90t-208 -86t-82 -227t76 -222t208 -81t216 82t84 218zM1042 760q0 -379 -134 -585t-388 -206q-166 1 -276 101t-135 278h180q23 -104 86 -162t157 -57q156 0 239 142t85 409q-135 -162 -332 -162q-198 0 -322 125t-124 333t133 342t342 134
q489 0 489 -692z" />
    <glyph glyph-name="colon" unicode=":" horiz-adv-x="569" 
d="M391 860h-213v213h213v-213zM391 0h-213v213h213v-213z" />
    <glyph glyph-name="semicolon" unicode=";" horiz-adv-x="569" 
d="M393 -33q0 -268 -215 -268v78q72 2 98 41t25 145v37h-123v213h215v-246zM393 860h-213v213h213v-213z" />
    <glyph glyph-name="less" unicode="&#x3c;" horiz-adv-x="1196" 
d="M918 -141l-685 600v106l685 600v-184l-533 -469l533 -469v-184z" />
    <glyph glyph-name="equal" unicode="=" horiz-adv-x="1196" 
d="M1057 256h-918v139h918v-139zM1057 629h-918v139h918v-139z" />
    <glyph glyph-name="greater" unicode="&#x3e;" horiz-adv-x="1196" 
d="M918 459l-685 -600v184l533 469l-533 469v184l685 -600v-106z" />
    <glyph glyph-name="question" unicode="?" 
d="M662 0h-185v213h185v-213zM1028 1124q0 -102 -45 -182t-155 -180t-138 -146q-29 -46 -28 -112v-96h-185v112q0 126 104 232q19 20 109 102q154 137 154 270q0 104 -72 169t-200 65t-190 -77q-64 -77 -65 -243h-174q0 236 114 358t324 122q211 0 329 -107t118 -287z" />
    <glyph glyph-name="at" unicode="@" horiz-adv-x="2078" 
d="M1247 752q0 80 -55 133t-137 53q-129 0 -229 -133t-101 -305q0 -100 59 -171t144 -71q119 0 215 148t104 335v11zM1948 756q0 -154 -71 -300t-202 -242t-284 -97q-197 0 -226 157q-135 -147 -285 -147q-150 -1 -244 107q-95 108 -95 268q0 223 159 395q160 172 367 172
q172 0 250 -178l45 135h170l-184 -573q-27 -78 -26 -109q1 -32 32 -58t71 -26q131 0 237 146t107 325q0 257 -214 443t-522 186t-549 -240q-240 -240 -240 -547t221 -507t547 -199q162 0 395 65l57 -137q-229 -86 -473 -86t-459 110q-214 110 -338 298q-124 189 -124 431
t136 470t368 364q232 135 501 136q357 0 615 -226t258 -536z" />
    <glyph glyph-name="A" unicode="A" horiz-adv-x="1366" 
d="M918 608l-230 680l-246 -680h476zM1337 0h-213l-153 449h-576l-157 -449h-203l532 1493h246z" />
    <glyph glyph-name="B" unicode="B" horiz-adv-x="1366" 
d="M817 168q129 0 199 72t69 185t-69 185t-199 72h-465v-514h465zM1020 1087q0 238 -299 238h-369v-475h369q299 -1 299 237zM1276 426q0 -186 -121 -306t-319 -120h-674v1493h606q207 0 325 -105t117 -274q0 -229 -206 -326q144 -55 208 -141t64 -221z" />
    <glyph glyph-name="C" unicode="C" horiz-adv-x="1478" 
d="M772 -37q-319 0 -497 214q-177 214 -177 555q0 342 178 570t504 228q485 0 576 -500h-195q-35 172 -132 252t-271 80q-215 0 -342 -171t-127 -455t131 -444t354 -161q186 0 284 99q97 99 132 315h196q-68 -582 -614 -582z" />
    <glyph glyph-name="D" unicode="D" horiz-adv-x="1478" 
d="M1176 746q0 284 -115 432t-336 147h-352v-1157h352q221 0 336 147t115 431zM1366 748q0 -348 -163 -548t-445 -200h-576v1493h576q284 -1 446 -199t162 -546z" />
    <glyph glyph-name="E" unicode="E" horiz-adv-x="1366" 
d="M1255 0h-1071v1493h1035v-168h-844v-477h813v-168h-813v-512h880v-168z" />
    <glyph glyph-name="F" unicode="F" horiz-adv-x="1251" 
d="M1186 1325h-811v-477h712v-168h-712v-680h-191v1493h1002v-168z" />
    <glyph glyph-name="G" unicode="G" horiz-adv-x="1593" 
d="M1452 0h-121l-47 197q-209 -233 -511 -233t-492 211q-191 212 -191 557q0 346 192 572t525 226q256 0 420 -130t205 -360h-195q-31 145 -147 234q-117 88 -285 88q-236 0 -380 -172t-144 -448t142 -444q142 -167 392 -167q205 0 337 125t132 324v41h-455v167h623v-788z
" />
    <glyph glyph-name="H" unicode="H" horiz-adv-x="1478" 
d="M1319 0h-191v680h-768v-680h-190v1493h190v-645h768v645h191v-1493z" />
    <glyph glyph-name="I" unicode="I" horiz-adv-x="569" 
d="M395 0h-190v1493h190v-1493z" />
    <glyph glyph-name="J" unicode="J" horiz-adv-x="1024" 
d="M872 383q0 -195 -114 -307t-308 -113q-194 1 -303 107t-108 288v121h190v-86q-1 -131 57 -201t170 -69q112 0 169 76t57 254v1040h190v-1110z" />
    <glyph glyph-name="K" unicode="K" horiz-adv-x="1366" 
d="M352 0h-190v1493h190v-756l744 756h245l-608 -608l615 -885h-226l-526 766l-244 -244v-522z" />
    <glyph glyph-name="L" unicode="L" 
d="M1092 0h-928v1493h190v-1325h738v-168z" />
    <glyph glyph-name="M" unicode="M" horiz-adv-x="1705" 
d="M1559 0h-181v1251l-420 -1251h-200l-424 1251v-1251h-180v1493h264l442 -1300l434 1300h265v-1493z" />
    <glyph glyph-name="N" unicode="N" horiz-adv-x="1478" 
d="M1323 0h-215l-772 1210v-1210h-180v1493h206l781 -1221v1221h180v-1493z" />
    <glyph glyph-name="O" unicode="O" horiz-adv-x="1593" 
d="M1329 736q0 276 -145 451t-384 175t-385 -175q-147 -175 -147 -451t146 -440q146 -165 384 -165q239 0 385 164q146 165 146 441zM802 1530q324 0 520 -222q198 -222 198 -571q0 -348 -198 -561t-522 -213t-524 212q-198 212 -198 562q0 349 200 571t524 222z" />
    <glyph glyph-name="P" unicode="P" horiz-adv-x="1366" 
d="M1065 1063q0 123 -77 193t-214 69h-397v-524h397q137 -1 214 69t77 193zM803 1493q221 1 341 -113t120 -312t-117 -317q-117 -118 -301 -118h-469v-633h-191v1493h617z" />
    <glyph glyph-name="Q" unicode="Q" horiz-adv-x="1593" 
d="M1329 738q0 276 -146 450t-384 174t-384 -174q-147 -174 -147 -452t144 -441q144 -164 385 -164q123 0 245 57l-151 127l94 115l182 -149q162 182 162 457zM800 1530q322 0 520 -222q200 -222 200 -566q0 -345 -211 -576l192 -158l-96 -119l-215 179q-176 -104 -391 -105
q-324 0 -523 212q-198 212 -198 562q0 349 200 571t522 222z" />
    <glyph glyph-name="R" unicode="R" horiz-adv-x="1478" 
d="M842 811q152 -1 222 61t71 193q0 131 -69 196t-224 64h-461v-514h461zM1391 0h-232q-45 106 -43 244l2 133q2 137 -58 202t-188 64h-491v-643h-191v1493h689q219 0 337 -103t117 -296q0 -127 -55 -211t-180 -146q122 -51 160 -128t41 -244t21 -224t71 -94v-47z" />
    <glyph glyph-name="S" unicode="S" horiz-adv-x="1366" 
d="M1272 410q0 -205 -153 -326t-428 -121t-434 133t-159 389h181q-1 -164 107 -259t314 -95q381 0 381 260q0 170 -274 242l-371 98q-293 76 -293 348q-1 205 143 328t395 123t395 -122t145 -341h-181q0 145 -97 224t-261 79t-256 -75t-92 -175t55 -150t191 -85l374 -101
q152 -41 235 -139t83 -235z" />
    <glyph glyph-name="T" unicode="T" horiz-adv-x="1251" 
d="M1214 1325h-489v-1325h-190v1325h-492v168h1171v-168z" />
    <glyph glyph-name="U" unicode="U" horiz-adv-x="1478" 
d="M1321 455q0 -225 -157 -359t-421 -133q-265 0 -417 132t-152 360v1038h191v-1038q0 -158 103 -241t280 -83t280 86q102 86 102 238v1038h191v-1038z" />
    <glyph glyph-name="V" unicode="V" horiz-adv-x="1366" 
d="M1321 1493l-518 -1493h-205l-537 1493h205l439 -1264l413 1264h203z" />
    <glyph glyph-name="W" unicode="W" horiz-adv-x="1933" 
d="M1903 1493l-379 -1493h-209l-344 1227l-334 -1227h-209l-383 1493h213l281 -1212l331 1212h205l340 -1212l275 1212h213z" />
    <glyph glyph-name="X" unicode="X" horiz-adv-x="1366" 
d="M1329 0h-235l-408 623l-410 -623h-231l528 766l-495 727h231l383 -586l385 586h228l-504 -727z" />
    <glyph glyph-name="Y" unicode="Y" horiz-adv-x="1366" 
d="M793 0h-191v586l-575 907h235l438 -727l426 727h228l-561 -907v-586z" />
    <glyph glyph-name="Z" unicode="Z" horiz-adv-x="1251" 
d="M1194 0h-1137v168l897 1157h-839v168h1075v-172l-893 -1153h897v-168z" />
    <glyph glyph-name="bracketleft" unicode="[" horiz-adv-x="569" 
d="M512 -434h-381v1927h381v-147h-211v-1633h211v-147z" />
    <glyph glyph-name="backslash" unicode="\" horiz-adv-x="569" 
d="M582 -41h-113l-485 1534h112z" />
    <glyph glyph-name="bracketright" unicode="]" horiz-adv-x="569" 
d="M428 -434h-381v147h211v1633h-211v147h381v-1927z" />
    <glyph glyph-name="asciicircum" unicode="^" horiz-adv-x="960" 
d="M870 674h-141l-250 614l-248 -614h-141l313 778h150z" />
    <glyph glyph-name="underscore" unicode="_" 
d="M1184 -362h-1229v102h1229v-102z" />
    <glyph glyph-name="grave" unicode="`" horiz-adv-x="681" 
d="M401 1190h-122l-306 303h232z" />
    <glyph glyph-name="a" unicode="a" 
d="M797 371v159q-68 -31 -241 -55t-232 -66t-60 -126q0 -164 211 -164q129 1 225 71t97 181zM970 -14q-54 0 -104 40q-49 40 -63 101q-147 -158 -365 -158q-164 0 -258 82t-94 228q0 249 296 309q58 12 197 30t179 44q39 27 39 79v45q-1 78 -63 119t-179 41t-178 -46
t-72 -144h-172q14 348 430 348q199 0 301 -75t103 -218v-598q0 -84 92 -84q18 0 37 4v-129q-72 -18 -126 -18z" />
    <glyph glyph-name="b" unicode="b" 
d="M893 538q0 182 -86 294t-227 112q-135 6 -218 -106q-82 -113 -82 -298t82 -298t220 -113t224 114q87 114 87 295zM612 1104q214 0 336 -148q123 -148 123 -408q0 -261 -128 -420t-343 -159t-336 185v-154h-153v1493h170v-565q117 176 331 176z" />
    <glyph glyph-name="c" unicode="c" horiz-adv-x="1024" 
d="M63 530q1 262 131 418t347 156q184 0 297 -99t127 -292h-172q-16 113 -82 173t-172 60q-141 0 -220 -109q-77 -109 -77 -305t80 -300t206 -105q126 0 192 57t85 185h172q-16 -187 -132 -293q-117 -106 -321 -106t-333 149q-128 149 -128 411z" />
    <glyph glyph-name="d" unicode="d" 
d="M542 129q138 -1 220 109t82 295t-82 298t-221 113t-225 -110q-85 -111 -85 -297t86 -297q87 -111 225 -111zM1014 0h-152v158q-70 -100 -150 -144t-192 -45q-217 0 -342 154t-125 417q0 264 126 414t341 150t324 -166v555h170v-1493z" />
    <glyph glyph-name="e" unicode="e" 
d="M569 946q-127 0 -211 -88t-94 -231h602l2 12q0 127 -86 217t-213 90zM1051 487h-791q2 -178 89 -269t226 -91q215 0 281 199h172q-33 -164 -155 -260t-304 -97q-227 1 -357 149t-130 412t133 419t358 155q152 0 268 -76t163 -198t47 -343z" />
    <glyph glyph-name="f" unicode="f" horiz-adv-x="569" 
d="M528 934h-178v-934h-170v934h-143v139h143v182q0 115 67 180t185 64q47 0 96 -10v-141q-39 2 -59 2q-119 0 -119 -109v-168h178v-139z" />
    <glyph glyph-name="g" unicode="g" 
d="M827 532q0 192 -77 304q-78 110 -215 110t-218 -108q-79 -108 -79 -302t78 -302t218 -108q138 0 216 107q77 107 77 299zM1001 176q-1 -348 -111 -485t-368 -137q-188 0 -301 86t-127 237h174q29 -180 260 -180q156 0 236 93t80 300v72q-86 -102 -164 -148t-178 -45
q-193 0 -318 154q-125 155 -125 409t126 413t329 159t330 -186v155h157v-897z" />
    <glyph glyph-name="h" unicode="h" 
d="M995 0h-170v743q0 103 -62 157t-159 54q-131 0 -211 -99t-80 -263v-592h-170v1493h170v-567q76 98 153 138t212 40t226 -79t91 -214v-811z" />
    <glyph glyph-name="i" unicode="i" horiz-adv-x="454" 
d="M336 1235h-213v213h213v-213zM313 0h-170v1073h170v-1073z" />
    <glyph glyph-name="j" unicode="j" horiz-adv-x="454" 
d="M336 1235h-213v213h213v-213zM313 -223q0 -223 -293 -223q-27 0 -57 6v145l41 -2q76 -4 108 30t31 111v1229h170v-1296z" />
    <glyph glyph-name="k" unicode="k" horiz-adv-x="1024" 
d="M289 0h-170v1493h170v-875l454 455h220l-373 -371l438 -702h-211l-362 582l-166 -164v-418z" />
    <glyph glyph-name="l" unicode="l" horiz-adv-x="454" 
d="M309 0h-170v1493h170v-1493z" />
    <glyph glyph-name="m" unicode="m" horiz-adv-x="1705" 
d="M1556 0h-170v739q0 103 -51 159t-150 56t-174 -82t-75 -198v-674h-170v739q0 103 -52 159t-152 56t-173 -82q-74 -82 -74 -198v-674h-170v1073h156v-151q71 96 147 139t183 43q199 0 289 -164q76 90 150 127t179 37q150 0 229 -77t78 -222v-805z" />
    <glyph glyph-name="n" unicode="n" 
d="M997 0h-170v743q0 95 -59 153t-176 58t-198 -99t-81 -263v-592h-170v1073h158v-180q72 113 155 162t220 49t229 -80t92 -213v-811z" />
    <glyph glyph-name="o" unicode="o" 
d="M866 536q0 194 -81 302t-225 108t-226 -108t-82 -302t82 -302t224 -108t225 108t83 302zM74 536q0 270 128 418q128 150 358 150t357 -150t127 -420t-129 -417t-357 -147t-356 148t-128 418z" />
    <glyph glyph-name="p" unicode="p" 
d="M893 534q0 186 -85 298t-223 112t-220 -114t-82 -301t81 -293t219 -106t224 108q86 110 86 296zM1071 533q0 -263 -125 -413t-329 -151q-204 0 -334 160v-575h-170v1519h155v-162q121 193 339 193t341 -154t123 -417z" />
    <glyph glyph-name="q" unicode="q" 
d="M542 129q138 1 220 109t82 294t-81 299t-220 113t-226 -110q-86 -111 -86 -297t86 -297q87 -111 225 -111zM1014 -446h-170v585q-117 -170 -331 -170q-214 -1 -337 147t-123 411t127 420t343 157t339 -174v143h152v-1519z" />
    <glyph glyph-name="r" unicode="r" horiz-adv-x="681" 
d="M313 557v-557h-170v1073h156v-194q74 121 142 173q69 52 151 52q23 0 65 -6v-174q-193 -2 -269 -90t-75 -277z" />
    <glyph glyph-name="s" unicode="s" horiz-adv-x="1024" 
d="M940 301q0 -154 -120 -243t-326 -89t-313 87q-105 87 -111 272h180q16 -117 78 -159t179 -42q119 0 187 43q68 42 68 108t-38 97t-128 53l-160 39q-190 45 -265 114t-75 207t113 227t299 89t286 -86t103 -244h-180q-6 172 -215 172q-104 0 -166 -44t-62 -110t48 -101
q48 -36 151 -60l164 -39q163 -40 233 -106t70 -185z" />
    <glyph glyph-name="t" unicode="t" horiz-adv-x="569" 
d="M360 -14q-80 0 -133 44t-53 126v778h-145v139h145v295h170v-295h176v-139h-176v-703q0 -57 20 -76t72 -19q53 0 84 7v-143q-80 -14 -160 -14z" />
    <glyph glyph-name="u" unicode="u" 
d="M987 0h-153v166q-76 -106 -158 -152t-220 -45q-138 0 -230 80q-93 80 -93 213v811h170v-743q0 -96 59 -154t177 -57q118 0 198 99t80 263v592h170v-1073z" />
    <glyph glyph-name="v" unicode="v" horiz-adv-x="1024" 
d="M995 1073l-411 -1073h-187l-377 1073h193l287 -870l303 870h192z" />
    <glyph glyph-name="w" unicode="w" horiz-adv-x="1478" 
d="M1450 1073l-315 -1073h-195l-217 842l-207 -842h-192l-312 1073h189l219 -835l205 835h209l210 -835l213 835h193z" />
    <glyph glyph-name="x" unicode="x" horiz-adv-x="1024" 
d="M969 0h-199l-268 412l-273 -412h-194l379 547l-359 526h195l258 -389l258 389h192l-360 -518z" />
    <glyph glyph-name="y" unicode="y" horiz-adv-x="1024" 
d="M225 -446q-63 0 -114 26v154q127 -28 175 11q30 24 52 81l65 170l-362 1077h182l275 -835l297 835h184l-477 -1298q-82 -221 -277 -221z" />
    <glyph glyph-name="z" unicode="z" horiz-adv-x="1024" 
d="M936 0h-873v154l642 770h-599v149h801v-151l-637 -772h666v-150z" />
    <glyph glyph-name="braceleft" unicode="{" horiz-adv-x="684" 
d="M565 -434h-94q-106 0 -165 70q-58 71 -58 198v342q0 140 -35 202t-125 81v141q90 18 125 78t35 205v342q0 127 58 197t165 71h94v-133h-30q-76 0 -103 -29t-26 -108v-371q0 -141 -37 -213t-131 -109q168 -78 168 -323v-371q0 -80 26 -108t103 -29h30v-133z" />
    <glyph glyph-name="bar" unicode="|" horiz-adv-x="532" 
d="M336 -434h-139v1927h139v-1927z" />
    <glyph glyph-name="braceright" unicode="}" horiz-adv-x="684" 
d="M381 176v-342q0 -127 -59 -198t-166 -70h-97v133h33q76 0 104 29t27 108v371q0 246 168 321q-168 78 -168 324v371q1 81 -27 109t-104 28h-33v133h97q106 0 166 -71t59 -197v-342q0 -141 34 -203t122 -80v-141q-88 -17 -122 -79t-34 -204z" />
    <glyph glyph-name="asciitilde" unicode="~" horiz-adv-x="1196" 
d="M1040 809q0 -119 -58 -189t-148 -71q-90 0 -175 53l-200 129q-47 29 -88 29q-94 0 -109 -160h-108q8 143 64 220t157 77q55 0 110 -33l240 -141q57 -35 108 -35t75 36t24 118h108v-33z" />
    <glyph glyph-name="uni00A0" unicode="&#xa0;" horiz-adv-x="569" 
 />
    <glyph glyph-name="exclamdown" unicode="&#xa1;" horiz-adv-x="569" 
d="M371 860h-172v213h172v-213zM369 -420h-170v692l45 457h80l45 -457v-692z" />
    <glyph glyph-name="cent" unicode="&#xa2;" 
d="M285 518q1 -174 71 -280t197 -125v831q-268 -49 -268 -426zM639 -246h-86v201q-207 18 -327 169q-120 152 -120 398t120 402t327 178v184h86v-182q179 -12 281 -114t112 -277h-172q-10 101 -68 163t-153 70v-837q197 23 233 260h172q-10 -184 -118 -296t-287 -120v-199z
" />
    <glyph glyph-name="sterling" unicode="&#xa3;" 
d="M827 -47q-94 0 -299 72q-68 23 -135 22q-109 0 -223 -76l-98 135q141 121 198 209q112 172 9 342h-226v113h166q-70 117 -89 167t-19 118q0 186 140 312t349 126t327 -119t122 -356h-181q-8 315 -278 315q-131 1 -210 -71t-79 -191q1 -62 15 -94q14 -31 46 -93t60 -114
h328v-113h-279q31 -89 31 -157t-52 -152t-190 -223q121 80 250 80q43 0 177 -32t153 -32q80 0 170 62l86 -135q-117 -115 -269 -115z" />
    <glyph glyph-name="currency" unicode="&#xa4;" 
d="M569 352q145 0 249 108t104 256t-104 257t-248 109q-146 0 -249 -110q-103 -108 -103 -256t102 -256q104 -108 249 -108zM1071 723q0 -186 -102 -313l110 -115l-92 -92l-113 119q-121 -113 -305 -113t-305 113l-112 -119l-93 92l111 115q-102 127 -102 313t102 303
l-113 111l99 98l116 -115q121 104 297 104t297 -104l117 115l98 -98l-112 -111q102 -117 102 -303z" />
    <glyph glyph-name="yen" unicode="&#xa5;" 
d="M1014 725v-104h-348v-158h348v-105h-348v-358h-181v358h-352v105h352v158h-352v104h309l-419 727h174l378 -659l367 659h174l-411 -727h309z" />
    <glyph glyph-name="brokenbar" unicode="&#xa6;" horiz-adv-x="532" 
d="M336 -434h-139v770h139v-770zM336 723h-139v770h139v-770z" />
    <glyph glyph-name="section" unicode="&#xa7;" 
d="M874 424q0 127 -149 231l-330 224q-81 -53 -113 -99t-32 -108q0 -61 26 -103q27 -41 109 -100l340 -252q149 80 149 207zM1036 469q0 -236 -223 -319q61 -70 85 -123t24 -119q0 -148 -110 -246t-282 -98t-273 106q-99 106 -99 301h174q0 -129 57 -189t149 -60t145 48
q54 50 54 128q0 102 -112 180l-349 239q-100 70 -144 146t-44 177t51 174t164 132q-90 104 -90 209q0 141 110 239q109 98 269 99q160 0 259 -100t99 -263v-57h-172v53q0 96 -54 152t-138 57q-84 0 -136 -49q-52 -50 -52 -110t26 -96q27 -36 90 -76l299 -193
q125 -79 174 -155t49 -187z" />
    <glyph glyph-name="dieresis" unicode="&#xa8;" horiz-adv-x="681" 
d="M600 1237h-186v209h186v-209zM268 1237h-186v209h186v-209z" />
    <glyph glyph-name="copyright" unicode="&#xa9;" horiz-adv-x="1509" 
d="M774 256q-193 0 -299 117t-106 303t106 311t303 125q299 0 348 -285h-131q-35 178 -231 179q-123 0 -196 -90q-72 -90 -72 -237q0 -148 74 -233q75 -84 194 -84t174 54t76 168h131q-39 -328 -371 -328zM1382 684q0 260 -183 443t-443 183t-442 -182q-182 -184 -183 -444
q0 -260 182 -442q183 -182 443 -182t443 182t183 442zM1470 684q0 -295 -210 -504t-504 -209q-295 0 -504 209t-209 504t209 505t504 210q294 0 504 -210t210 -505z" />
    <glyph glyph-name="ordfeminine" unicode="&#xaa;" horiz-adv-x="757" 
d="M498 1059v104q-36 -17 -136 -31t-134 -38t-33 -74q0 -96 116 -96q75 0 131 41t56 94zM616 817q-96 0 -112 88q-100 -88 -206 -88t-165 53q-57 52 -57 150t70 146q71 48 251 63q57 4 79 18t22 49v27q0 90 -138 90q-70 -1 -100 -25t-39 -90h-121q6 222 260 222t254 -193
v-366q0 -47 48 -48q8 0 20 7v-91q-33 -12 -66 -12zM655 621h-567v104h567v-104z" />
    <glyph glyph-name="guillemotleft" unicode="&#xab;" 
d="M932 217l-311 248v182l311 250v-170l-217 -170l217 -170v-170zM512 217l-311 248v182l311 250v-170l-217 -170l217 -170v-170z" />
    <glyph glyph-name="logicalnot" unicode="&#xac;" horiz-adv-x="1196" 
d="M1057 326h-139v303h-779v139h918v-442z" />
    <glyph glyph-name="uni00AD" unicode="&#xad;" horiz-adv-x="681" 
d="M582 492h-488v147h488v-147z" />
    <glyph glyph-name="registered" unicode="&#xae;" horiz-adv-x="1509" 
d="M950 856q0 129 -166 129h-262v-258h262q86 1 126 31t40 98zM1116 276h-149q-29 61 -29 140l2 69q0 135 -137 136h-281v-345h-129v816h414q133 0 204 -58t70 -164q0 -131 -127 -190q63 -27 85 -69t24 -131t11 -118t42 -49v-37zM1382 684q0 260 -183 443t-443 183
t-442 -182q-182 -184 -183 -444q0 -260 182 -442q183 -182 443 -182t443 182t183 442zM1470 684q0 -295 -210 -504t-504 -209q-295 0 -504 209t-209 504t209 505t504 210q294 0 504 -210t210 -505z" />
    <glyph glyph-name="macron" unicode="&#xaf;" horiz-adv-x="681" 
d="M618 1270h-561v143h561v-143z" />
    <glyph glyph-name="degree" unicode="&#xb0;" horiz-adv-x="819" 
d="M610 1141q0 83 -60 147t-140 64t-140 -65t-61 -147q0 -82 60 -146q61 -64 141 -64t140 64t60 147zM709 1141q0 -127 -86 -213t-213 -86t-213 86t-86 213t86 213t213 86t213 -86t86 -213z" />
    <glyph glyph-name="plusminus" unicode="&#xb1;" horiz-adv-x="1196" 
d="M1057 0h-918v139h918v-139zM1057 582h-389v-318h-140v318h-389v139h389v389h140v-389h389v-139z" />
    <glyph glyph-name="two.superior" unicode="&#xb2;" horiz-adv-x="681" 
d="M612 1225q0 -143 -174 -232l-112 -59q-59 -29 -87 -61t-44 -82h411v-105h-547q7 131 53 200t175 136l106 57q104 55 105 142q0 57 -43 96t-113 39t-109 -41t-45 -137h-110q6 274 270 274q117 0 191 -63q73 -64 73 -164z" />
    <glyph glyph-name="three.superior" unicode="&#xb3;" horiz-adv-x="681" 
d="M182 918q4 -162 161 -162q79 0 122 39t43 113t-51 99q-51 26 -172 25v92q115 0 157 23t41 83q0 60 -37 93q-36 33 -106 33q-142 0 -141 -160h-113q6 256 260 256q114 0 182 -58t68 -162t-102 -149q127 -45 127 -180q0 -111 -76 -177t-205 -64q-129 0 -200 66t-70 190h112
z" />
    <glyph glyph-name="acute" unicode="&#xb4;" horiz-adv-x="681" 
d="M709 1493l-306 -303h-122l196 303h232z" />
    <glyph glyph-name="mu" unicode="&#xb5;" 
d="M997 -47q-170 0 -176 170q-121 -170 -334 -170q-111 0 -184 53v-457h-170v1524h170v-760q0 -96 59 -153q59 -58 176 -58t197 100t80 263v608h170v-893q0 -84 92 -84q16 0 37 4v-129q-68 -18 -117 -18z" />
    <glyph glyph-name="paragraph" unicode="&#xb6;" horiz-adv-x="1099" 
d="M1069 1362h-117v-1724h-131v1724h-168v-1724h-131v892q-200 10 -312 144t-112 334t133 342t326 143h512v-131z" />
    <glyph glyph-name="periodcentered" unicode="&#xb7;" horiz-adv-x="569" 
d="M391 512q0 -45 -31 -76q-32 -30 -76 -30t-75 30t-31 76q0 45 31 76q31 30 76 30t75 -30t31 -76z" />
    <glyph glyph-name="cedilla" unicode="&#xb8;" horiz-adv-x="681" 
d="M315 -387q55 0 87 27q32 26 32 64t-32 71t-126 12l-34 25l86 198h98l-47 -121h47q74 0 118 -50t44 -129t-68 -130t-174 -51t-266 70l43 82q136 -68 192 -68z" />
    <glyph glyph-name="one.superior" unicode="&#xb9;" horiz-adv-x="681" 
d="M432 686h-110v533h-179v84l27 2q94 5 129 33t57 114h76v-766z" />
    <glyph glyph-name="ordmasculine" unicode="&#xba;" horiz-adv-x="747" 
d="M545 1167q0 115 -45 181t-126 66t-127 -66t-46 -180t46 -180t126 -64q80 0 126 64t46 179zM664 1168q0 -167 -77 -259t-214 -92t-214 92t-77 259t77 259q77 93 215 93t214 -92t76 -260zM643 621h-539v104h539v-104z" />
    <glyph glyph-name="guillemotright" unicode="&#xbb;" 
d="M924 467l-316 -250v170l221 170l-221 170v170l316 -248v-182zM516 467l-315 -250v170l221 170l-221 170v170l315 -248v-182z" />
    <glyph glyph-name="onequarter" unicode="&#xbc;" horiz-adv-x="1708" 
d="M1339 276v306l-233 -306h233zM1571 180h-121v-180h-111v180h-340v107l369 479h82v-490h121v-96zM1395 1452l-926 -1503h-119l926 1503h119zM455 686h-111v533h-178v84l27 2q94 5 129 33t57 114h76v-766z" />
    <glyph glyph-name="onehalf" unicode="&#xbd;" horiz-adv-x="1708" 
d="M1563 539q0 -143 -174 -232l-113 -59q-59 -29 -87 -61t-44 -83h411v-104h-546q6 131 52 200t175 138l104 55q106 55 107 142q0 57 -44 96t-114 39t-108 -41t-43 -137h-113q8 274 272 274q117 0 191 -64t74 -163zM1305 1452l-926 -1503h-119l926 1503h119zM455 686h-111
v533h-178v84l27 2q94 5 129 33t57 114h76v-766z" />
    <glyph glyph-name="threequarters" unicode="&#xbe;" horiz-adv-x="1708" 
d="M1319 276v306l-234 -306h234zM1550 180h-120v-180h-111v180h-340v107l369 479h82v-490h120v-96zM1436 1452l-926 -1503h-119l926 1503h119zM244 918q4 -162 161 -162q79 0 121 39t43 113q0 74 -51 99q-51 26 -172 25v92q115 0 157 23t42 83t-37 93q-36 33 -106 33
t-106 -37t-36 -123h-113q6 256 261 256q114 0 182 -58t68 -162t-103 -149q127 -45 127 -180q0 -111 -76 -177t-205 -64q-129 0 -199 66t-71 190h113z" />
    <glyph glyph-name="questiondown" unicode="&#xbf;" 
d="M662 860h-185v213h185v-213zM995 35q1 -236 -113 -358q-114 -121 -324 -121t-329 106t-118 287q0 102 45 182t154 180q108 101 138 147t29 111v97h185v-113q0 -128 -104 -232q-19 -19 -109 -102q-154 -137 -154 -270q0 -104 72 -169q71 -65 199 -65t192 77q63 77 63 243
h174z" />
    <glyph glyph-name="Agrave" unicode="&#xc0;" horiz-adv-x="1366" 
d="M764 1604h-148l-366 272h278zM918 608l-230 680l-246 -680h476zM1337 0h-213l-153 449h-576l-157 -449h-203l532 1493h246z" />
    <glyph glyph-name="Aacute" unicode="&#xc1;" horiz-adv-x="1366" 
d="M1130 1876l-366 -272h-148l236 272h278zM918 608l-230 680l-246 -680h476zM1337 0h-213l-153 449h-576l-157 -449h-203l532 1493h246z" />
    <glyph glyph-name="Acircumflex" unicode="&#xc2;" horiz-adv-x="1366" 
d="M1042 1604h-153l-199 176l-194 -176h-158l235 276h234zM918 608l-230 680l-246 -680h476zM1337 0h-213l-153 449h-576l-157 -449h-203l532 1493h246z" />
    <glyph glyph-name="Atilde" unicode="&#xc3;" horiz-adv-x="1366" 
d="M821 1634q-43 0 -145 40t-129 38q-47 0 -68 -76h-119q16 100 62 156t104 55q58 0 148 -38t135 -37q51 0 76 75h119q-31 -213 -183 -213zM918 608l-230 680l-246 -680h476zM1337 0h-213l-153 449h-576l-157 -449h-203l532 1493h246z" />
    <glyph glyph-name="Adieresis" unicode="&#xc4;" horiz-adv-x="1366" 
d="M950 1636h-186v209h186v-209zM618 1636h-186v209h186v-209zM918 608l-230 680l-246 -680h476zM1337 0h-213l-153 449h-576l-157 -449h-203l532 1493h246z" />
    <glyph glyph-name="Aring" unicode="&#xc5;" horiz-adv-x="1366" 
d="M692 1673q40 1 69 29q30 28 30 69t-29 70t-70 29q-40 0 -70 -29t-30 -69t30 -69q30 -30 70 -30zM692 1968q82 0 140 -58t57 -140q-1 -81 -59 -138t-139 -57t-139 58q-58 59 -58 139t58 138t140 58zM918 608l-230 680l-246 -680h476zM1337 0h-213l-153 449h-576l-157 -449
h-203l532 1493h246z" />
    <glyph glyph-name="AE" unicode="&#xc6;" horiz-adv-x="2048" 
d="M958 606v719h-204l-283 -719h487zM1946 0h-988v438h-550l-175 -438h-210l612 1493h1274v-168h-760v-477h721v-168h-721v-512h797v-168z" />
    <glyph glyph-name="Ccedilla" unicode="&#xc7;" horiz-adv-x="1478" 
d="M836 -111q74 0 118 -50t43 -129q1 -79 -67 -130t-174 -51t-267 70l43 82l19 -9q119 -59 174 -59t87 27q32 26 32 64t-26 65t-62 27t-70 -9l-35 25l66 153q-295 17 -457 229t-162 546t178 562t504 228q485 0 576 -500h-195q-35 172 -132 252t-271 80q-215 0 -342 -171
t-127 -455t131 -444t354 -161q186 0 284 99q97 99 132 315h196q-63 -557 -569 -580l-29 -76h48z" />
    <glyph glyph-name="Egrave" unicode="&#xc8;" horiz-adv-x="1366" 
d="M776 1604h-147l-367 272h279zM1255 0h-1071v1493h1035v-168h-844v-477h813v-168h-813v-512h880v-168z" />
    <glyph glyph-name="Eacute" unicode="&#xc9;" horiz-adv-x="1366" 
d="M1143 1876l-367 -272h-147l235 272h279zM1255 0h-1071v1493h1035v-168h-844v-477h813v-168h-813v-512h880v-168z" />
    <glyph glyph-name="Ecircumflex" unicode="&#xca;" horiz-adv-x="1366" 
d="M1055 1604h-154l-199 176l-194 -176h-158l236 276h233zM1255 0h-1071v1493h1035v-168h-844v-477h813v-168h-813v-512h880v-168z" />
    <glyph glyph-name="Edieresis" unicode="&#xcb;" horiz-adv-x="1366" 
d="M963 1636h-187v209h187v-209zM631 1636h-187v209h187v-209zM1255 0h-1071v1493h1035v-168h-844v-477h813v-168h-813v-512h880v-168z" />
    <glyph glyph-name="Igrave" unicode="&#xcc;" horiz-adv-x="569" 
d="M395 1604h-147l-367 272h279zM395 0h-190v1493h190v-1493z" />
    <glyph glyph-name="Iacute" unicode="&#xcd;" horiz-adv-x="569" 
d="M721 1876l-367 -272h-147l235 272h279zM395 0h-190v1493h190v-1493z" />
    <glyph glyph-name="Icircumflex" unicode="&#xce;" horiz-adv-x="569" 
d="M653 1604h-153l-199 176l-195 -176h-157l235 276h234zM395 0h-190v1493h190v-1493z" />
    <glyph glyph-name="Idieresis" unicode="&#xcf;" horiz-adv-x="569" 
d="M561 1636h-186v209h186v-209zM229 1636h-186v209h186v-209zM395 0h-190v1493h190v-1493z" />
    <glyph glyph-name="Eth" unicode="&#xd0;" horiz-adv-x="1478" 
d="M1176 748q0 285 -115 431t-334 146h-354v-494h350v-137h-350v-526h354q219 0 334 148t115 432zM1366 748q0 -348 -162 -548t-444 -200h-578v694h-141v137h141v662h578q282 -1 444 -199t162 -546z" />
    <glyph glyph-name="Ntilde" unicode="&#xd1;" horiz-adv-x="1478" 
d="M870 1634q-42 0 -144 40t-130 38q-47 0 -68 -76h-118q16 100 62 156t104 55q58 0 147 -38q90 -38 135 -37q51 0 76 75h119q-31 -213 -183 -213zM1323 0h-215l-772 1210v-1210h-180v1493h206l781 -1221v1221h180v-1493z" />
    <glyph glyph-name="Ograve" unicode="&#xd2;" horiz-adv-x="1593" 
d="M870 1604h-147l-367 272h279zM1329 736q0 276 -145 451t-384 175t-385 -175q-147 -175 -147 -451t146 -440q146 -165 384 -165q239 0 385 164q146 165 146 441zM802 1530q324 0 520 -222q198 -222 198 -571q0 -348 -198 -561t-522 -213t-524 212q-198 212 -198 562
q0 349 200 571t524 222z" />
    <glyph glyph-name="Oacute" unicode="&#xd3;" horiz-adv-x="1593" 
d="M1237 1876l-367 -272h-147l235 272h279zM1329 736q0 276 -145 451t-384 175t-385 -175q-147 -175 -147 -451t146 -440q146 -165 384 -165q239 0 385 164q146 165 146 441zM802 1530q324 0 520 -222q198 -222 198 -571q0 -348 -198 -561t-522 -213t-524 212
q-198 212 -198 562q0 349 200 571t524 222z" />
    <glyph glyph-name="Ocircumflex" unicode="&#xd4;" horiz-adv-x="1593" 
d="M1149 1604h-154l-198 176l-195 -176h-158l236 276h233zM1329 736q0 276 -145 451t-384 175t-385 -175q-147 -175 -147 -451t146 -440q146 -165 384 -165q239 0 385 164q146 165 146 441zM802 1530q324 0 520 -222q198 -222 198 -571q0 -348 -198 -561t-522 -213t-524 212
q-198 212 -198 562q0 349 200 571t524 222z" />
    <glyph glyph-name="Otilde" unicode="&#xd5;" horiz-adv-x="1593" 
d="M928 1634q-42 0 -144 40t-131 38q-47 0 -67 -76h-119q16 100 62 156q45 56 103 55q58 0 148 -38t135 -37q51 0 76 75h119q-31 -213 -182 -213zM1329 736q0 276 -145 451t-384 175t-385 -175q-147 -175 -147 -451t146 -440q146 -165 384 -165q239 0 385 164
q146 165 146 441zM802 1530q324 0 520 -222q198 -222 198 -571q0 -348 -198 -561t-522 -213t-524 212q-198 212 -198 562q0 349 200 571t524 222z" />
    <glyph glyph-name="Odieresis" unicode="&#xd6;" horiz-adv-x="1593" 
d="M1057 1636h-187v209h187v-209zM725 1636h-186v209h186v-209zM1329 736q0 276 -145 451t-384 175t-385 -175q-147 -175 -147 -451t146 -440q146 -165 384 -165q239 0 385 164q146 165 146 441zM802 1530q324 0 520 -222q198 -222 198 -571q0 -348 -198 -561t-522 -213
t-524 212q-198 212 -198 562q0 349 200 571t524 222z" />
    <glyph glyph-name="multiply" unicode="&#xd7;" horiz-adv-x="1196" 
d="M971 238l-99 -99l-274 275l-274 -275l-99 99l275 274l-275 274l99 99l274 -275l274 275l99 -99l-275 -274z" />
    <glyph glyph-name="Oslash" unicode="&#xd8;" horiz-adv-x="1593" 
d="M788 1362q-228 0 -373 -175q-146 -175 -147 -452q0 -225 99 -377l788 861q-139 143 -367 143zM1329 713q0 254 -104 415l-787 -858q139 -139 369 -139t376 164t146 418zM1520 721q0 -332 -198 -545t-507 -213t-500 172l-153 -168l-84 76l162 176q-162 203 -162 535
t200 554t505 222t495 -178l158 174l84 -76l-166 -180q166 -217 166 -549z" />
    <glyph glyph-name="Ugrave" unicode="&#xd9;" horiz-adv-x="1478" 
d="M813 1604h-147l-367 272h279zM1321 455q0 -225 -157 -359t-421 -133q-265 0 -417 132t-152 360v1038h191v-1038q0 -158 103 -241t280 -83t280 86q102 86 102 238v1038h191v-1038z" />
    <glyph glyph-name="Uacute" unicode="&#xda;" horiz-adv-x="1478" 
d="M1180 1876l-367 -272h-147l235 272h279zM1321 455q0 -225 -157 -359t-421 -133q-265 0 -417 132t-152 360v1038h191v-1038q0 -158 103 -241t280 -83t280 86q102 86 102 238v1038h191v-1038z" />
    <glyph glyph-name="Ucircumflex" unicode="&#xdb;" horiz-adv-x="1478" 
d="M1092 1604h-154l-199 176l-194 -176h-158l236 276h233zM1321 455q0 -225 -157 -359t-421 -133q-265 0 -417 132t-152 360v1038h191v-1038q0 -158 103 -241t280 -83t280 86q102 86 102 238v1038h191v-1038z" />
    <glyph glyph-name="Udieresis" unicode="&#xdc;" horiz-adv-x="1478" 
d="M999 1636h-186v209h186v-209zM668 1636h-187v209h187v-209zM1321 455q0 -225 -157 -359t-421 -133q-265 0 -417 132t-152 360v1038h191v-1038q0 -158 103 -241t280 -83t280 86q102 86 102 238v1038h191v-1038z" />
    <glyph glyph-name="Yacute" unicode="&#xdd;" horiz-adv-x="1366" 
d="M1139 1876l-367 -272h-147l235 272h279zM793 0h-191v586l-575 907h235l438 -727l426 727h228l-561 -907v-586z" />
    <glyph glyph-name="Thorn" unicode="&#xde;" horiz-adv-x="1366" 
d="M1057 817q0 123 -75 193t-208 69h-397v-524h397q133 -1 208 69t75 193zM803 1247q213 1 336 -115t123 -310t-117 -315q-117 -120 -299 -120h-469v-387h-191v1493h191v-246h426z" />
    <glyph glyph-name="germandbls" unicode="&#xdf;" horiz-adv-x="1251" 
d="M1159 449q0 -225 -124 -357t-335 -133q-96 0 -172 8v170q86 -10 156 -10q131 0 214 86q83 85 83 233t-94 208t-289 61v168q121 0 210 62q89 61 89 163t-89 164t-207 61q-118 1 -203 -65t-85 -166v-1102h-170v1102q1 168 135 280t324 111q190 0 331 -105
q142 -105 142 -272q0 -98 -55 -179t-148 -116q127 -33 207 -137t80 -235z" />
    <glyph glyph-name="agrave" unicode="&#xe0;" 
d="M625 1190h-123l-305 303h231zM797 371v159q-68 -31 -241 -55t-232 -66t-60 -126q0 -164 211 -164q129 1 225 71t97 181zM970 -14q-54 0 -104 40q-49 40 -63 101q-147 -158 -365 -158q-164 0 -258 82t-94 228q0 249 296 309q58 12 197 30t179 44q39 27 39 79v45
q-1 78 -63 119t-179 41t-178 -46t-72 -144h-172q14 348 430 348q199 0 301 -75t103 -218v-598q0 -84 92 -84q18 0 37 4v-129q-72 -18 -126 -18z" />
    <glyph glyph-name="aacute" unicode="&#xe1;" 
d="M930 1493l-305 -303h-123l196 303h232zM797 371v159q-68 -31 -241 -55t-232 -66t-60 -126q0 -164 211 -164q129 1 225 71t97 181zM970 -14q-54 0 -104 40q-49 40 -63 101q-147 -158 -365 -158q-164 0 -258 82t-94 228q0 249 296 309q58 12 197 30t179 44q39 27 39 79v45
q-1 78 -63 119t-179 41t-178 -46t-72 -144h-172q14 348 430 348q199 0 301 -75t103 -218v-598q0 -84 92 -84q18 0 37 4v-129q-72 -18 -126 -18z" />
    <glyph glyph-name="acircumflex" unicode="&#xe2;" 
d="M856 1188h-129l-166 196l-162 -196h-131l197 307h194zM797 371v159q-68 -31 -241 -55t-232 -66t-60 -126q0 -164 211 -164q129 1 225 71t97 181zM970 -14q-54 0 -104 40q-49 40 -63 101q-147 -158 -365 -158q-164 0 -258 82t-94 228q0 249 296 309q58 12 197 30t179 44
q39 27 39 79v45q-1 78 -63 119t-179 41t-178 -46t-72 -144h-172q14 348 430 348q199 0 301 -75t103 -218v-598q0 -84 92 -84q18 0 37 4v-129q-72 -18 -126 -18z" />
    <glyph glyph-name="atilde" unicode="&#xe3;" 
d="M692 1235q-42 0 -144 39t-130 39q-47 0 -68 -76h-119q17 99 63 155t104 56t147 -38q90 -38 135 -38q51 0 76 76h118q-31 -213 -182 -213zM797 371v159q-68 -31 -241 -55t-232 -66t-60 -126q0 -164 211 -164q129 1 225 71t97 181zM970 -14q-54 0 -104 40q-49 40 -63 101
q-147 -158 -365 -158q-164 0 -258 82t-94 228q0 249 296 309q58 12 197 30t179 44q39 27 39 79v45q-1 78 -63 119t-179 41t-178 -46t-72 -144h-172q14 348 430 348q199 0 301 -75t103 -218v-598q0 -84 92 -84q18 0 37 4v-129q-72 -18 -126 -18z" />
    <glyph glyph-name="adieresis" unicode="&#xe4;" 
d="M821 1237h-186v209h186v-209zM489 1237h-186v209h186v-209zM797 371v159q-68 -31 -241 -55t-232 -66t-60 -126q0 -164 211 -164q129 1 225 71t97 181zM970 -14q-54 0 -104 40q-49 40 -63 101q-147 -158 -365 -158q-164 0 -258 82t-94 228q0 249 296 309q58 12 197 30
t179 44q39 27 39 79v45q-1 78 -63 119t-179 41t-178 -46t-72 -144h-172q14 348 430 348q199 0 301 -75t103 -218v-598q0 -84 92 -84q18 0 37 4v-129q-72 -18 -126 -18z" />
    <glyph glyph-name="aring" unicode="&#xe5;" 
d="M563 1440q-41 0 -71 -29t-29 -69q0 -40 30 -70q29 -30 69 -29t70 29t30 69t-29 70t-70 29zM563 1538q81 0 139 -58t58 -140q0 -81 -58 -138t-140 -57q-81 0 -139 58t-58 138q0 81 58 139t140 58zM797 371v159q-68 -31 -241 -55t-232 -66t-60 -126q0 -164 211 -164
q129 1 225 71t97 181zM970 -14q-54 0 -104 40q-49 40 -63 101q-147 -158 -365 -158q-164 0 -258 82t-94 228q0 249 296 309q58 12 197 30t179 44q39 27 39 79v45q-1 78 -63 119t-179 41t-178 -46t-72 -144h-172q14 348 430 348q199 0 301 -75t103 -218v-598q0 -84 92 -84
q18 0 37 4v-129q-72 -18 -126 -18z" />
    <glyph glyph-name="ae" unicode="&#xe6;" horiz-adv-x="1820" 
d="M1546 618q0 144 -82 236t-212 92t-214 -89t-94 -239h602zM248 285q0 -166 213 -166q105 1 212 75t107 144v190q-68 -29 -242 -54t-232 -66t-58 -123zM901 936q118 168 374 168q130 0 245 -76t163 -198t48 -351h-791q2 -168 90 -260t225 -92q205 0 283 199h172
q-33 -164 -155 -260t-302 -97q-119 0 -215 45t-149 125l-33 56q-115 -119 -218 -172q-102 -53 -242 -53t-233 82q-93 83 -93 239q0 155 112 229t420 101q104 9 141 35t37 85v45q0 160 -235 160t-256 -190h-172q14 348 426 348q262 0 358 -168z" />
    <glyph glyph-name="ccedilla" unicode="&#xe7;" horiz-adv-x="1024" 
d="M610 -111q74 0 118 -50t44 -129t-68 -130t-174 -51t-266 70l43 82l19 -9q119 -59 174 -59t87 27q31 26 31 64t-32 71t-125 12l-35 25l70 159q-201 15 -317 163t-116 403q1 255 131 411t347 156q184 0 297 -99t127 -292h-172q-16 113 -82 173t-172 60q-141 0 -220 -109
q-77 -109 -77 -305t80 -300t206 -105q126 0 192 57t85 185h172q-13 -169 -113 -275t-268 -123l-33 -82h47z" />
    <glyph glyph-name="egrave" unicode="&#xe8;" 
d="M635 1190h-123l-305 303h231zM569 946q-127 0 -211 -88t-94 -231h602l2 12q0 127 -86 217t-213 90zM1051 487h-791q2 -178 89 -269t226 -91q215 0 281 199h172q-33 -164 -155 -260t-304 -97q-227 1 -357 149t-130 412t133 419t358 155q152 0 268 -76t163 -198t47 -343z
" />
    <glyph glyph-name="eacute" unicode="&#xe9;" 
d="M940 1493l-305 -303h-123l197 303h231zM569 946q-127 0 -211 -88t-94 -231h602l2 12q0 127 -86 217t-213 90zM1051 487h-791q2 -178 89 -269t226 -91q215 0 281 199h172q-33 -164 -155 -260t-304 -97q-227 1 -357 149t-130 412t133 419t358 155q152 0 268 -76t163 -198
t47 -343z" />
    <glyph glyph-name="ecircumflex" unicode="&#xea;" 
d="M866 1188h-129l-166 196l-161 -196h-131l196 307h195zM569 946q-127 0 -211 -88t-94 -231h602l2 12q0 127 -86 217t-213 90zM1051 487h-791q2 -178 89 -269t226 -91q215 0 281 199h172q-33 -164 -155 -260t-304 -97q-227 1 -357 149t-130 412t133 419t358 155
q152 0 268 -76t163 -198t47 -343z" />
    <glyph glyph-name="edieresis" unicode="&#xeb;" 
d="M831 1237h-186v209h186v-209zM500 1237h-187v209h187v-209zM569 946q-127 0 -211 -88t-94 -231h602l2 12q0 127 -86 217t-213 90zM1051 487h-791q2 -178 89 -269t226 -91q215 0 281 199h172q-33 -164 -155 -260t-304 -97q-227 1 -357 149t-130 412t133 419t358 155
q152 0 268 -76t163 -198t47 -343z" />
    <glyph glyph-name="igrave" unicode="&#xec;" horiz-adv-x="569" 
d="M371 1190h-123l-305 303h231zM371 0h-170v1073h170v-1073z" />
    <glyph glyph-name="iacute" unicode="&#xed;" horiz-adv-x="569" 
d="M631 1493l-305 -303h-123l196 303h232zM371 0h-170v1073h170v-1073z" />
    <glyph glyph-name="icircumflex" unicode="&#xee;" horiz-adv-x="569" 
d="M580 1188h-129l-166 196l-162 -196h-131l196 307h195zM371 0h-170v1073h170v-1073z" />
    <glyph glyph-name="idieresis" unicode="&#xef;" horiz-adv-x="569" 
d="M545 1237h-187v209h187v-209zM213 1237h-186v209h186v-209zM371 0h-170v1073h170v-1073z" />
    <glyph glyph-name="eth" unicode="&#xf0;" 
d="M252 536q0 -192 82 -300t224 -109t225 107t83 302t-81 302t-225 108t-226 -108q-82 -110 -82 -302zM1044 516q0 -250 -125 -399q-125 -147 -359 -147t-360 146t-126 414t121 420q121 150 325 150q49 0 129 -27q-80 82 -200 182l-199 -92l-74 80l174 82q-61 47 -168 107
l90 90q76 -33 228 -129l198 92l82 -76l-184 -84q240 -183 344 -371t104 -438z" />
    <glyph glyph-name="ntilde" unicode="&#xf1;" 
d="M698 1235q-42 0 -144 39t-130 39q-47 0 -68 -76h-118q16 99 62 155t104 56t147 -38q90 -38 135 -38q51 0 76 76h119q-31 -213 -183 -213zM997 0h-170v743q0 95 -59 153t-176 58t-198 -99t-81 -263v-592h-170v1073h158v-180q72 113 155 162t220 49t229 -80t92 -213v-811z
" />
    <glyph glyph-name="ograve" unicode="&#xf2;" 
d="M631 1190h-123l-305 303h231zM866 536q0 194 -81 302t-225 108t-226 -108t-82 -302t82 -302t224 -108t225 108t83 302zM74 536q0 270 128 418q128 150 358 150t357 -150t127 -420t-129 -417t-357 -147t-356 148t-128 418z" />
    <glyph glyph-name="oacute" unicode="&#xf3;" 
d="M936 1493l-305 -303h-123l197 303h231zM866 536q0 194 -81 302t-225 108t-226 -108t-82 -302t82 -302t224 -108t225 108t83 302zM74 536q0 270 128 418q128 150 358 150t357 -150t127 -420t-129 -417t-357 -147t-356 148t-128 418z" />
    <glyph glyph-name="ocircumflex" unicode="&#xf4;" 
d="M862 1188h-129l-166 196l-161 -196h-132l197 307h195zM866 536q0 194 -81 302t-225 108t-226 -108t-82 -302t82 -302t224 -108t225 108t83 302zM74 536q0 270 128 418q128 150 358 150t357 -150t127 -420t-129 -417t-357 -147t-356 148t-128 418z" />
    <glyph glyph-name="otilde" unicode="&#xf5;" 
d="M698 1235q-42 0 -144 39t-130 39q-47 0 -68 -76h-118q16 99 62 155t104 56t147 -38q90 -38 135 -38q51 0 76 76h119q-31 -213 -183 -213zM866 536q0 194 -81 302t-225 108t-226 -108t-82 -302t82 -302t224 -108t225 108t83 302zM74 536q0 270 128 418q128 150 358 150
t357 -150t127 -420t-129 -417t-357 -147t-356 148t-128 418z" />
    <glyph glyph-name="odieresis" unicode="&#xf6;" 
d="M827 1237h-186v209h186v-209zM496 1237h-187v209h187v-209zM866 536q0 194 -81 302t-225 108t-226 -108t-82 -302t82 -302t224 -108t225 108t83 302zM74 536q0 270 128 418q128 150 358 150t357 -150t127 -420t-129 -417t-357 -147t-356 148t-128 418z" />
    <glyph glyph-name="divide" unicode="&#xf7;" horiz-adv-x="1196" 
d="M705 138q0 -44 -31 -75t-76 -31t-76 32q-30 30 -30 74t30 76q31 32 76 32t76 -32t31 -76zM705 886q0 -44 -31 -76t-76 -32t-76 32q-30 32 -30 76t30 75q31 31 76 31t76 -32q31 -30 31 -74zM1057 442h-918v140h918v-140z" />
    <glyph glyph-name="oslash" unicode="&#xf8;" 
d="M553 946q-137 0 -219 -108t-82 -301q0 -139 43 -236l471 559q-76 86 -213 86zM566 127q134 -1 217 107t83 274t-43 264l-471 -559q80 -86 214 -86zM1044 516q0 -252 -129 -399t-341 -147t-334 110l-86 -100l-76 63l94 113q-98 150 -98 400t128 398q128 150 342 150
t335 -111l86 101l75 -64l-94 -112q98 -150 98 -402z" />
    <glyph glyph-name="ugrave" unicode="&#xf9;" 
d="M631 1190h-123l-305 303h231zM987 0h-153v166q-76 -106 -158 -152t-220 -45q-138 0 -230 80q-93 80 -93 213v811h170v-743q0 -96 59 -154t177 -57q118 0 198 99t80 263v592h170v-1073z" />
    <glyph glyph-name="uacute" unicode="&#xfa;" 
d="M936 1493l-305 -303h-123l197 303h231zM987 0h-153v166q-76 -106 -158 -152t-220 -45q-138 0 -230 80q-93 80 -93 213v811h170v-743q0 -96 59 -154t177 -57q118 0 198 99t80 263v592h170v-1073z" />
    <glyph glyph-name="ucircumflex" unicode="&#xfb;" 
d="M862 1188h-129l-166 196l-161 -196h-132l197 307h195zM987 0h-153v166q-76 -106 -158 -152t-220 -45q-138 0 -230 80q-93 80 -93 213v811h170v-743q0 -96 59 -154t177 -57q118 0 198 99t80 263v592h170v-1073z" />
    <glyph glyph-name="udieresis" unicode="&#xfc;" 
d="M827 1237h-186v209h186v-209zM496 1237h-187v209h187v-209zM987 0h-153v166q-76 -106 -158 -152t-220 -45q-138 0 -230 80q-93 80 -93 213v811h170v-743q0 -96 59 -154t177 -57q118 0 198 99t80 263v592h170v-1073z" />
    <glyph glyph-name="yacute" unicode="&#xfd;" horiz-adv-x="1024" 
d="M879 1493l-306 -303h-122l196 303h232zM225 -446q-63 0 -114 26v154q127 -28 175 11q30 24 52 81l65 170l-362 1077h182l275 -835l297 835h184l-477 -1298q-82 -221 -277 -221z" />
    <glyph glyph-name="thorn" unicode="&#xfe;" 
d="M891 532q0 182 -85 298q-85 114 -223 114q-139 0 -221 -114t-82 -297t82 -293t220 -111q138 1 223 111q86 110 86 292zM1069 528q0 -256 -126 -408t-329 -151q-203 0 -333 160v-575h-170v1908h170v-522q115 164 327 164t336 -160q125 -160 125 -416z" />
    <glyph glyph-name="ydieresis" unicode="&#xff;" horiz-adv-x="1024" 
d="M770 1237h-186v209h186v-209zM438 1237h-186v209h186v-209zM225 -446q-63 0 -114 26v154q127 -28 175 11q30 24 52 81l65 170l-362 1077h182l275 -835l297 835h184l-477 -1298q-82 -221 -277 -221z" />
    <glyph glyph-name="Amacron" unicode="&#x100;" horiz-adv-x="1366" 
d="M969 1669h-561v143h561v-143zM918 608l-230 680l-246 -680h476zM1337 0h-213l-153 449h-576l-157 -449h-203l532 1493h246z" />
    <glyph glyph-name="amacron" unicode="&#x101;" 
d="M840 1270h-561v143h561v-143zM797 371v159q-68 -31 -241 -55t-232 -66t-60 -126q0 -164 211 -164q129 1 225 71t97 181zM970 -14q-54 0 -104 40q-49 40 -63 101q-147 -158 -365 -158q-164 0 -258 82t-94 228q0 249 296 309q58 12 197 30t179 44q39 27 39 79v45
q-1 78 -63 119t-179 41t-178 -46t-72 -144h-172q14 348 430 348q199 0 301 -75t103 -218v-598q0 -84 92 -84q18 0 37 4v-129q-72 -18 -126 -18z" />
    <glyph glyph-name="Abreve" unicode="&#x102;" horiz-adv-x="1366" 
d="M686 1616q-166 0 -265 61t-102 189h146q8 -59 61 -81t164 -22q213 0 223 103h146q-25 -250 -373 -250zM918 608l-230 680l-246 -680h476zM1337 0h-213l-153 449h-576l-157 -449h-203l532 1493h246z" />
    <glyph glyph-name="abreve" unicode="&#x103;" 
d="M868 1481q0 -117 -92 -197t-219 -80t-219 80t-92 197h110q25 -61 80 -99t121 -36q66 0 121 36t80 99h110zM797 371v159q-68 -31 -241 -55t-232 -66t-60 -126q0 -164 211 -164q129 1 225 71t97 181zM970 -14q-54 0 -104 40q-49 40 -63 101q-147 -158 -365 -158
q-164 0 -258 82t-94 228q0 249 296 309q58 12 197 30t179 44q39 27 39 79v45q-1 78 -63 119t-179 41t-178 -46t-72 -144h-172q14 348 430 348q199 0 301 -75t103 -218v-598q0 -84 92 -84q18 0 37 4v-129q-72 -18 -126 -18z" />
    <glyph glyph-name="Aogonek" unicode="&#x104;" horiz-adv-x="1366" 
d="M918 608l-230 680l-246 -680h476zM985 -272q0 128 139 272l-153 449h-576l-157 -449h-203l532 1493h246l524 -1493q-96 0 -159 -100q-33 -47 -33 -121q0 -90 90 -90h102v-160h-102q-100 0 -175 53t-75 146z" />
    <glyph glyph-name="aogonek" unicode="&#x105;" 
d="M797 371v159q-68 -31 -241 -55t-232 -66t-60 -126q0 -164 211 -164q129 1 225 71t97 181zM1096 -471h-103q-100 0 -175 53t-75 146q0 150 164 272q-84 37 -104 127q-147 -158 -365 -158q-164 0 -258 82t-94 228q0 249 296 309q58 12 197 30t179 44q39 27 39 79v45
q-1 78 -63 119t-179 41t-178 -46t-72 -144h-172q14 348 430 348q199 0 301 -75t103 -218v-598q0 -84 92 -84q18 0 37 4v-129l-37 -8q-70 -16 -113 -78t-43 -139q0 -90 90 -90h103v-160z" />
    <glyph glyph-name="Cacute" unicode="&#x106;" horiz-adv-x="1478" 
d="M1198 1876l-367 -272h-147l236 272h278zM772 -37q-319 0 -497 214q-177 214 -177 555q0 342 178 570t504 228q485 0 576 -500h-195q-35 172 -132 252t-271 80q-215 0 -342 -171t-127 -455t131 -444t354 -161q186 0 284 99q97 99 132 315h196q-68 -582 -614 -582z" />
    <glyph glyph-name="cacute" unicode="&#x107;" horiz-adv-x="1024" 
d="M907 1493l-305 -303h-123l197 303h231zM63 530q1 262 131 418t347 156q184 0 297 -99t127 -292h-172q-16 113 -82 173t-172 60q-141 0 -220 -109q-77 -109 -77 -305t80 -300t206 -105q126 0 192 57t85 185h172q-16 -187 -132 -293q-117 -106 -321 -106t-333 149
q-128 149 -128 411z" />
    <glyph glyph-name="Ccircumflex" unicode="&#x108;" horiz-adv-x="1478" 
d="M1110 1604h-154l-198 176l-195 -176h-157l235 276h233zM772 -37q-319 0 -497 214q-177 214 -177 555q0 342 178 570t504 228q485 0 576 -500h-195q-35 172 -132 252t-271 80q-215 0 -342 -171t-127 -455t131 -444t354 -161q186 0 284 99q97 99 132 315h196
q-68 -582 -614 -582z" />
    <glyph glyph-name="ccircumflex" unicode="&#x109;" horiz-adv-x="1024" 
d="M834 1188h-129l-166 196l-162 -196h-131l196 307h195zM63 530q1 262 131 418t347 156q184 0 297 -99t127 -292h-172q-16 113 -82 173t-172 60q-141 0 -220 -109q-77 -109 -77 -305t80 -300t206 -105q126 0 192 57t85 185h172q-16 -187 -132 -293q-117 -106 -321 -106
t-333 149q-128 149 -128 411z" />
    <glyph glyph-name="Cdotaccent" unicode="&#x10a;" horiz-adv-x="1478" 
d="M866 1634h-213v213h213v-213zM772 -37q-319 0 -497 214q-177 214 -177 555q0 342 178 570t504 228q485 0 576 -500h-195q-35 172 -132 252t-271 80q-215 0 -342 -171t-127 -455t131 -444t354 -161q186 0 284 99q97 99 132 315h196q-68 -582 -614 -582z" />
    <glyph glyph-name="cdotaccent" unicode="&#x10b;" horiz-adv-x="1024" 
d="M647 1235h-213v213h213v-213zM63 530q1 262 131 418t347 156q184 0 297 -99t127 -292h-172q-16 113 -82 173t-172 60q-141 0 -220 -109q-77 -109 -77 -305t80 -300t206 -105q126 0 192 57t85 185h172q-16 -187 -132 -293q-117 -106 -321 -106t-333 149q-128 149 -128 411
z" />
    <glyph glyph-name="Ccaron" unicode="&#x10c;" horiz-adv-x="1478" 
d="M1112 1880l-235 -276h-234l-235 276h153l199 -176l194 176h158zM772 -37q-319 0 -497 214q-177 214 -177 555q0 342 178 570t504 228q485 0 576 -500h-195q-35 172 -132 252t-271 80q-215 0 -342 -171t-127 -455t131 -444t354 -161q186 0 284 99q97 99 132 315h196
q-68 -582 -614 -582z" />
    <glyph glyph-name="ccaron" unicode="&#x10d;" horiz-adv-x="1024" 
d="M834 1495l-197 -307h-195l-196 307h129l166 -197l161 197h132zM63 530q1 262 131 418t347 156q184 0 297 -99t127 -292h-172q-16 113 -82 173t-172 60q-141 0 -220 -109q-77 -109 -77 -305t80 -300t206 -105q126 0 192 57t85 185h172q-16 -187 -132 -293
q-117 -106 -321 -106t-333 149q-128 149 -128 411z" />
    <glyph glyph-name="Dcaron" unicode="&#x10e;" horiz-adv-x="1478" 
d="M1079 1880l-235 -276h-234l-235 276h153l199 -176l195 176h157zM1176 746q0 284 -115 432t-336 147h-352v-1157h352q221 0 336 147t115 431zM1366 748q0 -348 -163 -548t-445 -200h-576v1493h576q284 -1 446 -199t162 -546z" />
    <glyph glyph-name="dcaron" unicode="&#x10f;" 
d="M1358 1282q0 -116 -54 -182t-151 -66v78q113 0 113 160v16h-113v205h205v-211zM542 129q138 -1 220 109t82 295t-82 298t-221 113t-225 -110q-85 -111 -85 -297t86 -297q87 -111 225 -111zM1014 0h-152v158q-70 -100 -150 -144t-192 -45q-217 0 -342 154t-125 417
q0 264 126 414t341 150t324 -166v555h170v-1493z" />
    <glyph glyph-name="Dcroat" unicode="&#x110;" horiz-adv-x="1478" 
d="M1176 748q0 285 -115 431t-334 146h-354v-494h350v-137h-350v-526h354q219 0 334 148t115 432zM1366 748q0 -348 -162 -548t-444 -200h-578v694h-141v137h141v662h578q282 -1 444 -199t162 -546z" />
    <glyph glyph-name="dcroat" unicode="&#x111;" 
d="M540 137q138 1 220 107t82 291t-81 293t-220 108t-225 -109t-85 -291q0 -182 85 -290q86 -109 224 -109zM1141 1229h-129v-1229h-152v137q-143 -168 -348 -168t-332 158t-127 417q0 260 125 410t329 150t335 -160v285h-307v108h307v156h170v-156h129v-108z" />
    <glyph glyph-name="Emacron" unicode="&#x112;" horiz-adv-x="1366" 
d="M981 1669h-561v143h561v-143zM1255 0h-1071v1493h1035v-168h-844v-477h813v-168h-813v-512h880v-168z" />
    <glyph glyph-name="emacron" unicode="&#x113;" 
d="M850 1270h-561v143h561v-143zM569 946q-127 0 -211 -88t-94 -231h602l2 12q0 127 -86 217t-213 90zM1051 487h-791q2 -178 89 -269t226 -91q215 0 281 199h172q-33 -164 -155 -260t-304 -97q-227 1 -357 149t-130 412t133 419t358 155q152 0 268 -76t163 -198t47 -343z
" />
    <glyph glyph-name="Ebreve" unicode="&#x114;" horiz-adv-x="1366" 
d="M698 1616q-166 0 -265 61t-101 189h145q7 -59 61 -81t164 -22q213 0 224 103h145q-25 -250 -373 -250zM1255 0h-1071v1493h1035v-168h-844v-477h813v-168h-813v-512h880v-168z" />
    <glyph glyph-name="ebreve" unicode="&#x115;" 
d="M879 1481q-1 -117 -93 -197t-219 -80t-219 80t-92 197h111q25 -61 79 -99q55 -36 121 -36t121 36t80 99h111zM569 946q-127 0 -211 -88t-94 -231h602l2 12q0 127 -86 217t-213 90zM1051 487h-791q2 -178 89 -269t226 -91q215 0 281 199h172q-33 -164 -155 -260t-304 -97
q-227 1 -357 149t-130 412t133 419t358 155q152 0 268 -76t163 -198t47 -343z" />
    <glyph glyph-name="Edotaccent" unicode="&#x116;" horiz-adv-x="1366" 
d="M811 1634h-213v213h213v-213zM1255 0h-1071v1493h1035v-168h-844v-477h813v-168h-813v-512h880v-168z" />
    <glyph glyph-name="edotaccent" unicode="&#x117;" 
d="M680 1235h-213v213h213v-213zM569 946q-127 0 -211 -88t-94 -231h602l2 12q0 127 -86 217t-213 90zM1051 487h-791q2 -178 89 -269t226 -91q215 0 281 199h172q-33 -164 -155 -260t-304 -97q-227 1 -357 149t-130 412t133 419t358 155q152 0 268 -76t163 -198t47 -343z
" />
    <glyph glyph-name="Eogonek" unicode="&#x118;" horiz-adv-x="1366" 
d="M1255 -471h-102q-100 0 -175 53t-75 146q0 147 162 272h-881v1493h1035v-168h-844v-477h813v-168h-813v-512h880v-168q-96 0 -159 -100q-33 -47 -33 -121q0 -90 90 -90h102v-160z" />
    <glyph glyph-name="eogonek" unicode="&#x119;" 
d="M569 946q-127 0 -211 -88t-94 -231h602l2 12q0 127 -86 217t-213 90zM1051 487h-791q2 -178 89 -269t226 -91q215 0 281 199h172q-45 -219 -231 -308q-188 -92 -189 -239q0 -90 90 -90h103v-160h-103q-100 0 -175 53t-74 146q0 133 124 241h-4q-227 1 -357 149t-130 412
t133 419t358 155q152 0 268 -76t163 -198t47 -343z" />
    <glyph glyph-name="Ecaron" unicode="&#x11a;" horiz-adv-x="1366" 
d="M1057 1880l-236 -276h-233l-236 276h154l199 -176l194 176h158zM1255 0h-1071v1493h1035v-168h-844v-477h813v-168h-813v-512h880v-168z" />
    <glyph glyph-name="ecaron" unicode="&#x11b;" 
d="M866 1495l-196 -307h-195l-196 307h129l165 -197l162 197h131zM569 946q-127 0 -211 -88t-94 -231h602l2 12q0 127 -86 217t-213 90zM1051 487h-791q2 -178 89 -269t226 -91q215 0 281 199h172q-33 -164 -155 -260t-304 -97q-227 1 -357 149t-130 412t133 419t358 155
q152 0 268 -76t163 -198t47 -343z" />
    <glyph glyph-name="Gcircumflex" unicode="&#x11c;" horiz-adv-x="1593" 
d="M1159 1604h-153l-199 176l-195 -176h-157l235 276h234zM1452 0h-121l-47 197q-209 -233 -511 -233t-492 211q-191 212 -191 557q0 346 192 572t525 226q256 0 420 -130t205 -360h-195q-31 145 -147 234q-117 88 -285 88q-236 0 -380 -172t-144 -448t142 -444
q142 -167 392 -167q205 0 337 125t132 324v41h-455v167h623v-788z" />
    <glyph glyph-name="gcircumflex" unicode="&#x11d;" 
d="M862 1188h-129l-166 196l-161 -196h-132l197 307h195zM827 532q0 192 -77 304q-78 110 -215 110t-218 -108q-79 -108 -79 -302t78 -302t218 -108q138 0 216 107q77 107 77 299zM1001 176q-1 -348 -111 -485t-368 -137q-188 0 -301 86t-127 237h174q29 -180 260 -180
q156 0 236 93t80 300v72q-86 -102 -164 -148t-178 -45q-193 0 -318 154q-125 155 -125 409t126 413t329 159t330 -186v155h157v-897z" />
    <glyph glyph-name="Gbreve" unicode="&#x11e;" horiz-adv-x="1593" 
d="M803 1616q-166 0 -265 61t-102 189h146q8 -59 61 -81t164 -22q213 0 223 103h146q-25 -250 -373 -250zM1452 0h-121l-47 197q-209 -233 -511 -233t-492 211q-191 212 -191 557q0 346 192 572t525 226q256 0 420 -130t205 -360h-195q-31 145 -147 234q-117 88 -285 88
q-236 0 -380 -172t-144 -448t142 -444q142 -167 392 -167q205 0 337 125t132 324v41h-455v167h623v-788z" />
    <glyph glyph-name="gbreve" unicode="&#x11f;" 
d="M874 1481q0 -117 -92 -197t-219 -80t-219 80t-92 197h110q25 -61 80 -99t121 -36q66 0 121 36t80 99h110zM827 532q0 192 -77 304q-78 110 -215 110t-218 -108q-79 -108 -79 -302t78 -302t218 -108q138 0 216 107q77 107 77 299zM1001 176q-1 -348 -111 -485t-368 -137
q-188 0 -301 86t-127 237h174q29 -180 260 -180q156 0 236 93t80 300v72q-86 -102 -164 -148t-178 -45q-193 0 -318 154q-125 155 -125 409t126 413t329 159t330 -186v155h157v-897z" />
    <glyph glyph-name="Gdotaccent" unicode="&#x120;" horiz-adv-x="1593" 
d="M915 1634h-213v213h213v-213zM1452 0h-121l-47 197q-209 -233 -511 -233t-492 211q-191 212 -191 557q0 346 192 572t525 226q256 0 420 -130t205 -360h-195q-31 145 -147 234q-117 88 -285 88q-236 0 -380 -172t-144 -448t142 -444q142 -167 392 -167q205 0 337 125
t132 324v41h-455v167h623v-788z" />
    <glyph glyph-name="gdotaccent" unicode="&#x121;" 
d="M676 1235h-213v213h213v-213zM827 532q0 192 -77 304q-78 110 -215 110t-218 -108q-79 -108 -79 -302t78 -302t218 -108q138 0 216 107q77 107 77 299zM1001 176q-1 -348 -111 -485t-368 -137q-188 0 -301 86t-127 237h174q29 -180 260 -180q156 0 236 93t80 300v72
q-86 -102 -164 -148t-178 -45q-193 0 -318 154q-125 155 -125 409t126 413t329 159t330 -186v155h157v-897z" />
    <glyph glyph-name="Gcommaaccent" unicode="&#x122;" horiz-adv-x="1593" 
d="M911 -334q0 -116 -54 -182t-150 -66v78q113 0 112 160v16h-112v205h204v-211zM1452 0h-121l-47 197q-209 -233 -511 -233t-492 211q-191 212 -191 557q0 346 192 572t525 226q256 0 420 -130t205 -360h-195q-31 145 -147 234q-117 88 -285 88q-236 0 -380 -172t-144 -448
t142 -444q142 -167 392 -167q205 0 337 125t132 324v41h-455v167h623v-788z" />
    <glyph glyph-name="gcommaaccent" unicode="&#x123;" 
d="M827 532q0 192 -77 304q-78 110 -215 110t-218 -108q-79 -108 -79 -302t78 -302t218 -108q138 0 216 107q77 107 77 299zM1001 176q-1 -348 -111 -485t-368 -137q-188 0 -301 86t-127 237h174q29 -180 260 -180q156 0 236 93t80 300v72q-86 -102 -164 -148t-178 -45
q-193 0 -318 154q-125 155 -125 409t126 413t329 159t330 -186v155h157v-897zM674 1182h-205v211q0 117 54 183t151 64v-77q-113 0 -113 -160v-17h113v-204z" />
    <glyph glyph-name="Hcircumflex" unicode="&#x124;" horiz-adv-x="1478" 
d="M1092 1604h-154l-199 176l-194 -176h-158l236 276h233zM1319 0h-191v680h-768v-680h-190v1493h190v-645h768v645h191v-1493z" />
    <glyph glyph-name="hcircumflex" unicode="&#x125;" 
d="M922 1604h-154l-199 176l-194 -176h-158l236 276h233zM995 0h-170v743q0 103 -62 157t-159 54q-131 0 -211 -99t-80 -263v-592h-170v1493h170v-567q76 98 153 138t212 40t226 -79t91 -214v-811z" />
    <glyph glyph-name="Hbar" unicode="&#x126;" horiz-adv-x="1478" 
d="M1128 848v299h-768v-299h768zM1413 1147h-94v-1147h-191v680h-768v-680h-190v1147h-94v94h94v252h190v-252h768v252h191v-252h94v-94z" />
    <glyph glyph-name="hbar" unicode="&#x127;" horiz-adv-x="1214" 
d="M1075 0h-170v743q0 103 -62 157t-159 54q-131 0 -211 -99t-80 -263v-592h-170v1057l-84 -35v102l84 35v334h170v-264l256 104v-100l-256 -107v-200q76 98 153 138t212 40t226 -79t91 -214v-811z" />
    <glyph glyph-name="Itilde" unicode="&#x128;" horiz-adv-x="569" 
d="M432 1634q-42 0 -144 40t-130 38q-47 0 -68 -76h-119q17 100 63 156t103 55q57 0 147 -38t136 -37q51 0 76 75h118q-31 -213 -182 -213zM395 0h-190v1493h190v-1493z" />
    <glyph glyph-name="itilde" unicode="&#x129;" horiz-adv-x="569" 
d="M416 1235q-42 0 -144 39t-131 39q-47 0 -67 -76h-119q16 99 62 155q45 56 103 56t148 -38t135 -38q51 0 76 76h119q-31 -213 -182 -213zM371 0h-170v1073h170v-1073z" />
    <glyph glyph-name="Imacron" unicode="&#x12a;" horiz-adv-x="569" 
d="M580 1669h-562v143h562v-143zM395 0h-190v1493h190v-1493z" />
    <glyph glyph-name="imacron" unicode="&#x12b;" horiz-adv-x="569" 
d="M563 1270h-561v143h561v-143zM371 0h-170v1073h170v-1073z" />
    <glyph glyph-name="Ibreve" unicode="&#x12c;" horiz-adv-x="569" 
d="M297 1616q-166 0 -265 61t-102 189h146q8 -59 61 -81t164 -22q213 0 223 103h146q-25 -250 -373 -250zM395 0h-190v1493h190v-1493z" />
    <glyph glyph-name="ibreve" unicode="&#x12d;" horiz-adv-x="569" 
d="M592 1481q0 -117 -92 -197t-219 -80t-220 80q-92 80 -92 197h111q25 -61 80 -99t121 -36q67 0 121 36t79 99h111zM371 0h-170v1073h170v-1073z" />
    <glyph glyph-name="Iogonek" unicode="&#x12e;" horiz-adv-x="569" 
d="M436 -471h-102q-100 0 -175 53t-75 146q0 147 162 272h-41v1493h190v-1493q-74 -31 -119 -100q-33 -47 -32 -121q0 -90 90 -90h102v-160z" />
    <glyph glyph-name="iogonek" unicode="&#x12f;" horiz-adv-x="569" 
d="M391 1235h-213v213h213v-213zM330 -311h102v-160h-102q-100 0 -175 53t-75 146q0 147 162 272h-41v1073h170v-1073q-133 -91 -131 -221q0 -90 90 -90z" />
    <glyph glyph-name="Idotaccent" unicode="&#x130;" horiz-adv-x="569" 
d="M410 1634h-213v213h213v-213zM395 0h-190v1493h190v-1493z" />
    <glyph glyph-name="dotlessi" unicode="&#x131;" horiz-adv-x="454" 
d="M313 0h-170v1073h170v-1073z" />
    <glyph glyph-name="Jcircumflex" unicode="&#x134;" horiz-adv-x="1024" 
d="M1130 1604h-153l-199 176l-194 -176h-158l236 276h233zM872 383q0 -195 -114 -307t-308 -113q-194 1 -303 107t-108 288v121h190v-86q-1 -131 57 -201t170 -69q112 0 169 76t57 254v1040h190v-1110z" />
    <glyph glyph-name="jcircumflex" unicode="&#x135;" horiz-adv-x="454" 
d="M522 1188h-129l-166 196l-161 -196h-132l197 307h195zM313 -223q0 -223 -293 -223q-27 0 -57 6v145l41 -2q76 -4 108 30t31 111v1229h170v-1296z" />
    <glyph glyph-name="Kcommaaccent" unicode="&#x136;" horiz-adv-x="1366" 
d="M838 -334q0 -116 -54 -182t-151 -66v78q113 0 112 160v16h-112v205h205v-211zM352 0h-190v1493h190v-756l744 756h245l-608 -608l615 -885h-226l-526 766l-244 -244v-522z" />
    <glyph glyph-name="kcommaaccent" unicode="&#x137;" horiz-adv-x="1024" 
d="M616 -334q0 -116 -54 -182t-150 -66v78q113 0 112 160v16h-112v205h204v-211zM289 0h-170v1493h170v-875l454 455h220l-373 -371l438 -702h-211l-362 582l-166 -164v-418z" />
    <glyph glyph-name="Lacute" unicode="&#x139;" 
d="M680 1876l-367 -272h-147l235 272h279zM1092 0h-928v1493h190v-1325h738v-168z" />
    <glyph glyph-name="lacute" unicode="&#x13a;" horiz-adv-x="454" 
d="M655 1876l-366 -272h-148l236 272h278zM309 0h-170v1493h170v-1493z" />
    <glyph glyph-name="Lcommaaccent" unicode="&#x13b;" 
d="M733 -334q0 -116 -54 -182t-151 -66v78q113 0 113 160v16h-113v205h205v-211zM1092 0h-928v1493h190v-1325h738v-168z" />
    <glyph glyph-name="lcommaaccent" unicode="&#x13c;" horiz-adv-x="454" 
d="M332 -334q0 -116 -54 -182t-151 -66v78q113 0 113 160v16h-113v205h205v-211zM309 0h-170v1493h170v-1493z" />
    <glyph glyph-name="Lcaron" unicode="&#x13d;" 
d="M698 1282q0 -116 -54 -182t-150 -66v78q113 0 112 160v16h-112v205h204v-211zM1092 0h-928v1493h190v-1325h738v-168z" />
    <glyph glyph-name="lcaron" unicode="&#x13e;" horiz-adv-x="454" 
d="M653 1282q0 -116 -54 -182t-150 -66v78q113 0 112 160v16h-112v205h204v-211zM309 0h-170v1493h170v-1493z" />
    <glyph glyph-name="Ldot" unicode="&#x13f;" 
d="M936 672h-213v213h213v-213zM1092 0h-928v1493h190v-1325h738v-168z" />
    <glyph glyph-name="ldot" unicode="&#x140;" horiz-adv-x="659" 
d="M662 672h-213v213h213v-213zM309 0h-170v1493h170v-1493z" />
    <glyph glyph-name="Lslash" unicode="&#x141;" horiz-adv-x="1286" 
d="M1178 0h-928v492l-133 -132v197l133 131v805h190v-635l256 254v-197l-256 -253v-494h738v-168z" />
    <glyph glyph-name="lslash" unicode="&#x142;" horiz-adv-x="624" 
d="M395 0h-170v610l-127 -153v190l127 154v692h170v-510l135 164v-189l-135 -163v-795z" />
    <glyph glyph-name="Nacute" unicode="&#x143;" horiz-adv-x="1478" 
d="M1180 1876l-367 -272h-147l235 272h279zM1323 0h-215l-772 1210v-1210h-180v1493h206l781 -1221v1221h180v-1493z" />
    <glyph glyph-name="nacute" unicode="&#x144;" 
d="M936 1493l-305 -303h-123l197 303h231zM997 0h-170v743q0 95 -59 153t-176 58t-198 -99t-81 -263v-592h-170v1073h158v-180q72 113 155 162t220 49t229 -80t92 -213v-811z" />
    <glyph glyph-name="Ncommaaccent" unicode="&#x145;" horiz-adv-x="1478" 
d="M844 -334q0 -116 -54 -182t-151 -66v78q113 0 113 160v16h-113v205h205v-211zM1323 0h-215l-772 1210v-1210h-180v1493h206l781 -1221v1221h180v-1493z" />
    <glyph glyph-name="ncommaaccent" unicode="&#x146;" 
d="M674 -334q0 -116 -54 -182t-151 -66v78q113 0 113 160v16h-113v205h205v-211zM997 0h-170v743q0 95 -59 153t-176 58t-198 -99t-81 -263v-592h-170v1073h158v-180q72 113 155 162t220 49t229 -80t92 -213v-811z" />
    <glyph glyph-name="Ncaron" unicode="&#x147;" horiz-adv-x="1478" 
d="M1094 1880l-236 -276h-233l-236 276h154l198 -176l195 176h158zM1323 0h-215l-772 1210v-1210h-180v1493h206l781 -1221v1221h180v-1493z" />
    <glyph glyph-name="ncaron" unicode="&#x148;" 
d="M862 1495l-196 -307h-195l-197 307h129l166 -197l162 197h131zM997 0h-170v743q0 95 -59 153t-176 58t-198 -99t-81 -263v-592h-170v1073h158v-180q72 113 155 162t220 49t229 -80t92 -213v-811z" />
    <glyph glyph-name="Eng" unicode="&#x14a;" horiz-adv-x="1478" 
d="M1323 -98q0 -195 -114 -308q-115 -112 -309 -112t-302 106t-109 289l191 35q0 -131 57 -201q57 -69 163 -69t175 91q68 91 68 212l-807 1265v-1210h-180v1493h206l781 -1221v1221h180v-1591z" />
    <glyph glyph-name="eng" unicode="&#x14b;" 
d="M997 -223q0 -223 -292 -223q-27 0 -58 6v145l41 -2q76 -4 108 30t31 111v899q0 95 -59 153t-176 58t-198 -99t-81 -263v-592h-170v1073h158v-180q72 113 155 162t220 49t229 -80t92 -213v-1034z" />
    <glyph glyph-name="Omacron" unicode="&#x14c;" horiz-adv-x="1593" 
d="M1075 1669h-561v143h561v-143zM1329 736q0 276 -145 451t-384 175t-385 -175q-147 -175 -147 -451t146 -440q146 -165 384 -165q239 0 385 164q146 165 146 441zM802 1530q324 0 520 -222q198 -222 198 -571q0 -348 -198 -561t-522 -213t-524 212q-198 212 -198 562
q0 349 200 571t524 222z" />
    <glyph glyph-name="omacron" unicode="&#x14d;" 
d="M846 1270h-561v143h561v-143zM866 536q0 194 -81 302t-225 108t-226 -108t-82 -302t82 -302t224 -108t225 108t83 302zM74 536q0 270 128 418q128 150 358 150t357 -150t127 -420t-129 -417t-357 -147t-356 148t-128 418z" />
    <glyph glyph-name="Obreve" unicode="&#x14e;" horiz-adv-x="1593" 
d="M793 1616q-166 0 -266 61q-99 61 -101 189h145q7 -59 61 -81t165 -22q213 0 223 103h145q-25 -250 -372 -250zM1329 736q0 276 -145 451t-384 175t-385 -175q-147 -175 -147 -451t146 -440q146 -165 384 -165q239 0 385 164q146 165 146 441zM802 1530q324 0 520 -222
q198 -222 198 -571q0 -348 -198 -561t-522 -213t-524 212q-198 212 -198 562q0 349 200 571t524 222z" />
    <glyph glyph-name="obreve" unicode="&#x14f;" 
d="M874 1481q0 -117 -92 -197t-219 -80t-219 80t-92 197h110q25 -61 80 -99t121 -36q66 0 121 36t80 99h110zM866 536q0 194 -81 302t-225 108t-226 -108t-82 -302t82 -302t224 -108t225 108t83 302zM74 536q0 270 128 418q128 150 358 150t357 -150t127 -420t-129 -417
t-357 -147t-356 148t-128 418z" />
    <glyph glyph-name="Ohungarumlaut" unicode="&#x150;" horiz-adv-x="1593" 
d="M1311 1915l-305 -307h-123l196 307h232zM975 1915l-305 -307h-123l196 307h232zM1329 736q0 276 -145 451t-384 175t-385 -175q-147 -175 -147 -451t146 -440q146 -165 384 -165q239 0 385 164q146 165 146 441zM802 1530q324 0 520 -222q198 -222 198 -571
q0 -348 -198 -561t-522 -213t-524 212q-198 212 -198 562q0 349 200 571t524 222z" />
    <glyph glyph-name="ohungarumlaut" unicode="&#x151;" 
d="M1083 1495l-305 -307h-123l197 307h231zM748 1495l-306 -307h-123l197 307h232zM866 536q0 194 -81 302t-225 108t-226 -108t-82 -302t82 -302t224 -108t225 108t83 302zM74 536q0 270 128 418q128 150 358 150t357 -150t127 -420t-129 -417t-357 -147t-356 148t-128 418
z" />
    <glyph glyph-name="OE" unicode="&#x152;" horiz-adv-x="2048" 
d="M700 1350q-209 0 -315 -156t-106 -454t106 -450t313 -153q256 0 377 246v721q-121 246 -375 246zM1964 0h-889v162q-137 -193 -377 -193q-286 0 -448 202q-162 203 -162 563t165 572t447 212q248 0 375 -181v156h879v-168h-688v-487h671v-168h-671v-502h698v-168z" />
    <glyph glyph-name="oe" unicode="&#x153;" horiz-adv-x="1933" 
d="M1657 618q0 144 -82 236t-212 92t-214 -89t-94 -239h602zM567 127q141 1 224 109t83 298t-81 301t-225 111t-226 -112t-82 -300t83 -298t224 -109zM1841 479h-790q2 -168 90 -260t225 -92q205 0 281 199h172q-33 -164 -154 -260t-303 -97q-270 0 -397 211
q-129 -211 -398 -211q-231 1 -358 149t-127 417t127 419t358 150q276 0 402 -217q63 101 167 159t242 58t254 -76t162 -198q47 -122 47 -351z" />
    <glyph glyph-name="Racute" unicode="&#x154;" horiz-adv-x="1478" 
d="M1180 1876l-367 -272h-147l235 272h279zM842 811q152 -1 222 61t71 193q0 131 -69 196t-224 64h-461v-514h461zM1391 0h-232q-45 106 -43 244l2 133q2 137 -58 202t-188 64h-491v-643h-191v1493h689q219 0 337 -103t117 -296q0 -127 -55 -211t-180 -146q122 -51 160 -128
t41 -244t21 -224t71 -94v-47z" />
    <glyph glyph-name="racute" unicode="&#x155;" horiz-adv-x="681" 
d="M680 1493l-305 -303h-123l197 303h231zM313 557v-557h-170v1073h156v-194q74 121 142 173q69 52 151 52q23 0 65 -6v-174q-193 -2 -269 -90t-75 -277z" />
    <glyph glyph-name="Rcommaaccent" unicode="&#x156;" horiz-adv-x="1478" 
d="M844 -334q0 -116 -54 -182t-151 -66v78q113 0 113 160v16h-113v205h205v-211zM842 811q152 -1 222 61t71 193q0 131 -69 196t-224 64h-461v-514h461zM1391 0h-232q-45 106 -43 244l2 133q2 137 -58 202t-188 64h-491v-643h-191v1493h689q219 0 337 -103t117 -296
q0 -127 -55 -211t-180 -146q122 -51 160 -128t41 -244t21 -224t71 -94v-47z" />
    <glyph glyph-name="rcommaaccent" unicode="&#x157;" horiz-adv-x="681" 
d="M334 -334q0 -116 -54 -182t-151 -66v78q113 0 113 160v16h-113v205h205v-211zM313 557v-557h-170v1073h156v-194q74 121 142 173q69 52 151 52q23 0 65 -6v-174q-193 -2 -269 -90t-75 -277z" />
    <glyph glyph-name="Rcaron" unicode="&#x158;" horiz-adv-x="1478" 
d="M1094 1880l-236 -276h-233l-236 276h154l198 -176l195 176h158zM842 811q152 -1 222 61t71 193q0 131 -69 196t-224 64h-461v-514h461zM1391 0h-232q-45 106 -43 244l2 133q2 137 -58 202t-188 64h-491v-643h-191v1493h689q219 0 337 -103t117 -296q0 -127 -55 -211
t-180 -146q122 -51 160 -128t41 -244t21 -224t71 -94v-47z" />
    <glyph glyph-name="rcaron" unicode="&#x159;" horiz-adv-x="681" 
d="M606 1495l-196 -307h-195l-197 307h129l166 -197l162 197h131zM313 557v-557h-170v1073h156v-194q74 121 142 173q69 52 151 52q23 0 65 -6v-174q-193 -2 -269 -90t-75 -277z" />
    <glyph glyph-name="Sacute" unicode="&#x15a;" horiz-adv-x="1366" 
d="M1124 1876l-366 -272h-148l236 272h278zM1272 410q0 -205 -153 -326t-428 -121t-434 133t-159 389h181q-1 -164 107 -259t314 -95q381 0 381 260q0 170 -274 242l-371 98q-293 76 -293 348q-1 205 143 328t395 123t395 -122t145 -341h-181q0 145 -97 224t-261 79
t-256 -75t-92 -175t55 -150t191 -85l374 -101q152 -41 235 -139t83 -235z" />
    <glyph glyph-name="sacute" unicode="&#x15b;" horiz-adv-x="1024" 
d="M879 1493l-306 -303h-122l196 303h232zM940 301q0 -154 -120 -243t-326 -89t-313 87q-105 87 -111 272h180q16 -117 78 -159t179 -42q119 0 187 43q68 42 68 108t-38 97t-128 53l-160 39q-190 45 -265 114t-75 207t113 227t299 89t286 -86t103 -244h-180q-6 172 -215 172
q-104 0 -166 -44t-62 -110t48 -101q48 -36 151 -60l164 -39q163 -40 233 -106t70 -185z" />
    <glyph glyph-name="Scircumflex" unicode="&#x15c;" horiz-adv-x="1366" 
d="M1036 1604h-153l-199 176l-195 -176h-157l235 276h234zM1272 410q0 -205 -153 -326t-428 -121t-434 133t-159 389h181q-1 -164 107 -259t314 -95q381 0 381 260q0 170 -274 242l-371 98q-293 76 -293 348q-1 205 143 328t395 123t395 -122t145 -341h-181q0 145 -97 224
t-261 79t-256 -75t-92 -175t55 -150t191 -85l374 -101q152 -41 235 -139t83 -235z" />
    <glyph glyph-name="scircumflex" unicode="&#x15d;" horiz-adv-x="1024" 
d="M805 1188h-129l-166 196l-162 -196h-131l197 307h194zM940 301q0 -154 -120 -243t-326 -89t-313 87q-105 87 -111 272h180q16 -117 78 -159t179 -42q119 0 187 43q68 42 68 108t-38 97t-128 53l-160 39q-190 45 -265 114t-75 207t113 227t299 89t286 -86t103 -244h-180
q-6 172 -215 172q-104 0 -166 -44t-62 -110t48 -101q48 -36 151 -60l164 -39q163 -40 233 -106t70 -185z" />
    <glyph glyph-name="Scedilla" unicode="&#x15e;" horiz-adv-x="1366" 
d="M653 -387q55 0 87 27q32 26 32 64t-26 65t-62 27t-70 -9l-34 25l65 151q-254 10 -400 143t-147 379h181q-1 -164 107 -259t314 -95q381 0 381 260q0 170 -274 242l-371 98q-293 76 -293 348q-1 205 143 328t395 123t395 -122t145 -341h-181q0 145 -97 224t-261 79
t-256 -75t-92 -175t55 -150t191 -85l374 -101q152 -41 235 -139t83 -235q0 -193 -137 -313t-390 -132l-28 -76h47q74 0 118 -50t44 -129t-68 -130t-174 -51t-266 70l43 82q136 -68 192 -68z" />
    <glyph glyph-name="scedilla" unicode="&#x15f;" horiz-adv-x="1024" 
d="M940 289q0 -131 -102 -218t-283 -100l-33 -82h47q74 0 118 -50t44 -129q1 -79 -67 -130t-174 -51t-267 70l43 82l19 -9q119 -59 174 -59t87 27q32 26 32 64t-26 65q-39 40 -132 18l-35 25l70 157q-191 11 -285 97t-100 262h180q16 -117 78 -159t179 -42q119 0 187 43
q68 42 68 108t-38 97t-128 53l-160 39q-190 45 -265 114t-75 207t113 227t299 89t286 -86t103 -244h-180q-6 172 -215 172q-104 0 -166 -44t-62 -110t48 -101q48 -36 151 -60l164 -39q163 -40 233 -106t70 -197z" />
    <glyph glyph-name="Scaron" unicode="&#x160;" horiz-adv-x="1366" 
d="M1038 1880l-235 -276h-234l-235 276h153l199 -176l195 176h157zM1272 410q0 -205 -153 -326t-428 -121t-434 133t-159 389h181q-1 -164 107 -259t314 -95q381 0 381 260q0 170 -274 242l-371 98q-293 76 -293 348q-1 205 143 328t395 123t395 -122t145 -341h-181
q0 145 -97 224t-261 79t-256 -75t-92 -175t55 -150t191 -85l374 -101q152 -41 235 -139t83 -235z" />
    <glyph glyph-name="scaron" unicode="&#x161;" horiz-adv-x="1024" 
d="M805 1495l-197 -307h-194l-197 307h129l166 -197l162 197h131zM940 301q0 -154 -120 -243t-326 -89t-313 87q-105 87 -111 272h180q16 -117 78 -159t179 -42q119 0 187 43q68 42 68 108t-38 97t-128 53l-160 39q-190 45 -265 114t-75 207t113 227t299 89t286 -86
t103 -244h-180q-6 172 -215 172q-104 0 -166 -44t-62 -110t48 -101q48 -36 151 -60l164 -39q163 -40 233 -106t70 -185z" />
    <glyph glyph-name="Tcedilla" unicode="&#x162;" horiz-adv-x="1251" 
d="M560 -387q56 0 88 27q32 26 32 64t-26 65t-62 27t-70 -9l-35 25l82 188h-34v1325h-492v168h1171v-168h-489v-1325h-57l-43 -111h47q74 0 118 -50t44 -129t-68 -130t-174 -51t-266 70l43 82q135 -68 191 -68z" />
    <glyph glyph-name="tcedilla" unicode="&#x163;" horiz-adv-x="569" 
d="M274 -387q56 0 88 27q32 26 31 64q0 38 -32 71t-125 12l-35 25l82 188q-109 37 -109 156v778h-145v139h145v295h170v-295h176v-139h-176v-703q0 -57 20 -76t72 -19q53 0 84 7v-143q-80 -14 -139 -14h-6l-37 -97h47q74 0 118 -50t44 -129t-68 -130t-174 -51t-266 70l43 82
q136 -68 192 -68z" />
    <glyph glyph-name="Tcaron" unicode="&#x164;" horiz-adv-x="1251" 
d="M985 1880l-235 -276h-234l-235 276h153l199 -176l194 176h158zM1214 1325h-489v-1325h-190v1325h-492v168h1171v-168z" />
    <glyph glyph-name="tcaron" unicode="&#x165;" horiz-adv-x="569" 
d="M618 1391q0 -117 -54 -183t-150 -65v78q113 0 112 159v17h-112v205h204v-211zM360 -14q-80 0 -133 44t-53 126v778h-145v139h145v295h170v-295h176v-139h-176v-703q0 -57 20 -76t72 -19q53 0 84 7v-143q-80 -14 -160 -14z" />
    <glyph glyph-name="Utilde" unicode="&#x168;" horiz-adv-x="1478" 
d="M870 1634q-42 0 -144 40t-130 38q-47 0 -68 -76h-118q16 100 62 156t104 55q58 0 147 -38q90 -38 135 -37q51 0 76 75h119q-31 -213 -183 -213zM1321 455q0 -225 -157 -359t-421 -133q-265 0 -417 132t-152 360v1038h191v-1038q0 -158 103 -241t280 -83t280 86
q102 86 102 238v1038h191v-1038z" />
    <glyph glyph-name="utilde" unicode="&#x169;" 
d="M698 1235q-42 0 -144 39t-130 39q-47 0 -68 -76h-118q16 99 62 155t104 56t147 -38q90 -38 135 -38q51 0 76 76h119q-31 -213 -183 -213zM987 0h-153v166q-76 -106 -158 -152t-220 -45q-138 0 -230 80q-93 80 -93 213v811h170v-743q0 -96 59 -154t177 -57q118 0 198 99
t80 263v592h170v-1073z" />
    <glyph glyph-name="Umacron" unicode="&#x16a;" horiz-adv-x="1478" 
d="M1018 1669h-561v143h561v-143zM1321 455q0 -225 -157 -359t-421 -133q-265 0 -417 132t-152 360v1038h191v-1038q0 -158 103 -241t280 -83t280 86q102 86 102 238v1038h191v-1038z" />
    <glyph glyph-name="umacron" unicode="&#x16b;" 
d="M846 1270h-561v143h561v-143zM987 0h-153v166q-76 -106 -158 -152t-220 -45q-138 0 -230 80q-93 80 -93 213v811h170v-743q0 -96 59 -154t177 -57q118 0 198 99t80 263v592h170v-1073z" />
    <glyph glyph-name="Ubreve" unicode="&#x16c;" horiz-adv-x="1478" 
d="M735 1616q-166 0 -265 61t-101 189h145q8 -59 61 -81t164 -22q213 0 224 103h145q-25 -250 -373 -250zM1321 455q0 -225 -157 -359t-421 -133q-265 0 -417 132t-152 360v1038h191v-1038q0 -158 103 -241t280 -83t280 86q102 86 102 238v1038h191v-1038z" />
    <glyph glyph-name="ubreve" unicode="&#x16d;" 
d="M874 1481q0 -117 -92 -197t-219 -80t-219 80t-92 197h110q25 -61 80 -99t121 -36q66 0 121 36t80 99h110zM987 0h-153v166q-76 -106 -158 -152t-220 -45q-138 0 -230 80q-93 80 -93 213v811h170v-743q0 -96 59 -154t177 -57q118 0 198 99t80 263v592h170v-1073z" />
    <glyph glyph-name="Uring" unicode="&#x16e;" horiz-adv-x="1478" 
d="M740 1673q40 1 70 29t30 69t-29 70t-70 29t-71 -29t-29 -69q0 -40 30 -69q29 -30 69 -30zM938 1770q0 -81 -58 -138t-140 -57t-139 58q-58 59 -58 139t58 138t140 58t140 -58q57 -59 57 -140zM1321 455q0 -225 -157 -359t-421 -133q-265 0 -417 132t-152 360v1038h191
v-1038q0 -158 103 -241t280 -83t280 86q102 86 102 238v1038h191v-1038z" />
    <glyph glyph-name="uring" unicode="&#x16f;" 
d="M569 1440q-41 0 -71 -29t-29 -69q0 -40 30 -70q29 -30 69 -29t70 29t30 69t-29 70t-70 29zM766 1340q0 -81 -58 -138t-140 -57t-139 58q-58 58 -58 138q0 81 58 139t140 58t140 -58q57 -59 57 -140zM987 0h-153v166q-76 -106 -158 -152t-220 -45q-138 0 -230 80
q-93 80 -93 213v811h170v-743q0 -96 59 -154t177 -57q118 0 198 99t80 263v592h170v-1073z" />
    <glyph glyph-name="Uhungarumlaut" unicode="&#x170;" horiz-adv-x="1478" 
d="M1253 1915l-305 -307h-123l197 307h231zM918 1915l-306 -307h-123l197 307h232zM1321 455q0 -225 -157 -359t-421 -133q-265 0 -417 132t-152 360v1038h191v-1038q0 -158 103 -241t280 -83t280 86q102 86 102 238v1038h191v-1038z" />
    <glyph glyph-name="uhungarumlaut" unicode="&#x171;" 
d="M1083 1495l-305 -307h-123l197 307h231zM748 1495l-306 -307h-123l197 307h232zM987 0h-153v166q-76 -106 -158 -152t-220 -45q-138 0 -230 80q-93 80 -93 213v811h170v-743q0 -96 59 -154t177 -57q118 0 198 99t80 263v592h170v-1073z" />
    <glyph glyph-name="Uogonek" unicode="&#x172;" horiz-adv-x="1478" 
d="M1321 455q0 -166 -89 -286t-249 -171q-78 -27 -130 -85t-52 -134q0 -90 90 -90h102v-160h-102q-100 0 -175 53t-75 146q0 129 117 235h-13q-267 0 -419 132t-152 360v1038h191v-1038q0 -158 103 -241t280 -83t280 86q102 86 102 238v1038h191v-1038z" />
    <glyph glyph-name="uogonek" unicode="&#x173;" 
d="M1008 -471h-103q-100 0 -175 53q-75 54 -75 140t41 151q49 84 138 127v166q-76 -106 -158 -152t-220 -45q-138 0 -230 80q-93 80 -93 213v811h170v-743q0 -96 59 -154t177 -57q118 0 198 99t80 263v592h170v-1073q-92 -23 -139 -100q-33 -47 -33 -121q0 -90 90 -90h103
v-160z" />
    <glyph glyph-name="Wcircumflex" unicode="&#x174;" horiz-adv-x="1933" 
d="M1319 1604h-154l-198 176l-195 -176h-158l236 276h233zM1903 1493l-379 -1493h-209l-344 1227l-334 -1227h-209l-383 1493h213l281 -1212l331 1212h205l340 -1212l275 1212h213z" />
    <glyph glyph-name="wcircumflex" unicode="&#x175;" horiz-adv-x="1478" 
d="M1032 1188h-129l-166 196l-162 -196h-131l197 307h195zM1450 1073l-315 -1073h-195l-217 842l-207 -842h-192l-312 1073h189l219 -835l205 835h209l210 -835l213 835h193z" />
    <glyph glyph-name="Ycircumflex" unicode="&#x176;" horiz-adv-x="1366" 
d="M1051 1604h-154l-199 176l-194 -176h-158l236 276h233zM793 0h-191v586l-575 907h235l438 -727l426 727h228l-561 -907v-586z" />
    <glyph glyph-name="ycircumflex" unicode="&#x177;" horiz-adv-x="1024" 
d="M805 1188h-129l-166 196l-162 -196h-131l197 307h194zM225 -446q-63 0 -114 26v154q127 -28 175 11q30 24 52 81l65 170l-362 1077h182l275 -835l297 835h184l-477 -1298q-82 -221 -277 -221z" />
    <glyph glyph-name="Ydieresis" unicode="&#x178;" horiz-adv-x="1366" 
d="M958 1636h-186v209h186v-209zM627 1636h-187v209h187v-209zM793 0h-191v586l-575 907h235l438 -727l426 727h228l-561 -907v-586z" />
    <glyph glyph-name="Zacute" unicode="&#x179;" horiz-adv-x="1251" 
d="M1094 1876l-367 -272h-147l235 272h279zM1194 0h-1137v168l897 1157h-839v168h1075v-172l-893 -1153h897v-168z" />
    <glyph glyph-name="zacute" unicode="&#x17a;" horiz-adv-x="1024" 
d="M879 1493l-306 -303h-122l196 303h232zM936 0h-873v154l642 770h-599v149h801v-151l-637 -772h666v-150z" />
    <glyph glyph-name="Zdotaccent" unicode="&#x17b;" horiz-adv-x="1251" 
d="M762 1634h-213v213h213v-213zM1194 0h-1137v168l897 1157h-839v168h1075v-172l-893 -1153h897v-168z" />
    <glyph glyph-name="zdotaccent" unicode="&#x17c;" horiz-adv-x="1024" 
d="M618 1235h-212v213h212v-213zM936 0h-873v154l642 770h-599v149h801v-151l-637 -772h666v-150z" />
    <glyph glyph-name="Zcaron" unicode="&#x17d;" horiz-adv-x="1251" 
d="M1008 1880l-236 -276h-233l-236 276h154l198 -176l195 176h158zM1194 0h-1137v168l897 1157h-839v168h1075v-172l-893 -1153h897v-168z" />
    <glyph glyph-name="zcaron" unicode="&#x17e;" horiz-adv-x="1024" 
d="M805 1495l-197 -307h-194l-197 307h129l166 -197l162 197h131zM936 0h-873v154l642 770h-599v149h801v-151l-637 -772h666v-150z" />
    <glyph glyph-name="longs" unicode="&#x17f;" horiz-adv-x="569" 
d="M469 1350q-119 0 -119 -109v-1241h-170v1255q0 115 67 180t185 64q47 0 96 -10v-141q-39 2 -59 2z" />
    <glyph glyph-name="Ereversed" unicode="&#x18e;" horiz-adv-x="1366" 
d="M1255 0h-1071v168h881v512h-813v168h813v477h-844v168h1034v-1493z" />
    <glyph glyph-name="florin" unicode="&#x192;" 
d="M942 1348q-147 0 -192 -258l-25 -144h231v-143h-258l-153 -813q-80 -424 -410 -424q-74 0 -112 20l34 172q51 -33 105 -32q152 0 196 231l160 846h-231v143h256l45 213q35 170 133 261t227 91q72 1 162 -38l-61 -162q-66 37 -107 37z" />
    <glyph glyph-name="Ohorn" unicode="&#x1a0;" horiz-adv-x="1593" 
d="M1329 742q0 276 -144 442t-385 166t-386 -166q-146 -166 -146 -440t146 -441q146 -166 384 -166q239 0 385 164q146 165 146 441zM1520 731q0 -182 -69 -342t-189 -262q-186 -158 -463 -158q-324 0 -523 212q-198 212 -198 561t198 563q199 213 527 213t522 -222
q92 76 92 197h-98v213h190v-207q0 -174 -131 -270q142 -205 142 -498z" />
    <glyph glyph-name="ohorn" unicode="&#x1a1;" horiz-adv-x="1169" 
d="M866 536q0 194 -81 302t-225 108t-226 -108t-82 -302t82 -302t224 -108t225 108t83 302zM1145 1079q0 -182 -146 -278q45 -125 45 -273q0 -264 -129 -411t-357 -147t-356 148t-128 418t128 418q128 150 355 150q281 0 408 -225q88 76 88 194h-99v213h191v-207z" />
    <glyph glyph-name="Uhorn" unicode="&#x1af;" horiz-adv-x="1599" 
d="M1573 1499q0 -141 -81 -224t-171 -104v-710q0 -225 -157 -359t-421 -133q-265 0 -417 132t-152 360v1032h191v-1032q0 -162 108 -246q109 -78 281 -78t274 86t102 238v1032h191v-238q59 23 110 85q50 62 50 153h-99v213h191v-207z" />
    <glyph glyph-name="uhorn" unicode="&#x1b0;" horiz-adv-x="1257" 
d="M1235 1081q0 -139 -79 -222t-169 -105v-754h-153v166q-76 -106 -158 -152t-220 -45q-138 0 -230 80q-93 80 -93 213v811h170v-743q0 -96 59 -154t177 -57q118 0 198 99t80 263v592h170v-233q59 23 108 86q48 63 48 149h-99v213h191v-207z" />
    <glyph glyph-name="eturned" unicode="&#x1dd;" 
d="M563 127q127 0 211 88t94 231h-602l-2 -12q0 -127 86 -217t213 -90zM1051 543q0 -264 -133 -419t-359 -155q-151 0 -267 76t-163 198t-47 343h790q-2 178 -89 269t-226 91q-215 0 -281 -198h-172q33 164 155 260t304 96q227 0 357 -148t131 -413z" />
    <glyph glyph-name="Gcaron" unicode="&#x1e6;" horiz-adv-x="1593" 
d="M1161 1880l-235 -276h-234l-235 276h153l199 -176l195 176h157zM1452 0h-121l-47 197q-209 -233 -511 -233t-492 211q-191 212 -191 557q0 346 192 572t525 226q256 0 420 -130t205 -360h-195q-31 145 -147 234q-117 88 -285 88q-236 0 -380 -172t-144 -448t142 -444
q142 -167 392 -167q205 0 337 125t132 324v41h-455v167h623v-788z" />
    <glyph glyph-name="gcaron" unicode="&#x1e7;" 
d="M862 1495l-196 -307h-195l-197 307h129l166 -197l162 197h131zM827 532q0 192 -77 304q-78 110 -215 110t-218 -108q-79 -108 -79 -302t78 -302t218 -108q138 0 216 107q77 107 77 299zM1001 176q-1 -348 -111 -485t-368 -137q-188 0 -301 86t-127 237h174
q29 -180 260 -180q156 0 236 93t80 300v72q-86 -102 -164 -148t-178 -45q-193 0 -318 154q-125 155 -125 409t126 413t329 159t330 -186v155h157v-897z" />
    <glyph glyph-name="Oogonek" unicode="&#x1ea;" horiz-adv-x="1593" 
d="M1329 736q0 276 -145 451t-384 175t-385 -175q-147 -175 -147 -451t146 -440q146 -165 384 -165q239 0 385 164q146 165 146 441zM1520 723q0 -264 -128 -458t-350 -265q-84 -29 -140 -87t-56 -134q0 -90 90 -90h102v-160h-102q-100 0 -175 53t-75 146q0 129 117 235h-4
q-324 0 -523 212q-198 212 -198 562q0 349 200 571t524 222t520 -222q198 -222 198 -585z" />
    <glyph glyph-name="oogonek" unicode="&#x1eb;" 
d="M866 536q0 194 -81 302t-225 108t-226 -108t-82 -302t82 -302t224 -108t225 108t83 302zM1044 528q0 -196 -74 -330t-208 -192q-66 -27 -105 -89t-39 -138q0 -90 91 -90h102v-160h-102q-100 0 -175 53t-75 146q0 133 125 241h-25q-229 1 -357 149t-128 418t128 418
q128 150 358 150t357 -150t127 -426z" />
    <glyph glyph-name="Gacute" unicode="&#x1f4;" horiz-adv-x="1593" 
d="M1247 1876l-366 -272h-148l236 272h278zM1452 0h-121l-47 197q-209 -233 -511 -233t-492 211q-191 212 -191 557q0 346 192 572t525 226q256 0 420 -130t205 -360h-195q-31 145 -147 234q-117 88 -285 88q-236 0 -380 -172t-144 -448t142 -444q142 -167 392 -167
q205 0 337 125t132 324v41h-455v167h623v-788z" />
    <glyph glyph-name="gacute" unicode="&#x1f5;" 
d="M936 1493l-305 -303h-123l197 303h231zM827 532q0 192 -77 304q-78 110 -215 110t-218 -108q-79 -108 -79 -302t78 -302t218 -108q138 0 216 107q77 107 77 299zM1001 176q-1 -348 -111 -485t-368 -137q-188 0 -301 86t-127 237h174q29 -180 260 -180q156 0 236 93
t80 300v72q-86 -102 -164 -148t-178 -45q-193 0 -318 154q-125 155 -125 409t126 413t329 159t330 -186v155h157v-897z" />
    <glyph glyph-name="Aringacute" unicode="&#x1fa;" horiz-adv-x="1366" 
d="M692 1673q40 1 69 29q30 28 30 69t-29 70t-70 29q-40 0 -70 -29t-30 -69t30 -69q30 -30 70 -30zM692 1968q82 0 140 -58t57 -140q-1 -81 -59 -138t-139 -57t-139 58q-58 59 -58 139t58 138t140 58zM1130 2281l-366 -272h-148l236 272h278zM918 608l-230 680l-246 -680
h476zM1337 0h-213l-153 449h-576l-157 -449h-203l532 1493h246z" />
    <glyph glyph-name="aringacute" unicode="&#x1fb;" 
d="M664 1352q0 42 -29 70t-70 28t-71 -29t-29 -69q0 -40 30 -69q29 -30 69 -30t70 29t30 70zM565 1548q81 0 139 -58t58 -139t-58 -139t-140 -57q-81 0 -139 58q-58 59 -58 139t58 138t140 58zM1004 1862l-367 -273h-148l236 273h279zM797 371v159q-68 -31 -241 -55
t-232 -66t-60 -126q0 -164 211 -164q129 1 225 71t97 181zM970 -14q-54 0 -104 40q-49 40 -63 101q-147 -158 -365 -158q-164 0 -258 82t-94 228q0 249 296 309q58 12 197 30t179 44q39 27 39 79v45q-1 78 -63 119t-179 41t-178 -46t-72 -144h-172q14 348 430 348
q199 0 301 -75t103 -218v-598q0 -84 92 -84q18 0 37 4v-129q-72 -18 -126 -18z" />
    <glyph glyph-name="AEacute" unicode="&#x1fc;" horiz-adv-x="2048" 
d="M1464 1876l-366 -272h-148l236 272h278zM958 606v719h-204l-283 -719h487zM1946 0h-988v438h-550l-175 -438h-210l612 1493h1274v-168h-760v-477h721v-168h-721v-512h797v-168z" />
    <glyph glyph-name="aeacute" unicode="&#x1fd;" horiz-adv-x="1820" 
d="M1278 1493l-305 -303h-123l197 303h231zM1546 618q0 144 -82 236t-212 92t-214 -89t-94 -239h602zM248 285q0 -166 213 -166q105 1 212 75t107 144v190q-68 -29 -242 -54t-232 -66t-58 -123zM901 936q118 168 374 168q130 0 245 -76t163 -198t48 -351h-791
q2 -168 90 -260t225 -92q205 0 283 199h172q-33 -164 -155 -260t-302 -97q-119 0 -215 45t-149 125l-33 56q-115 -119 -218 -172q-102 -53 -242 -53t-233 82q-93 83 -93 239q0 155 112 229t420 101q104 9 141 35t37 85v45q0 160 -235 160t-256 -190h-172q14 348 426 348
q262 0 358 -168z" />
    <glyph glyph-name="Oslashacute" unicode="&#x1fe;" horiz-adv-x="1593" 
d="M1237 1876l-367 -272h-147l235 272h279zM788 1362q-228 0 -373 -175q-146 -175 -147 -452q0 -225 99 -377l788 861q-139 143 -367 143zM1329 713q0 254 -104 415l-787 -858q139 -139 369 -139t376 164t146 418zM1520 721q0 -332 -198 -545t-507 -213t-500 172l-153 -168
l-84 76l162 176q-162 203 -162 535t200 554t505 222t495 -178l158 174l84 -76l-166 -180q166 -217 166 -549z" />
    <glyph glyph-name="oslashacute" unicode="&#x1ff;" 
d="M993 1493l-305 -303h-123l197 303h231zM553 946q-137 0 -219 -108t-82 -301q0 -139 43 -236l471 559q-76 86 -213 86zM566 127q134 -1 217 107t83 274t-43 264l-471 -559q80 -86 214 -86zM1044 516q0 -252 -129 -399t-341 -147t-334 110l-86 -100l-76 63l94 113
q-98 150 -98 400t128 398q128 150 342 150t335 -111l86 101l75 -64l-94 -112q98 -150 98 -402z" />
    <glyph glyph-name="Adblgrave" unicode="&#x200;" horiz-adv-x="1366" 
d="M604 1608h-123l-305 307h232zM940 1608h-123l-305 307h231zM918 608l-230 680l-246 -680h476zM1337 0h-213l-153 449h-576l-157 -449h-203l532 1493h246z" />
    <glyph glyph-name="adblgrave" unicode="&#x201;" 
d="M477 1188h-123l-305 307h232zM813 1188h-123l-305 307h231zM797 371v159q-68 -31 -241 -55t-232 -66t-60 -126q0 -164 211 -164q129 1 225 71t97 181zM970 -14q-54 0 -104 40q-49 40 -63 101q-147 -158 -365 -158q-164 0 -258 82t-94 228q0 249 296 309q58 12 197 30
t179 44q39 27 39 79v45q-1 78 -63 119t-179 41t-178 -46t-72 -144h-172q14 348 430 348q199 0 301 -75t103 -218v-598q0 -84 92 -84q18 0 37 4v-129q-72 -18 -126 -18z" />
    <glyph glyph-name="Edblgrave" unicode="&#x204;" horiz-adv-x="1366" 
d="M616 1608h-122l-306 307h232zM952 1608h-123l-305 307h232zM1255 0h-1071v1493h1035v-168h-844v-477h813v-168h-813v-512h880v-168z" />
    <glyph glyph-name="edblgrave" unicode="&#x205;" 
d="M487 1188h-122l-306 307h232zM823 1188h-123l-305 307h232zM569 946q-127 0 -211 -88t-94 -231h602l2 12q0 127 -86 217t-213 90zM1051 487h-791q2 -178 89 -269t226 -91q215 0 281 199h172q-33 -164 -155 -260t-304 -97q-227 1 -357 149t-130 412t133 419t358 155
q152 0 268 -76t163 -198t47 -343z" />
    <glyph glyph-name="Idblgrave" unicode="&#x208;" horiz-adv-x="569" 
d="M215 1608h-123l-305 307h231zM551 1608h-123l-305 307h231zM395 0h-190v1493h190v-1493z" />
    <glyph glyph-name="idblgrave" unicode="&#x209;" horiz-adv-x="569" 
d="M201 1188h-123l-305 307h231zM537 1188h-123l-305 307h231zM371 0h-170v1073h170v-1073z" />
    <glyph glyph-name="Odblgrave" unicode="&#x20c;" horiz-adv-x="1593" 
d="M711 1608h-123l-305 307h231zM1047 1608h-123l-306 307h232zM1329 736q0 276 -145 451t-384 175t-385 -175q-147 -175 -147 -451t146 -440q146 -165 384 -165q239 0 385 164q146 165 146 441zM802 1530q324 0 520 -222q198 -222 198 -571q0 -348 -198 -561t-522 -213
t-524 212q-198 212 -198 562q0 349 200 571t524 222z" />
    <glyph glyph-name="odblgrave" unicode="&#x20d;" 
d="M483 1188h-123l-305 307h232zM819 1188h-123l-305 307h232zM866 536q0 194 -81 302t-225 108t-226 -108t-82 -302t82 -302t224 -108t225 108t83 302zM74 536q0 270 128 418q128 150 358 150t357 -150t127 -420t-129 -417t-357 -147t-356 148t-128 418z" />
    <glyph glyph-name="Rdblgrave" unicode="&#x210;" horiz-adv-x="1478" 
d="M653 1608h-123l-305 307h232zM989 1608h-123l-305 307h232zM842 811q152 -1 222 61t71 193q0 131 -69 196t-224 64h-461v-514h461zM1391 0h-232q-45 106 -43 244l2 133q2 137 -58 202t-188 64h-491v-643h-191v1493h689q219 0 337 -103t117 -296q0 -127 -55 -211
t-180 -146q122 -51 160 -128t41 -244t21 -224t71 -94v-47z" />
    <glyph glyph-name="rdblgrave" unicode="&#x211;" horiz-adv-x="681" 
d="M227 1188h-123l-305 307h232zM563 1188h-123l-305 307h232zM313 557v-557h-170v1073h156v-194q74 121 142 173q69 52 151 52q23 0 65 -6v-174q-193 -2 -269 -90t-75 -277z" />
    <glyph glyph-name="Udblgrave" unicode="&#x214;" horiz-adv-x="1478" 
d="M653 1608h-123l-305 307h232zM989 1608h-123l-305 307h232zM1321 455q0 -225 -157 -359t-421 -133q-265 0 -417 132t-152 360v1038h191v-1038q0 -158 103 -241t280 -83t280 86q102 86 102 238v1038h191v-1038z" />
    <glyph glyph-name="udblgrave" unicode="&#x215;" 
d="M483 1188h-123l-305 307h232zM819 1188h-123l-305 307h232zM987 0h-153v166q-76 -106 -158 -152t-220 -45q-138 0 -230 80q-93 80 -93 213v811h170v-743q0 -96 59 -154t177 -57q118 0 198 99t80 263v592h170v-1073z" />
    <glyph glyph-name="uni0218" unicode="&#x218;" horiz-adv-x="1366" 
d="M788 -334q0 -116 -54 -182t-150 -66v78q113 0 112 160v16h-112v205h204v-211zM1272 410q0 -205 -153 -326t-428 -121t-434 133t-159 389h181q-1 -164 107 -259t314 -95q381 0 381 260q0 170 -274 242l-371 98q-293 76 -293 348q-1 205 143 328t395 123t395 -122t145 -341
h-181q0 145 -97 224t-261 79t-256 -75t-92 -175t55 -150t191 -85l374 -101q152 -41 235 -139t83 -235z" />
    <glyph glyph-name="uni0219" unicode="&#x219;" horiz-adv-x="1024" 
d="M616 -334q0 -116 -54 -182t-150 -66v78q113 0 112 160v16h-112v205h204v-211zM940 301q0 -154 -120 -243t-326 -89t-313 87q-105 87 -111 272h180q16 -117 78 -159t179 -42q119 0 187 43q68 42 68 108t-38 97t-128 53l-160 39q-190 45 -265 114t-75 207t113 227t299 89
t286 -86t103 -244h-180q-6 172 -215 172q-104 0 -166 -44t-62 -110t48 -101q48 -36 151 -60l164 -39q163 -40 233 -106t70 -185z" />
    <glyph glyph-name="uni021A" unicode="&#x21a;" horiz-adv-x="1251" 
d="M735 -334q0 -116 -54 -182t-151 -66v78q113 0 113 160v16h-113v205h205v-211zM1214 1325h-489v-1325h-190v1325h-492v168h1171v-168z" />
    <glyph glyph-name="uni021B" unicode="&#x21b;" horiz-adv-x="569" 
d="M389 -334q0 -116 -54 -182t-151 -66v78q113 0 113 160v16h-113v205h205v-211zM360 -14q-80 0 -133 44t-53 126v778h-145v139h145v295h170v-295h176v-139h-176v-703q0 -57 20 -76t72 -19q53 0 84 7v-143q-80 -14 -160 -14z" />
    <glyph glyph-name="ereversed" unicode="&#x258;" 
d="M563 946q-127 0 -213 -90t-86 -217q0 -8 2 -12h602q-10 143 -94 231t-211 88zM1051 530q0 -264 -130 -412t-358 -149q-182 1 -304 97t-155 260h172q66 -199 281 -199q139 0 226 91t89 269h-790q0 221 47 343t163 198t267 76q225 0 359 -155t133 -419z" />
    <glyph glyph-name="schwa" unicode="&#x259;" 
d="M563 127q127 0 211 88t94 231h-602l-2 -12q0 -127 86 -217t213 -90zM1051 543q0 -264 -133 -419t-359 -155q-151 0 -267 76t-163 198t-47 343h790q-2 178 -89 269t-226 91q-215 0 -281 -198h-172q33 164 155 260t304 96q227 0 357 -148t131 -413z" />
    <glyph glyph-name="ringhalfright" unicode="&#x2be;" horiz-adv-x="919" 
d="M456 1440q144 0 234 -104t90 -285q0 -182 -91 -291t-233 -109q-287 0 -309 277q-4 16 17 16h115q12 0 16 -14q18 -141 151 -142q88 0 136 69q47 69 47 192t-48 189t-137 65q-135 0 -157 -148q-4 -14 -17 -14h-114q-20 0 -17 18q10 131 92 206q81 75 225 75z" />
    <glyph glyph-name="ringhalfleft" unicode="&#x2bf;" horiz-adv-x="919" 
d="M462 651q-144 -1 -233 103q-90 104 -90 286t91 291q90 109 232 109t221 -70t89 -207q4 -16 -16 -16h-115q-12 0 -16 14q-18 141 -152 142q-88 0 -135 -69t-47 -192q0 -122 48 -188t136 -66q135 0 158 148q4 14 16 14h115q20 0 16 -18q-10 -131 -92 -206t-226 -75z" />
    <glyph glyph-name="circumflex" unicode="&#x2c6;" horiz-adv-x="681" 
d="M635 1188h-129l-166 196l-162 -196h-131l197 307h194z" />
    <glyph glyph-name="caron" unicode="&#x2c7;" horiz-adv-x="681" 
d="M635 1495l-197 -307h-194l-197 307h129l166 -197l162 197h131z" />
    <glyph glyph-name="breve" unicode="&#x2d8;" horiz-adv-x="681" 
d="M647 1481q0 -117 -92 -197t-219 -80t-219 80t-92 197h110q25 -61 80 -99t121 -36q66 0 121 36t80 99h110z" />
    <glyph glyph-name="dotaccent" unicode="&#x2d9;" horiz-adv-x="681" 
d="M449 1235h-213v213h213v-213z" />
    <glyph glyph-name="ring" unicode="&#x2da;" horiz-adv-x="681" 
d="M341 1243q39 1 69 29t30 69t-28 70q-29 29 -70 29t-71 -29q-29 -29 -29 -69t30 -70t69 -29zM342 1538q82 0 140 -58t57 -140q-1 -81 -59 -138t-139 -57t-139 58t-58 138q0 81 58 139t140 58z" />
    <glyph glyph-name="ogonek" unicode="&#x2db;" horiz-adv-x="681" 
d="M565 -471h-102q-100 0 -175 53t-75 146q0 147 162 272h133q-74 -55 -105 -102t-30 -119q0 -90 90 -90h102v-160z" />
    <glyph glyph-name="tilde" unicode="&#x2dc;" horiz-adv-x="681" 
d="M471 1235q-43 0 -145 39t-129 39q-47 0 -68 -76h-119q16 99 62 155t104 56t148 -38t135 -38q51 0 76 76h118q-31 -213 -182 -213z" />
    <glyph glyph-name="hungarumlaut" unicode="&#x2dd;" horiz-adv-x="681" 
d="M856 1495l-305 -307h-123l197 307h231zM520 1495l-305 -307h-123l197 307h231z" />
    <glyph glyph-name="uni0300" unicode="&#x300;" horiz-adv-x="0" 
d="M-508 1190h-123l-305 303h231z" />
    <glyph glyph-name="uni0301" unicode="&#x301;" horiz-adv-x="0" 
d="M-201 1493l-305 -303h-123l197 303h231z" />
    <glyph glyph-name="uni0302" unicode="&#x302;" horiz-adv-x="0" 
d="M-274 1188h-129l-166 196l-162 -196h-131l196 307h195z" />
    <glyph glyph-name="uni0303" unicode="&#x303;" horiz-adv-x="0" 
d="M-438 1235q-42 0 -144 39t-131 39q-47 0 -67 -76h-119q16 99 62 155q45 56 103 56t148 -38t135 -38q51 0 76 76h119q-31 -213 -182 -213z" />
    <glyph glyph-name="uni0304" unicode="&#x304;" horiz-adv-x="0" 
d="M-291 1270h-561v143h561v-143z" />
    <glyph glyph-name="uni0306" unicode="&#x306;" horiz-adv-x="0" 
d="M-262 1481q0 -117 -92 -197t-219 -80t-220 80q-92 80 -92 197h111q25 -61 80 -99t121 -36q67 0 121 36t79 99h111z" />
    <glyph glyph-name="uni0307" unicode="&#x307;" horiz-adv-x="0" 
d="M-461 1235h-213v213h213v-213z" />
    <glyph glyph-name="uni0308" unicode="&#x308;" horiz-adv-x="0" 
d="M-309 1237h-187v209h187v-209zM-641 1237h-186v209h186v-209z" />
    <glyph glyph-name="uni0309" unicode="&#x309;" horiz-adv-x="0" 
d="M-338 1446q0 -49 -22 -83t-74 -74q-54 -40 -66 -53t-12 -30v-61h-127v67q0 47 23 78t86 72v-2q66 51 66 83t-30 49q-29 17 -87 17t-81 -34v2q-14 -23 -14 -91h-125q0 236 238 236q105 0 165 -48t60 -128z" />
    <glyph glyph-name="uni030A" unicode="&#x30a;" horiz-adv-x="0" 
d="M-668 1342q0 -40 30 -70t70 -29t70 29t29 69q0 41 -29 70q-30 29 -70 29t-70 -29t-30 -69zM-766 1341q0 81 58 139t140 58t140 -58q57 -58 57 -140q0 -81 -58 -138t-139 -57t-140 58q-58 58 -58 138z" />
    <glyph glyph-name="uni030B" unicode="&#x30b;" horiz-adv-x="0" 
d="M-53 1495l-305 -307h-123l196 307h232zM-389 1495l-305 -307h-123l196 307h232z" />
    <glyph glyph-name="uni030C" unicode="&#x30c;" horiz-adv-x="0" 
d="M-274 1495l-197 -307h-195l-196 307h129l166 -197l161 197h132z" />
    <glyph glyph-name="uni030F" unicode="&#x30f;" horiz-adv-x="0" 
d="M-655 1188h-123l-305 307h231zM-319 1188h-123l-306 307h232z" />
    <glyph glyph-name="uni0311" unicode="&#x311;" horiz-adv-x="0" 
d="M-262 1204h-111q-25 60 -80 98t-121 38t-120 -38q-55 -36 -80 -98h-111q0 117 92 197q91 80 219 80t220 -80t92 -197z" />
    <glyph glyph-name="uni0323" unicode="&#x323;" horiz-adv-x="0" 
d="M-461 -375h-213v213h213v-213z" />
    <glyph glyph-name="uni0326" unicode="&#x326;" horiz-adv-x="0" 
d="M-465 -334q0 -116 -54 -182t-151 -66v78q113 0 113 160v16h-113v205h205v-211z" />
    <glyph glyph-name="uni032E" unicode="&#x32e;" horiz-adv-x="0" 
d="M-571 -393q-166 0 -266 61q-99 61 -101 189h145q7 -59 61 -81t165 -22q213 0 223 103h145q-25 -250 -372 -250z" />
    <glyph glyph-name="uni032F" unicode="&#x32f;" horiz-adv-x="0" 
d="M-565 -143q166 1 265 -61t101 -189h-145q-8 59 -62 81t-163 21q-213 0 -224 -102h-145q25 250 373 250z" />
    <glyph glyph-name="uni0330" unicode="&#x330;" horiz-adv-x="0" 
d="M-438 -375q-42 0 -144 39t-131 39q-47 0 -67 -76h-119q16 99 62 155q45 56 103 56t148 -38t135 -38q51 0 76 76h119q-31 -213 -182 -213z" />
    <glyph glyph-name="uni0331" unicode="&#x331;" horiz-adv-x="0" 
d="M-291 -340h-561v143h561v-143z" />
    <glyph glyph-name="uni0332" unicode="&#x332;" horiz-adv-x="0" 
d="M-291 -340h-561v143h561v-143z" />
    <glyph glyph-name="Alpha" unicode="&#x391;" horiz-adv-x="1366" 
d="M918 608l-230 680l-246 -680h476zM1337 0h-213l-153 449h-576l-157 -449h-203l532 1493h246z" />
    <glyph glyph-name="Beta" unicode="&#x392;" horiz-adv-x="1366" 
d="M817 168q129 0 199 72t69 185t-69 185t-199 72h-465v-514h465zM1020 1087q0 238 -299 238h-369v-475h369q299 -1 299 237zM1276 426q0 -186 -121 -306t-319 -120h-674v1493h606q207 0 325 -105t117 -274q0 -229 -206 -326q144 -55 208 -141t64 -221z" />
    <glyph glyph-name="Gamma" unicode="&#x393;" horiz-adv-x="1251" 
d="M1186 1325h-811v-1325h-191v1493h1002v-168z" />
    <glyph glyph-name="Delta" unicode="&#x394;" horiz-adv-x="1456" 
d="M1200 168l-473 1057l-471 -1057h944zM1460 0h-1464l655 1464h154z" />
    <glyph glyph-name="Epsilon" unicode="&#x395;" horiz-adv-x="1366" 
d="M1255 0h-1071v1493h1035v-168h-844v-477h813v-168h-813v-512h880v-168z" />
    <glyph glyph-name="Zeta" unicode="&#x396;" horiz-adv-x="1251" 
d="M1194 0h-1137v168l897 1157h-839v168h1075v-172l-893 -1153h897v-168z" />
    <glyph glyph-name="Eta" unicode="&#x397;" horiz-adv-x="1478" 
d="M1319 0h-191v680h-768v-680h-190v1493h190v-645h768v645h191v-1493z" />
    <glyph glyph-name="Theta" unicode="&#x398;" horiz-adv-x="1593" 
d="M1198 664h-797v167h797v-167zM1329 736q0 276 -145 451t-384 175t-385 -175q-147 -175 -147 -451t146 -440q146 -165 384 -165q239 0 385 164q146 165 146 441zM802 1530q324 0 520 -222q198 -222 198 -571q0 -348 -198 -561t-522 -213t-524 212q-198 212 -198 562
q0 349 200 571t524 222z" />
    <glyph glyph-name="Iota" unicode="&#x399;" horiz-adv-x="569" 
d="M395 0h-190v1493h190v-1493z" />
    <glyph glyph-name="Kappa" unicode="&#x39a;" horiz-adv-x="1366" 
d="M352 0h-190v1493h190v-756l744 756h245l-608 -608l615 -885h-226l-526 766l-244 -244v-522z" />
    <glyph glyph-name="Lambda" unicode="&#x39b;" horiz-adv-x="1366" 
d="M1337 0h-213l-436 1288l-450 -1288h-203l532 1493h246z" />
    <glyph glyph-name="Mu" unicode="&#x39c;" horiz-adv-x="1705" 
d="M1559 0h-181v1251l-420 -1251h-200l-424 1251v-1251h-180v1493h264l442 -1300l434 1300h265v-1493z" />
    <glyph glyph-name="Nu" unicode="&#x39d;" horiz-adv-x="1478" 
d="M1323 0h-215l-772 1210v-1210h-180v1493h206l781 -1221v1221h180v-1493z" />
    <glyph glyph-name="Xi" unicode="&#x39e;" horiz-adv-x="1478" 
d="M1384 0h-1290v188h1290v-188zM1196 664h-913v167h913v-167zM1384 1305h-1290v188h1290v-188z" />
    <glyph glyph-name="Omicron" unicode="&#x39f;" horiz-adv-x="1593" 
d="M1329 736q0 276 -145 451t-384 175t-385 -175q-147 -175 -147 -451t146 -440q146 -165 384 -165q239 0 385 164q146 165 146 441zM802 1530q324 0 520 -222q198 -222 198 -571q0 -348 -198 -561t-522 -213t-524 212q-198 212 -198 562q0 349 200 571t524 222z" />
    <glyph glyph-name="Pi" unicode="&#x3a0;" horiz-adv-x="1271" 
d="M1210 0h-190v1325h-768v-1325h-191v1493h1149v-1493z" />
    <glyph glyph-name="Rho" unicode="&#x3a1;" horiz-adv-x="1366" 
d="M1065 1063q0 123 -77 193t-214 69h-397v-524h397q137 -1 214 69t77 193zM803 1493q221 1 341 -113t120 -312t-117 -317q-117 -118 -301 -118h-469v-633h-191v1493h617z" />
    <glyph glyph-name="Sigma" unicode="&#x3a3;" horiz-adv-x="1232" 
d="M1171 0h-1110v152l594 596l-594 593v152h1110v-168h-856l578 -577l-578 -580h856v-168z" />
    <glyph glyph-name="Tau" unicode="&#x3a4;" horiz-adv-x="1251" 
d="M1214 1325h-489v-1325h-190v1325h-492v168h1171v-168z" />
    <glyph glyph-name="Upsilon" unicode="&#x3a5;" horiz-adv-x="1366" 
d="M793 0h-191v586l-575 907h235l438 -727l426 727h228l-561 -907v-586z" />
    <glyph glyph-name="Phi" unicode="&#x3a6;" horiz-adv-x="1558" 
d="M1243 747q0 123 -104 197t-265 92v-579q160 18 265 92q104 74 104 198zM684 457v579q-160 -18 -264 -92t-104 -198t104 -197q104 -74 264 -92zM1419 748q0 -188 -156 -308q-157 -119 -389 -139v-301h-190v301q-231 20 -388 139q-157 120 -157 308t158 306t387 138v301
h190v-301q229 -20 387 -138t158 -306z" />
    <glyph glyph-name="Chi" unicode="&#x3a7;" horiz-adv-x="1366" 
d="M1329 0h-235l-408 623l-410 -623h-231l528 766l-495 727h231l383 -586l385 586h228l-504 -727z" />
    <glyph glyph-name="Psi" unicode="&#x3a8;" horiz-adv-x="1525" 
d="M1386 1073q0 -229 -152 -401t-376 -207v-465h-190v465q-225 35 -377 207t-152 401v420h176v-420q-1 -164 99 -289t254 -159v868h190v-868q154 35 253 159t99 289v420h176v-420z" />
    <glyph glyph-name="Omega" unicode="&#x3a9;" horiz-adv-x="1556" 
d="M1495 0h-598v412q147 41 242 169q94 128 94 307t-132 320q-133 142 -323 142t-322 -142t-132 -320q0 -180 94 -308t241 -168v-412h-598v168h408v137q-154 84 -245 236t-91 331q-1 266 189 456t456 190t456 -190t189 -456q0 -180 -91 -332t-245 -235v-137h408v-168z" />
    <glyph glyph-name="alpha" unicode="&#x3b1;" horiz-adv-x="1576" 
d="M694 942q-164 0 -276 -128t-111 -295q0 -167 114 -277t263 -111q150 1 248 107t155 272q-139 432 -393 432zM694 -25q-229 0 -392 156q-163 157 -163 389t162 405t393 173q287 0 467 -367q113 346 139 387l138 -90q-45 -68 -193 -518q107 -338 193 -465l-138 -90
q-59 88 -145 342q-180 -322 -461 -322z" />
    <glyph glyph-name="beta" unicode="&#x3b2;" horiz-adv-x="1124" 
d="M872 446q0 146 -86 207t-276 62v168h18q123 0 202 63q79 62 79 162t-68 162q-67 62 -177 63q-110 0 -178 -62t-67 -169v-875q113 -90 251 -90t221 82q81 81 81 227zM1051 449q0 -225 -124 -353t-335 -127q-150 0 -273 88v-528h-169v1573q0 195 122 293q124 98 308 98
t296 -104t111 -273q0 -213 -223 -295q150 -51 218 -140t69 -232z" />
    <glyph glyph-name="gamma" unicode="&#x3b3;" horiz-adv-x="1312" 
d="M741 -471h-168v457l-434 1087h180l338 -848l338 848h181l-435 -1087v-457z" />
    <glyph glyph-name="delta" unicode="&#x3b4;" horiz-adv-x="1122" 
d="M561 139q131 1 220 93t89 210t-57 203q-57 84 -154 125q-167 0 -287 -86t-120 -223t89 -229t220 -93zM838 1260q-94 94 -236 94t-141 -106q0 -58 47 -126t85 -98t88 -64t54 -36t9 -6t10 -7q307 -210 307 -454q1 -205 -145 -346t-354 -141t-354 140q-146 142 -147 347
q0 163 121 275t312 157q-203 160 -203 371q0 106 96 170t225 63q188 0 324 -135z" />
    <glyph glyph-name="epsilon" unicode="&#x3b5;" horiz-adv-x="1247" 
d="M665 -66q-210 0 -368 116t-158 294t189 246q-158 70 -158 222t131 240t325 89q194 0 449 -117l-51 -115q-170 76 -414 76q-112 0 -192 -42t-80 -118t51 -113t103 -46q52 -10 82 -16q53 -10 168 -9h87v-125h-91q-143 0 -223 -14q-81 -14 -132 -39t-63 -53q-13 -29 -13 -60
q0 -120 109 -190t256 -70q233 0 381 74l55 -115q-233 -115 -443 -115z" />
    <glyph glyph-name="zeta" unicode="&#x3b6;" horiz-adv-x="1069" 
d="M680 162q133 0 226 -92t93 -221q0 -130 -94 -218t-225 -88v140q63 0 107 49q44 50 44 116t-44 112t-107 46h-76q-199 0 -332 157t-133 393t130 455q130 218 352 349h-482v125h860v-125h-104q-264 -78 -426 -308t-162 -515q0 -152 83 -264t214 -111h76z" />
    <glyph glyph-name="eta" unicode="&#x3b7;" 
d="M999 -471h-168v1186q0 94 -66 161q-67 66 -162 66t-174 -48t-122 -128v-766h-168v1073h168v-90q125 115 292 115t284 -112t116 -271v-1186z" />
    <glyph glyph-name="theta" unicode="&#x3b8;" horiz-adv-x="1189" 
d="M595 131q270 0 286 512h-572q16 -512 286 -512zM602 1362q-141 0 -210 -117q-56 -95 -76 -280q-7 -74 -9 -166h576q-7 407 -145 517q-58 46 -136 46zM1051 700q0 -404 -197 -612q-106 -113 -260 -113q-115 -1 -205 63q-161 114 -223 409q-27 130 -27 279t25 285
q59 319 218 438q91 69 212 69t213 -69t143 -185q101 -232 101 -564z" />
    <glyph glyph-name="iota" unicode="&#x3b9;" horiz-adv-x="724" 
d="M586 -25q-129 1 -218 103t-89 244v751h167v-751q0 -76 38 -134t102 -57v-156z" />
    <glyph glyph-name="kappa" unicode="&#x3ba;" horiz-adv-x="1024" 
d="M289 0h-170v1073h170v-455l454 455h220l-373 -371l438 -702h-211l-362 582l-166 -164v-418z" />
    <glyph glyph-name="lambda" unicode="&#x3bb;" horiz-adv-x="1402" 
d="M319 1339v140q173 1 317 -105t210 -274l420 -1100h-181l-294 776l-459 -776h-193l576 973l-29 74q-49 127 -146 209t-221 83z" />
    <glyph glyph-name="mu.greek" unicode="&#x3bc;" horiz-adv-x="1417" 
d="M1139 0h-168v94q-109 -119 -263 -119t-262 119v-565h-167v1544h167v-682q29 -117 96 -189t167 -71q100 0 167 72t95 188v682h168v-1073z" />
    <glyph glyph-name="nu" unicode="&#x3bd;" horiz-adv-x="1169" 
d="M1100 692q0 -216 -127 -420q-127 -203 -344 -305l-113 43l-446 1063h180l383 -911q139 92 219 238t80 314t-33 359h172q29 -165 29 -381z" />
    <glyph glyph-name="xi" unicode="&#x3be;" 
d="M680 162q133 0 226 -92t93 -221q0 -130 -94 -218t-225 -88v140q63 0 107 49q44 50 44 116t-44 112t-107 46h-76q-190 0 -328 127q-137 127 -137 311q0 117 65 210t175 151q-209 109 -209 309q0 147 131 246h-162v125h860v-125h-383q-122 -20 -200 -84t-78 -168
q0 -106 101 -170t241 -64v-139q-152 0 -262 -81t-111 -205q0 -123 87 -205t210 -82h76z" />
    <glyph glyph-name="omicron" unicode="&#x3bf;" 
d="M866 536q0 194 -81 302t-225 108t-226 -108t-82 -302t82 -302t224 -108t225 108t83 302zM74 536q0 270 128 418q128 150 358 150t357 -150t127 -420t-129 -417t-357 -147t-356 148t-128 418z" />
    <glyph glyph-name="pi" unicode="&#x3c0;" horiz-adv-x="1374" 
d="M1313 934h-205v-934h-170v934h-338v-934h-170v934q-119 0 -174 -56t-55 -178h-140q-1 215 103 294t352 79h797v-139z" />
    <glyph glyph-name="rho" unicode="&#x3c1;" horiz-adv-x="1302" 
d="M995 537q0 165 -98 285q-97 120 -245 120t-246 -121t-99 -284v-248q127 -158 344 -158q147 0 246 121q98 121 98 285zM1163 537q0 -229 -147 -395t-351 -167q-204 0 -358 125v-571h-168v1008q-1 229 147 395t365 166t365 -166t147 -395z" />
    <glyph glyph-name="uni03C2" unicode="&#x3c2;" 
d="M680 162q133 0 226 -92t93 -221q0 -130 -94 -218t-225 -88v140q63 0 107 49q44 50 44 116t-44 112t-107 46h-76q-201 0 -333 163t-132 384t133 383t332 162q141 0 249 -89t136 -229l-147 -30q-16 84 -84 138t-154 54q-133 0 -215 -116t-82 -274t82 -274t215 -116h76z" />
    <glyph glyph-name="sigma" unicode="&#x3c3;" horiz-adv-x="1325" 
d="M932 536q0 194 -81 302t-225 108t-227 -108q-82 -108 -82 -302t82 -302q83 -108 225 -108t225 108t83 302zM1110 544q0 -280 -129 -427t-357 -147t-356 148t-129 418q0 270 128 418q128 150 356 150q68 0 137 -17q199 18 454 93l41 -152q-121 -35 -290 -55
q145 -149 145 -429z" />
    <glyph glyph-name="tau" unicode="&#x3c4;" horiz-adv-x="1021" 
d="M883 911h-289v-589q0 -76 39 -134t102 -57v-156q-131 1 -220 103t-89 244v589h-287v156h744v-156z" />
    <glyph glyph-name="upsilon" unicode="&#x3c5;" 
d="M999 512q0 -217 -131 -377t-329 -160q-164 0 -282 112t-118 271v715h168v-715q0 -94 68 -160t164 -67q131 0 212 114t80 267q0 274 -63 561h172q59 -266 59 -561z" />
    <glyph glyph-name="phi" unicode="&#x3c6;" horiz-adv-x="1757" 
d="M1450 536q0 166 -61 286t-183 120q-86 0 -143 -66q-102 -119 -100 -364v-377q205 20 346 127t141 274zM1618 535q0 -229 -192 -381t-463 -174v-451h-168v451q-272 23 -464 174q-191 152 -192 383q1 181 107 331t278 217l54 -131q-125 -50 -198 -164t-73 -253
q-1 -169 141 -275t347 -127v377q0 238 110 412q111 174 299 174t301 -167t113 -396z" />
    <glyph glyph-name="chi" unicode="&#x3c7;" horiz-adv-x="1323" 
d="M1184 -471h-189l-333 602l-334 -602h-189l428 772l-428 772h189l334 -602l333 602h189l-428 -772z" />
    <glyph glyph-name="psi" unicode="&#x3c8;" horiz-adv-x="1478" 
d="M1339 358q0 -168 -148 -265t-368 -113v-451h-168v451q-219 16 -367 113t-149 265v715h168v-715q0 -201 348 -225v1360h168v-1360q348 25 348 225v715h168v-715z" />
    <glyph glyph-name="omega" unicode="&#x3c9;" horiz-adv-x="1550" 
d="M1411 563q0 -335 -156 -500q-84 -88 -204 -88q-193 0 -281 209q-90 -209 -270 -209q-121 0 -205 88q-156 163 -156 500q0 223 131 510h129q-92 -201 -92 -514t88 -391q41 -37 105 -37q174 0 209 289q-16 125 -17 295h168v-103q0 -136 7 -186t19 -113q12 -64 43 -110
t59 -59t77 -13t90 37q88 79 88 392q0 312 -92 513h129q131 -287 131 -510z" />
    <glyph glyph-name="uni03D1" unicode="&#x3d1;" horiz-adv-x="1277" 
d="M831 1073q0 145 -71 252q-72 107 -184 107t-183 -76q-72 -76 -71 -180q0 -136 154 -191q130 -47 355 -59v147zM1139 797h-140v-439q0 -164 -128 -276t-302 -113q-174 0 -302 113t-128 276v357h168v-357q0 -96 78 -158t184 -62q107 0 185 62t77 158v443q-472 20 -594 195
q-50 73 -51 180q0 158 113 268t283 110t294 -142t123 -339v-151h140v-125z" />
    <glyph glyph-name="uni03D5" unicode="&#x3d5;" horiz-adv-x="1435" 
d="M309 537q0 -143 93 -253t233 -139v783q-139 -29 -233 -138q-93 -110 -93 -253zM1130 537q0 143 -94 253t-233 138v-783q139 29 233 139t94 253zM1298 537q0 -213 -142 -373t-353 -189v-446h-168v446q-211 29 -352 189t-142 373t141 373t353 188v395h168v-395
q211 -28 353 -188t142 -373z" />
    <glyph glyph-name="uni03D6" unicode="&#x3d6;" horiz-adv-x="1550" 
d="M1411 598q0 -188 -36 -318q-36 -128 -120 -216t-204 -89q-193 0 -281 209q-90 -209 -270 -209q-121 0 -205 88q-156 163 -156 500q0 223 131 510h129q-92 -201 -92 -514t88 -391q41 -37 105 -37q174 0 209 289q-16 125 -17 295h168v-103q0 -136 7 -186t19 -113
q12 -64 43 -110t59 -59t77 -13t90 37q88 79 88 387q0 307 -85 517q-44 112 -125 176t-193 65q-238 0 -471 -82l-35 104q242 86 506 86q182 0 315 -127q133 -128 195 -318t61 -378z" />
    <glyph glyph-name="epsilon.alt" unicode="&#x3f5;" horiz-adv-x="1024" 
d="M539 -31q-219 0 -348 150q-128 149 -128 411q1 262 131 418t347 156q160 0 266 -76t143 -223h-182q-63 141 -229 141q-125 0 -202 -88t-91 -252h436v-139h-438q12 -162 90 -251t209 -89q172 0 233 141h182q-38 -141 -148 -220t-271 -79z" />
    <glyph glyph-name="uni0400" unicode="&#x400;" horiz-adv-x="1366" 
d="M1255 0h-1071v1493h1035v-168h-844v-477h813v-168h-813v-512h880v-168zM915 1575h-122l-306 303h232z" />
    <glyph glyph-name="afii10023" unicode="&#x401;" horiz-adv-x="1366" 
d="M952 1661h-213v211h213v-211zM621 1661h-213v211h213v-211zM1233 0h-1071v1493h1034v-168h-844v-477h813v-168h-813v-512h881v-168z" />
    <glyph glyph-name="afii10051" unicode="&#x402;" horiz-adv-x="1511" 
d="M1436 37q0 -185 -96 -289t-283 -104h-107v168h99q88 0 142 48t54 140v604q0 92 -54 140t-142 49h-406v-793h-190v1325h-410v168h1008v-168h-408v-364h414q188 -1 283 -105t96 -289v-530z" />
    <glyph glyph-name="afii10052" unicode="&#x403;" horiz-adv-x="1251" 
d="M899 1878l-305 -303h-123l197 303h231zM1186 1325h-811v-1325h-191v1493h1002v-168z" />
    <glyph glyph-name="afii10053" unicode="&#x404;" horiz-adv-x="1478" 
d="M772 -47q-289 0 -457 174q-217 223 -217 600t209 604q168 186 473 187q487 0 576 -488h-195q-31 154 -108 225q-100 95 -294 95t-317 -133t-147 -369h745v-168h-749q12 -258 142 -409t341 -150q121 0 212 50t136 139t68 235h196q-68 -592 -614 -592z" />
    <glyph glyph-name="afii10054" unicode="&#x405;" horiz-adv-x="1366" 
d="M1272 410q0 -96 -44 -190q-126 -268 -540 -267q-346 0 -502 213q-86 117 -88 309h181q-2 -133 77 -229q104 -125 344 -125q182 0 275 63q47 35 77 91t29 116q0 170 -274 242l-371 98q-293 76 -293 348q1 203 143 321t394 118t395 -122t146 -341h-181q-2 145 -98 224
t-261 79t-256 -70t-91 -169t55 -148t191 -86l374 -101q152 -41 235 -139t83 -235z" />
    <glyph glyph-name="afii10055" unicode="&#x406;" horiz-adv-x="569" 
d="M397 0h-192v1493h192v-1493z" />
    <glyph glyph-name="afii10056" unicode="&#x407;" horiz-adv-x="569" 
d="M397 0h-192v1493h192v-1493zM561 1649h-213v211h213v-211zM229 1649h-213v211h213v-211z" />
    <glyph glyph-name="afii10057" unicode="&#x408;" horiz-adv-x="1024" 
d="M229 383q0 -271 231 -271q116 0 175 93q47 70 47 237v1051h190v-1120q0 -195 -114 -307t-306 -113q-194 0 -306 106t-111 289v131h194v-96z" />
    <glyph glyph-name="afii10058" unicode="&#x409;" horiz-adv-x="2211" 
d="M1634 168q133 0 201 72t68 185t-68 185t-201 72h-391v-514h391zM1653 0h-602v1325h-461v-113q4 -90 1 -189t-5 -201t-14 -204q-12 -100 -30 -191q-34 -180 -125 -303q-91 -124 -247 -124v193q168 0 211 419q18 195 16 799v82h846v-643h295q504 0 555 -424
q0 -180 -116 -303t-324 -123z" />
    <glyph glyph-name="afii10059" unicode="&#x40a;" horiz-adv-x="2076" 
d="M1532 168q132 0 200 72t68 185t-68 185t-200 72h-356v-514h356zM1550 0h-565v680h-623v-680h-192v1493h190v-645h625v645h191v-643h260q504 0 555 -424q0 -180 -116 -303t-325 -123z" />
    <glyph glyph-name="afii10060" unicode="&#x40b;" horiz-adv-x="1531" 
d="M1456 0h-190v604q0 92 -54 140t-143 49h-426v-793h-190v1325h-410v168h1008v-168h-408v-364h434q187 -1 283 -105t96 -289v-567z" />
    <glyph glyph-name="afii10061" unicode="&#x40c;" horiz-adv-x="1366" 
d="M965 1878l-306 -303h-122l196 303h232zM352 0h-190v1493h190v-645l744 645h245l-843 -725l850 -768h-226l-770 664v-664z" />
    <glyph glyph-name="uni040D" unicode="&#x40d;" horiz-adv-x="1478" 
d="M954 1575h-123l-305 303h232zM1323 0h-180v1210l-772 -1210h-215v1493h180v-1221l780 1221h207v-1493z" />
    <glyph glyph-name="afii10062" unicode="&#x40e;" horiz-adv-x="1331" 
d="M657 1575q-176 0 -262 117q-41 57 -43 159h121q14 -135 189 -135q82 0 131 35t55 100h121q-23 -276 -312 -276zM1268 1493l-752 -1493h-231l264 500l-496 993h232l379 -776l376 776h228z" />
    <glyph glyph-name="afii10145" unicode="&#x40f;" horiz-adv-x="1478" 
d="M1321 0h-494v-276h-163v276h-494v1493h192v-1325h766v1325h193v-1493z" />
    <glyph glyph-name="afii10017" unicode="&#x410;" horiz-adv-x="1366" 
d="M918 608l-230 680l-246 -680h476zM1337 0h-213l-153 449h-576l-157 -449h-203l532 1493h246z" />
    <glyph glyph-name="afii10018" unicode="&#x411;" horiz-adv-x="1366" 
d="M817 168q133 0 201 72t67 205q1 132 -67 205t-201 73h-465v-555h465zM1276 446q0 -202 -116 -324t-324 -122h-674v1493h1001v-168h-811v-434h484q217 0 339 -130q45 -47 73 -129t28 -186z" />
    <glyph glyph-name="afii10019" unicode="&#x412;" horiz-adv-x="1366" 
d="M817 168q133 0 201 72t67 185q1 113 -67 185t-201 72h-465v-514h465zM721 850q299 0 299 238t-299 237h-369v-475h369zM1276 426q0 -180 -116 -303t-324 -123h-674v1493h606q211 0 327 -105t115 -274q0 -229 -206 -326q144 -55 208 -141t64 -221z" />
    <glyph glyph-name="afii10020" unicode="&#x413;" horiz-adv-x="1251" 
d="M1163 1325h-811v-1325h-190v1493h1001v-168z" />
    <glyph glyph-name="afii10021" unicode="&#x414;" horiz-adv-x="1662" 
d="M1593 -276h-163v276h-1197v-276h-163v428h188q227 104 227 675v666h922v-1341h186v-428zM1214 168v1157h-536v-498q0 -438 -141 -659h677z" />
    <glyph glyph-name="afii10022" unicode="&#x415;" horiz-adv-x="1366" 
d="M1233 0h-1071v1493h1034v-168h-844v-477h813v-168h-813v-512h881v-168z" />
    <glyph glyph-name="afii10024" unicode="&#x416;" horiz-adv-x="2095" 
d="M1130 0h-190v664l-586 -664h-225l666 768l-580 725h238l487 -631v631h190v-631l488 631h237l-579 -725l666 -768h-242l-570 664v-664z" />
    <glyph glyph-name="afii10025" unicode="&#x417;" horiz-adv-x="1366" 
d="M1272 410q0 -96 -44 -190q-126 -268 -540 -267q-346 0 -502 213q-86 117 -88 309h181q-2 -133 77 -229q104 -125 344 -125q182 0 275 63q47 35 77 91t29 116q0 121 -93 194t-240 72h-222v168h181q133 0 228 88t95 197q0 108 -91 178t-256 70t-261 -79t-98 -224h-181
q1 219 145 341t396 122t394 -118t142 -330t-214 -304q266 -100 266 -356z" />
    <glyph glyph-name="afii10026" unicode="&#x418;" horiz-adv-x="1490" 
d="M1329 0h-180v1225l-772 -1225h-215v1493h180v-1235l780 1235h207v-1493z" />
    <glyph glyph-name="afii10027" unicode="&#x419;" horiz-adv-x="1490" 
d="M1329 0h-180v1225l-772 -1225h-215v1493h180v-1235l780 1235h207v-1493zM741 1616q-176 0 -262 117q-41 57 -43 159h121q16 -135 188 -135q82 0 132 35q49 35 55 100h121q-23 -276 -312 -276z" />
    <glyph glyph-name="afii10028" unicode="&#x41a;" horiz-adv-x="1366" 
d="M352 0h-190v1493h190v-627l625 627h227l-706 -707l774 -786h-254l-666 682v-682z" />
    <glyph glyph-name="afii10029" unicode="&#x41b;" horiz-adv-x="1378" 
d="M1217 0h-193v1325h-537v-498q0 -348 -87 -579q-46 -125 -131 -197t-201 -71v192q117 0 172 184t55 471v666h922v-1493z" />
    <glyph glyph-name="afii10030" unicode="&#x41c;" horiz-adv-x="1728" 
d="M1567 0h-181v1251l-419 -1251h-201l-424 1251v-1251h-180v1493h264l442 -1300l435 1300h264v-1493z" />
    <glyph glyph-name="afii10031" unicode="&#x41d;" horiz-adv-x="1472" 
d="M1311 0h-193v680h-764v-680h-192v1493h190v-645h766v645h193v-1493z" />
    <glyph glyph-name="afii10032" unicode="&#x41e;" horiz-adv-x="1593" 
d="M1329 734q0 276 -145 446t-385 170t-385 -169q-146 -169 -146 -445t146 -446q146 -169 385 -169q238 0 384 168q146 169 146 445zM1520 723q0 -184 -69 -347t-189 -265q-186 -158 -463 -158q-324 0 -523 216t-198 566q0 350 198 567q199 216 524 216q324 0 522 -218
t198 -577z" />
    <glyph glyph-name="afii10033" unicode="&#x41f;" horiz-adv-x="1472" 
d="M1311 0h-193v1325h-764v-1325h-192v1493h1149v-1493z" />
    <glyph glyph-name="afii10034" unicode="&#x420;" horiz-adv-x="1366" 
d="M1040 1063q0 123 -76 193t-214 69h-398v-524h398q137 0 214 69q76 70 76 193zM778 1493q221 1 341 -113t120 -319t-124 -317t-294 -111h-469v-633h-190v1493h616z" />
    <glyph glyph-name="afii10035" unicode="&#x421;" horiz-adv-x="1478" 
d="M772 -47q-289 0 -457 174q-217 223 -217 600t209 604q168 186 473 187q487 0 576 -488h-195q-31 154 -108 225q-100 95 -306 95t-332 -166t-126 -450t131 -448t354 -165q121 0 212 50t136 139t68 235h196q-68 -592 -614 -592z" />
    <glyph glyph-name="afii10036" unicode="&#x422;" horiz-adv-x="1251" 
d="M1214 1325h-489v-1325h-190v1325h-492v168h1171v-168z" />
    <glyph glyph-name="afii10037" unicode="&#x423;" horiz-adv-x="1331" 
d="M1268 1493l-752 -1493h-231l258 506l-490 987h232l366 -758l389 758h228z" />
    <glyph glyph-name="afii10038" unicode="&#x424;" horiz-adv-x="1916" 
d="M817 360v775q-110 0 -201 -29q-92 -29 -146 -67q-54 -37 -94 -113t-40 -178t40 -178t94 -114t143 -67q90 -29 204 -29zM1493 748q0 102 -40 178t-94 114q-131 91 -347 95v-775q110 0 201 29q92 29 146 67t94 114t40 178zM1698 748q0 -206 -95 -347q-40 -57 -105 -98
q-156 -99 -376 -108q-47 -2 -110 -2v-193h-195v193q-238 0 -366 49q-55 20 -120 61q-200 126 -200 445q0 555 686 555v190h195v-190q686 0 686 -555z" />
    <glyph glyph-name="afii10039" unicode="&#x425;" horiz-adv-x="1366" 
d="M1313 0h-219l-416 610l-402 -610h-231l528 766l-495 727h231l373 -571l395 571h213l-502 -727z" />
    <glyph glyph-name="afii10040" unicode="&#x426;" horiz-adv-x="1517" 
d="M1448 -276h-164v276h-1122v1493h192v-1325h764v1325h193v-1341h137v-428z" />
    <glyph glyph-name="afii10041" unicode="&#x427;" horiz-adv-x="1327" 
d="M1165 0h-190v532h-434q-187 0 -283 104t-96 290v567h190v-604q0 -92 54 -140t143 -49h426v793h190v-1493z" />
    <glyph glyph-name="afii10042" unicode="&#x428;" horiz-adv-x="1695" 
d="M1534 0h-1372v1493h192v-1325h398v1325h192v-1325h397v1325h193v-1493z" />
    <glyph glyph-name="afii10043" unicode="&#x429;" horiz-adv-x="1740" 
d="M1671 -276h-164v276h-1345v1493h192v-1325h398v1325h192v-1325h397v1325h193v-1341h137v-428z" />
    <glyph glyph-name="afii10044" unicode="&#x42a;" horiz-adv-x="1837" 
d="M1563 464q0 128 -83 210t-216 82h-435v-588h435q131 0 215 84t84 212zM1753 460q0 -200 -133 -330t-338 -130h-643v1325h-473v168h663v-569h453q203 0 337 -132t134 -332z" />
    <glyph glyph-name="afii10045" unicode="&#x42b;" horiz-adv-x="1785" 
d="M1624 0h-192v1493h192v-1493zM1085 464q0 128 -83 210t-216 82h-434v-588h434q131 0 215 84t84 212zM1276 460q0 -200 -133 -330t-338 -130h-643v1493h190v-569h453q203 0 337 -132t134 -332z" />
    <glyph glyph-name="afii10046" unicode="&#x42c;" horiz-adv-x="1366" 
d="M1085 464q0 128 -83 210t-216 82h-434v-588h434q131 0 215 84t84 212zM1276 460q0 -200 -133 -330t-338 -130h-643v1493h190v-569h453q203 0 337 -132t134 -332z" />
    <glyph glyph-name="afii10047" unicode="&#x42d;" horiz-adv-x="1478" 
d="M1386 727q0 -377 -217 -600q-168 -174 -456 -174q-547 0 -615 592h197q23 -145 67 -235t136 -139q92 -50 213 -50q211 1 341 151t144 408h-752v168h746q-25 236 -148 369q-122 133 -316 133t-294 -95q-78 -72 -108 -225h-195q88 487 576 488q305 0 473 -187
q208 -227 208 -604z" />
    <glyph glyph-name="afii10048" unicode="&#x42e;" horiz-adv-x="2113" 
d="M793 735q0 -283 128 -449t360 -165q231 0 361 165q130 166 130 448t-127 449t-361 167t-363 -166q-128 -166 -128 -449zM1962 723q0 -184 -69 -347t-177 -255t-204 -130t-224 -38q-305 0 -486 198t-198 529h-242v-680h-192v1493h190v-645h248q33 309 208 489t464 181
q324 0 503 -214t179 -581z" />
    <glyph glyph-name="afii10049" unicode="&#x42f;" horiz-adv-x="1437" 
d="M1085 811v514h-464q-133 0 -201 -73q-68 -72 -68 -184t68 -184t201 -73h464zM1276 0h-191v643h-227l-567 -643h-225l559 643q-209 0 -336 125t-127 302t116 300t324 123h674v-1493z" />
    <glyph glyph-name="afii10065" unicode="&#x430;" 
d="M797 338v192q-68 -31 -240 -55q-172 -25 -232 -71q-61 -46 -61 -129t55 -128t156 -45q147 0 254 97q68 61 68 139zM960 -47q-64 0 -105 38q-42 38 -52 120q-171 -158 -349 -158t-273 86t-95 231q0 209 188 287q83 33 264 55q180 23 220 50q39 27 39 79v45q-1 78 -63 119
t-179 41t-178 -46t-72 -144h-172q6 147 74 223q113 125 356 125q199 0 301 -75t103 -218v-631q0 -84 92 -84q18 0 37 4v-129q-72 -18 -136 -18z" />
    <glyph glyph-name="afii10066" unicode="&#x431;" 
d="M252 528q0 -194 82 -306t224 -112t225 112t83 306t-81 306t-225 112t-226 -112t-82 -306zM559 1104q229 0 357 -152t128 -424t-130 -424t-357 -152t-355 154q-128 152 -128 447t67 532q37 131 109 219t174 109l272 53q47 10 81 45t34 76h152q-1 -59 -5 -90
q-14 -96 -93 -140q-48 -28 -130 -46l-276 -60q-81 -20 -141 -100t-78 -190q90 143 319 143z" />
    <glyph glyph-name="afii10067" unicode="&#x432;" horiz-adv-x="1069" 
d="M772 303q0 49 -1 63q-3 40 -55 73q-52 34 -130 34h-271v-317h271q94 0 141 53q45 45 45 94zM731 777q0 34 -13 56q-13 23 -54 55t-148 32h-201v-291h201q168 1 207 95q8 20 8 53zM958 292q0 -112 -84 -202t-233 -90h-498v1073h449q150 0 230 -75t81 -195
q0 -166 -141 -236q102 -41 149 -103q47 -60 47 -172z" />
    <glyph glyph-name="afii10068" unicode="&#x433;" horiz-adv-x="880" 
d="M778 918h-463v-918h-172v1073h635v-155z" />
    <glyph glyph-name="afii10069" unicode="&#x434;" horiz-adv-x="1232" 
d="M868 156v762h-352v-261q0 -317 -100 -501h452zM1171 -246h-143v246h-823v-246h-144v377h117q72 8 120 169t48 357v416h694v-942h131v-377z" />
    <glyph glyph-name="afii10070" unicode="&#x435;" 
d="M569 946q-127 0 -211 -89t-94 -239h602l2 13q0 133 -86 224t-213 91zM1051 479h-791q2 -147 57 -229q88 -139 258 -139q209 0 281 215h172q-33 -176 -154 -274t-305 -99q-225 1 -356 153t-131 416t134 423t357 159q152 0 268 -76t163 -198t47 -351z" />
    <glyph glyph-name="afii10072" unicode="&#x436;" horiz-adv-x="1714" 
d="M938 0h-170v463l-461 -463h-217l561 561l-495 512h219l393 -411v411h170v-411l393 411h219l-495 -512l561 -561h-217l-461 463v-463z" />
    <glyph glyph-name="afii10073" unicode="&#x437;" horiz-adv-x="1024" 
d="M940 303q0 -166 -120 -258t-322 -92q-416 0 -428 366h180q12 -96 49 -137q68 -72 196 -72q127 0 193 47q66 46 66 117q0 70 -46 124t-133 55h-182v155h127q98 0 148 54t51 126q1 70 -61 114t-162 44t-158 -44t-62 -128h-180q2 156 106 243t287 87q182 0 295 -89t113 -241
t-133 -227q176 -78 176 -244z" />
    <glyph glyph-name="afii10074" unicode="&#x438;" horiz-adv-x="1161" 
d="M1018 0h-170v846l-481 -846h-224v1073h172v-846l482 846h221v-1073z" />
    <glyph glyph-name="afii10075" unicode="&#x439;" horiz-adv-x="1161" 
d="M889 1432q-23 -276 -311 -277q-176 0 -263 117q-41 57 -43 160h121q16 -135 189 -136q82 0 131 35t55 101h121zM1018 0h-170v846l-481 -846h-224v1073h172v-846l482 846h221v-1073z" />
    <glyph glyph-name="afii10076" unicode="&#x43a;" horiz-adv-x="1044" 
d="M313 0h-170v1073h170v-434l435 434h196l-514 -512l561 -561h-217l-461 463v-463z" />
    <glyph glyph-name="afii10077" unicode="&#x43b;" horiz-adv-x="1140" 
d="M997 0h-172v918h-352v-261q0 -266 -66 -455q-36 -102 -104 -162t-160 -60v163q76 -1 118 143t42 371v416h694v-1073z" />
    <glyph glyph-name="afii10078" unicode="&#x43c;" horiz-adv-x="1265" 
d="M1122 0h-172v743l-266 -661h-102l-267 661v-743h-172v1073h213l277 -667l276 667h213v-1073z" />
    <glyph glyph-name="afii10079" unicode="&#x43d;" horiz-adv-x="1142" 
d="M999 0h-172v477h-512v-477h-172v1073h172v-440h512v440h172v-1073z" />
    <glyph glyph-name="afii10080" unicode="&#x43e;" 
d="M252 528q0 -194 82 -306t224 -112t225 112t83 306t-81 306t-225 112t-226 -112t-82 -306zM560 1104q228 0 356 -152t128 -424t-130 -424t-357 -152t-355 154q-128 152 -128 422t129 423t357 153z" />
    <glyph glyph-name="afii10081" unicode="&#x43f;" horiz-adv-x="1140" 
d="M997 0h-172v918h-510v-918h-172v1073h854v-1073z" />
    <glyph glyph-name="afii10082" unicode="&#x440;" horiz-adv-x="1179" 
d="M893 528q0 188 -85 302t-223 114t-220 -114t-82 -302t82 -302t219 -114t223 114t86 302zM1071 525q0 -263 -126 -417t-329 -155q-203 0 -333 160v-559h-172v1519h157v-162q121 193 338 193t341 -158t124 -421z" />
    <glyph glyph-name="afii10083" unicode="&#x441;" horiz-adv-x="1024" 
d="M63 521q1 263 131 423t356 160t343 -160q59 -88 72 -231h-172q-16 113 -82 173t-172 60q-139 0 -218 -114t-79 -308q0 -196 80 -305t221 -108q219 0 262 258h172q-16 -197 -131 -307q-114 -110 -320 -110t-335 153q-128 153 -128 416z" />
    <glyph glyph-name="afii10084" unicode="&#x442;" horiz-adv-x="1015" 
d="M885 918h-295v-918h-172v918h-295v155h762v-155z" />
    <glyph glyph-name="afii10085" unicode="&#x443;" horiz-adv-x="1024" 
d="M238 -446q-76 0 -127 26v154q55 -12 90 -13q98 0 137 105l65 170l-362 1077h182l275 -835l297 835h184l-477 -1298q-43 -117 -115 -169q-73 -52 -149 -52z" />
    <glyph glyph-name="afii10086" unicode="&#x444;" horiz-adv-x="1867" 
d="M303 527q0 -195 68 -305q67 -110 201 -110t203 110t69 304t-68 307q-68 111 -203 111t-203 -112t-67 -305zM1563 526q0 192 -72 306q-72 112 -206 112t-203 -110q-68 -110 -68 -306t68 -306t203 -110q134 0 206 112q72 110 72 302zM1313 1104q207 0 317 -156t111 -423
q0 -267 -112 -420t-316 -152q-99 0 -163 36t-136 124v-559h-170v569q-63 -92 -128 -131t-173 -39q-207 0 -313 147q-105 146 -105 418t109 429q110 157 310 157t300 -193v469h170v-469q92 193 299 193z" />
    <glyph glyph-name="afii10087" unicode="&#x445;" horiz-adv-x="1024" 
d="M969 0h-199l-268 412l-273 -412h-194l379 547l-359 526h195l258 -389l258 389h192l-360 -518z" />
    <glyph glyph-name="afii10088" unicode="&#x446;" horiz-adv-x="1183" 
d="M1122 -246h-143v246h-836v1073h172v-917h510v917h172v-942h125v-377z" />
    <glyph glyph-name="afii10089" unicode="&#x447;" horiz-adv-x="1064" 
d="M922 0h-172v391h-289q-133 0 -225 78t-93 215v389h172v-383q0 -143 140 -143h295v526h172v-1073z" />
    <glyph glyph-name="afii10090" unicode="&#x448;" horiz-adv-x="1417" 
d="M1274 0h-1131v1073h172v-917h308v917h172v-917h307v917h172v-1073z" />
    <glyph glyph-name="afii10091" unicode="&#x449;" horiz-adv-x="1458" 
d="M1397 -246h-144v246h-1110v1073h172v-917h308v917h172v-917h307v917h172v-942h123v-377z" />
    <glyph glyph-name="afii10092" unicode="&#x44a;" horiz-adv-x="1503" 
d="M1151 348q0 194 -233 195h-254v-387h254q135 0 184 48t49 144zM1337 349q0 -157 -96 -253t-246 -96h-503v918h-375v155h547v-375h331q152 0 247 -96t95 -253z" />
    <glyph glyph-name="afii10093" unicode="&#x44b;" horiz-adv-x="1413" 
d="M1270 0h-170v1073h170v-1073zM803 348q0 194 -234 195h-254v-387h254q135 0 185 48q49 48 49 144zM989 349q0 -157 -96 -253t-246 -96h-504v1073h172v-375h332q154 0 248 -96t94 -253z" />
    <glyph glyph-name="afii10094" unicode="&#x44c;" horiz-adv-x="1130" 
d="M803 348q0 194 -234 195h-254v-387h254q135 0 185 48q49 48 49 144zM989 349q0 -157 -96 -253t-246 -96h-504v1073h172v-375h332q154 0 248 -96t94 -253z" />
    <glyph glyph-name="afii10095" unicode="&#x44d;" horiz-adv-x="1024" 
d="M977 521q0 -263 -128 -416t-334 -153q-207 0 -321 110t-131 307h173q43 -258 262 -258q133 0 212 96t89 268h-465v158h459q-23 149 -98 231t-187 82t-178 -60t-82 -173h-172q12 143 71 231q117 160 343 160t357 -160q130 -160 130 -423z" />
    <glyph glyph-name="afii10096" unicode="&#x44e;" horiz-adv-x="1552" 
d="M684 528q0 -194 82 -306t224 -112t225 112t83 306t-80 306q-82 112 -226 112t-226 -112t-82 -306zM989 1104q231 0 359 -152t129 -424q0 -272 -130 -424t-356 -151q-113 0 -201 39t-141 96q-51 57 -96 155t-45 234h-193v-477h-172v1073h172v-440h197q0 95 43 186t93 148
t139 97t202 40z" />
    <glyph glyph-name="afii10097" unicode="&#x44f;" horiz-adv-x="1112" 
d="M797 602v318h-281q-94 0 -141 -54q-45 -45 -45 -94t1 -62q3 -40 55 -74t130 -34h281zM969 0h-172v446h-142l-415 -446h-211l420 453q-137 12 -222 90q-84 78 -84 215t83 226t235 89h508v-1073z" />
    <glyph glyph-name="uni0450" unicode="&#x450;" 
d="M569 946q-127 0 -211 -89t-94 -239h602l2 13q0 133 -86 224t-213 91zM1051 479h-791q2 -147 57 -229q88 -139 258 -139q209 0 281 215h172q-33 -176 -154 -274t-305 -99q-225 1 -356 153t-131 416t134 423t357 159q152 0 268 -76t163 -198t47 -351zM711 1212h-123
l-305 304h231z" />
    <glyph glyph-name="afii10071" unicode="&#x451;" 
d="M569 946q-127 0 -211 -89t-94 -239h602l2 13q0 133 -86 224t-213 91zM1051 479h-791q2 -147 57 -229q88 -139 258 -139q209 0 281 215h172q-33 -176 -154 -274t-305 -99q-225 1 -356 153t-131 416t134 423t357 159q152 0 268 -76t163 -198t47 -351zM858 1255h-213v211
h213v-211zM526 1255h-213v211h213v-211z" />
    <glyph glyph-name="afii10099" unicode="&#x452;" horiz-adv-x="1191" 
d="M1049 0q1 -135 -91 -214t-247 -79h-54v150q86 0 154 49t68 162v596q0 113 -70 161q-66 49 -152 49q-131 0 -211 -99t-79 -263v-512h-170v1204h-166v144h166v145h170v-145h389v-144h-389v-358q77 98 153 138t212 40t226 -79t91 -214v-731z" />
    <glyph glyph-name="afii10100" unicode="&#x453;" horiz-adv-x="880" 
d="M659 1458l-305 -303h-123l197 303h231zM748 918h-433v-918h-172v1073h605v-155z" />
    <glyph glyph-name="afii10101" unicode="&#x454;" horiz-adv-x="1024" 
d="M63 521q1 263 131 423t356 160t343 -160q59 -88 72 -231h-172q-16 113 -82 173q-67 60 -179 60t-187 -82t-97 -231h457v-158h-463q10 -172 89 -268t212 -96q219 0 262 258h172q-16 -197 -131 -307q-114 -110 -320 -110t-335 153q-128 153 -128 416z" />
    <glyph glyph-name="afii10102" unicode="&#x455;" horiz-adv-x="1024" 
d="M940 293q0 -156 -120 -248t-322 -92q-416 0 -428 366h180q12 -96 49 -137q68 -72 197 -72q130 0 198 47q68 45 68 113t-39 103t-127 55l-160 39q-190 45 -265 114t-75 207t113 227t299 89t286 -86t103 -244h-180q-6 172 -215 172q-104 0 -166 -44t-62 -110t48 -101
q48 -36 151 -60l164 -39q159 -40 231 -110t72 -189z" />
    <glyph glyph-name="afii10103" unicode="&#x456;" horiz-adv-x="454" 
d="M307 1278h-172v215h172v-215zM307 0h-170v1073h170v-1073z" />
    <glyph glyph-name="afii10104" unicode="&#x457;" horiz-adv-x="569" 
d="M365 0h-172v1073h172v-1073zM551 1239h-213v211h213v-211zM219 1239h-213v211h213v-211z" />
    <glyph glyph-name="afii10105" unicode="&#x458;" horiz-adv-x="454" 
d="M313 1278h-170v215h170v-215zM313 -223q0 -223 -293 -223q-27 0 -57 6v145l41 -2q78 0 109 31t30 110v1229h170v-1296z" />
    <glyph glyph-name="afii10106" unicode="&#x459;" horiz-adv-x="1810" 
d="M1483 348q0 194 -234 195h-254v-387h254q135 0 185 48q49 48 49 144zM1669 342q0 -150 -96 -246t-246 -96h-502v918h-352q2 -60 0 -132t-3 -182t-31 -258q-29 -149 -100 -248q-74 -98 -196 -98v164q84 0 113 128q16 71 32 164t15 582v35h692v-375h232q442 0 442 -356z
" />
    <glyph glyph-name="afii10107" unicode="&#x45a;" horiz-adv-x="1812" 
d="M1485 348q0 194 -234 195h-254v-387h254q135 0 185 48q49 48 49 144zM1671 342q0 -150 -96 -246t-246 -96h-502v477h-512v-477h-172v1073h172v-440h512v440h170v-375h232q442 0 442 -356z" />
    <glyph glyph-name="afii10108" unicode="&#x45b;" horiz-adv-x="1191" 
d="M1049 0h-170v664q0 113 -70 161q-66 49 -152 49q-131 0 -211 -99t-79 -263v-512h-170v1204h-166v144h166v145h170v-145h389v-144h-389v-358q77 98 153 138t212 40t226 -79t91 -214v-731z" />
    <glyph glyph-name="afii10109" unicode="&#x45c;" horiz-adv-x="1024" 
d="M754 1458l-305 -303h-123l196 303h232zM289 0h-170v1073h170v-455l454 455h220l-557 -532l622 -541h-211l-528 442v-442z" />
    <glyph glyph-name="uni045D" unicode="&#x45d;" 
d="M784 1155h-122l-306 303h232zM997 0h-170v846l-481 -846h-203v1073h172v-846l482 846h200v-1073z" />
    <glyph glyph-name="afii10110" unicode="&#x45e;" horiz-adv-x="1024" 
d="M238 -446q-76 0 -127 26v154q124 -27 175 11q32 24 52 81l65 170l-362 1077h182l275 -835l297 835h184l-477 -1298q-45 -117 -116 -169q-72 -52 -148 -52zM817 1432q-23 -276 -311 -277q-176 0 -262 117q-41 57 -43 160h121q16 -135 188 -136q82 0 131 35t55 101h121z
" />
    <glyph glyph-name="afii10193" unicode="&#x45f;" 
d="M999 0h-356v-246h-143v246h-357v1073h172v-917h512v917h172v-1073z" />
    <glyph glyph-name="uni048C" unicode="&#x48c;" horiz-adv-x="1366" 
d="M836 0h-674v1104h-182v143h182v246h190v-246h189v-143h-189v-254h369q504 0 555 -424q0 -180 -116 -303t-324 -123zM817 168q133 0 201 72t67 185q1 113 -67 185t-201 72h-465v-514h465z" />
    <glyph glyph-name="uni048D" unicode="&#x48d;" horiz-adv-x="1130" 
d="M999 307q0 -127 -84 -217t-233 -90h-539v782h-127v144h127v147h172v-147h148v-144h-148v-153h242q229 0 335 -78t107 -244zM813 296q0 42 -1 58q-3 53 -55 86t-130 33h-312v-317h312q94 0 141 53q45 45 45 87z" />
    <glyph glyph-name="uni048E" unicode="&#x48e;" horiz-adv-x="1366" 
d="M803 1493q221 1 341 -113t120 -317t-123 -318l119 -118l-103 -103l-139 142q-74 -33 -172 -33h-469v-633h-191v1493h617zM1065 1069q0 117 -77 187t-214 69h-397v-524h397q49 0 96 10l-110 111l102 102l139 -139q64 67 64 184z" />
    <glyph glyph-name="uni048F" unicode="&#x48f;" 
d="M612 -47q-199 0 -329 160v-559h-172v1519h157v-162q121 193 338 193t341 -158t124 -423t-127 -417l129 -129l-100 -102l-137 137q-96 -59 -224 -59zM893 532q0 184 -85 298t-223 114t-220 -114t-82 -302t82 -302t217 -113q68 0 125 28l-132 131l101 103l139 -139
q78 112 78 296z" />
    <glyph glyph-name="afii10050" unicode="&#x490;" horiz-adv-x="1251" 
d="M1186 1325h-811v-1325h-191v1493h811v197h191v-365z" />
    <glyph glyph-name="afii10098" unicode="&#x491;" horiz-adv-x="880" 
d="M748 918h-433v-918h-172v1073h432v215h173v-370z" />
    <glyph glyph-name="uni0492" unicode="&#x492;" horiz-adv-x="1251" 
d="M1163 1325h-811v-315h217v-144h-217v-866h-190v866h-154v144h154v483h1001v-168z" />
    <glyph glyph-name="uni0493" unicode="&#x493;" horiz-adv-x="880" 
d="M778 918h-463v-246h140v-144h-140v-528h-172v528h-127v144h127v401h635v-155z" />
    <glyph glyph-name="uni0494" unicode="&#x494;" horiz-adv-x="1251" 
d="M1186 1325h-811v-364h352q187 -1 283 -105t96 -289v-530q0 -185 -95 -289t-284 -104h-106v168h98q88 0 142 48t54 140v604q0 92 -54 140t-142 49h-344v-793h-191v1493h1002v-168z" />
    <glyph glyph-name="uni0495" unicode="&#x495;" horiz-adv-x="1003" 
d="M874 0q0 -135 -91 -214t-246 -79h-54v150q86 0 154 49t68 162v288q0 117 -37 164t-123 47q-125 0 -177 -93t-53 -269v-205h-172v1073h605v-155h-433v-379q33 98 100 138t200 40q259 0 259 -293v-424z" />
    <glyph glyph-name="uni0496" unicode="&#x496;" horiz-adv-x="2095" 
d="M1942 -276h-164v276h-62l-586 664v-664h-190v664l-586 -664h-225l666 768l-588 725h246l487 -631v631h190v-631l488 631h246l-588 -725l534 -616h132v-428z" />
    <glyph glyph-name="uni0497" unicode="&#x497;" horiz-adv-x="1714" 
d="M1677 -246h-143v246h-68l-528 442v-442h-170v442l-528 -442h-211l622 541l-557 532h219l455 -455v455h170v-455l455 455h219l-557 -532l471 -410h151v-377z" />
    <glyph glyph-name="uni0498" unicode="&#x498;" horiz-adv-x="1366" 
d="M1272 410q0 -96 -44 -190t-120 -152q-125 -94 -340 -113q111 -71 111 -185t-129 -163q-74 -27 -136 -27t-161 21v92q53 -20 129 -21q147 0 147 111q0 53 -26 91t-93 81q-287 25 -424 211q-86 117 -88 309h181q-2 -133 77 -229q104 -125 344 -125q182 0 275 63
q47 35 77 91t29 116q0 94 -98 180t-235 86h-222v168h181q129 -1 226 93t97 198t-91 172q-91 70 -256 70t-261 -79t-98 -224h-181q1 219 145 341t396 122t394 -118t142 -330t-214 -304q266 -100 266 -356z" />
    <glyph glyph-name="uni0499" unicode="&#x499;" horiz-adv-x="1024" 
d="M940 293q0 -139 -97 -229t-268 -107q111 -77 111 -189t-129 -161q-74 -27 -136 -27t-161 21v92q53 -20 129 -21q147 0 148 111q0 53 -27 92t-94 82q-334 31 -346 362h180q12 -96 49 -137q68 -72 196 -72q127 0 193 47q66 45 66 115t-60 125t-149 56h-152v155h127
q98 0 148 54t51 126q1 70 -61 114t-166 44q-209 0 -216 -172h-180q2 158 102 244t287 86q186 0 299 -89t113 -241t-133 -227q176 -78 176 -254z" />
    <glyph glyph-name="uni049A" unicode="&#x49a;" horiz-adv-x="1366" 
d="M1272 -276h-164v276h-90l-666 682v-682h-190v1493h190v-627l625 627h227l-706 -707l624 -634h150v-428z" />
    <glyph glyph-name="uni049B" unicode="&#x49b;" horiz-adv-x="1044" 
d="M991 -246h-143v246h-74l-461 463v-463h-170v1073h170v-434l435 434h196l-514 -512l430 -430h131v-377z" />
    <glyph glyph-name="uni049C" unicode="&#x49c;" horiz-adv-x="1366" 
d="M594 326h-143v254l-99 84v-664h-190v1493h190v-645l99 86v280h143v-157l502 436h245l-747 -643v-168l766 -682h-238l-528 455v-129z" />
    <glyph glyph-name="uni049D" unicode="&#x49d;" horiz-adv-x="1024" 
d="M532 152h-143v206l-100 84v-442h-170v1073h170v-455l100 101v219h143v-76l211 211h220l-431 -411v-232l496 -430h-211l-285 238v-86z" />
    <glyph glyph-name="uni049E" unicode="&#x49e;" horiz-adv-x="1366" 
d="M352 0h-190v1133h-174v143h174v217h190v-217h197v-143h-197v-285l744 645h245l-843 -725l850 -768h-226l-770 664v-664z" />
    <glyph glyph-name="uni049F" unicode="&#x49f;" horiz-adv-x="1024" 
d="M289 0h-170v836h-123v143h123v94h170v-94h145v-143h-145v-218l454 455h220l-557 -532l622 -541h-211l-528 442v-442z" />
    <glyph glyph-name="uni04A0" unicode="&#x4a0;" horiz-adv-x="1843" 
d="M829 0h-190v1325h-473v168h663v-645l744 645h246l-844 -725l850 -768h-226l-770 664v-664z" />
    <glyph glyph-name="uni04A1" unicode="&#x4a1;" horiz-adv-x="1398" 
d="M664 0h-170v918h-377v155h547v-455l454 455h219l-557 -532l623 -541h-211l-528 442v-442z" />
    <glyph glyph-name="uni04A2" unicode="&#x4a2;" horiz-adv-x="1478" 
d="M1456 -276h-164v276h-166v680h-764v-680h-192v1493h190v-645h766v645h193v-1341h137v-428z" />
    <glyph glyph-name="uni04A3" unicode="&#x4a3;" 
d="M1122 -246h-143v246h-152v477h-512v-477h-172v1073h172v-440h512v440h172v-942h123v-377z" />
    <glyph glyph-name="uni04A4" unicode="&#x4a4;" horiz-adv-x="2048" 
d="M1982 1325h-663v-1325h-193v680h-764v-680h-192v1493h190v-645h766v645h856v-168z" />
    <glyph glyph-name="uni04A5" unicode="&#x4a5;" horiz-adv-x="1564" 
d="M1432 918h-433v-918h-172v477h-512v-477h-172v1073h172v-440h512v440h605v-155z" />
    <glyph glyph-name="uni04A6" unicode="&#x4a6;" horiz-adv-x="2172" 
d="M2050 37q0 -185 -95 -289t-284 -104h-106v168h98q88 0 142 48t55 140v604q0 92 -54 140t-143 49h-344v-793h-193v1325h-764v-1325h-192v1493h1149v-532h352q187 -1 283 -105t96 -289v-530z" />
    <glyph glyph-name="uni04A7" unicode="&#x4a7;" horiz-adv-x="1691" 
d="M1556 0q0 -135 -91 -214t-246 -79h-54v150q86 0 154 49t67 162v288q0 117 -36 164q-37 47 -123 47q-125 0 -177 -93t-53 -269v-205h-172v918h-510v-918h-172v1073h854v-534q33 98 100 138t200 40q259 0 259 -293v-424z" />
    <glyph glyph-name="uni04A8" unicode="&#x4a8;" horiz-adv-x="1478" 
d="M772 -47q-289 0 -457 174q-217 223 -217 600t209 604q168 186 473 187q487 0 576 -488h-195q-31 154 -108 225q-100 95 -306 95t-332 -166t-126 -450t131 -448t354 -165q121 0 212 50t136 139t68 235h196q-68 -592 -614 -592z" />
    <glyph glyph-name="uni04A9" unicode="&#x4a9;" horiz-adv-x="1024" 
d="M63 521q1 263 131 423t356 160t343 -160q59 -88 72 -231h-172q-16 113 -82 173t-172 60q-139 0 -218 -114t-79 -308q0 -196 80 -305t221 -108q219 0 262 258h172q-16 -197 -131 -307q-114 -110 -320 -110t-335 153q-128 153 -128 416z" />
    <glyph glyph-name="uni04AA" unicode="&#x4aa;" horiz-adv-x="1478" 
d="M687 -420q-62 0 -161 21v92q53 -20 129 -21q147 0 148 111q0 53 -27 92t-94 82q-223 20 -367 170q-217 223 -217 600t209 604q168 186 473 187q487 0 576 -488h-195q-31 154 -108 225q-100 95 -306 95t-332 -166t-126 -450t131 -448t354 -165q121 0 212 50t136 139
t68 235h196q-66 -553 -542 -590q108 -75 108 -187t-129 -161q-74 -27 -136 -27z" />
    <glyph glyph-name="uni04AB" unicode="&#x4ab;" horiz-adv-x="1024" 
d="M727 -230q0 -114 -129 -163q-74 -27 -136 -27t-161 21v92q53 -20 129 -21q147 0 148 111q0 55 -27 94t-98 82q-180 31 -285 179q-104 148 -104 397t130 409t356 160t343 -160q59 -88 72 -231h-172q-16 113 -82 173t-172 60q-139 0 -218 -114t-79 -308q0 -196 80 -305
t221 -108q219 0 262 258h172q-15 -177 -109 -283t-254 -129q113 -73 113 -187z" />
    <glyph glyph-name="uni04AC" unicode="&#x4ac;" horiz-adv-x="1251" 
d="M1214 1325h-489v-1173h137v-428h-164v276h-163v1325h-492v168h1171v-168z" />
    <glyph glyph-name="uni04AD" unicode="&#x4ad;" horiz-adv-x="1015" 
d="M885 918h-295v-787h123v-377h-144v246h-151v918h-295v155h762v-155z" />
    <glyph glyph-name="uni04AE" unicode="&#x4ae;" horiz-adv-x="1366" 
d="M793 0h-191v586l-575 907h235l438 -727l426 727h228l-561 -907v-586z" />
    <glyph glyph-name="uni04AF" unicode="&#x4af;" horiz-adv-x="1366" 
d="M793 -410h-191v586l-493 897h235l356 -717l344 717h228l-479 -897v-586z" />
    <glyph glyph-name="uni04B0" unicode="&#x4b0;" horiz-adv-x="1366" 
d="M793 532h450v-143h-450v-389h-191v389h-450v143h450v54l-575 907h235l438 -727l426 727h228l-561 -907v-54z" />
    <glyph glyph-name="uni04B1" unicode="&#x4b1;" horiz-adv-x="1366" 
d="M1243 176v-143h-450v-443h-191v443h-450v143h450l-493 897h235l356 -717l344 717h228l-479 -897h450z" />
    <glyph glyph-name="uni04B2" unicode="&#x4b2;" horiz-adv-x="1366" 
d="M1329 -276h-164v276h-71l-408 623l-410 -623h-231l528 766l-495 727h231l383 -586l385 586h228l-504 -727l424 -614h104v-428z" />
    <glyph glyph-name="uni04B3" unicode="&#x4b3;" horiz-adv-x="1024" 
d="M969 -246h-144v246h-55l-268 412l-273 -412h-194l379 547l-359 526h195l258 -389l258 389h192l-360 -518l283 -424h88v-377z" />
    <glyph glyph-name="uni04B4" unicode="&#x4b4;" horiz-adv-x="1929" 
d="M1851 -276h-163v276h-1174v1325h-471v168h1128v-168h-464v-1157h763v1325h193v-1341h188v-428z" />
    <glyph glyph-name="uni04B5" unicode="&#x4b5;" horiz-adv-x="1499" 
d="M1417 -246h-143v246h-877v918h-274v155h721v-155h-275v-762h510v917h172v-942h166v-377z" />
    <glyph glyph-name="uni04B6" unicode="&#x4b6;" horiz-adv-x="1327" 
d="M1303 -276h-164v276h-164v532h-434q-187 0 -283 104t-96 290v567h190v-604q0 -92 54 -140t143 -49h426v793h190v-1341h138v-428z" />
    <glyph glyph-name="uni04B7" unicode="&#x4b7;" horiz-adv-x="1064" 
d="M1047 -246h-144v246h-153v391h-289q-133 0 -225 78t-93 215v389h172v-383q0 -143 140 -143h295v526h172v-942h125v-377z" />
    <glyph glyph-name="uni04B8" unicode="&#x4b8;" horiz-adv-x="1327" 
d="M1165 0h-190v532h-227v-256h-144v256h-63q-187 0 -283 104t-96 290v567h190v-604q0 -92 54 -140t143 -49h55v281h144v-281h227v793h190v-1493z" />
    <glyph glyph-name="uni04B9" unicode="&#x4b9;" horiz-adv-x="1064" 
d="M922 0h-172v391h-136v-190h-143v190h-10q-133 0 -225 78t-93 215v389h172v-383q0 -143 140 -143h16v211h143v-211h136v526h172v-1073z" />
    <glyph glyph-name="uni04BA" unicode="&#x4ba;" horiz-adv-x="1327" 
d="M1165 0h-190v604q0 92 -54 140t-143 49h-426v-793h-190v1493h190v-532h434q188 -1 284 -105t95 -289v-567z" />
    <glyph glyph-name="uni04BB" unicode="&#x4bb;" horiz-adv-x="1064" 
d="M922 0h-172v383q0 143 -140 143h-295v-526h-172v1073h172v-391h289q133 0 225 -78t93 -215v-389z" />
    <glyph glyph-name="uni04BC" unicode="&#x4bc;" horiz-adv-x="1898" 
d="M707 739q0 -287 126 -453t332 -165q206 0 305 94q78 72 109 225h195q-88 -487 -576 -487q-305 0 -473 186q-209 227 -209 602v45q-209 4 -314 124q-106 120 -106 285t79 260t215 95t204 -94q37 -55 43 -139h-102q-18 139 -152 139q-84 0 -131 -68t-47 -185t48 -183
t132 -66h152q47 238 196 389q168 174 457 175q612 0 614 -723l2 -9h-1097q-2 -16 -2 -47zM1585 954q-25 162 -45 203q-45 92 -136 142t-212 51q-176 0 -296 -104t-165 -292h854z" />
    <glyph glyph-name="uni04BD" unicode="&#x4bd;" horiz-adv-x="1466" 
d="M1378 479h-790q2 -147 57 -229q88 -139 258 -139q209 0 281 215h172q-33 -176 -154 -274q-122 -98 -322 -99q-200 0 -329 140t-141 386q-162 2 -243 93q-81 92 -81 204t52 176t142 64t138 -64q23 -31 28 -92h-69q-12 94 -101 94q-57 0 -88 -46q-30 -46 -30 -124t32 -122
t86 -44h138q25 223 154 355q130 131 333 131q151 0 267 -76t163 -198t47 -351zM897 946q-127 0 -211 -89t-94 -239h602l2 13q0 133 -86 224t-213 91z" />
    <glyph glyph-name="uni04BE" unicode="&#x4be;" horiz-adv-x="1898" 
d="M707 739q0 -287 126 -453t332 -165q206 0 305 94q78 72 109 225h195q-82 -453 -502 -485q108 -75 108 -187t-129 -161q-74 -27 -136 -27t-161 21v92q53 -20 129 -21q147 0 148 111q0 53 -27 92t-94 82q-244 25 -385 182q-209 227 -209 602v45q-209 4 -314 124
q-106 120 -106 285t79 260t215 95t204 -94q37 -55 43 -139h-102q-18 139 -152 139q-84 0 -131 -68t-47 -185t48 -183t132 -66h152q47 238 196 389q168 174 457 175q612 0 614 -723l2 -9h-1097q-2 -16 -2 -47zM1585 954q-25 162 -45 203q-45 92 -136 142t-212 51
q-176 0 -296 -104t-165 -292h854z" />
    <glyph glyph-name="uni04BF" unicode="&#x4bf;" horiz-adv-x="1466" 
d="M1378 479h-790q2 -147 57 -229q88 -139 258 -139q209 0 281 215h172q-29 -158 -132 -255t-259 -114q111 -73 111 -187t-130 -163q-74 -27 -136 -27t-161 21v92q53 -20 129 -21q147 0 148 111q0 53 -28 93t-99 85q-174 31 -277 166q-102 135 -112 352q-162 2 -243 93
q-81 92 -81 204t52 176t142 64t138 -64q23 -31 28 -92h-69q-12 94 -101 94q-57 0 -88 -46q-30 -46 -30 -124t32 -122t86 -44h138q25 223 154 355q130 131 333 131q151 0 267 -76t163 -198t47 -351zM897 946q-127 0 -211 -89t-94 -239h602l2 13q0 133 -86 224t-213 91z" />
    <glyph glyph-name="uni04C0" unicode="&#x4c0;" horiz-adv-x="569" 
d="M397 0h-192v1493h192v-1493z" />
    <glyph glyph-name="uni04C1" unicode="&#x4c1;" horiz-adv-x="2095" 
d="M1032 1575q-176 0 -262 117q-41 57 -43 159h121q16 -135 188 -135q82 0 131 35t56 100h120q-23 -276 -311 -276zM1130 0h-190v664l-586 -664h-225l666 768l-588 725h246l487 -631v631h190v-631l488 631h246l-588 -725l666 -768h-226l-586 664v-664z" />
    <glyph glyph-name="uni04C2" unicode="&#x4c2;" horiz-adv-x="1714" 
d="M1161 1432q-23 -276 -311 -277q-176 0 -262 117q-41 57 -43 160h121q14 -135 188 -136q82 0 131 35t55 101h121zM938 0h-170v442l-528 -442h-211l622 541l-557 532h219l455 -455v455h170v-455l455 455h219l-557 -532l622 -541h-211l-528 442v-442z" />
    <glyph glyph-name="uni04C3" unicode="&#x4c3;" horiz-adv-x="1366" 
d="M872 768q188 0 284 -104t95 -289v-338q0 -185 -95 -289t-284 -104h-106v168h98q88 0 143 48q54 48 54 140v412q0 92 -54 140t-143 48h-512v-600h-190v1493h190v-645l744 645h245l-843 -725h374z" />
    <glyph glyph-name="uni04C4" unicode="&#x4c4;" horiz-adv-x="1024" 
d="M901 250v-250q0 -135 -91 -214t-247 -79h-53v150q86 0 154 49t67 162v114q1 113 -67 162t-154 49h-221v-393h-170v1073h170v-455l454 455h220l-557 -532l157 2q156 0 247 -79t91 -214z" />
    <glyph glyph-name="uni04C7" unicode="&#x4c7;" horiz-adv-x="1478" 
d="M1319 37q0 -185 -96 -289t-285 -104h-107v168h99q88 0 142 48t54 140v680h-764v-680h-192v1493h190v-645h766v645h193v-1456z" />
    <glyph glyph-name="uni04C8" unicode="&#x4c8;" 
d="M999 0q0 -135 -91 -214t-246 -79h-54v150q86 0 153 48t66 163v409h-512v-477h-172v1073h172v-440h512v440h172v-1073z" />
    <glyph glyph-name="uni04CB" unicode="&#x4cb;" horiz-adv-x="1327" 
d="M1165 0h-164v-276h-163v428h137v380h-434q-187 0 -283 104t-96 290v567h190v-604q0 -92 54 -140t143 -49h426v793h190v-1493z" />
    <glyph glyph-name="uni04CC" unicode="&#x4cc;" horiz-adv-x="1064" 
d="M922 0h-154v-246h-143v377h125v260h-289q-133 0 -225 78t-93 215v389h172v-383q0 -143 140 -143h295v526h172v-1073z" />
    <glyph glyph-name="uni04D0" unicode="&#x4d0;" horiz-adv-x="1366" 
d="M918 608l-230 680l-246 -680h476zM1337 0h-213l-153 449h-576l-157 -449h-203l532 1493h246zM684 1575q-176 0 -262 117q-41 57 -43 159h121q16 -135 188 -135q82 0 131 35t55 100h121q-23 -276 -311 -276z" />
    <glyph glyph-name="uni04D1" unicode="&#x4d1;" 
d="M797 338v192q-68 -31 -240 -55q-172 -25 -232 -71q-61 -46 -61 -129t55 -128t156 -45q147 0 254 97q68 61 68 139zM960 -47q-64 0 -105 38q-42 38 -52 120q-171 -158 -349 -158t-273 86t-95 231q0 209 188 287q83 33 264 55q180 23 220 50q39 27 39 79v45q-1 78 -63 119
t-179 41t-178 -46t-72 -144h-172q6 147 74 223q113 125 356 125q199 0 301 -75t103 -218v-631q0 -84 92 -84q18 0 37 4v-129q-72 -18 -136 -18zM858 1432q-23 -276 -311 -277q-176 0 -262 117q-41 57 -43 160h120q16 -135 189 -136q82 0 131 35t55 101h121z" />
    <glyph glyph-name="uni04D2" unicode="&#x4d2;" horiz-adv-x="1366" 
d="M918 608l-230 680l-246 -680h476zM1337 0h-213l-153 449h-576l-157 -449h-203l532 1493h246zM958 1575h-213v211h213v-211zM627 1575h-213v211h213v-211z" />
    <glyph glyph-name="uni04D3" unicode="&#x4d3;" 
d="M797 338v192q-68 -31 -240 -55q-172 -25 -232 -71q-61 -46 -61 -129t55 -128t156 -45q147 0 254 97q68 61 68 139zM960 -47q-64 0 -105 38q-42 38 -52 120q-171 -158 -349 -158t-273 86t-95 231q0 209 188 287q83 33 264 55q180 23 220 50q39 27 39 79v45q-1 78 -63 119
t-179 41t-178 -46t-72 -144h-172q6 147 74 223q113 125 356 125q199 0 301 -75t103 -218v-631q0 -84 92 -84q18 0 37 4v-129q-72 -18 -136 -18zM823 1155h-213v211h213v-211zM492 1155h-213v211h213v-211z" />
    <glyph glyph-name="uni04D4" unicode="&#x4d4;" horiz-adv-x="2048" 
d="M958 606v719h-204l-283 -719h487zM1946 0h-988v438h-550l-175 -438h-210l612 1493h1274v-168h-760v-477h721v-168h-721v-512h797v-168z" />
    <glyph glyph-name="uni04D5" unicode="&#x4d5;" horiz-adv-x="1820" 
d="M1546 618q0 144 -82 236t-212 92t-214 -89t-94 -239h602zM780 322v206q-68 -29 -240 -54q-172 -24 -232 -70t-60 -128t55 -128t165 -46t212 78q100 79 100 142zM901 936q118 168 374 168q130 0 245 -76t163 -198t48 -351h-791q2 -147 57 -229q88 -139 258 -139
q207 0 283 215h172q-33 -174 -154 -274t-303 -99q-119 0 -215 45t-149 125l-33 55q-115 -119 -218 -172q-104 -53 -242 -53t-232 86t-94 231q0 207 190 287q98 43 342 64q104 9 141 35t37 85v45q0 160 -235 160t-256 -190h-172q6 147 73 223q113 125 364 125t347 -168z" />
    <glyph glyph-name="uni04D6" unicode="&#x4d6;" horiz-adv-x="1366" 
d="M1255 0h-1071v1493h1035v-168h-844v-477h813v-168h-813v-512h880v-168zM698 1575q-176 0 -262 117q-41 57 -43 159h121q14 -135 188 -135q82 0 132 35q49 35 55 100h121q-23 -276 -312 -276z" />
    <glyph glyph-name="uni04D7" unicode="&#x4d7;" 
d="M569 946q-127 0 -211 -89t-94 -239h602l2 13q0 133 -86 224t-213 91zM1051 479h-791q2 -147 57 -229q88 -139 258 -139q209 0 281 215h172q-33 -176 -154 -274t-305 -99q-225 1 -356 153t-131 416t134 423t357 159q152 0 268 -76t163 -198t47 -351zM965 1432
q-23 -276 -312 -277q-176 0 -262 117q-41 57 -43 160h121q14 -135 188 -136q82 0 131 35t56 101h121z" />
    <glyph glyph-name="uni04D8" unicode="&#x4d8;" horiz-adv-x="1478" 
d="M1386 727q0 -377 -217 -600q-168 -174 -456 -174q-612 0 -615 723l-2 8h1098q2 16 2 47q0 287 -126 453t-332 166t-306 -95q-78 -72 -108 -225h-195q88 487 576 488q305 0 473 -187q208 -227 208 -604zM711 121q176 0 296 104q119 105 164 291h-854q25 -162 45 -203
q44 -92 136 -142t213 -50z" />
    <glyph glyph-name="afii10846" unicode="&#x4d9;" 
d="M563 111q127 1 211 89t94 238h-602l-2 -12q0 -133 86 -224t213 -91zM1051 535q-1 -264 -135 -423t-357 -159q-151 0 -267 76t-163 198t-47 351h790q-2 147 -57 229q-88 139 -258 139q-209 0 -281 -215h-172q33 177 154 275t305 98q225 0 357 -152t131 -417z" />
    <glyph glyph-name="uni04DA" unicode="&#x4da;" horiz-adv-x="1478" 
d="M1386 727q0 -377 -217 -600q-168 -174 -456 -174q-612 0 -615 723l-2 8h1098q2 16 2 47q0 287 -126 453t-332 166t-306 -95q-78 -72 -108 -225h-195q88 487 576 488q305 0 473 -187q208 -227 208 -604zM711 121q176 0 296 104q119 105 164 291h-854q25 -162 45 -203
q44 -92 136 -142t213 -50zM977 1640h-213v211h213v-211zM645 1640h-213v211h213v-211z" />
    <glyph glyph-name="uni04DB" unicode="&#x4db;" 
d="M563 111q127 1 211 89t94 238h-602l-2 -12q0 -133 86 -224t213 -91zM1051 535q-1 -264 -135 -423t-357 -159q-151 0 -267 76t-163 198t-47 351h790q-2 147 -57 229q-88 139 -258 139q-209 0 -281 -215h-172q33 177 154 275t305 98q225 0 357 -152t131 -417zM836 1227
h-213v211h213v-211zM504 1227h-213v211h213v-211z" />
    <glyph glyph-name="uni04DC" unicode="&#x4dc;" horiz-adv-x="2095" 
d="M1309 1575h-213v211h213v-211zM977 1575h-213v211h213v-211zM1130 0h-190v664l-586 -664h-225l666 768l-588 725h246l487 -631v631h190v-631l488 631h246l-588 -725l666 -768h-226l-586 664v-664z" />
    <glyph glyph-name="uni04DD" unicode="&#x4dd;" horiz-adv-x="1714" 
d="M1124 1155h-213v211h213v-211zM793 1155h-213v211h213v-211zM938 0h-170v442l-528 -442h-211l622 541l-557 532h219l455 -455v455h170v-455l455 455h219l-557 -532l622 -541h-211l-528 442v-442z" />
    <glyph glyph-name="uni04DE" unicode="&#x4de;" horiz-adv-x="1366" 
d="M948 1575h-213v211h213v-211zM616 1575h-213v211h213v-211zM1272 410q0 -96 -44 -190q-126 -268 -540 -267q-346 0 -502 213q-86 117 -88 309h181q-2 -133 77 -229q104 -125 344 -125q182 0 275 63q47 35 77 91t29 116q0 94 -98 180t-235 86h-222v168h181q129 -1 226 93
t97 198t-91 172q-91 70 -256 70t-261 -79t-98 -224h-181q1 219 145 341t396 122t394 -118t142 -330t-214 -304q266 -100 266 -356z" />
    <glyph glyph-name="uni04DF" unicode="&#x4df;" horiz-adv-x="1024" 
d="M770 1155h-213v211h213v-211zM438 1155h-213v211h213v-211zM940 303q0 -166 -120 -258t-322 -92q-416 0 -428 366h180q12 -96 49 -137q68 -72 196 -72q127 0 193 47q66 45 66 115t-60 125t-149 56h-152v155h127q98 0 148 54t51 126q1 70 -61 114t-166 44
q-209 0 -216 -172h-180q2 158 102 244t287 86q186 0 299 -89t113 -241t-133 -227q176 -78 176 -244z" />
    <glyph glyph-name="uni04E0" unicode="&#x4e0;" horiz-adv-x="1366" 
d="M1272 410q0 -96 -44 -190q-126 -268 -540 -267q-346 0 -502 213q-86 117 -88 309h181q-2 -133 77 -229q104 -125 344 -125q182 0 275 63q47 35 77 91t29 116q0 94 -98 180t-235 86h-222v168h181q129 -1 226 93t97 198t-91 172q-91 70 -256 70t-261 -79t-98 -224h-181
q1 219 145 341t396 122t394 -118t142 -330t-214 -304q266 -100 266 -356z" />
    <glyph glyph-name="uni04E1" unicode="&#x4e1;" horiz-adv-x="1024" 
d="M940 303q0 -166 -120 -258t-322 -92q-416 0 -428 366h180q12 -96 49 -137q68 -72 196 -72q127 0 193 47q66 45 66 115t-60 125t-149 56h-152v155h127q98 0 148 54t51 126q1 70 -61 114t-166 44q-209 0 -216 -172h-180q2 158 102 244t287 86q186 0 299 -89t113 -241
t-133 -227q176 -78 176 -244z" />
    <glyph glyph-name="uni04E2" unicode="&#x4e2;" horiz-adv-x="1478" 
d="M1020 1575h-561v143h561v-143zM1323 0h-180v1210l-772 -1210h-215v1493h180v-1221l780 1221h207v-1493z" />
    <glyph glyph-name="uni04E3" unicode="&#x4e3;" 
d="M852 1155h-561v143h561v-143zM997 0h-170v846l-481 -846h-203v1073h172v-846l482 846h200v-1073z" />
    <glyph glyph-name="uni04E4" unicode="&#x4e4;" horiz-adv-x="1478" 
d="M1012 1575h-213v211h213v-211zM680 1575h-213v211h213v-211zM1323 0h-180v1210l-772 -1210h-215v1493h180v-1221l780 1221h207v-1493z" />
    <glyph glyph-name="uni04E5" unicode="&#x4e5;" 
d="M844 1155h-213v211h213v-211zM512 1155h-213v211h213v-211zM997 0h-170v846l-481 -846h-203v1073h172v-846l482 846h200v-1073z" />
    <glyph glyph-name="uni04E6" unicode="&#x4e6;" horiz-adv-x="1593" 
d="M1329 734q0 276 -145 446t-385 170t-385 -169q-146 -169 -146 -445t146 -446q146 -169 385 -169q238 0 384 168q146 169 146 445zM1520 723q0 -184 -69 -347t-189 -265q-186 -158 -463 -158q-324 0 -523 216t-198 566q0 350 198 567q199 216 524 216q324 0 522 -218
t198 -577zM1071 1575h-213v211h213v-211zM739 1575h-213v211h213v-211z" />
    <glyph glyph-name="uni04E7" unicode="&#x4e7;" 
d="M252 528q0 -194 82 -306t224 -112t225 112t83 306t-81 306t-225 112t-226 -112t-82 -306zM560 1104q228 0 356 -152t128 -424t-130 -424t-357 -152t-355 154q-128 152 -128 422t129 423t357 153zM831 1155h-213v211h213v-211zM500 1155h-213v211h213v-211z" />
    <glyph glyph-name="uni04E8" unicode="&#x4e8;" horiz-adv-x="1593" 
d="M798 121q218 0 361 143t166 381h-1053q25 -240 167 -382q141 -142 359 -142zM800 1350q-226 0 -370 -154t-160 -408h1057q-17 256 -159 409t-368 153zM1520 723q0 -184 -69 -347t-189 -265q-186 -158 -463 -158q-324 0 -523 216t-198 566q0 350 198 567q199 216 524 216
q324 0 522 -218t198 -577z" />
    <glyph glyph-name="uni04E9" unicode="&#x4e9;" 
d="M559 111q127 0 207 90t96 250h-606q16 -160 96 -250t207 -90zM559 946q-131 0 -211 -93t-94 -259h610q-16 168 -95 260t-210 92zM560 1104q228 0 356 -152t128 -424t-130 -424t-357 -152t-355 154q-128 152 -128 422t129 423t357 153z" />
    <glyph glyph-name="uni04EA" unicode="&#x4ea;" horiz-adv-x="1593" 
d="M1071 1575h-213v211h213v-211zM739 1575h-213v211h213v-211zM798 121q218 0 361 143t166 381h-1053q25 -240 167 -382q141 -142 359 -142zM800 1350q-226 0 -370 -154t-160 -408h1057q-17 256 -159 409t-368 153zM1520 723q0 -184 -69 -347t-189 -265
q-186 -158 -463 -158q-324 0 -523 216t-198 566q0 350 198 567q199 216 524 216q324 0 522 -218t198 -577z" />
    <glyph glyph-name="uni04EB" unicode="&#x4eb;" 
d="M831 1155h-213v211h213v-211zM500 1155h-213v211h213v-211zM559 111q127 0 207 90t96 250h-606q16 -160 96 -250t207 -90zM559 946q-131 0 -211 -93t-94 -259h610q-16 168 -95 260t-210 92zM560 1104q228 0 356 -152t128 -424t-130 -424t-357 -152t-355 154
q-128 152 -128 422t129 423t357 153z" />
    <glyph glyph-name="uni04EC" unicode="&#x4ec;" horiz-adv-x="1478" 
d="M1126 1575h-213v211h213v-211zM795 1575h-213v211h213v-211zM1386 727q0 -377 -217 -600q-168 -174 -456 -174q-547 0 -615 592h197q23 -145 67 -235t136 -139q92 -50 213 -50q211 1 341 151t144 408h-752v168h746q-25 236 -148 369q-122 133 -316 133t-294 -95
q-78 -72 -108 -225h-195q88 487 576 488q305 0 473 -187q208 -227 208 -604z" />
    <glyph glyph-name="uni04ED" unicode="&#x4ed;" horiz-adv-x="1024" 
d="M707 1155h-213v211h213v-211zM375 1155h-213v211h213v-211zM977 521q0 -263 -128 -416t-334 -153q-207 0 -321 110t-131 307h173q43 -258 262 -258q133 0 212 96t89 268h-465v158h459q-23 149 -98 231t-187 82t-178 -60t-82 -173h-172q12 143 71 231q117 160 343 160
t357 -160q130 -160 130 -423z" />
    <glyph glyph-name="uni04EE" unicode="&#x4ee;" horiz-adv-x="1331" 
d="M942 1575h-561v143h561v-143zM1268 1493l-752 -1493h-231l264 500l-496 993h232l379 -776l376 776h228z" />
    <glyph glyph-name="uni04EF" unicode="&#x4ef;" horiz-adv-x="1024" 
d="M238 -446q-76 0 -127 26v154q124 -27 175 11q32 24 52 81l65 170l-362 1077h182l275 -835l297 835h184l-477 -1298q-45 -117 -116 -169q-72 -52 -148 -52zM791 1155h-562v143h562v-143z" />
    <glyph glyph-name="uni04F0" unicode="&#x4f0;" horiz-adv-x="1331" 
d="M934 1575h-213v211h213v-211zM602 1575h-213v211h213v-211zM1268 1493l-752 -1493h-231l264 500l-496 993h232l379 -776l376 776h228z" />
    <glyph glyph-name="uni04F1" unicode="&#x4f1;" horiz-adv-x="1024" 
d="M238 -446q-76 0 -127 26v154q124 -27 175 11q32 24 52 81l65 170l-362 1077h182l275 -835l297 835h184l-477 -1298q-45 -117 -116 -169q-72 -52 -148 -52zM782 1155h-213v211h213v-211zM451 1155h-213v211h213v-211z" />
    <glyph glyph-name="uni04F2" unicode="&#x4f2;" horiz-adv-x="1331" 
d="M1053 1882l-305 -307h-123l196 307h232zM696 1882l-305 -307h-123l197 307h231zM1268 1493l-752 -1493h-231l264 500l-496 993h232l379 -776l376 776h228z" />
    <glyph glyph-name="uni04F3" unicode="&#x4f3;" horiz-adv-x="1024" 
d="M238 -446q-76 0 -127 26v154q124 -27 175 11q32 24 52 81l65 170l-362 1077h182l275 -835l297 835h184l-477 -1298q-45 -117 -116 -169q-72 -52 -148 -52zM903 1462l-305 -307h-123l197 307h231zM547 1462l-305 -307h-123l196 307h232z" />
    <glyph glyph-name="uni04F4" unicode="&#x4f4;" horiz-adv-x="1327" 
d="M1165 0h-190v532h-434q-187 0 -283 104t-96 290v567h190v-604q0 -92 54 -140t143 -49h426v793h190v-1493zM936 1640h-213v211h213v-211zM604 1640h-213v211h213v-211z" />
    <glyph glyph-name="uni04F5" unicode="&#x4f5;" horiz-adv-x="1064" 
d="M922 0h-172v391h-289q-133 0 -225 78t-93 215v389h172v-383q0 -143 140 -143h295v526h172v-1073zM805 1227h-213v211h213v-211zM473 1227h-213v211h213v-211z" />
    <glyph glyph-name="uni04F8" unicode="&#x4f8;" horiz-adv-x="1814" 
d="M1176 1575h-213v211h213v-211zM844 1575h-213v211h213v-211zM817 168q133 0 201 72t67 185q1 113 -67 185t-201 72h-465v-514h465zM836 0h-674v1493h190v-643h369q504 0 555 -424q0 -180 -116 -303t-324 -123zM1647 0h-193v1493h193v-1493z" />
    <glyph glyph-name="uni04F9" unicode="&#x4f9;" horiz-adv-x="1531" 
d="M1020 1155h-213v211h213v-211zM688 1155h-213v211h213v-211zM813 296q0 42 -1 58q-3 53 -55 86t-130 33h-312v-317h312q94 0 141 53q45 45 45 87zM999 307q0 -127 -84 -217t-233 -90h-539v1073h172v-444h242q227 0 335 -79t107 -243zM1354 0h-170v1073h170v-1073z" />
    <glyph glyph-name="baht" unicode="&#xe3f;" horiz-adv-x="1366" 
d="M623 682h-271v-514h271v514zM817 168q129 0 199 72t69 185t-69 185t-199 72h-84v-514h84zM623 1325h-271v-475h271v475zM1020 1087q0 231 -287 238v-475q287 6 287 237zM1276 426q0 -186 -121 -306t-319 -120h-103v-170h-110v170h-461v1493h461v170h110v-170h35
q207 0 325 -105t117 -274q0 -229 -206 -326q144 -55 208 -141t64 -221z" />
    <glyph glyph-name="Ddotbelow" unicode="&#x1e0c;" horiz-adv-x="1478" 
d="M831 -375h-213v213h213v-213zM1176 746q0 284 -115 432t-336 147h-352v-1157h352q221 0 336 147t115 431zM1366 748q0 -348 -163 -548t-445 -200h-576v1493h576q284 -1 446 -199t162 -546z" />
    <glyph glyph-name="ddotbelow" unicode="&#x1e0d;" 
d="M676 -375h-213v213h213v-213zM542 129q138 -1 220 109t82 295t-82 298t-221 113t-225 -110q-85 -111 -85 -297t86 -297q87 -111 225 -111zM1014 0h-152v158q-70 -100 -150 -144t-192 -45q-217 0 -342 154t-125 417q0 264 126 414t341 150t324 -166v555h170v-1493z" />
    <glyph glyph-name="Dlinebelow" unicode="&#x1e0e;" horiz-adv-x="1478" 
d="M1004 -340h-562v143h562v-143zM1176 746q0 284 -115 432t-336 147h-352v-1157h352q221 0 336 147t115 431zM1366 748q0 -348 -163 -548t-445 -200h-576v1493h576q284 -1 446 -199t162 -546z" />
    <glyph glyph-name="dlinebelow" unicode="&#x1e0f;" 
d="M848 -340h-561v143h561v-143zM542 129q138 -1 220 109t82 295t-82 298t-221 113t-225 -110q-85 -111 -85 -297t86 -297q87 -111 225 -111zM1014 0h-152v158q-70 -100 -150 -144t-192 -45q-217 0 -342 154t-125 417q0 264 126 414t341 150t324 -166v555h170v-1493z" />
    <glyph glyph-name="Hdotbelow" unicode="&#x1e24;" horiz-adv-x="1478" 
d="M846 -375h-213v213h213v-213zM1319 0h-191v680h-768v-680h-190v1493h190v-645h768v645h191v-1493z" />
    <glyph glyph-name="hdotbelow" unicode="&#x1e25;" 
d="M676 -375h-213v213h213v-213zM995 0h-170v743q0 103 -62 157t-159 54q-131 0 -211 -99t-80 -263v-592h-170v1493h170v-567q76 98 153 138t212 40t226 -79t91 -214v-811z" />
    <glyph glyph-name="Hdieresis" unicode="&#x1e26;" horiz-adv-x="1478" 
d="M999 1636h-186v209h186v-209zM668 1636h-187v209h187v-209zM1319 0h-191v680h-768v-680h-190v1493h190v-645h768v645h191v-1493z" />
    <glyph glyph-name="hdieresis" unicode="&#x1e27;" 
d="M829 1636h-186v209h186v-209zM498 1636h-187v209h187v-209zM995 0h-170v743q0 103 -62 157t-159 54q-131 0 -211 -99t-80 -263v-592h-170v1493h170v-567q76 98 153 138t212 40t226 -79t91 -214v-811z" />
    <glyph glyph-name="Hbrevebelow" unicode="&#x1e2a;" horiz-adv-x="1478" 
d="M735 -393q-166 0 -265 61t-101 189h145q8 -59 61 -81t164 -22q213 0 224 103h145q-25 -250 -373 -250zM1319 0h-191v680h-768v-680h-190v1493h190v-645h768v645h191v-1493z" />
    <glyph glyph-name="hbrevebelow" unicode="&#x1e2b;" 
d="M565 -393q-166 0 -265 61t-101 189h145q8 -59 62 -81t163 -22q213 0 224 103h145q-25 -250 -373 -250zM995 0h-170v743q0 103 -62 157t-159 54q-131 0 -211 -99t-80 -263v-592h-170v1493h170v-567q76 98 153 138t212 40t226 -79t91 -214v-811z" />
    <glyph glyph-name="Ldotbelow" unicode="&#x1e36;" 
d="M735 -375h-213v213h213v-213zM1092 0h-928v1493h190v-1325h738v-168z" />
    <glyph glyph-name="ldotbelow" unicode="&#x1e37;" horiz-adv-x="454" 
d="M334 -375h-213v213h213v-213zM309 0h-170v1493h170v-1493z" />
    <glyph glyph-name="Ldotbelowmacron" unicode="&#x1e38;" 
d="M537 1669h-562v143h562v-143zM735 -375h-213v213h213v-213zM1092 0h-928v1493h190v-1325h738v-168z" />
    <glyph glyph-name="ldotbelowmacron" unicode="&#x1e39;" horiz-adv-x="454" 
d="M502 1669h-561v143h561v-143zM334 -375h-213v213h213v-213zM309 0h-170v1493h170v-1493z" />
    <glyph glyph-name="Mdotbelow" unicode="&#x1e42;" horiz-adv-x="1705" 
d="M961 -375h-213v213h213v-213zM1559 0h-181v1251l-420 -1251h-200l-424 1251v-1251h-180v1493h264l442 -1300l434 1300h265v-1493z" />
    <glyph glyph-name="mdotbelow" unicode="&#x1e43;" horiz-adv-x="1705" 
d="M961 -375h-213v213h213v-213zM1556 0h-170v739q0 103 -51 159t-150 56t-174 -82t-75 -198v-674h-170v739q0 103 -52 159t-152 56t-173 -82q-74 -82 -74 -198v-674h-170v1073h156v-151q71 96 147 139t183 43q199 0 289 -164q76 90 150 127t179 37q150 0 229 -77t78 -222
v-805z" />
    <glyph glyph-name="Ndotaccent" unicode="&#x1e44;" horiz-adv-x="1478" 
d="M848 1634h-213v213h213v-213zM1323 0h-215l-772 1210v-1210h-180v1493h206l781 -1221v1221h180v-1493z" />
    <glyph glyph-name="ndotaccent" unicode="&#x1e45;" 
d="M676 1235h-213v213h213v-213zM997 0h-170v743q0 95 -59 153t-176 58t-198 -99t-81 -263v-592h-170v1073h158v-180q72 113 155 162t220 49t229 -80t92 -213v-811z" />
    <glyph glyph-name="Ndotbelow" unicode="&#x1e46;" horiz-adv-x="1478" 
d="M846 -375h-213v213h213v-213zM1323 0h-215l-772 1210v-1210h-180v1493h206l781 -1221v1221h180v-1493z" />
    <glyph glyph-name="ndotbelow" unicode="&#x1e47;" 
d="M676 -375h-213v213h213v-213zM997 0h-170v743q0 95 -59 153t-176 58t-198 -99t-81 -263v-592h-170v1073h158v-180q72 113 155 162t220 49t229 -80t92 -213v-811z" />
    <glyph glyph-name="Rdotaccent" unicode="&#x1e58;" horiz-adv-x="1478" 
d="M848 1634h-213v213h213v-213zM842 811q152 -1 222 61t71 193q0 131 -69 196t-224 64h-461v-514h461zM1391 0h-232q-45 106 -43 244l2 133q2 137 -58 202t-188 64h-491v-643h-191v1493h689q219 0 337 -103t117 -296q0 -127 -55 -211t-180 -146q122 -51 160 -128t41 -244
t21 -224t71 -94v-47z" />
    <glyph glyph-name="rdotaccent" unicode="&#x1e59;" horiz-adv-x="681" 
d="M420 1235h-213v213h213v-213zM313 557v-557h-170v1073h156v-194q74 121 142 173q69 52 151 52q23 0 65 -6v-174q-193 -2 -269 -90t-75 -277z" />
    <glyph glyph-name="Rdotbelow" unicode="&#x1e5a;" horiz-adv-x="1478" 
d="M846 -375h-213v213h213v-213zM842 811q152 -1 222 61t71 193q0 131 -69 196t-224 64h-461v-514h461zM1391 0h-232q-45 106 -43 244l2 133q2 137 -58 202t-188 64h-491v-643h-191v1493h689q219 0 337 -103t117 -296q0 -127 -55 -211t-180 -146q122 -51 160 -128t41 -244
t21 -224t71 -94v-47z" />
    <glyph glyph-name="rdotbelow" unicode="&#x1e5b;" horiz-adv-x="681" 
d="M336 -375h-213v213h213v-213zM313 557v-557h-170v1073h156v-194q74 121 142 173q69 52 151 52q23 0 65 -6v-174q-193 -2 -269 -90t-75 -277z" />
    <glyph glyph-name="Rdotbelowmacron" unicode="&#x1e5c;" horiz-adv-x="1478" 
d="M1018 1669h-561v143h561v-143zM846 -375h-213v213h213v-213zM842 811q152 -1 222 61t71 193q0 131 -69 196t-224 64h-461v-514h461zM1391 0h-232q-45 106 -43 244l2 133q2 137 -58 202t-188 64h-491v-643h-191v1493h689q219 0 337 -103t117 -296q0 -127 -55 -211
t-180 -146q122 -51 160 -128t41 -244t21 -224t71 -94v-47z" />
    <glyph glyph-name="rdotbelowmacron" unicode="&#x1e5d;" horiz-adv-x="681" 
d="M590 1300h-561v144h561v-144zM336 -375h-213v213h213v-213zM313 557v-557h-170v1073h156v-194q74 121 142 173q69 52 151 52q23 0 65 -6v-174q-193 -2 -269 -90t-75 -277z" />
    <glyph glyph-name="Sdotbelow" unicode="&#x1e62;" horiz-adv-x="1366" 
d="M791 -375h-213v213h213v-213zM1272 410q0 -205 -153 -326t-428 -121t-434 133t-159 389h181q-1 -164 107 -259t314 -95q381 0 381 260q0 170 -274 242l-371 98q-293 76 -293 348q-1 205 143 328t395 123t395 -122t145 -341h-181q0 145 -97 224t-261 79t-256 -75t-92 -175
t55 -150t191 -85l374 -101q152 -41 235 -139t83 -235z" />
    <glyph glyph-name="sdotbelow" unicode="&#x1e63;" horiz-adv-x="1024" 
d="M618 -375h-212v213h212v-213zM940 301q0 -154 -120 -243t-326 -89t-313 87q-105 87 -111 272h180q16 -117 78 -159t179 -42q119 0 187 43q68 42 68 108t-38 97t-128 53l-160 39q-190 45 -265 114t-75 207t113 227t299 89t286 -86t103 -244h-180q-6 172 -215 172
q-104 0 -166 -44t-62 -110t48 -101q48 -36 151 -60l164 -39q163 -40 233 -106t70 -185z" />
    <glyph glyph-name="Tdotbelow" unicode="&#x1e6c;" horiz-adv-x="1251" 
d="M737 -375h-213v213h213v-213zM1214 1325h-489v-1325h-190v1325h-492v168h1171v-168z" />
    <glyph glyph-name="tdotbelow" unicode="&#x1e6d;" horiz-adv-x="569" 
d="M391 -375h-213v213h213v-213zM360 -14q-80 0 -133 44t-53 126v778h-145v139h145v295h170v-295h176v-139h-176v-703q0 -57 20 -76t72 -19q53 0 84 7v-143q-80 -14 -160 -14z" />
    <glyph glyph-name="Tlinebelow" unicode="&#x1e6e;" horiz-adv-x="1251" 
d="M909 -340h-561v143h561v-143zM1214 1325h-489v-1325h-190v1325h-492v168h1171v-168z" />
    <glyph glyph-name="tlinebelow" unicode="&#x1e6f;" horiz-adv-x="569" 
d="M563 -340h-561v143h561v-143zM360 -14q-80 0 -133 44t-53 126v778h-145v139h145v295h170v-295h176v-139h-176v-703q0 -57 20 -76t72 -19q53 0 84 7v-143q-80 -14 -160 -14z" />
    <glyph glyph-name="Wgrave" unicode="&#x1e80;" horiz-adv-x="1933" 
d="M1040 1604h-147l-367 272h279zM1903 1493l-379 -1493h-209l-344 1227l-334 -1227h-209l-383 1493h213l281 -1212l331 1212h205l340 -1212l275 1212h213z" />
    <glyph glyph-name="wgrave" unicode="&#x1e81;" horiz-adv-x="1478" 
d="M801 1190h-123l-305 303h231zM1450 1073l-315 -1073h-195l-217 842l-207 -842h-192l-312 1073h189l219 -835l205 835h209l210 -835l213 835h193z" />
    <glyph glyph-name="Wacute" unicode="&#x1e82;" horiz-adv-x="1933" 
d="M1407 1876l-367 -272h-147l235 272h279zM1903 1493l-379 -1493h-209l-344 1227l-334 -1227h-209l-383 1493h213l281 -1212l331 1212h205l340 -1212l275 1212h213z" />
    <glyph glyph-name="wacute" unicode="&#x1e83;" horiz-adv-x="1478" 
d="M1106 1493l-305 -303h-123l196 303h232zM1450 1073l-315 -1073h-195l-217 842l-207 -842h-192l-312 1073h189l219 -835l205 835h209l210 -835l213 835h193z" />
    <glyph glyph-name="Wdieresis" unicode="&#x1e84;" horiz-adv-x="1933" 
d="M1227 1636h-187v209h187v-209zM895 1636h-186v209h186v-209zM1903 1493l-379 -1493h-209l-344 1227l-334 -1227h-209l-383 1493h213l281 -1212l331 1212h205l340 -1212l275 1212h213z" />
    <glyph glyph-name="wdieresis" unicode="&#x1e85;" horiz-adv-x="1478" 
d="M997 1237h-186v209h186v-209zM666 1237h-187v209h187v-209zM1450 1073l-315 -1073h-195l-217 842l-207 -842h-192l-312 1073h189l219 -835l205 835h209l210 -835l213 835h193z" />
    <glyph glyph-name="Zdotbelow" unicode="&#x1e92;" horiz-adv-x="1251" 
d="M760 -375h-213v213h213v-213zM1194 0h-1137v168l897 1157h-839v168h1075v-172l-893 -1153h897v-168z" />
    <glyph glyph-name="zdotbelow" unicode="&#x1e93;" horiz-adv-x="1024" 
d="M618 -375h-212v213h212v-213zM936 0h-873v154l642 770h-599v149h801v-151l-637 -772h666v-150z" />
    <glyph glyph-name="tdieresis" unicode="&#x1e97;" horiz-adv-x="569" 
d="M518 1511h-186v209h186v-209zM186 1511h-186v209h186v-209zM360 -14q-80 0 -133 44t-53 126v778h-145v139h145v295h170v-295h176v-139h-176v-703q0 -57 20 -76t72 -19q53 0 84 7v-143q-80 -14 -160 -14z" />
    <glyph glyph-name="Adotbelow" unicode="&#x1ea0;" horiz-adv-x="1366" 
d="M791 -375h-213v213h213v-213zM918 608l-230 680l-246 -680h476zM1337 0h-213l-153 449h-576l-157 -449h-203l532 1493h246z" />
    <glyph glyph-name="adotbelow" unicode="&#x1ea1;" 
d="M670 -375h-213v213h213v-213zM797 371v159q-68 -31 -241 -55t-232 -66t-60 -126q0 -164 211 -164q129 1 225 71t97 181zM970 -14q-54 0 -104 40q-49 40 -63 101q-147 -158 -365 -158q-164 0 -258 82t-94 228q0 249 296 309q58 12 197 30t179 44q39 27 39 79v45
q-1 78 -63 119t-179 41t-178 -46t-72 -144h-172q14 348 430 348q199 0 301 -75t103 -218v-598q0 -84 92 -84q18 0 37 4v-129q-72 -18 -126 -18z" />
    <glyph glyph-name="Ahookabove" unicode="&#x1ea2;" horiz-adv-x="1366" 
d="M795 1863q-1 66 -117 66q-58 0 -80 -35v2q-14 -23 -14 -90h-125q0 236 237 236q104 0 165 -48t61 -128q0 -49 -22 -83t-75 -74t-65 -53t-12 -30v-61h-127v67q0 47 22 78q23 31 86 72v-2q66 51 66 83zM918 608l-230 680l-246 -680h476zM1337 0h-213l-153 449h-576
l-157 -449h-203l532 1493h246z" />
    <glyph glyph-name="ahookabove" unicode="&#x1ea3;" 
d="M668 1443q0 66 -116 66q-58 0 -81 -34v2q-14 -23 -14 -91h-125q0 236 237 236q104 0 165 -48t61 -128q0 -49 -22 -83t-75 -74t-65 -53t-12 -30v-61h-127v67q0 47 22 78q23 31 86 72v-2q66 51 66 83zM797 371v159q-68 -31 -241 -55t-232 -66t-60 -126q0 -164 211 -164
q129 1 225 71t97 181zM970 -14q-54 0 -104 40q-49 40 -63 101q-147 -158 -365 -158q-164 0 -258 82t-94 228q0 249 296 309q58 12 197 30t179 44q39 27 39 79v45q-1 78 -63 119t-179 41t-178 -46t-72 -144h-172q14 348 430 348q199 0 301 -75t103 -218v-598q0 -84 92 -84
q18 0 37 4v-129q-72 -18 -126 -18z" />
    <glyph glyph-name="Acircumflexacute" unicode="&#x1ea4;" horiz-adv-x="1366" 
d="M1044 1604h-153l-199 176l-194 -176h-158l235 276h234zM1130 2193l-366 -272h-148l236 272h278zM918 608l-230 680l-246 -680h476zM1337 0h-213l-153 449h-576l-157 -449h-203l532 1493h246z" />
    <glyph glyph-name="acircumflexacute" unicode="&#x1ea5;" 
d="M918 1184h-154l-199 176l-194 -176h-158l236 276h233zM1004 1774l-367 -273h-148l236 273h279zM797 371v159q-68 -31 -241 -55t-232 -66t-60 -126q0 -164 211 -164q129 1 225 71t97 181zM970 -14q-54 0 -104 40q-49 40 -63 101q-147 -158 -365 -158q-164 0 -258 82
t-94 228q0 249 296 309q58 12 197 30t179 44q39 27 39 79v45q-1 78 -63 119t-179 41t-178 -46t-72 -144h-172q14 348 430 348q199 0 301 -75t103 -218v-598q0 -84 92 -84q18 0 37 4v-129q-72 -18 -126 -18z" />
    <glyph glyph-name="Acircumflexgrave" unicode="&#x1ea6;" horiz-adv-x="1366" 
d="M1044 1604h-153l-199 176l-194 -176h-158l235 276h234zM764 1921h-148l-366 272h278zM918 608l-230 680l-246 -680h476zM1337 0h-213l-153 449h-576l-157 -449h-203l532 1493h246z" />
    <glyph glyph-name="acircumflexgrave" unicode="&#x1ea7;" 
d="M918 1184h-154l-199 176l-194 -176h-158l236 276h233zM637 1501h-148l-366 273h278zM797 371v159q-68 -31 -241 -55t-232 -66t-60 -126q0 -164 211 -164q129 1 225 71t97 181zM970 -14q-54 0 -104 40q-49 40 -63 101q-147 -158 -365 -158q-164 0 -258 82t-94 228
q0 249 296 309q58 12 197 30t179 44q39 27 39 79v45q-1 78 -63 119t-179 41t-178 -46t-72 -144h-172q14 348 430 348q199 0 301 -75t103 -218v-598q0 -84 92 -84q18 0 37 4v-129q-72 -18 -126 -18z" />
    <glyph glyph-name="Acircumflexhookabove" unicode="&#x1ea8;" horiz-adv-x="1366" 
d="M1044 1604h-153l-199 176l-194 -176h-158l235 276h234zM1044 2193q0 -45 -22 -75t-73 -65q-52 -36 -65 -49t-14 -28v-55h-127v61q0 43 23 70t86 66v-2q66 46 66 74t-29 44t-87 16t-81 -32v2q-14 -20 -14 -80h-125q0 211 237 211q105 0 165 -43t60 -115zM918 608l-230 680
l-246 -680h476zM1337 0h-213l-153 449h-576l-157 -449h-203l532 1493h246z" />
    <glyph glyph-name="acircumflexhookabove" unicode="&#x1ea9;" 
d="M918 1184h-154l-199 176l-194 -176h-158l236 276h233zM791 1770q-1 61 -117 61q-58 0 -80 -33v2q-14 -20 -14 -80h-125q0 211 237 211q104 -1 165 -43t61 -114q0 -45 -22 -75t-74 -66t-65 -48t-14 -29v-55h-127v62q0 43 23 69t86 66v-2q66 45 66 74zM797 371v159
q-68 -31 -241 -55t-232 -66t-60 -126q0 -164 211 -164q129 1 225 71t97 181zM970 -14q-54 0 -104 40q-49 40 -63 101q-147 -158 -365 -158q-164 0 -258 82t-94 228q0 249 296 309q58 12 197 30t179 44q39 27 39 79v45q-1 78 -63 119t-179 41t-178 -46t-72 -144h-172
q14 348 430 348q199 0 301 -75t103 -218v-598q0 -84 92 -84q18 0 37 4v-129q-72 -18 -126 -18z" />
    <glyph glyph-name="Acircumflextilde" unicode="&#x1eaa;" horiz-adv-x="1366" 
d="M1044 1604h-153l-199 176l-194 -176h-158l235 276h234zM526 2154q58 0 148 -38t135 -37q51 0 76 75h119q-31 -213 -183 -212q-43 0 -145 39t-129 38q-47 0 -68 -75h-119q16 100 62 155t104 55zM918 608l-230 680l-246 -680h476zM1337 0h-213l-153 449h-576l-157 -449
h-203l532 1493h246z" />
    <glyph glyph-name="acircumflextilde" unicode="&#x1eab;" 
d="M918 1184h-154l-199 176l-194 -176h-158l236 276h233zM694 1522q-42 0 -144 39t-130 38q-47 0 -68 -75h-119q17 100 63 155t104 55t147 -37q90 -38 135 -38q51 0 76 76h119q-31 -213 -183 -213zM797 371v159q-68 -31 -241 -55t-232 -66t-60 -126q0 -164 211 -164
q129 1 225 71t97 181zM970 -14q-54 0 -104 40q-49 40 -63 101q-147 -158 -365 -158q-164 0 -258 82t-94 228q0 249 296 309q58 12 197 30t179 44q39 27 39 79v45q-1 78 -63 119t-179 41t-178 -46t-72 -144h-172q14 348 430 348q199 0 301 -75t103 -218v-598q0 -84 92 -84
q18 0 37 4v-129q-72 -18 -126 -18z" />
    <glyph glyph-name="Acircumflexdotbelow" unicode="&#x1eac;" horiz-adv-x="1366" 
d="M791 -375h-213v213h213v-213zM1042 1604h-153l-199 176l-194 -176h-158l235 276h234zM918 608l-230 680l-246 -680h476zM1337 0h-213l-153 449h-576l-157 -449h-203l532 1493h246z" />
    <glyph glyph-name="acircumflexdotbelow" unicode="&#x1ead;" 
d="M670 -375h-213v213h213v-213zM856 1188h-129l-166 196l-162 -196h-131l197 307h194zM797 371v159q-68 -31 -241 -55t-232 -66t-60 -126q0 -164 211 -164q129 1 225 71t97 181zM970 -14q-54 0 -104 40q-49 40 -63 101q-147 -158 -365 -158q-164 0 -258 82t-94 228
q0 249 296 309q58 12 197 30t179 44q39 27 39 79v45q-1 78 -63 119t-179 41t-178 -46t-72 -144h-172q14 348 430 348q199 0 301 -75t103 -218v-598q0 -84 92 -84q18 0 37 4v-129q-72 -18 -126 -18z" />
    <glyph glyph-name="Abreveacute" unicode="&#x1eae;" horiz-adv-x="1366" 
d="M688 1616q-166 0 -265 61t-101 189h145q8 -59 61 -81t164 -22q213 0 223 103h146q-25 -250 -373 -250zM1130 2208l-366 -273h-148l236 273h278zM918 608l-230 680l-246 -680h476zM1337 0h-213l-153 449h-576l-157 -449h-203l532 1493h246z" />
    <glyph glyph-name="abreveacute" unicode="&#x1eaf;" 
d="M561 1196q-166 0 -265 61t-101 189h145q8 -59 61 -81t164 -22q213 0 223 103h146q-25 -250 -373 -250zM1004 1788l-367 -272h-148l236 272h279zM797 371v159q-68 -31 -241 -55t-232 -66t-60 -126q0 -164 211 -164q129 1 225 71t97 181zM970 -14q-54 0 -104 40
q-49 40 -63 101q-147 -158 -365 -158q-164 0 -258 82t-94 228q0 249 296 309q58 12 197 30t179 44q39 27 39 79v45q-1 78 -63 119t-179 41t-178 -46t-72 -144h-172q14 348 430 348q199 0 301 -75t103 -218v-598q0 -84 92 -84q18 0 37 4v-129q-72 -18 -126 -18z" />
    <glyph glyph-name="Abrevegrave" unicode="&#x1eb0;" horiz-adv-x="1366" 
d="M688 1616q-166 0 -265 61t-101 189h145q8 -59 61 -81t164 -22q213 0 223 103h146q-25 -250 -373 -250zM764 1935h-148l-366 273h278zM918 608l-230 680l-246 -680h476zM1337 0h-213l-153 449h-576l-157 -449h-203l532 1493h246z" />
    <glyph glyph-name="abrevegrave" unicode="&#x1eb1;" 
d="M561 1196q-166 0 -265 61t-101 189h145q8 -59 61 -81t164 -22q213 0 223 103h146q-25 -250 -373 -250zM637 1516h-148l-366 272h278zM797 371v159q-68 -31 -241 -55t-232 -66t-60 -126q0 -164 211 -164q129 1 225 71t97 181zM970 -14q-54 0 -104 40q-49 40 -63 101
q-147 -158 -365 -158q-164 0 -258 82t-94 228q0 249 296 309q58 12 197 30t179 44q39 27 39 79v45q-1 78 -63 119t-179 41t-178 -46t-72 -144h-172q14 348 430 348q199 0 301 -75t103 -218v-598q0 -84 92 -84q18 0 37 4v-129q-72 -18 -126 -18z" />
    <glyph glyph-name="Abrevehookabove" unicode="&#x1eb2;" horiz-adv-x="1366" 
d="M688 1616q-166 0 -265 61t-101 189h145q8 -59 61 -81t164 -22q213 0 223 103h146q-25 -250 -373 -250zM797 2114q-1 61 -117 61q-58 0 -80 -33v2q-14 -20 -14 -80h-125q0 211 237 211q104 -1 165 -43t61 -114q0 -45 -22 -75t-74 -66t-65 -48t-13 -28v-56h-127v62
q1 43 23 69t85 66v-2q66 45 66 74zM918 608l-230 680l-246 -680h476zM1337 0h-213l-153 449h-576l-157 -449h-203l532 1493h246z" />
    <glyph glyph-name="abrevehookabove" unicode="&#x1eb3;" 
d="M561 1196q-166 0 -265 61t-101 189h145q8 -59 61 -81t164 -22q213 0 223 103h146q-25 -250 -373 -250zM670 1694q0 61 -116 61q-58 0 -81 -33v2q-14 -20 -14 -79h-125q0 211 237 210q104 -1 165 -43t61 -114q0 -45 -22 -75t-75 -66t-65 -49t-12 -27v-56h-127v62
q0 43 22 69t86 66v-2q66 45 66 74zM797 371v159q-68 -31 -241 -55t-232 -66t-60 -126q0 -164 211 -164q129 1 225 71t97 181zM970 -14q-54 0 -104 40q-49 40 -63 101q-147 -158 -365 -158q-164 0 -258 82t-94 228q0 249 296 309q58 12 197 30t179 44q39 27 39 79v45
q-1 78 -63 119t-179 41t-178 -46t-72 -144h-172q14 348 430 348q199 0 301 -75t103 -218v-598q0 -84 92 -84q18 0 37 4v-129q-72 -18 -126 -18z" />
    <glyph glyph-name="Abrevetilde" unicode="&#x1eb4;" horiz-adv-x="1366" 
d="M688 1616q-166 0 -265 61t-101 189h145q8 -59 61 -81t164 -22q213 0 223 103h146q-25 -250 -373 -250zM821 1958q-43 0 -145 39t-129 39q-47 0 -68 -76h-119q16 100 62 156t104 55q58 0 148 -38t135 -38q51 0 76 76h119q-31 -213 -183 -213zM918 608l-230 680l-246 -680
h476zM1337 0h-213l-153 449h-576l-157 -449h-203l532 1493h246z" />
    <glyph glyph-name="abrevetilde" unicode="&#x1eb5;" 
d="M561 1196q-166 0 -265 61t-101 189h145q8 -59 61 -81t164 -22q213 0 223 103h146q-25 -250 -373 -250zM694 1538q-42 0 -144 39t-130 39q-47 0 -68 -76h-119q17 100 63 156t104 55q58 0 147 -38q90 -38 135 -38q51 0 76 76h119q-31 -213 -183 -213zM797 371v159
q-68 -31 -241 -55t-232 -66t-60 -126q0 -164 211 -164q129 1 225 71t97 181zM970 -14q-54 0 -104 40q-49 40 -63 101q-147 -158 -365 -158q-164 0 -258 82t-94 228q0 249 296 309q58 12 197 30t179 44q39 27 39 79v45q-1 78 -63 119t-179 41t-178 -46t-72 -144h-172
q14 348 430 348q199 0 301 -75t103 -218v-598q0 -84 92 -84q18 0 37 4v-129q-72 -18 -126 -18z" />
    <glyph glyph-name="Abrevedotbelow" unicode="&#x1eb6;" horiz-adv-x="1366" 
d="M791 -375h-213v213h213v-213zM686 1616q-166 0 -265 61t-102 189h146q8 -59 61 -81t164 -22q213 0 223 103h146q-25 -250 -373 -250zM918 608l-230 680l-246 -680h476zM1337 0h-213l-153 449h-576l-157 -449h-203l532 1493h246z" />
    <glyph glyph-name="abrevedotbelow" unicode="&#x1eb7;" 
d="M670 -375h-213v213h213v-213zM868 1481q0 -117 -92 -197t-219 -80t-219 80t-92 197h110q25 -61 80 -99t121 -36q66 0 121 36t80 99h110zM797 371v159q-68 -31 -241 -55t-232 -66t-60 -126q0 -164 211 -164q129 1 225 71t97 181zM970 -14q-54 0 -104 40q-49 40 -63 101
q-147 -158 -365 -158q-164 0 -258 82t-94 228q0 249 296 309q58 12 197 30t179 44q39 27 39 79v45q-1 78 -63 119t-179 41t-178 -46t-72 -144h-172q14 348 430 348q199 0 301 -75t103 -218v-598q0 -84 92 -84q18 0 37 4v-129q-72 -18 -126 -18z" />
    <glyph glyph-name="Edotbelow" unicode="&#x1eb8;" horiz-adv-x="1366" 
d="M791 -375h-213v213h213v-213zM1255 0h-1071v1493h1035v-168h-844v-477h813v-168h-813v-512h880v-168z" />
    <glyph glyph-name="edotbelow" unicode="&#x1eb9;" 
d="M680 -375h-213v213h213v-213zM569 946q-127 0 -211 -88t-94 -231h602l2 12q0 127 -86 217t-213 90zM1051 487h-791q2 -178 89 -269t226 -91q215 0 281 199h172q-33 -164 -155 -260t-304 -97q-227 1 -357 149t-130 412t133 419t358 155q152 0 268 -76t163 -198t47 -343z
" />
    <glyph glyph-name="Ehookabove" unicode="&#x1eba;" horiz-adv-x="1366" 
d="M807 1863q-1 66 -117 66q-58 0 -80 -35v2q-14 -23 -14 -90h-125q0 236 238 236q105 0 165 -48t60 -128q0 -49 -22 -83t-75 -74t-65 -53t-12 -30v-61h-127v67q0 47 22 78q23 31 86 72v-2q66 51 66 83zM1255 0h-1071v1493h1035v-168h-844v-477h813v-168h-813v-512h880v-168
z" />
    <glyph glyph-name="ehookabove" unicode="&#x1ebb;" 
d="M678 1443q0 66 -116 66q-58 0 -81 -34v2q-14 -23 -14 -91h-125q0 236 238 236q104 0 164 -48t61 -128q0 -49 -22 -83t-75 -74t-65 -53t-12 -30v-61h-127v67q0 47 22 78q23 31 86 72v-2q66 51 66 83zM569 946q-127 0 -211 -88t-94 -231h602l2 12q0 127 -86 217t-213 90z
M1051 487h-791q2 -178 89 -269t226 -91q215 0 281 199h172q-33 -164 -155 -260t-304 -97q-227 1 -357 149t-130 412t133 419t358 155q152 0 268 -76t163 -198t47 -343z" />
    <glyph glyph-name="Etilde" unicode="&#x1ebc;" horiz-adv-x="1366" 
d="M834 1634q-43 0 -145 40t-130 38q-47 0 -67 -76h-119q16 100 62 156q45 56 103 55q58 0 148 -38t135 -37q51 0 76 75h119q-31 -213 -182 -213zM1255 0h-1071v1493h1035v-168h-844v-477h813v-168h-813v-512h880v-168z" />
    <glyph glyph-name="etilde" unicode="&#x1ebd;" 
d="M702 1235q-42 0 -144 39t-130 39q-47 0 -68 -76h-118q16 99 62 155t104 56t147 -38q90 -38 135 -38q51 0 76 76h119q-31 -213 -183 -213zM569 946q-127 0 -211 -88t-94 -231h602l2 12q0 127 -86 217t-213 90zM1051 487h-791q2 -178 89 -269t226 -91q215 0 281 199h172
q-33 -164 -155 -260t-304 -97q-227 1 -357 149t-130 412t133 419t358 155q152 0 268 -76t163 -198t47 -343z" />
    <glyph glyph-name="Ecircumflexacute" unicode="&#x1ebe;" horiz-adv-x="1366" 
d="M1057 1604h-154l-198 176l-195 -176h-158l236 276h233zM1143 2193l-367 -272h-147l235 272h279zM1255 0h-1071v1493h1035v-168h-844v-477h813v-168h-813v-512h880v-168z" />
    <glyph glyph-name="ecircumflexacute" unicode="&#x1ebf;" 
d="M928 1184h-154l-199 176l-194 -176h-158l236 276h233zM1014 1774l-367 -273h-147l235 273h279zM569 946q-127 0 -211 -88t-94 -231h602l2 12q0 127 -86 217t-213 90zM1051 487h-791q2 -178 89 -269t226 -91q215 0 281 199h172q-33 -164 -155 -260t-304 -97
q-227 1 -357 149t-130 412t133 419t358 155q152 0 268 -76t163 -198t47 -343z" />
    <glyph glyph-name="Ecircumflexgrave" unicode="&#x1ec0;" horiz-adv-x="1366" 
d="M1057 1604h-154l-198 176l-195 -176h-158l236 276h233zM776 1921h-147l-367 272h279zM1255 0h-1071v1493h1035v-168h-844v-477h813v-168h-813v-512h880v-168z" />
    <glyph glyph-name="ecircumflexgrave" unicode="&#x1ec1;" 
d="M928 1184h-154l-199 176l-194 -176h-158l236 276h233zM647 1501h-147l-367 273h279zM569 946q-127 0 -211 -88t-94 -231h602l2 12q0 127 -86 217t-213 90zM1051 487h-791q2 -178 89 -269t226 -91q215 0 281 199h172q-33 -164 -155 -260t-304 -97q-227 1 -357 149
t-130 412t133 419t358 155q152 0 268 -76t163 -198t47 -343z" />
    <glyph glyph-name="Ecircumflexhookabove" unicode="&#x1ec2;" horiz-adv-x="1366" 
d="M1057 1604h-154l-198 176l-195 -176h-158l236 276h233zM1057 2193q0 -45 -22 -75t-74 -65q-52 -36 -65 -49t-13 -28v-55h-127v61q0 43 22 70q23 27 86 66v-2q66 46 66 74t-29 44t-87 16t-81 -32v2q-14 -20 -14 -80h-125q0 211 237 211q104 0 165 -43t61 -115zM1255 0
h-1071v1493h1035v-168h-844v-477h813v-168h-813v-512h880v-168z" />
    <glyph glyph-name="ecircumflexhookabove" unicode="&#x1ec3;" 
d="M928 1184h-154l-199 176l-194 -176h-158l236 276h233zM801 1770q-1 61 -117 61q-58 0 -80 -33v2q-14 -20 -14 -80h-125q0 211 237 211q104 -1 165 -43t61 -114q0 -45 -22 -75t-74 -66t-65 -48t-13 -29v-55h-127v62q1 43 23 69t85 66v-2q66 45 66 74zM569 946
q-127 0 -211 -88t-94 -231h602l2 12q0 127 -86 217t-213 90zM1051 487h-791q2 -178 89 -269t226 -91q215 0 281 199h172q-33 -164 -155 -260t-304 -97q-227 1 -357 149t-130 412t133 419t358 155q152 0 268 -76t163 -198t47 -343z" />
    <glyph glyph-name="Ecircumflextilde" unicode="&#x1ec4;" horiz-adv-x="1366" 
d="M1057 1604h-154l-198 176l-195 -176h-158l236 276h233zM538 2154q58 0 148 -38t135 -37q51 0 76 75h119q-31 -213 -182 -212q-43 0 -145 39t-130 38q-47 0 -67 -75h-119q16 100 62 155q45 55 103 55zM1255 0h-1071v1493h1035v-168h-844v-477h813v-168h-813v-512h880v-168
z" />
    <glyph glyph-name="ecircumflextilde" unicode="&#x1ec5;" 
d="M928 1184h-154l-199 176l-194 -176h-158l236 276h233zM705 1522q-43 0 -145 39t-130 38q-47 0 -68 -75h-118q16 100 62 155t104 55t147 -37q90 -38 135 -38q51 0 76 76h119q-31 -213 -182 -213zM569 946q-127 0 -211 -88t-94 -231h602l2 12q0 127 -86 217t-213 90z
M1051 487h-791q2 -178 89 -269t226 -91q215 0 281 199h172q-33 -164 -155 -260t-304 -97q-227 1 -357 149t-130 412t133 419t358 155q152 0 268 -76t163 -198t47 -343z" />
    <glyph glyph-name="Ecircumflexdotbelow" unicode="&#x1ec6;" horiz-adv-x="1366" 
d="M791 -375h-213v213h213v-213zM1055 1604h-154l-199 176l-194 -176h-158l236 276h233zM1255 0h-1071v1493h1035v-168h-844v-477h813v-168h-813v-512h880v-168z" />
    <glyph glyph-name="ecircumflexdotbelow" unicode="&#x1ec7;" 
d="M680 -375h-213v213h213v-213zM866 1188h-129l-166 196l-161 -196h-131l196 307h195zM569 946q-127 0 -211 -88t-94 -231h602l2 12q0 127 -86 217t-213 90zM1051 487h-791q2 -178 89 -269t226 -91q215 0 281 199h172q-33 -164 -155 -260t-304 -97q-227 1 -357 149
t-130 412t133 419t358 155q152 0 268 -76t163 -198t47 -343z" />
    <glyph glyph-name="Ihookabove" unicode="&#x1ec8;" horiz-adv-x="569" 
d="M406 1863q0 66 -116 66q-58 0 -81 -35v2q-14 -23 -14 -90h-125q0 236 237 236q105 0 165 -48t60 -128q0 -49 -22 -83t-74 -74q-53 -40 -65 -53t-13 -30v-61h-127v67q0 47 23 78t86 72v-2q66 51 66 83zM395 0h-190v1493h190v-1493z" />
    <glyph glyph-name="ihookabove" unicode="&#x1ec9;" horiz-adv-x="569" 
d="M518 1446q0 -49 -22 -83t-74 -74q-54 -40 -66 -53t-12 -30v-61h-127v67q0 47 23 78t86 72v-2q66 51 66 83t-30 49q-29 17 -87 17t-80 -34v2q-14 -23 -15 -91h-125q0 236 238 236q105 0 165 -48t60 -128zM371 0h-170v1073h170v-1073z" />
    <glyph glyph-name="Idotbelow" unicode="&#x1eca;" horiz-adv-x="569" 
d="M408 -375h-213v213h213v-213zM395 0h-190v1493h190v-1493z" />
    <glyph glyph-name="idotbelow" unicode="&#x1ecb;" horiz-adv-x="454" 
d="M334 -375h-213v213h213v-213zM336 1235h-213v213h213v-213zM313 0h-170v1073h170v-1073z" />
    <glyph glyph-name="Odotbelow" unicode="&#x1ecc;" horiz-adv-x="1593" 
d="M903 -375h-213v213h213v-213zM1329 736q0 276 -145 451t-384 175t-385 -175q-147 -175 -147 -451t146 -440q146 -165 384 -165q239 0 385 164q146 165 146 441zM802 1530q324 0 520 -222q198 -222 198 -571q0 -348 -198 -561t-522 -213t-524 212q-198 212 -198 562
q0 349 200 571t524 222z" />
    <glyph glyph-name="odotbelow" unicode="&#x1ecd;" 
d="M676 -375h-213v213h213v-213zM866 536q0 194 -81 302t-225 108t-226 -108t-82 -302t82 -302t224 -108t225 108t83 302zM74 536q0 270 128 418q128 150 358 150t357 -150t127 -420t-129 -417t-357 -147t-356 148t-128 418z" />
    <glyph glyph-name="Ohookabove" unicode="&#x1ece;" horiz-adv-x="1593" 
d="M1028 1866q0 -49 -22 -83t-74 -74q-54 -40 -66 -53t-12 -30v-61h-127v67q0 47 23 78t86 72v-2q66 51 66 83t-30 49q-29 17 -87 17t-80 -35v2q-14 -23 -15 -90h-125q0 236 238 236q105 0 165 -48t60 -128zM1329 736q0 276 -145 451t-384 175t-385 -175
q-147 -175 -147 -451t146 -440q146 -165 384 -165q239 0 385 164q146 165 146 441zM802 1530q324 0 520 -222q198 -222 198 -571q0 -348 -198 -561t-522 -213t-524 212q-198 212 -198 562q0 349 200 571t524 222z" />
    <glyph glyph-name="ohookabove" unicode="&#x1ecf;" 
d="M674 1443q0 66 -116 66q-58 0 -81 -34v2q-14 -23 -14 -91h-125q0 236 237 236q104 0 165 -48t61 -128q0 -49 -22 -83t-75 -74t-65 -53t-12 -30v-61h-127v67q0 47 22 78q23 31 86 72v-2q66 51 66 83zM866 536q0 194 -81 302t-225 108t-226 -108t-82 -302t82 -302t224 -108
t225 108t83 302zM74 536q0 270 128 418q128 150 358 150t357 -150t127 -420t-129 -417t-357 -147t-356 148t-128 418z" />
    <glyph glyph-name="Ocircumflexacute" unicode="&#x1ed0;" horiz-adv-x="1593" 
d="M1151 1604h-154l-198 176l-195 -176h-158l236 276h233zM1237 2193l-367 -272h-147l235 272h279zM1329 736q0 276 -145 451t-384 175t-385 -175q-147 -175 -147 -451t146 -440q146 -165 384 -165q239 0 385 164q146 165 146 441zM802 1530q324 0 520 -222
q198 -222 198 -571q0 -348 -198 -561t-522 -213t-524 212q-198 212 -198 562q0 349 200 571t524 222z" />
    <glyph glyph-name="ocircumflexacute" unicode="&#x1ed1;" 
d="M924 1184h-154l-199 176l-194 -176h-158l236 276h233zM1010 1774l-367 -273h-147l235 273h279zM866 536q0 194 -81 302t-225 108t-226 -108t-82 -302t82 -302t224 -108t225 108t83 302zM74 536q0 270 128 418q128 150 358 150t357 -150t127 -420t-129 -417t-357 -147
t-356 148t-128 418z" />
    <glyph glyph-name="Ocircumflexgrave" unicode="&#x1ed2;" horiz-adv-x="1593" 
d="M1151 1604h-154l-198 176l-195 -176h-158l236 276h233zM870 1921h-147l-367 272h279zM1329 736q0 276 -145 451t-384 175t-385 -175q-147 -175 -147 -451t146 -440q146 -165 384 -165q239 0 385 164q146 165 146 441zM802 1530q324 0 520 -222q198 -222 198 -571
q0 -348 -198 -561t-522 -213t-524 212q-198 212 -198 562q0 349 200 571t524 222z" />
    <glyph glyph-name="ocircumflexgrave" unicode="&#x1ed3;" 
d="M924 1184h-154l-199 176l-194 -176h-158l236 276h233zM643 1501h-147l-367 273h279zM866 536q0 194 -81 302t-225 108t-226 -108t-82 -302t82 -302t224 -108t225 108t83 302zM74 536q0 270 128 418q128 150 358 150t357 -150t127 -420t-129 -417t-357 -147t-356 148
t-128 418z" />
    <glyph glyph-name="Ocircumflexhookabove" unicode="&#x1ed4;" horiz-adv-x="1593" 
d="M1151 1604h-154l-198 176l-195 -176h-158l236 276h233zM1151 2193q0 -45 -22 -75q-21 -30 -73 -65q-52 -36 -66 -49t-13 -28v-55h-127v61q0 43 22 70q23 27 86 66v-2q66 46 66 74t-29 44t-87 16t-81 -32v2q-14 -20 -14 -80h-125q0 211 238 211q104 0 164 -43t61 -115z
M1329 736q0 276 -145 451t-384 175t-385 -175q-147 -175 -147 -451t146 -440q146 -165 384 -165q239 0 385 164q146 165 146 441zM802 1530q324 0 520 -222q198 -222 198 -571q0 -348 -198 -561t-522 -213t-524 212q-198 212 -198 562q0 349 200 571t524 222z" />
    <glyph glyph-name="ocircumflexhookabove" unicode="&#x1ed5;" 
d="M924 1184h-154l-199 176l-194 -176h-158l236 276h233zM797 1770q-1 61 -117 61q-58 0 -80 -33v2q-14 -20 -14 -80h-125q0 211 237 211q104 -1 165 -43t61 -114q0 -45 -22 -75t-74 -66t-65 -48t-13 -29v-55h-127v62q1 43 23 69t85 66v-2q66 45 66 74zM866 536
q0 194 -81 302t-225 108t-226 -108t-82 -302t82 -302t224 -108t225 108t83 302zM74 536q0 270 128 418q128 150 358 150t357 -150t127 -420t-129 -417t-357 -147t-356 148t-128 418z" />
    <glyph glyph-name="Ocircumflextilde" unicode="&#x1ed6;" horiz-adv-x="1593" 
d="M1151 1604h-154l-198 176l-195 -176h-158l236 276h233zM632 2154q58 0 148 -38t135 -37q51 0 76 75h119q-31 -213 -182 -212q-42 0 -144 39t-131 38q-47 0 -67 -75h-119q16 100 62 155q45 55 103 55zM1329 736q0 276 -145 451t-384 175t-385 -175q-147 -175 -147 -451
t146 -440q146 -165 384 -165q239 0 385 164q146 165 146 441zM802 1530q324 0 520 -222q198 -222 198 -571q0 -348 -198 -561t-522 -213t-524 212q-198 212 -198 562q0 349 200 571t524 222z" />
    <glyph glyph-name="ocircumflextilde" unicode="&#x1ed7;" 
d="M924 1184h-154l-199 176l-194 -176h-158l236 276h233zM700 1522q-42 0 -144 39t-130 38q-47 0 -68 -75h-118q16 100 62 155t104 55t147 -37q90 -38 135 -38q51 0 76 76h119q-31 -213 -183 -213zM866 536q0 194 -81 302t-225 108t-226 -108t-82 -302t82 -302t224 -108
t225 108t83 302zM74 536q0 270 128 418q128 150 358 150t357 -150t127 -420t-129 -417t-357 -147t-356 148t-128 418z" />
    <glyph glyph-name="Ocircumflexdotbelow" unicode="&#x1ed8;" horiz-adv-x="1593" 
d="M903 -375h-213v213h213v-213zM1149 1604h-154l-198 176l-195 -176h-158l236 276h233zM1329 736q0 276 -145 451t-384 175t-385 -175q-147 -175 -147 -451t146 -440q146 -165 384 -165q239 0 385 164q146 165 146 441zM802 1530q324 0 520 -222q198 -222 198 -571
q0 -348 -198 -561t-522 -213t-524 212q-198 212 -198 562q0 349 200 571t524 222z" />
    <glyph glyph-name="ocircumflexdotbelow" unicode="&#x1ed9;" 
d="M676 -375h-213v213h213v-213zM862 1188h-129l-166 196l-161 -196h-132l197 307h195zM866 536q0 194 -81 302t-225 108t-226 -108t-82 -302t82 -302t224 -108t225 108t83 302zM74 536q0 270 128 418q128 150 358 150t357 -150t127 -420t-129 -417t-357 -147t-356 148
t-128 418z" />
    <glyph glyph-name="Ohornacute" unicode="&#x1eda;" horiz-adv-x="1593" 
d="M1239 1876l-367 -272h-147l236 272h278zM1329 742q0 276 -144 442t-385 166t-386 -166q-146 -166 -146 -440t146 -441q146 -166 384 -166q239 0 385 164q146 165 146 441zM1520 731q0 -182 -69 -342t-189 -262q-186 -158 -463 -158q-324 0 -523 212q-198 212 -198 561
t198 563q199 213 527 213t522 -222q92 76 92 197h-98v213h190v-207q0 -174 -131 -270q142 -205 142 -498z" />
    <glyph glyph-name="ohornacute" unicode="&#x1edb;" horiz-adv-x="1169" 
d="M926 1493l-305 -303h-123l196 303h232zM866 536q0 194 -81 302t-225 108t-226 -108t-82 -302t82 -302t224 -108t225 108t83 302zM1145 1079q0 -182 -146 -278q45 -125 45 -273q0 -264 -129 -411t-357 -147t-356 148t-128 418t128 418q128 150 355 150q281 0 408 -225
q88 76 88 194h-99v213h191v-207z" />
    <glyph glyph-name="Ohorngrave" unicode="&#x1edc;" horiz-adv-x="1593" 
d="M872 1604h-147l-367 272h279zM1329 742q0 276 -144 442t-385 166t-386 -166q-146 -166 -146 -440t146 -441q146 -166 384 -166q239 0 385 164q146 165 146 441zM1520 731q0 -182 -69 -342t-189 -262q-186 -158 -463 -158q-324 0 -523 212q-198 212 -198 561t198 563
q199 213 527 213t522 -222q92 76 92 197h-98v213h190v-207q0 -174 -131 -270q142 -205 142 -498z" />
    <glyph glyph-name="ohorngrave" unicode="&#x1edd;" horiz-adv-x="1169" 
d="M621 1190h-123l-305 303h231zM866 536q0 194 -81 302t-225 108t-226 -108t-82 -302t82 -302t224 -108t225 108t83 302zM1145 1079q0 -182 -146 -278q45 -125 45 -273q0 -264 -129 -411t-357 -147t-356 148t-128 418t128 418q128 150 355 150q281 0 408 -225q88 76 88 194
h-99v213h191v-207z" />
    <glyph glyph-name="Ohornhookabove" unicode="&#x1ede;" horiz-adv-x="1593" 
d="M1030 1866q0 -49 -22 -83t-74 -74q-54 -40 -66 -53t-12 -30v-61h-127v67q0 47 23 78t86 72v-2q66 51 66 83t-30 49q-29 17 -87 17t-80 -35v2q-14 -23 -15 -90h-125q0 236 238 236q105 0 165 -48t60 -128zM1329 742q0 276 -144 442t-385 166t-386 -166
q-146 -166 -146 -440t146 -441q146 -166 384 -166q239 0 385 164q146 165 146 441zM1520 731q0 -182 -69 -342t-189 -262q-186 -158 -463 -158q-324 0 -523 212q-198 212 -198 561t198 563q199 213 527 213t522 -222q92 76 92 197h-98v213h190v-207q0 -174 -131 -270
q142 -205 142 -498z" />
    <glyph glyph-name="ohornhookabove" unicode="&#x1edf;" horiz-adv-x="1169" 
d="M664 1443q0 66 -116 66q-58 0 -81 -34v2q-14 -23 -14 -91h-125q0 236 237 236q104 0 165 -48t61 -128q0 -49 -22 -83t-75 -74t-65 -53t-13 -30v-61h-127v67q0 47 23 78t86 72v-2q66 51 66 83zM866 536q0 194 -81 302t-225 108t-226 -108t-82 -302t82 -302t224 -108
t225 108t83 302zM1145 1079q0 -182 -146 -278q45 -125 45 -273q0 -264 -129 -411t-357 -147t-356 148t-128 418t128 418q128 150 355 150q281 0 408 -225q88 76 88 194h-99v213h191v-207z" />
    </font>
</defs>
</svg>
