<?xml version="1.0" standalone="no"?>
<!DOCTYPE svg PUBLIC "-//W3C//DTD SVG 1.1//EN" "http://www.w3.org/Graphics/SVG/1.1/DTD/svg11.dtd" >
<svg xmlns="http://www.w3.org/2000/svg">
<metadata>
Created by FontPrep 20130207 at Sun Oct  4 20:05:29 2015
 By Bez Hermoso
Copyright (c) 2010, Barry Schwartz (chemoelectric@chemoelectric.org)

</metadata>
<defs>
<font id="3282f3f59ded0107dc9748ab91107f87" horiz-adv-x='1024' >
  <font-face 
    font-family="SortsMillGoudy-Regular"
    font-weight="400"
    font-stretch="normal"
    units-per-em="2048"
    panose-1="2 0 5 3 0 0 0 0 0 0"
    ascent="1638"
    descent="-410"
    x-height="866"
    cap-height="1454"
    bbox="-752 -897.111 2265.01 1966"
    underline-thickness="100"
    underline-position="-202"
    unicode-range="U+0020-FEFF"
  />
<missing-glyph horiz-adv-x="811" 
d="M494 122q0 21 -50 60l-20 17l-14 20q-41 51 -60 51q-18 0 -44 -30t-34 -35q-74 -63 -74 -81t32 -44q30 -25 42 -39t38 -37t43 -22t39 32t30 38t29 22q43 27 43 48zM381 1378q-96 0 -162 -45t-65 -80q0 -18 18 -18q2 0 39 26q37 25 83 25t112 -42t66 -112t-95 -284
q-94 -214 -94 -274t17 -117t48 -58q17 1 17 21l-11 94q0 72 45 162t99 160q143 189 143 304q0 116 -82 177t-178 61zM47 -131v1585h684v-1585h-684z" />
    <glyph glyph-name="f_f" unicode="ff" horiz-adv-x="1243" 
d="M764 934q0 62 19 142q19 81 40 126q20 45 21 55q0 29 -73 77t-124 48q-98 0 -190 -120t-92 -375q0 -17 4 -23t18 -6l338 -4q25 0 32 9t7 71zM221 741q0 15 -7 21t-30 6h-84q-41 0 -41 39q-1 31 9 43t59 12l61 -2q25 0 30 6t5 31q0 117 56 242q55 125 151 209
q137 119 299 118q104 0 189 -57q28 -20 30 -20q2 -1 38 35t97 72t129 36q113 0 113 -53q0 -29 -9 -62q-10 -33 -20 -45t-26 -12t-46 24t-94 25q-129 0 -180 -156q-45 -135 -45 -376q0 -23 19 -23h84q94 0 114 20t36 21q16 0 16 -30t-27 -74q-12 -18 -51 -19l-160 -2
q-23 0 -27 -20q-8 -31 -8 -201l-2 -352q0 -53 17 -85q16 -32 36 -41t38 -13l27 -5q9 -2 13 -3t12 -2t19 -7q6 -8 6 -18q0 -25 -25 -25l-190 12q-26 0 -58 -5t-90 -5t-59 25q0 25 55 36q18 6 36 31q18 26 18 54t3 128t3 461q0 23 -10 30t-43 7l-312 -2q-29 0 -28 -20v-240
l-2 -145v-115q0 -82 6 -110t21 -46q14 -18 82 -36t69 -39q0 -19 -29 -19l-205 10q-18 0 -64 -5t-108 -5q-27 0 -26 23q0 18 16 22q20 10 29 10q67 23 67 103l-2 282v301z" />
    <glyph glyph-name="f_i" unicode="fi" horiz-adv-x="1112" 
d="M635 4q0 23 35 35t47 19q12 8 23 52t13 104q1 60 1 208v254q0 42 -22 70t-56 28l-273 6q-33 0 -32 -26l-6 -123q-6 -190 -7 -287l2 -143q0 -82 27 -114t89 -41t63 -38q0 -18 -41 -18l-187 8l-172 -6q-33 0 -33 24t58 33q20 4 38 30q17 26 17 75l2 280v301q0 23 -4 28
t-24 5l-89 4q-32 0 -38 5t-7 22q0 55 45 55l84 -4q41 0 41 47q1 153 49 273t125 190q160 145 340 145q72 -1 101 -25q28 -24 28 -48t-17 -82q-17 -59 -36 -60q-6 0 -22 20t-31 29q-88 57 -162 57t-124 -54t-83 -188t-32 -267q0 -39 22 -39h268q55 0 132 28t91 28t23 -12
q10 -10 10 -28t-2 -41t-7 -86t-5 -487q0 -96 18 -148t101 -61q39 -4 48 -12t9 -21q1 -22 -27 -22t-81 7t-108 7l-193 -12q-29 0 -29 16z" />
    <glyph glyph-name="f_l" unicode="fl" horiz-adv-x="1110" 
d="M677 -12q-36 0 -36 25q0 19 59 40q23 8 41 41t19 88l4 1075q0 145 -150 146q-147 0 -204 -223q-37 -134 -37 -230t10 -96q139 0 166 3t61 21t48 19q14 0 14 -19q0 -20 -28 -60t-58 -40h-185q-33 0 -32 -28l-4 -428v-58q0 -82 20 -160q8 -33 64 -51q10 -2 48 -9t38 -36
q0 -14 -23 -14l-156 12l-200 -16q-41 0 -41 33q0 18 36 26t44 19q29 33 28 112l-2 262v293q0 43 -39 43l-78 -4q-47 0 -47 25q-1 37 17 49t67 12l60 -2q16 0 22 6t6 23q-1 149 49 273t123 196q156 147 287 147l94 -4q39 1 67 19q27 18 49 18t22 -49q0 -8 -6 -82t-7 -217
v-115l-6 -272v-611q0 -66 27 -100q28 -34 58 -39q30 -4 56 -11q26 -6 27 -24q0 -18 -9 -23t-38 -5l-197 10q-53 0 -93 -5t-55 -5z" />
    <glyph glyph-name="f_f_i" unicode="ffi" horiz-adv-x="1646" 
d="M365 883q1 -21 27 -25t181 -4h172q23 0 23 43q0 182 65 309q22 41 21 49q0 29 -72 78t-116 49q-133 0 -217 -145t-84 -354zM1294 422v203l2 51q0 41 -21 72q-22 31 -56 30l-123 -2l-162 -2q-14 0 -20 -3q-16 -8 -15 -222l4 -313q-1 -92 19 -130t55 -49q14 -4 56 -12
t42 -22q0 -13 -4 -19t-20 -6l-193 8q-26 0 -68 -6t-92 -6t-49 24q0 18 29 24t32 7q3 2 14 7q11 4 15 14q3 10 13 28t10 86v551q0 31 -9 37t-28 6l-330 -4q-31 0 -30 -24v-500q0 -74 9 -104t26 -52q16 -22 78 -40q62 -17 63 -34q-1 -8 -9 -16t-20 -8l-203 12l-141 -16
q-49 0 -49 24t51 37q18 6 35 33q16 27 16 72v583q0 23 -8 29t-31 6h-84q-41 0 -41 31q-1 31 11 40t59 9h59q25 0 32 9t7 32q0 233 155 401t347 168q61 0 115 -22t85 -46q29 -24 31 -24t41 34t108 69t142 34q158 0 158 -69q0 -33 -15 -87t-38 -55q-12 0 -18 6t-13 19
q-8 12 -20 23q-76 57 -152 57q-246 0 -246 -528q0 -23 17 -23h84l260 6q55 0 97 27t58 26q25 0 25 -39q0 -6 -4 -60t-4 -157v-456q0 -72 26 -109t58 -40t58 -9t26 -25q0 -25 -43 -24l-156 6l-201 -12q-31 0 -30 16q0 23 36 35q58 19 70 69t12 314z" />
    <glyph glyph-name="f_f_l" unicode="ffl" horiz-adv-x="1654" 
d="M367 887q0 -29 24 -29h336q27 0 32 10t5 70t22 142q23 83 45 129q23 46 23 55q0 30 -78 74t-139 44t-125 -63q-145 -141 -145 -432zM113 23q0 23 30 28q53 0 66 29q12 31 12 78v583q0 31 -39 31h-86q-39 0 -39 34q-1 34 11 43t59 9h59q25 0 30 7t5 32q1 211 149 390
t357 179q78 0 156 -41t82 -41t8 4t11 10q7 7 13 11q129 100 238 100l88 -2q27 1 53 19t48 18q24 0 24 -59l-4 -297v-115l-4 -229l6 -469q0 -227 16 -262t56 -47t70 -18q28 -6 28 -28q0 -16 -9 -21t-40 -5l-205 6l-152 -6q-33 0 -32 17q0 25 58 43q22 7 40 40t18 88l-6 1127
q0 98 -139 98q-168 0 -215 -219q-27 -130 -27 -230t11 -100l126 2q66 0 102 22t48 22t12 -24q0 -22 -22 -62t-45 -40l-201 2q-29 0 -34 -66t-5 -450q0 -195 94 -207q23 -4 31 -5t30 -8t21 -36q0 -14 -22 -14l-197 8l-172 -12q-39 0 -39 31t55 32q23 2 40 28t18 79v256
l-2 344q0 16 -6 20t-25 4l-201 -4l-131 -2q-29 0 -28 -28v-240l2 -145v-115q0 -115 30 -162q10 -16 77 -34t67 -34q0 -23 -29 -22l-139 2h-72l-139 -12q-49 0 -49 35z" />
    <glyph glyph-name="f_j" unicode="fj" horiz-adv-x="1069" 
d="M229 897q1 153 49 273t125 190q160 145 340 145q72 -1 101 -25q28 -24 28 -48t-17 -82q-17 -59 -36 -60q-6 0 -22 20t-31 29q-88 57 -162 57t-121 -50t-82 -174t-34 -281q0 -29 9 -36t52 -7h123q151 0 237 26t99 27q23 0 22 -61l-12 -260v-508q0 -113 -20 -213
q-20 -101 -85 -185t-155 -84t-90 56l-4 73q0 59 45 60q22 0 62 -44t56 -44t27 26q20 57 21 303v637q0 35 -4 57t-30 41t-73 19l-223 6q-53 0 -53 -26q-12 -338 -13 -369l2 -184q0 -74 28 -111t62 -39t62 -10t27 -33q0 -18 -41 -18l-187 8l-153 -4q-35 0 -42 6t-7 19
q-1 13 27 19t56 31q28 24 27 85l2 280v301q0 23 -4 28t-24 5l-89 2q-28 0 -36 6t-9 23q0 53 45 53l84 -2q41 0 41 47z" />
    <glyph glyph-name="f_f_j" unicode="ffj" horiz-adv-x="1611" 
d="M768 897q0 182 65 309q22 41 21 49q0 29 -72 78t-116 49q-133 0 -217 -145t-84 -354q0 -18 16 -24q17 -5 70 -5l294 2q23 0 23 41zM649 18q0 18 31 24t38 11q34 20 38 64q6 104 6 233v385q0 31 -9 37t-28 6l-330 -4q-31 0 -30 -24v-500q0 -74 9 -104t26 -52
q16 -22 78 -40q62 -17 63 -34q-1 -8 -9 -16t-20 -8l-203 10l-143 -14q-47 0 -47 24t51 37q18 6 35 33q16 27 16 72v583q0 23 -8 29t-31 6h-84q-41 0 -41 31q-1 31 11 40t59 9h59q25 0 32 9t7 32q0 233 155 401t347 168q61 0 115 -22t85 -46q29 -24 31 -24t41 34t108 69
t142 34q158 0 158 -69q0 -37 -15 -87t-34 -50q-10 0 -35 26q-68 74 -172 74q-246 0 -246 -528q0 -23 17 -23h84l260 6q55 0 97 27t58 26q25 0 25 -39l-8 -139v-663q0 -113 -20 -213q-20 -101 -86 -185q-64 -84 -154 -84t-91 56l-4 73q0 59 45 60q23 0 63 -44t54 -44
q31 0 39 77t8 334l2 320v242q0 80 -32 96q-33 16 -166 16l-162 -2q-14 0 -20 -3q-16 -8 -15 -222l4 -313q-1 -92 19 -130t55 -49q14 -4 56 -12t42 -22q0 -13 -4 -19t-20 -6l-209 6l-144 -10q-49 0 -49 24z" />
    <glyph glyph-name="f_b" unicode="fb" horiz-adv-x="1712" 
d="M909 270q0 -55 81 -137t220 -82t214 95t75 245t-97 277t-263 127q-96 1 -163 -55t-67 -99v-371zM57 799q-1 37 15 48t65 11l76 -2q16 0 16 31q-1 149 49 273t123 196q156 147 287 147l94 -4q39 1 67 19q27 18 49 18t22 -49q0 -14 -6 -86q-6 -71 -5 -598q-1 -35 11 -35
t30 22t44 48t90 46q64 22 153 21q197 0 296 -129t99 -295q0 -96 -50 -222t-136 -191q-119 -90 -285 -91q-83 0 -155 30t-108 60t-38 29q-8 0 -40 -66t-58 -65q-26 0 -27 27l8 168q-1 68 9 242t10 298l2 557q0 145 -150 146q-147 0 -204 -223q-37 -134 -37 -230t10 -96l127 2
q61 0 99 20t50 21q13 0 13 -19q0 -20 -28 -60t-58 -40h-185q-33 0 -32 -28l-4 -428v-58q0 -82 20 -160q8 -33 64 -51q10 -2 48 -9t38 -36q0 -14 -23 -14l-156 12l-200 -16q-41 0 -41 33q0 18 36 26t44 19q29 33 28 112l-2 262v293q0 29 -6 36q-7 7 -27 7l-84 -2
q-47 0 -47 23z" />
    <glyph glyph-name="f_f_b" unicode="ffb" horiz-adv-x="2242" 
d="M1440 270q0 -55 81 -137t220 -82t214 95t75 245t-98 277t-265 127q-96 1 -162 -55t-65 -99v-371zM367 887q0 -29 24 -29h340q18 0 26 5q7 5 7 67t22 147q23 84 45 131q23 47 23 56q0 30 -78 74t-139 44t-125 -63q-145 -141 -145 -432zM113 23q0 23 30 28q53 0 66 29
q12 31 12 78v583q0 31 -39 31h-59q-41 0 -53 5t-13 34t11 38t59 9h59q25 0 30 7t5 32q1 211 149 390t357 179q78 0 156 -41t82 -41t8 4t11 10q7 7 13 11q129 100 238 100l88 -2q27 1 53 19t48 18q24 0 24 -59v-4q-8 -70 -8 -639q0 -74 14 -74q8 0 25 22q16 22 40 48
q23 26 91 46q68 22 168 21q182 0 283 -127t102 -297q0 -96 -50 -222t-137 -191q-119 -90 -284 -91q-84 0 -156 30t-108 60t-37 29q-8 0 -40 -66t-59 -65q-27 0 -26 27l8 168q0 68 9 242t9 298v338l-4 271q0 98 -139 98q-168 0 -215 -219q-27 -130 -27 -230t11 -100l126 2
q66 0 102 22t48 22t12 -24q0 -22 -22 -62t-45 -40l-201 2q-29 0 -34 -66t-5 -450q0 -195 94 -207q23 -4 31 -5t30 -8t21 -36q0 -14 -22 -14l-197 8l-172 -12q-39 0 -39 31t55 32q23 2 40 28t18 79v256l-2 342q0 16 -6 19t-25 3h-201l-131 -2q-29 0 -28 -28v-240l2 -145v-115
q0 -115 30 -162q10 -16 77 -34t67 -34q0 -23 -29 -22l-139 2h-72l-139 -12q-49 0 -49 35z" />
    <glyph glyph-name="f_h" unicode="fh" horiz-adv-x="1769" 
d="M57 799q-1 37 15 48t65 11l76 -2q16 0 16 31q-1 149 49 273t123 196q156 147 287 147l94 -4q39 1 67 19q27 18 49 18t22 -49l-25 -709q0 -41 18 -41q4 0 42 38t104 76t141 38q166 0 258 -98t92 -306v-297q0 -38 16 -76t54 -42q109 -10 109 -43t-64 -33l-172 10l-158 -6
q-47 0 -47 20q0 37 55 37q20 0 38 23q17 23 18 69l2 54l2 286q0 125 -76 216t-175 91t-202 -79q-37 -29 -46 -92t-9 -287v-47q0 -94 14 -150q20 -80 111 -86q29 -2 44 -7t15 -21q0 -25 -22 -25l-107 4q-104 6 -110 6l-148 -10q-49 0 -51 6t-2 14q0 20 25 27q57 16 74 52
t18 106l8 698l2 101l-2 253q0 145 -150 146q-147 0 -204 -223q-37 -134 -37 -230t10 -96l127 2q61 0 99 20t50 21q13 0 13 -19q0 -20 -28 -60t-58 -40h-185q-33 0 -32 -28l-4 -428v-58q0 -82 20 -160q8 -33 64 -51q10 -2 48 -9t38 -36q0 -14 -23 -14l-156 12l-200 -14
q-41 0 -41 26q0 20 36 30t44 20q29 33 28 112l-2 262v293q0 29 -6 36q-7 7 -27 7l-84 -2q-47 0 -47 23z" />
    <glyph glyph-name="f_f_h" unicode="ffh" horiz-adv-x="2306" 
d="M367 887q0 -29 24 -29h336q27 0 32 10t5 70t22 142q23 83 45 129q23 46 23 55q0 30 -78 74t-139 44t-125 -63q-145 -141 -145 -432zM113 18q0 23 30 29q53 0 66 31q12 35 12 80v583q0 31 -39 31h-86q-39 0 -39 34q-1 34 11 43t59 9h59q25 0 30 7t5 32q1 211 149 390
t357 179q78 0 156 -41t82 -41t8 4t11 10q7 7 13 11q129 100 238 100l88 -2q27 1 53 19t48 18q24 0 24 -59v-53q0 -96 -5 -372t-11 -278q0 -45 18 -45q4 0 42 38t104 76t143 38q166 0 258 -98t92 -306v-297q0 -55 20 -86t48 -32q109 -10 108 -43q0 -33 -63 -33l-170 10
l-158 -6q-47 0 -47 20q0 37 53 37q20 0 38 23q17 23 17 69l2 54l2 286q0 125 -75 216q-76 91 -164 91t-170 -50t-90 -116t-8 -292v-47q0 -94 14 -150q20 -80 110 -86q28 -2 44 -7t16 -21q0 -25 -23 -25l-53 2q-51 2 -105 5t-59 3l-145 -10q-51 0 -53 6t-2 14q0 20 24 27
q57 16 75 52q17 36 17 106q4 598 4 772t-8 332q-4 98 -139 98q-168 0 -215 -219q-27 -130 -27 -230t11 -100l126 2q60 0 102 23t48 22q12 -1 12 -23t-22 -63t-45 -41l-201 2q-29 0 -34 -66t-5 -450q0 -195 94 -207q23 -4 31 -5t30 -8t21 -36q0 -14 -22 -14l-197 8l-172 -12
q-39 0 -39 31t55 32q23 2 40 28t18 79v256l-2 344q0 16 -6 20t-25 4l-201 -4l-131 -2q-29 0 -28 -28v-240l2 -145v-115q0 -115 30 -162q8 -14 76 -28t68 -38q0 -25 -29 -24l-139 2h-72l-131 -8q-41 0 -49 7t-8 19z" />
    <glyph glyph-name="f_k" unicode="fk" horiz-adv-x="1699" 
d="M57 799q1 41 15 50t63 9h66q16 0 22 6t6 25q-1 151 49 273t123 194q152 147 287 147l94 -4q39 1 67 19q27 18 49 18t22 -49l-17 -905v-43q0 -86 10 -86q11 0 21 6t23 20t22 21q287 229 287 258t-46 47q-46 19 -46 37t24 18l346 8q45 0 45 -16q0 -29 -56 -36
q-55 -7 -109 -43q-125 -84 -295 -221q-25 -22 -25 -40t20 -45q180 -221 322 -344q56 -49 112 -63t80 -15q24 0 25 -18q0 -25 -17 -31t-67 -6l-213 4q-38 0 -144 121t-235 282q-7 13 -27 13t-39 -31t-20 -64l2 -34q0 -147 17 -168q2 -2 19 -26t77 -36t59 -31q0 -27 -63 -26
l-178 6l-144 -8q-49 0 -49 24q0 16 48 32t56 50q12 55 13 142l2 90l2 866l2 74q0 133 -146 133q-152 0 -208 -223q-37 -134 -37 -230t10 -96q139 0 166 3t61 21t48 19q14 0 14 -19q0 -20 -28 -60t-58 -40h-185q-33 0 -32 -28l-4 -428v-58q0 -164 49 -190q18 -12 46 -18
t29 -7l13 -2q33 -6 33 -39q0 -14 -23 -14l-156 8l-200 -12q-41 0 -41 33q0 18 36 26t44 19q29 33 28 112l-2 262v293q0 43 -39 43l-78 -2q-47 0 -47 23z" />
    <glyph glyph-name="f_f_k" unicode="ffk" horiz-adv-x="2232" 
d="M367 887q0 -29 24 -29h336q27 0 32 10t5 70t22 142q23 83 45 129q23 46 23 55q0 30 -78 74t-139 44t-125 -63q-145 -141 -145 -432zM113 23q0 23 30 28q53 0 66 29q12 31 12 78v583q0 31 -39 31h-86q-39 0 -39 34q-1 34 11 43t59 9h59q25 0 30 7t5 32q1 211 149 390
t357 179q78 0 156 -41t82 -41t8 4t11 10q7 7 13 11q129 100 238 100l88 -2q27 1 53 19t48 18q24 0 24 -59l-4 -486l-6 -419v-43q0 -86 8 -86q18 0 38 20l27 27q287 229 287 258t-46 47q-46 19 -46 37t25 18l329 8q61 0 62 -16q0 -26 -56 -34q-56 -7 -141 -64q-6 -4 -13 -10
t-34 -26q-27 -19 -118 -89t-107 -84q-17 -15 -17 -31t23 -47q186 -227 319 -344q56 -49 112 -63t81 -15q25 0 24 -18q0 -25 -17 -30t-67 -5l-213 2q-54 0 -380 408q-6 8 -24 8t-38 -29t-20 -66l2 -34q4 -67 4 -109t6 -51q29 -49 73 -61q45 -12 71 -18q26 -7 26 -22
q0 -33 -53 -32l-199 12l-143 -8q-49 0 -49 24q0 18 26 27q8 4 15 4t33 17q26 18 36 58t10 1133q0 90 -29 122q-30 32 -108 32q-176 0 -222 -220q-28 -129 -28 -229t11 -100l126 2q66 0 102 22t48 22t12 -24q0 -22 -22 -62t-45 -40l-201 2q-29 0 -34 -66t-5 -450
q0 -195 94 -207q23 -4 31 -5t30 -8t21 -36q0 -14 -22 -14l-197 8l-172 -12q-39 0 -39 31t55 32q23 2 40 28t18 79v256l-2 344q0 16 -6 20t-25 4l-201 -4l-131 -2q-29 0 -28 -28v-240l2 -145v-115q0 -115 30 -162q10 -16 77 -34t67 -34q0 -23 -29 -22l-139 2h-72l-139 -12
q-49 0 -49 35z" />
    <glyph glyph-name=".notdef" horiz-adv-x="811" 
d="M494 122q0 21 -50 60l-20 17l-14 20q-41 51 -60 51q-18 0 -44 -30t-34 -35q-74 -63 -74 -81t32 -44q30 -25 42 -39t38 -37t43 -22t39 32t30 38t29 22q43 27 43 48zM381 1378q-96 0 -162 -45t-65 -80q0 -18 18 -18q2 0 39 26q37 25 83 25t112 -42t66 -112t-95 -284
q-94 -214 -94 -274t17 -117t48 -58q17 1 17 21l-11 94q0 72 45 162t99 160q143 189 143 304q0 116 -82 177t-178 61zM47 -131v1585h684v-1585h-684z" />
    <glyph glyph-name=".null" horiz-adv-x="0" 
 />
    <glyph glyph-name="nonmarkingreturn" horiz-adv-x="681" 
 />
    <glyph glyph-name="space" unicode=" " horiz-adv-x="436" 
 />
    <glyph glyph-name="exclam" unicode="!" horiz-adv-x="565" 
d="M201 1333q0 78 98 78q99 1 97 -51q0 -24 -9 -74q-8 -50 -25 -331q-18 -281 -49 -525q-5 -22 -29 -22t-24 18q-31 360 -35 468t-14 256q-10 146 -10 183zM291 272q12 0 28 -17q17 -17 29 -31t36 -31q24 -18 34 -27q64 -44 -21 -99q-23 -15 -29 -23t-29 -38
q-22 -31 -40 -32t-47 23t-40 39t-41 40t-31 46t33 50t52 51q37 49 66 49z" />
    <glyph glyph-name="quotedbl" unicode="&#x22;" horiz-adv-x="940" 
d="M246 1460q24 0 53 -26t47 -50q43 -57 43 -148t-29 -165t-67 -113q-80 -84 -125 -84q-10 0 -18 10t-8 21q0 12 57 54q23 17 40 57t17 93q0 54 -23 92q-23 39 -48 53q-71 41 -70 69q-1 18 29 48t49 50q29 39 53 39zM514 1322q0 18 30 49q30 29 53 59q25 30 47 30
q58 0 114 -97q33 -56 33 -137t-29 -155t-70 -113q-82 -84 -125 -84q-10 0 -18 10t-8 19q0 10 57 56q20 17 38 57t19 93q0 54 -22 92q-23 38 -48 52q-71 42 -71 69z" />
    <glyph glyph-name="numbersign" unicode="#" horiz-adv-x="1091" 
d="M412 340q0 -6 16 -6h195q18 0 20 14q12 106 25 181q12 75 12 85t-12 11h-201q-14 -1 -18 -15q-37 -264 -37 -270zM150 248q-29 0 -29 37v6q0 25 4 34t25 9h167q6 0 7 4l38 276q0 10 -14 11h-194q-18 0 -26 7q-7 7 -7 43t33 36h208q18 0 19 14q29 205 40 294t17 98t44 9
t38 -24l-53 -381q0 -10 12 -10h201q16 0 18 14q54 385 60 393t42 8t36 -20l-52 -385q0 -10 11 -10h141q37 0 37 -43t-31 -43h-166q-6 0 -10 -13q-37 -264 -37 -271t14 -7h195q23 0 29 -11t6 -30q0 -45 -35 -45h-201q-18 0 -22 -21q-11 -71 -27 -193t-24 -146t-46 -24t-36 27
l47 345q0 12 -15 12h-135q-72 0 -77 -5t-7 -12q-45 -340 -52 -353q-7 -14 -44 -14t-37 27l47 342q0 14 -16 15h-143z" />
    <glyph glyph-name="dollar" unicode="$" horiz-adv-x="1091" 
d="M612 55q42 1 92 25t84 56t62 95q27 63 27 137q0 135 -87 205q-36 29 -90 56t-77 26q-15 1 -15 -28l-8 -545q0 -27 12 -27zM299 1104q0 -172 215 -227h4q19 -1 19 34l2 402q0 25 -23 24q-55 0 -136 -62t-81 -171zM131 180q0 30 4 58q10 102 43 102q20 0 34 -15t62 -124
q33 -59 101 -103t125 -43q20 0 20 31l6 578q0 30 -97 60t-174 106t-77 220q0 146 100 248t238 121q14 3 20 11t7 36l-2 56q0 47 45 47q31 0 38 -8t7 -31v-43l-2 -47q0 -18 10 -19q172 -20 258 -118q39 -41 39 -66t-22 -75t-40 -50t-26 23q-35 76 -94 138t-115 62
q-18 0 -18 -39q1 -172 -5 -266t-6 -131t4 -47t23 -14q184 -52 273 -150t89 -262q1 -102 -33 -184t-92 -131q-111 -94 -247 -129q-25 -6 -27 -14t-2 -21v-168q0 -55 -9 -71t-36 -15q-43 0 -43 43l6 201q0 39 -12 38q-96 1 -200 47t-150 101q-23 27 -23 57z" />
    <glyph glyph-name="percent" unicode="%" horiz-adv-x="1579" 
d="M1000 417q-64 -120 -64 -250t33 -196t90 -65q92 0 158 139t65 293q0 82 -30 140t-72 59q-115 0 -180 -120zM791 131q0 174 112 322q113 147 293 147q111 0 166 -70t55 -182q-1 -178 -113 -343t-266 -165q-121 0 -184 83t-63 208zM268 762q0 -128 33 -192t90 -64
q98 0 158 135q59 135 59 293q0 82 -26 135q-27 53 -70 53q-114 1 -179 -115t-65 -245zM739 1012q-2 0 0 -16t2 -78q1 -152 -107 -310t-288 -157q-72 1 -148 67t-77 187q0 165 118 321t289 156q66 0 116 -36t95 -71t90 -35q121 0 265 115q59 47 135 115l39 37q16 16 36 16
t19 -17q0 -17 -16 -44q-594 -887 -891 -1358q-52 -82 -64 -86t-28 -4t-38 16t-22 36t37 74t45 66l338 486q110 158 262 366t152 215q0 8 -5 8t-44 -22q-113 -68 -209 -68q-37 1 -68 11t-33 10z" />
    <glyph glyph-name="ampersand" unicode="&#x26;" horiz-adv-x="1939" 
d="M814 92q118 0 203 30t128 60t43 39q0 10 -53 50q-53 41 -177 145t-214 196l-152 152t-68 70q-26 28 -45 28q-67 0 -145 -86t-78 -223t137 -291q66 -74 185 -122q118 -48 236 -48zM1732 -39q-226 -1 -433 185q-23 22 -29 22t-58 -47t-129 -92q-131 -74 -350 -74
q-145 0 -262 42t-185 97q-68 56 -117 160q-48 104 -48 242q-1 70 23 144t66 127q42 52 104 85t100 41t39 13q0 5 -25 35t-49 90q-25 60 -25 138q0 135 119 204t266 69q72 0 135 -24t72 -23l45 6q33 0 33 -47l8 -140q0 -59 -3 -71q-3 -13 -17 -13t-45 37t-66 81t-93 81
t-137 37t-126 -50t-47 -104t56 -136q56 -81 114 -142q58 -62 189 -192q130 -130 273 -253q142 -123 158 -123t29 19q29 39 29 134t-22 141t-38 58q-47 34 -81 38t-44 9t-10 20t9 19t42 5l305 -4q39 0 39 -25t-39 -35q-14 -4 -27 -24q-14 -20 -16 -51t-10 -111t-30 -133
t-36 -84t-16 -37q0 -18 122 -95t247 -138q41 -21 88 -21l74 6q27 0 26 -18q0 -33 -58 -55t-139 -23z" />
    <glyph glyph-name="quotesingle" unicode="'" horiz-adv-x="540" 
d="M246 1460q24 0 53 -26t47 -50q43 -57 43 -148t-29 -165t-67 -113q-80 -84 -125 -84q-10 0 -18 10t-8 21q0 12 57 54q23 17 40 57t17 93q0 54 -23 92q-23 39 -48 53q-71 41 -70 69q-1 18 29 48t49 50q29 39 53 39z" />
    <glyph glyph-name="parenleft" unicode="(" horiz-adv-x="667" 
d="M604 1581q43 0 43 -43q0 -12 -42 -53q-118 -115 -220 -285q-59 -100 -101 -267t-42 -357t41 -352q41 -161 99 -264t118 -180t100 -122q41 -45 41 -60q0 -16 -14 -26q-13 -10 -31 -10t-69 49q-50 49 -114 143q-266 384 -263 826q0 172 43 342t104 284t128 203
q67 88 115 130t64 42z" />
    <glyph glyph-name="parenright" unicode=")" horiz-adv-x="667" 
d="M20 -393q0 12 42 53q124 121 221 283q59 100 101 267t42 357q0 189 -41 351t-116 296t-201 271q-41 45 -41 60t14 25q13 10 31 11q18 0 68 -49t115 -143t124 -213t99 -280t40 -333t-43 -342q-43 -171 -104 -285t-128 -202t-115 -130t-65 -42q-43 0 -43 45z" />
    <glyph glyph-name="asterisk" unicode="*" horiz-adv-x="882" 
d="M374 821q-9 0 -92 -54q-82 -54 -102 -54q-20 1 -40 27t-19 44q1 27 111 76t110 56q0 6 -111 58t-110 77q0 18 19 45q19 26 42 26t103 -54t89 -54t9 39l-6 161q0 27 10 35t51 8q40 0 54 -12t14 -61l-8 -133q0 -37 10 -37t93 55t101 55t40 -26t22 -48t-112 -73t-112 -61
t112 -58q112 -49 112 -72q0 -22 -20 -48t-45 -26q-23 0 -103 55q-80 54 -88 54t-8 -39l6 -118q0 -58 -11 -72t-65 -14t-53 49l6 147q0 47 -9 47z" />
    <glyph glyph-name="plus" unicode="+" horiz-adv-x="1079" 
d="M100 475h349q45 0 45 39v360q0 27 12 29t30 2h27q23 -4 23 -41v-334q0 -55 35 -55h362q29 0 31 -12t2 -36t-6 -33t-37 -9h-352q-25 0 -30 -7t-5 -30v-358q0 -23 -10 -29t-38 -6q-26 0 -35 5t-9 32v356q0 25 -10 31t-40 6h-346q-30 1 -32 21q-2 6 -3 25q0 19 3 28
q2 16 34 16z" />
    <glyph glyph-name="comma" unicode="," horiz-adv-x="512" 
d="M145 162q34 31 44 47q11 15 27 31t35 16t50 -25t66 -88t34 -143q0 -129 -91 -234t-146 -106q-31 0 -31 27q1 21 45 55t63 72t19 84q0 44 -18 76t-34 45t-52 40q-37 27 -41 32t-4 22q0 18 34 49z" />
    <glyph glyph-name="hyphen" unicode="-" horiz-adv-x="696" 
d="M90 297v22q0 59 20 75t112 45q93 28 177 58t114 41t48 11q45 0 45 -70v-12q0 -47 -19 -61t-118 -42q-99 -27 -256 -90q-61 -20 -92 -20t-31 43z" />
    <glyph glyph-name="period" unicode="." horiz-adv-x="516" 
d="M111 113q0 25 63 80q8 7 32 39t54 32q16 0 84 -80q6 -6 25 -20q37 -35 37 -51t-41 -50l-31 -24q-8 -8 -32 -40t-44 -32t-49 36t-35 40q-63 45 -63 70z" />
    <glyph glyph-name="slash" unicode="/" horiz-adv-x="851" 
d="M41 -348q0 4 39 117q625 1686 631 1704t17 25t47 7t36 -24q0 -16 -29 -90l-622 -1702q-16 -45 -28 -55t-51 -9q-40 0 -40 27z" />
    <glyph glyph-name="zero" unicode="0" horiz-adv-x="1083" 
d="M195 425q1 -167 109 -256t249 -89t242 98q100 98 100 255t-110 247t-252 90t-240 -89t-98 -256zM80 442q0 199 137 316q137 116 325 116t325 -116q136 -116 137 -336q0 -184 -119 -318t-340 -135q-221 0 -343 137t-122 336z" />
    <glyph glyph-name="one" unicode="1" horiz-adv-x="696" 
d="M41 25q0 33 92 38q35 1 67 19t38 53q18 111 18 211v164l2 104q0 127 -28 156t-136 35q-37 0 -37 31q0 23 43 22q4 0 60 -6t157 -6q103 0 161 5t78 5t32 -10t12 -22t-9 -20q-9 -9 -30 -10q-23 -1 -31 -3q-8 -1 -32 -5q-65 -9 -74 -49q-14 -70 -14 -141l-7 -338v-47
q1 -53 11 -88t70 -50t116 -23t55 -30q0 -20 -12 -24t-45 -4l-262 10l-238 -10q-57 0 -57 33z" />
    <glyph glyph-name="two" unicode="2" horiz-adv-x="958" 
d="M420 803q-121 0 -121 -94q0 -23 16 -66t17 -55q0 -20 -39 -20t-85 23t-46 49t16 60t51 75q35 40 109 67q74 26 184 26t186 -57t76 -155q-1 -171 -275 -399q-114 -93 -114 -109t150 -17q150 0 235 27q33 10 69 56t44 46q25 0 25 -22q0 -6 -52 -104t-57 -105
q-31 -35 -43 -37l-371 6l-280 -2q-55 0 -56 20q-1 12 11 20t47 23q35 14 65 33q230 136 336 272t107 234q0 98 -69 152t-136 53z" />
    <glyph glyph-name="three" unicode="3" horiz-adv-x="827" 
d="M117 -213q9 0 31 -27q22 -26 69 -52t115 -25q121 0 203 99q81 100 81 204t-84 170t-219 65q-45 0 -69 -5t-25 -5q-27 0 -26 22q0 15 13 23q14 8 38 19t96 63q172 121 172 268q0 64 -56 114t-127 50t-113 -33t-54 -32q-23 0 -23 20q0 35 82 89t179 54q96 0 178 -44
t81 -146q1 -60 -35 -120t-78 -99t-78 -70t-36 -39q0 -2 50 -9t104 -34q147 -75 147 -233t-145 -325q-146 -167 -326 -167t-180 74v41l-2 24q0 66 37 66z" />
    <glyph glyph-name="four" unicode="4" horiz-adv-x="1032" 
d="M614 606q-10 0 -67 -60t-87 -97t-140 -157t-109 -136q0 -25 78 -25h76l161 -2q56 0 74 3t18 18q6 292 6 374t-10 82zM760 854q23 0 22 -49l-26 -639q0 -29 43 -29q92 0 112 24t35 23q27 0 27 -24q1 -24 -15 -60q-21 -46 -26 -60t-14 -34q-12 -16 -27 -16l-113 2
q-18 0 -23 -8t-5 -31l6 -217l2 -53q0 -39 -33 -50q-53 -14 -91 -14t-38 29q0 8 8 37t8 282q0 33 -18 33l-305 -4l-211 2q-41 0 -49 8q-24 24 1 56q25 33 195 217q170 183 302 333t146 165q13 15 22 27t31 30q22 20 34 20z" />
    <glyph glyph-name="five" unicode="5" horiz-adv-x="700" 
d="M464 842q82 0 91 6q8 6 10 7t6 7t10 11q5 5 22 28t30 25q27 0 26 -23q0 -10 -12 -36t-31 -72t-26 -63q-6 -17 -12 -19q-10 -8 -31 -8q-326 -2 -332 -21q-31 -72 -31 -92t49 -35q180 -49 261 -135q28 -30 58 -98t30 -152q0 -174 -95 -332q-154 -260 -438 -260
q-55 0 -117 35q-12 8 -20 56t-8 69q0 57 24 57q16 0 43 -30q86 -99 199 -99t196 131t83 289q0 96 -26 154t-105 115q-79 56 -159 66q-80 9 -79 46q0 20 8 39q49 102 105 289q14 49 63 49l152 -4h56z" />
    <glyph glyph-name="six" unicode="6" horiz-adv-x="1017" 
d="M256 536q0 -142 30 -245q30 -104 76 -160q90 -106 186 -106t171 84q76 84 76 220t-76 283q-37 72 -107 121t-148 49t-167 -63q-14 -12 -19 -19q-22 -22 -22 -164zM90 522q0 232 132 444t319 341q76 53 165 84q168 59 166 4q0 -27 -20 -29q-90 -12 -154 -45t-151 -108
q-88 -75 -155 -187q-68 -112 -90 -178t-22 -77t5 -11q3 0 33 28t88 55q58 28 135 27q178 0 282 -120q105 -120 105 -320q0 -199 -110 -335t-286 -136t-321 150q-121 126 -121 413z" />
    <glyph glyph-name="seven" unicode="7" horiz-adv-x="1026" 
d="M47 -358q0 30 382 526t382 518t-125 23h-160q-258 0 -325 -47q-37 -25 -45 -62q-4 -18 -26 -18t-22 22t18 102q17 79 17 109q2 29 90 29l400 -8q231 0 267 11t47 16t18 5q23 0 23 -20t-68 -123l-547 -807q-109 -160 -142 -266q-8 -29 -15 -33t-17 -4l-107 4q-45 0 -45 23
z" />
    <glyph glyph-name="eight" unicode="8" horiz-adv-x="1024" 
d="M240 1098q0 -110 137 -203q137 -92 196 -92t137 77q77 77 76 199q0 82 -74 173q-74 92 -190 92t-199 -68t-83 -178zM170 369q0 -154 97 -252q97 -99 247 -99t226 92t75 211q0 119 -141 239q-140 120 -200 120q-109 0 -211 -83q-37 -32 -65 -91t-28 -137zM80 349
q0 176 95 261q74 64 148 91q27 11 27 15t-36 30q-36 24 -78 57t-79 99q-36 66 -36 142q0 158 105 260q104 102 274 103q170 0 266 -93q96 -92 96 -234q0 -197 -151 -290q-41 -26 -41 -32t43 -33t94 -63t94 -110q43 -75 43 -167q0 -168 -106 -299t-314 -131q-162 1 -252 53
t-141 147t-51 194z" />
    <glyph glyph-name="nine" unicode="9" horiz-adv-x="995" 
d="M223 486q0 -148 92 -282t224 -134q74 0 141 45q86 55 86 241t-97 310t-218 125q-90 0 -159 -79q-69 -78 -69 -226zM80 390q0 175 115 325q115 149 307 149t304 -145q110 -145 110 -350t-93 -391q-92 -186 -274 -312q-123 -86 -316 -86q-39 0 -38 35q0 29 53 29
q123 0 268 123q78 65 131 155t53 129q0 4 -3 4t-27 -19q-24 -18 -76 -38q-53 -20 -129 -21q-187 0 -286 119t-99 294z" />
    <glyph glyph-name="colon" unicode=":" horiz-adv-x="532" 
d="M274 831q16 0 74 -75q4 -6 29 -28q45 -39 4 -75l-21 -18q-25 -20 -47 -53t-46 -33q-25 0 -47 36q-21 36 -52 62q-31 25 -32 44q0 20 61 73q8 8 21 26q12 18 26 30q14 11 30 11zM121 108q0 22 72 85q5 7 31 37t44 30t30 -12q11 -12 18 -20t21 -26q14 -19 40 -38
q37 -35 37 -51t-41 -50l-31 -24q-8 -8 -31 -40t-41 -32q-18 1 -32 15t-30 34t-26 27q-61 43 -61 65z" />
    <glyph glyph-name="semicolon" unicode=";" horiz-adv-x="536" 
d="M274 256q14 0 45 -30t50 -58q49 -72 49 -184t-94 -221q-94 -108 -150 -107q-6 0 -15 9t-9 23t30 38q94 80 94 176q0 53 -26 87q-27 34 -86 79q-35 37 -36 49t32 43q34 30 57 63t59 33zM262 846q16 0 76 -78q6 -6 22 -18q35 -32 35 -50t-18 -36q-49 -41 -73 -73t-49 -32
t-46 36t-40 52q-19 17 -33 29t-15 28q0 16 63 72q8 8 29 39t49 31z" />
    <glyph glyph-name="less" unicode="&#x3c;" horiz-adv-x="1079" 
d="M84 426q0 18 2 26t29 21q694 252 767 280t76 27q39 0 39 -51q0 -25 -32 -33l-625 -227q-86 -31 -86 -43q0 -6 86 -37l635 -229q42 -15 10 -60q-12 -16 -37 -16q-6 0 -835 301q-21 8 -25 16q-4 7 -4 25z" />
    <glyph glyph-name="equal" unicode="=" horiz-adv-x="1079" 
d="M100 276h883q29 0 31 -12t2 -37t-6 -33t-37 -10h-875q-30 1 -32 21q-2 6 -3 25q0 19 3 28q2 18 34 18zM983 676q29 0 31 -12t2 -36t-6 -33t-37 -9h-875q-30 0 -32 20q-2 6 -2 26t2 27q2 16 34 17h883z" />
    <glyph glyph-name="greater" unicode="&#x3e;" horiz-adv-x="1079" 
d="M131 84q-47 0 -47 51q0 18 20 25l637 229q86 31 86 37q0 12 -86 43l-626 227q-31 8 -31 33q0 51 37 51q6 0 210 -76t634 -231q33 -12 33 -38t-6 -34q-5 -8 -25 -16q-829 -301 -836 -301z" />
    <glyph glyph-name="question" unicode="?" horiz-adv-x="716" 
d="M350 270q20 0 60 -51l14 -20l20 -17q50 -39 50 -55q1 -26 -34 -48q-35 -23 -64 -60t-44 -37q-16 0 -42 22t-38 37q-12 14 -43 39t-30 43q0 18 73 82q8 5 33 35t45 30zM283 574q0 60 94 274t94 284q1 70 -65 112t-112 42t-83 -26t-39 -25q-18 0 -18 18q0 35 65 80
q66 45 162 45t178 -61t82 -172q0 -68 -45 -154q-45 -85 -98 -155q-52 -70 -98 -160t-46 -162l11 -94q0 -20 -17 -21q-31 -1 -48 57t-17 118z" />
    <glyph glyph-name="at" unicode="@" horiz-adv-x="1681" 
d="M582 465q0 -61 36 -92t92 -31t111 35t78 69t76 236q53 203 53 213q0 11 -45 25t-82 14q-99 0 -209 -132t-110 -337zM90 586q0 196 67 352t164 245t220 148q205 96 407 96q285 0 464 -181t179 -443q0 -223 -140 -381t-327 -158q-66 0 -104 26t-47 56q-8 30 -12 56
q-5 26 -9 26t-32 -32t-64 -68q-102 -100 -238 -101q-80 1 -126 55t-48 157q0 103 65 237t177 228q113 95 232 95q39 0 91 -9t56 -9q14 0 39 41t47 41q16 0 16 -24t-24 -121q-76 -307 -76 -414v-27q0 -121 84 -121q156 0 256 118t100 354t-159 379q-160 142 -398 143
q-309 0 -523 -206t-214 -536q0 -291 181 -477t472 -186q130 -1 234 33t157 67t56 33q23 0 22 -25q0 -29 -90 -82q-182 -102 -416 -102q-327 1 -533 191t-206 526z" />
    <glyph glyph-name="A" unicode="A" horiz-adv-x="1662" 
d="M555 690q0 -25 18 -31t86 -6h64l195 2q80 0 79 30q0 30 -100 256t-127 226q-19 0 -117 -226t-98 -251zM41 16q0 29 31 39q66 25 114 110t247 514q198 429 351 757q14 31 26 39t33 8t27 -8q6 -7 22 -55t26 -72t30 -80q20 -55 66 -166t206 -485q162 -373 186 -423t67 -86
t75 -39t53 -11q22 -8 21 -31q0 -31 -55 -31l-185 12l-190 -8q-63 0 -81 5q-17 5 -17 21q0 28 51 39q51 8 51 69q0 36 -51 175t-86 205q-18 35 -84 35l-248 -4h-109q-92 0 -116 -10t-38 -43q-15 -34 -44 -92t-39 -81t-31 -71q-45 -102 3 -154q24 -25 53 -28q76 -6 75 -39
q0 -13 -6 -21t-29 -8l-170 2l-176 -8q-59 0 -59 24z" />
    <glyph glyph-name="B" unicode="B" horiz-adv-x="1290" 
d="M424 1116q0 -258 14 -287q8 -14 117 -14h131q129 0 194 68q64 69 64 179t-108 218t-306 106q-63 0 -85 -38t-21 -172v-60zM659 66q111 0 192 13t143 97t63 193q0 109 -37 181t-84 110q-47 36 -125 61t-156 24l-159 3l-31 2q-19 0 -27 -6t-16 -44t-8 -282v-139l-2 -91
q0 -123 200 -122h47zM256 889v348q0 33 -20 74q-41 86 -160 86q-35 0 -35 24q0 31 18 31l82 -2l299 2l226 6q186 0 311 -89t125 -259t-184 -283q-20 -14 -21 -16q0 -6 35 -15q95 -24 181 -89q48 -37 83 -110t35 -166t-51 -193t-131 -156q-145 -100 -332 -98q-95 0 -231 11
t-150 11l-176 -8h-29q-43 0 -43 30t23 29l47 2q43 0 71 72q19 47 23 149t4 609z" />
    <glyph glyph-name="C" unicode="C" horiz-adv-x="1652" 
d="M1440 1333q10 0 20 -8t11 -46q1 -39 9 -105t13 -109q6 -43 6 -51q0 -37 -24 -37q-18 0 -35 29q-199 373 -574 372q-256 0 -420 -164t-164 -444t152 -487q78 -105 213 -167t316 -63q295 0 495 307q8 14 31 15q18 0 18 -26t-13 -93t-20 -101q-8 -33 -36 -46
q-111 -53 -172 -80q-164 -70 -350 -70q-508 0 -715 320q-111 166 -111 387t86 399t265 288t425 109q125 0 252 -37t203 -73l76 -39q6 0 20 10q13 10 23 10z" />
    <glyph glyph-name="D" unicode="D" horiz-adv-x="1622" 
d="M739 70h41q140 0 238 40t188 126q152 145 152 471q0 164 -65 297t-169 213q-215 162 -469 161h-82q-98 0 -131 -35q-32 -32 -32 -139v-86l-4 -393l-3 -436q0 -96 21 -137q10 -18 39 -26t65 -20q36 -10 85 -23q48 -13 126 -13zM41 1432q0 20 17 23t87 3h179l399 8
q297 0 543 -168q118 -80 192 -210t74 -281q0 -152 -20 -257t-64 -182q-45 -77 -90 -125q-45 -47 -115 -105q-71 -58 -187 -101t-239 -43l-491 10q-72 0 -133 -5t-72 -5q-49 0 -49 26q0 16 7 24t31 13q59 15 90 60q32 45 31 84l2 555l-2 520q0 35 -33 71q-34 36 -79 38
q-78 3 -78 47z" />
    <glyph glyph-name="E" unicode="E" horiz-adv-x="1236" 
d="M41 1432q0 29 57 28l56 -4l499 -10l410 8q39 0 39 -47q0 -12 -12 -81t-12 -121t-32 -52t-32 49t-35 94t-86 47q-184 14 -283 15h-53q-106 0 -123 -15q-31 -27 -31 -452q0 -102 39 -105h201q123 0 164 9q106 20 121 106q6 35 26 35t24 -6t5 -27l-16 -215l6 -125
q0 -51 -15 -51q-31 0 -45 49q-29 86 -51 101q-43 29 -149 28h-148l-65 2h-15q-84 0 -84 -39l-4 -295v-82q0 -147 50 -162t88 -16q307 0 436 47t155 97q25 51 45 51q25 0 25 -35q0 -88 -88 -178t-154 -90q-147 0 -332 10t-231 10l-278 -18q-43 0 -43 20v25q0 12 22 15t68 26
q47 22 62 94t16 301v254l6 354q0 55 -4 187q-2 59 -52 92t-114 35q-33 0 -33 37z" />
    <glyph glyph-name="F" unicode="F" horiz-adv-x="1134" 
d="M41 1427q0 15 16 25t37 10h56q48 0 158 -6t286 -6l465 10q35 0 35 -49q0 -27 -12 -97t-17 -111q-4 -42 -32 -42t-27 41q0 135 -95 141q-309 25 -385 25t-98 -22t-22 -93v-16q-6 -111 -7 -342q0 -100 37 -102l51 -2l88 2h64q123 0 163 7q99 17 116 97q4 23 10 33t24 10
t22 -6t5 -24q0 -18 -9 -74q-9 -57 -9 -99l14 -168q0 -33 -7 -42t-22 -9q-35 0 -43 51q0 45 -10 64q-20 29 -42 38q-21 9 -95 17t-97 8h-178q-84 0 -84 -39l-4 -295l-2 -81q0 -41 8 -82t48 -86t105 -45t64 -37q0 -19 -19 -29t-44 -10l-199 16l-248 -12q-41 0 -40 22
q0 27 9 33t79 31q53 18 66 116t13 533l7 356v119q0 135 -97 180q-29 12 -65 12t-37 29z" />
    <glyph glyph-name="G" unicode="G" horiz-adv-x="1675" 
d="M1493 997q-25 0 -35 25q-72 156 -240 264t-346 107q-256 0 -422 -161t-167 -446q-1 -188 69 -354t212 -274t314 -109q172 0 299 72q128 72 142 164q6 49 6 258q0 79 -30 109t-93 37t-70 21t-8 25q0 23 37 23l228 -10l163 2h31q33 0 33 -19q0 -14 -52 -37t-59 -57
q-14 -88 -14 -235t5 -182q5 -36 5 -44t-15 -13t-54 -16t-78 -35t-63 -36q-25 -12 -49 -24q-165 -84 -333 -87q-223 1 -388 61t-255 162q-176 203 -176 486q0 223 89 401t273 288t434 110q306 0 489 -131q22 -15 27 -15l56 31q31 0 32 -50t8 -116t13 -109t7 -51
q0 -35 -25 -35z" />
    <glyph glyph-name="H" unicode="H" horiz-adv-x="1619" 
d="M99 1397q-36 0 -47 13t-11 22q0 23 57 22l232 -8l180 4q45 0 45 -29q0 -35 -72 -35q-41 0 -59 -84t-18 -172v-75l-5 -189q1 -51 13 -65t57 -15l336 2l387 -4q23 0 23 285v111q0 154 -62 188q-25 14 -51 18t-42 12q-17 8 -18 27q0 20 80 21l199 -4l160 4q47 0 47 -27
t-29 -26q-57 0 -87 -35t-30 -92l-10 -805v-76l8 -188q0 -133 172 -152q25 0 25 -22q0 -15 -20 -19t-80 -4l-158 10l-193 -10h-34q-29 0 -34 8t-5 20q0 20 45 32t67 30q43 31 43 193l7 362q0 31 -25 43t-80 12t-166 -4l-110 -2l-377 6q-31 0 -41 -12t-10 -63l-9 -252v-88
q1 -88 17 -131t80 -84q16 -10 72 -10t55 -23q0 -37 -66 -37l-170 8l-221 -10q-96 0 -96 30t63 38q25 2 51 26t35 63q8 40 19 216q10 176 10 336v116l2 221q0 156 -12 244q-6 51 -54 80t-85 29z" />
    <glyph glyph-name="I" unicode="I" horiz-adv-x="671" 
d="M70 28q0 30 63 38q25 2 51 26t34 52q7 30 16 248t10 315v116l2 221v95q0 90 -7 144t-55 81t-96 29q-47 1 -47 31t57 30l232 -8l180 4q55 0 55 -29q0 -16 -94 -55q-66 -27 -65 -236l-7 -757q0 -172 48 -242t102 -70l41 -2q41 0 43 -30q0 -29 -51 -29l-195 8l-225 -10
q-92 0 -92 30z" />
    <glyph glyph-name="J" unicode="J" horiz-adv-x="593" 
d="M555 1423q0 -18 -94 -57q-43 -16 -43 -139v-94l-2 -834l-2 -158q0 -233 -126 -384t-298 -150q-82 0 -82 78q0 31 24 71t37 41q14 0 46 -35t75 -34q113 0 141 159q27 139 27 205v242l-2 53l-2 137q-4 104 -4 398t-7 355q-7 60 -55 85t-98 27q-49 3 -49 37t59 34l232 -12
l166 2q57 0 57 -27z" />
    <glyph glyph-name="K" unicode="K" horiz-adv-x="1482" 
d="M88 20v9q0 14 18 20q76 18 100 42t31 127t7 331v274l-4 221v95q0 104 -7 151q-6 47 -52 74t-93 29q-47 1 -47 29t57 28l232 -4l176 4q35 0 35 -27q0 -12 -30 -24t-42 -19q-63 -37 -63 -250l-7 -319q1 -43 17 -43t166 122t297 264t147 187q0 40 -75 52q-23 4 -27 6
q-23 3 -23 27t33 24l51 -2l123 -4l254 6q41 0 41 -27q0 -14 -12 -21q-11 -8 -47 -18t-53 -17t-107 -64q-18 -12 -202 -167t-386 -325l-23 -29q-1 -10 59 -69t279 -277t303 -288t152 -80t76 -27q2 -4 2 -17q0 -14 -18 -18t-101 -4h-199q-33 0 -49 20t-33 35q-76 88 -116 129
q-434 440 -457 458t-39 20q-29 0 -29 -56v-6l3 -47v-104q0 -268 34 -329q35 -60 133 -61l17 -2q41 0 43 -30q0 -29 -51 -29l-195 8l-225 -10q-74 0 -74 22z" />
    <glyph glyph-name="L" unicode="L" horiz-adv-x="1234" 
d="M74 18q0 33 43 33q20 0 53 25q33 26 49 102t17 295v254l6 354q0 55 -4 187q-2 59 -52 92t-92 34q-43 1 -48 8t-5 21q0 37 55 37l56 -4l178 -8l215 8q35 0 35 -20q0 -29 -25 -38q-25 -8 -55 -12t-57 -46t-31 -124t-10 -448q-6 -367 -7 -410v-82q0 -147 50 -162t87 -16
q306 0 436 47t154 97q27 51 47 51q25 0 25 -35q0 -88 -88 -178t-154 -90q-147 0 -332 10t-231 10l-256 -16q-59 0 -59 24z" />
    <glyph glyph-name="M" unicode="M" horiz-adv-x="1882" 
d="M86 29q0 27 61 28q23 2 52 34t41 85q12 52 26 364t15 489q0 177 -40 255t-173 109q-27 6 -27 30q0 31 37 31l108 -8l154 4q39 0 49 -29q25 -53 88 -191t101 -220t98 -209q243 -523 262 -520q20 0 36 40t32 72l264 545q109 221 145 309l47 103q6 16 9 25l5 15t5 9
q2 4 7 18q5 13 16 25t55 12l176 -4q35 0 34 -27q0 -20 -13 -29q-13 -10 -59 -16q-47 -6 -67 -51t-20 -247t12 -426t12 -281q0 -205 33 -261t137 -57q14 0 26 -10t11 -18q0 -33 -22 -33h-23l-209 8l-213 -10q-37 0 -37 30t56 35q20 2 44 26q40 40 41 154q2 182 -10 395
q-11 214 -14 279l-4 50q0 88 -18 88q-6 -1 -12 -7t-9 -10q-4 -4 -8 -13t-11 -19t-18 -33l-10 -23q-8 -14 -12 -24l-285 -576q-49 -100 -95 -196t-54 -110q-8 -13 -24 -13t-28 17q-12 16 -37 76t-43 99q-375 762 -383 773t-14 11q-16 0 -16 -81l-19 -541v-92q0 -168 68 -207
q34 -20 76 -24t43 -26q0 -22 -6 -29t-25 -7l-213 8l-168 -6q-43 0 -43 33z" />
    <glyph glyph-name="N" unicode="N" horiz-adv-x="1634" 
d="M1425 1145v-78l-22 -1014v-41q0 -47 -29 -47q-18 0 -33 15q-680 788 -812 936t-149 148q-18 0 -18 -166q0 -167 -8 -391t-8 -245q0 -92 32 -140t68 -54t69 -14q32 -8 32 -28q0 -22 -7 -28t-26 -6l-219 4l-174 -4q-45 0 -45 33q0 18 26 23t66 32q39 27 55 87t35 394
q18 334 18 486q0 153 -49 239t-159 98q-27 2 -27 31q0 11 14 23t37 12l78 -2l100 4q18 0 43 -11t29 -21t22 -30q18 -22 50 -57q31 -35 55 -67q279 -362 745 -875q12 -15 30 -33t34 -39q17 -21 29 -20q20 0 20 127v240l-4 419v15q0 188 -66 239q-35 25 -103 38q-69 13 -69 43
t39 30l195 -2l184 4q60 0 62 -29q-1 -14 -15 -23t-57 -24q-68 -37 -68 -231z" />
    <glyph glyph-name="O" unicode="O" horiz-adv-x="1746" 
d="M270 799q0 -182 97 -373q51 -102 123 -183t185 -133t255 -52t289 87q164 96 231 269q39 92 39 200q0 371 -195 577t-481 206q-225 1 -384 -151t-159 -447zM90 694q0 344 207 564t586 221q176 1 317 -51t223 -126t138 -172q96 -168 96 -327q0 -279 -109 -471
q-207 -365 -694 -365q-244 1 -421 107t-260 268t-83 352z" />
    <glyph glyph-name="P" unicode="P" horiz-adv-x="1155" 
d="M41 1421q0 33 47 33l76 2l123 -6l338 6q193 0 331 -97t140 -280q0 -100 -37 -179t-89 -124t-137 -84t-167 -39q-82 -1 -150 15t-67 32q0 31 26 31q10 0 42 -8t71 -8q95 0 203 56q57 30 94 90t37 140q0 137 -111 255t-305 118q-63 0 -86 -38t-23 -171l-4 -846
q0 -238 139 -253q35 -4 58 -5q57 4 57 -41q0 -35 -47 -34l-293 10l-190 -8q-63 0 -64 22q0 35 23 43q10 4 14 6l20 5t20 6q5 2 13 3q13 2 24 9q10 7 39 85q11 33 19 301t8 415l-2 348q0 55 -34 109q-35 54 -115 55q-41 0 -41 26z" />
    <glyph glyph-name="Q" unicode="Q" horiz-adv-x="1718" 
d="M934 57q128 0 278 78q86 45 171 177t85 302q0 330 -190 556t-463 227q-225 0 -381 -152q-156 -153 -156 -439t152 -495q80 -113 228 -183t276 -71zM92 697q0 347 194 565t599 217q170 1 306 -55t215 -137t132 -185q90 -174 90 -335q0 -342 -202 -571q-103 -118 -242 -157
t-140 -45q0 -23 33 -37t144 -63q111 -50 139 -60t75 -29q48 -19 133 -42t159 -23t134 51q19 16 33 16t22 -9t7 -15q0 -72 -111 -126q-110 -54 -242 -54t-366 104q-234 105 -441 209q-206 104 -267 104q-94 0 -140 -65q-45 -66 -45 -152v-36q0 -53 -37 -54q-20 0 -34 27
t-15 59q0 90 41 170t88 114t47 40t-45 37q-264 190 -264 537z" />
    <glyph glyph-name="R" unicode="R" horiz-adv-x="1470" 
d="M412 1098q0 -211 2 -261t14 -59q31 -18 88 -18h80q174 0 249 80t75 206t-100 230t-300 104q-76 0 -92 -40t-16 -185v-57zM41 1425q0 33 59 33h340l205 6q183 0 315 -93t132 -251q0 -104 -40 -183t-88 -114t-88 -61t-40 -33q0 -25 172 -265t235 -308q78 -96 189 -97
q29 0 28 -24q0 -31 -24 -41t-124 -10q-99 0 -179 47q-111 63 -367 491q-98 160 -152 160h-168q-26 0 -30 -20t-4 -121v-166l2 -109v-18q0 -84 39 -130t87 -53t87 -17t39 -30q0 -33 -37 -32l-293 14l-225 -8q-43 0 -43 34t86 44q34 4 60 45t26 116l2 646l-2 346q0 75 -31 115
t-69 45t-68 13t-31 29z" />
    <glyph glyph-name="S" unicode="S" horiz-adv-x="1220" 
d="M1053 1119q0 -44 -29 -44q-18 0 -36 44q-17 44 -41 81t-34 47t-53 49q-111 98 -253 98t-228 -60q-86 -62 -86 -160t50 -158t134 -92q84 -33 176 -62q248 -78 367 -203q82 -88 82 -219q0 -215 -137 -341t-340 -126q-141 -1 -227 15t-177 63q-27 15 -63 159t-37 180t27 36
t34 -20q76 -182 182 -262t264 -81q157 0 250 81t93 212q1 96 -63 161t-146 93q-305 102 -414 166q-186 111 -186 297t132 296t343 110q77 0 185 -34t110 -34l47 16q27 0 31 -16q43 -248 43 -292z" />
    <glyph glyph-name="T" unicode="T" horiz-adv-x="1439" 
d="M850 1454q412 0 498 12q22 0 30 -12t8 -22l13 -166q0 -50 -6 -64t-27 -14q-16 0 -28 42q-11 42 -23 64q-31 53 -178 54h-267q-49 0 -60 -20t-11 -111v-101l-6 -749l-2 -134q-1 -89 27 -115q48 -46 111 -52q62 -7 62 -39q0 -23 -10 -29t-39 -6l-227 16l-209 -14
q-76 0 -76 33q0 20 12 27q12 6 48 12t47 8q70 16 77 82q20 180 21 774l-2 366q0 38 -23 48t-211 10t-223 -24q-45 -26 -74 -130q-6 -47 -39 -47q-23 0 -22 35q0 82 10 148t11 77q1 10 3 13q1 2 2 10t3 11t8 13t43 10t177 -8t552 -8z" />
    <glyph glyph-name="U" unicode="U" horiz-adv-x="1669" 
d="M41 1427q0 27 47 27l231 -8l193 4q43 0 43 -29q0 -18 -14 -22t-36 -6t-42 -15q-51 -29 -51 -190v-58l-2 -442q0 -203 12 -264q28 -143 60 -186q78 -104 151 -136q111 -45 292 -45t267 49q37 20 85 64q138 128 138 494l-2 434q0 72 -3 112t-20 90t-44 68t-60 24t-53 8
q-20 3 -21 17q0 33 41 33l158 -4l174 6q43 0 43 -27q0 -16 -44 -42q-44 -25 -60 -57t-17 -124l2 -137q-1 -393 -33 -602t-100 -303q-137 -199 -485 -199t-492 131q-113 104 -139 250t-27 506v35l5 295q0 112 -27 154t-125 57q-45 6 -45 38z" />
    <glyph glyph-name="V" unicode="V" horiz-adv-x="1652" 
d="M1612 1427q0 -23 -45 -43q-18 -8 -43 -34t-43 -70l-457 -1040q-49 -111 -84 -196t-41 -95t-16 -10q-37 0 -91 137t-215 487t-210 467q-49 118 -79 188q-52 121 -129 154q-38 16 -61 17q-57 -4 -57 36q0 29 57 29l226 -8l133 4q47 0 57 -4t10 -18t-20 -23q-64 -33 -64 -67
t7 -62t32 -84t51 -114t83 -186q58 -128 114 -253q172 -395 205 -395q10 0 118 248t212 518t104 311q0 66 -74 80q-74 8 -73 33q0 14 7 17t36 3l129 -2l182 4q39 0 39 -29z" />
    <glyph glyph-name="W" unicode="W" horiz-adv-x="2273" 
d="M2234 1427q0 -14 -11 -22t-41 -24t-47 -42t-30 -54q-14 -28 -278 -625t-293 -656t-47 -59t-92 182q-82 185 -146 337q-63 153 -78 152q-20 0 -138 -282t-123 -303q-5 -20 -10 -33t-7 -21t-4 -12t-3 -8q-4 -18 -22 -18t-45 58t-96 229q-70 171 -165 380t-228 537
q-39 98 -84 154q-45 57 -80 71t-64 16t-45 8t-16 34q0 26 55 26l226 -6l176 6q18 0 23 -5t5 -19t-44 -36t-44 -62t62 -173q206 -462 354 -809q41 -90 51 -90t68 127q57 127 84 193t43 98t16 58t-129 314t-165 315q-36 28 -56 28l-23 2q-57 6 -69 11t-12 21q0 29 59 29
l225 -8l135 8q61 0 61 -14t-22 -27q-66 -35 -66 -77t34 -118t73 -174q39 -100 54 -100t81 179t66 214t-31 51t-61 22q-30 7 -31 24q0 23 45 22l131 -4h35q29 0 109 6h18q27 0 27 -20t-39 -32t-63 -37t-58 -107t-93 -224q-61 -142 -71 -170q-10 -29 -10 -48t125 -298
q125 -278 149 -278t237 517q214 517 214 559q0 67 -76 81q-76 6 -76 33q0 14 6 17t33 3l129 -2l182 4q41 0 41 -29z" />
    <glyph glyph-name="X" unicode="X" horiz-adv-x="1538" 
d="M569 1440q0 -35 -46 -37t-46 -42t111 -200q166 -252 182 -268t28 -16q12 -1 36 35q26 36 66 94t72 105q32 46 64 97q74 106 74 136t-17 46q-17 15 -36 17q-55 6 -56 35q0 20 31 20l166 -8q115 0 151 4t42 4q33 0 32 -20q0 -20 -18 -28t-59 -21q-41 -14 -78 -40t-107 -120
q-317 -426 -317 -430q0 -14 85 -135t173 -248q188 -274 266 -338q6 -6 41 -12q88 -16 88 -43q0 -9 -5 -19t-60 -10l-220 14q-102 0 -151 -6t-57 -6q-27 0 -27 26t52 38t52 50q-1 40 -131 230t-170 250q-39 61 -53 61q-4 1 -46 -67t-127 -182t-128 -183q-43 -70 -43 -110
q0 -55 111 -56q25 0 24 -34q0 -23 -63 -23l-181 6l-163 -8q-39 0 -50 10q-10 10 -10 27q0 26 47 28t99 43t86 82q33 42 61 76t101 138t154 211q81 106 81 114t-10 26t-102 142q-91 125 -167 233q-164 242 -278 267q-45 0 -64 14q-18 15 -18 29t14 19t72 5l182 -8l215 4
q45 0 45 -18z" />
    <glyph glyph-name="Y" unicode="Y" horiz-adv-x="1458" 
d="M1030 28q0 -28 -49 -28l-205 2l-225 -8q-57 0 -57 20t11 28t38 9q27 2 39 6q86 27 86 125l4 416q0 86 -52 166t-131 197q-80 117 -141 209t-112 144q-51 50 -79 59t-72 9t-44 25t24 31t103 6l119 -4l174 2q102 0 102 -24t-43 -39t-43 -34t13 -53q12 -34 26 -53
q14 -20 41 -59q27 -38 64 -98t111 -160t86 -100q19 -1 66 78q48 78 62 100t38 57q34 49 60 93l27 45q39 73 39 99q0 74 -94 86q-45 6 -51 18t-7 21q0 25 58 25l84 -2l217 -2q100 0 100 -31q0 -8 -12 -14q-12 -7 -35 -17t-41 -24q-84 -66 -247 -312q-162 -246 -190 -280
t-36 -84q-8 -49 -8 -168l2 -238v-49q0 -69 24 -107t44 -45t40 -8l41 -2q31 0 31 -33z" />
    <glyph glyph-name="Z" unicode="Z" horiz-adv-x="1153" 
d="M1055 1417q0 -29 -376 -647t-376 -636t24 -30q25 -14 223 -14t314 14t184 82q17 18 27 28t21 11q16 1 16 -29t-63 -133q-4 -6 -17 -28t-27 -28q-15 -7 -42 -7l-375 -2l-506 -2q-41 0 -41 33q0 12 58 99t107 173q48 86 324 536t275 486q0 23 -80 23t-383 -9
q-66 -3 -114 -33t-67 -66t-35 -66t-28 -29q-27 0 -26 37q0 38 8 78t8 52t6 67q6 57 18 65t34 8l452 -6l369 2q88 0 88 -29z" />
    <glyph glyph-name="bracketleft" unicode="[" horiz-adv-x="587" 
d="M518 -372q0 -30 -22 -38t-84 -8h-185q-45 0 -56 20t-11 105v125l12 1335v168l-2 176q0 33 20 42t80 10h88l121 2h15q14 1 23 -13t9 -30q0 -41 -24 -41l-189 -2h-32q-16 0 -17 -17l4 -317l-10 -1114q0 -199 1 -278t26 -79l184 2q29 0 39 -9t10 -39z" />
    <glyph glyph-name="backslash" unicode="\" horiz-adv-x="851" 
d="M41 1481q0 25 36 25t47 -8q11 -7 19 -30l629 -1699q6 -16 22 -59t17 -52q0 -33 -68 -33q-16 0 -25 11t-26 53l-622 1702q-29 74 -29 90z" />
    <glyph glyph-name="bracketright" unicode="]" horiz-adv-x="587" 
d="M418 -365q0 -33 -20 -43t-81 -10h-223q-14 0 -24 12t-11 29q0 43 27 43h221q14 0 15 19l-3 161v156l9 1114q0 197 -1 276t-26 78h-184q-29 0 -39 8t-10 35q0 47 34 48q205 4 253 4q47 -1 59 -21t12 -104v-125l-10 -1335l2 -291v-54z" />
    <glyph glyph-name="asciicircum" unicode="^" horiz-adv-x="681" 
d="M59 678q0 10 28 55t93 156q66 111 92 145t61 33q33 0 59 -34q26 -33 90 -143t92 -153q26 -43 26 -61t-37 -19h-31q-23 0 -30 13l-13 18q-12 18 -18 37q-23 37 -42 77t-31 59q-11 19 -22 42t-19 31q-7 8 -11 14q-7 10 -14 10q-17 0 -40 -46t-42 -79t-39 -73
q-21 -39 -27 -50l-8 -16q-15 -33 -47 -35h-29q-41 1 -41 19z" />
    <glyph glyph-name="underscore" unicode="_" horiz-adv-x="436" 
d="M0 -84q0 23 4 36t35 13h364q29 0 31 -18q2 -6 2 -30t-6 -34t-37 -10h-356q-25 0 -31 10t-6 33z" />
    <glyph glyph-name="grave" unicode="`" horiz-adv-x="899" 
d="M223 1303q0 27 43 39t67 14q25 0 47 -54q64 -154 124 -247l18 -31q6 -10 6 -18q0 -23 -22 -23t-82 64q-201 211 -201 256z" />
    <glyph glyph-name="a" unicode="a" horiz-adv-x="944" 
d="M258 199q0 -63 41 -105t105 -43q111 0 156 49q44 49 44 160v148q0 18 -14 18l-21 -4q-47 -8 -93 -16t-103 -33q-57 -26 -78 -54q-37 -57 -37 -120zM903 27q0 -43 -129 -43q-53 0 -91 28t-54 57q-17 27 -19 27t-25 -21t-94 -64q-71 -42 -151 -42q-242 0 -242 205
q0 146 112 196t325 85q6 2 22 4t33 6q14 6 14 29l4 106q0 117 -67 169q-68 52 -131 52q-147 0 -148 -123l8 -73q0 -41 -37 -41q-29 0 -63 10q-63 20 -64 70q0 80 108 152t216 73q108 -1 170 -21q61 -20 91 -46t48 -72t19 -157l-10 -349q0 -70 16 -114t39 -56t45 -15
q55 -4 55 -32z" />
    <glyph glyph-name="b" unicode="b" horiz-adv-x="1120" 
d="M317 270q0 -55 81 -137t220 -82t215 95q75 95 74 245q0 150 -97 277t-263 127q-96 1 -163 -55t-67 -99v-371zM170 700v506q0 186 -92 187h-21q-33 0 -32 20q0 21 20 35t72 32t105 43t65 25t22 -10t10 -27v-41l-2 -249v-379q0 -74 15 -74q8 0 24 22t40 48t92 46
q68 22 167 21q181 0 283 -127t102 -297q0 -96 -50 -222t-136 -191q-119 -90 -285 -91q-83 0 -155 30t-108 60t-38 29q-8 0 -40 -66t-58 -65q-26 0 -27 27l9 168q0 68 9 242t9 298z" />
    <glyph glyph-name="c" unicode="c" horiz-adv-x="925" 
d="M80 390q0 200 132 344t343 145q72 -1 155 -21t85 -47q4 -49 4 -118t-23 -68q-20 0 -37 26q-35 59 -132 103t-155 45q-95 0 -159 -99q-59 -86 -59 -244t100 -275q102 -118 250 -118q72 0 133 27q61 28 95 54t42 26q23 0 23 -20t-43 -62q-132 -131 -327 -131t-311 117
q-116 116 -116 316z" />
    <glyph glyph-name="d" unicode="d" horiz-adv-x="1157" 
d="M227 492q-1 -152 95 -283t245 -131q92 0 168 47t76 115l2 350q0 125 -57 158q-152 90 -244 90q-133 -1 -209 -98q-76 -96 -76 -248zM80 410q0 188 132 338t366 149q53 0 140 -30q87 -29 95 -29t8 73l4 265q0 112 -11 156t-35 58t-62 15h-23q-31 0 -37 2t-6 14v2
q1 13 21 21t90 29t127 50t74 29q25 0 24 -41q0 -6 -13 -174t-13 -270l-5 -748q0 -139 14 -186t58 -61q6 -2 35 -7t41 -13t12 -23q0 -25 -158 -37q-34 -2 -76 -11t-53 -10q-22 0 -22 23l-6 76q0 35 -19 34q-6 0 -30 -20t-54 -46q-31 -26 -89 -46t-126 -21q-190 0 -297 126
q-106 125 -106 313z" />
    <glyph glyph-name="e" unicode="e" horiz-adv-x="954" 
d="M682 608q0 62 -57 144t-159 82t-158 -81t-56 -153q0 -29 27 -29l360 13q29 0 36 5t7 19zM80 392q0 210 116 351t300 142q86 0 156 -31t110 -75q38 -45 74 -111t36 -109q0 -37 -84 -37h-526q-16 0 -19 -3t-3 -19q0 -194 103 -304t243 -110q86 0 175 46t93 46q20 0 20 -22
t-45 -63q-45 -42 -86 -68q-98 -63 -231 -64q-180 0 -306 111q-126 110 -126 320z" />
    <glyph glyph-name="f" unicode="f" horiz-adv-x="706" 
d="M59 788q-1 38 17 50t69 12h43q25 0 31 11t6 36q0 149 49 275t123 200q152 158 279 158q47 0 77 -16t29 -41q0 -8 -7 -36l-9 -36q-2 -8 -4 -13l-4 -12t-9 -16t-20 -10q-14 0 -24 14q-31 39 -110 39q-141 0 -189 -158q-43 -139 -44 -307v-51q0 -39 25 -39q180 0 219 29
q14 8 22 8t9 -22q0 -22 -29 -72q-12 -18 -51 -19l-160 -2q-33 0 -32 -20v-119l10 -406q1 -109 31 -147t98 -39q35 0 35 -31q0 -20 -23 -20l-205 10l-151 -10q-31 0 -31 28q0 10 26 20q27 10 51 39t24 63t-5 168q-4 134 -4 429q0 23 -7 28q-8 5 -28 5l-82 -6q-45 0 -45 26z
" />
    <glyph glyph-name="g" unicode="g" horiz-adv-x="999" 
d="M283 592q0 -120 58 -203q58 -82 148 -82t140 71q49 72 49 180t-57 196t-145 88t-140 -65q-53 -65 -53 -185zM199 -186q0 -90 75 -137q76 -46 195 -46q119 1 220 53t101 130t-71 96q-55 12 -156 12h-18q-66 0 -160 15l-92 14q-20 0 -57 -41t-37 -96zM160 95q0 61 26 107
t54 68q27 22 26 30q0 7 -21 26q-23 18 -49 42t-48 78q-43 104 -4 229t160 179q75 33 166 33q150 0 233 -62q28 -20 40 -20t101 37q29 12 43 55t31 43q27 0 26 -16q0 -50 -14 -106t-34 -88t-81 -56q23 -61 23 -103q0 -131 -98 -221t-240 -90q-54 0 -102 9t-68 10t-51 -28
q-30 -30 -29 -73q0 -70 63 -88t211 -18h94q297 0 297 -181q0 -63 -14 -96q-39 -99 -160 -159t-305 -60t-292 88q-65 53 -64 123q0 70 37 108t73 56t37 24q0 6 -34 31q-33 27 -33 89z" />
    <glyph glyph-name="h" unicode="h" horiz-adv-x="1202" 
d="M70 20q0 20 24 27q59 16 77 52q17 36 17 106l9 698v101q-1 280 -13 340t-73 61h-27l-8 2q-35 0 -35 18t21 30q22 11 62 21t114 44q74 33 92 32q27 0 26 -47q0 -10 -7 -49t-9 -226t-7 -305t-5 -153t16 -35q4 0 42 38t104 76t143 38q166 0 258 -98t92 -306v-297
q1 -55 21 -86t47 -32q111 -10 110 -43q0 -33 -63 -33l-172 10l-158 -6q-47 0 -47 20q0 37 55 37q20 0 38 23q17 23 17 69l3 54l2 286q0 125 -76 216t-175 91t-202 -79q-37 -29 -47 -93t-10 -286v-47q0 -92 14 -150q23 -80 113 -86q29 -2 44 -7t15 -21q0 -25 -23 -25l-53 2
q-54 2 -108 5t-58 3l-145 -10q-51 0 -53 6t-2 14z" />
    <glyph glyph-name="i" unicode="i" horiz-adv-x="581" 
d="M190 1206q0 28 36 71q36 44 68 44t62 -42t31 -75q0 -32 -39 -72t-57 -40q-41 0 -71 43t-30 71zM98 16q0 28 31 37q2 0 8 2q47 16 62 49q14 33 14 318v180q0 59 -14 94q-15 35 -27 43q-12 7 -42 13t-43 11t-13 16t7 20t58 25t107 40q55 25 65 30t31 5q31 0 31 -39l-13 -98
v-561q0 -61 20 -97t46 -45q28 -10 82 -10q29 -4 29 -29q0 -35 -35 -34l-31 2l-145 4l-146 -4q-82 0 -82 28z" />
    <glyph glyph-name="j" unicode="j" horiz-adv-x="575" 
d="M238 1210q0 29 31 67q32 38 66 38q33 0 65 -36t32 -69q0 -32 -36 -70t-54 -38q-40 0 -72 40t-32 68zM211 -309q27 1 37 69t10 260v623q0 88 -53 111q-27 10 -64 10t-37 20q0 12 19 19q111 33 181 65t77 33q25 0 25 -47v-23l-5 -96v-663q0 -113 -20 -213
q-20 -101 -85 -185t-155 -84t-90 56l-4 73q0 59 45 60q23 0 64 -44t55 -44z" />
    <glyph glyph-name="k" unicode="k" horiz-adv-x="1116" 
d="M0 1412q0 22 100 52q14 4 34 10t24 8q4 1 15 5t12 5t11 5t13 7q4 3 16 10q12 6 40 24q29 18 55 18t26 -38q0 -4 -9 -92t-9 -427l-6 -419v-43q0 -86 8 -86q18 0 38 20l27 27q287 229 287 258t-46 47q-46 19 -46 37t24 18l37 -2l301 10q53 0 54 -16q0 -26 -56 -34
q-56 -7 -141 -64q-6 -4 -13 -10t-34 -26q-27 -19 -118 -89t-107 -84q-17 -15 -17 -31t23 -47q186 -227 319 -344q56 -49 112 -63t81 -15q25 0 24 -18q0 -25 -17 -30t-67 -5l-213 2q-51 0 -321 334q-53 66 -59 74t-22 8q-17 0 -39 -29t-22 -66l3 -34q0 -147 16 -168
q2 -2 19 -26t86 -36t69 -31q0 -33 -63 -32l-199 12l-150 -8q-49 0 -49 22t51 37q47 18 60 53q12 35 12 136l2 90l2 909q0 154 -96 154l-41 -2q-41 1 -41 23z" />
    <glyph glyph-name="l" unicode="l" horiz-adv-x="571" 
d="M89 -10q-24 0 -26 25q0 22 50 34t63 46q12 34 12 93l-2 54v151l9 871q0 47 -16 85q-15 38 -33 46t-83 8q-23 0 -22 14q0 25 13 31t50 14t119 47t113 39q25 0 24 -39q0 -8 -8 -88t-8 -223v-115l-4 -272v-610q0 -43 7 -71t47 -54t112 -25q10 0 18 -10t8 -21q0 -29 -63 -28
l-207 14q-53 0 -101 -8t-72 -8z" />
    <glyph glyph-name="m" unicode="m" horiz-adv-x="1693" 
d="M63 795q0 18 25 27t87 22t85 28q24 15 36 20t38 5q25 0 24 -59l-10 -86q0 -25 12 -25q2 0 14 15q37 50 93 91q57 41 151 41t150 -26t77 -54q22 -30 36 -56t17 -26t39 43q37 42 103 84t140 42q150 0 230 -88t94 -214q13 -126 14 -266v-65q0 -92 10 -133t47 -54q2 0 18 -3
t29 -5q31 -6 31 -30q0 -31 -68 -31l-135 8l-147 -8q-49 0 -50 21q0 22 43 38t52 35q8 23 8 94v33l-2 217l-6 135q0 23 -7 42q-6 19 -7 29t-11 26q-10 14 -15 24t-30 35q-53 63 -154 63q-47 0 -98 -24t-82 -50t-31 -34q1 -8 7 -54t6 -208v-174q0 -94 26 -139q27 -44 115 -56
q21 -2 29 -13t8 -20q0 -23 -39 -22l-150 10l-186 -10q-45 0 -45 26q0 14 8 22t30 15q22 9 29 13t17 34t10 62v39l2 82v125l-2 108l-2 21q0 109 -55 175t-147 64q-92 0 -160 -45t-68 -104v-414q0 -74 27 -113t59 -44t60 -11q27 -6 26 -20q0 -19 -6 -25t-37 -6l-172 6l-162 -6
q-49 0 -49 31q0 23 38 28t55 62q18 57 18 311l-2 250q0 49 -22 69t-48 21q-68 -4 -68 29z" />
    <glyph glyph-name="n" unicode="n" horiz-adv-x="1210" 
d="M98 18q0 18 10 22t26 7q15 2 30 12q39 25 43 149t4 163v295q0 66 -24 88t-64 22h-21q-39 0 -39 22q1 22 45 27q44 6 91 20t93 37t54 23h4q18 0 19 -24l-4 -88q0 -53 8 -53t16 10q31 43 82 73q158 98 326 32q67 -25 103 -63t69 -104t32 -151v-21l3 -108v-209
q0 -78 22 -108t102 -42q41 -6 41 -31q0 -20 -41 -20l-167 10l-158 -8q-41 0 -41 27q0 18 24 24l27 6q45 14 45 138v276q0 158 -78 239t-176 81q-98 1 -164 -47t-80 -89t-14 -313v-78q0 -102 22 -151t95 -56q20 0 52 -7t32 -23q0 -27 -39 -27l-150 8q-53 0 -141 -4l-88 -4
q-31 0 -31 18z" />
    <glyph glyph-name="o" unicode="o" horiz-adv-x="1120" 
d="M242 466q0 -192 112 -316t243 -125q130 0 210 89t80 261q-1 172 -99 312t-274 140q-106 0 -189 -84q-83 -85 -83 -277zM80 418q0 186 128 325t338 139t352 -120q142 -121 142 -336t-146 -339t-356 -124t-334 134q-124 135 -124 321z" />
    <glyph glyph-name="p" unicode="p" horiz-adv-x="1136" 
d="M649 43q133 0 204 97t71 249t-87 275t-235 122q-104 0 -186 -65q-42 -33 -56 -89t-14 -239l2 -102q0 -140 111 -201q90 -47 190 -47zM78 -384q0 16 19 24t44 14t44 50t20 128v41l6 565v45q0 171 -15 227t-81 56q-35 0 -43 5t-9 16t17 17t72 23t122 51q70 34 76 33
q27 0 27 -26l-8 -121q0 -16 4 -16t40 34t79 58q80 49 190 49q182 0 278 -120t97 -301q0 -181 -120 -334t-321 -152q-94 0 -152 19t-81 39t-30 19q-7 0 -7 -16v-252q0 -39 29 -86t75 -53t78 -8t31 -28q0 -26 -70 -26l-213 9l-129 -7q-45 0 -57 4t-12 20z" />
    <glyph glyph-name="q" unicode="q" horiz-adv-x="1144" 
d="M223 433q0 -120 60 -212q106 -162 277 -162t222 84q35 61 35 142v333q0 82 -91 144t-185 63q-94 0 -195 -73q-53 -39 -88 -119t-35 -200zM810 117q-11 0 -36 -26q-24 -25 -56 -57t-96 -58t-145 -25q-150 0 -248 82q-150 125 -149 327q0 134 47 238t123 164
q154 123 338 123q111 0 219 -64q16 -10 29 -18l20 -17l6 -6q8 0 41 66t60 65q18 1 18 -25t-9 -94t-9 -317l6 -639q0 -129 53 -164q22 -16 44 -22t37 -12t15 -21q0 -25 -37 -25l-73 2h-70q-143 0 -169 -5t-32 -5q-49 0 -49 31q0 23 46 30t60 16q13 9 18 40t5 133l4 189
q0 94 -11 94z" />
    <glyph glyph-name="r" unicode="r" horiz-adv-x="768" 
d="M45 778q0 23 28 34q29 11 103 35t117 43t51 19q27 0 27 -41l-2 -55q0 -74 5 -81t10 -7t32 41t76 83t97 42t99 -34q51 -33 51 -67q-1 -34 -23 -73t-42 -39t-62 24t-98 25q-55 0 -103 -45t-49 -82v-213l3 -178l2 -37q1 -43 29 -74t54 -35t44 -6t28 -3t23 -5q23 -4 23 -30
t-25 -25l-174 10l-213 -10q-37 0 -41 8t-4 16q0 27 26 35q53 12 65 52q11 40 11 171l-2 330l-2 62q0 23 -6 37q-17 38 -97 38l-22 2q-39 0 -39 33z" />
    <glyph glyph-name="s" unicode="s" horiz-adv-x="804" 
d="M648 639q-15 0 -33 30q-17 31 -39 65t-69 64t-109 30t-101 -30t-39 -65q0 -66 22 -88q22 -21 32 -33q17 -18 122 -59q186 -66 240 -128t53 -179q0 -117 -109 -215q-74 -63 -177 -63t-274 61q-11 4 -16 5q-38 8 -38 54v178q0 53 34 53q15 0 23 -9t14 -38t13 -41
q76 -188 213 -188q63 0 120 34q58 35 58 107t-47 117t-115 71t-136 54t-114 81q-47 54 -47 136q0 115 92 185t203 69q111 0 168 -17q56 -17 68 -32t12 -27l8 -123q0 -59 -32 -59z" />
    <glyph glyph-name="t" unicode="t" horiz-adv-x="700" 
d="M55 786q0 20 19 35q78 51 133 126t75 97t40 21q20 0 20 -47l-8 -117q0 -29 11 -35t73 -6h71q92 0 121 14t37 15q43 0 -6 -87q-27 -48 -39 -48q-92 0 -129 4t-49 5t-22 2t-13 1l-4 2q-39 0 -50 -12t-11 -56l-9 -381q0 -133 34 -185t143 -52q43 0 95 19t56 20q21 0 21 -27
q0 -26 -71 -70t-153 -44q-276 0 -276 239v31l8 477q0 21 -8 27t-35 6l-39 -2q-35 0 -35 28z" />
    <glyph glyph-name="u" unicode="u" horiz-adv-x="1179" 
d="M1067 12q-41 0 -124 -11t-89 -11q-14 0 -24 52q-9 52 -12 52t-40 -33q-38 -33 -106 -65t-150 -33q-329 0 -329 356l2 369q0 41 -22 66t-40 24h-37q-37 0 -37 29t40 37t98 8l116 10q35 0 41 -14t6 -72l-10 -377q0 -180 70 -255t158 -74q131 0 190 55t59 194l-4 283
q0 102 -16 138q-15 36 -69 41t-54 28q0 47 180 47l74 10q31 0 40 -10t9 -30l-10 -513q0 -153 12 -197t45 -44l53 2q49 0 50 -25q-1 -25 -15 -31t-55 -6z" />
    <glyph glyph-name="v" unicode="v" horiz-adv-x="1071" 
d="M1032 844q0 -14 -10 -21q-49 -29 -70 -57q-51 -70 -147 -274t-176 -363q-80 -158 -111 -158q-20 0 -33 22q-12 22 -145 329t-183 388t-72 95t-33 23t-11 24q0 23 39 22l145 -8l119 -2l80 6q37 0 37 -22q0 -35 -49 -35q-86 0 -86 -57q0 -40 65 -175t118 -260
q54 -126 69 -126q20 -1 124 247t105 292t-19 62t-45 15q-63 -8 -63 33q0 27 63 26l138 -2l94 2q35 0 46 -6t11 -20z" />
    <glyph glyph-name="w" unicode="w" horiz-adv-x="1531" 
d="M948 838q0 -14 -6 -17q-12 -4 -24 -4q-61 -4 -62 -57q0 -76 121 -342q16 -33 50 -120t46 -87q20 0 108 224q87 223 87 277q0 86 -56 95q-57 8 -57 41q0 16 43 16h236q39 0 49 -4t10 -22t-34 -32t-59 -49q-25 -36 -69 -139q-61 -154 -156 -355t-119 -246q-23 -44 -42 -44
q-35 -1 -131 265t-113 266q-6 0 -131 -262t-164 -262q-16 0 -31 28q-14 29 -78 197q-65 168 -106 269q-41 102 -58 152t-36 88t-86 97q-8 8 -18 13t-15 7q-6 6 -6 21q0 23 39 22l145 -8l101 2q61 0 78 -3q18 -3 18 -19t-23 -23q-67 -14 -67 -81t114 -324q14 -29 51 -117
t51 -88q15 0 70 114t76 153t28 56t11 27t4 25v14q0 14 -27 80t-65 100q-39 33 -51 37q-33 13 -33 31t31 18l248 -4l63 2q45 0 45 -28z" />
    <glyph glyph-name="x" unicode="x" horiz-adv-x="1122" 
d="M471 843q0 -13 -34 -25t-34 -34q0 -20 40 -73t88 -123t61 -70q6 0 20 17q143 182 150 196q6 14 6 33q0 31 -47 49t-47 31q0 25 53 24l129 -2l141 4q15 0 27 -8t12 -19q0 -19 -49 -33q-49 -13 -125 -89q-236 -236 -235 -258q0 -6 45 -56q45 -51 94 -111t91 -112t61 -65
q20 -14 48 -36t55 -30q28 -8 35 -12t7 -18q0 -13 -12 -19t-58 -6l-121 4l-120 -4h-23q-70 0 -70 20q0 10 36 22t36 39t-29 67q-30 40 -78 100t-67 86q-18 26 -22 26t-25 -20q-25 -31 -59 -72l-54 -61q-45 -53 -45 -89q0 -59 49 -67q47 -2 48 -33q1 -8 -5 -13t-79 -5l-107 6
l-108 -8q-90 0 -91 33q1 10 7 14t32 13q81 28 205 151l64 64q116 121 116 138q-1 17 -71 101t-110 136t-87 94t-75 47t-52 23t-25 36q0 25 29 24l160 -10l166 8q53 0 53 -25z" />
    <glyph glyph-name="y" unicode="y" horiz-adv-x="1019" 
d="M291 -365q0 5 46 63t93 142t47 149t-117 319t-202 415q-22 41 -46 63t-38 25q-33 4 -33 31t41 26l219 -4l117 4q14 0 25 -7t12 -15q0 -37 -49 -37h-31q-33 0 -33 -56t109 -290q16 -35 63 -143t59 -107q12 0 96 236q83 237 83 281t-20 62t-44 19q-63 -4 -63 35q0 25 39 24
l147 -2l127 2q43 0 43 -26q0 -20 -36 -30t-48 -26q-33 -47 -111 -258l-182 -485q-25 -63 -60 -163l-50 -138q-23 -64 -39 -98q-16 -35 -31 -35h-6l-88 -2q-39 0 -39 26z" />
    <glyph glyph-name="z" unicode="z" horiz-adv-x="774" 
d="M184 2q-35 0 -49 -2h-14q-39 0 -39 31t15 51t29 40t26 36q375 541 374 571q0 10 -47 10l-250 -14q-59 -4 -102 -88q-14 -29 -25 -29q-16 0 -16 43t13 111q13 67 14 74q4 37 41 36l219 -6l301 6q25 0 24 -20q0 -24 -28 -56t-72 -102q-45 -70 -153 -222
q-107 -152 -155 -226q-48 -72 -48 -96q0 -18 100 -19l100 2q109 0 144 27q35 26 46 58t15 40q14 29 35 29q33 0 33 -29q0 -12 -28 -76t-35 -90q-7 -27 -13 -43q-12 -45 -37 -45h-233l-150 -2h-35z" />
    <glyph glyph-name="braceleft" unicode="{" horiz-adv-x="559" 
d="M492 1516q0 -49 -75 -81t-130 -32q-14 0 -15 -19l-6 -862l6 -737q0 -11 62 -25t90 -28q70 -39 70 -84q0 -18 -17 -19q-3 0 -39 9q-36 10 -104 10t-107 -14t-51 -15q-24 0 -24 25l6 770q0 44 -36 74t-36 61t38 53t38 55l-8 846q0 37 36 37l127 -16l149 12q26 0 26 -20z
" />
    <glyph glyph-name="bar" unicode="|" horiz-adv-x="428" 
d="M262 -350q0 -78 -35 -78q-45 0 -56 20t-11 105v125l12 1345v168l-2 176q0 27 11 38t39 11t37 -10q9 -12 9 -41l-2 -47l4 -317l-10 -1125q0 -199 2 -301l2 -53v-16z" />
    <glyph glyph-name="braceright" unicode="}" horiz-adv-x="559" 
d="M473 548q0 -30 -36 -60t-36 -74l7 -770q0 -25 -25 -25q-14 0 -53 14t-107 15t-104 -9q-35 -10 -37 -10q-16 0 -16 19q0 45 69 84q27 14 89 28t63 25l6 737l-6 862q0 18 -15 19q-55 0 -130 32t-74 81q0 20 25 20l149 -12l127 16q37 0 37 -37l-9 -846q0 -35 38 -57t38 -52z
" />
    <glyph glyph-name="asciitilde" unicode="~" horiz-adv-x="778" 
d="M59 352q0 8 29 52t82 92t102 47q49 0 122 -46t118 -46q78 0 137 74q20 26 29 26q41 0 41 -31q0 -10 -31 -52t-90 -87q-60 -45 -118 -45t-125 47t-107 47t-74 -28q-33 -28 -50 -56t-24 -27q-41 0 -41 33z" />
    <glyph glyph-name="uni00A0" unicode="&#xa0;" horiz-adv-x="436" 
 />
    <glyph glyph-name="exclamdown" unicode="&#xa1;" horiz-adv-x="565" 
d="M170 41q0 10 8 60t26 331q19 281 50 524q4 23 28 23t23 -21q31 -360 35 -466t15 -269q11 -161 11 -185t-27 -44q-28 -20 -75 -21q-94 0 -94 68zM121 1257q0 19 13 32t36 29t30 22q7 8 21 28q13 20 27 32t26 11t40 -23t39 -37t42 -43t31 -48t-15 -31t-25 -21t-19 -17
q-8 -7 -25 -28q-37 -49 -66 -49q-12 0 -42 31t-52 49t-42 31q-19 13 -19 32z" />
    <glyph glyph-name="cent" unicode="&#xa2;" horiz-adv-x="925" 
d="M469 123q0 260 2 647q0 20 -5 24q-4 4 -24 5q-83 0 -145 -91t-63 -236t72 -251q30 -41 77 -85t76 -44q10 0 10 31zM854 170q23 0 23 -20q0 -14 -30 -52t-105 -81q-75 -44 -169 -56q-23 -4 -25 -9t-1 -20v-118q0 -23 -39 -23t-39 19v131q0 14 -5 17t-28 3t-90 21
q-126 43 -196 148t-70 261t89 290t261 183q18 4 24 4q18 0 19 17v100q0 21 41 21t41 -19v-94q0 -12 5 -13q14 -3 26 -3h24q166 -14 185 -70q4 -23 4 -103t-23 -79q-18 0 -35 26q-31 51 -137 105q-29 14 -40 14t-11 -41l-4 -637q0 -14 6 -21t53 -7q46 0 108 26q62 28 96 54
t42 26z" />
    <glyph glyph-name="sterling" unicode="&#xa3;" horiz-adv-x="1140" 
d="M119 90q0 -20 19 -38t47 -17q28 0 63 17t51 44q-6 8 -47 20t-76 13q-57 0 -57 -39zM43 724q0 44 27 44h118q35 0 35 3t-14 48q-49 137 -49 250q0 201 123 302t275 101t254 -60q103 -62 103 -152q1 -33 -29 -68t-50 -35q-20 -1 -32 19t-26 60t-37 75t-81 61t-140 27
q-82 -1 -150 -59t-69 -182q0 -124 98 -347q9 -27 17 -34t22 -7h318q31 0 37 -7t6 -32t-2 -31q-4 -18 -45 -18h-250q-45 0 -45 -5q-1 -5 27 -88t28 -161t-11 -118q-28 -101 -71 -173q127 -35 254 -35t200 33q74 33 104 71t54 70t31 33q27 1 27 -27t-9 -63q-21 -81 -93 -164
q-154 -177 -625 0q-1 0 -65 -39t-133 -39t-101 33t-33 78q0 45 34 81t105 36t135 -32q25 -11 29 -11q10 8 26 54q15 46 15 89q0 98 -98 332q-2 4 -6 13q-11 25 -18 29q-7 3 -13 3h-14l-164 -2q-29 0 -29 44z" />
    <glyph glyph-name="currency" unicode="&#xa4;" horiz-adv-x="1079" 
d="M254 532q0 -122 84 -204t201 -82t201 85t85 204q0 119 -85 205q-84 86 -202 87q-118 0 -201 -87t-83 -208zM41 92q0 23 37 60l139 141q-80 103 -80 241t78 242l-137 142q-37 38 -37 62t16 39t40 15t61 -37l141 -141q105 80 239 80t242 -80l142 141q34 35 60 35t41 -16
t15 -39t-37 -59l-141 -144q84 -114 84 -240t-84 -239l141 -143q37 -37 37 -62t-17 -40t-40 -15t-59 37l-142 141q-106 -80 -241 -80t-240 78l-141 -139q-35 -35 -62 -35t-41 16t-14 39z" />
    <glyph glyph-name="yen" unicode="&#xa5;" horiz-adv-x="1458" 
d="M381 739q-33 1 -41 11t-8 32t4 34q4 13 49 13q186 1 186 5t-28 49l-201 299q-60 90 -110 137t-76 55t-71 8q-44 0 -44 25t24 31t103 6l119 -4l174 2q102 0 102 -24t-43 -39t-43 -34t13 -53q12 -34 26 -53q14 -20 41 -59q27 -38 61 -94t108 -155q73 -99 83 -100h16
q14 0 29 22q14 22 26 40q11 18 31 52l35 55t38 57q34 49 60 93l27 45q7 15 23 45t16 63t-24 53t-52 20q-76 4 -76 43q0 25 58 25l84 -2l217 -2q100 0 100 -31q0 -8 -12 -14q-12 -7 -35 -17t-41 -24q-94 -76 -276 -361l-64 -96q-10 -14 -25 -34q-16 -21 -16 -27t230 -7
q28 0 28 -44t-28 -44l-281 -2q-16 0 -25 -10q-25 -31 -24 -209q0 -16 3 -21t15 -5l29 2h256q33 0 40 -10t7 -32t-2 -30q-4 -20 -49 -21l-264 -2q-23 0 -29 -4t-6 -14v-23l2 -88v-49q0 -67 24 -107t44 -48t40 -9l41 -8q31 0 31 -22q0 -29 -37 -29l-198 2l-244 -10
q-51 0 -51 24q0 18 9 24t36 9q123 10 123 133l2 76q2 74 2 106t-6 36t-29 3h-129l-154 3q-29 0 -28 44q0 44 26 44h277q29 0 37 6t8 28l-2 70q0 53 -15 95q-14 42 -41 44l-30 2h-205z" />
    <glyph glyph-name="brokenbar" unicode="&#xa6;" horiz-adv-x="425" 
d="M170 848v663q0 27 11 38t39 11t37 -10q9 -12 9 -41v-708q0 -78 -33 -78q-45 -1 -54 19t-9 106zM262 -350q0 -78 -35 -78q-45 0 -56 20t-11 105l2 135l2 528q0 51 53 52q27 0 35 -12t8 -40v-376l2 -271v-63z" />
    <glyph glyph-name="section" unicode="&#xa7;" horiz-adv-x="1110" 
d="M874 518q0 143 -229 234q-199 76 -229 76t-101 -58q-71 -57 -71 -148t118 -161q58 -37 218 -92t165 -56q31 0 80 67t49 138zM932 1137q0 -59 -25 -60q-25 0 -39 31t-25 73t-52 93q-96 125 -281 125q-117 0 -177 -66q-61 -67 -61 -143t97 -131q47 -27 138 -59t167 -62
t151 -74q164 -94 164 -276q0 -120 -46 -196q-45 -76 -77 -96t-32 -28q0 -6 19 -16t50 -40t55 -88t23 -106q0 -180 -127 -284t-322 -105q-92 1 -160 15t-159 63q-31 15 -61 153t-29 180q0 42 29 42t38 -25q39 -106 63 -140t54 -75t94 -81q63 -40 169 -40q106 1 202 61
q94 60 94 171q0 57 -55 102t-138 74q-203 71 -359 149q-83 42 -138 116t-55 154q0 145 74 221q55 57 94 77t39 25t-29 23t-61 42q-32 23 -62 75q-29 52 -29 119q0 150 113 247t281 98q98 0 177 -28t89 -28l47 15q35 0 37 -21q41 -268 41 -276z" />
    <glyph glyph-name="dieresis" unicode="&#xa8;" horiz-adv-x="899" 
d="M539 1210q0 29 31 67q32 38 66 38t66 -36t31 -69q0 -32 -36 -70t-54 -38q-41 0 -73 40t-31 68zM211 1210q0 29 32 67q31 38 65 38t66 -36t32 -69q0 -32 -36 -70t-53 -38q-41 0 -73 40t-33 68z" />
    <glyph glyph-name="copyright" unicode="&#xa9;" horiz-adv-x="1630" 
d="M821 1075q-154 0 -252 -94q-98 -95 -98 -243t82 -283q41 -70 127 -113t203 -43q164 0 278 162q12 18 22 41q9 24 15 30t25 7q14 0 14 -17q0 -51 -25 -170q-4 -20 -26 -28q-168 -84 -254 -95q-39 -6 -82 -6q-129 0 -226 35t-151 83q-53 48 -95 131t-42 187q0 209 128 347
t357 139q140 0 282 -68q46 -23 49 -23t9 7q6 6 16 6q27 0 27 -51l19 -152q0 -31 -27 -30q-16 0 -29 22q-121 219 -346 219zM176 684q0 -266 190 -454t453 -187q262 0 453 186q190 187 190 453t-186 456t-457 191q-271 0 -457 -189q-186 -190 -186 -456zM90 683
q0 302 212 518t516 216t517 -216t213 -514t-211 -514t-514 -216t-518 212t-215 514z" />
    <glyph glyph-name="ordfeminine" unicode="&#xaa;" horiz-adv-x="618" 
d="M180 942q0 -88 94 -88q53 0 81 25t31 45t3 51v82q0 10 -8 10q-25 -4 -76 -12q-125 -19 -125 -113zM506 799q-35 0 -61 20t-37 41l-13 21q-2 0 -15 -16t-58 -45q-45 -30 -103 -29q-160 0 -160 122q0 59 46 97q47 38 91 48q44 11 104 21t67 13q23 4 22 18l2 59
q0 70 -40 102t-79 32q-88 0 -88 -72l6 -43q0 -25 -28 -25q-58 -1 -76 17t-18 32q0 51 70 96q71 44 151 44q156 0 190 -62q25 -45 25 -94l-8 -233q0 -73 12 -95t39 -22l26 2q16 0 17 -21q0 -29 -35 -28h-49z" />
    <glyph glyph-name="guillemotleft" unicode="&#xab;" horiz-adv-x="737" 
d="M657 678q0 -10 -97 -116t-97 -118t95 -120t95 -116t-10 -22t-19 -14q-10 0 -106 85t-151 131t-56 56q0 10 13 21q295 248 301 250q10 1 21 -13t11 -24zM41 442q0 10 12 23q83 72 187 161t113 89q9 1 21 -13t11 -25q0 -11 -95 -117t-95 -116q0 -12 95 -117t95 -117
t-12 -24q-11 -14 -21 -14t-113 91t-188 163q-10 6 -10 16z" />
    <glyph glyph-name="logicalnot" unicode="&#xac;" horiz-adv-x="1079" 
d="M102 475h875q27 0 34 -6t7 -33v-323q0 -31 -33 -31h-35q-25 4 -24 41v227q0 35 -54 35h-770q-26 0 -32 11t-7 45q0 34 39 34z" />
    <glyph glyph-name="uni00AD" unicode="&#xad;" horiz-adv-x="696" 
d="M90 297v22q0 59 20 75t112 45q93 28 177 58t114 41t48 11q45 0 45 -70v-12q0 -47 -19 -61t-118 -42q-99 -27 -256 -90q-61 -20 -92 -20t-31 43z" />
    <glyph glyph-name="registered" unicode="&#xae;" horiz-adv-x="978" 
d="M578 1226q0 42 -32 76t-100 33q-22 0 -28 -8t-6 -39v-67q0 -41 5 -55t23 -15l29 -2q61 0 85 18q24 17 24 59zM274 1333q-23 0 -22 15q0 18 24 18h48l155 4q76 0 127 -32t51 -99q1 -39 -23 -63t-46 -31q-22 -8 -23 -10t19 -24q20 -23 38 -55t64 -95q25 -31 43 -31h4
q6 2 12 2q7 0 7 -9t-12 -21t-41 -13q-29 0 -57 16q-28 15 -85 113t-74 102h-51q-14 0 -17 -6t-3 -55t8 -87t45 -45t37 -19t-15 -11l-104 4q-23 0 -57 -2l-35 -2q-14 0 -15 14q0 9 26 15t29 34t3 74v49l2 197q0 53 -62 53zM856 1120q0 150 -110 258t-259 109
q-149 0 -258 -109q-109 -108 -109 -258t110 -258q108 -108 258 -106q150 0 258 108q110 106 110 256zM59 1120q0 178 125 304t303 126q177 0 305 -126t128 -304t-127 -304t-305 -126t-304 126q-125 126 -125 304z" />
    <glyph glyph-name="macron" unicode="&#xaf;" horiz-adv-x="899" 
d="M637 1153l-385 2q-20 0 -21 45q0 45 33 45l371 -4q18 0 24 -10q7 -10 7 -44t-29 -34z" />
    <glyph glyph-name="degree" unicode="&#xb0;" horiz-adv-x="530" 
d="M147 1245q0 -53 34 -88t85 -35t85 38t34 85q0 125 -117 125q-43 0 -82 -36t-39 -89zM471 1230q0 -85 -77 -141q-77 -57 -133 -57t-101 25t-66 63q-32 68 -32 136t60 136t153 68t145 -72q51 -73 51 -158z" />
    <glyph glyph-name="plusminus" unicode="&#xb1;" horiz-adv-x="1079" 
d="M63 664q0 45 37 45h371q23 0 23 20v285q0 30 34 30t45 -6q10 -6 11 -28v-279q0 -23 24 -22h375q33 0 33 -36t-11 -46t-32 -11h-365q-25 0 -24 -34v-271q0 -29 -34 -29t-45 6q-11 5 -11 23v271q0 20 -6 27t-27 7h-363q-25 0 -30 10t-5 38zM63 184q0 23 3 33q2 23 34 23
h879q23 0 30 -8t7 -34t-7 -37t-36 -11h-875q-18 0 -26 6t-9 28z" />
    <glyph glyph-name="uni00B2" unicode="&#xb2;" 
d="M86 827v4q0 13 36 53t104 139q69 99 128 224t60 234q0 51 -34 83t-109 31t-136 -55q-19 -18 -29 -18t-10 19t28 53q91 106 209 106q87 0 148 -44q130 -94 -16 -360q-78 -141 -156 -245q-78 -103 -78 -111q1 -8 59 -8h120l82 4q4 0 15 5l22 10t40 33t37 28q14 0 15 -13
l-89 -161q-18 -27 -43 -27l-219 4l-143 -2q-41 0 -41 14z" />
    <glyph glyph-name="uni00B3" unicode="&#xb3;" 
d="M246 1272q0 8 19 18t86 62t67 131q0 47 -31 80q-65 69 -177 -2q-54 -35 -62 -35t-7 10q0 37 75 94q76 58 144 58t122 -37t55 -109q1 -41 -19 -77t-38 -53t-52 -43q-33 -26 -33 -30t37 -11t80 -34q96 -61 96 -164q0 -147 -97 -246t-228 -100q-72 0 -137 31t-64 64
q0 20 27 20q6 0 22 -14q47 -41 141 -41t151 80q56 80 56 158t-41 126q-41 49 -137 49l-39 -4q-16 0 -16 19z" />
    <glyph glyph-name="acute" unicode="&#xb4;" horiz-adv-x="899" 
d="M371 1006q0 10 14 30q66 98 139 281q16 39 41 39t67 -14t42 -39q0 -47 -199 -256q-59 -63 -82 -64q-22 0 -22 23z" />
    <glyph glyph-name="uni00B5" unicode="&#xb5;" horiz-adv-x="1097" 
d="M82 -408q-62 0 -62 100t20 197q18 97 72 279t100 414t54 256t26 24t55 -12q38 -12 38 -36t-51 -316t-51 -334q0 -74 41 -74q70 0 168 115q158 186 301 520q29 67 35 91q11 46 24 46h10q27 0 58 -13t30 -30q0 -6 -63 -307t-64 -340q0 -70 51 -70q45 0 84 74t56 74
q23 0 22 -35q0 -74 -86 -166t-194 -92q-82 0 -82 147q0 52 19 176t20 131q0 7 -5 7q-6 0 -52 -85t-134 -181q-172 -188 -293 -189q-31 0 -50 22q-19 23 -26 45t-11 22t-22 -72t-18 -132t27 -123q27 -61 27 -73t-18 -36t-56 -24z" />
    <glyph glyph-name="paragraph" unicode="&#xb6;" horiz-adv-x="1034" 
d="M699 1425q-28 0 -27 -26q-4 -262 -4 -363l2 -307q0 -203 2 -438l4 -238q0 -81 -3 -115t-3 -36q0 -23 14 -23q8 0 26 43q18 44 34 134t16 190l-4 1143q0 36 -57 36zM562 1419q-60 0 -75 -43q-16 -53 -19 -101t-3 -245q0 -313 98 -313q18 0 37 11q18 11 18 28v71l-4 232
q0 234 7 276q1 84 -59 84zM90 1034q0 188 129 309t279 121l274 2l123 4h25q6 0 12 -8t6 -17t-15 -17t-40 -17q-25 -10 -47 -34t-21 -126l-6 -1058q0 -244 -108 -408t-283 -164q-82 0 -137 31q-16 8 -17 47q0 39 22 90t40 51t34 -54q32 -104 125 -103q135 0 136 430l2 63
l-7 453q0 29 -61 29q-129 -1 -220 28q-93 29 -137 67q-44 39 -76 111t-32 170z" />
    <glyph glyph-name="periodcentered" unicode="&#xb7;" horiz-adv-x="516" 
d="M260 793q32 0 63 -42t31 -75t-39 -73t-57 -40q-41 0 -71 44t-29 72q0 28 35 71t67 43z" />
    <glyph glyph-name="cedilla" unicode="&#xb8;" horiz-adv-x="899" 
d="M348 -162q0 6 23 22t41 34q18 16 32 16q44 0 79 -42q34 -42 34 -83q1 -88 -65 -142q-66 -55 -95 -55t-28 15q0 6 22 18q63 33 63 92t-79 97q-27 12 -27 28z" />
    <glyph glyph-name="uni00B9" unicode="&#xb9;" 
d="M191 1536q-23 0 -23 28q0 17 15 26t79 30t106 51q42 31 52 31q20 0 20 -29l-12 -61q-8 -205 -8 -410l-4 -244q0 -70 37 -82t86 -12q25 -4 25 -28t-72 -23l-127 2l-152 -4q-39 0 -39 27q0 26 41 26t56 8q32 17 32 291v215l2 92v17q0 74 -43 74q-16 -1 -39 -13t-32 -12z
" />
    <glyph glyph-name="ordmasculine" unicode="&#xba;" horiz-adv-x="743" 
d="M180 1094q0 -114 68 -187t146 -73t125 51q48 51 48 153t-58 186t-165 83q-64 -1 -114 -50t-50 -163zM59 1064q0 114 84 199q85 85 221 85t228 -75t92 -206t-95 -206t-231 -75t-218 82q-81 82 -81 196z" />
    <glyph glyph-name="guillemotright" unicode="&#xbb;" horiz-adv-x="737" 
d="M350 210q0 12 96 116t97 116q0 12 -96 122q-95 110 -95 117t12 20t22 14q11 1 115 -94q105 -93 150 -131t45 -46t-14 -22q-111 -94 -201 -172q-91 -78 -99 -78t-20 13t-12 25zM80 210q0 12 97 119t97 115t-95 117t-95 118t10 22t20 13t105 -84q96 -85 195 -169
q12 -9 12 -19t-14 -20q-98 -84 -194 -167t-106 -83t-21 13t-11 25z" />
    <glyph glyph-name="onequarter" unicode="&#xbc;" horiz-adv-x="1869" 
d="M1352 393q0 -12 37 -12h165q35 0 35 14v13l2 53q4 106 4 178t-7 72q-8 0 -122 -150t-114 -168zM1696 897q20 0 20 -25l-14 -456q0 -18 2 -24t34 -5q32 0 56 17q24 18 35 18q10 0 10 -12t-14 -70q-10 -63 -31 -64l-72 3q-25 0 -24 -23l4 -164v-108q0 -44 -6 -50t-45 -14
t-55 -8t-25 10q-8 10 -8 16t5 22q5 15 13 96t8 214q0 8 -10 9h-16l-64 -3h-96l-148 -2q-37 0 -36 22q0 22 50 88t189 240q140 174 158 198t39 50t41 25zM401 -147q0 24 333 520q590 880 612 917q31 41 43 41t25 -9q13 -10 13 -22t-16 -38q-594 -887 -891 -1358
q-53 -82 -64 -86t-20 -4q-35 0 -35 39zM191 1174q-23 0 -23 27q0 17 15 27t80 29q65 20 106 52q41 31 51 30q20 0 20 -28l-12 -62q-8 -205 -8 -409l-4 -244q0 -70 37 -82t86 -12q25 -4 25 -28t-72 -23l-127 2l-152 -4q-39 0 -39 24q0 29 41 29t56 8q32 17 32 291v215l2 92
v16q0 74 -43 74q-16 0 -39 -12t-32 -12z" />
    <glyph glyph-name="onehalf" unicode="&#xbd;" horiz-adv-x="1869" 
d="M1266 37v4q0 12 36 52t104 139q69 98 128 224t59 234q0 51 -33 83q-34 32 -90 32q-56 -1 -96 -19q-39 -18 -59 -36t-30 -19q-9 0 -9 19t28 53q91 106 208 106q86 0 148 -44t62 -131t-78 -228q-78 -142 -155 -246q-78 -104 -78 -112t58 -7h120l82 4q3 -1 15 5t23 11t40 33
t37 27q14 0 14 -12l-88 -162q-18 -27 -43 -27l-219 5l-143 -2q-41 0 -41 14zM401 -147q0 24 333 520q590 880 612 917q31 41 43 41t25 -9q13 -10 13 -22t-16 -38q-594 -887 -891 -1358q-53 -82 -64 -86t-20 -4q-35 0 -35 39zM191 1174q-23 0 -23 27q0 17 15 27t80 29
q65 20 106 52q41 31 51 30q20 0 20 -28l-12 -62q-8 -205 -8 -409l-4 -244q0 -70 37 -82t86 -12q25 -4 25 -28t-72 -23l-127 2l-152 -4q-39 0 -39 24q0 29 41 29t56 8q32 17 32 291v215l2 92v16q0 74 -43 74q-16 0 -39 -12t-32 -12z" />
    <glyph glyph-name="threequarters" unicode="&#xbe;" horiz-adv-x="1869" 
d="M1352 393q0 -12 37 -12h165q35 0 35 14v13l2 53q4 106 4 178t-7 72q-8 0 -122 -150t-114 -168zM1696 897q20 0 20 -25l-14 -456q0 -18 2 -24t34 -5q32 0 56 17q24 18 35 18q10 0 10 -12t-14 -70q-10 -63 -31 -64l-72 3q-25 0 -24 -23l4 -164v-108q0 -44 -6 -50t-45 -14
t-55 -8t-25 10q-8 10 -8 16t5 22q5 15 13 96t8 214q0 8 -10 9h-16l-64 -3h-96l-148 -2q-37 0 -36 22q0 22 50 88t189 240q140 174 158 198t39 50t41 25zM401 -147q0 24 333 520q590 880 612 917q31 41 43 41t25 -9q13 -10 13 -22t-16 -38q-594 -887 -891 -1358
q-53 -82 -64 -86t-20 -4q-35 0 -35 39zM246 909q0 9 19 19t86 61t67 131q0 47 -31 80t-77 33t-100 -35t-62 -35t-7 11q0 37 75 94q76 57 144 57t122 -37t55 -108q1 -41 -19 -77t-38 -53t-52 -43q-33 -26 -33 -30t37 -11t80 -34q96 -61 96 -164q0 -146 -97 -246t-228 -100
q-72 0 -137 31t-64 63q0 20 27 21q6 0 22 -15q47 -41 141 -41t151 80q56 80 56 158t-41 127t-137 49l-39 -4q-16 0 -16 18z" />
    <glyph glyph-name="questiondown" unicode="&#xbf;" horiz-adv-x="716" 
d="M362 1378q17 0 45 -22q27 -22 37 -37q10 -14 41 -39t31 -44t-72 -81q-6 -6 -32 -36t-46 -29q-19 1 -45 35t-28 36l-21 17q-51 41 -51 63t36 42t62 57q26 38 43 38zM432 786q0 -60 -93 -274q-93 -213 -93 -284q0 -70 66 -112t111 -42q46 0 83 26t39 27q16 0 16 -28
q-1 -29 -65 -73t-160 -44t-179 61t-83 172q0 68 45 154q45 85 99 155t99 160t45 162l-12 94q0 20 17 21q31 1 48 -57t17 -118z" />
    <glyph glyph-name="Agrave" unicode="&#xc0;" horiz-adv-x="1662" 
d="M604 1843q0 27 43 40t67 13t46 -54q58 -140 125 -247l18 -30q6 -10 6 -19q0 -23 -22 -22q-23 0 -82 63q-201 211 -201 256zM555 690q0 -25 18 -31t86 -6h64l195 2q80 0 79 30q0 30 -100 256t-127 226q-19 0 -117 -226t-98 -251zM41 16q0 29 31 39q66 25 114 110t247 514
q198 429 351 757q14 31 26 39t33 8t27 -8q6 -7 22 -55t26 -72t30 -80q20 -55 66 -166t206 -485q162 -373 186 -423t67 -86t75 -39t53 -11q22 -8 21 -31q0 -31 -55 -31l-185 12l-190 -8q-63 0 -81 5q-17 5 -17 21q0 28 51 39q51 8 51 69q0 36 -51 175t-86 205q-18 35 -84 35
l-248 -4h-109q-92 0 -116 -10t-38 -43q-15 -34 -44 -92t-39 -81t-31 -71q-45 -102 3 -154q24 -25 53 -28q76 -6 75 -39q0 -13 -6 -21t-29 -8l-170 2l-176 -8q-59 0 -59 24z" />
    <glyph glyph-name="Aacute" unicode="&#xc1;" horiz-adv-x="1662" 
d="M752 1546q0 10 14 31q66 98 139 281q16 38 41 38t67 -13t42 -40q0 -47 -199 -256q-59 -63 -82 -63q-22 -1 -22 22zM555 690q0 -25 18 -31t86 -6h64l195 2q80 0 79 30q0 30 -100 256t-127 226q-19 0 -117 -226t-98 -251zM41 16q0 29 31 39q66 25 114 110t247 514
q198 429 351 757q14 31 26 39t33 8t27 -8q6 -7 22 -55t26 -72t30 -80q20 -55 66 -166t206 -485q162 -373 186 -423t67 -86t75 -39t53 -11q22 -8 21 -31q0 -31 -55 -31l-185 12l-190 -8q-63 0 -81 5q-17 5 -17 21q0 28 51 39q51 8 51 69q0 36 -51 175t-86 205q-18 35 -84 35
l-248 -4h-109q-92 0 -116 -10t-38 -43q-15 -34 -44 -92t-39 -81t-31 -71q-45 -102 3 -154q24 -25 53 -28q76 -6 75 -39q0 -13 -6 -21t-29 -8l-170 2l-176 -8q-59 0 -59 24z" />
    <glyph glyph-name="Acircumflex" unicode="&#xc2;" horiz-adv-x="1662" 
d="M600 1563q0 2 8 18q127 186 146 227q18 41 26 50t21 10h51q23 0 35 -23q51 -90 113 -181t62 -103q0 -13 -18 -13t-113 87t-105 87t-100 -86t-108 -86t-18 13zM555 690q0 -25 18 -31t86 -6h64l195 2q80 0 79 30q0 30 -100 256t-127 226q-19 0 -117 -226t-98 -251zM41 16
q0 29 31 39q66 25 114 110t247 514q198 429 351 757q14 31 26 39t33 8t27 -8q6 -7 22 -55t26 -72t30 -80q20 -55 66 -166t206 -485q162 -373 186 -423t67 -86t75 -39t53 -11q22 -8 21 -31q0 -31 -55 -31l-185 12l-190 -8q-63 0 -81 5q-17 5 -17 21q0 28 51 39q51 8 51 69
q0 36 -51 175t-86 205q-18 35 -84 35l-248 -4h-109q-92 0 -116 -10t-38 -43q-15 -34 -44 -92t-39 -81t-31 -71q-45 -102 3 -154q24 -25 53 -28q76 -6 75 -39q0 -13 -6 -21t-29 -8l-170 2l-176 -8q-59 0 -59 24z" />
    <glyph glyph-name="Atilde" unicode="&#xc3;" horiz-adv-x="1662" 
d="M528 1626q0 35 69 126t124 91t133 -49t123 -49t87 57t46 58q20 0 20 -31t-68 -117t-124 -86q-57 0 -138 49t-118 49t-65 -28t-45 -58q-17 -29 -23 -28q-21 0 -21 16zM555 690q0 -25 18 -31t86 -6h64l195 2q80 0 79 30q0 30 -100 256t-127 226q-19 0 -117 -226t-98 -251z
M41 16q0 29 31 39q66 25 114 110t247 514q198 429 351 757q14 31 26 39t33 8t27 -8q6 -7 22 -55t26 -72t30 -80q20 -55 66 -166t206 -485q162 -373 186 -423t67 -86t75 -39t53 -11q22 -8 21 -31q0 -31 -55 -31l-185 12l-190 -8q-63 0 -81 5q-17 5 -17 21q0 28 51 39
q51 8 51 69q0 36 -51 175t-86 205q-18 35 -84 35l-248 -4h-109q-92 0 -116 -10t-38 -43q-15 -34 -44 -92t-39 -81t-31 -71q-45 -102 3 -154q24 -25 53 -28q76 -6 75 -39q0 -13 -6 -21t-29 -8l-170 2l-176 -8q-59 0 -59 24z" />
    <glyph glyph-name="Adieresis" unicode="&#xc4;" horiz-adv-x="1662" 
d="M920 1751q0 29 31 67q65 77 131 2q32 -36 32 -69t-36 -71t-54 -38q-41 0 -73 40q-31 40 -31 69zM592 1751q0 29 32 67q64 76 128 4q64 -71 -1 -142q-36 -38 -53 -38q-42 0 -74 40t-32 69zM555 690q0 -25 18 -31t86 -6h64l195 2q80 0 79 30q0 30 -100 256t-127 226
q-19 0 -117 -226t-98 -251zM41 16q0 29 31 39q66 25 114 110t247 514q198 429 351 757q14 31 26 39t33 8t27 -8q6 -7 22 -55t26 -72t30 -80q20 -55 66 -166t206 -485q162 -373 186 -423t67 -86t75 -39t53 -11q22 -8 21 -31q0 -31 -55 -31l-185 12l-190 -8q-63 0 -81 5
q-17 5 -17 21q0 28 51 39q51 8 51 69q0 36 -51 175t-86 205q-18 35 -84 35l-248 -4h-109q-92 0 -116 -10t-38 -43q-15 -34 -44 -92t-39 -81t-31 -71q-45 -102 3 -154q24 -25 53 -28q76 -6 75 -39q0 -13 -6 -21t-29 -8l-170 2l-176 -8q-59 0 -59 24z" />
    <glyph glyph-name="Aring" unicode="&#xc5;" horiz-adv-x="1662" 
d="M774 1688q22 -24 56 -23q33 1 55 25t22 55q0 84 -76 84q-28 0 -54 -24q-25 -25 -25 -59t22 -58zM674 1762q0 42 47 94t118 53t109 -55t37 -120q0 -64 -58 -107q-59 -42 -109 -42t-88 34t-47 67q-9 34 -9 76zM555 690q0 -25 18 -31t86 -6h64l195 2q80 0 79 30
q0 30 -100 256t-127 226q-19 0 -117 -226t-98 -251zM41 16q0 29 31 39q66 25 114 110t247 514q198 429 351 757q14 31 26 39t33 8t27 -8q6 -7 22 -55t26 -72t30 -80q20 -55 66 -166t206 -485q162 -373 186 -423t67 -86t75 -39t53 -11q22 -8 21 -31q0 -31 -55 -31l-185 12
l-190 -8q-63 0 -81 5q-17 5 -17 21q0 28 51 39q51 8 51 69q0 36 -51 175t-86 205q-18 35 -84 35l-248 -4h-109q-92 0 -116 -10t-38 -43q-15 -34 -44 -92t-39 -81t-31 -71q-45 -102 3 -154q24 -25 53 -28q76 -6 75 -39q0 -13 -6 -21t-29 -8l-170 2l-176 -8q-59 0 -59 24z" />
    <glyph glyph-name="AE" unicode="&#xc6;" horiz-adv-x="2033" 
d="M594 686q0 -33 102 -33h187q106 1 128 9t21 51v520q0 102 -28 127q-14 10 -40 10t-53 -43q-65 -113 -191 -367t-126 -274zM41 16q0 29 33 39q63 25 112 101t251 468t360 691q10 20 10 39q0 29 -107 39q-47 2 -47 39q0 31 62 30q14 0 274 -7t461 -7l410 6q37 0 36 -47
q0 -12 -11 -81t-11 -121t-32 -52t-32 49t-35 94q-36 45 -87 47q-184 14 -281 15h-53q-106 0 -124 -16t-24 -118q-6 -101 -6 -333q0 -102 37 -105h203q121 0 162 8t77 33q36 24 42 66q5 43 32 43q19 0 23 -6t4 -24t-10 -97q-10 -80 -9 -121l8 -125q0 -51 -14 -51
q-29 0 -49 67t-47 83q-43 29 -152 28h-147l-66 2h-12q-84 0 -84 -39l-4 -295v-82q0 -147 49 -162t86 -16q182 0 309 20q126 20 182 50q56 28 84 56t39 48t25 21q25 0 25 -35q0 -88 -89 -178t-155 -90q-147 0 -331 10t-230 10l-281 -18q-41 0 -41 20v25q0 12 22 15t68 26
q46 24 62 94t16 299v57q0 10 -12 11l-172 4h-64l-155 2q-80 0 -104 -11t-38 -40q-13 -29 -37 -73t-34 -63l-25 -51q-53 -106 -53 -156q0 -49 36 -69t72 -26t35 -27q0 -31 -34 -31l-173 2l-176 -8q-59 0 -59 24z" />
    <glyph glyph-name="Ccedilla" unicode="&#xc7;" horiz-adv-x="1652" 
d="M815 -162q0 6 23 22t40 34q17 16 33 16q44 0 79 -42q34 -42 34 -83q0 -88 -66 -142q-66 -55 -94 -55t-28 15q0 6 22 18q64 33 64 92t-80 97q-27 12 -27 28zM1440 1333q10 0 20 -8t11 -46q1 -39 9 -105t13 -109q6 -43 6 -51q0 -37 -24 -37q-18 0 -35 29q-199 373 -574 372
q-256 0 -420 -164t-164 -444t152 -487q78 -105 213 -167t316 -63q295 0 495 307q8 14 31 15q18 0 18 -26t-13 -93t-20 -101q-8 -33 -36 -46q-111 -53 -172 -80q-164 -70 -350 -70q-508 0 -715 320q-111 166 -111 387t86 399t265 288t425 109q125 0 252 -37t203 -73l76 -39
q6 0 20 10q13 10 23 10z" />
    <glyph glyph-name="Egrave" unicode="&#xc8;" horiz-adv-x="1236" 
d="M406 1843q0 27 43 40t67 13t46 -54q58 -140 124 -247l19 -30q6 -10 6 -19q0 -22 -23 -22t-82 63q-200 211 -200 256zM41 1432q0 29 57 28l56 -4l499 -10l410 8q39 0 39 -47q0 -12 -12 -81t-12 -121t-32 -52t-32 49t-35 94t-86 47q-184 14 -283 15h-53q-106 0 -123 -15
q-31 -27 -31 -452q0 -102 39 -105h201q123 0 164 9q106 20 121 106q6 35 26 35t24 -6t5 -27l-16 -215l6 -125q0 -51 -15 -51q-31 0 -45 49q-29 86 -51 101q-43 29 -149 28h-148l-65 2h-15q-84 0 -84 -39l-4 -295v-82q0 -147 50 -162t88 -16q307 0 436 47t155 97q25 51 45 51
q25 0 25 -35q0 -88 -88 -178t-154 -90q-147 0 -332 10t-231 10l-278 -18q-43 0 -43 20v25q0 12 22 15t68 26q47 22 62 94t16 301v254l6 354q0 55 -4 187q-2 59 -52 92t-114 35q-33 0 -33 37z" />
    <glyph glyph-name="Eacute" unicode="&#xc9;" horiz-adv-x="1236" 
d="M553 1546q0 10 14 31q66 98 140 281q16 38 41 38q24 0 66 -13t42 -40q0 -47 -199 -256q-59 -63 -82 -63q-22 -1 -22 22zM41 1432q0 29 57 28l56 -4l499 -10l410 8q39 0 39 -47q0 -12 -12 -81t-12 -121t-32 -52t-32 49t-35 94t-86 47q-184 14 -283 15h-53q-106 0 -123 -15
q-31 -27 -31 -452q0 -102 39 -105h201q123 0 164 9q106 20 121 106q6 35 26 35t24 -6t5 -27l-16 -215l6 -125q0 -51 -15 -51q-31 0 -45 49q-29 86 -51 101q-43 29 -149 28h-148l-65 2h-15q-84 0 -84 -39l-4 -295v-82q0 -147 50 -162t88 -16q307 0 436 47t155 97q25 51 45 51
q25 0 25 -35q0 -88 -88 -178t-154 -90q-147 0 -332 10t-231 10l-278 -18q-43 0 -43 20v25q0 12 22 15t68 26q47 22 62 94t16 301v254l6 354q0 55 -4 187q-2 59 -52 92t-114 35q-33 0 -33 37z" />
    <glyph glyph-name="Ecircumflex" unicode="&#xca;" horiz-adv-x="1236" 
d="M401 1563q0 2 9 18q127 186 145 227q19 41 27 50t20 10h51q23 0 35 -23q52 -90 114 -181t62 -99q0 -17 -18 -17t-114 87t-104 87t-100 -86t-110 -86t-17 13zM41 1432q0 29 57 28l56 -4l499 -10l410 8q39 0 39 -47q0 -12 -12 -81t-12 -121t-32 -52t-32 49t-35 94t-86 47
q-184 14 -283 15h-53q-106 0 -123 -15q-31 -27 -31 -452q0 -102 39 -105h201q123 0 164 9q106 20 121 106q6 35 26 35t24 -6t5 -27l-16 -215l6 -125q0 -51 -15 -51q-31 0 -45 49q-29 86 -51 101q-43 29 -149 28h-148l-65 2h-15q-84 0 -84 -39l-4 -295v-82q0 -147 50 -162
t88 -16q307 0 436 47t155 97q25 51 45 51q25 0 25 -35q0 -88 -88 -178t-154 -90q-147 0 -332 10t-231 10l-278 -18q-43 0 -43 20v25q0 12 22 15t68 26q47 22 62 94t16 301v254l6 354q0 55 -4 187q-2 59 -52 92t-114 35q-33 0 -33 37z" />
    <glyph glyph-name="Edieresis" unicode="&#xcb;" horiz-adv-x="1236" 
d="M721 1751q0 29 32 67q64 76 128 4q64 -71 -1 -142q-36 -38 -55 -38q-41 0 -73 40t-31 69zM393 1751q0 29 32 67q64 76 131 2q32 -36 32 -69t-36 -71t-52 -38q-41 0 -74 40t-33 69zM41 1432q0 29 57 28l56 -4l499 -10l410 8q39 0 39 -47q0 -12 -12 -81t-12 -121t-32 -52
t-32 49t-35 94t-86 47q-184 14 -283 15h-53q-106 0 -123 -15q-31 -27 -31 -452q0 -102 39 -105h201q123 0 164 9q106 20 121 106q6 35 26 35t24 -6t5 -27l-16 -215l6 -125q0 -51 -15 -51q-31 0 -45 49q-29 86 -51 101q-43 29 -149 28h-148l-65 2h-15q-84 0 -84 -39l-4 -295
v-82q0 -147 50 -162t88 -16q307 0 436 47t155 97q25 51 45 51q25 0 25 -35q0 -88 -88 -178t-154 -90q-147 0 -332 10t-231 10l-278 -18q-43 0 -43 20v25q0 12 22 15t68 26q47 22 62 94t16 301v254l6 354q0 55 -4 187q-2 59 -52 92t-114 35q-33 0 -33 37z" />
    <glyph glyph-name="Igrave" unicode="&#xcc;" horiz-adv-x="671" 
d="M80 1843q0 27 43 40t67 13t46 -54t50 -111t45 -86t29 -50l19 -30q6 -10 6 -19q0 -22 -23 -22t-81 63q-201 211 -201 256zM70 28q0 30 63 38q25 2 51 26t34 52q7 30 16 248t10 315v116l2 221v95q0 90 -7 144t-55 81t-96 29q-47 1 -47 31t57 30l232 -8l180 4q55 0 55 -29
q0 -16 -94 -55q-66 -27 -65 -236l-7 -757q0 -172 48 -242t102 -70l41 -2q41 0 43 -30q0 -29 -51 -29l-195 8l-225 -10q-92 0 -92 30z" />
    <glyph glyph-name="Iacute" unicode="&#xcd;" horiz-adv-x="671" 
d="M227 1546q0 10 15 31q66 98 139 281q16 38 41 38q24 0 66 -13t42 -40q0 -47 -198 -256q-59 -63 -82 -63t-23 22zM70 28q0 30 63 38q25 2 51 26t34 52q7 30 16 248t10 315v116l2 221v95q0 90 -7 144t-55 81t-96 29q-47 1 -47 31t57 30l232 -8l180 4q55 0 55 -29
q0 -16 -94 -55q-66 -27 -65 -236l-7 -757q0 -172 48 -242t102 -70l41 -2q41 0 43 -30q0 -29 -51 -29l-195 8l-225 -10q-92 0 -92 30z" />
    <glyph glyph-name="Icircumflex" unicode="&#xce;" horiz-adv-x="671" 
d="M76 1563q0 2 8 18q127 186 145 227q19 41 27 50t20 10h52q23 0 34 -23q52 -90 114 -181t62 -103q0 -13 -18 -13t-113 87t-105 87t-100 -86t-108 -86t-18 13zM70 28q0 30 63 38q25 2 51 26t34 52q7 30 16 248t10 315v116l2 221v95q0 90 -7 144t-55 81t-96 29q-47 1 -47 31
t57 30l232 -8l180 4q55 0 55 -29q0 -16 -94 -55q-66 -27 -65 -236l-7 -757q0 -172 48 -242t102 -70l41 -2q41 0 43 -30q0 -29 -51 -29l-195 8l-225 -10q-92 0 -92 30z" />
    <glyph glyph-name="Idieresis" unicode="&#xcf;" horiz-adv-x="671" 
d="M395 1751q0 29 32 67q65 77 131 2q32 -36 32 -69t-36 -71t-54 -38q-41 0 -73 40t-32 69zM68 1751q0 29 31 67q65 77 131 2q32 -36 32 -69t-36 -71t-52 -38q-41 0 -74 40q-32 40 -32 69zM70 28q0 30 63 38q25 2 51 26t34 52q7 30 16 248t10 315v116l2 221v95q0 90 -7 144
t-55 81t-96 29q-47 1 -47 31t57 30l232 -8l180 4q55 0 55 -29q0 -16 -94 -55q-66 -27 -65 -236l-7 -757q0 -172 48 -242t102 -70l41 -2q41 0 43 -30q0 -29 -51 -29l-195 8l-225 -10q-92 0 -92 30z" />
    <glyph glyph-name="Eth" unicode="&#xd0;" horiz-adv-x="1622" 
d="M739 70h41q140 0 238 40t188 126q152 145 152 471q0 164 -65 297t-169 213q-215 162 -469 161h-82q-98 0 -131 -35q-32 -32 -32 -139v-86l-2 -287q0 -29 6 -37t37 -8h309q29 0 36 -10t7 -32t-2 -27q-6 -20 -45 -21l-307 -2h-21q-16 0 -19 -4t-3 -20v-11l-3 -370
q0 -94 21 -136q8 -18 57 -34q78 -17 129 -33t129 -16zM41 1432q0 20 17 23t87 3h179l399 8q297 0 543 -168q118 -80 192 -210t74 -281q0 -152 -20 -257t-64 -182q-45 -77 -90 -125q-45 -47 -115 -105q-71 -58 -187 -101t-239 -43l-491 10q-72 0 -133 -5t-72 -5q-49 0 -49 26
q0 16 7 24t31 13q59 15 90 60q32 45 31 84l2 463q0 18 -5 25t-23 7h-133q-25 0 -25 44t25 44l133 2q20 0 24 6t4 29l-2 455q0 35 -33 71q-34 36 -79 38q-78 3 -78 47z" />
    <glyph glyph-name="Ntilde" unicode="&#xd1;" horiz-adv-x="1634" 
d="M512 1626q0 35 69 126t124 91t133 -49t123 -49t87 57t46 58q20 0 20 -31t-68 -117t-124 -86t-138 49t-118 49t-65 -28q-28 -28 -45 -58q-17 -29 -24 -28q-20 0 -20 16zM1425 1145v-78l-22 -1014v-41q0 -47 -29 -47q-18 0 -33 15q-680 788 -812 936t-149 148
q-18 0 -18 -166q0 -167 -8 -391t-8 -245q0 -92 32 -140t68 -54t69 -14q32 -8 32 -28q0 -22 -7 -28t-26 -6l-219 4l-174 -4q-45 0 -45 33q0 18 26 23t66 32q39 27 55 87t35 394q18 334 18 486q0 153 -49 239t-159 98q-27 2 -27 31q0 11 14 23t37 12l78 -2l100 4q18 0 43 -11
t29 -21t22 -30q18 -22 50 -57q31 -35 55 -67q279 -362 745 -875q12 -15 30 -33t34 -39q17 -21 29 -20q20 0 20 127v240l-4 419v15q0 188 -66 239q-35 25 -103 38q-69 13 -69 43t39 30l195 -2l184 4q60 0 62 -29q-1 -14 -15 -23t-57 -24q-68 -37 -68 -231z" />
    <glyph glyph-name="Ograve" unicode="&#xd2;" horiz-adv-x="1746" 
d="M631 1843q0 27 43 40q42 13 66 13t46 -54t51 -111q28 -57 45 -86t29 -50l19 -30q6 -10 6 -19q0 -22 -23 -22t-82 63q-200 211 -200 256zM270 799q0 -182 97 -373q51 -102 123 -183t185 -133t255 -52t289 87q164 96 231 269q39 92 39 200q0 371 -195 577t-481 206
q-225 1 -384 -151t-159 -447zM90 694q0 344 207 564t586 221q176 1 317 -51t223 -126t138 -172q96 -168 96 -327q0 -279 -109 -471q-207 -365 -694 -365q-244 1 -421 107t-260 268t-83 352z" />
    <glyph glyph-name="Oacute" unicode="&#xd3;" horiz-adv-x="1746" 
d="M778 1546q0 10 15 31q66 98 139 281q16 38 41 38t67 -13t41 -40q0 -47 -198 -256q-59 -63 -82 -63t-23 22zM270 799q0 -182 97 -373q51 -102 123 -183t185 -133t255 -52t289 87q164 96 231 269q39 92 39 200q0 371 -195 577t-481 206q-225 1 -384 -151t-159 -447zM90 694
q0 344 207 564t586 221q176 1 317 -51t223 -126t138 -172q96 -168 96 -327q0 -279 -109 -471q-207 -365 -694 -365q-244 1 -421 107t-260 268t-83 352z" />
    <glyph glyph-name="Ocircumflex" unicode="&#xd4;" horiz-adv-x="1746" 
d="M627 1563q0 2 8 18q127 186 145 227t26 50t21 10h52q23 0 34 -23q51 -90 113 -181t64 -103q0 -13 -18 -13t-114 87t-105 87t-100 -86t-109 -86t-17 13zM270 799q0 -182 97 -373q51 -102 123 -183t185 -133t255 -52t289 87q164 96 231 269q39 92 39 200q0 371 -195 577
t-481 206q-225 1 -384 -151t-159 -447zM90 694q0 344 207 564t586 221q176 1 317 -51t223 -126t138 -172q96 -168 96 -327q0 -279 -109 -471q-207 -365 -694 -365q-244 1 -421 107t-260 268t-83 352z" />
    <glyph glyph-name="Otilde" unicode="&#xd5;" horiz-adv-x="1746" 
d="M555 1626q0 35 69 126t124 91t133 -49t123 -49t87 57t46 58q20 0 20 -31q1 -31 -67 -117t-125 -86t-139 49t-118 49t-64 -28t-45 -58q-17 -29 -24 -28q-20 0 -20 16zM270 799q0 -182 97 -373q51 -102 123 -183t185 -133t255 -52t289 87q164 96 231 269q39 92 39 200
q0 371 -195 577t-481 206q-225 1 -384 -151t-159 -447zM90 694q0 344 207 564t586 221q176 1 317 -51t223 -126t138 -172q96 -168 96 -327q0 -279 -109 -471q-207 -365 -694 -365q-244 1 -421 107t-260 268t-83 352z" />
    <glyph glyph-name="Odieresis" unicode="&#xd6;" horiz-adv-x="1746" 
d="M946 1751q0 29 32 67q64 76 131 2q32 -36 32 -69t-36 -71t-54 -38q-41 0 -73 40t-32 69zM618 1751q0 29 32 67q65 77 131 2q32 -36 32 -69t-36 -71t-52 -38q-41 0 -74 40t-33 69zM270 799q0 -182 97 -373q51 -102 123 -183t185 -133t255 -52t289 87q164 96 231 269
q39 92 39 200q0 371 -195 577t-481 206q-225 1 -384 -151t-159 -447zM90 694q0 344 207 564t586 221q176 1 317 -51t223 -126t138 -172q96 -168 96 -327q0 -279 -109 -471q-207 -365 -694 -365q-244 1 -421 107t-260 268t-83 352z" />
    <glyph glyph-name="multiply" unicode="&#xd7;" horiz-adv-x="1079" 
d="M542 510q13 0 23 10l256 256q11 12 23 12t32 -20t21 -32q0 -12 -18 -31l-248 -248q-17 -15 -17 -25t17 -26l254 -254q12 -12 12 -24q1 -12 -21 -35q-22 -21 -33 -21t-26 14l-252 254q-14 14 -25 14t-34 -22l-246 -246q-14 -14 -24 -14t-32 20t-22 32t17 28l245 247
q31 31 5 58l-254 254q-14 14 -15 23q0 9 22 31q22 21 35 21t29 -16l238 -235q25 -25 38 -25z" />
    <glyph glyph-name="Oslash" unicode="&#xd8;" horiz-adv-x="1746" 
d="M643 139q0 -25 92 -53t173 -29q159 0 316 92t227 264q38 93 38 216t-31 243t-74 191q-80 135 -164 198q-30 21 -36 21t-28 -43t-170 -362t-246 -523t-97 -215zM270 799q0 -250 168 -488q41 -59 73 -89t44 -30t20 21l494 1055q20 41 21 51q0 31 -98 55t-179 23
q-225 1 -384 -151t-159 -447zM1323 1618q0 -10 -2 -19l-64 -135q-14 -33 -14 -37q0 -14 23 -26q141 -66 233 -184q158 -197 158 -414q0 -279 -109 -471q-207 -365 -694 -365q-116 1 -182 17t-74 16q-23 0 -37 -31l-90 -190q-14 -25 -31 -25q-57 0 -57 35q0 14 6 25l94 200
q4 12 4 21t-45 33q-186 102 -278 297q-74 156 -74 329q0 344 207 564t586 221q117 -1 178 -15t69 -14q20 0 39 35l60 127q20 43 43 43l24 -8q27 -8 27 -29z" />
    <glyph glyph-name="Ugrave" unicode="&#xd9;" horiz-adv-x="1669" 
d="M668 1843q0 27 43 40t67 13t46 -54q55 -131 83 -179q29 -47 41 -68l19 -30q6 -10 6 -19q0 -22 -23 -22t-82 63q-200 211 -200 256zM41 1427q0 27 47 27l231 -8l193 4q43 0 43 -29q0 -18 -14 -22t-36 -6t-42 -15q-51 -29 -51 -190v-58l-2 -442q0 -203 12 -264
q28 -143 60 -186q78 -104 151 -136q111 -45 292 -45t267 49q37 20 85 64q138 128 138 494l-2 434q0 72 -3 112t-20 90t-44 68t-60 24t-53 8q-20 3 -21 17q0 33 41 33l158 -4l174 6q43 0 43 -27q0 -16 -44 -42q-44 -25 -60 -57t-17 -124l2 -137q-1 -393 -33 -602t-100 -303
q-137 -199 -485 -199t-492 131q-113 104 -139 250t-27 506v35l5 295q0 112 -27 154t-125 57q-45 6 -45 38z" />
    <glyph glyph-name="Uacute" unicode="&#xda;" horiz-adv-x="1669" 
d="M815 1546q0 10 14 31q66 98 140 281q16 38 41 38q24 0 66 -13t42 -40q0 -47 -198 -256q-59 -63 -82 -63t-23 22zM41 1427q0 27 47 27l231 -8l193 4q43 0 43 -29q0 -18 -14 -22t-36 -6t-42 -15q-51 -29 -51 -190v-58l-2 -442q0 -203 12 -264q28 -143 60 -186
q78 -104 151 -136q111 -45 292 -45t267 49q37 20 85 64q138 128 138 494l-2 434q0 72 -3 112t-20 90t-44 68t-60 24t-53 8q-20 3 -21 17q0 33 41 33l158 -4l174 6q43 0 43 -27q0 -16 -44 -42q-44 -25 -60 -57t-17 -124l2 -137q-1 -393 -33 -602t-100 -303
q-137 -199 -485 -199t-492 131q-113 104 -139 250t-27 506v35l5 295q0 112 -27 154t-125 57q-45 6 -45 38z" />
    <glyph glyph-name="Ucircumflex" unicode="&#xdb;" horiz-adv-x="1669" 
d="M664 1563q0 2 8 18q127 186 145 227q19 41 27 50t20 10h51q23 0 35 -23q52 -90 114 -181t62 -99q0 -17 -18 -17t-114 87t-104 87q-9 0 -100 -86q-90 -86 -108 -86t-18 13zM41 1427q0 27 47 27l231 -8l193 4q43 0 43 -29q0 -18 -14 -22t-36 -6t-42 -15q-51 -29 -51 -190
v-58l-2 -442q0 -203 12 -264q28 -143 60 -186q78 -104 151 -136q111 -45 292 -45t267 49q37 20 85 64q138 128 138 494l-2 434q0 72 -3 112t-20 90t-44 68t-60 24t-53 8q-20 3 -21 17q0 33 41 33l158 -4l174 6q43 0 43 -27q0 -16 -44 -42q-44 -25 -60 -57t-17 -124l2 -137
q-1 -393 -33 -602t-100 -303q-137 -199 -485 -199t-492 131q-113 104 -139 250t-27 506v35l5 295q0 112 -27 154t-125 57q-45 6 -45 38z" />
    <glyph glyph-name="Udieresis" unicode="&#xdc;" horiz-adv-x="1669" 
d="M983 1751q0 29 32 67q64 76 131 2q32 -36 32 -69t-36 -71t-55 -38q-41 0 -73 40t-31 69zM655 1751q0 29 32 67q65 77 131 2q32 -36 32 -69t-36 -71t-52 -38q-41 0 -74 40t-33 69zM41 1427q0 27 47 27l231 -8l193 4q43 0 43 -29q0 -18 -14 -22t-36 -6t-42 -15
q-51 -29 -51 -190v-58l-2 -442q0 -203 12 -264q28 -143 60 -186q78 -104 151 -136q111 -45 292 -45t267 49q37 20 85 64q138 128 138 494l-2 434q0 72 -3 112t-20 90t-44 68t-60 24t-53 8q-20 3 -21 17q0 33 41 33l158 -4l174 6q43 0 43 -27q0 -16 -44 -42q-44 -25 -60 -57
t-17 -124l2 -137q-1 -393 -33 -602t-100 -303q-137 -199 -485 -199t-492 131q-113 104 -139 250t-27 506v35l5 295q0 112 -27 154t-125 57q-45 6 -45 38z" />
    <glyph glyph-name="Yacute" unicode="&#xdd;" horiz-adv-x="1458" 
d="M688 1546q0 10 14 31q66 98 140 281q16 38 41 38t67 -13t41 -40q0 -47 -198 -256q-59 -63 -82 -63t-23 22zM1030 28q0 -28 -49 -28l-205 2l-225 -8q-57 0 -57 20t11 28t38 9q27 2 39 6q86 27 86 125l4 416q0 86 -52 166t-131 197q-80 117 -141 209t-112 144
q-51 50 -79 59t-72 9t-44 25t24 31t103 6l119 -4l174 2q102 0 102 -24t-43 -39t-43 -34t13 -53q12 -34 26 -53q14 -20 41 -59q27 -38 64 -98t111 -160t86 -100q19 -1 66 78q48 78 62 100t38 57q34 49 60 93l27 45q39 73 39 99q0 74 -94 86q-45 6 -51 18t-7 21q0 25 58 25
l84 -2l217 -2q100 0 100 -31q0 -8 -12 -14q-12 -7 -35 -17t-41 -24q-84 -66 -247 -312q-162 -246 -190 -280t-36 -84q-8 -49 -8 -168l2 -238v-49q0 -69 24 -107t44 -45t40 -8l41 -2q31 0 31 -33z" />
    <glyph glyph-name="Thorn" unicode="&#xde;" horiz-adv-x="1163" 
d="M246 1044v95q0 90 -7 144t-55 81t-96 29q-47 1 -47 31t57 30l232 -8l180 4q55 0 55 -29q0 -16 -94 -55q-33 -14 -49 -74t-16 -98q0 -37 3 -41t19 -4l205 8q193 0 332 -98t139 -281q0 -100 -37 -179t-89 -124t-138 -84t-168 -39t-150 16t-67 33q0 31 26 31q10 0 43 -8
t71 -8q96 0 204 56q57 30 94 90t37 140q0 137 -112 255t-306 118q-66 0 -88 -41t-21 -178v-350q-4 0 -4 -144v-43q1 -180 63 -221t109 -35q82 8 82 -38q0 -33 -45 -33l-293 8l-192 -8q-63 0 -64 24q1 27 13 34t19 9t24 7l24 4q31 6 41 20q60 78 60 442t3 424q3 61 3 88z" />
    <glyph glyph-name="germandbls" unicode="&#xdf;" horiz-adv-x="1079" 
d="M463 266q0 53 35 53q16 0 23 -9t13 -38q6 -30 10 -36q3 -6 11 -26t14 -34l15 -33q27 -61 87 -103q25 -18 77 -18t98 40q47 40 47 106t-43 114q-42 48 -104 87t-123 81t-105 102q-43 60 -43 136t81 189q34 45 69 92q82 111 82 231q-1 120 -47 175t-116 55t-115 -46
q-46 -46 -73 -104q-57 -131 -57 -393l4 -127l-4 -146q-6 -145 -6 -270v-143q0 -82 17 -115q18 -33 62 -43t44 -35q0 -18 -39 -18l-131 8l-172 -6q-33 0 -33 24t57 33q20 4 38 30q17 26 18 75v598q0 2 -34 28t-34 37q0 23 34 29t34 20q0 260 113 437q114 176 296 176
q92 0 181 -50t90 -200q0 -84 -39 -160t-86 -121q-123 -122 -123 -190t66 -126t143 -102t143 -120t66 -180t-68 -181q-68 -78 -182 -78q-115 0 -217 52q-7 2 -19 6t-17 5q-38 8 -38 54v178z" />
    <glyph glyph-name="agrave" unicode="&#xe0;" horiz-adv-x="944" 
d="M229 1303q0 27 43 39t67 14q25 0 47 -54q64 -154 124 -247l18 -31q6 -10 7 -18q0 -23 -23 -23t-82 64q-201 211 -201 256zM258 199q0 -63 41 -105t105 -43q111 0 156 49q44 49 44 160v148q0 18 -14 18l-21 -4q-47 -8 -93 -16t-103 -33q-57 -26 -78 -54q-37 -57 -37 -120z
M903 27q0 -43 -129 -43q-53 0 -91 28t-54 57q-17 27 -19 27t-25 -21t-94 -64q-71 -42 -151 -42q-242 0 -242 205q0 146 112 196t325 85q6 2 22 4t33 6q14 6 14 29l4 106q0 117 -67 169q-68 52 -131 52q-147 0 -148 -123l8 -73q0 -41 -37 -41q-29 0 -63 10q-63 20 -64 70
q0 80 108 152t216 73q108 -1 170 -21q61 -20 91 -46t48 -72t19 -157l-10 -349q0 -70 16 -114t39 -56t45 -15q55 -4 55 -32z" />
    <glyph glyph-name="aacute" unicode="&#xe1;" horiz-adv-x="944" 
d="M377 1006q0 10 14 30q66 98 139 281q16 39 41 39t67 -14t42 -39q0 -47 -199 -256q-59 -63 -82 -64q-22 0 -22 23zM258 199q0 -63 41 -105t105 -43q111 0 156 49q44 49 44 160v148q0 18 -14 18l-21 -4q-47 -8 -93 -16t-103 -33q-57 -26 -78 -54q-37 -57 -37 -120zM903 27
q0 -43 -129 -43q-53 0 -91 28t-54 57q-17 27 -19 27t-25 -21t-94 -64q-71 -42 -151 -42q-242 0 -242 205q0 146 112 196t325 85q6 2 22 4t33 6q14 6 14 29l4 106q0 117 -67 169q-68 52 -131 52q-147 0 -148 -123l8 -73q0 -41 -37 -41q-29 0 -63 10q-63 20 -64 70
q0 80 108 152t216 73q108 -1 170 -21q61 -20 91 -46t48 -72t19 -157l-10 -349q0 -70 16 -114t39 -56t45 -15q55 -4 55 -32z" />
    <glyph glyph-name="acircumflex" unicode="&#xe2;" horiz-adv-x="944" 
d="M225 1022q0 2 8 18q127 186 145 228t27 50q8 9 21 9h51q23 0 35 -22q52 -89 114 -181t62 -104t-18 -12t-114 87t-104 87t-100 -86t-110 -86t-17 12zM258 199q0 -63 41 -105t105 -43q111 0 156 49q44 49 44 160v148q0 18 -14 18l-21 -4q-47 -8 -93 -16t-103 -33
q-57 -26 -78 -54q-37 -57 -37 -120zM903 27q0 -43 -129 -43q-53 0 -91 28t-54 57q-17 27 -19 27t-25 -21t-94 -64q-71 -42 -151 -42q-242 0 -242 205q0 146 112 196t325 85q6 2 22 4t33 6q14 6 14 29l4 106q0 117 -67 169q-68 52 -131 52q-147 0 -148 -123l8 -73
q0 -41 -37 -41q-29 0 -63 10q-63 20 -64 70q0 80 108 152t216 73q108 -1 170 -21q61 -20 91 -46t48 -72t19 -157l-10 -349q0 -70 16 -114t39 -56t45 -15q55 -4 55 -32z" />
    <glyph glyph-name="atilde" unicode="&#xe3;" horiz-adv-x="944" 
d="M154 1085q0 35 68 126q69 91 124 91t133 -48q78 -50 123 -50t87 58t46 57q21 0 21 -31t-68 -117t-125 -86q-57 -1 -138 49t-118 50q-57 0 -109 -86q-17 -29 -24 -29q-20 0 -20 16zM258 199q0 -63 41 -105t105 -43q111 0 156 49q44 49 44 160v148q0 18 -14 18l-21 -4
q-47 -8 -93 -16t-103 -33q-57 -26 -78 -54q-37 -57 -37 -120zM903 27q0 -43 -129 -43q-53 0 -91 28t-54 57q-17 27 -19 27t-25 -21t-94 -64q-71 -42 -151 -42q-242 0 -242 205q0 146 112 196t325 85q6 2 22 4t33 6q14 6 14 29l4 106q0 117 -67 169q-68 52 -131 52
q-147 0 -148 -123l8 -73q0 -41 -37 -41q-29 0 -63 10q-63 20 -64 70q0 80 108 152t216 73q108 -1 170 -21q61 -20 91 -46t48 -72t19 -157l-10 -349q0 -70 16 -114t39 -56t45 -15q55 -4 55 -32z" />
    <glyph glyph-name="adieresis" unicode="&#xe4;" horiz-adv-x="944" 
d="M545 1210q0 29 32 67q31 38 65 38t66 -36q62 -70 -5 -139q-36 -38 -54 -38q-41 0 -73 40t-31 68zM217 1210q0 29 32 67q31 38 65 38t66 -36t32 -69q0 -32 -36 -70t-52 -38q-41 0 -74 40t-33 68zM258 199q0 -63 41 -105t105 -43q111 0 156 49q44 49 44 160v148
q0 18 -14 18l-21 -4q-47 -8 -93 -16t-103 -33q-57 -26 -78 -54q-37 -57 -37 -120zM903 27q0 -43 -129 -43q-53 0 -91 28t-54 57q-17 27 -19 27t-25 -21t-94 -64q-71 -42 -151 -42q-242 0 -242 205q0 146 112 196t325 85q6 2 22 4t33 6q14 6 14 29l4 106q0 117 -67 169
q-68 52 -131 52q-147 0 -148 -123l8 -73q0 -41 -37 -41q-29 0 -63 10q-63 20 -64 70q0 80 108 152t216 73q108 -1 170 -21q61 -20 91 -46t48 -72t19 -157l-10 -349q0 -70 16 -114t39 -56t45 -15q55 -4 55 -32z" />
    <glyph glyph-name="aring" unicode="&#xe5;" horiz-adv-x="944" 
d="M400 1148q22 -24 55 -24t55 24t22 56q0 84 -75 84q-29 1 -55 -23t-26 -59q2 -34 24 -58zM299 1221q0 43 47 95t118 52q70 0 108 -55t38 -120t-58 -107t-108 -42t-89 34q-38 34 -47 67t-9 76zM258 199q0 -63 41 -105t105 -43q111 0 156 49q44 49 44 160v148q0 18 -14 18
l-21 -4q-47 -8 -93 -16t-103 -33q-57 -26 -78 -54q-37 -57 -37 -120zM903 27q0 -43 -129 -43q-53 0 -91 28t-54 57q-17 27 -19 27t-25 -21t-94 -64q-71 -42 -151 -42q-242 0 -242 205q0 146 112 196t325 85q6 2 22 4t33 6q14 6 14 29l4 106q0 117 -67 169q-68 52 -131 52
q-147 0 -148 -123l8 -73q0 -41 -37 -41q-29 0 -63 10q-63 20 -64 70q0 80 108 152t216 73q108 -1 170 -21q61 -20 91 -46t48 -72t19 -157l-10 -349q0 -70 16 -114t39 -56t45 -15q55 -4 55 -32z" />
    <glyph glyph-name="ae" unicode="&#xe6;" horiz-adv-x="1480" 
d="M1208 608q0 62 -57 144t-159 82t-158 -81q-55 -81 -56 -153q0 -29 27 -29l360 13q29 0 36 5t7 19zM258 205q0 -70 41 -112t105 -42q111 0 156 49q44 49 44 160v148q0 18 -8 18q-131 -16 -207 -47q-131 -55 -131 -174zM340 -31q-242 0 -242 205q0 145 123 203
q94 41 214 61t142 24q23 4 27 22q4 16 4 106t-39 143q-61 88 -159 88q-147 0 -148 -123l8 -73q0 -41 -37 -41q-29 0 -63 10q-63 20 -64 70q0 80 108 152t237 73q180 0 249 -78q16 -19 24 -31t12 -12q3 0 29 23t92 58q67 36 159 36t163 -31t109 -75q38 -45 75 -111
q36 -66 36 -109q0 -37 -84 -37h-527q-16 0 -19 -3t-3 -19q0 -194 103 -304t241 -110q86 0 176 46t94 46q20 0 20 -22t-44 -63q-45 -42 -86 -68q-98 -63 -241 -63t-223 54q-80 56 -107 90t-29 35q-2 0 -29 -35t-97 -86q-69 -51 -204 -51z" />
    <glyph glyph-name="ccedilla" unicode="&#xe7;" horiz-adv-x="925" 
d="M416 -162q0 6 22 23t40 33t34 16q44 0 79 -42q34 -42 34 -83q0 -88 -66 -142q-67 -55 -95 -55t-28 15q0 6 23 18q63 33 63 92t-80 97q-26 12 -26 28zM80 390q0 200 132 344t343 145q72 -1 155 -21t85 -47q4 -49 4 -118t-23 -68q-20 0 -37 26q-35 59 -132 103t-155 45
q-95 0 -159 -99q-59 -86 -59 -244t100 -275q102 -118 250 -118q72 0 133 27q61 28 95 54t42 26q23 0 23 -20t-43 -62q-132 -131 -327 -131t-311 117q-116 116 -116 316z" />
    <glyph glyph-name="egrave" unicode="&#xe8;" horiz-adv-x="954" 
d="M250 1303q0 27 43 39t66 14q24 0 47 -54q59 -139 124 -247l19 -31q6 -10 6 -18q0 -23 -23 -23t-81 64q-201 211 -201 256zM682 608q0 62 -57 144t-159 82t-158 -81t-56 -153q0 -29 27 -29l360 13q29 0 36 5t7 19zM80 392q0 210 116 351t300 142q86 0 156 -31t110 -75
q38 -45 74 -111t36 -109q0 -37 -84 -37h-526q-16 0 -19 -3t-3 -19q0 -194 103 -304t243 -110q86 0 175 46t93 46q20 0 20 -22t-45 -63q-45 -42 -86 -68q-98 -63 -231 -64q-180 0 -306 111q-126 110 -126 320z" />
    <glyph glyph-name="eacute" unicode="&#xe9;" horiz-adv-x="954" 
d="M397 1006q0 10 15 30q66 98 139 281q16 39 41 39q24 0 66 -14t42 -39q0 -47 -198 -256q-59 -63 -82 -63t-23 22zM682 608q0 62 -57 144t-159 82t-158 -81t-56 -153q0 -29 27 -29l360 13q29 0 36 5t7 19zM80 392q0 210 116 351t300 142q86 0 156 -31t110 -75
q38 -45 74 -111t36 -109q0 -37 -84 -37h-526q-16 0 -19 -3t-3 -19q0 -194 103 -304t243 -110q86 0 175 46t93 46q20 0 20 -22t-45 -63q-45 -42 -86 -68q-98 -63 -231 -64q-180 0 -306 111q-126 110 -126 320z" />
    <glyph glyph-name="ecircumflex" unicode="&#xea;" horiz-adv-x="954" 
d="M246 1022q0 2 8 18q127 186 145 228q19 42 27 50q8 9 20 9h52q23 0 34 -22q52 -89 114 -181t62 -104t-18 -12t-113 87t-105 87t-100 -86t-108 -86t-18 12zM682 608q0 62 -57 144t-159 82t-158 -81t-56 -153q0 -29 27 -29l360 13q29 0 36 5t7 19zM80 392q0 210 116 351
t300 142q86 0 156 -31t110 -75q38 -45 74 -111t36 -109q0 -37 -84 -37h-526q-16 0 -19 -3t-3 -19q0 -194 103 -304t243 -110q86 0 175 46t93 46q20 0 20 -22t-45 -63q-45 -42 -86 -68q-98 -63 -231 -64q-180 0 -306 111q-126 110 -126 320z" />
    <glyph glyph-name="edieresis" unicode="&#xeb;" horiz-adv-x="954" 
d="M565 1210q0 29 32 67t66 38q33 0 65 -36t32 -69q0 -32 -36 -70t-54 -38q-41 0 -73 40t-32 68zM238 1210q0 29 31 67q32 38 66 38q33 0 65 -36t32 -69q0 -32 -36 -70t-52 -38q-42 0 -74 40t-32 68zM682 608q0 62 -57 144t-159 82t-158 -81t-56 -153q0 -29 27 -29l360 13
q29 0 36 5t7 19zM80 392q0 210 116 351t300 142q86 0 156 -31t110 -75q38 -45 74 -111t36 -109q0 -37 -84 -37h-526q-16 0 -19 -3t-3 -19q0 -194 103 -304t243 -110q86 0 175 46t93 46q20 0 20 -22t-45 -63q-45 -42 -86 -68q-98 -63 -231 -64q-180 0 -306 111
q-126 110 -126 320z" />
    <glyph glyph-name="igrave" unicode="&#xec;" horiz-adv-x="581" 
d="M29 1303q0 27 43 39t66 14q24 0 46 -54q56 -134 85 -181q28 -46 40 -66l19 -31q6 -10 6 -18q0 -23 -23 -23t-82 64q-200 211 -200 256zM98 16q0 28 31 37q2 0 8 2q47 16 62 49q14 33 14 318v180q0 59 -14 94q-15 35 -27 43q-12 7 -42 13t-43 11t-13 16t7 20t58 25t107 40
q55 25 65 30t31 5q31 0 31 -39l-13 -98v-561q0 -61 18 -97t45 -43q26 -8 52 -8q61 -4 62 -33q0 -35 -35 -34l-31 2l-145 4l-146 -4q-82 0 -82 28z" />
    <glyph glyph-name="iacute" unicode="&#xed;" horiz-adv-x="581" 
d="M176 1006q0 10 14 30q66 98 140 281q16 39 41 39t67 -14t41 -39q0 -47 -198 -256q-59 -63 -82 -63t-23 22zM98 16q0 28 31 37q2 0 8 2q47 16 62 49q14 33 14 318v180q0 59 -14 94q-15 35 -27 43q-12 7 -42 13t-43 11t-13 16t7 20t58 25t107 40q55 25 65 30t31 5
q31 0 31 -39l-13 -98v-561q0 -61 18 -97t45 -43q26 -8 52 -8q61 -4 62 -33q0 -35 -35 -34l-31 2l-145 4l-146 -4q-82 0 -82 28z" />
    <glyph glyph-name="icircumflex" unicode="&#xee;" horiz-adv-x="581" 
d="M25 1022q0 2 8 18q127 186 145 228t26 50q8 9 21 9h51q23 0 35 -22q51 -89 113 -181t63 -104q0 -12 -18 -12q-17 0 -113 87t-105 87t-100 -86t-109 -86t-17 12zM98 16q0 28 31 37q2 0 8 2q47 16 62 49q14 33 14 318v180q0 59 -14 94q-15 35 -27 43q-12 7 -42 13t-43 11
t-13 16t7 20t58 25t107 40q55 25 65 30t31 5q31 0 31 -39l-13 -98v-561q0 -61 18 -97t45 -43q26 -8 52 -8q61 -4 62 -33q0 -35 -35 -34l-31 2l-145 4l-146 -4q-82 0 -82 28z" />
    <glyph glyph-name="idieresis" unicode="&#xef;" horiz-adv-x="581" 
d="M344 1210q0 29 32 67t66 38t65 -36q32 -36 32 -69q0 -32 -36 -70t-54 -38q-41 0 -73 40t-32 68zM16 1210q0 29 32 67t66 38t66 -36t31 -69q0 -32 -36 -70t-52 -38q-41 0 -74 40t-33 68zM98 16q0 28 31 37q2 0 8 2q47 16 62 49q14 33 14 318v180q0 59 -14 94
q-15 35 -27 43q-12 7 -42 13t-43 11t-13 16t7 20t58 25t107 40q55 25 65 30t31 5q31 0 31 -39l-13 -98v-561q0 -61 18 -97t45 -43q26 -8 52 -8q61 -4 62 -33q0 -35 -35 -34l-31 2l-145 4l-146 -4q-82 0 -82 28z" />
    <glyph glyph-name="eth" unicode="&#xf0;" horiz-adv-x="1120" 
d="M242 466q0 -192 112 -316t243 -125q130 0 212 89t82 255t-47 262q-14 31 -62 75t-80 64q-84 57 -189 57t-188 -84q-83 -85 -83 -277zM80 418q0 186 128 325t355 140q76 0 166 -49q27 -14 65 -50t45 -34q7 0 7 16t-31 86t-74 142t-86 131q-43 58 -55 59q-2 0 -27 -8
l-290 -117l-4 -2h-7q-18 0 -30 20q-28 46 6 62l272 110q18 6 19 13q0 6 -19 24q-82 92 -164 144t-118 67q-36 14 -37 25q0 25 49 24h49q59 0 153 -52t158 -114t71 -63q7 0 32 8l250 100q25 11 39 11t22 -24q10 -24 10 -36q0 -20 -41 -37l-215 -86q-28 -10 -28 -14t30 -40
q30 -37 72 -103q43 -66 86 -153t73 -214t29 -260q0 -227 -140 -367t-356 -139q-216 0 -340 134q-124 135 -124 321z" />
    <glyph glyph-name="ntilde" unicode="&#xf1;" horiz-adv-x="1210" 
d="M319 1085q0 35 69 126t124 91t133 -48q78 -50 123 -50t87 58t46 57q21 0 21 -31t-68 -117t-125 -86q-57 -1 -138 49t-118 50q-57 0 -109 -86q-17 -29 -24 -29q-21 0 -21 16zM98 18q0 18 10 22t26 7q15 2 30 12q39 25 43 149t4 163v295q0 66 -24 88t-64 22h-21
q-39 0 -39 22q1 22 45 27q44 6 91 20t93 37t54 23h4q18 0 19 -24l-4 -88q0 -53 8 -53t16 10q31 43 82 73q158 98 326 32q67 -25 103 -63t69 -104t32 -151v-21l3 -108v-209q0 -78 22 -108t102 -42q41 -6 41 -31q0 -20 -41 -20l-167 10l-158 -8q-41 0 -41 27q0 18 24 24l27 6
q45 14 45 138v276q0 158 -78 239t-176 81q-98 1 -164 -47t-80 -89t-14 -313v-78q0 -102 22 -151t95 -56q20 0 52 -7t32 -23q0 -27 -39 -27l-150 8q-53 0 -141 -4l-88 -4q-31 0 -31 18z" />
    <glyph glyph-name="ograve" unicode="&#xf2;" horiz-adv-x="1120" 
d="M319 1303q0 27 43 39t67 14q25 0 47 -54q64 -155 124 -247l18 -31q6 -10 7 -18q0 -23 -23 -23t-82 64q-201 211 -201 256zM242 466q0 -192 112 -316t243 -125q130 0 210 89t80 261q-1 172 -99 312t-274 140q-106 0 -189 -84q-83 -85 -83 -277zM80 418q0 186 128 325
t338 139t352 -120q142 -121 142 -336t-146 -339t-356 -124t-334 134q-124 135 -124 321z" />
    <glyph glyph-name="oacute" unicode="&#xf3;" horiz-adv-x="1120" 
d="M467 1006q0 10 14 30q66 98 140 281q16 39 41 39q24 0 66 -14t42 -39q0 -47 -199 -256q-59 -63 -82 -64q-22 0 -22 23zM242 466q0 -192 112 -316t243 -125q130 0 210 89t80 261q-1 172 -99 312t-274 140q-106 0 -189 -84q-83 -85 -83 -277zM80 418q0 186 128 325t338 139
t352 -120q142 -121 142 -336t-146 -339t-356 -124t-334 134q-124 135 -124 321z" />
    <glyph glyph-name="ocircumflex" unicode="&#xf4;" horiz-adv-x="1120" 
d="M315 1022q0 2 9 18q127 186 145 228q19 42 27 50q8 9 20 9h51q23 0 35 -22q52 -89 114 -181t62 -104t-18 -12t-114 87t-104 87t-100 -86t-110 -86t-17 12zM242 466q0 -192 112 -316t243 -125q130 0 210 89t80 261q-1 172 -99 312t-274 140q-106 0 -189 -84
q-83 -85 -83 -277zM80 418q0 186 128 325t338 139t352 -120q142 -121 142 -336t-146 -339t-356 -124t-334 134q-124 135 -124 321z" />
    <glyph glyph-name="otilde" unicode="&#xf5;" horiz-adv-x="1120" 
d="M244 1085q0 35 68 126q69 91 124 91t133 -48q78 -50 123 -50t87 58t46 57q21 0 21 -31t-68 -117t-125 -86q-57 -1 -138 49t-118 50q-57 0 -109 -86q-17 -29 -24 -29q-20 0 -20 16zM242 466q0 -192 112 -316t243 -125q130 0 210 89t80 261q-1 172 -99 312t-274 140
q-106 0 -189 -84q-83 -85 -83 -277zM80 418q0 186 128 325t338 139t352 -120q142 -121 142 -336t-146 -339t-356 -124t-334 134q-124 135 -124 321z" />
    <glyph glyph-name="odieresis" unicode="&#xf6;" horiz-adv-x="1120" 
d="M635 1210q0 29 32 67q31 38 65 38t66 -36q62 -69 -4 -139q-36 -38 -55 -38q-41 0 -73 40t-31 68zM307 1210q0 29 32 67q31 38 65 38t66 -36t32 -69q0 -32 -36 -70t-52 -38q-41 0 -74 40t-33 68zM242 466q0 -192 112 -316t243 -125q130 0 210 89t80 261q-1 172 -99 312
t-274 140q-106 0 -189 -84q-83 -85 -83 -277zM80 418q0 186 128 325t338 139t352 -120q142 -121 142 -336t-146 -339t-356 -124t-334 134q-124 135 -124 321z" />
    <glyph glyph-name="divide" unicode="&#xf7;" horiz-adv-x="1079" 
d="M444 206q0 34 25 58t59 25q34 0 59 -26q25 -27 25 -59t-24 -57t-58 -25t-60 25t-26 59zM434 655q0 33 26 59t60 26t58 -24t24 -59t-24 -59t-60 -25q-36 1 -60 25t-24 57zM100 475h883q29 0 31 -12t2 -36t-6 -33t-37 -9h-875q-30 1 -32 21q-2 6 -3 25q0 19 3 28
q2 16 34 16z" />
    <glyph glyph-name="oslash" unicode="&#xf8;" horiz-adv-x="1120" 
d="M610 25q117 0 197 89t80 253q0 100 -32 189t-61 128q-30 39 -35 39t-11 -12q-211 -465 -289 -621l-6 -14q0 -14 53 -32t104 -19zM242 485q0 -106 34 -194t62 -123q29 -35 35 -35t12 17l281 600q2 6 7 14t5 12q0 16 -53 34t-111 17q-106 0 -189 -84t-83 -258zM80 416
q0 188 128 327t355 140q51 1 96 -9t48 -10q12 0 24 27q47 101 56 117t23 16t37 -10q24 -10 23 -27l-65 -149q0 -14 20 -25q215 -123 215 -385q0 -217 -146 -341t-345 -124q-55 0 -93 7t-45 7t-14 -14q-90 -176 -96 -178q-16 0 -41 11q-24 12 -24 28l79 180q0 12 -18 21
q-106 59 -162 164q-55 105 -55 227z" />
    <glyph glyph-name="ugrave" unicode="&#xf9;" horiz-adv-x="1179" 
d="M348 1303q0 27 43 39t67 14q24 0 46 -54q64 -154 125 -247l18 -31q6 -10 6 -18q-1 -23 -23 -23t-81 64q-201 211 -201 256zM1067 12q-41 0 -124 -11t-89 -11q-14 0 -24 52q-9 52 -12 52t-40 -33q-38 -33 -106 -65t-150 -33q-329 0 -329 356l2 369q0 41 -22 66t-40 24h-37
q-37 0 -37 29t40 37t98 8l116 10q35 0 41 -14t6 -72l-10 -377q0 -180 70 -255t158 -74q131 0 190 55t59 194l-4 283q0 102 -16 138q-15 36 -69 41t-54 28q0 47 180 47l74 10q31 0 40 -10t9 -30l-10 -513q0 -153 12 -197t45 -44l53 2q49 0 50 -25q-1 -25 -15 -31t-55 -6z" />
    <glyph glyph-name="uacute" unicode="&#xfa;" horiz-adv-x="1179" 
d="M496 1006q0 10 14 30q66 98 139 281q16 39 41 39t67 -14t42 -39q0 -47 -199 -256q-59 -63 -82 -64q-22 0 -22 23zM1067 12q-41 0 -124 -11t-89 -11q-14 0 -24 52q-9 52 -12 52t-40 -33q-38 -33 -106 -65t-150 -33q-329 0 -329 356l2 369q0 41 -22 66t-40 24h-37
q-37 0 -37 29t40 37t98 8l116 10q35 0 41 -14t6 -72l-10 -377q0 -180 70 -255t158 -74q131 0 190 55t59 194l-4 283q0 102 -16 138q-15 36 -69 41t-54 28q0 47 180 47l74 10q31 0 40 -10t9 -30l-10 -513q0 -153 12 -197t45 -44l53 2q49 0 50 -25q-1 -25 -15 -31t-55 -6z" />
    <glyph glyph-name="ucircumflex" unicode="&#xfb;" horiz-adv-x="1179" 
d="M344 1022q0 2 8 18q128 186 146 228t26 50q8 9 21 9h51q23 0 35 -22q51 -89 113 -181t62 -104t-18 -12t-113 87t-105 87t-100 -86t-108 -86t-18 12zM1067 12q-41 0 -124 -11t-89 -11q-14 0 -24 52q-9 52 -12 52t-40 -33q-38 -33 -106 -65t-150 -33q-329 0 -329 356l2 369
q0 41 -22 66t-40 24h-37q-37 0 -37 29t40 37t98 8l116 10q35 0 41 -14t6 -72l-10 -377q0 -180 70 -255t158 -74q131 0 190 55t59 194l-4 283q0 102 -16 138q-15 36 -69 41t-54 28q0 47 180 47l74 10q31 0 40 -10t9 -30l-10 -513q0 -153 12 -197t45 -44l53 2q49 0 50 -25
q-1 -25 -15 -31t-55 -6z" />
    <glyph glyph-name="udieresis" unicode="&#xfc;" horiz-adv-x="1179" 
d="M664 1210q0 29 31 67q32 38 66 38q33 0 65 -36t32 -69q0 -32 -36 -70t-54 -38q-40 0 -72 40t-32 68zM336 1210q0 29 32 67t66 38t65 -36q62 -69 -4 -139q-36 -38 -53 -38q-42 0 -74 40t-32 68zM1067 12q-41 0 -124 -11t-89 -11q-14 0 -24 52q-9 52 -12 52t-40 -33
q-38 -33 -106 -65t-150 -33q-329 0 -329 356l2 369q0 41 -22 66t-40 24h-37q-37 0 -37 29t40 37t98 8l116 10q35 0 41 -14t6 -72l-10 -377q0 -180 70 -255t158 -74q131 0 190 55t59 194l-4 283q0 102 -16 138q-15 36 -69 41t-54 28q0 47 180 47l74 10q31 0 40 -10t9 -30
l-10 -513q0 -153 12 -197t45 -44l53 2q49 0 50 -25q-1 -25 -15 -31t-55 -6z" />
    <glyph glyph-name="yacute" unicode="&#xfd;" horiz-adv-x="1019" 
d="M453 1006q0 10 14 30q66 98 139 281q16 39 41 39t67 -14t42 -39q0 -47 -199 -256q-59 -63 -82 -64q-22 0 -22 23zM291 -365q0 5 46 63t93 142t47 149t-117 319t-202 415q-22 41 -46 63t-38 25q-33 4 -33 31t41 26l219 -4l117 4q14 0 25 -7t12 -15q0 -37 -49 -37h-31
q-33 0 -33 -56t109 -290q16 -35 63 -143t59 -107q12 0 96 236q83 237 83 281t-20 62t-44 19q-63 -4 -63 35q0 25 39 24l147 -2l127 2q43 0 43 -26q0 -20 -36 -30t-48 -26q-33 -47 -111 -258l-182 -485q-25 -63 -60 -163l-50 -138q-23 -64 -39 -98q-16 -35 -31 -35h-6l-88 -2
q-39 0 -39 26z" />
    <glyph glyph-name="thorn" unicode="&#xfe;" horiz-adv-x="1114" 
d="M627 43q133 0 203 97t69 249q0 152 -86 275t-233 122q-106 0 -189 -65q-41 -33 -54 -89t-13 -239l2 -102q0 -72 30 -123t78 -78q92 -47 193 -47zM53 -388q1 20 21 28t44 14t44 50t20 128v41l6 565v45l7 781q0 47 -16 85q-15 38 -33 46t-83 8q-23 0 -22 14q0 25 13 31
t50 14t119 47t113 39q25 0 24 -39q0 -8 -8 -88t-8 -223v-115l-2 -280q0 -57 3 -57t40 35q37 36 110 72t162 36q181 0 279 -120t98 -301t-120 -334t-320 -152q-94 0 -152 19t-82 39t-30 19q-6 0 -6 -16v-252q0 -41 32 -96q23 -37 69 -43t79 -8t33 -28t-70 -26l-213 9l-129 -7
q-72 0 -72 20z" />
    <glyph glyph-name="ydieresis" unicode="&#xff;" horiz-adv-x="1019" 
d="M621 1210q0 29 31 67q32 38 66 38t66 -36t31 -69q0 -32 -36 -70t-54 -38q-41 0 -73 40t-31 68zM293 1210q0 29 32 67q31 38 65 38t66 -36q62 -69 -4 -139q-36 -38 -53 -38q-41 0 -73 40t-33 68zM291 -365q0 5 46 63t93 142t47 149t-117 319t-202 415q-22 41 -46 63
t-38 25q-33 4 -33 31t41 26l219 -4l117 4q14 0 25 -7t12 -15q0 -37 -49 -37h-31q-33 0 -33 -56t109 -290q16 -35 63 -143t59 -107q12 0 96 236q83 237 83 281t-20 62t-44 19q-63 -4 -63 35q0 25 39 24l147 -2l127 2q43 0 43 -26q0 -20 -36 -30t-48 -26q-33 -47 -111 -258
l-182 -485q-25 -63 -60 -163l-50 -138q-23 -64 -39 -98q-16 -35 -31 -35h-6l-88 -2q-39 0 -39 26z" />
    <glyph glyph-name="Amacron" unicode="&#x100;" horiz-adv-x="1662" 
d="M1018 1694l-385 2q-20 0 -21 45q0 45 33 45l371 -4q18 0 24 -10t6 -44t-28 -34zM555 690q0 -25 18 -31t86 -6h64l195 2q80 0 79 30q0 30 -100 256t-127 226q-19 0 -117 -226t-98 -251zM41 16q0 29 31 39q66 25 114 110t247 514q198 429 351 757q14 31 26 39t33 8t27 -8
q6 -7 22 -55t26 -72t30 -80q20 -55 66 -166t206 -485q162 -373 186 -423t67 -86t75 -39t53 -11q22 -8 21 -31q0 -31 -55 -31l-185 12l-190 -8q-63 0 -81 5q-17 5 -17 21q0 28 51 39q51 8 51 69q0 36 -51 175t-86 205q-18 35 -84 35l-248 -4h-109q-92 0 -116 -10t-38 -43
q-15 -34 -44 -92t-39 -81t-31 -71q-45 -102 3 -154q24 -25 53 -28q76 -6 75 -39q0 -13 -6 -21t-29 -8l-170 2l-176 -8q-59 0 -59 24z" />
    <glyph glyph-name="amacron" unicode="&#x101;" horiz-adv-x="944" 
d="M238 1200q0 45 32 45l371 -4q19 0 25 -10t6 -44t-29 -34l-385 2q-20 0 -20 45zM258 199q0 -63 41 -105t105 -43q111 0 156 49q44 49 44 160v148q0 18 -14 18l-21 -4q-47 -8 -93 -16t-103 -33q-57 -26 -78 -54q-37 -57 -37 -120zM903 27q0 -43 -129 -43q-53 0 -91 28
t-54 57q-17 27 -19 27t-25 -21t-94 -64q-71 -42 -151 -42q-242 0 -242 205q0 146 112 196t325 85q6 2 22 4t33 6q14 6 14 29l4 106q0 117 -67 169q-68 52 -131 52q-147 0 -148 -123l8 -73q0 -41 -37 -41q-29 0 -63 10q-63 20 -64 70q0 80 108 152t216 73q108 -1 170 -21
q61 -20 91 -46t48 -72t19 -157l-10 -349q0 -70 16 -114t39 -56t45 -15q55 -4 55 -32z" />
    <glyph glyph-name="Abreve" unicode="&#x102;" horiz-adv-x="1662" 
d="M598 1825q0 6 23 6h10q8 0 22 -23q15 -24 33 -50t62 -48t112 -22q66 0 109 36t59 71q16 36 25 36h8q23 0 22 -6q-1 -82 -65 -170t-178 -88t-178 85t-64 173zM555 690q0 -25 18 -31t86 -6h64l195 2q80 0 79 30q0 30 -100 256t-127 226q-19 0 -117 -226t-98 -251zM41 16
q0 29 31 39q66 25 114 110t247 514q198 429 351 757q14 31 26 39t33 8t27 -8q6 -7 22 -55t26 -72t30 -80q20 -55 66 -166t206 -485q162 -373 186 -423t67 -86t75 -39t53 -11q22 -8 21 -31q0 -31 -55 -31l-185 12l-190 -8q-63 0 -81 5q-17 5 -17 21q0 28 51 39q51 8 51 69
q0 36 -51 175t-86 205q-18 35 -84 35l-248 -4h-109q-92 0 -116 -10t-38 -43q-15 -34 -44 -92t-39 -81t-31 -71q-45 -102 3 -154q24 -25 53 -28q76 -6 75 -39q0 -13 -6 -21t-29 -8l-170 2l-176 -8q-59 0 -59 24z" />
    <glyph glyph-name="abreve" unicode="&#x103;" horiz-adv-x="944" 
d="M223 1284q0 6 23 6h10q8 0 22 -22t33 -50q19 -26 63 -49t110 -23t110 37q43 35 59 71t25 36h8q23 0 23 -6q0 -82 -65 -170q-66 -88 -180 -88t-178 85t-63 173zM258 199q0 -63 41 -105t105 -43q111 0 156 49q44 49 44 160v148q0 18 -14 18l-21 -4q-47 -8 -93 -16t-103 -33
q-57 -26 -78 -54q-37 -57 -37 -120zM903 27q0 -43 -129 -43q-53 0 -91 28t-54 57q-17 27 -19 27t-25 -21t-94 -64q-71 -42 -151 -42q-242 0 -242 205q0 146 112 196t325 85q6 2 22 4t33 6q14 6 14 29l4 106q0 117 -67 169q-68 52 -131 52q-147 0 -148 -123l8 -73
q0 -41 -37 -41q-29 0 -63 10q-63 20 -64 70q0 80 108 152t216 73q108 -1 170 -21q61 -20 91 -46t48 -72t19 -157l-10 -349q0 -70 16 -114t39 -56t45 -15q55 -4 55 -32z" />
    <glyph glyph-name="Aogonek" unicode="&#x104;" horiz-adv-x="1662" 
d="M555 690q0 -25 18 -31t86 -6h64l195 2q80 0 79 30q0 30 -100 256t-127 226q-19 0 -117 -226t-98 -251zM41 16q0 29 31 39q61 23 105 98q43 75 235 491t372 792q14 31 26 39t33 8t27 -8q6 -7 22 -55t26 -72t30 -80q20 -55 66 -166t206 -485q162 -373 186 -423t67 -86
t75 -39t53 -11q22 -8 21 -31q0 -31 -55 -31l-185 12q-213 0 -260 -102q-20 -46 -20 -100t31 -98t73 -44t74 26q31 26 39 25q16 1 16 -21t-60 -67t-138 -45t-121 60t-43 121q0 59 35 115t77 85q111 80 111 162q0 45 -62 209t-84 189q-24 24 -57 26l-192 -4q-282 1 -302 -13
q-21 -14 -35 -44t-44 -88q-29 -58 -39 -81t-31 -71q-45 -102 3 -154q24 -25 53 -28q76 -6 75 -39q0 -13 -6 -21t-29 -8l-170 2l-176 -8q-59 0 -59 24z" />
    <glyph glyph-name="aogonek" unicode="&#x105;" horiz-adv-x="944" 
d="M258 199q0 -63 41 -105t105 -43q111 0 156 49q44 49 44 160v148q0 18 -14 18l-21 -4q-47 -8 -93 -16t-103 -33q-57 -26 -78 -54q-37 -57 -37 -120zM903 27q0 -19 -15 -27t-54 -17t-62 -18q-158 -61 -158 -174q0 -57 31 -94t67 -37t68 27t41 27q8 0 8 -21q0 -19 -58 -65
t-128 -46t-111 51t-40 124q0 73 59 126t121 78l59 25q1 4 -23 13t-49 35t-35 44q-12 18 -14 18t-25 -21t-94 -64q-71 -42 -151 -42q-242 0 -242 205q0 146 112 196t325 85q6 2 22 4t33 6q14 6 14 29l4 106q0 117 -67 169q-68 52 -131 52q-147 0 -148 -123l8 -73
q0 -41 -37 -41q-29 0 -63 10q-63 20 -64 70q0 80 108 152t216 73q108 -1 170 -21q61 -20 91 -46t48 -72t19 -157l-10 -349q0 -70 16 -114t39 -56t45 -14t39 -9q16 -6 16 -24z" />
    <glyph glyph-name="Cacute" unicode="&#x106;" horiz-adv-x="1652" 
d="M780 1546q0 10 15 31q66 98 139 281q16 38 41 38t67 -13t41 -40q0 -47 -198 -256q-59 -63 -82 -63t-23 22zM1440 1333q10 0 20 -8t11 -46q1 -39 9 -105t13 -109q6 -43 6 -51q0 -37 -24 -37q-18 0 -35 29q-199 373 -574 372q-256 0 -420 -164t-164 -444t152 -487
q78 -105 213 -167t316 -63q295 0 495 307q8 14 31 15q18 0 18 -26t-13 -93t-20 -101q-8 -33 -36 -46q-111 -53 -172 -80q-164 -70 -350 -70q-508 0 -715 320q-111 166 -111 387t86 399t265 288t425 109q125 0 252 -37t203 -73l76 -39q6 0 20 10q13 10 23 10z" />
    <glyph glyph-name="cacute" unicode="&#x107;" horiz-adv-x="925" 
d="M436 1006q0 10 15 30q66 98 139 281q16 39 41 39t67 -14t41 -39q0 -47 -198 -256q-59 -63 -82 -63t-23 22zM80 390q0 200 132 344t343 145q72 -1 155 -21t85 -47q4 -49 4 -118t-23 -68q-20 0 -37 26q-35 59 -132 103t-155 45q-95 0 -159 -99q-59 -86 -59 -244t100 -275
q102 -118 250 -118q72 0 133 27q61 28 95 54t42 26q23 0 23 -20t-43 -62q-132 -131 -327 -131t-311 117q-116 116 -116 316z" />
    <glyph glyph-name="Ccircumflex" unicode="&#x108;" horiz-adv-x="1652" 
d="M629 1563q0 2 8 18q127 186 145 227t26 50t21 10h52q23 0 34 -23q51 -90 113 -181t64 -103q0 -13 -18 -13t-114 87t-105 87t-100 -86t-109 -86t-17 13zM1440 1333q10 0 20 -8t11 -46q1 -39 9 -105t13 -109q6 -43 6 -51q0 -37 -24 -37q-18 0 -35 29q-199 373 -574 372
q-256 0 -420 -164t-164 -444t152 -487q78 -105 213 -167t316 -63q295 0 495 307q8 14 31 15q18 0 18 -26t-13 -93t-20 -101q-8 -33 -36 -46q-111 -53 -172 -80q-164 -70 -350 -70q-508 0 -715 320q-111 166 -111 387t86 399t265 288t425 109q125 0 252 -37t203 -73l76 -39
q6 0 20 10q13 10 23 10z" />
    <glyph glyph-name="ccircumflex" unicode="&#x109;" horiz-adv-x="925" 
d="M285 1022q0 2 8 18q127 186 145 228t26 50q8 9 21 9h52q23 0 34 -22q51 -89 113 -181t64 -104q0 -12 -18 -12t-114 87t-105 87t-100 -86t-109 -86t-17 12zM80 390q0 200 132 344t343 145q72 -1 155 -21t85 -47q4 -49 4 -118t-23 -68q-20 0 -37 26q-35 59 -132 103
t-155 45q-95 0 -159 -99q-59 -86 -59 -244t100 -275q102 -118 250 -118q72 0 133 27q61 28 95 54t42 26q23 0 23 -20t-43 -62q-132 -131 -327 -131t-311 117q-116 116 -116 316z" />
    <glyph glyph-name="Cdotaccent" unicode="&#x10a;" horiz-adv-x="1652" 
d="M764 1746q0 28 36 72t68 44t63 -42q32 -42 32 -75t-40 -73t-59 -40q-40 0 -70 43t-30 71zM1440 1333q10 0 20 -8t11 -46q1 -39 9 -105t13 -109q6 -43 6 -51q0 -37 -24 -37q-18 0 -35 29q-199 373 -574 372q-256 0 -420 -164t-164 -444t152 -487q78 -105 213 -167t316 -63
q295 0 495 307q8 14 31 15q18 0 18 -26t-13 -93t-20 -101q-8 -33 -36 -46q-111 -53 -172 -80q-164 -70 -350 -70q-508 0 -715 320q-111 166 -111 387t86 399t265 288t425 109q125 0 252 -37t203 -73l76 -39q6 0 20 10q13 10 23 10z" />
    <glyph glyph-name="cdotaccent" unicode="&#x10b;" horiz-adv-x="925" 
d="M420 1206q0 28 36 71q36 44 68 44t63 -42t31 -75q0 -32 -40 -72t-58 -40q-40 0 -70 43t-30 71zM80 390q0 200 132 344t343 145q72 -1 155 -21t85 -47q4 -49 4 -118t-23 -68q-20 0 -37 26q-35 59 -132 103t-155 45q-95 0 -159 -99q-59 -86 -59 -244t100 -275
q102 -118 250 -118q72 0 133 27q61 28 95 54t42 26q23 0 23 -20t-43 -62q-132 -131 -327 -131t-311 117q-116 116 -116 316z" />
    <glyph glyph-name="Ccaron" unicode="&#x10c;" horiz-adv-x="1652" 
d="M647 1868q19 0 113 -87t103 -87t101 86t110 86q17 0 18 -13q0 -2 -9 -18q-127 -186 -145 -227t-26 -50t-21 -10h-51q-25 0 -37 23q-35 59 -105 165t-70 120q0 12 19 12zM1440 1333q10 0 20 -8t11 -46q1 -39 9 -105t13 -109q6 -43 6 -51q0 -37 -24 -37q-18 0 -35 29
q-199 373 -574 372q-256 0 -420 -164t-164 -444t152 -487q78 -105 213 -167t316 -63q295 0 495 307q8 14 31 15q18 0 18 -26t-13 -93t-20 -101q-8 -33 -36 -46q-111 -53 -172 -80q-164 -70 -350 -70q-508 0 -715 320q-111 166 -111 387t86 399t265 288t425 109
q125 0 252 -37t203 -73l76 -39q6 0 20 10q13 10 23 10z" />
    <glyph glyph-name="ccaron" unicode="&#x10d;" horiz-adv-x="925" 
d="M303 1327q19 0 113 -87t103 -87t101 86t110 86q17 0 18 -12q0 -2 -9 -19q-127 -186 -145 -227t-26 -50t-21 -9h-51q-25 0 -37 22q-35 60 -105 166t-69 119q0 12 18 12zM80 390q0 200 132 344t343 145q72 -1 155 -21t85 -47q4 -49 4 -118t-23 -68q-20 0 -37 26
q-35 59 -132 103t-155 45q-95 0 -159 -99q-59 -86 -59 -244t100 -275q102 -118 250 -118q72 0 133 27q61 28 95 54t42 26q23 0 23 -20t-43 -62q-132 -131 -327 -131t-311 117q-116 116 -116 316z" />
    <glyph glyph-name="Dcaron" unicode="&#x10e;" horiz-adv-x="1622" 
d="M555 1868q19 0 113 -87t103 -87t101 86t110 86t17 -13q0 -2 -8 -18q-127 -186 -145 -227t-26 -50t-21 -10h-51q-25 0 -37 23q-35 59 -105 165t-70 120q0 12 19 12zM739 70h41q140 0 238 40t188 126q152 145 152 471q0 164 -65 297t-169 213q-215 162 -469 161h-82
q-98 0 -131 -35q-32 -32 -32 -139v-86l-4 -393l-3 -436q0 -96 21 -137q10 -18 39 -26t65 -20q36 -10 85 -23q48 -13 126 -13zM41 1432q0 20 17 23t87 3h179l399 8q297 0 543 -168q118 -80 192 -210t74 -281q0 -152 -20 -257t-64 -182q-45 -77 -90 -125q-45 -47 -115 -105
q-71 -58 -187 -101t-239 -43l-491 10q-72 0 -133 -5t-72 -5q-49 0 -49 26q0 16 7 24t31 13q59 15 90 60q32 45 31 84l2 555l-2 520q0 35 -33 71q-34 36 -79 38q-78 3 -78 47z" />
    <glyph glyph-name="dcaron" unicode="&#x10f;" horiz-adv-x="1157" 
d="M1081 1470q0 6 23 22q22 16 40 34q18 16 34 16q45 -1 79 -42q34 -42 33 -83q0 -88 -66 -142t-94 -54q-29 0 -28 14q0 6 22 18q64 33 64 93t-80 96q-27 12 -27 28zM227 492q-1 -152 95 -283t245 -131q92 0 168 47t76 115l2 350q0 125 -57 158q-152 90 -244 90
q-133 -1 -209 -98q-76 -96 -76 -248zM80 410q0 188 132 338t366 149q53 0 140 -30q87 -29 95 -29t8 73l4 265q0 112 -11 156t-35 58t-62 15h-23q-31 0 -37 2t-6 14v2q1 13 21 21t90 29t127 50t74 29q25 0 24 -41q0 -6 -13 -174t-13 -270l-5 -748q0 -139 14 -186t58 -61
q6 -2 35 -7t41 -13t12 -23q0 -25 -158 -37q-34 -2 -76 -11t-53 -10q-22 0 -22 23l-6 76q0 35 -19 34q-6 0 -30 -20t-54 -46q-31 -26 -89 -46t-126 -21q-190 0 -297 126q-106 125 -106 313z" />
    <glyph glyph-name="Dcroat" unicode="&#x110;" horiz-adv-x="1622" 
d="M739 70h41q140 0 238 40t188 126q152 145 152 471q0 164 -65 297t-169 213q-215 162 -469 161h-82q-98 0 -131 -35q-32 -32 -32 -139v-86l-2 -287q0 -29 6 -37t37 -8h309q29 0 36 -10t7 -32t-2 -27q-6 -20 -45 -21l-307 -2h-21q-16 0 -19 -4t-3 -20v-11l-3 -370
q0 -94 21 -136q8 -18 57 -34q78 -17 129 -33t129 -16zM41 1432q0 20 17 23t87 3h179l399 8q297 0 543 -168q118 -80 192 -210t74 -281q0 -152 -20 -257t-64 -182q-45 -77 -90 -125q-45 -47 -115 -105q-71 -58 -187 -101t-239 -43l-491 10q-72 0 -133 -5t-72 -5q-49 0 -49 26
q0 16 7 24t31 13q59 15 90 60q32 45 31 84l2 463q0 18 -5 25t-23 7h-133q-25 0 -25 44t25 44l133 2q20 0 24 6t4 29l-2 455q0 35 -33 71q-34 36 -79 38q-78 3 -78 47z" />
    <glyph glyph-name="dcroat" unicode="&#x111;" horiz-adv-x="1157" 
d="M227 492q-1 -152 95 -283t245 -131q92 0 168 47t76 115l2 350q0 125 -57 158q-152 90 -244 90q-133 -1 -209 -98q-76 -96 -76 -248zM80 410q0 188 132 338t366 149q53 0 140 -30q87 -29 95 -29t8 73v148q0 25 -6 31t-18 6h-285q-29 0 -36 9t-7 31t2 29q4 20 43 21l266 2
h17q18 0 23 2t5 61t-20 107t-88 47h-23q-31 0 -37 2t-6 14v2q1 13 21 21t90 29t127 50t74 29q25 0 24 -41l-22 -313q0 -10 9 -12t50 -2h66q24 0 24 -44t-24 -44h-93q-25 0 -31 -4t-5 -25l-5 -748q0 -139 14 -186t58 -61q6 -2 35 -7t41 -13t12 -23q0 -25 -158 -37
q-34 -2 -76 -11t-53 -10q-22 0 -22 23l-6 76q0 35 -19 34q-6 0 -30 -20t-54 -46q-31 -26 -89 -46t-126 -21q-190 0 -297 126q-106 125 -106 313z" />
    <glyph glyph-name="Emacron" unicode="&#x112;" horiz-adv-x="1236" 
d="M414 1741q0 45 32 45l371 -4q19 0 25 -10t6 -44t-29 -34l-385 2q-20 0 -20 45zM41 1432q0 29 57 28l56 -4l499 -10l410 8q39 0 39 -47q0 -12 -12 -81t-12 -121t-32 -52t-32 49t-35 94t-86 47q-184 14 -283 15h-53q-106 0 -123 -15q-31 -27 -31 -452q0 -102 39 -105h201
q123 0 164 9q106 20 121 106q6 35 26 35t24 -6t5 -27l-16 -215l6 -125q0 -51 -15 -51q-31 0 -45 49q-29 86 -51 101q-43 29 -149 28h-148l-65 2h-15q-84 0 -84 -39l-4 -295v-82q0 -147 50 -162t88 -16q307 0 436 47t155 97q25 51 45 51q25 0 25 -35q0 -88 -88 -178t-154 -90
q-147 0 -332 10t-231 10l-278 -18q-43 0 -43 20v25q0 12 22 15t68 26q47 22 62 94t16 301v254l6 354q0 55 -4 187q-2 59 -52 92t-114 35q-33 0 -33 37z" />
    <glyph glyph-name="emacron" unicode="&#x113;" horiz-adv-x="954" 
d="M664 1153l-385 2q-20 0 -21 45q0 45 33 45l371 -4q18 0 24 -10t6 -44t-28 -34zM682 608q0 62 -57 144t-159 82t-158 -81t-56 -153q0 -29 27 -29l360 13q29 0 36 5t7 19zM80 392q0 210 116 351t300 142q86 0 156 -31t110 -75q38 -45 74 -111t36 -109q0 -37 -84 -37h-526
q-16 0 -19 -3t-3 -19q0 -194 103 -304t243 -110q86 0 175 46t93 46q20 0 20 -22t-45 -63q-45 -42 -86 -68q-98 -63 -231 -64q-180 0 -306 111q-126 110 -126 320z" />
    <glyph glyph-name="Ebreve" unicode="&#x114;" horiz-adv-x="1236" 
d="M399 1825q0 6 23 6h10q8 0 22 -23q14 -24 33 -50t63 -48t110 -22t110 36q43 36 59 71q16 36 25 36h8q23 0 23 -6q0 -82 -65 -170q-66 -88 -180 -88t-178 85t-63 173zM41 1432q0 29 57 28l56 -4l499 -10l410 8q39 0 39 -47q0 -12 -12 -81t-12 -121t-32 -52t-32 49t-35 94
t-86 47q-184 14 -283 15h-53q-106 0 -123 -15q-31 -27 -31 -452q0 -102 39 -105h201q123 0 164 9q106 20 121 106q6 35 26 35t24 -6t5 -27l-16 -215l6 -125q0 -51 -15 -51q-31 0 -45 49q-29 86 -51 101q-43 29 -149 28h-148l-65 2h-15q-84 0 -84 -39l-4 -295v-82
q0 -147 50 -162t88 -16q307 0 436 47t155 97q25 51 45 51q25 0 25 -35q0 -88 -88 -178t-154 -90q-147 0 -332 10t-231 10l-278 -18q-43 0 -43 20v25q0 12 22 15t68 26q47 22 62 94t16 301v254l6 354q0 55 -4 187q-2 59 -52 92t-114 35q-33 0 -33 37z" />
    <glyph glyph-name="ebreve" unicode="&#x115;" horiz-adv-x="954" 
d="M244 1284q0 6 22 6h10q8 0 22 -22t34 -50q18 -26 62 -49t111 -23t109 37q42 35 60 71q16 36 24 36h9q23 0 22 -6q-1 -82 -65 -170t-179 -88t-178 85t-63 173zM682 608q0 62 -57 144t-159 82t-158 -81t-56 -153q0 -29 27 -29l360 13q29 0 36 5t7 19zM80 392q0 210 116 351
t300 142q86 0 156 -31t110 -75q38 -45 74 -111t36 -109q0 -37 -84 -37h-526q-16 0 -19 -3t-3 -19q0 -194 103 -304t243 -110q86 0 175 46t93 46q20 0 20 -22t-45 -63q-45 -42 -86 -68q-98 -63 -231 -64q-180 0 -306 111q-126 110 -126 320z" />
    <glyph glyph-name="Edotaccent" unicode="&#x116;" horiz-adv-x="1236" 
d="M640 1862q32 0 64 -42t31 -75q0 -33 -40 -73t-58 -40q-41 0 -71 43t-29 71q0 28 35 72q36 44 68 44zM41 1432q0 29 57 28l56 -4l499 -10l410 8q39 0 39 -47q0 -12 -12 -81t-12 -121t-32 -52t-32 49t-35 94t-86 47q-184 14 -283 15h-53q-106 0 -123 -15q-31 -27 -31 -452
q0 -102 39 -105h201q123 0 164 9q106 20 121 106q6 35 26 35t24 -6t5 -27l-16 -215l6 -125q0 -51 -15 -51q-31 0 -45 49q-29 86 -51 101q-43 29 -149 28h-148l-65 2h-15q-84 0 -84 -39l-4 -295v-82q0 -147 50 -162t88 -16q307 0 436 47t155 97q25 51 45 51q25 0 25 -35
q0 -88 -88 -178t-154 -90q-147 0 -332 10t-231 10l-278 -18q-43 0 -43 20v25q0 12 22 15t68 26q47 22 62 94t16 301v254l6 354q0 55 -4 187q-2 59 -52 92t-114 35q-33 0 -33 37z" />
    <glyph glyph-name="edotaccent" unicode="&#x117;" horiz-adv-x="954" 
d="M381 1206q0 28 36 71q35 44 67 44t64 -42t32 -75q0 -32 -40 -72t-59 -40q-40 0 -70 43t-30 71zM682 608q0 62 -57 144t-159 82t-158 -81t-56 -153q0 -29 27 -29l360 13q29 0 36 5t7 19zM80 392q0 210 116 351t300 142q86 0 156 -31t110 -75q38 -45 74 -111t36 -109
q0 -37 -84 -37h-526q-16 0 -19 -3t-3 -19q0 -194 103 -304t243 -110q86 0 175 46t93 46q20 0 20 -22t-45 -63q-45 -42 -86 -68q-98 -63 -231 -64q-180 0 -306 111q-126 110 -126 320z" />
    <glyph glyph-name="Eogonek" unicode="&#x118;" horiz-adv-x="1236" 
d="M41 1432q0 29 57 28l56 -4l499 -10l410 8q39 0 39 -47q0 -12 -12 -81t-12 -121t-32 -52t-32 49t-35 93t-86 48q-184 14 -283 15h-53q-106 0 -123 -15q-31 -27 -31 -452q0 -102 39 -105h201q123 0 164 8q85 18 107 67q11 22 12 36q4 39 30 39q18 0 22 -6t5 -27l-16 -215
l6 -125q0 -51 -15 -51q-29 0 -49 67t-47 83q-43 29 -149 28h-148l-65 2h-15q-84 0 -84 -39l-4 -295v-82q0 -147 50 -162t88 -16q307 0 436 47t155 97q25 51 45 51q25 0 25 -33q0 -78 -62 -151t-126 -108q-65 -35 -101 -107q-14 -36 -14 -92t36 -96t78 -40q43 0 75 20t34 21
q14 0 14 -12q0 -35 -51 -74t-134 -39t-132 56t-49 129q0 109 133 219q0 4 -25 4l-481 20l-278 -18q-43 0 -43 20v25q0 12 22 15t68 26q47 22 62 94t16 301v254l6 354q0 55 -4 187q-2 59 -52 92t-114 35q-33 2 -33 37z" />
    <glyph glyph-name="eogonek" unicode="&#x119;" horiz-adv-x="954" 
d="M682 608q0 62 -57 144t-159 82t-158 -81t-56 -153q0 -29 27 -29l360 13q29 0 36 5t7 19zM512 -39q-180 0 -306 111q-126 110 -126 320t116 351t300 142q86 0 156 -31t110 -75q38 -45 74 -111t36 -109q0 -37 -84 -37h-526q-16 0 -19 -3t-3 -19q0 -194 103 -304t243 -110
q86 0 175 46t93 46q20 0 20 -22t-93 -99q-93 -78 -113 -110q-39 -66 -39 -121q0 -94 55 -137q31 -23 65 -23q35 0 65 20t32 21q14 0 14 -12q0 -35 -48 -74t-110 -39t-102 23q-92 53 -92 153t78 185l26 24q0 4 -6 4h-4q-31 -10 -90 -10z" />
    <glyph glyph-name="Ecaron" unicode="&#x11a;" horiz-adv-x="1236" 
d="M420 1868q18 0 112 -87t104 -87t101 86t109 86t18 -13q0 -2 -8 -18q-127 -186 -145 -227q-19 -41 -27 -50t-20 -10h-52q-25 0 -37 23q-35 59 -105 165t-68 120q0 12 18 12zM41 1432q0 29 57 28l56 -4l499 -10l410 8q39 0 39 -47q0 -12 -12 -81t-12 -121t-32 -52t-32 49
t-35 94t-86 47q-184 14 -283 15h-53q-106 0 -123 -15q-31 -27 -31 -452q0 -102 39 -105h201q123 0 164 9q106 20 121 106q6 35 26 35t24 -6t5 -27l-16 -215l6 -125q0 -51 -15 -51q-31 0 -45 49q-29 86 -51 101q-43 29 -149 28h-148l-65 2h-15q-84 0 -84 -39l-4 -295v-82
q0 -147 50 -162t88 -16q307 0 436 47t155 97q25 51 45 51q25 0 25 -35q0 -88 -88 -178t-154 -90q-147 0 -332 10t-231 10l-278 -18q-43 0 -43 20v25q0 12 22 15t68 26q47 22 62 94t16 301v254l6 354q0 55 -4 187q-2 59 -52 92t-114 35q-33 0 -33 37z" />
    <glyph glyph-name="ecaron" unicode="&#x11b;" horiz-adv-x="954" 
d="M264 1327q18 0 112 -87t104 -87t102 86t109 86t18 -12q0 -2 -9 -19q-127 -186 -145 -227q-19 -41 -27 -50t-20 -9h-51q-25 0 -37 22q-35 60 -105 166t-69 119q0 12 18 12zM682 608q0 62 -57 144t-159 82t-158 -81t-56 -153q0 -29 27 -29l360 13q29 0 36 5t7 19zM80 392
q0 210 116 351t300 142q86 0 156 -31t110 -75q38 -45 74 -111t36 -109q0 -37 -84 -37h-526q-16 0 -19 -3t-3 -19q0 -194 103 -304t243 -110q86 0 175 46t93 46q20 0 20 -22t-45 -63q-45 -42 -86 -68q-98 -63 -231 -64q-180 0 -306 111q-126 110 -126 320z" />
    <glyph glyph-name="Gcircumflex" unicode="&#x11c;" horiz-adv-x="1675" 
d="M633 1563q0 2 8 18q127 186 145 227t26 50t22 10h51q23 0 35 -23q51 -90 113 -181q63 -91 63 -103q0 -13 -18 -13t-114 87q-94 87 -104 87t-101 -86t-109 -86t-17 13zM1493 997q-25 0 -35 25q-72 156 -240 264t-346 107q-256 0 -422 -161t-167 -446q-1 -188 69 -354
t212 -274t314 -109q172 0 299 72q128 72 142 164q6 49 6 258q0 79 -30 109t-93 37t-70 21t-8 25q0 23 37 23l228 -10l163 2h31q33 0 33 -19q0 -14 -52 -37t-59 -57q-14 -88 -14 -235t5 -182q5 -36 5 -44t-15 -13t-54 -16t-78 -35t-63 -36q-25 -12 -49 -24q-165 -84 -333 -87
q-223 1 -388 61t-255 162q-176 203 -176 486q0 223 89 401t273 288t434 110q306 0 489 -131q22 -15 27 -15l56 31q31 0 32 -50t8 -116t13 -109t7 -51q0 -35 -25 -35z" />
    <glyph glyph-name="gcircumflex" unicode="&#x11d;" horiz-adv-x="999" 
d="M254 1022q0 2 8 18q128 186 146 228t26 50q8 9 21 9h51q23 0 35 -22q51 -89 113 -181t62 -104t-18 -12t-113 87t-105 87t-100 -86t-108 -86t-18 12zM283 592q0 -120 58 -203q58 -82 148 -82t140 71q49 72 49 180t-57 196t-145 88t-140 -65q-53 -65 -53 -185zM199 -186
q0 -90 75 -137q76 -46 195 -46q119 1 220 53t101 130t-71 96q-55 12 -156 12h-18q-66 0 -160 15l-92 14q-20 0 -57 -41t-37 -96zM160 95q0 61 26 107t54 68q27 22 26 30q0 7 -21 26q-23 18 -49 42t-48 78q-43 104 -4 229t160 179q75 33 166 33q150 0 233 -62q28 -20 40 -20
t101 37q29 12 43 55t31 43q27 0 26 -16q0 -50 -14 -106t-34 -88t-81 -56q23 -61 23 -103q0 -131 -98 -221t-240 -90q-54 0 -102 9t-68 10t-51 -28q-30 -30 -29 -73q0 -70 63 -88t211 -18h94q297 0 297 -181q0 -63 -14 -96q-39 -99 -160 -159t-305 -60t-292 88
q-65 53 -64 123q0 70 37 108t73 56t37 24q0 6 -34 31q-33 27 -33 89z" />
    <glyph glyph-name="Gbreve" unicode="&#x11e;" horiz-adv-x="1675" 
d="M631 1825q0 6 22 6h11q8 0 22 -23q14 -24 32 -50t63 -48q44 -22 111 -22q68 0 110 36t59 71q16 36 24 36h9q23 0 22 -6q0 -82 -64 -170t-180 -88q-115 0 -178 85t-63 173zM1493 997q-25 0 -35 25q-72 156 -240 264t-346 107q-256 0 -422 -161t-167 -446q-1 -188 69 -354
t212 -274t314 -109q172 0 299 72q128 72 142 164q6 49 6 258q0 79 -30 109t-93 37t-70 21t-8 25q0 23 37 23l228 -10l163 2h31q33 0 33 -19q0 -14 -52 -37t-59 -57q-14 -88 -14 -235t5 -182q5 -36 5 -44t-15 -13t-54 -16t-78 -35t-63 -36q-25 -12 -49 -24q-165 -84 -333 -87
q-223 1 -388 61t-255 162q-176 203 -176 486q0 223 89 401t273 288t434 110q306 0 489 -131q22 -15 27 -15l56 31q31 0 32 -50t8 -116t13 -109t7 -51q0 -35 -25 -35z" />
    <glyph glyph-name="gbreve" unicode="&#x11f;" horiz-adv-x="999" 
d="M252 1284q0 6 22 6h11q8 0 22 -22q15 -22 33 -50q18 -26 62 -49t111 -23t110 37q43 35 59 71t25 36h8q23 0 22 -6q-1 -82 -65 -170t-178 -88t-179 85q-63 85 -63 173zM283 592q0 -120 58 -203q58 -82 148 -82t140 71q49 72 49 180t-57 196t-145 88t-140 -65
q-53 -65 -53 -185zM199 -186q0 -90 75 -137q76 -46 195 -46q119 1 220 53t101 130t-71 96q-55 12 -156 12h-18q-66 0 -160 15l-92 14q-20 0 -57 -41t-37 -96zM160 95q0 61 26 107t54 68q27 22 26 30q0 7 -21 26q-23 18 -49 42t-48 78q-43 104 -4 229t160 179q75 33 166 33
q150 0 233 -62q28 -20 40 -20t101 37q29 12 43 55t31 43q27 0 26 -16q0 -50 -14 -106t-34 -88t-81 -56q23 -61 23 -103q0 -131 -98 -221t-240 -90q-54 0 -102 9t-68 10t-51 -28q-30 -30 -29 -73q0 -70 63 -88t211 -18h94q297 0 297 -181q0 -63 -14 -96q-39 -99 -160 -159
t-305 -60t-292 88q-65 53 -64 123q0 70 37 108t73 56t37 24q0 6 -34 31q-33 27 -33 89z" />
    <glyph glyph-name="Gdotaccent" unicode="&#x120;" horiz-adv-x="1675" 
d="M768 1746q0 28 36 72t68 44t63 -42q32 -42 32 -75t-40 -73t-59 -40q-40 0 -70 43t-30 71zM1493 997q-25 0 -35 25q-72 156 -240 264t-346 107q-256 0 -422 -161t-167 -446q-1 -188 69 -354t212 -274t314 -109q172 0 299 72q128 72 142 164q6 49 6 258q0 79 -30 109
t-93 37t-70 21t-8 25q0 23 37 23l228 -10l163 2h31q33 0 33 -19q0 -14 -52 -37t-59 -57q-14 -88 -14 -235t5 -182q5 -36 5 -44t-15 -13t-54 -16t-78 -35t-63 -36q-25 -12 -49 -24q-165 -84 -333 -87q-223 1 -388 61t-255 162q-176 203 -176 486q0 223 89 401t273 288
t434 110q306 0 489 -131q22 -15 27 -15l56 31q31 0 32 -50t8 -116t13 -109t7 -51q0 -35 -25 -35z" />
    <glyph glyph-name="gdotaccent" unicode="&#x121;" horiz-adv-x="999" 
d="M389 1206q0 28 36 71q36 44 68 44q31 0 63 -42t32 -75q0 -32 -40 -72t-59 -40q-40 0 -70 43t-30 71zM283 592q0 -120 58 -203q58 -82 148 -82t140 71q49 72 49 180t-57 196t-145 88t-140 -65q-53 -65 -53 -185zM199 -186q0 -90 75 -137q76 -46 195 -46q119 1 220 53
t101 130t-71 96q-55 12 -156 12h-18q-66 0 -160 15l-92 14q-20 0 -57 -41t-37 -96zM160 95q0 61 26 107t54 68q27 22 26 30q0 7 -21 26q-23 18 -49 42t-48 78q-43 104 -4 229t160 179q75 33 166 33q150 0 233 -62q28 -20 40 -20t101 37q29 12 43 55t31 43q27 0 26 -16
q0 -50 -14 -106t-34 -88t-81 -56q23 -61 23 -103q0 -131 -98 -221t-240 -90q-54 0 -102 9t-68 10t-51 -28q-30 -30 -29 -73q0 -70 63 -88t211 -18h94q297 0 297 -181q0 -63 -14 -96q-39 -99 -160 -159t-305 -60t-292 88q-65 53 -64 123q0 70 37 108t73 56t37 24q0 6 -34 31
q-33 27 -33 89z" />
    <glyph glyph-name="Gcommaaccent" unicode="&#x122;" horiz-adv-x="1675" 
d="M799 -162q0 6 22 23q23 17 41 33t33 16q44 0 79 -42q34 -42 34 -83q0 -88 -66 -142q-66 -55 -94 -55t-29 15q0 6 23 18q63 33 63 92t-80 97q-26 12 -26 28zM1493 997q-25 0 -35 25q-72 156 -240 264t-346 107q-256 0 -422 -161t-167 -446q-1 -188 69 -354t212 -274
t314 -109q172 0 299 72q128 72 142 164q6 49 6 258q0 79 -30 109t-93 37t-70 21t-8 25q0 23 37 23l228 -10l163 2h31q33 0 33 -19q0 -14 -52 -37t-59 -57q-14 -88 -14 -235t5 -182q5 -36 5 -44t-15 -13t-54 -16t-78 -35t-63 -36q-25 -12 -49 -24q-165 -84 -333 -87
q-223 1 -388 61t-255 162q-176 203 -176 486q0 223 89 401t273 288t434 110q306 0 489 -131q22 -15 27 -15l56 31q31 0 32 -50t8 -116t13 -109t7 -51q0 -35 -25 -35z" />
    <glyph glyph-name="gcommaaccent" unicode="&#x123;" horiz-adv-x="999" 
d="M379 1149q0 88 64 141q65 53 95 53t29 -14q0 -6 -22 -18q-63 -33 -63 -92t79 -97q27 -12 27 -28q0 -6 -23 -22t-41 -34q-18 -16 -32 -16q-47 2 -80 44t-33 83zM283 592q0 -120 58 -203q58 -82 148 -82t140 71q49 72 49 180t-57 196t-145 88t-140 -65q-53 -65 -53 -185z
M199 -186q0 -90 75 -137q76 -46 195 -46q119 1 220 53t101 130t-71 96q-55 12 -156 12h-18q-66 0 -160 15l-92 14q-20 0 -57 -41t-37 -96zM160 95q0 61 26 107t54 68q27 22 26 30q0 7 -21 26q-23 18 -49 42t-48 78q-43 104 -4 229t160 179q75 33 166 33q150 0 233 -62
q28 -20 40 -20t101 37q29 12 43 55t31 43q27 0 26 -16q0 -50 -14 -106t-34 -88t-81 -56q23 -61 23 -103q0 -131 -98 -221t-240 -90q-54 0 -102 9t-68 10t-51 -28q-30 -30 -29 -73q0 -70 63 -88t211 -18h94q297 0 297 -181q0 -63 -14 -96q-39 -99 -160 -159t-305 -60t-292 88
q-65 53 -64 123q0 70 37 108t73 56t37 24q0 6 -34 31q-33 27 -33 89z" />
    <glyph glyph-name="Hcircumflex" unicode="&#x124;" horiz-adv-x="1619" 
d="M571 1563q0 2 9 18q127 186 145 227q19 41 27 50t20 10h51q23 0 35 -23q52 -90 114 -181t62 -99q0 -17 -18 -17t-114 87t-104 87t-100 -86t-110 -86t-17 13zM99 1397q-36 0 -47 13t-11 22q0 23 57 22l232 -8l180 4q45 0 45 -29q0 -35 -72 -35q-41 0 -59 -84t-18 -172v-75
l-5 -189q1 -51 13 -65t57 -15l336 2l387 -4q23 0 23 285v111q0 154 -62 188q-25 14 -51 18t-42 12q-17 8 -18 27q0 20 80 21l199 -4l160 4q47 0 47 -27t-29 -26q-57 0 -87 -35t-30 -92l-10 -805v-76l8 -188q0 -133 172 -152q25 0 25 -22q0 -15 -20 -19t-80 -4l-158 10
l-193 -10h-34q-29 0 -34 8t-5 20q0 20 45 32t67 30q43 31 43 193l7 362q0 31 -25 43t-80 12t-166 -4l-110 -2l-377 6q-31 0 -41 -12t-10 -63l-9 -252v-88q1 -88 17 -131t80 -84q16 -10 72 -10t55 -23q0 -37 -66 -37l-170 8l-221 -10q-96 0 -96 30t63 38q25 2 51 26t35 63
q8 40 19 216q10 176 10 336v116l2 221q0 156 -12 244q-6 51 -54 80t-85 29z" />
    <glyph glyph-name="hcircumflex" unicode="&#x125;" horiz-adv-x="1202" 
d="M397 1563q0 2 9 18q127 186 145 227t26 50t21 10h51q23 0 35 -23q52 -90 114 -181t62 -99q0 -17 -18 -17t-114 87t-104 87t-100 -86t-110 -86t-17 13zM70 20q0 20 24 27q59 16 77 52q17 36 17 106l9 698v101q-1 280 -13 340t-73 61h-27l-8 2q-35 0 -35 18t21 30
q22 11 62 21t114 44q74 33 92 32q27 0 26 -47q0 -10 -7 -49t-9 -226t-7 -305t-5 -153t16 -35q4 0 42 38t104 76t143 38q166 0 258 -98t92 -306v-297q1 -55 21 -86t47 -32q111 -10 110 -43q0 -33 -63 -33l-172 10l-158 -6q-47 0 -47 20q0 37 55 37q20 0 38 23q17 23 17 69
l3 54l2 286q0 125 -76 216t-175 91t-202 -79q-37 -29 -47 -93t-10 -286v-47q0 -92 14 -150q23 -80 113 -86q29 -2 44 -7t15 -21q0 -25 -23 -25l-53 2q-54 2 -108 5t-58 3l-145 -10q-51 0 -53 6t-2 14z" />
    <glyph glyph-name="Hbar" unicode="&#x126;" horiz-adv-x="1619" 
d="M807 786q111 0 377 -2q27 0 29 30q3 30 4 52v127q-1 25 -7 31t-28 6l-334 -2l-373 2h-41q-24 0 -26 -4t-2 -10l-5 -150q1 -51 13 -65t57 -15h336zM227 1032h-121q-25 0 -24 44q0 44 22 44h123q23 0 23 27q-4 78 -11 135t-55 86t-85 29q-36 0 -47 13t-11 22q0 23 57 22
l232 -8l180 4q45 0 45 -29q0 -35 -72 -35q-43 0 -60 -80t-17 -132q0 -51 2 -53q2 -1 14 -1l389 2h371q26 0 30 8t4 68t-16 108q-18 48 -44 62t-52 18t-42 12q-17 8 -18 27q0 20 80 21l199 -4l160 4q47 0 47 -27t-35 -27q-76 1 -96 -65q-16 -53 -17 -137v-41q0 -15 6 -21
t29 -6h88q29 0 36 -10t7 -32t-2 -29q-6 -20 -45 -21h-84q-25 0 -31 -6t-6 -31l-2 -225l-4 -307v-76l8 -188q0 -133 172 -152q25 0 25 -22q0 -15 -20 -19t-80 -4l-158 10l-193 -10h-34q-29 0 -34 8t-5 20q0 20 45 32t67 30q43 31 43 193l7 362q1 31 -13 43t-50 12t-177 -2
l-141 -2l-377 4q-31 0 -41 -12t-10 -63l-9 -252v-88q1 -88 17 -131t80 -84q16 -10 72 -10t55 -23q0 -37 -66 -37l-170 8l-221 -10q-96 0 -96 30t63 38q25 2 51 26t35 63q8 40 19 216q10 176 10 336v116l2 193q0 16 -23 16z" />
    <glyph glyph-name="hbar" unicode="&#x127;" horiz-adv-x="1202" 
d="M70 20q0 20 24 27q59 16 77 52q17 36 17 106l9 698v164q1 17 -5 23t-24 6h-84q-29 0 -36 9t-7 31t2 29q6 20 43 21h88q23 0 23 24q-1 125 -21 160t-65 35h-27l-8 2q-35 0 -35 18t21 30q22 11 62 21t114 44q74 33 92 32q27 0 26 -47q0 -23 -8 -53t-8 -144q0 -112 5 -118
t22 -6h295q24 0 24 -44t-24 -44h-293q-19 0 -25 -5t-6 -24l-10 -289q0 -41 16 -41q4 0 42 38t104 76t143 38q166 0 258 -98t92 -306v-297q1 -55 21 -86t47 -32q111 -10 110 -43q0 -33 -63 -33l-172 10l-158 -6q-47 0 -47 20q0 37 55 37q20 0 38 23q17 23 17 69l3 54l2 286
q0 125 -76 216t-175 91t-202 -79q-37 -29 -47 -93t-10 -286v-47q0 -92 14 -150q23 -80 113 -86q29 -2 44 -7t15 -21q0 -25 -23 -25l-53 2q-54 2 -108 5t-58 3l-145 -10q-51 0 -53 6t-2 14z" />
    <glyph glyph-name="Itilde" unicode="&#x128;" horiz-adv-x="671" 
d="M4 1626q0 35 69 126t124 91t133 -49t123 -49t87 57t46 58q20 0 20 -31t-68 -117t-124 -86t-138 49t-118 49t-65 -28q-28 -28 -45 -58q-17 -29 -23 -28q-21 0 -21 16zM70 28q0 30 63 38q25 2 51 26t34 52q7 30 16 248t10 315v116l2 221v95q0 90 -7 144t-55 81t-96 29
q-47 1 -47 31t57 30l232 -8l180 4q55 0 55 -29q0 -16 -94 -55q-66 -27 -65 -236l-7 -757q0 -172 48 -242t102 -70l41 -2q41 0 43 -30q0 -29 -51 -29l-195 8l-225 -10q-92 0 -92 30z" />
    <glyph glyph-name="itilde" unicode="&#x129;" horiz-adv-x="581" 
d="M-47 1085q0 35 69 126q70 91 124 91t132 -48q78 -50 124 -50q44 0 86 58t47 57q20 0 20 -31t-68 -117t-125 -86q-57 -1 -138 49t-118 50q-57 0 -109 -86q-17 -29 -24 -29q-20 0 -20 16zM98 16q0 28 31 37q2 0 8 2q47 16 62 49q14 33 14 318v180q0 59 -14 94
q-15 35 -27 43q-12 7 -42 13t-43 11t-13 16t7 20t58 25t107 40q55 25 65 30t31 5q31 0 31 -39l-13 -98v-561q0 -61 18 -97t45 -43q26 -8 52 -8q61 -4 62 -33q0 -35 -35 -34l-31 2l-145 4l-146 -4q-82 0 -82 28z" />
    <glyph glyph-name="Imacron" unicode="&#x12a;" horiz-adv-x="671" 
d="M494 1694l-385 2q-20 0 -21 45q0 45 33 45l371 -4q18 0 24 -10t6 -44t-28 -34zM70 28q0 30 63 38q25 2 51 26t34 52q7 30 16 248t10 315v116l2 221v95q0 90 -7 144t-55 81t-96 29q-47 1 -47 31t57 30l232 -8l180 4q55 0 55 -29q0 -16 -94 -55q-66 -27 -65 -236l-7 -757
q0 -172 48 -242t102 -70l41 -2q41 0 43 -30q0 -29 -51 -29l-195 8l-225 -10q-92 0 -92 30z" />
    <glyph glyph-name="imacron" unicode="&#x12b;" horiz-adv-x="581" 
d="M37 1200q0 45 33 45l370 -4q18 0 24 -10t7 -44q0 -34 -29 -34l-385 2q-20 0 -20 45zM98 16q0 28 31 37q2 0 8 2q47 16 62 49q14 33 14 318v180q0 59 -14 94q-15 35 -27 43q-12 7 -42 13t-43 11t-13 16t7 20t58 25t107 40q55 25 65 30t31 5q31 0 31 -39l-13 -98v-561
q0 -61 18 -97t45 -43q26 -8 52 -8q61 -4 62 -33q0 -35 -35 -34l-31 2l-145 4l-146 -4q-82 0 -82 28z" />
    <glyph glyph-name="Ibreve" unicode="&#x12c;" horiz-adv-x="671" 
d="M74 1825q0 6 22 6h10q8 0 22 -23q14 -24 34 -50q18 -26 62 -48t111 -22t109 36t60 71q16 36 24 36h9q23 0 22 -6q-1 -82 -65 -170t-179 -88t-178 85t-63 173zM70 28q0 30 63 38q25 2 51 26t34 52q7 30 16 248t10 315v116l2 221v95q0 90 -7 144t-55 81t-96 29
q-47 1 -47 31t57 30l232 -8l180 4q55 0 55 -29q0 -16 -94 -55q-66 -27 -65 -236l-7 -757q0 -172 48 -242t102 -70l41 -2q41 0 43 -30q0 -29 -51 -29l-195 8l-225 -10q-92 0 -92 30z" />
    <glyph glyph-name="ibreve" unicode="&#x12d;" horiz-adv-x="581" 
d="M23 1284q0 6 22 6h10q9 0 23 -22t32 -50q18 -26 63 -49q44 -23 111 -23q68 0 110 37q42 35 58 71t25 36h8q23 0 23 -6q0 -82 -65 -170t-179 -88t-178 85q-63 85 -63 173zM98 16q0 28 31 37q2 0 8 2q47 16 62 49q14 33 14 318v180q0 59 -14 94q-15 35 -27 43q-12 7 -42 13
t-43 11t-13 16t7 20t58 25t107 40q55 25 65 30t31 5q31 0 31 -39l-13 -98v-561q0 -61 18 -97t45 -43q26 -8 52 -8q61 -4 62 -33q0 -35 -35 -34l-31 2l-145 4l-146 -4q-82 0 -82 28z" />
    <glyph glyph-name="Iogonek" unicode="&#x12e;" horiz-adv-x="671" 
d="M589 0q-44 0 -75 1t-46 3t-19 2q-59 0 -92 -67q-64 -137 -1 -234q31 -45 67 -45q35 0 59 11t32 11t8 -18q0 -20 -47 -51t-118 -31t-117 56t-47 118q0 62 18 108t39 66l41 41q18 17 18 25t-18 8l-47 -4q-47 -2 -82 -2q-92 0 -92 30t63 38q25 2 51 26t34 52q7 30 16 248
t10 315v116l2 221v95q0 90 -7 144t-55 81t-96 29q-47 1 -47 31t57 30l232 -8l180 4q55 0 55 -29q0 -16 -94 -55q-66 -27 -65 -236l-7 -757q0 -172 48 -242t102 -70l41 -2q41 0 43 -30q0 -29 -44 -29z" />
    <glyph glyph-name="iogonek" unicode="&#x12f;" horiz-adv-x="581" 
d="M190 1206q0 28 36 71q36 44 68 44t62 -42t31 -75q0 -32 -39 -72t-57 -40q-41 0 -71 43t-30 71zM98 16q0 28 31 37q2 0 8 2q47 16 62 49q14 33 14 318v180q0 59 -14 94q-15 35 -27 43q-12 7 -42 13t-43 11t-13 16t7 20t58 25t107 40q55 25 65 30t31 5q31 0 31 -39l-13 -98
v-561q0 -61 18 -97t45 -43q26 -8 52 -8q61 -4 62 -33q0 -35 -35 -34l-115 4q-29 0 -59 -23q-59 -47 -60 -160q0 -57 34 -102t70 -45t58 11t27 12q14 1 14 -19t-47 -51t-117 -31t-116 60t-46 120q1 60 21 104t44 64t44 36t20 20q0 6 -16 6h-2l-2 -2l-74 -2q-82 0 -82 28z" />
    <glyph glyph-name="Idotaccent" unicode="&#x130;" horiz-adv-x="671" 
d="M211 1746q0 28 36 72q35 44 67 44t64 -42t32 -75t-40 -73t-59 -40q-40 0 -70 43t-30 71zM70 28q0 30 63 38q25 2 51 26t34 52q7 30 16 248t10 315v116l2 221v95q0 90 -7 144t-55 81t-96 29q-47 1 -47 31t57 30l232 -8l180 4q55 0 55 -29q0 -16 -94 -55q-66 -27 -65 -236
l-7 -757q0 -172 48 -242t102 -70l41 -2q41 0 43 -30q0 -29 -51 -29l-195 8l-225 -10q-92 0 -92 30z" />
    <glyph glyph-name="dotlessi" unicode="&#x131;" horiz-adv-x="581" 
d="M98 16q0 28 31 37q2 0 8 2q47 16 62 49q14 33 14 318v180q0 59 -14 94q-15 35 -27 43q-12 7 -42 13t-43 11t-13 16t7 20t58 25t107 40q55 25 65 30t31 5q31 0 31 -39l-13 -98v-561q0 -61 18 -97t45 -43q26 -8 52 -8q61 -4 62 -33q0 -35 -35 -34l-31 2l-145 4l-146 -4
q-82 0 -82 28z" />
    <glyph glyph-name="IJ" unicode="&#x132;" horiz-adv-x="1265" 
d="M922 922q0 294 -8 355q-7 60 -55 85t-97 27q-49 3 -49 37t59 34q20 0 93 -6t139 -6l165 2q57 0 58 -27q0 -18 -94 -57q-43 -16 -43 -139v-94l-3 -834l-2 -158q0 -233 -126 -384t-297 -150q-82 0 -82 78q0 31 24 71t37 41q14 0 46 -35t75 -34q113 0 141 159q27 139 27 205
v242l-2 53l-2 137q-4 104 -4 398zM70 28q0 30 63 38q25 2 51 26t34 52q7 30 16 248t10 315v116l2 221v95q0 90 -7 144t-55 81t-96 29q-47 1 -47 31t57 30l232 -8l180 4q55 0 55 -29q0 -16 -94 -55q-66 -27 -65 -236l-7 -757q0 -172 48 -242t102 -70l41 -2q41 0 43 -30
q0 -29 -51 -29l-195 8l-225 -10q-92 0 -92 30z" />
    <glyph glyph-name="ij" unicode="&#x133;" horiz-adv-x="1146" 
d="M809 1210q0 29 32 67q31 38 65 38t66 -36t32 -69q0 -32 -36 -70t-55 -38q-41 0 -73 40t-31 68zM782 -309q27 1 37 69t10 260v623q0 88 -53 111q-28 10 -64 10t-36 20q0 12 18 19q111 33 182 65t76 33q25 0 25 -47v-23l-4 -96v-663q-1 -113 -21 -213q-20 -101 -85 -185
t-155 -84t-89 56l-5 73q0 59 46 60q24 0 64 -44t54 -44zM190 1206q0 28 36 71q36 44 68 44t62 -42t31 -75q0 -32 -39 -72t-57 -40q-41 0 -71 43t-30 71zM98 16q0 28 31 37q2 0 8 2q47 16 62 49q14 33 14 318v180q0 59 -14 94q-15 35 -27 43q-12 7 -42 13t-43 11t-13 16t7 20
t58 25t107 40q55 25 65 30t31 5q31 0 31 -39l-13 -98v-561q0 -61 20 -97t46 -45q28 -10 82 -10q29 -4 29 -29q0 -35 -35 -34l-31 2l-145 4l-146 -4q-82 0 -82 28z" />
    <glyph glyph-name="Jcircumflex" unicode="&#x134;" horiz-adv-x="593" 
d="M70 1563q0 2 8 18q127 186 145 227q19 41 27 50t20 10h52q23 0 34 -23q52 -90 114 -181t62 -99q0 -17 -18 -17t-114 87t-104 87q-9 0 -100 -86q-90 -86 -108 -86t-18 13zM555 1423q0 -18 -94 -57q-43 -16 -43 -139v-94l-2 -834l-2 -158q0 -233 -126 -384t-298 -150
q-82 0 -82 78q0 31 24 71t37 41q14 0 46 -35t75 -34q113 0 141 159q27 139 27 205v242l-2 53l-2 137q-4 104 -4 398t-7 355q-7 60 -55 85t-98 27q-49 3 -49 37t59 34l232 -12l166 2q57 0 57 -27z" />
    <glyph glyph-name="jcircumflex" unicode="&#x135;" horiz-adv-x="575" 
d="M55 1022q0 2 8 18q127 186 145 228t27 50q8 9 21 9h51q23 0 35 -22q52 -89 114 -181t62 -104t-18 -12t-114 87t-104 87t-100 -86t-110 -86t-17 12zM211 -309q27 1 37 69t10 260v623q0 88 -53 111q-27 10 -64 10t-37 20q0 12 19 19q111 33 181 65t77 33q25 0 25 -47v-23
l-5 -96v-663q0 -113 -20 -213q-20 -101 -85 -185t-155 -84t-90 56l-4 73q0 59 45 60q23 0 64 -44t55 -44z" />
    <glyph glyph-name="Kcommaaccent" unicode="&#x136;" horiz-adv-x="1482" 
d="M653 -162q0 6 23 22q22 16 40 34q18 16 34 16t38 -11t49 -42q26 -31 25 -72q0 -88 -66 -142q-66 -55 -94 -55q-29 0 -28 15q0 6 22 18q64 33 64 92t-80 97q-27 12 -27 28zM88 20v9q0 14 18 20q76 18 100 42t31 127t7 331v274l-4 221v95q0 104 -7 151q-6 47 -52 74t-93 29
q-47 1 -47 29t57 28l232 -4l176 4q35 0 35 -27q0 -12 -30 -24t-42 -19q-63 -37 -63 -250l-7 -319q1 -43 17 -43t166 122t297 264t147 187q0 40 -75 52q-23 4 -27 6q-23 3 -23 27t33 24l51 -2l123 -4l254 6q41 0 41 -27q0 -14 -12 -21q-11 -8 -47 -18t-53 -17t-107 -64
q-18 -12 -202 -167t-386 -325l-23 -29q-1 -10 59 -69t279 -277t303 -288t152 -80t76 -27q2 -4 2 -17q0 -14 -18 -18t-101 -4h-199q-33 0 -49 20t-33 35q-76 88 -116 129q-434 440 -457 458t-39 20q-29 0 -29 -56v-6l3 -47v-104q0 -268 34 -329q35 -60 133 -61l17 -2
q41 0 43 -30q0 -29 -51 -29l-195 8l-225 -10q-74 0 -74 22z" />
    <glyph glyph-name="kcommaaccent" unicode="&#x137;" horiz-adv-x="1116" 
d="M440 -162q0 6 23 22t41 34q18 16 33 16q17 0 39 -11t48 -42t25 -72q1 -88 -65 -142q-66 -55 -95 -55t-28 15q0 6 22 18q63 33 63 92t-79 97q-27 12 -27 28zM0 1412q0 22 100 52q14 4 34 10t24 8q4 1 15 5t12 5t11 5t13 7q4 3 16 10q12 6 40 24q29 18 55 18t26 -38
q0 -4 -9 -92t-9 -427l-6 -419v-43q0 -86 8 -86q18 0 38 20l27 27q287 229 287 258t-46 47q-46 19 -46 37t24 18l37 -2l301 10q53 0 54 -16q0 -26 -56 -34q-56 -7 -141 -64q-6 -4 -13 -10t-34 -26q-27 -19 -118 -89t-107 -84q-17 -15 -17 -31t23 -47q186 -227 319 -344
q56 -49 112 -63t81 -15q25 0 24 -18q0 -25 -17 -30t-67 -5l-213 2q-51 0 -321 334q-53 66 -59 74t-22 8q-17 0 -39 -29t-22 -66l3 -34q0 -147 16 -168q2 -2 19 -26t86 -36t69 -31q0 -33 -63 -32l-199 12l-150 -8q-49 0 -49 22t51 37q47 18 60 53q12 35 12 136l2 90l2 909
q0 154 -96 154l-41 -2q-41 1 -41 23z" />
    <glyph glyph-name="Lacute" unicode="&#x139;" horiz-adv-x="1234" 
d="M252 1546q0 10 14 31q66 98 140 281q16 38 40 38t67 -13q42 -13 42 -40q0 -47 -199 -256q-59 -63 -82 -63q-22 -1 -22 22zM74 18q0 33 43 33q20 0 53 25q33 26 49 102t17 295v254l6 354q0 55 -4 187q-2 59 -52 92t-92 34q-43 1 -48 8t-5 21q0 37 55 37l56 -4l178 -8
l215 8q35 0 35 -20q0 -29 -25 -38q-25 -8 -55 -12t-57 -46t-31 -124t-10 -448q-6 -367 -7 -410v-82q0 -147 50 -162t87 -16q306 0 436 47t154 97q27 51 47 51q25 0 25 -35q0 -88 -88 -178t-154 -90q-147 0 -332 10t-231 10l-256 -16q-59 0 -59 24z" />
    <glyph glyph-name="lacute" unicode="&#x13a;" horiz-adv-x="571" 
d="M186 1616q0 10 15 31q66 98 139 280q16 39 41 39t67 -13t41 -40q0 -47 -198 -256q-59 -63 -82 -63t-23 22zM89 -10q-24 0 -26 25q0 22 50 34t63 46q12 34 12 93l-2 54v151l9 871q0 47 -16 85q-15 38 -33 46t-83 8q-23 0 -22 14q0 25 13 31t50 14t119 47t113 39
q25 0 24 -39q0 -8 -8 -88t-8 -223v-115l-4 -272v-610q0 -43 7 -71t47 -54t112 -25q10 0 18 -10t8 -21q0 -29 -63 -28l-207 14q-53 0 -101 -8t-72 -8z" />
    <glyph glyph-name="Lcommaaccent" unicode="&#x13b;" horiz-adv-x="1234" 
d="M516 -162q0 6 23 22t40 34q17 16 33 16q44 0 79 -42q34 -42 34 -83q0 -88 -66 -142q-67 -55 -95 -55t-27 15q0 6 22 18q63 33 63 92t-79 97q-27 12 -27 28zM74 18q0 33 43 33q20 0 53 25q33 26 49 102t17 295v254l6 354q0 55 -4 187q-2 59 -52 92t-92 34q-43 1 -48 8
t-5 21q0 37 55 37l56 -4l178 -8l215 8q35 0 35 -20q0 -29 -25 -38q-25 -8 -55 -12t-57 -46t-31 -124t-10 -448q-6 -367 -7 -410v-82q0 -147 50 -162t87 -16q306 0 436 47t154 97q27 51 47 51q25 0 25 -35q0 -88 -88 -178t-154 -90q-147 0 -332 10t-231 10l-256 -16
q-59 0 -59 24z" />
    <glyph glyph-name="lcommaaccent" unicode="&#x13c;" horiz-adv-x="571" 
d="M172 -162q0 6 23 22t40 34q17 16 33 16q44 0 79 -42q34 -42 34 -83q0 -88 -66 -142q-67 -55 -95 -55t-27 15q0 6 22 18q63 33 63 92t-79 97q-27 12 -27 28zM89 -10q-24 0 -26 25q0 22 50 34t63 46q12 34 12 93l-2 54v151l9 871q0 47 -16 85q-15 38 -33 46t-83 8
q-23 0 -22 14q0 25 13 31t50 14t119 47t113 39q25 0 24 -39q0 -8 -8 -88t-8 -223v-115l-4 -272v-610q0 -43 7 -71t47 -54t112 -25q10 0 18 -10t8 -21q0 -29 -63 -28l-207 14q-53 0 -101 -8t-72 -8z" />
    <glyph glyph-name="Lcaron" unicode="&#x13d;" horiz-adv-x="1234" 
d="M727 1470q0 6 23 22t40 34q17 16 33 16q45 -1 79 -42q34 -42 34 -83q0 -88 -66 -142t-94 -54t-28 14q0 6 22 18q64 33 64 93t-80 96q-27 12 -27 28zM74 18q0 33 43 33q20 0 53 25q33 26 49 102t17 295v254l6 354q0 55 -4 187q-2 59 -52 92t-92 34q-43 1 -48 8t-5 21
q0 37 55 37l56 -4l178 -8l215 8q35 0 35 -20q0 -29 -25 -38q-25 -8 -55 -12t-57 -46t-31 -124t-10 -448q-6 -367 -7 -410v-82q0 -147 50 -162t87 -16q306 0 436 47t154 97q27 51 47 51q25 0 25 -35q0 -88 -88 -178t-154 -90q-147 0 -332 10t-231 10l-256 -16q-59 0 -59 24z
" />
    <glyph glyph-name="lcaron" unicode="&#x13e;" horiz-adv-x="571" 
d="M453 1470q0 6 22 23q23 16 41 33q18 16 33 16q45 -1 79 -42q34 -42 34 -83q0 -88 -66 -142t-94 -54t-29 14q0 6 23 18q63 33 63 93t-80 96q-26 12 -26 28zM89 -10q-24 0 -26 25q0 22 50 34t63 46q12 34 12 93l-2 54v151l9 871q0 47 -16 85q-15 38 -33 46t-83 8
q-23 0 -22 14q0 25 13 31t50 14t119 47t113 39q25 0 24 -39q0 -8 -8 -88t-8 -223v-115l-4 -272v-610q0 -43 7 -71t47 -54t112 -25q10 0 18 -10t8 -21q0 -29 -63 -28l-207 14q-53 0 -101 -8t-72 -8z" />
    <glyph glyph-name="Ldot" unicode="&#x13f;" horiz-adv-x="1234" 
d="M902 793q32 0 64 -42t32 -75t-40 -73q-39 -40 -57 -40q-41 0 -71 44t-29 72q0 28 35 71q34 43 66 43zM74 18q0 33 43 33q20 0 53 25q33 26 49 102t17 295v254l6 354q0 55 -4 187q-2 59 -52 92t-92 34q-43 1 -48 8t-5 21q0 37 55 37l56 -4l178 -8l215 8q35 0 35 -20
q0 -29 -25 -38q-25 -8 -55 -12t-57 -46t-31 -124t-10 -448q-6 -367 -7 -410v-82q0 -147 50 -162t87 -16q306 0 436 47t154 97q27 51 47 51q25 0 25 -35q0 -88 -88 -178t-154 -90q-147 0 -332 10t-231 10l-256 -16q-59 0 -59 24z" />
    <glyph glyph-name="ldot" unicode="&#x140;" horiz-adv-x="1038" 
d="M680 679q0 28 35 71t67 43t63 -42q32 -42 32 -75t-39 -73t-58 -40q-40 0 -70 44t-30 72zM89 -10q-24 0 -26 25q0 22 50 34t63 46q12 34 12 93l-2 54v151l9 871q0 47 -16 85q-15 38 -33 46t-83 8q-23 0 -22 14q0 25 13 31t50 14t119 47t113 39q25 0 24 -39q0 -8 -8 -88
t-8 -223v-115l-4 -272v-610q0 -43 7 -71t47 -54t112 -25q10 0 18 -10t8 -21q0 -29 -63 -28l-207 14q-53 0 -101 -8t-72 -8z" />
    <glyph glyph-name="Lslash" unicode="&#x141;" horiz-adv-x="1234" 
d="M74 18q0 33 43 33q20 0 53 25q33 26 49 102t17 295v111q0 23 -7 22h-4q-4 -2 -6 -2l-94 -37q-7 -4 -21 -4t-25 22t-11 38t22 24l123 51q23 6 23 29l6 354q0 55 -4 187q-2 59 -52 92t-92 34q-43 1 -48 8t-5 21q0 37 55 37l56 -4l178 -8l215 8q35 0 35 -20q0 -29 -25 -38
q-25 -8 -55 -12t-57 -46t-33 -168t-7 -375q0 -16 6 -17q6 0 17 5q12 5 20 8l447 178q31 12 44 12q13 1 25 -17t13 -36q0 -25 -53 -45l-492 -197q-31 -10 -31 -49q-4 -270 -4 -281v-82q0 -147 50 -162t87 -16q306 0 436 47t154 97q27 51 47 51q25 0 25 -35q0 -88 -88 -178
t-154 -90q-147 0 -332 10t-231 10l-256 -16q-59 0 -59 24z" />
    <glyph glyph-name="lslash" unicode="&#x142;" horiz-adv-x="571" 
d="M89 -10q-24 0 -26 25q0 22 50 34t63 46q12 34 12 93l-2 54v151l4 240q0 41 -6 41l-98 -51q-16 0 -31 18q-14 18 -14 47q0 10 29 25l36 20q78 45 83 61t6 470q0 47 -16 85q-15 38 -33 46t-83 8q-23 0 -22 14q0 25 13 31t50 14t119 47t113 39q25 0 24 -39q0 -8 -8 -88
t-8 -223v-115l-2 -182q0 -20 6 -20q6 -1 53 27t63 28t32 -31q17 -31 -3 -45t-79 -50q-58 -36 -66 -46t-8 -39v-524q0 -43 7 -71t47 -54t112 -25q10 0 18 -10t8 -21q0 -29 -63 -28l-207 14q-53 0 -101 -8t-72 -8z" />
    <glyph glyph-name="Nacute" unicode="&#x143;" horiz-adv-x="1634" 
d="M735 1546q0 10 15 31q66 98 139 281q16 38 41 38q24 0 66 -13t42 -40q0 -47 -198 -256q-59 -63 -82 -63t-23 22zM1425 1145v-78l-22 -1014v-41q0 -47 -29 -47q-18 0 -33 15q-680 788 -812 936t-149 148q-18 0 -18 -166q0 -167 -8 -391t-8 -245q0 -92 32 -140t68 -54
t69 -14q32 -8 32 -28q0 -22 -7 -28t-26 -6l-219 4l-174 -4q-45 0 -45 33q0 18 26 23t66 32q39 27 55 87t35 394q18 334 18 486q0 153 -49 239t-159 98q-27 2 -27 31q0 11 14 23t37 12l78 -2l100 4q18 0 43 -11t29 -21t22 -30q18 -22 50 -57q31 -35 55 -67q279 -362 745 -875
q12 -15 30 -33t34 -39q17 -21 29 -20q20 0 20 127v240l-4 419v15q0 188 -66 239q-35 25 -103 38q-69 13 -69 43t39 30l195 -2l184 4q60 0 62 -29q-1 -14 -15 -23t-57 -24q-68 -37 -68 -231z" />
    <glyph glyph-name="nacute" unicode="&#x144;" horiz-adv-x="1210" 
d="M543 1006q0 10 14 30q66 98 139 281q16 39 41 39t67 -14t42 -39q0 -47 -199 -256q-59 -63 -82 -64q-22 0 -22 23zM98 18q0 18 10 22t26 7q15 2 30 12q39 25 43 149t4 163v295q0 66 -24 88t-64 22h-21q-39 0 -39 22q1 22 45 27q44 6 91 20t93 37t54 23h4q18 0 19 -24
l-4 -88q0 -53 8 -53t16 10q31 43 82 73q158 98 326 32q67 -25 103 -63t69 -104t32 -151v-21l3 -108v-209q0 -78 22 -108t102 -42q41 -6 41 -31q0 -20 -41 -20l-167 10l-158 -8q-41 0 -41 27q0 18 24 24l27 6q45 14 45 138v276q0 158 -78 239t-176 81q-98 1 -164 -47t-80 -89
t-14 -313v-78q0 -102 22 -151t95 -56q20 0 52 -7t32 -23q0 -27 -39 -27l-150 8q-53 0 -141 -4l-88 -4q-31 0 -31 18z" />
    <glyph glyph-name="Ncommaaccent" unicode="&#x145;" horiz-adv-x="1634" 
d="M741 -162q0 6 23 22q22 16 40 34q18 16 34 16q44 0 79 -42q34 -42 33 -83q0 -88 -66 -142q-66 -55 -94 -55t-28 15q0 6 22 18q64 33 64 92t-80 97q-27 12 -27 28zM1425 1145v-78l-22 -1014v-41q0 -47 -29 -47q-18 0 -33 15q-680 788 -812 936t-149 148q-18 0 -18 -166
q0 -167 -8 -391t-8 -245q0 -92 32 -140t68 -54t69 -14q32 -8 32 -28q0 -22 -7 -28t-26 -6l-219 4l-174 -4q-45 0 -45 33q0 18 26 23t66 32q39 27 55 87t35 394q18 334 18 486q0 153 -49 239t-159 98q-27 2 -27 31q0 11 14 23t37 12l78 -2l100 4q18 0 43 -11t29 -21t22 -30
q18 -22 50 -57q31 -35 55 -67q279 -362 745 -875q12 -15 30 -33t34 -39q17 -21 29 -20q20 0 20 127v240l-4 419v15q0 188 -66 239q-35 25 -103 38q-69 13 -69 43t39 30l195 -2l184 4q60 0 62 -29q-1 -14 -15 -23t-57 -24q-68 -37 -68 -231z" />
    <glyph glyph-name="ncommaaccent" unicode="&#x146;" horiz-adv-x="1210" 
d="M545 -162q0 6 22 23q23 17 41 33t33 16q44 0 79 -42q34 -42 34 -83q0 -88 -66 -142q-66 -55 -94 -55t-29 15q0 6 23 18q63 33 63 92t-80 97q-26 12 -26 28zM98 18q0 18 10 22t26 7q15 2 30 12q39 25 43 149t4 163v295q0 66 -24 88t-64 22h-21q-39 0 -39 22q1 22 45 27
q44 6 91 20t93 37t54 23h4q18 0 19 -24l-4 -88q0 -53 8 -53t16 10q31 43 82 73q158 98 326 32q67 -25 103 -63t69 -104t32 -151v-21l3 -108v-209q0 -78 22 -108t102 -42q41 -6 41 -31q0 -20 -41 -20l-167 10l-158 -8q-41 0 -41 27q0 18 24 24l27 6q45 14 45 138v276
q0 158 -78 239t-176 81q-98 1 -164 -47t-80 -89t-14 -313v-78q0 -102 22 -151t95 -56q20 0 52 -7t32 -23q0 -27 -39 -27l-150 8q-53 0 -141 -4l-88 -4q-31 0 -31 18z" />
    <glyph glyph-name="Ncaron" unicode="&#x147;" horiz-adv-x="1634" 
d="M602 1868q18 0 112 -87t104 -87t102 86t109 86t18 -13q0 -2 -9 -18q-127 -186 -145 -227q-19 -41 -27 -50t-20 -10h-51q-25 0 -37 23q-35 59 -105 165q-69 106 -69 120q0 12 18 12zM1425 1145v-78l-22 -1014v-41q0 -47 -29 -47q-18 0 -33 15q-680 788 -812 936t-149 148
q-18 0 -18 -166q0 -167 -8 -391t-8 -245q0 -92 32 -140t68 -54t69 -14q32 -8 32 -28q0 -22 -7 -28t-26 -6l-219 4l-174 -4q-45 0 -45 33q0 18 26 23t66 32q39 27 55 87t35 394q18 334 18 486q0 153 -49 239t-159 98q-27 2 -27 31q0 11 14 23t37 12l78 -2l100 4q18 0 43 -11
t29 -21t22 -30q18 -22 50 -57q31 -35 55 -67q279 -362 745 -875q12 -15 30 -33t34 -39q17 -21 29 -20q20 0 20 127v240l-4 419v15q0 188 -66 239q-35 25 -103 38q-69 13 -69 43t39 30l195 -2l184 4q60 0 62 -29q-1 -14 -15 -23t-57 -24q-68 -37 -68 -231z" />
    <glyph glyph-name="ncaron" unicode="&#x148;" horiz-adv-x="1210" 
d="M410 1327q18 0 112 -87t104 -87t101 86t109 86t18 -12q0 -2 -8 -19q-128 -186 -146 -227t-26 -50t-21 -9h-51q-25 0 -37 22q-35 60 -105 166t-69 119q1 12 19 12zM98 18q0 18 10 22t26 7q15 2 30 12q39 25 43 149t4 163v295q0 66 -24 88t-64 22h-21q-39 0 -39 22
q1 22 45 27q44 6 91 20t93 37t54 23h4q18 0 19 -24l-4 -88q0 -53 8 -53t16 10q31 43 82 73q158 98 326 32q67 -25 103 -63t69 -104t32 -151v-21l3 -108v-209q0 -78 22 -108t102 -42q41 -6 41 -31q0 -20 -41 -20l-167 10l-158 -8q-41 0 -41 27q0 18 24 24l27 6q45 14 45 138
v276q0 158 -78 239t-176 81q-98 1 -164 -47t-80 -89t-14 -313v-78q0 -102 22 -151t95 -56q20 0 52 -7t32 -23q0 -27 -39 -27l-150 8q-53 0 -141 -4l-88 -4q-31 0 -31 18z" />
    <glyph glyph-name="napostrophe" unicode="&#x149;" horiz-adv-x="1689" 
d="M690 371v295q0 66 -24 88t-64 22h-20q-39 0 -39 22t44 27q44 6 89 19t93 37q49 24 56 24h4q18 0 19 -24l-4 -88q0 -53 8 -53t16 10q31 43 82 73q158 98 326 32q66 -25 102 -63t70 -104q33 -66 33 -151v-21l2 -108v-209q-1 -78 21 -108t104 -42q41 -6 41 -31
q0 -20 -41 -20l-168 10l-158 -8q-41 0 -41 27q0 18 25 24l26 6q45 14 45 138v276q0 158 -77 239q-78 81 -176 81q-98 1 -164 -47t-80 -89t-15 -313v-78q0 -102 22 -151t95 -56q20 0 52 -7t32 -23q0 -27 -39 -27l-149 8q-53 0 -142 -4l-88 -4q-31 0 -30 18q0 18 10 22t25 7
q15 2 30 12q39 25 43 149t4 163zM246 1460q24 0 53 -26t47 -50q43 -57 43 -148t-29 -165t-67 -113q-80 -84 -125 -84q-10 0 -18 10t-8 21q0 12 57 54q23 17 40 57t17 93q0 54 -23 92q-23 39 -48 53q-71 41 -70 69q-1 18 29 48t49 50q29 39 53 39z" />
    <glyph glyph-name="Omacron" unicode="&#x14c;" horiz-adv-x="1746" 
d="M639 1741q0 45 33 45l370 -4q18 0 24 -10t7 -44q0 -34 -29 -34l-385 2q-20 0 -20 45zM270 799q0 -182 97 -373q51 -102 123 -183t185 -133t255 -52t289 87q164 96 231 269q39 92 39 200q0 371 -195 577t-481 206q-225 1 -384 -151t-159 -447zM90 694q0 344 207 564
t586 221q176 1 317 -51t223 -126t138 -172q96 -168 96 -327q0 -279 -109 -471q-207 -365 -694 -365q-244 1 -421 107t-260 268t-83 352z" />
    <glyph glyph-name="omacron" unicode="&#x14d;" horiz-adv-x="1120" 
d="M328 1200q0 45 32 45l371 -4q19 0 25 -10t6 -44t-29 -34l-385 2q-20 0 -20 45zM242 466q0 -192 112 -316t243 -125q130 0 210 89t80 261q-1 172 -99 312t-274 140q-106 0 -189 -84q-83 -85 -83 -277zM80 418q0 186 128 325t338 139t352 -120q142 -121 142 -336t-146 -339
t-356 -124t-334 134q-124 135 -124 321z" />
    <glyph glyph-name="Obreve" unicode="&#x14e;" horiz-adv-x="1746" 
d="M625 1825q0 6 22 6h10q9 0 23 -23q14 -24 32 -50t63 -48q44 -22 111 -22q68 0 110 36t59 71q16 36 24 36h8q23 0 23 -6q0 -82 -64 -170t-180 -88q-115 0 -178 85t-63 173zM270 799q0 -182 97 -373q51 -102 123 -183t185 -133t255 -52t289 87q164 96 231 269q39 92 39 200
q0 371 -195 577t-481 206q-225 1 -384 -151t-159 -447zM90 694q0 344 207 564t586 221q176 1 317 -51t223 -126t138 -172q96 -168 96 -327q0 -279 -109 -471q-207 -365 -694 -365q-244 1 -421 107t-260 268t-83 352z" />
    <glyph glyph-name="obreve" unicode="&#x14f;" horiz-adv-x="1120" 
d="M313 1284q0 6 23 6h10q8 0 22 -22t33 -50q19 -26 63 -49t110 -23t110 37q43 35 59 71t25 36h8q23 0 23 -6q0 -82 -65 -170q-66 -88 -180 -88t-178 85t-63 173zM242 466q0 -192 112 -316t243 -125q130 0 210 89t80 261q-1 172 -99 312t-274 140q-106 0 -189 -84
q-83 -85 -83 -277zM80 418q0 186 128 325t338 139t352 -120q142 -121 142 -336t-146 -339t-356 -124t-334 134q-124 135 -124 321z" />
    <glyph glyph-name="Ohungarumlaut" unicode="&#x150;" horiz-adv-x="1746" 
d="M963 1546q0 10 16 31q61 86 139 281q16 38 40 38t66 -13t42 -40q0 -47 -199 -256q-59 -63 -82 -63q-22 -1 -22 22zM637 1546q0 10 14 31q61 86 142 281q16 38 41 38q24 0 66 -13t42 -40q0 -47 -199 -256q-59 -63 -83 -63t-23 22zM270 799q0 -182 97 -373
q51 -102 123 -183t185 -133t255 -52t289 87q164 96 231 269q39 92 39 200q0 371 -195 577t-481 206q-225 1 -384 -151t-159 -447zM90 694q0 344 207 564t586 221q176 1 317 -51t223 -126t138 -172q96 -168 96 -327q0 -279 -109 -471q-207 -365 -694 -365q-244 1 -421 107
t-260 268t-83 352z" />
    <glyph glyph-name="ohungarumlaut" unicode="&#x151;" horiz-adv-x="1120" 
d="M651 1006q0 10 39 63t117 248q16 39 40 39q23 0 65 -14t42 -39q0 -47 -198 -256q-59 -63 -82 -63t-23 22zM326 1006q0 10 14 30q61 86 141 281q16 39 41 39t67 -14t42 -39q0 -47 -199 -256q-58 -63 -82 -63t-24 22zM242 466q0 -192 112 -316t243 -125q130 0 210 89
t80 261q-1 172 -99 312t-274 140q-106 0 -189 -84q-83 -85 -83 -277zM80 418q0 186 128 325t338 139t352 -120q142 -121 142 -336t-146 -339t-356 -124t-334 134q-124 135 -124 321z" />
    <glyph glyph-name="OE" unicode="&#x152;" horiz-adv-x="2134" 
d="M1143 1227q1 43 -13 71t-20 33q-133 66 -297 66q-225 0 -384 -152t-159 -446q0 -182 97 -373q51 -102 123 -183t185 -133q112 -52 216 -52t149 16t54 28q43 57 43 371v254l6 354v146zM1858 512q-29 0 -50 67q-20 67 -47 83q-43 29 -151 28h-148l-65 2h-13q-84 0 -84 -39
l-4 -295l-2 -82q0 -147 50 -162t88 -16q182 0 309 20t182 50q55 28 83 56t39 48t26 21q25 0 24 -35q0 -88 -89 -178t-155 -90q-147 0 -331 10t-255 10t-195 -22t-216 -21q-244 1 -421 107t-260 268t-83 352q0 344 207 564t586 221q47 -1 203 -17t464 -16l412 8q37 0 37 -47
q0 -12 -12 -81q-13 -69 -13 -121t-30 -52t-31 49q0 49 -36 94t-87 47q-184 14 -283 15h-51q-106 0 -124 -16t-24 -118q-5 -101 -5 -333q0 -102 36 -105h201q123 0 164 8q104 21 121 103q4 39 30 39q19 0 23 -6t4 -24l-18 -218l8 -125q0 -51 -14 -51z" />
    <glyph glyph-name="oe" unicode="&#x153;" horiz-adv-x="1759" 
d="M1487 608q0 62 -57 144q-58 82 -160 82t-158 -81t-55 -153q-1 -29 26 -29l361 13q29 0 36 5t7 19zM242 466q0 -192 112 -316t243 -125q130 0 210 89t80 264q-1 175 -101 312t-272 137q-106 0 -189 -84q-83 -85 -83 -277zM80 418q0 186 128 325t358 139t368 -155
q20 -25 23 -35t6 -10l10 18q33 66 120 125t190 59t174 -30q71 -31 110 -75q39 -45 75 -111t35 -109q0 -37 -84 -37h-526q-16 0 -19 -3t-4 -19q0 -194 104 -304t243 -110q86 0 176 46t94 46q18 0 18 -22t-45 -63q-45 -42 -86 -68q-98 -63 -231 -64q-213 0 -336 143
q-11 12 -21 30t-12 20l-18 -27q-37 -51 -138 -107t-243 -57q-221 0 -345 134q-124 135 -124 321z" />
    <glyph glyph-name="Racute" unicode="&#x154;" horiz-adv-x="1470" 
d="M530 1546q0 10 15 31q66 98 139 281q16 38 41 38t67 -13t42 -40q0 -47 -199 -256q-59 -63 -82 -63t-23 22zM412 1098q0 -211 2 -261t14 -59q31 -18 88 -18h80q174 0 249 80t75 206t-100 230t-300 104q-76 0 -92 -40t-16 -185v-57zM41 1425q0 33 59 33h340l205 6
q183 0 315 -93t132 -251q0 -104 -40 -183t-88 -114t-88 -61t-40 -33q0 -25 172 -265t235 -308q78 -96 189 -97q29 0 28 -24q0 -31 -24 -41t-124 -10q-99 0 -179 47q-111 63 -367 491q-98 160 -152 160h-168q-26 0 -30 -20t-4 -121v-166l2 -109v-18q0 -84 39 -130t87 -53
t87 -17t39 -30q0 -33 -37 -32l-293 14l-225 -8q-43 0 -43 34t86 44q34 4 60 45t26 116l2 646l-2 346q0 75 -31 115t-69 45t-68 13t-31 29z" />
    <glyph glyph-name="racute" unicode="&#x155;" horiz-adv-x="768" 
d="M367 1006q0 10 14 30q66 98 139 281q16 39 41 39t67 -14t42 -39q0 -47 -199 -256q-59 -63 -82 -64q-22 0 -22 23zM45 778q0 23 28 34q29 11 103 35t117 43t51 19q27 0 27 -41l-2 -55q0 -74 5 -81t10 -7t32 41t76 83t97 42t99 -34q51 -33 51 -67q-1 -34 -23 -73t-42 -39
t-62 24t-98 25q-55 0 -103 -45t-49 -82v-213l3 -178l2 -37q1 -43 29 -74t54 -35t44 -6t28 -3t23 -5q23 -4 23 -30t-25 -25l-174 10l-213 -10q-37 0 -41 8t-4 16q0 27 26 35q53 12 65 52q11 40 11 171l-2 330l-2 62q0 23 -6 37q-17 38 -97 38l-22 2q-39 0 -39 33z" />
    <glyph glyph-name="Rcommaaccent" unicode="&#x156;" horiz-adv-x="1470" 
d="M625 -162q0 6 22 23q23 17 41 33t33 16q44 0 79 -42q34 -42 34 -83q0 -88 -66 -142q-66 -55 -94 -55t-29 15q0 6 23 18q63 33 63 92t-80 97q-26 12 -26 28zM412 1098q0 -211 2 -261t14 -59q31 -18 88 -18h80q174 0 249 80t75 206t-100 230t-300 104q-76 0 -92 -40
t-16 -185v-57zM41 1425q0 33 59 33h340l205 6q183 0 315 -93t132 -251q0 -104 -40 -183t-88 -114t-88 -61t-40 -33q0 -25 172 -265t235 -308q78 -96 189 -97q29 0 28 -24q0 -31 -24 -41t-124 -10q-99 0 -179 47q-111 63 -367 491q-98 160 -152 160h-168q-26 0 -30 -20
t-4 -121v-166l2 -109v-18q0 -84 39 -130t87 -53t87 -17t39 -30q0 -33 -37 -32l-293 14l-225 -8q-43 0 -43 34t86 44q34 4 60 45t26 116l2 646l-2 346q0 75 -31 115t-69 45t-68 13t-31 29z" />
    <glyph glyph-name="rcommaaccent" unicode="&#x157;" horiz-adv-x="768" 
d="M236 -162q0 6 22 23t40 33t34 16q44 0 79 -42q34 -42 33 -83q0 -88 -66 -142q-66 -55 -94 -55t-28 15q0 6 23 18q63 33 63 92t-80 97q-26 12 -26 28zM45 778q0 23 28 34q29 11 103 35t117 43t51 19q27 0 27 -41l-2 -55q0 -74 5 -81t10 -7t32 41t76 83t97 42t99 -34
q51 -33 51 -67q-1 -34 -23 -73t-42 -39t-62 24t-98 25q-55 0 -103 -45t-49 -82v-213l3 -178l2 -37q1 -43 29 -74t54 -35t44 -6t28 -3t23 -5q23 -4 23 -30t-25 -25l-174 10l-213 -10q-37 0 -41 8t-4 16q0 27 26 35q53 12 65 52q11 40 11 171l-2 330l-2 62q0 23 -6 37
q-17 38 -97 38l-22 2q-39 0 -39 33z" />
    <glyph glyph-name="Rcaron" unicode="&#x158;" horiz-adv-x="1470" 
d="M397 1868q19 0 113 -87t103 -87t101 86t110 86q17 0 18 -13q0 -2 -8 -18q-128 -186 -146 -227t-26 -50t-21 -10h-51q-25 0 -37 23q-35 59 -105 165t-69 120q0 12 18 12zM412 1098q0 -211 2 -261t14 -59q31 -18 88 -18h80q174 0 249 80t75 206t-100 230t-300 104
q-76 0 -92 -40t-16 -185v-57zM41 1425q0 33 59 33h340l205 6q183 0 315 -93t132 -251q0 -104 -40 -183t-88 -114t-88 -61t-40 -33q0 -25 172 -265t235 -308q78 -96 189 -97q29 0 28 -24q0 -31 -24 -41t-124 -10q-99 0 -179 47q-111 63 -367 491q-98 160 -152 160h-168
q-26 0 -30 -20t-4 -121v-166l2 -109v-18q0 -84 39 -130t87 -53t87 -17t39 -30q0 -33 -37 -32l-293 14l-225 -8q-43 0 -43 34t86 44q34 4 60 45t26 116l2 646l-2 346q0 75 -31 115t-69 45t-68 13t-31 29z" />
    <glyph glyph-name="rcaron" unicode="&#x159;" horiz-adv-x="768" 
d="M233 1327q19 0 113 -87t104 -87t101 86q92 86 109 86t18 -12q0 -2 -8 -19q-128 -186 -146 -227t-26 -50t-21 -9h-51q-25 0 -37 22q-35 60 -105 166t-69 118q0 12 18 13zM45 778q0 23 28 34q29 11 103 35t117 43t51 19q27 0 27 -41l-2 -55q0 -74 5 -81t10 -7t32 41t76 83
t97 42t99 -34q51 -33 51 -67q-1 -34 -23 -73t-42 -39t-62 24t-98 25q-55 0 -103 -45t-49 -82v-213l3 -178l2 -37q1 -43 29 -74t54 -35t44 -6t28 -3t23 -5q23 -4 23 -30t-25 -25l-174 10l-213 -10q-37 0 -41 8t-4 16q0 27 26 35q53 12 65 52q11 40 11 171l-2 330l-2 62
q0 23 -6 37q-17 38 -97 38l-22 2q-39 0 -39 33z" />
    <glyph glyph-name="Sacute" unicode="&#x15a;" horiz-adv-x="1220" 
d="M547 1546q0 10 14 31q66 98 139 281q16 38 41 38t67 -13t42 -40q0 -47 -199 -256q-59 -63 -82 -63q-22 -1 -22 22zM1053 1119q0 -44 -29 -44q-18 0 -36 44q-17 44 -41 81t-34 47t-53 49q-111 98 -253 98t-228 -60q-86 -62 -86 -160t50 -158t134 -92q84 -33 176 -62
q248 -78 367 -203q82 -88 82 -219q0 -215 -137 -341t-340 -126q-141 -1 -227 15t-177 63q-27 15 -63 159t-37 180t27 36t34 -20q76 -182 182 -262t264 -81q157 0 250 81t93 212q1 96 -63 161t-146 93q-305 102 -414 166q-186 111 -186 297t132 296t343 110q77 0 185 -34
t110 -34l47 16q27 0 31 -16q43 -248 43 -292z" />
    <glyph glyph-name="sacute" unicode="&#x15b;" horiz-adv-x="804" 
d="M346 1006q0 10 14 30q66 98 140 281q16 39 41 39t67 -14t41 -39q0 -47 -198 -256q-59 -63 -82 -63t-23 22zM648 639q-15 0 -33 30q-17 31 -39 65t-69 64t-109 30t-101 -30t-39 -65q0 -66 22 -88q22 -21 32 -33q17 -18 122 -59q186 -66 240 -128t53 -179q0 -117 -109 -215
q-74 -63 -177 -63t-274 61q-11 4 -16 5q-38 8 -38 54v178q0 53 34 53q15 0 23 -9t14 -38t13 -41q76 -188 213 -188q63 0 120 34q58 35 58 107t-47 117t-115 71t-136 54t-114 81q-47 54 -47 136q0 115 92 185t203 69q111 0 168 -17q56 -17 68 -32t12 -27l8 -123
q0 -59 -32 -59z" />
    <glyph glyph-name="Scircumflex" unicode="&#x15c;" horiz-adv-x="1220" 
d="M395 1563q0 2 8 18q127 186 146 227q18 41 26 50t21 10h51q23 0 35 -23q52 -90 114 -181t62 -99q0 -17 -18 -17t-114 87t-104 87t-100 -86t-110 -86t-17 13zM1053 1119q0 -44 -29 -44q-18 0 -36 44q-17 44 -41 81t-34 47t-53 49q-111 98 -253 98t-228 -60
q-86 -62 -86 -160t50 -158t134 -92q84 -33 176 -62q248 -78 367 -203q82 -88 82 -219q0 -215 -137 -341t-340 -126q-141 -1 -227 15t-177 63q-27 15 -63 159t-37 180t27 36t34 -20q76 -182 182 -262t264 -81q157 0 250 81t93 212q1 96 -63 161t-146 93q-305 102 -414 166
q-186 111 -186 297t132 296t343 110q77 0 185 -34t110 -34l47 16q27 0 31 -16q43 -248 43 -292z" />
    <glyph glyph-name="scircumflex" unicode="&#x15d;" horiz-adv-x="804" 
d="M195 1022q0 2 8 18q127 186 145 228t26 50q8 9 21 9h51q23 0 35 -22q51 -89 113 -181t63 -104q0 -12 -18 -12q-17 0 -113 87t-105 87t-100 -86t-109 -86t-17 12zM648 639q-15 0 -33 30q-17 31 -39 65t-69 64t-109 30t-101 -30t-39 -65q0 -66 22 -88q22 -21 32 -33
q17 -18 122 -59q186 -66 240 -128t53 -179q0 -117 -109 -215q-74 -63 -177 -63t-274 61q-11 4 -16 5q-38 8 -38 54v178q0 53 34 53q15 0 23 -9t14 -38t13 -41q76 -188 213 -188q63 0 120 34q58 35 58 107t-47 117t-115 71t-136 54t-114 81q-47 54 -47 136q0 115 92 185
t203 69q111 0 168 -17q56 -17 68 -32t12 -27l8 -123q0 -59 -32 -59z" />
    <glyph glyph-name="Scedilla" unicode="&#x15e;" horiz-adv-x="1220" 
d="M526 -162q0 6 23 22t41 34q18 16 33 16q44 0 79 -42q34 -42 33 -83q1 -88 -65 -142q-66 -55 -95 -55t-28 15q0 6 22 18q63 33 63 92t-79 97q-27 12 -27 28zM1053 1119q0 -44 -29 -44q-18 0 -36 44q-17 44 -41 81t-34 47t-53 49q-111 98 -253 98t-228 -60
q-86 -62 -86 -160t50 -158t134 -92q84 -33 176 -62q248 -78 367 -203q82 -88 82 -219q0 -215 -137 -341t-340 -126q-141 -1 -227 15t-177 63q-27 15 -63 159t-37 180t27 36t34 -20q76 -182 182 -262t264 -81q157 0 250 81t93 212q1 96 -63 161t-146 93q-305 102 -414 166
q-186 111 -186 297t132 296t343 110q77 0 185 -34t110 -34l47 16q27 0 31 -16q43 -248 43 -292z" />
    <glyph glyph-name="scedilla" unicode="&#x15f;" horiz-adv-x="804" 
d="M315 -162q0 6 23 22q22 16 40 34q18 16 34 16q44 0 79 -42q34 -42 33 -83q0 -88 -66 -142q-66 -55 -94 -55t-28 15q0 6 22 18q64 33 64 92t-80 97q-27 12 -27 28zM648 639q-15 0 -33 30q-17 31 -39 65t-69 64t-109 30t-101 -30t-39 -65q0 -66 22 -88q22 -21 32 -33
q17 -18 122 -59q186 -66 240 -128t53 -179q0 -117 -109 -215q-74 -63 -177 -63t-274 61q-11 4 -16 5q-38 8 -38 54v178q0 53 34 53q15 0 23 -9t14 -38t13 -41q76 -188 213 -188q63 0 120 34q58 35 58 107t-47 117t-115 71t-136 54t-114 81q-47 54 -47 136q0 115 92 185
t203 69q111 0 168 -17q56 -17 68 -32t12 -27l8 -123q0 -59 -32 -59z" />
    <glyph glyph-name="Scaron" unicode="&#x160;" horiz-adv-x="1220" 
d="M414 1868q18 0 112 -87t104 -87t101 86t109 86t18 -13q0 -2 -8 -18q-127 -186 -145 -227q-19 -41 -27 -50t-21 -10h-51q-25 0 -37 23q-35 59 -105 165t-68 120q0 12 18 12zM1053 1119q0 -44 -29 -44q-18 0 -36 44q-17 44 -41 81t-34 47t-53 49q-111 98 -253 98t-228 -60
q-86 -62 -86 -160t50 -158t134 -92q84 -33 176 -62q248 -78 367 -203q82 -88 82 -219q0 -215 -137 -341t-340 -126q-141 -1 -227 15t-177 63q-27 15 -63 159t-37 180t27 36t34 -20q76 -182 182 -262t264 -81q157 0 250 81t93 212q1 96 -63 161t-146 93q-305 102 -414 166
q-186 111 -186 297t132 296t343 110q77 0 185 -34t110 -34l47 16q27 0 31 -16q43 -248 43 -292z" />
    <glyph glyph-name="scaron" unicode="&#x161;" horiz-adv-x="804" 
d="M213 1327q19 0 113 -87t103 -87t101 86t110 86t17 -12q0 -2 -8 -19q-127 -186 -145 -227t-26 -50t-21 -9h-51q-25 0 -37 22q-35 60 -105 166t-69 119q0 12 18 12zM648 639q-15 0 -33 30q-17 31 -39 65t-69 64t-109 30t-101 -30t-39 -65q0 -66 22 -88q22 -21 32 -33
q17 -18 122 -59q186 -66 240 -128t53 -179q0 -117 -109 -215q-74 -63 -177 -63t-274 61q-11 4 -16 5q-38 8 -38 54v178q0 53 34 53q15 0 23 -9t14 -38t13 -41q76 -188 213 -188q63 0 120 34q58 35 58 107t-47 117t-115 71t-136 54t-114 81q-47 54 -47 136q0 115 92 185
t203 69q111 0 168 -17q56 -17 68 -32t12 -27l8 -123q0 -59 -32 -59z" />
    <glyph glyph-name="uni0162" unicode="&#x162;" horiz-adv-x="1439" 
d="M614 -162q0 6 23 22t41 34q18 16 33 16q44 0 79 -42q34 -42 33 -83q1 -88 -65 -142q-66 -55 -94 -55t-29 15q0 6 22 18q63 33 63 92t-79 97q-27 12 -27 28zM850 1454q412 0 498 12q22 0 30 -12t8 -22l13 -166q0 -50 -6 -64t-27 -14q-16 0 -28 42q-11 42 -23 64
q-31 53 -178 54h-267q-49 0 -60 -20t-11 -111v-101l-6 -749l-2 -134q-1 -89 27 -115q48 -46 111 -52q62 -7 62 -39q0 -23 -10 -29t-39 -6l-227 16l-209 -14q-76 0 -76 33q0 20 12 27q12 6 48 12t47 8q70 16 77 82q20 180 21 774l-2 366q0 38 -23 48t-211 10t-223 -24
q-45 -26 -74 -130q-6 -47 -39 -47q-23 0 -22 35q0 82 10 148t11 77q1 10 3 13q1 2 2 10t3 11t8 13t43 10t177 -8t552 -8z" />
    <glyph glyph-name="uni0163" unicode="&#x163;" horiz-adv-x="700" 
d="M285 -162q0 6 22 23q23 17 41 33t33 16q44 0 79 -42q34 -42 34 -83q0 -88 -66 -142q-66 -55 -94 -55t-29 15q0 6 23 18q63 33 63 92t-80 97q-26 12 -26 28zM55 786q0 20 19 35q78 51 133 126t75 97t40 21q20 0 20 -47l-8 -117q0 -29 11 -35t73 -6h71q92 0 121 14t37 15
q43 0 -6 -87q-27 -48 -39 -48q-92 0 -129 4t-49 5t-22 2t-13 1l-4 2q-39 0 -50 -12t-11 -56l-9 -381q0 -133 34 -185t143 -52q43 0 95 19t56 20q21 0 21 -27q0 -26 -71 -70t-153 -44q-276 0 -276 239v31l8 477q0 21 -8 27t-35 6l-39 -2q-35 0 -35 28z" />
    <glyph glyph-name="Tcaron" unicode="&#x164;" horiz-adv-x="1439" 
d="M508 1868q18 0 112 -87t104 -87q9 0 101 86q91 86 109 86t18 -13q0 -2 -8 -18q-127 -186 -145 -227q-19 -41 -27 -50t-20 -10h-52q-25 0 -36 23q-35 59 -105 165q-69 106 -69 120q0 12 18 12zM850 1454q412 0 498 12q22 0 30 -12t8 -22l13 -166q0 -50 -6 -64t-27 -14
q-16 0 -28 42q-11 42 -23 64q-31 53 -178 54h-267q-49 0 -60 -20t-11 -111v-101l-6 -749l-2 -134q-1 -89 27 -115q48 -46 111 -52q62 -7 62 -39q0 -23 -10 -29t-39 -6l-227 16l-209 -14q-76 0 -76 33q0 20 12 27q12 6 48 12t47 8q70 16 77 82q20 180 21 774l-2 366
q0 38 -23 48t-211 10t-223 -24q-45 -26 -74 -130q-6 -47 -39 -47q-23 0 -22 35q0 82 10 148t11 77q1 10 3 13q1 2 2 10t3 11t8 13t43 10t177 -8t552 -8z" />
    <glyph glyph-name="tcaron" unicode="&#x165;" horiz-adv-x="700" 
d="M446 1300q0 6 23 22t41 34q18 16 33 16q45 -1 79 -42q34 -42 33 -83q1 -88 -65 -142t-94 -54t-29 14q0 6 22 18q63 33 63 93t-79 96q-27 12 -27 28zM55 786q0 20 19 35q78 51 133 126t75 97t40 21q20 0 20 -47l-8 -117q0 -29 11 -35t73 -6h71q92 0 121 14t37 15
q43 0 -6 -87q-27 -48 -39 -48q-92 0 -129 4t-49 5t-22 2t-13 1l-4 2q-39 0 -50 -12t-11 -56l-9 -381q0 -133 34 -185t143 -52q43 0 95 19t56 20q21 0 21 -27q0 -26 -71 -70t-153 -44q-276 0 -276 239v31l8 477q0 21 -8 27t-35 6l-39 -2q-35 0 -35 28z" />
    <glyph glyph-name="Tbar" unicode="&#x166;" horiz-adv-x="1439" 
d="M850 1454q412 0 498 12q22 0 30 -12t8 -22l13 -166q0 -50 -6 -64t-27 -14q-16 0 -28 42q-11 42 -23 64q-31 53 -178 54h-267q-49 0 -60 -20t-11 -111v-101l-2 -239v-29q0 -23 11 -29t30 -6h278q35 0 42 -9t7 -35t-9 -36t-46 -10l-276 -2q-25 0 -31 -6t-6 -31l-6 -451
q-1 -89 27 -115q48 -46 111 -52q62 -7 62 -39q0 -23 -10 -29t-39 -6l-227 16l-209 -14q-76 0 -76 33q0 20 12 27q12 6 48 12t47 8q70 16 77 82q14 125 19 528q0 25 -7 32t-26 7h-18l-140 2h-151q-31 0 -31 43t29 43l299 2q31 0 39 7t8 36v74l-2 366q0 38 -23 48t-211 10
t-223 -24q-45 -26 -74 -130q-6 -47 -39 -47q-23 0 -22 35q0 82 10 148t11 77q1 10 3 13q1 2 2 10t3 11t8 13t43 10t177 -8t552 -8z" />
    <glyph glyph-name="tbar" unicode="&#x167;" horiz-adv-x="700" 
d="M137 418h-55q-27 0 -27 44t25 44h63q25 0 25 35v6l2 55q2 70 2 108t-8 44t-35 6l-39 -2q-35 0 -35 28q0 20 19 35q78 51 133 126t75 97t40 21q20 0 20 -47l-8 -117q0 -29 11 -35t73 -6h71q92 0 121 14t37 15q43 0 -6 -87q-27 -48 -39 -48q-92 0 -129 4t-49 5t-22 2t-13 1
l-4 2q-39 0 -50 -12t-11 -44t-2 -112t3 -86t27 -6h242q29 0 36 -10t7 -32t-2 -30q-4 -20 -45 -20l-248 -2q-27 0 -27 -27v-68q0 -133 34 -185t143 -52q43 0 95 19t56 20q21 0 21 -27q0 -26 -71 -70t-153 -44q-276 0 -276 239v31l2 137q0 19 -6 25t-23 6z" />
    <glyph glyph-name="Utilde" unicode="&#x168;" horiz-adv-x="1669" 
d="M592 1626q0 35 68 126q69 91 124 91q56 0 134 -49t122 -49t87 57q42 57 47 58q20 0 20 -31t-68 -117t-125 -86t-138 49t-118 49t-65 -28t-44 -58q-17 -29 -24 -28q-20 0 -20 16zM41 1427q0 27 47 27l231 -8l193 4q43 0 43 -29q0 -18 -14 -22t-36 -6t-42 -15
q-51 -29 -51 -190v-58l-2 -442q0 -203 12 -264q28 -143 60 -186q78 -104 151 -136q111 -45 292 -45t267 49q37 20 85 64q138 128 138 494l-2 434q0 72 -3 112t-20 90t-44 68t-60 24t-53 8q-20 3 -21 17q0 33 41 33l158 -4l174 6q43 0 43 -27q0 -16 -44 -42q-44 -25 -60 -57
t-17 -124l2 -137q-1 -393 -33 -602t-100 -303q-137 -199 -485 -199t-492 131q-113 104 -139 250t-27 506v35l5 295q0 112 -27 154t-125 57q-45 6 -45 38z" />
    <glyph glyph-name="utilde" unicode="&#x169;" horiz-adv-x="1179" 
d="M272 1085q0 35 69 126t124 91t133 -48q78 -50 123 -50t87 58t46 57q20 0 20 -31t-68 -117t-124 -86q-57 -1 -138 49t-118 50q-58 0 -110 -86q-17 -29 -23 -29q-21 0 -21 16zM1067 12q-41 0 -124 -11t-89 -11q-14 0 -24 52q-9 52 -12 52t-40 -33q-38 -33 -106 -65
t-150 -33q-329 0 -329 356l2 369q0 41 -22 66t-40 24h-37q-37 0 -37 29t40 37t98 8l116 10q35 0 41 -14t6 -72l-10 -377q0 -180 70 -255t158 -74q131 0 190 55t59 194l-4 283q0 102 -16 138q-15 36 -69 41t-54 28q0 47 180 47l74 10q31 0 40 -10t9 -30l-10 -513
q0 -153 12 -197t45 -44l53 2q49 0 50 -25q-1 -25 -15 -31t-55 -6z" />
    <glyph glyph-name="Umacron" unicode="&#x16a;" horiz-adv-x="1669" 
d="M676 1741q0 45 33 45l370 -4q19 0 25 -10t6 -44t-29 -34l-385 2q-20 0 -20 45zM41 1427q0 27 47 27l231 -8l193 4q43 0 43 -29q0 -18 -14 -22t-36 -6t-42 -15q-51 -29 -51 -190v-58l-2 -442q0 -203 12 -264q28 -143 60 -186q78 -104 151 -136q111 -45 292 -45t267 49
q37 20 85 64q138 128 138 494l-2 434q0 72 -3 112t-20 90t-44 68t-60 24t-53 8q-20 3 -21 17q0 33 41 33l158 -4l174 6q43 0 43 -27q0 -16 -44 -42q-44 -25 -60 -57t-17 -124l2 -137q-1 -393 -33 -602t-100 -303q-137 -199 -485 -199t-492 131q-113 104 -139 250t-27 506v35
l5 295q0 112 -27 154t-125 57q-45 6 -45 38z" />
    <glyph glyph-name="umacron" unicode="&#x16b;" horiz-adv-x="1179" 
d="M762 1153l-385 2q-20 0 -21 45q0 45 33 45l371 -4q18 0 24 -10t6 -44t-28 -34zM1067 12q-41 0 -124 -11t-89 -11q-14 0 -24 52q-9 52 -12 52t-40 -33q-38 -33 -106 -65t-150 -33q-329 0 -329 356l2 369q0 41 -22 66t-40 24h-37q-37 0 -37 29t40 37t98 8l116 10
q35 0 41 -14t6 -72l-10 -377q0 -180 70 -255t158 -74q131 0 190 55t59 194l-4 283q0 102 -16 138q-15 36 -69 41t-54 28q0 47 180 47l74 10q31 0 40 -10t9 -30l-10 -513q0 -153 12 -197t45 -44l53 2q49 0 50 -25q-1 -25 -15 -31t-55 -6z" />
    <glyph glyph-name="Ubreve" unicode="&#x16c;" horiz-adv-x="1669" 
d="M662 1825q0 6 22 6h10q8 0 22 -23q14 -24 34 -50q18 -26 62 -48t111 -22t109 36t60 71q16 36 24 36h8q23 0 23 -6q0 -82 -65 -170q-66 -88 -180 -88t-177 85t-63 173zM41 1427q0 27 47 27l231 -8l193 4q43 0 43 -29q0 -18 -14 -22t-36 -6t-42 -15q-51 -29 -51 -190v-58
l-2 -442q0 -203 12 -264q28 -143 60 -186q78 -104 151 -136q111 -45 292 -45t267 49q37 20 85 64q138 128 138 494l-2 434q0 72 -3 112t-20 90t-44 68t-60 24t-53 8q-20 3 -21 17q0 33 41 33l158 -4l174 6q43 0 43 -27q0 -16 -44 -42q-44 -25 -60 -57t-17 -124l2 -137
q-1 -393 -33 -602t-100 -303q-137 -199 -485 -199t-492 131q-113 104 -139 250t-27 506v35l5 295q0 112 -27 154t-125 57q-45 6 -45 38z" />
    <glyph glyph-name="ubreve" unicode="&#x16d;" horiz-adv-x="1179" 
d="M342 1284q0 6 23 6h10q8 0 22 -22q15 -22 33 -50q18 -26 62 -49t112 -23q66 0 109 37q43 35 59 71t25 36h8q23 0 22 -6q-1 -82 -65 -170t-178 -88t-178 85t-64 173zM1067 12q-41 0 -124 -11t-89 -11q-14 0 -24 52q-9 52 -12 52t-40 -33q-38 -33 -106 -65t-150 -33
q-329 0 -329 356l2 369q0 41 -22 66t-40 24h-37q-37 0 -37 29t40 37t98 8l116 10q35 0 41 -14t6 -72l-10 -377q0 -180 70 -255t158 -74q131 0 190 55t59 194l-4 283q0 102 -16 138q-15 36 -69 41t-54 28q0 47 180 47l74 10q31 0 40 -10t9 -30l-10 -513q0 -153 12 -197
t45 -44l53 2q49 0 50 -25q-1 -25 -15 -31t-55 -6z" />
    <glyph glyph-name="Uring" unicode="&#x16e;" horiz-adv-x="1669" 
d="M815 1746q0 -34 23 -58t56 -23t55 25q21 24 22 55q0 84 -76 84q-28 0 -54 -24q-26 -25 -26 -59zM737 1762q0 42 47 94t118 53t109 -55t38 -120q-1 -64 -59 -107q-58 -42 -108 -42t-88 34t-48 67q-9 34 -9 76zM41 1427q0 27 47 27l231 -8l193 4q43 0 43 -29q0 -18 -14 -22
t-36 -6t-42 -15q-51 -29 -51 -190v-58l-2 -442q0 -203 12 -264q28 -143 60 -186q78 -104 151 -136q111 -45 292 -45t267 49q37 20 85 64q138 128 138 494l-2 434q0 72 -3 112t-20 90t-44 68t-60 24t-53 8q-20 3 -21 17q0 33 41 33l158 -4l174 6q43 0 43 -27q0 -16 -44 -42
q-44 -25 -60 -57t-17 -124l2 -137q-1 -393 -33 -602t-100 -303q-137 -199 -485 -199t-492 131q-113 104 -139 250t-27 506v35l5 295q0 112 -27 154t-125 57q-45 6 -45 38z" />
    <glyph glyph-name="uring" unicode="&#x16f;" horiz-adv-x="1179" 
d="M518 1148q22 -24 56 -24q33 0 55 24t22 56q0 84 -76 84q-28 1 -54 -23q-25 -24 -25 -59q0 -34 22 -58zM418 1221q0 43 47 95t118 52t109 -55t37 -120q0 -65 -58 -107q-59 -42 -109 -42t-88 34t-47 67t-9 76zM1067 12q-41 0 -124 -11t-89 -11q-14 0 -24 52q-9 52 -12 52
t-40 -33q-38 -33 -106 -65t-150 -33q-329 0 -329 356l2 369q0 41 -22 66t-40 24h-37q-37 0 -37 29t40 37t98 8l116 10q35 0 41 -14t6 -72l-10 -377q0 -180 70 -255t158 -74q131 0 190 55t59 194l-4 283q0 102 -16 138q-15 36 -69 41t-54 28q0 47 180 47l74 10q31 0 40 -10
t9 -30l-10 -513q0 -153 12 -197t45 -44l53 2q49 0 50 -25q-1 -25 -15 -31t-55 -6z" />
    <glyph glyph-name="Uhungarumlaut" unicode="&#x170;" horiz-adv-x="1669" 
d="M999 1546q0 10 17 31q61 86 139 281q16 38 40 38t66 -13t42 -40q0 -47 -199 -256q-59 -63 -82 -63t-23 22zM674 1546q0 10 14 31q61 86 141 281q16 38 41 38t67 -13t42 -40q0 -47 -199 -256q-58 -63 -82 -63t-24 22zM41 1427q0 27 47 27l231 -8l193 4q43 0 43 -29
q0 -18 -14 -22t-36 -6t-42 -15q-51 -29 -51 -190v-58l-2 -442q0 -203 12 -264q28 -143 60 -186q78 -104 151 -136q111 -45 292 -45t267 49q37 20 85 64q138 128 138 494l-2 434q0 72 -3 112t-20 90t-44 68t-60 24t-53 8q-20 3 -21 17q0 33 41 33l158 -4l174 6q43 0 43 -27
q0 -16 -44 -42q-44 -25 -60 -57t-17 -124l2 -137q-1 -393 -33 -602t-100 -303q-137 -199 -485 -199t-492 131q-113 104 -139 250t-27 506v35l5 295q0 112 -27 154t-125 57q-45 6 -45 38z" />
    <glyph glyph-name="uhungarumlaut" unicode="&#x171;" horiz-adv-x="1179" 
d="M680 1006q0 10 16 30q61 86 140 281q16 39 40 39t66 -14t41 -39q0 -47 -199 -256q-59 -63 -82 -64q-22 0 -22 23zM354 1006q0 10 15 30q61 86 141 281q16 39 41 39t67 -14t41 -39q0 -47 -198 -256q-59 -63 -83 -63t-24 22zM1067 12q-41 0 -124 -11t-89 -11q-14 0 -24 52
q-9 52 -12 52t-40 -33q-38 -33 -106 -65t-150 -33q-329 0 -329 356l2 369q0 41 -22 66t-40 24h-37q-37 0 -37 29t40 37t98 8l116 10q35 0 41 -14t6 -72l-10 -377q0 -180 70 -255t158 -74q131 0 190 55t59 194l-4 283q0 102 -16 138q-15 36 -69 41t-54 28q0 47 180 47l74 10
q31 0 40 -10t9 -30l-10 -513q0 -153 12 -197t45 -44l53 2q49 0 50 -25q-1 -25 -15 -31t-55 -6z" />
    <glyph glyph-name="Uogonek" unicode="&#x172;" horiz-adv-x="1669" 
d="M41 1427q0 27 47 27l231 -8l193 4q43 0 43 -29q0 -18 -14 -22t-36 -6t-42 -15q-51 -29 -51 -190v-58l-2 -442q0 -203 12 -264q28 -143 60 -186q78 -104 151 -136q111 -45 292 -45t267 49q37 20 85 64q138 128 138 494l-2 434q0 72 -3 112t-20 90t-44 68t-60 24t-53 8
q-20 3 -21 17q0 33 41 33l158 -4l174 6q43 0 43 -27q0 -16 -44 -42q-44 -25 -60 -57t-17 -124l2 -137q-1 -393 -33 -602t-99 -304t-199 -153q-35 -14 -77 -21t-65 -11t-45 -19q-41 -27 -41 -148q0 -57 31 -102t67 -45t60 11t27 12q14 1 14 -19t-48 -51t-119 -31t-118 56
t-47 118q0 109 57 178l19 23q0 4 -65 4q-65 1 -196 19q-130 18 -238 117t-134 245t-27 506v35l5 295q0 112 -27 154t-125 57q-45 6 -45 38z" />
    <glyph glyph-name="uogonek" unicode="&#x173;" horiz-adv-x="1179" 
d="M936 -1l-26 -13q-12 -7 -16 -12q-3 -5 -5 -7v-2q-49 -57 -49 -136t32 -124t69 -45q35 0 59 11t28 12q14 1 14 -19t-47 -51t-117 -31t-115 60q-46 60 -46 128q1 70 29 120t58 81t30 50t-8 46t-9 27q-2 0 -39 -33q-38 -33 -106 -65t-150 -33q-329 0 -329 356l2 369
q0 41 -22 66t-40 24h-37q-37 0 -37 29t40 37t98 8l116 10q35 0 41 -14t6 -72l-10 -377q0 -180 70 -255t158 -74q131 0 190 55t59 194l-4 283q0 102 -16 138q-15 36 -69 41t-54 28q0 47 180 47l74 10q31 0 40 -10t9 -30l-10 -513q0 -153 12 -197t45 -44l53 2q49 0 50 -25
q-1 -25 -15 -31t-87 -6t-99 -13z" />
    <glyph glyph-name="Wcircumflex" unicode="&#x174;" horiz-adv-x="2273" 
d="M952 1563q0 2 9 18q127 186 145 227t26 50t21 10h51q23 0 35 -23q51 -90 113 -181t63 -99q0 -17 -18 -17q-17 0 -113 87t-105 87t-101 -86t-108 -86q-18 0 -18 13zM2234 1427q0 -14 -11 -22t-41 -24t-47 -42t-30 -54q-14 -28 -278 -625t-293 -656t-47 -59t-92 182
q-82 185 -146 337q-63 153 -78 152q-20 0 -138 -282t-123 -303q-5 -20 -10 -33t-7 -21t-4 -12t-3 -8q-4 -18 -22 -18t-45 58t-96 229q-70 171 -165 380t-228 537q-39 98 -84 154q-45 57 -80 71t-64 16t-45 8t-16 34q0 26 55 26l226 -6l176 6q18 0 23 -5t5 -19t-44 -36
t-44 -62t62 -173q206 -462 354 -809q41 -90 51 -90t68 127q57 127 84 193t43 98t16 58t-129 314t-165 315q-36 28 -56 28l-23 2q-57 6 -69 11t-12 21q0 29 59 29l225 -8l135 8q61 0 61 -14t-22 -27q-66 -35 -66 -77t34 -118t73 -174q39 -100 54 -100t81 179t66 214t-31 51
t-61 22q-30 7 -31 24q0 23 45 22l131 -4h35q29 0 109 6h18q27 0 27 -20t-39 -32t-63 -37t-58 -107t-93 -224q-61 -142 -71 -170q-10 -29 -10 -48t125 -298q125 -278 149 -278t237 517q214 517 214 559q0 67 -76 81q-76 6 -76 33q0 14 6 17t33 3l129 -2l182 4q41 0 41 -29z
" />
    <glyph glyph-name="wcircumflex" unicode="&#x175;" horiz-adv-x="1531" 
d="M543 1022q0 2 8 18q127 186 145 228t26 50q8 9 21 9h52q23 0 34 -22q51 -89 113 -181t64 -104q0 -12 -18 -12t-114 87t-105 87t-100 -86t-109 -86t-17 12zM948 838q0 -14 -6 -17q-12 -4 -24 -4q-61 -4 -62 -57q0 -76 121 -342q16 -33 50 -120t46 -87q20 0 108 224
q87 223 87 277q0 86 -56 95q-57 8 -57 41q0 16 43 16h236q39 0 49 -4t10 -22t-34 -32t-59 -49q-25 -36 -69 -139q-61 -154 -156 -355t-119 -246q-23 -44 -42 -44q-35 -1 -131 265t-113 266q-6 0 -131 -262t-164 -262q-16 0 -31 28q-14 29 -78 197q-65 168 -106 269
q-41 102 -58 152t-36 88t-86 97q-8 8 -18 13t-15 7q-6 6 -6 21q0 23 39 22l145 -8l101 2q61 0 78 -3q18 -3 18 -19t-23 -23q-67 -14 -67 -81t114 -324q14 -29 51 -117t51 -88q15 0 70 114t76 153t28 56t11 27t4 25v14q0 14 -27 80t-65 100q-39 33 -51 37q-33 13 -33 31
t31 18l248 -4l63 2q45 0 45 -28z" />
    <glyph glyph-name="Ycircumflex" unicode="&#x176;" horiz-adv-x="1458" 
d="M537 1563q0 2 8 18q127 186 145 227t26 50t21 10h51q23 0 35 -23q51 -90 113 -181t63 -99q0 -17 -18 -17q-17 0 -113 87t-105 87t-100 -86t-109 -86t-17 13zM1030 28q0 -28 -49 -28l-205 2l-225 -8q-57 0 -57 20t11 28t38 9q27 2 39 6q86 27 86 125l4 416q0 86 -52 166
t-131 197q-80 117 -141 209t-112 144q-51 50 -79 59t-72 9t-44 25t24 31t103 6l119 -4l174 2q102 0 102 -24t-43 -39t-43 -34t13 -53q12 -34 26 -53q14 -20 41 -59q27 -38 64 -98t111 -160t86 -100q19 -1 66 78q48 78 62 100t38 57q34 49 60 93l27 45q39 73 39 99
q0 74 -94 86q-45 6 -51 18t-7 21q0 25 58 25l84 -2l217 -2q100 0 100 -31q0 -8 -12 -14q-12 -7 -35 -17t-41 -24q-84 -66 -247 -312q-162 -246 -190 -280t-36 -84q-8 -49 -8 -168l2 -238v-49q0 -69 24 -107t44 -45t40 -8l41 -2q31 0 31 -33z" />
    <glyph glyph-name="ycircumflex" unicode="&#x177;" horiz-adv-x="1019" 
d="M301 1022q0 2 8 18q127 186 145 228t27 50q8 9 21 9h51q23 0 35 -22q51 -89 113 -181q63 -92 63 -104t-18 -12t-114 87q-94 87 -104 87t-101 -86t-109 -86t-17 12zM291 -365q0 5 46 63t93 142t47 149t-117 319t-202 415q-22 41 -46 63t-38 25q-33 4 -33 31t41 26l219 -4
l117 4q14 0 25 -7t12 -15q0 -37 -49 -37h-31q-33 0 -33 -56t109 -290q16 -35 63 -143t59 -107q12 0 96 236q83 237 83 281t-20 62t-44 19q-63 -4 -63 35q0 25 39 24l147 -2l127 2q43 0 43 -26q0 -20 -36 -30t-48 -26q-33 -47 -111 -258l-182 -485q-25 -63 -60 -163l-50 -138
q-23 -64 -39 -98q-16 -35 -31 -35h-6l-88 -2q-39 0 -39 26z" />
    <glyph glyph-name="Ydieresis" unicode="&#x178;" horiz-adv-x="1458" 
d="M856 1751q0 29 32 67q64 76 131 2q32 -36 32 -69t-36 -71t-54 -38q-41 0 -73 40t-32 69zM528 1751q0 29 32 67q65 77 131 2q32 -36 32 -69t-36 -71t-52 -38q-41 0 -74 40t-33 69zM1030 28q0 -28 -49 -28l-205 2l-225 -8q-57 0 -57 20t11 28t38 9q27 2 39 6q86 27 86 125
l4 416q0 86 -52 166t-131 197q-80 117 -141 209t-112 144q-51 50 -79 59t-72 9t-44 25t24 31t103 6l119 -4l174 2q102 0 102 -24t-43 -39t-43 -34t13 -53q12 -34 26 -53q14 -20 41 -59q27 -38 64 -98t111 -160t86 -100q19 -1 66 78q48 78 62 100t38 57q34 49 60 93l27 45
q39 73 39 99q0 74 -94 86q-45 6 -51 18t-7 21q0 25 58 25l84 -2l217 -2q100 0 100 -31q0 -8 -12 -14q-12 -7 -35 -17t-41 -24q-84 -66 -247 -312q-162 -246 -190 -280t-36 -84q-8 -49 -8 -168l2 -238v-49q0 -69 24 -107t44 -45t40 -8l41 -2q31 0 31 -33z" />
    <glyph glyph-name="Zacute" unicode="&#x179;" horiz-adv-x="1153" 
d="M483 1546q0 10 15 31q66 98 139 281q16 38 41 38q24 0 66 -13t42 -40q0 -47 -198 -256q-59 -63 -82 -63t-23 22zM1055 1417q0 -29 -376 -647t-376 -636t24 -30q25 -14 223 -14t314 14t184 82q17 18 27 28t21 11q16 1 16 -29t-63 -133q-4 -6 -17 -28t-27 -28
q-15 -7 -42 -7l-375 -2l-506 -2q-41 0 -41 33q0 12 58 99t107 173q48 86 324 536t275 486q0 23 -80 23t-383 -9q-66 -3 -114 -33t-67 -66t-35 -66t-28 -29q-27 0 -26 37q0 38 8 78t8 52t6 67q6 57 18 65t34 8l452 -6l369 2q88 0 88 -29z" />
    <glyph glyph-name="zacute" unicode="&#x17a;" horiz-adv-x="774" 
d="M326 1006q0 10 14 30q66 98 139 281q16 39 41 39t67 -14t42 -39q0 -47 -199 -256q-59 -63 -82 -64q-22 0 -22 23zM184 2q-35 0 -49 -2h-14q-39 0 -39 31t15 51t29 40t26 36q375 541 374 571q0 10 -47 10l-250 -14q-59 -4 -102 -88q-14 -29 -25 -29q-16 0 -16 43t13 111
q13 67 14 74q4 37 41 36l219 -6l301 6q25 0 24 -20q0 -24 -28 -56t-72 -102q-45 -70 -153 -222q-107 -152 -155 -226q-48 -72 -48 -96q0 -18 100 -19l100 2q109 0 144 27q35 26 46 58t15 40q14 29 35 29q33 0 33 -29q0 -12 -28 -76t-35 -90q-7 -27 -13 -43q-12 -45 -37 -45
h-233l-150 -2h-35z" />
    <glyph glyph-name="Zdotaccent" unicode="&#x17b;" horiz-adv-x="1153" 
d="M467 1746q0 28 36 72q35 44 67 44t64 -42t32 -75t-40 -73t-59 -40q-40 0 -70 43t-30 71zM1055 1417q0 -29 -376 -647t-376 -636t24 -30q25 -14 223 -14t314 14t184 82q17 18 27 28t21 11q16 1 16 -29t-63 -133q-4 -6 -17 -28t-27 -28q-15 -7 -42 -7l-375 -2l-506 -2
q-41 0 -41 33q0 12 58 99t107 173q48 86 324 536t275 486q0 23 -80 23t-383 -9q-66 -3 -114 -33t-67 -66t-35 -66t-28 -29q-27 0 -26 37q0 38 8 78t8 52t6 67q6 57 18 65t34 8l452 -6l369 2q88 0 88 -29z" />
    <glyph glyph-name="zdotaccent" unicode="&#x17c;" horiz-adv-x="774" 
d="M309 1206q0 28 36 71q36 44 68 44q31 0 63 -42t32 -75q0 -32 -40 -72t-58 -40q-41 0 -71 43t-30 71zM184 2q-35 0 -49 -2h-14q-39 0 -39 31t15 51t29 40t26 36q375 541 374 571q0 10 -47 10l-250 -14q-59 -4 -102 -88q-14 -29 -25 -29q-16 0 -16 43t13 111q13 67 14 74
q4 37 41 36l219 -6l301 6q25 0 24 -20q0 -24 -28 -56t-72 -102q-45 -70 -153 -222q-107 -152 -155 -226q-48 -72 -48 -96q0 -18 100 -19l100 2q109 0 144 27q35 26 46 58t15 40q14 29 35 29q33 0 33 -29q0 -12 -28 -76t-35 -90q-7 -27 -13 -43q-12 -45 -37 -45h-233l-150 -2
h-35z" />
    <glyph glyph-name="Zcaron" unicode="&#x17d;" horiz-adv-x="1153" 
d="M350 1868q18 0 112 -87t104 -87t102 86t109 86t18 -13q0 -2 -9 -18q-127 -186 -145 -227q-19 -41 -27 -50t-20 -10h-51q-25 0 -37 23q-35 59 -105 165q-69 106 -69 120q0 12 18 12zM1055 1417q0 -29 -376 -647t-376 -636t24 -30q25 -14 223 -14t314 14t184 82
q17 18 27 28t21 11q16 1 16 -29t-63 -133q-4 -6 -17 -28t-27 -28q-15 -7 -42 -7l-375 -2l-506 -2q-41 0 -41 33q0 12 58 99t107 173q48 86 324 536t275 486q0 23 -80 23t-383 -9q-66 -3 -114 -33t-67 -66t-35 -66t-28 -29q-27 0 -26 37q0 38 8 78t8 52t6 67q6 57 18 65t34 8
l452 -6l369 2q88 0 88 -29z" />
    <glyph glyph-name="zcaron" unicode="&#x17e;" horiz-adv-x="774" 
d="M193 1327q18 0 112 -87q93 -87 103 -87t102 86t110 86t17 -12q0 -2 -8 -19q-127 -186 -145 -227t-27 -50q-8 -9 -21 -9h-51q-25 0 -37 22q-34 60 -104 166t-70 119q1 12 19 12zM184 2q-35 0 -49 -2h-14q-39 0 -39 31t15 51t29 40t26 36q375 541 374 571q0 10 -47 10
l-250 -14q-59 -4 -102 -88q-14 -29 -25 -29q-16 0 -16 43t13 111q13 67 14 74q4 37 41 36l219 -6l301 6q25 0 24 -20q0 -24 -28 -56t-72 -102q-45 -70 -153 -222q-107 -152 -155 -226q-48 -72 -48 -96q0 -18 100 -19l100 2q109 0 144 27q35 26 46 58t15 40q14 29 35 29
q33 0 33 -29q0 -12 -28 -76t-35 -90q-7 -27 -13 -43q-12 -45 -37 -45h-233l-150 -2h-35z" />
    <glyph glyph-name="longs" unicode="&#x17f;" horiz-adv-x="489" 
d="M489 1403q-209 0 -213 -465v-307q0 -53 6 -250t7 -219q2 -22 14 -56q20 -68 113 -67q29 0 30 -14q2 -6 3 -17q0 -20 -23 -20l-203 10l-151 -10q-18 0 -25 6q-6 6 -6 22q0 10 25 20q24 10 50 39t26 69t-6 126q-5 86 -5 478q0 8 -33 32t-32 42q0 18 32 24t34 13q3 7 3 38
q0 149 49 275t123 200q152 158 279 158q47 0 78 -16t30 -41q0 -8 -7 -36l-9 -36q-2 -8 -4 -13t-5 -14t-14 -20q-8 -4 -18 -4t-21 14q-31 39 -127 39z" />
    <glyph glyph-name="florin" unicode="&#x192;" horiz-adv-x="649" 
d="M-88 -319q0 27 16 83t42 56t30 -31t26 -51t36 -20q49 -2 80 316q7 73 14 116l82 589q0 29 -21 29q-72 0 -98 -2h-27q-31 0 -41 8t-10 34t9 36q10 10 78 8t114 -2q12 0 14 16q47 319 176 506q117 164 258 164q96 0 96 -74q0 -28 -8 -72t-24 -44t-68 42t-104 42
q-68 0 -136 -247t-67 -313q0 -18 24 -18l166 2q39 0 39 -33q0 -57 -41 -57l-172 6q-25 0 -29 -11t-6 -14v-8q-4 -27 -24 -237q-49 -545 -89 -640q-40 -94 -97 -148q-58 -54 -96 -66t-68 -13q-74 0 -74 48z" />
    <glyph glyph-name="uni0218" unicode="&#x218;" horiz-adv-x="1220" 
d="M526 -162q0 6 23 22t41 34q18 16 33 16q44 0 79 -42q34 -42 33 -83q1 -88 -65 -142q-66 -55 -95 -55t-28 15q0 6 22 18q63 33 63 92t-79 97q-27 12 -27 28zM1053 1119q0 -44 -29 -44q-18 0 -36 44q-17 44 -41 81t-34 47t-53 49q-111 98 -253 98t-228 -60
q-86 -62 -86 -160t50 -158t134 -92q84 -33 176 -62q248 -78 367 -203q82 -88 82 -219q0 -215 -137 -341t-340 -126q-141 -1 -227 15t-177 63q-27 15 -63 159t-37 180t27 36t34 -20q76 -182 182 -262t264 -81q157 0 250 81t93 212q1 96 -63 161t-146 93q-305 102 -414 166
q-186 111 -186 297t132 296t343 110q77 0 185 -34t110 -34l47 16q27 0 31 -16q43 -248 43 -292z" />
    <glyph glyph-name="uni0219" unicode="&#x219;" horiz-adv-x="804" 
d="M315 -162q0 6 23 22q22 16 40 34q18 16 34 16q44 0 79 -42q34 -42 33 -83q0 -88 -66 -142q-66 -55 -94 -55t-28 15q0 6 22 18q64 33 64 92t-80 97q-27 12 -27 28zM648 639q-15 0 -33 30q-17 31 -39 65t-69 64t-109 30t-101 -30t-39 -65q0 -66 22 -88q22 -21 32 -33
q17 -18 122 -59q186 -66 240 -128t53 -179q0 -117 -109 -215q-74 -63 -177 -63t-274 61q-11 4 -16 5q-38 8 -38 54v178q0 53 34 53q15 0 23 -9t14 -38t13 -41q76 -188 213 -188q63 0 120 34q58 35 58 107t-47 117t-115 71t-136 54t-114 81q-47 54 -47 136q0 115 92 185
t203 69q111 0 168 -17q56 -17 68 -32t12 -27l8 -123q0 -59 -32 -59z" />
    <glyph glyph-name="uni021A" unicode="&#x21a;" horiz-adv-x="1439" 
d="M614 -162q0 6 23 22t41 34q18 16 33 16q44 0 79 -42q34 -42 33 -83q1 -88 -65 -142q-66 -55 -94 -55t-29 15q0 6 22 18q63 33 63 92t-79 97q-27 12 -27 28zM850 1454q412 0 498 12q22 0 30 -12t8 -22l13 -166q0 -50 -6 -64t-27 -14q-16 0 -28 42q-11 42 -23 64
q-31 53 -178 54h-267q-49 0 -60 -20t-11 -111v-101l-6 -749l-2 -134q-1 -89 27 -115q48 -46 111 -52q62 -7 62 -39q0 -23 -10 -29t-39 -6l-227 16l-209 -14q-76 0 -76 33q0 20 12 27q12 6 48 12t47 8q70 16 77 82q20 180 21 774l-2 366q0 38 -23 48t-211 10t-223 -24
q-45 -26 -74 -130q-6 -47 -39 -47q-23 0 -22 35q0 82 10 148t11 77q1 10 3 13q1 2 2 10t3 11t8 13t43 10t177 -8t552 -8z" />
    <glyph glyph-name="uni021B" unicode="&#x21b;" horiz-adv-x="700" 
d="M285 -162q0 6 22 23q23 17 41 33t33 16q44 0 79 -42q34 -42 34 -83q0 -88 -66 -142q-66 -55 -94 -55t-29 15q0 6 23 18q63 33 63 92t-80 97q-26 12 -26 28zM55 786q0 20 19 35q78 51 133 126t75 97t40 21q20 0 20 -47l-8 -117q0 -29 11 -35t73 -6h71q92 0 121 14t37 15
q43 0 -6 -87q-27 -48 -39 -48q-92 0 -129 4t-49 5t-22 2t-13 1l-4 2q-39 0 -50 -12t-11 -56l-9 -381q0 -133 34 -185t143 -52q43 0 95 19t56 20q21 0 21 -27q0 -26 -71 -70t-153 -44q-276 0 -276 239v31l8 477q0 21 -8 27t-35 6l-39 -2q-35 0 -35 28z" />
    <glyph glyph-name="uni0237" unicode="&#x237;" horiz-adv-x="575" 
d="M211 -309q27 1 37 69t10 260v623q0 88 -53 111q-27 10 -64 10t-37 20q0 12 19 19q111 33 181 65t77 33q25 0 25 -47v-23l-5 -96v-663q0 -113 -20 -213q-20 -101 -85 -185t-155 -84t-90 56l-4 73q0 59 45 60q23 0 64 -44t55 -44z" />
    <glyph glyph-name="uni02BB" unicode="&#x2bb;" horiz-adv-x="899" 
d="M344 1149q0 88 65 141t95 53t28 -14q0 -6 -22 -18q-64 -33 -64 -92t80 -97q27 -12 27 -28q0 -6 -23 -22t-40 -34q-17 -16 -33 -16q-48 2 -88 54q-25 32 -25 73z" />
    <glyph glyph-name="afii57929" unicode="&#x2bc;" horiz-adv-x="899" 
d="M348 1450q0 6 23 22t41 34q18 16 32 16q43 0 78 -42t35 -83q0 -88 -65 -143q-66 -54 -95 -54t-28 14q0 6 22 19q63 33 63 92t-79 96q-27 13 -27 29z" />
    <glyph glyph-name="uni02C0" unicode="&#x2c0;" horiz-adv-x="899" 
 />
    <glyph glyph-name="circumflex" unicode="&#x2c6;" horiz-adv-x="899" 
d="M219 1022q0 2 8 18q127 186 145 228t27 50q8 9 21 9h51q23 0 35 -22q52 -89 114 -181t62 -104t-18 -12t-114 87t-104 87q-10 0 -101 -86t-109 -86t-17 12z" />
    <glyph glyph-name="caron" unicode="&#x2c7;" horiz-adv-x="899" 
d="M238 1327q18 0 112 -87t104 -87t101 86t109 86t18 -12q0 -2 -8 -19q-128 -186 -146 -227t-26 -50t-21 -9h-51q-25 0 -37 22q-35 60 -105 166t-69 119q1 12 19 12z" />
    <glyph glyph-name="uni02C8" unicode="&#x2c8;" horiz-adv-x="899" 
 />
    <glyph glyph-name="breve" unicode="&#x2d8;" horiz-adv-x="899" 
d="M217 1284q0 6 23 6h10q8 0 22 -22t32 -50q18 -26 64 -49q44 -23 110 -23t110 37q43 35 59 71t25 36h8q23 0 22 -6q0 -82 -64 -170t-180 -88q-114 0 -178 85t-63 173z" />
    <glyph glyph-name="dotaccent" unicode="&#x2d9;" horiz-adv-x="899" 
d="M354 1206q0 28 36 71q36 44 68 44t64 -42t31 -75q0 -32 -40 -72t-58 -40q-41 0 -71 43t-30 71z" />
    <glyph glyph-name="ring" unicode="&#x2da;" horiz-adv-x="899" 
d="M394 1148q22 -24 55 -24t55 24t22 56q0 84 -75 84q-29 1 -55 -23t-26 -59q2 -34 24 -58zM293 1221q0 43 47 95t118 52q70 0 108 -55t38 -120t-58 -107t-108 -42t-89 34q-38 34 -47 67t-9 76z" />
    <glyph glyph-name="tilde" unicode="&#x2dc;" horiz-adv-x="899" 
d="M147 1085q0 35 69 126t124 91t133 -48q78 -50 123 -50t87 58t46 57q21 0 21 -31t-68 -117t-125 -86q-57 -1 -138 49t-118 50q-55 0 -110 -86q-17 -29 -23 -29q-21 0 -21 16z" />
    <glyph glyph-name="hungarumlaut" unicode="&#x2dd;" horiz-adv-x="899" 
d="M555 1006q0 10 16 30q61 86 140 281q16 39 40 39q23 0 65 -14t42 -39q0 -47 -199 -256q-59 -63 -81 -63t-23 22zM229 1006q0 10 15 30q61 86 141 281q16 39 41 39t67 -14t42 -39q0 -47 -199 -256q-59 -63 -83 -63t-24 22z" />
    <glyph glyph-name="gravecomb" unicode="&#x300;" horiz-adv-x="0" 
d="M-676 1303q0 27 43 39t67 14q24 0 46 -54q64 -154 125 -247l18 -31q6 -10 6 -18q-1 -23 -23 -23t-81 64q-201 211 -201 256z" />
    </font>
</defs>
</svg>
